<svg width="328" height="350" viewBox="0 0 328 350" fill="none" xmlns="http://www.w3.org/2000/svg">
<path d="M68.2119 146.716H77.5118" stroke="#626469" stroke-miterlimit="10"/>
<path d="M68.2119 85.3096H77.5118" stroke="#626469" stroke-miterlimit="10"/>
<path d="M68.5566 208.407H77.8565" stroke="#626469" stroke-miterlimit="10"/>
<path d="M111.621 270.007V279.743" stroke="#626469" stroke-miterlimit="10"/>
<path d="M172.694 269.953V279.689" stroke="#626469" stroke-miterlimit="10"/>
<path d="M233.789 270.025V279.762" stroke="#626469" stroke-miterlimit="10"/>
<path d="M294.84 270.059V279.795" stroke="#626469" stroke-miterlimit="10"/>
<path d="M144.653 329.374H141.604V337.666H139.554V329.374H136.546V327.713H144.653V329.374Z" fill="#3D5F66"/>
<path d="M149.404 332.122C149.136 332.086 148.898 332.067 148.693 332.067C147.946 332.067 147.456 332.32 147.224 332.826V337.666H145.248V330.27H147.114L147.169 331.151C147.565 330.473 148.115 330.133 148.816 330.133C149.035 330.133 149.24 330.162 149.432 330.222L149.404 332.122Z" fill="#3D5F66"/>
<path d="M153.759 337.803C152.675 337.803 151.791 337.47 151.11 336.805C150.429 336.14 150.088 335.253 150.088 334.146V333.954C150.088 333.211 150.231 332.547 150.519 331.961C150.806 331.376 151.213 330.925 151.739 330.607C152.266 330.291 152.866 330.133 153.54 330.133C154.552 330.133 155.349 330.452 155.93 331.09C156.511 331.728 156.801 332.633 156.801 333.804V334.61H152.091C152.155 335.094 152.348 335.48 152.669 335.772C152.99 336.064 153.396 336.21 153.889 336.21C154.65 336.21 155.245 335.935 155.673 335.383L156.644 336.47C156.348 336.889 155.946 337.216 155.44 337.451C154.935 337.686 154.374 337.803 153.759 337.803ZM153.533 331.726C153.142 331.726 152.823 331.858 152.58 332.124C152.336 332.39 152.18 332.77 152.111 333.264H154.859V333.105C154.851 332.666 154.732 332.326 154.504 332.086C154.276 331.846 153.953 331.726 153.533 331.726Z" fill="#3D5F66"/>
<path d="M162.208 337.666C162.117 337.488 162.051 337.268 162.01 337.003C161.531 337.536 160.909 337.803 160.144 337.803C159.419 337.803 158.818 337.593 158.343 337.174C157.866 336.755 157.628 336.226 157.628 335.588C157.628 334.804 157.919 334.202 158.5 333.783C159.081 333.364 159.921 333.152 161.019 333.147H161.928V332.724C161.928 332.382 161.84 332.108 161.665 331.903C161.489 331.698 161.213 331.596 160.834 331.596C160.502 331.596 160.24 331.676 160.052 331.835C159.862 331.994 159.768 332.213 159.768 332.491H157.792C157.792 332.063 157.925 331.666 158.188 331.302C158.453 330.937 158.827 330.651 159.31 330.443C159.793 330.236 160.335 330.133 160.936 330.133C161.849 330.133 162.571 330.361 163.107 330.82C163.643 331.277 163.91 331.922 163.91 332.751V335.957C163.915 336.659 164.013 337.189 164.204 337.55V337.666L162.208 337.666ZM160.574 336.292C160.866 336.292 161.135 336.227 161.381 336.098C161.627 335.967 161.81 335.793 161.928 335.574V334.303H161.189C160.201 334.303 159.675 334.645 159.61 335.328L159.604 335.444C159.604 335.69 159.69 335.894 159.863 336.053C160.037 336.212 160.273 336.292 160.574 336.292Z" fill="#3D5F66"/>
<path d="M167.793 328.451V330.27H169.058V331.719H167.793V335.41C167.793 335.684 167.846 335.88 167.95 335.998C168.056 336.116 168.256 336.176 168.552 336.176C168.771 336.176 168.965 336.16 169.133 336.128V337.625C168.746 337.743 168.347 337.803 167.937 337.803C166.552 337.803 165.845 337.104 165.817 335.704V331.719H164.737V330.27H165.817V328.451H167.793Z" fill="#3D5F66"/>
<path d="M172.011 330.27L172.072 331.097C172.597 330.454 173.306 330.133 174.198 330.133C175.151 330.133 175.805 330.509 176.16 331.261C176.68 330.509 177.421 330.133 178.382 330.133C179.185 330.133 179.781 330.366 180.173 330.834C180.565 331.301 180.761 332.004 180.761 332.942V337.666H178.778V332.949C178.778 332.53 178.696 332.224 178.532 332.029C178.368 331.836 178.079 331.739 177.664 331.739C177.072 331.739 176.662 332.021 176.434 332.587L176.44 337.666H174.465V332.956C174.465 332.527 174.381 332.218 174.212 332.026C174.044 331.835 173.757 331.739 173.351 331.739C172.79 331.739 172.385 331.972 172.134 332.437V337.666H170.158V330.27H172.011Z" fill="#3D5F66"/>
<path d="M185.683 337.803C184.599 337.803 183.715 337.47 183.034 336.805C182.353 336.14 182.012 335.253 182.012 334.146V333.954C182.012 333.211 182.155 332.547 182.442 331.961C182.729 331.376 183.137 330.925 183.663 330.607C184.189 330.291 184.79 330.133 185.464 330.133C186.476 330.133 187.272 330.452 187.854 331.09C188.435 331.728 188.725 332.633 188.725 333.804V334.61H184.015C184.079 335.094 184.271 335.48 184.593 335.772C184.914 336.064 185.32 336.21 185.812 336.21C186.574 336.21 187.169 335.935 187.597 335.383L188.567 336.47C188.271 336.889 187.87 337.216 187.364 337.451C186.858 337.686 186.298 337.803 185.683 337.803ZM185.457 331.726C185.065 331.726 184.747 331.858 184.504 332.124C184.26 332.39 184.104 332.77 184.035 333.264H186.783V333.105C186.774 332.666 186.656 332.326 186.428 332.086C186.2 331.846 185.877 331.726 185.457 331.726Z" fill="#3D5F66"/>
<path d="M191.664 330.27L191.726 331.124C192.255 330.463 192.963 330.133 193.852 330.133C194.636 330.133 195.219 330.363 195.602 330.823C195.984 331.283 196.181 331.972 196.189 332.888V337.666H194.214V332.936C194.214 332.517 194.123 332.212 193.94 332.023C193.759 331.834 193.455 331.739 193.031 331.739C192.476 331.739 192.059 331.977 191.78 332.45V337.666H189.805V330.27H191.664Z" fill="#3D5F66"/>
<path d="M200.052 328.451V330.27H201.316V331.719H200.052V335.41C200.052 335.684 200.104 335.88 200.209 335.998C200.314 336.116 200.515 336.176 200.811 336.176C201.029 336.176 201.224 336.16 201.392 336.128V337.625C201.005 337.743 200.605 337.803 200.195 337.803C198.811 337.803 198.104 337.104 198.076 335.704V331.719H196.996V330.27H198.076V328.451H200.052Z" fill="#3D5F66"/>
<path d="M205.596 333.913C205.596 332.76 205.854 331.842 206.372 331.158C206.889 330.475 207.597 330.133 208.494 330.133C209.215 330.133 209.81 330.401 210.278 330.939V327.166H212.261V337.666H210.477L210.381 336.88C209.889 337.495 209.256 337.803 208.48 337.803C207.61 337.803 206.912 337.46 206.386 336.773C205.859 336.088 205.596 335.135 205.596 333.913ZM207.571 334.061C207.571 334.754 207.692 335.286 207.934 335.655C208.176 336.025 208.526 336.21 208.986 336.21C209.598 336.21 210.028 335.952 210.278 335.437V332.513C210.032 331.997 209.606 331.739 209 331.739C208.048 331.739 207.571 332.513 207.571 334.061Z" fill="#3D5F66"/>
<path d="M218.222 336.914C217.734 337.507 217.06 337.803 216.198 337.803C215.405 337.803 214.801 337.575 214.384 337.119C213.967 336.663 213.754 335.996 213.744 335.116V330.27H215.72V335.054C215.72 335.824 216.071 336.21 216.772 336.21C217.442 336.21 217.903 335.978 218.153 335.512V330.27H220.136V337.666H218.276L218.222 336.914Z" fill="#3D5F66"/>
<path d="M225.782 332.122C225.514 332.086 225.276 332.067 225.071 332.067C224.324 332.067 223.834 332.32 223.602 332.826V337.666H221.626V330.27H223.492L223.547 331.151C223.943 330.473 224.493 330.133 225.194 330.133C225.413 330.133 225.618 330.162 225.81 330.222L225.782 332.122Z" fill="#3D5F66"/>
<path d="M230.813 337.666C230.723 337.488 230.656 337.268 230.615 337.003C230.137 337.536 229.515 337.803 228.749 337.803C228.024 337.803 227.424 337.593 226.948 337.174C226.472 336.755 226.233 336.226 226.233 335.588C226.233 334.804 226.524 334.202 227.105 333.783C227.687 333.364 228.526 333.152 229.624 333.147H230.533V332.724C230.533 332.382 230.445 332.108 230.27 331.903C230.095 331.698 229.818 331.596 229.439 331.596C229.107 331.596 228.846 331.676 228.657 331.835C228.468 331.994 228.373 332.213 228.373 332.491H226.397C226.397 332.063 226.53 331.666 226.794 331.302C227.059 330.937 227.433 330.651 227.915 330.443C228.398 330.236 228.94 330.133 229.542 330.133C230.454 330.133 231.177 330.361 231.713 330.82C232.248 331.277 232.516 331.922 232.516 332.751V335.957C232.52 336.659 232.618 337.189 232.81 337.55V337.666L230.813 337.666ZM229.18 336.292C229.472 336.292 229.74 336.227 229.986 336.098C230.232 335.967 230.415 335.793 230.533 335.574V334.303H229.795C228.807 334.303 228.28 334.645 228.216 335.328L228.209 335.444C228.209 335.69 228.296 335.894 228.469 336.053C228.643 336.212 228.879 336.292 229.18 336.292Z" fill="#3D5F66"/>
<path d="M236.398 328.451V330.27H237.663V331.719H236.398V335.41C236.398 335.684 236.451 335.88 236.556 335.998C236.661 336.116 236.861 336.176 237.157 336.176C237.376 336.176 237.57 336.16 237.738 336.128V337.625C237.352 337.743 236.952 337.803 236.542 337.803C235.157 337.803 234.45 337.104 234.423 335.704V331.719H233.343V330.27H234.423V328.451H236.398Z" fill="#3D5F66"/>
<path d="M238.75 328.354C238.75 328.059 238.85 327.814 239.048 327.623C239.246 327.432 239.516 327.336 239.857 327.336C240.195 327.336 240.464 327.432 240.664 327.623C240.865 327.814 240.965 328.059 240.965 328.354C240.965 328.655 240.863 328.901 240.661 329.093C240.458 329.284 240.19 329.38 239.857 329.38C239.525 329.38 239.257 329.284 239.055 329.093C238.852 328.901 238.75 328.655 238.75 328.354ZM240.849 337.665H238.866V330.269H240.849V337.665Z" fill="#3D5F66"/>
<path d="M242.168 333.899C242.168 333.166 242.31 332.512 242.592 331.938C242.875 331.363 243.281 330.919 243.812 330.604C244.343 330.29 244.96 330.133 245.661 330.133C246.659 330.133 247.474 330.438 248.105 331.049C248.736 331.659 249.089 332.489 249.161 333.537L249.175 334.043C249.175 335.178 248.858 336.088 248.225 336.773C247.592 337.46 246.741 337.803 245.675 337.803C244.608 337.803 243.758 337.461 243.122 336.777C242.486 336.094 242.168 335.164 242.168 333.988V333.899ZM244.144 334.04C244.144 334.742 244.276 335.28 244.54 335.652C244.805 336.024 245.183 336.21 245.675 336.21C246.153 336.21 246.527 336.026 246.796 335.659C247.065 335.291 247.199 334.704 247.199 333.896C247.199 333.207 247.065 332.673 246.796 332.294C246.527 331.915 246.149 331.726 245.661 331.726C245.179 331.726 244.805 331.914 244.54 332.29C244.276 332.667 244.144 333.25 244.144 334.04Z" fill="#3D5F66"/>
<path d="M252.21 330.27L252.271 331.124C252.801 330.463 253.509 330.133 254.397 330.133C255.182 330.133 255.765 330.363 256.147 330.823C256.53 331.283 256.727 331.972 256.735 332.888V337.666H254.76V332.936C254.76 332.517 254.669 332.212 254.486 332.023C254.305 331.834 254.001 331.739 253.577 331.739C253.022 331.739 252.605 331.977 252.326 332.45V337.666H250.351V330.27H252.21Z" fill="#3D5F66"/>
<path d="M68.2119 23.3096H77.5118" stroke="#626469" stroke-miterlimit="10"/>
<path d="M53.6865 148.965H47.9502V147.986L50.792 144.887C51.2022 144.43 51.4941 144.048 51.668 143.741C51.8418 143.435 51.9287 143.127 51.9287 142.818C51.9287 142.412 51.8145 142.084 51.5859 141.834C51.3574 141.584 51.0498 141.459 50.6631 141.459C50.2021 141.459 49.8447 141.6 49.5908 141.881C49.3369 142.162 49.21 142.547 49.21 143.035H47.7861C47.7861 142.516 47.9043 142.048 48.1406 141.632C48.377 141.216 48.7148 140.893 49.1543 140.662C49.5937 140.432 50.1006 140.316 50.6748 140.316C51.5029 140.316 52.1563 140.524 52.6348 140.94C53.1133 141.356 53.3525 141.932 53.3525 142.666C53.3525 143.092 53.2324 143.538 52.9922 144.005C52.7519 144.472 52.3584 145.002 51.8115 145.596L49.7256 147.828H53.6865V148.965Z" fill="#626469"/>
<path d="M60.3311 145.373C60.3311 146.6 60.1016 147.524 59.6426 148.147C59.1836 148.771 58.4853 149.082 57.5478 149.082C56.626 149.082 55.9316 148.778 55.4648 148.171C54.998 147.563 54.7588 146.664 54.7471 145.473V143.996C54.7471 142.77 54.9766 141.85 55.4356 141.236C55.8945 140.623 56.5947 140.316 57.5361 140.316C58.4697 140.316 59.166 140.615 59.625 141.213C60.084 141.811 60.3193 142.705 60.3311 143.896V145.373ZM58.9072 143.779C58.9072 142.979 58.7978 142.392 58.5791 142.019C58.3604 141.646 58.0127 141.459 57.5361 141.459C57.0713 141.459 56.7295 141.636 56.5107 141.989C56.292 142.343 56.1768 142.895 56.1651 143.645V145.578C56.1651 146.375 56.2764 146.969 56.499 147.359C56.7217 147.75 57.0713 147.945 57.5479 147.945C58.0049 147.945 58.3428 147.765 58.5615 147.403C58.7803 147.042 58.8955 146.477 58.9072 145.707V143.779Z" fill="#626469"/>
<path d="M49.5967 82.6914H50.4639C50.9014 82.6875 51.2481 82.5742 51.5039 82.3516C51.7598 82.1289 51.8877 81.8066 51.8877 81.3848C51.8877 80.9785 51.7813 80.6631 51.5684 80.4385C51.3555 80.2139 51.0303 80.1016 50.5928 80.1016C50.21 80.1016 49.8955 80.2119 49.6494 80.4326C49.4033 80.6533 49.2803 80.9414 49.2803 81.2969H47.8564C47.8564 80.8594 47.9727 80.4609 48.2051 80.1016C48.4375 79.7422 48.7617 79.4619 49.1777 79.2607C49.5938 79.0596 50.0596 78.959 50.5752 78.959C51.4268 78.959 52.0957 79.1729 52.582 79.6006C53.0684 80.0283 53.3115 80.623 53.3115 81.3848C53.3115 81.7676 53.1895 82.1279 52.9453 82.4658C52.7012 82.8037 52.3857 83.0586 51.999 83.2305C52.4678 83.3906 52.8242 83.6426 53.0684 83.9863C53.3125 84.3301 53.4346 84.7402 53.4346 85.2168C53.4346 85.9824 53.1719 86.5918 52.6465 87.0449C52.1211 87.498 51.4307 87.7246 50.5752 87.7246C49.7549 87.7246 49.083 87.5059 48.5596 87.0684C48.0361 86.6309 47.7744 86.0488 47.7744 85.3223H49.1982C49.1982 85.6973 49.3242 86.002 49.5762 86.2363C49.8281 86.4707 50.167 86.5879 50.5928 86.5879C51.0342 86.5879 51.3818 86.4707 51.6357 86.2363C51.8897 86.002 52.0166 85.6621 52.0166 85.2168C52.0166 84.7676 51.8838 84.4219 51.6182 84.1797C51.3525 83.9375 50.958 83.8164 50.4346 83.8164H49.5967V82.6914Z" fill="#626469"/>
<path d="M60.3311 84.0156C60.3311 85.2422 60.1016 86.167 59.6426 86.79C59.1836 87.4131 58.4853 87.7246 57.5478 87.7246C56.626 87.7246 55.9316 87.4209 55.4648 86.8135C54.998 86.2061 54.7588 85.3066 54.7471 84.1152V82.6387C54.7471 81.4121 54.9766 80.4922 55.4356 79.8789C55.8945 79.2656 56.5947 78.959 57.5361 78.959C58.4697 78.959 59.166 79.2578 59.625 79.8555C60.084 80.4531 60.3193 81.3477 60.3311 82.5391V84.0156ZM58.9072 82.4219C58.9072 81.6211 58.7978 81.0342 58.5791 80.6611C58.3604 80.2881 58.0127 80.1016 57.5361 80.1016C57.0713 80.1016 56.7295 80.2783 56.5107 80.6318C56.292 80.9853 56.1768 81.5371 56.1651 82.2871V84.2207C56.1651 85.0176 56.2764 85.6113 56.499 86.0019C56.7217 86.3926 57.0713 86.5879 57.5479 86.5879C58.0049 86.5879 58.3428 86.4072 58.5615 86.0459C58.7803 85.6846 58.8955 85.1191 58.9072 84.3496V82.4219Z" fill="#626469"/>
<path d="M51.3809 210.338H49.9629V203.484L47.8711 204.197V203.002L51.1992 201.777H51.3809L51.3809 210.338Z" fill="#626469"/>
<path d="M59.9063 206.746C59.9063 207.973 59.6768 208.897 59.2178 209.52C58.7588 210.144 58.0605 210.455 57.123 210.455C56.2012 210.455 55.5068 210.151 55.04 209.544C54.5732 208.937 54.334 208.037 54.3223 206.846V205.369C54.3223 204.143 54.5518 203.223 55.0107 202.609C55.4697 201.996 56.1699 201.689 57.1113 201.689C58.0449 201.689 58.7412 201.988 59.2002 202.586C59.6592 203.184 59.8945 204.078 59.9063 205.27V206.746ZM58.4824 205.152C58.4824 204.352 58.373 203.765 58.1543 203.392C57.9356 203.019 57.5879 202.832 57.1113 202.832C56.6465 202.832 56.3047 203.009 56.0859 203.362C55.8672 203.716 55.752 204.268 55.7402 205.018V206.951C55.7402 207.748 55.8516 208.342 56.0742 208.732C56.2969 209.123 56.6465 209.318 57.1231 209.318C57.5801 209.318 57.918 209.138 58.1367 208.776C58.3555 208.415 58.4707 207.85 58.4824 207.08V205.152Z" fill="#626469"/>
<path d="M59.208 269C59.208 270.227 58.9785 271.151 58.5195 271.774C58.0605 272.397 57.3623 272.709 56.4248 272.709C55.5029 272.709 54.8086 272.405 54.3418 271.798C53.875 271.19 53.6357 270.291 53.624 269.1V267.623C53.624 266.396 53.8535 265.477 54.3125 264.863C54.7715 264.25 55.4717 263.943 56.4131 263.943C57.3467 263.943 58.043 264.242 58.502 264.84C58.961 265.437 59.1963 266.332 59.208 267.523V269ZM57.7842 267.406C57.7842 266.605 57.6748 266.019 57.4561 265.646C57.2373 265.272 56.8897 265.086 56.4131 265.086C55.9483 265.086 55.6065 265.263 55.3877 265.616C55.169 265.97 55.0537 266.521 55.042 267.271V269.205C55.042 270.002 55.1533 270.596 55.376 270.986C55.5986 271.377 55.9483 271.572 56.4248 271.572C56.8818 271.572 57.2197 271.392 57.4385 271.03C57.6572 270.669 57.7725 270.104 57.7842 269.334V267.406Z" fill="#626469"/>
<path d="M295.349 269.59H77.5127" stroke="#626469" stroke-miterlimit="10"/>
<path d="M77.7256 269.9V12.8682" stroke="#626469" stroke-miterlimit="10"/>
<path d="M52.7666 22.5664H53.8272V23.709H52.7666V25.6074H51.3428V23.709H47.6572L47.6162 22.8418L51.2959 17.0762H52.7666L52.7666 22.5664ZM49.1104 22.5664H51.3428V19.0039L51.2373 19.1914L49.1104 22.5664Z" fill="#626469"/>
<path d="M60.3311 22.0156C60.3311 23.2422 60.1016 24.167 59.6426 24.79C59.1836 25.4131 58.4853 25.7246 57.5478 25.7246C56.626 25.7246 55.9316 25.4209 55.4648 24.8135C54.998 24.2061 54.7588 23.3066 54.7471 22.1152V20.6387C54.7471 19.4121 54.9766 18.4922 55.4356 17.8789C55.8945 17.2656 56.5947 16.959 57.5361 16.959C58.4697 16.959 59.166 17.2578 59.625 17.8555C60.084 18.4531 60.3193 19.3477 60.3311 20.5391V22.0156ZM58.9072 20.4219C58.9072 19.6211 58.7978 19.0342 58.5791 18.6611C58.3604 18.2881 58.0127 18.1016 57.5361 18.1016C57.0713 18.1016 56.7295 18.2783 56.5107 18.6318C56.292 18.9853 56.1768 19.5371 56.1651 20.2871V22.2207C56.1651 23.0176 56.2764 23.6113 56.499 24.0019C56.7217 24.3926 57.0713 24.5879 57.5479 24.5879C58.0049 24.5879 58.3428 24.4072 58.5615 24.0459C58.7803 23.6846 58.8955 23.1191 58.9072 22.3496V20.4219Z" fill="#626469"/>
<path d="M8.91797 215.332V218.381H17.21V220.432H8.91797V223.439H7.25684V215.332H8.91797Z" fill="#3D5F66"/>
<path d="M7.89942 214.307C7.60254 214.307 7.35938 214.208 7.16797 214.009C6.97656 213.812 6.88086 213.541 6.88086 213.199C6.88086 212.862 6.97656 212.593 7.16797 212.393C7.35938 212.192 7.60254 212.092 7.89942 212.092C8.2002 212.092 8.4463 212.193 8.6377 212.396C8.82911 212.599 8.92481 212.866 8.92481 213.199C8.92481 213.532 8.82911 213.8 8.6377 214.003C8.44629 214.205 8.2002 214.307 7.89942 214.307ZM17.21 212.208V214.19H9.81349V212.208H17.21Z" fill="#3D5F66"/>
<path d="M9.81348 208.729L10.6406 208.667C9.99805 208.143 9.67676 207.435 9.67676 206.541C9.67676 205.589 10.0527 204.935 10.8047 204.579C10.0527 204.06 9.67676 203.319 9.67676 202.357C9.67676 201.556 9.91016 200.958 10.377 200.566C10.8447 200.175 11.5469 199.979 12.4863 199.979H17.21V201.961H12.4932C12.0732 201.961 11.7676 202.043 11.5732 202.207C11.3799 202.371 11.2832 202.66 11.2832 203.075C11.2832 203.668 11.5654 204.078 12.1309 204.306L17.21 204.299V206.274H12.5C12.0713 206.274 11.7617 206.358 11.5703 206.527C11.3789 206.696 11.2832 206.983 11.2832 207.389C11.2832 207.949 11.5156 208.354 11.9805 208.605H17.21V210.581H9.81349L9.81348 208.729Z" fill="#3D5F66"/>
<path d="M17.3467 195.056C17.3467 196.141 17.0137 197.023 16.3486 197.705C15.6826 198.386 14.7969 198.727 13.6895 198.727H13.498C12.7549 198.727 12.0908 198.583 11.5049 198.296C10.9199 198.009 10.4688 197.602 10.1514 197.076C9.83496 196.549 9.67676 195.949 9.67676 195.274C9.67676 194.263 9.99512 193.467 10.6338 192.885C11.2715 192.305 12.1758 192.014 13.3477 192.014H14.1543V196.724C14.6367 196.66 15.0244 196.467 15.3164 196.146C15.6074 195.824 15.7539 195.418 15.7539 194.926C15.7539 194.165 15.4775 193.57 14.9268 193.142L16.0137 192.171C16.4326 192.467 16.7598 192.868 16.9941 193.374C17.2295 193.88 17.3467 194.44 17.3467 195.056ZM11.2695 195.281C11.2695 195.673 11.4023 195.991 11.668 196.234C11.9336 196.479 12.3135 196.635 12.8076 196.703V193.955H12.6494C12.21 193.964 11.8701 194.083 11.6299 194.311C11.3897 194.538 11.2695 194.862 11.2695 195.281Z" fill="#3D5F66"/>
<path d="M13.1631 190.804C12.1191 190.804 11.126 190.665 10.1826 190.387C9.23926 190.108 8.4043 189.698 7.67676 189.156C6.9502 188.614 6.44531 188.026 6.16309 187.393L7.2295 187.01C7.72169 187.675 8.48243 188.194 9.5127 188.568C10.542 188.942 11.7451 189.129 13.1221 189.129H13.334C14.7148 189.129 15.9219 188.944 16.957 188.575C17.9912 188.206 18.7637 187.685 19.2744 187.01L20.3203 187.393C20.042 188.013 19.5508 188.59 18.8467 189.126C18.1426 189.661 17.3301 190.07 16.4102 190.353C15.4893 190.635 14.5274 190.785 13.5254 190.804H13.1631Z" fill="#3D5F66"/>
<path d="M15.166 181.972C14.9238 181.972 14.7344 182.092 14.5947 182.33C14.4561 182.57 14.332 182.954 14.2227 183.482C13.8535 185.241 13.1055 186.121 11.9805 186.121C11.3242 186.121 10.7764 185.849 10.3359 185.305C9.89649 184.76 9.67676 184.048 9.67676 183.168C9.67676 182.229 9.89746 181.479 10.3398 180.916C10.7813 180.353 11.3555 180.071 12.0625 180.071V182.047C11.7793 182.047 11.5459 182.138 11.3613 182.32C11.1768 182.503 11.085 182.787 11.085 183.175C11.085 183.508 11.1602 183.765 11.3106 183.947C11.4609 184.13 11.6524 184.221 11.8848 184.221C12.1035 184.221 12.2803 184.117 12.4141 183.91C12.5488 183.702 12.6651 183.353 12.7627 182.86C12.8613 182.368 12.9717 181.953 13.0947 181.616C13.4775 180.572 14.1406 180.051 15.084 180.051C15.7578 180.051 16.3037 180.34 16.7207 180.919C17.1377 181.498 17.3467 182.245 17.3467 183.161C17.3467 183.781 17.2363 184.331 17.0147 184.812C16.794 185.293 16.4912 185.67 16.1055 185.943C15.7207 186.217 15.3047 186.354 14.8584 186.354V184.48C15.209 184.462 15.4776 184.332 15.6651 184.091C15.8516 183.85 15.9453 183.525 15.9453 183.12C15.9453 182.742 15.8731 182.456 15.7295 182.262C15.586 182.068 15.3984 181.972 15.166 181.972Z" fill="#3D5F66"/>
<path d="M13.3203 175.375C14.3496 175.375 15.3408 175.523 16.2939 175.819C17.2461 176.115 18.0869 176.542 18.8164 177.098C19.5449 177.653 20.0469 178.248 20.3203 178.882L19.2744 179.265C18.7861 178.617 18.0342 178.107 17.0186 177.733C16.002 177.359 14.833 177.166 13.5117 177.152H13.1494C11.7861 177.152 10.5859 177.338 9.54688 177.71C8.50782 178.081 7.72852 178.6 7.20899 179.265L6.16309 178.882C6.43164 178.262 6.91895 177.678 7.62598 177.128C8.33203 176.579 9.1543 176.153 10.0937 175.851C11.0322 175.547 12.0049 175.389 13.0127 175.375L13.3203 175.375Z" fill="#3D5F66"/>
<path d="M13.1631 170.269C12.1191 170.269 11.126 170.13 10.1826 169.852C9.23926 169.573 8.4043 169.163 7.67676 168.621C6.9502 168.079 6.44531 167.491 6.16309 166.857L7.2295 166.475C7.72169 167.14 8.48243 167.659 9.5127 168.033C10.542 168.407 11.7451 168.594 13.1221 168.594H13.334C14.7148 168.594 15.9219 168.409 16.957 168.04C17.9912 167.671 18.7637 167.149 19.2744 166.475L20.3203 166.857C20.042 167.478 19.5508 168.055 18.8467 168.591C18.1426 169.126 17.3301 169.535 16.4102 169.817C15.4893 170.1 14.5274 170.25 13.5254 170.269H13.1631Z" fill="#3D5F66"/>
<path d="M9.81348 163.59L10.6406 163.528C9.99805 163.004 9.67676 162.296 9.67676 161.402C9.67676 160.45 10.0527 159.796 10.8047 159.44C10.0527 158.921 9.67676 158.181 9.67676 157.219C9.67676 156.417 9.91016 155.819 10.377 155.428C10.8447 155.036 11.5469 154.84 12.4863 154.84H17.21V156.822H12.4932C12.0732 156.822 11.7676 156.904 11.5732 157.068C11.3799 157.232 11.2832 157.521 11.2832 157.937C11.2832 158.529 11.5654 158.939 12.1309 159.167L17.21 159.16V161.136H12.5C12.0713 161.136 11.7617 161.22 11.5703 161.389C11.3789 161.558 11.2832 161.845 11.2832 162.25C11.2832 162.811 11.5156 163.216 11.9805 163.467H17.21V165.442H9.81349L9.81348 163.59Z" fill="#3D5F66"/>
<path d="M17.3467 149.919C17.3467 151.004 17.0137 151.887 16.3486 152.568C15.6826 153.249 14.7969 153.59 13.6895 153.59H13.498C12.7549 153.59 12.0908 153.446 11.5049 153.159C10.9199 152.872 10.4688 152.465 10.1514 151.939C9.83496 151.412 9.67676 150.813 9.67676 150.138C9.67676 149.126 9.99512 148.33 10.6338 147.748C11.2715 147.168 12.1758 146.877 13.3477 146.877H14.1543V151.587C14.6367 151.523 15.0244 151.33 15.3164 151.01C15.6074 150.687 15.7539 150.281 15.7539 149.789C15.7539 149.028 15.4775 148.434 14.9268 148.005L16.0137 147.034C16.4326 147.33 16.7598 147.731 16.9941 148.237C17.2295 148.743 17.3467 149.304 17.3467 149.919ZM11.2695 150.145C11.2695 150.536 11.4023 150.854 11.668 151.098C11.9336 151.342 12.3135 151.498 12.8076 151.566V148.818H12.6494C12.21 148.827 11.8701 148.946 11.6299 149.174C11.3897 149.401 11.2695 149.726 11.2695 150.145Z" fill="#3D5F66"/>
<path d="M13.457 146.063C12.3037 146.063 11.3857 145.805 10.7022 145.288C10.0186 144.771 9.67676 144.062 9.67676 143.165C9.67676 142.445 9.94531 141.851 10.4834 141.381H6.70996V139.398H17.21V141.183L16.4238 141.278C17.0391 141.771 17.3467 142.404 17.3467 143.179C17.3467 144.049 17.0039 144.747 16.3174 145.274C15.6318 145.8 14.6777 146.063 13.457 146.063ZM13.6035 144.088C14.2979 144.088 14.8291 143.967 15.1992 143.726C15.5693 143.484 15.7539 143.133 15.7539 142.673C15.7539 142.063 15.4961 141.632 14.9805 141.381H12.0566C11.541 141.627 11.2832 142.053 11.2832 142.659C11.2832 143.611 12.0566 144.088 13.6035 144.088Z" fill="#3D5F66"/>
<path d="M7.89942 137.881C7.60254 137.881 7.35938 137.782 7.16797 137.583C6.97656 137.386 6.88086 137.115 6.88086 136.773C6.88086 136.437 6.97656 136.167 7.16797 135.967C7.35938 135.767 7.60254 135.666 7.89942 135.666C8.2002 135.666 8.4463 135.768 8.6377 135.97C8.82911 136.173 8.92481 136.44 8.92481 136.773C8.92481 137.106 8.82911 137.374 8.6377 137.577C8.44629 137.779 8.2002 137.881 7.89942 137.881ZM17.21 135.782V137.765H9.81349V135.782H17.21Z" fill="#3D5F66"/>
<path d="M17.21 129.869C17.0322 129.96 16.8106 130.026 16.5469 130.067C17.0801 130.546 17.3467 131.168 17.3467 131.934C17.3467 132.658 17.1367 133.259 16.7178 133.734C16.2979 134.211 15.7695 134.449 15.1318 134.449C14.3477 134.449 13.7461 134.158 13.3271 133.578C12.9072 132.996 12.6953 132.157 12.6914 131.059V130.149H12.2676C11.9258 130.149 11.6523 130.237 11.4473 130.413C11.2422 130.588 11.1396 130.865 11.1396 131.243C11.1396 131.576 11.2187 131.837 11.3789 132.025C11.5381 132.215 11.7568 132.31 12.0352 132.31V134.285C11.6064 134.285 11.21 134.153 10.8457 133.889C10.4805 133.624 10.1953 133.251 9.98731 132.768C9.78028 132.284 9.67676 131.742 9.67676 131.141C9.67676 130.229 9.90528 129.506 10.3633 128.97C10.8213 128.435 11.4648 128.167 12.2949 128.167H15.501C16.2021 128.163 16.7334 128.064 17.0937 127.873H17.2099L17.21 129.869ZM15.836 131.503C15.836 131.211 15.7705 130.942 15.6406 130.696C15.5108 130.45 15.3369 130.268 15.1182 130.149H13.8467V130.888C13.8467 131.876 14.1885 132.403 14.8721 132.467L14.9883 132.474C15.2344 132.474 15.4365 132.387 15.5967 132.214C15.7559 132.041 15.836 131.804 15.836 131.503Z" fill="#3D5F66"/>
<path d="M9.81348 124.831L10.668 124.77C10.0068 124.241 9.67676 123.532 9.67676 122.644C9.67676 121.86 9.90625 121.276 10.3672 120.894C10.8271 120.511 11.5156 120.315 12.4316 120.306H17.21V122.281H12.4795C12.0596 122.281 11.7559 122.373 11.5664 122.555C11.3779 122.737 11.2832 123.04 11.2832 123.464C11.2832 124.02 11.5195 124.437 11.9941 124.715H17.21V126.69H9.81348V124.831Z" fill="#3D5F66"/>
<path d="M13.3203 115.404C14.3496 115.404 15.3408 115.552 16.2939 115.849C17.2461 116.145 18.0869 116.571 18.8164 117.127C19.5449 117.683 20.0469 118.278 20.3203 118.911L19.2744 119.294C18.7861 118.647 18.0342 118.136 17.0186 117.763C16.002 117.389 14.833 117.195 13.5117 117.182H13.1494C11.7861 117.182 10.5859 117.367 9.54688 117.739C8.50782 118.11 7.72852 118.628 7.20899 119.294L6.16309 118.911C6.43164 118.292 6.91895 117.707 7.62598 117.158C8.33203 116.608 9.1543 116.183 10.0937 115.879C11.0322 115.576 12.0049 115.418 13.0127 115.404L13.3203 115.404Z" fill="#3D5F66"/>
<path d="M13.1631 110.298C12.1191 110.298 11.126 110.159 10.1826 109.881C9.23926 109.603 8.4043 109.193 7.67676 108.65C6.9502 108.108 6.44531 107.52 6.16309 106.887L7.2295 106.504C7.72169 107.169 8.48243 107.689 9.5127 108.062C10.542 108.436 11.7451 108.623 13.1221 108.623H13.334C14.7148 108.623 15.9219 108.438 16.957 108.069C17.9912 107.7 18.7637 107.178 19.2744 106.504L20.3203 106.887C20.042 107.506 19.5508 108.084 18.8467 108.62C18.1426 109.155 17.3301 109.564 16.4102 109.847C15.4893 110.129 14.5274 110.28 13.5254 110.298H13.1631Z" fill="#3D5F66"/>
<path d="M12.459 97.1787C13.3887 97.1787 14.1963 97.3291 14.8818 97.6299C15.5684 97.9307 16.1182 98.3477 16.5332 98.8809L17.832 97.2266L18.9873 98.5322L17.2852 100.651C17.3262 100.893 17.3467 101.144 17.3467 101.403C17.3467 102.228 17.1484 102.964 16.752 103.611C16.3555 104.258 15.7891 104.76 15.0527 105.115C14.3174 105.471 13.4707 105.651 12.5137 105.655H12.0215C11.041 105.655 10.1787 105.479 9.4336 105.126C8.68848 104.772 8.11719 104.273 7.71778 103.628C7.31934 102.983 7.12012 102.247 7.12012 101.417C7.12012 100.587 7.31934 99.8506 7.71778 99.2056C8.11719 98.5606 8.68848 98.0615 9.4336 97.7085C10.1787 97.3555 11.0391 97.1787 12.0146 97.1787L12.459 97.1787ZM12.0078 99.2569C10.9639 99.2569 10.1709 99.4439 9.62892 99.8174C9.08595 100.191 8.81544 100.724 8.81544 101.417C8.81544 102.105 9.08302 102.636 9.61817 103.01C10.1543 103.383 10.9385 103.573 11.9736 103.577H12.459C13.4746 103.577 14.2637 103.39 14.8242 103.017C15.3848 102.643 15.665 102.105 15.665 101.403C15.665 100.715 15.3945 100.187 14.8545 99.8174C14.3144 99.4483 13.5273 99.2612 12.4932 99.2568L12.0078 99.2569Z" fill="#3D5F66"/>
<path d="M17.21 91.0879V93.0635H9.59472L10.3262 95.4219H8.71972L7.24316 91.2998V91.0879L17.21 91.0879Z" fill="#3D5F66"/>
<path d="M19.7051 87.2598L19.165 88.292L18.7207 88.0459C18.1641 87.7407 17.6104 87.5835 17.0596 87.5742H15.5283V85.9062L16.8955 85.9131C17.4014 85.9175 17.9111 86.0454 18.4268 86.2959C18.9414 86.5464 19.3672 86.8677 19.7051 87.2598Z" fill="#3D5F66"/>
<path d="M12.459 72.5762C13.3887 72.5762 14.1963 72.7266 14.8818 73.0274C15.5684 73.3281 16.1182 73.7451 16.5332 74.2783L17.832 72.624L18.9873 73.9297L17.2852 76.0488C17.3262 76.2905 17.3467 76.541 17.3467 76.8008C17.3467 77.6255 17.1484 78.3618 16.752 79.0088C16.3555 79.6558 15.7891 80.1572 15.0527 80.5127C14.3174 80.8682 13.4707 81.0484 12.5137 81.0528H12.0215C11.041 81.0528 10.1787 80.876 9.4336 80.523C8.68848 80.1699 8.11719 79.6709 7.71778 79.0259C7.31934 78.3809 7.12012 77.6441 7.12012 76.8145C7.12012 75.9849 7.31934 75.2481 7.71778 74.603C8.11719 73.958 8.68848 73.459 9.4336 73.106C10.1787 72.7529 11.0391 72.5762 12.0146 72.5762L12.459 72.5762ZM12.0078 74.6543C10.9639 74.6543 10.1709 74.8413 9.62892 75.2149C9.08595 75.5884 8.81544 76.1216 8.81544 76.8145C8.81544 77.5025 9.08302 78.0337 9.61817 78.4072C10.1543 78.7808 10.9385 78.9702 11.9736 78.9746H12.459C13.4746 78.9746 14.2637 78.7876 14.8242 78.4141C15.3848 78.0405 15.665 77.5025 15.665 76.8008C15.665 76.1128 15.3945 75.584 14.8545 75.2149C14.3144 74.8457 13.5273 74.6587 12.4932 74.6543L12.0078 74.6543Z" fill="#3D5F66"/>
<path d="M11.3584 69.2754V68.2226C11.3584 67.7212 11.2324 67.3501 10.9824 67.1084C10.7314 66.8667 10.3984 66.7461 9.98437 66.7461C9.583 66.7461 9.2705 66.8657 9.04785 67.105C8.82422 67.3442 8.71289 67.6733 8.71289 68.0928C8.71289 68.4712 8.81641 68.7876 9.02344 69.043C9.23145 69.2983 9.50098 69.4258 9.83399 69.4258V71.4014C9.31446 71.4014 8.84864 71.2612 8.43555 70.9809C8.02344 70.7007 7.70117 70.3086 7.46875 69.8052C7.23633 69.3018 7.12012 68.7466 7.12012 68.1406C7.12012 67.0879 7.37207 66.2632 7.875 65.666C8.37891 65.0688 9.07227 64.7705 9.95703 64.7705C10.4121 64.7705 10.832 64.9097 11.2148 65.1875C11.5976 65.4653 11.8916 65.8301 12.0967 66.2812C12.2969 65.7207 12.5977 65.3027 12.999 65.0269C13.3994 64.751 13.874 64.6133 14.4209 64.6133C15.3047 64.6133 16.0137 64.9356 16.5469 65.5806C17.0801 66.2256 17.3467 67.0786 17.3467 68.1406C17.3467 69.1343 17.084 69.9463 16.5605 70.5776C16.0361 71.209 15.3437 71.5244 14.4824 71.5244V69.5488C14.8555 69.5488 15.1611 69.4087 15.3984 69.1284C15.6348 68.8482 15.7539 68.5029 15.7539 68.0928C15.7539 67.6235 15.6299 67.2554 15.3809 66.9888C15.1328 66.7222 14.8037 66.5889 14.3936 66.5889C13.3994 66.5889 12.9033 67.1358 12.9033 68.2295V69.2754L11.3584 69.2754Z" fill="#3D5F66"/>
<path d="M13.3203 59.7656C14.3496 59.7656 15.3408 59.9136 16.2939 60.21C17.2461 60.5064 18.0869 60.9321 18.8164 61.4883C19.5449 62.0444 20.0469 62.6392 20.3203 63.2725L19.2744 63.6553C18.7861 63.0083 18.0342 62.4976 17.0186 62.124C16.002 61.7505 14.833 61.5566 13.5117 61.543H13.1494C11.7861 61.543 10.5859 61.7285 9.54688 62.1001C8.50782 62.4717 7.72852 62.9898 7.20899 63.6553L6.16309 63.2725C6.43164 62.6528 6.91895 62.0684 7.62598 61.5191C8.33203 60.9697 9.1543 60.544 10.0937 60.2407C11.0322 59.9375 12.0049 59.7793 13.0127 59.7656L13.3203 59.7656Z" fill="#3D5F66"/>
<path d="M37.3164 173.301V174.531H30.207V173.301H37.3164Z" fill="#B11E88"/>
<path d="M32.0332 170.781L32.585 170.747C32.1514 170.376 31.9355 169.868 31.9355 169.224C31.9355 168.518 32.2051 168.034 32.7461 167.773C32.2051 167.39 31.9355 166.849 31.9355 166.152C31.9355 165.569 32.0967 165.136 32.4189 164.851C32.7412 164.566 33.2158 164.421 33.8447 164.414H37.3164V165.601H33.8789C33.543 165.601 33.2979 165.674 33.1416 165.82C32.9854 165.967 32.9072 166.209 32.9072 166.548C32.9072 166.818 32.9795 167.038 33.124 167.21C33.2695 167.38 33.459 167.5 33.6934 167.568L37.3164 167.563V168.75H33.8399C33.2178 168.767 32.9072 169.084 32.9072 169.702C32.9072 170.178 33.1006 170.515 33.4883 170.713H37.3164V171.899H32.0332L32.0332 170.781Z" fill="#B11E88"/>
<path d="M34.7285 158.569C35.5449 158.569 36.1973 158.755 36.6836 159.126C37.1709 159.497 37.4141 159.995 37.4141 160.62C37.4141 161.199 37.2236 161.663 36.8428 162.012H39.3477V163.198H32.0332V162.104L32.5703 162.056C32.1465 161.707 31.9355 161.233 31.9355 160.635C31.9355 159.99 32.1758 159.485 32.6553 159.118C33.1357 158.753 33.8018 158.569 34.6553 158.569H34.7285ZM34.626 159.751C34.0986 159.751 33.6797 159.856 33.3711 160.065C33.0615 160.276 32.9072 160.576 32.9072 160.967C32.9072 161.452 33.1074 161.8 33.5078 162.012H35.8516C36.2617 161.797 36.4668 161.445 36.4668 160.957C36.4668 160.579 36.3145 160.284 36.0098 160.071C35.7061 159.857 35.2441 159.751 34.626 159.751Z" fill="#B11E88"/>
<path d="M33.1172 154.8C33.0908 154.956 33.0781 155.117 33.0781 155.283C33.0781 155.827 33.2861 156.193 33.7031 156.382H37.3164V157.568H32.0332V156.436L32.624 156.406C32.165 156.12 31.9355 155.723 31.9355 155.215C31.9355 155.046 31.958 154.905 32.0039 154.795L33.1172 154.8Z" fill="#B11E88"/>
<path d="M34.626 154.448C34.1084 154.448 33.6416 154.346 33.2266 154.141C32.8115 153.936 32.4932 153.647 32.2695 153.276C32.0469 152.905 31.9355 152.479 31.9355 151.997C31.9355 151.284 32.165 150.705 32.624 150.262C33.083 149.816 33.6914 149.577 34.4502 149.541L34.7285 149.536C35.249 149.536 35.7148 149.637 36.125 149.836C36.5352 150.037 36.8525 150.323 37.0771 150.695C37.3018 151.068 37.4141 151.499 37.4141 151.987C37.4141 152.732 37.166 153.329 36.6689 153.777C36.1728 154.225 35.5107 154.448 34.6846 154.448H34.626ZM34.7285 153.262C35.2715 153.262 35.6973 153.149 36.0049 152.925C36.3125 152.7 36.4668 152.388 36.4668 151.987C36.4668 151.587 36.3105 151.275 35.998 151.053C35.6855 150.829 35.2275 150.718 34.626 150.718C34.0918 150.718 33.6689 150.832 33.3564 151.063C33.0439 151.291 32.8877 151.604 32.8877 151.997C32.8877 152.385 33.041 152.692 33.3486 152.92C33.6562 153.147 34.1162 153.262 34.7285 153.262Z" fill="#B11E88"/>
<path d="M35.8125 146.743L32.0332 145.625V144.399L37.3164 146.23V147.261L32.0332 149.106V147.876L35.8125 146.743Z" fill="#B11E88"/>
<path d="M37.4141 141.333C37.4141 142.085 37.1768 142.694 36.7031 143.162C36.2295 143.629 35.5986 143.862 34.8115 143.862H34.665C34.1377 143.862 33.666 143.761 33.251 143.557C32.8359 143.354 32.5127 143.068 32.2822 142.7C32.0508 142.332 31.9355 141.922 31.9355 141.47C31.9355 140.75 32.165 140.194 32.624 139.803C33.083 139.41 33.7324 139.214 34.5723 139.214H35.0508V142.666C35.4863 142.63 35.832 142.484 36.0859 142.229C36.3399 141.974 36.4668 141.652 36.4668 141.265C36.4668 140.721 36.2471 140.278 35.8076 139.937L36.418 139.297C36.7334 139.509 36.9785 139.791 37.1524 140.145C37.3272 140.497 37.4141 140.894 37.4141 141.333ZM32.8877 141.475C32.8877 141.8 33.001 142.063 33.2295 142.264C33.457 142.463 33.7744 142.591 34.1816 142.646V140.386H34.0937C33.6963 140.412 33.3965 140.518 33.1924 140.703C32.9893 140.889 32.8877 141.146 32.8877 141.475Z" fill="#B11E88"/>
<path d="M32.0332 137.178L32.585 137.144C32.1514 136.772 31.9355 136.265 31.9355 135.62C31.9355 134.914 32.2051 134.431 32.7461 134.17C32.2051 133.786 31.9355 133.246 31.9355 132.549C31.9355 131.967 32.0967 131.532 32.4189 131.248C32.7412 130.963 33.2158 130.817 33.8447 130.811H37.3164V131.997H33.8789C33.543 131.997 33.2979 132.07 33.1416 132.217C32.9854 132.363 32.9072 132.606 32.9072 132.944C32.9072 133.215 32.9795 133.436 33.124 133.606C33.2695 133.777 33.459 133.896 33.6934 133.965L37.3164 133.96V135.146H33.8399C33.2178 135.163 32.9072 135.48 32.9072 136.099C32.9072 136.574 33.1006 136.911 33.4883 137.109H37.3164V138.296H32.0332L32.0332 137.178Z" fill="#B11E88"/>
<path d="M37.4141 127.266C37.4141 128.018 37.1768 128.627 36.7031 129.095C36.2295 129.562 35.5986 129.795 34.8115 129.795H34.665C34.1377 129.795 33.666 129.693 33.251 129.49C32.8359 129.286 32.5127 129.001 32.2822 128.633C32.0508 128.266 31.9355 127.855 31.9355 127.402C31.9355 126.684 32.165 126.127 32.624 125.735C33.083 125.343 33.7324 125.146 34.5723 125.146H35.0508V128.599C35.4863 128.563 35.832 128.417 36.0859 128.162C36.3399 127.906 36.4668 127.585 36.4668 127.197C36.4668 126.654 36.2471 126.211 35.8076 125.869L36.418 125.23C36.7334 125.441 36.9785 125.724 37.1524 126.077C37.3272 126.43 37.4141 126.826 37.4141 127.266ZM32.8877 127.407C32.8877 127.733 33.001 127.996 33.2295 128.196C33.457 128.396 33.7744 128.524 34.1816 128.579V126.318H34.0937C33.6963 126.345 33.3965 126.45 33.1924 126.636C32.9893 126.821 32.8877 127.079 32.8877 127.407Z" fill="#B11E88"/>
<path d="M32.0332 123.125L32.6436 123.091C32.1709 122.7 31.9355 122.188 31.9355 121.553C31.9355 120.453 32.5654 119.893 33.8252 119.873H37.3164V121.06H33.8936C33.5576 121.06 33.3096 121.132 33.1484 121.277C32.9873 121.422 32.9072 121.659 32.9072 121.987C32.9072 122.466 33.123 122.822 33.5566 123.057H37.3164V124.243H32.0332V123.125Z" fill="#B11E88"/>
<path d="M30.749 117.178H32.0332V116.245H32.9121V117.178H35.8613C36.0625 117.178 36.209 117.138 36.2979 117.059C36.3877 116.979 36.4326 116.836 36.4326 116.631C36.4326 116.494 36.416 116.356 36.3838 116.216H37.3018C37.376 116.486 37.4141 116.747 37.4141 116.997C37.4141 117.909 36.9111 118.364 35.9053 118.364H32.9121V119.233H32.0332V118.364H30.749V117.178Z" fill="#B11E88"/>
<path d="M28.1738 238.607L33.1927 246.136L37.8979 238.607" stroke="#B11E88" stroke-width="2" stroke-miterlimit="10" stroke-linecap="round"/>
<path d="M33.1934 244.136V182.086" stroke="#B11E88" stroke-width="2" stroke-miterlimit="10" stroke-dasharray="4 4"/>
<path d="M33.1934 104.136L32.998 32.5" stroke="#B11E88" stroke-width="2" stroke-miterlimit="10" stroke-dasharray="4 4"/>
<path d="M89.5195 296.664V288.133H92.4434C93.4082 288.133 94.1426 288.326 94.6465 288.713C95.1504 289.1 95.4023 289.676 95.4023 290.441C95.4023 290.832 95.2969 291.184 95.0859 291.496C94.875 291.809 94.5664 292.051 94.1601 292.223C94.6211 292.348 94.9775 292.583 95.2295 292.929C95.4814 293.274 95.6074 293.689 95.6074 294.174C95.6074 294.975 95.3506 295.59 94.8369 296.02C94.3232 296.449 93.5879 296.664 92.6309 296.664H89.5195ZM91.0019 291.725H92.4551C92.916 291.725 93.2764 291.62 93.5361 291.411C93.7959 291.202 93.9258 290.906 93.9258 290.523C93.9258 290.102 93.8056 289.797 93.5654 289.609C93.3252 289.422 92.9512 289.328 92.4433 289.328H91.0019L91.0019 291.725ZM91.0019 292.814V295.48H92.6484C93.1133 295.48 93.4765 295.365 93.7383 295.135C94 294.904 94.1308 294.584 94.1308 294.174C94.1308 293.287 93.6777 292.834 92.7715 292.814H91.0019Z" fill="#626469"/>
<path d="M100.74 296.664C100.678 296.543 100.623 296.346 100.576 296.072C100.123 296.545 99.5684 296.781 98.9121 296.781C98.2754 296.781 97.7559 296.6 97.3535 296.236C96.9512 295.873 96.75 295.424 96.75 294.889C96.75 294.213 97.001 293.694 97.5029 293.333C98.0049 292.972 98.7227 292.791 99.6562 292.791H100.529V292.375C100.529 292.047 100.437 291.784 100.254 291.587C100.07 291.39 99.791 291.291 99.416 291.291C99.0918 291.291 98.8262 291.372 98.6191 291.534C98.4121 291.696 98.3086 291.902 98.3086 292.152H96.8848C96.8848 291.805 97 291.479 97.2305 291.177C97.4609 290.874 97.7744 290.637 98.1709 290.465C98.5674 290.293 99.0098 290.207 99.498 290.207C100.24 290.207 100.832 290.394 101.273 290.767C101.715 291.14 101.941 291.664 101.953 292.34V295.199C101.953 295.77 102.033 296.225 102.193 296.564V296.664L100.74 296.664ZM99.1758 295.639C99.457 295.639 99.7217 295.57 99.9697 295.434C100.218 295.297 100.404 295.113 100.529 294.883V293.688H99.7617C99.2344 293.688 98.8379 293.779 98.5723 293.963C98.3066 294.147 98.1738 294.406 98.1738 294.742C98.1738 295.016 98.2646 295.233 98.4463 295.396C98.6279 295.558 98.8711 295.639 99.1758 295.639Z" fill="#626469"/>
<path d="M106.998 294.941C106.998 294.687 106.894 294.494 106.685 294.361C106.476 294.229 106.129 294.111 105.645 294.01C105.16 293.908 104.756 293.779 104.432 293.623C103.721 293.279 103.365 292.781 103.365 292.129C103.365 291.582 103.596 291.125 104.057 290.758C104.518 290.391 105.104 290.207 105.814 290.207C106.572 290.207 107.185 290.395 107.651 290.77C108.118 291.145 108.352 291.631 108.352 292.229H106.928C106.928 291.955 106.826 291.728 106.623 291.546C106.42 291.364 106.15 291.273 105.814 291.273C105.502 291.273 105.247 291.346 105.05 291.49C104.853 291.635 104.754 291.828 104.754 292.07C104.754 292.289 104.846 292.459 105.029 292.58C105.213 292.701 105.584 292.823 106.143 292.946C106.701 293.069 107.14 293.216 107.458 293.386C107.776 293.556 108.013 293.76 108.167 293.998C108.321 294.236 108.398 294.525 108.398 294.865C108.398 295.436 108.162 295.897 107.689 296.251C107.217 296.604 106.598 296.781 105.832 296.781C105.313 296.781 104.85 296.688 104.443 296.5C104.037 296.312 103.721 296.055 103.494 295.727C103.268 295.398 103.154 295.045 103.154 294.666H104.537C104.557 295.002 104.684 295.261 104.918 295.442C105.152 295.624 105.463 295.715 105.85 295.715C106.225 295.715 106.51 295.644 106.705 295.501C106.9 295.358 106.998 295.172 106.998 294.941Z" fill="#626469"/>
<path d="M112.43 296.781C111.527 296.781 110.796 296.497 110.235 295.929C109.675 295.36 109.395 294.604 109.395 293.658V293.482C109.395 292.85 109.517 292.284 109.761 291.786C110.005 291.288 110.348 290.9 110.789 290.623C111.23 290.346 111.723 290.207 112.266 290.207C113.129 290.207 113.796 290.482 114.267 291.033C114.737 291.584 114.973 292.363 114.973 293.371V293.945H110.83C110.873 294.469 111.048 294.883 111.354 295.188C111.661 295.492 112.047 295.645 112.512 295.645C113.164 295.645 113.695 295.381 114.105 294.854L114.873 295.586C114.619 295.965 114.28 296.259 113.856 296.468C113.433 296.677 112.957 296.781 112.43 296.781ZM112.26 291.35C111.869 291.35 111.554 291.486 111.313 291.76C111.073 292.033 110.92 292.414 110.854 292.902H113.566V292.797C113.535 292.32 113.408 291.96 113.186 291.716C112.963 291.472 112.654 291.35 112.26 291.35Z" fill="#626469"/>
<path d="M117.592 296.664H116.168V287.664H117.592V296.664Z" fill="#626469"/>
<path d="M119.145 288.678C119.145 288.459 119.214 288.277 119.353 288.133C119.491 287.988 119.689 287.916 119.947 287.916C120.205 287.916 120.404 287.988 120.545 288.133C120.686 288.277 120.756 288.459 120.756 288.678C120.756 288.893 120.686 289.071 120.545 289.214C120.404 289.356 120.205 289.428 119.947 289.428C119.689 289.428 119.491 289.356 119.353 289.214C119.214 289.071 119.145 288.893 119.145 288.678ZM120.656 296.664H119.232V290.324H120.656V296.664Z" fill="#626469"/>
<path d="M123.527 290.324L123.568 291.057C124.037 290.49 124.652 290.207 125.414 290.207C126.734 290.207 127.406 290.963 127.43 292.475V296.664H126.006V292.557C126.006 292.154 125.919 291.856 125.745 291.663C125.571 291.47 125.287 291.373 124.893 291.373C124.318 291.373 123.891 291.633 123.609 292.152V296.664H122.186V290.324H123.527Z" fill="#626469"/>
<path d="M131.672 296.781C130.77 296.781 130.038 296.497 129.478 295.929C128.917 295.36 128.637 294.604 128.637 293.658V293.482C128.637 292.85 128.759 292.284 129.003 291.786C129.247 291.288 129.59 290.9 130.031 290.623C130.473 290.346 130.965 290.207 131.508 290.207C132.371 290.207 133.038 290.482 133.509 291.033C133.979 291.584 134.215 292.363 134.215 293.371V293.945H130.072C130.115 294.469 130.29 294.883 130.597 295.188C130.903 295.492 131.289 295.645 131.754 295.645C132.406 295.645 132.937 295.381 133.348 294.854L134.115 295.586C133.861 295.965 133.522 296.259 133.099 296.468C132.675 296.677 132.199 296.781 131.672 296.781ZM131.502 291.35C131.111 291.35 130.796 291.486 130.556 291.76C130.315 292.033 130.162 292.414 130.096 292.902H132.809V292.797C132.777 292.32 132.65 291.96 132.428 291.716C132.205 291.472 131.896 291.35 131.502 291.35Z" fill="#626469"/>
<path d="M103.494 304.725L103.529 305.521C104.014 304.912 104.646 304.607 105.428 304.607C106.768 304.607 107.443 305.363 107.455 306.875V311.064H106.371V306.869C106.367 306.412 106.263 306.074 106.058 305.855C105.853 305.637 105.533 305.527 105.1 305.527C104.748 305.527 104.439 305.621 104.174 305.809C103.908 305.996 103.701 306.242 103.553 306.547V311.064H102.469V304.725L103.494 304.725Z" fill="#626469"/>
<path d="M114.047 306.295H109.16V305.352H114.047V306.295ZM114.047 308.727H109.16V307.789H114.047V308.727Z" fill="#626469"/>
<path d="M119.719 307.314C119.492 307.584 119.222 307.801 118.907 307.965C118.593 308.129 118.248 308.211 117.873 308.211C117.381 308.211 116.952 308.09 116.587 307.848C116.222 307.605 115.939 307.265 115.74 306.825C115.541 306.386 115.441 305.9 115.441 305.369C115.441 304.799 115.55 304.285 115.767 303.828C115.983 303.371 116.291 303.021 116.689 302.779C117.088 302.537 117.553 302.416 118.084 302.416C118.928 302.416 119.593 302.731 120.079 303.362C120.565 303.993 120.809 304.854 120.809 305.943V306.26C120.809 307.92 120.48 309.132 119.824 309.896C119.168 310.659 118.178 311.051 116.854 311.07H116.643V310.15H116.871C117.766 310.135 118.453 309.902 118.934 309.451C119.414 309.001 119.676 308.289 119.719 307.314ZM118.049 307.314C118.412 307.314 118.747 307.203 119.054 306.98C119.36 306.758 119.584 306.482 119.725 306.154V305.721C119.725 305.01 119.57 304.432 119.262 303.986C118.953 303.541 118.562 303.318 118.09 303.318C117.613 303.318 117.23 303.501 116.941 303.866C116.652 304.231 116.508 304.713 116.508 305.311C116.508 305.893 116.647 306.372 116.927 306.749C117.206 307.126 117.58 307.314 118.049 307.314Z" fill="#626469"/>
<path d="M152.461 288.092V289.27H152.285C151.488 289.281 150.852 289.5 150.375 289.926C149.898 290.352 149.615 290.955 149.525 291.736C149.982 291.256 150.566 291.016 151.277 291.016C152.031 291.016 152.626 291.281 153.062 291.812C153.497 292.344 153.715 293.029 153.715 293.869C153.715 294.736 153.46 295.439 152.95 295.976C152.44 296.513 151.772 296.781 150.943 296.781C150.092 296.781 149.401 296.467 148.872 295.838C148.343 295.209 148.078 294.385 148.078 293.365V292.879C148.078 291.383 148.442 290.211 149.171 289.363C149.899 288.516 150.947 288.092 152.314 288.092H152.461ZM150.932 292.164C150.619 292.164 150.333 292.252 150.073 292.428C149.813 292.604 149.623 292.838 149.502 293.131V293.564C149.502 294.197 149.635 294.7 149.9 295.073C150.166 295.446 150.51 295.633 150.932 295.633C151.354 295.633 151.688 295.475 151.934 295.158C152.18 294.842 152.303 294.426 152.303 293.91C152.303 293.395 152.178 292.975 151.928 292.65C151.678 292.326 151.346 292.164 150.932 292.164Z" fill="#626469"/>
<path d="M159.27 290.324L159.311 290.986C159.756 290.467 160.365 290.207 161.139 290.207C161.986 290.207 162.566 290.531 162.879 291.18C163.34 290.531 163.988 290.207 164.824 290.207C165.523 290.207 166.044 290.4 166.386 290.787C166.728 291.174 166.902 291.744 166.91 292.498V296.664H165.486V292.539C165.486 292.137 165.398 291.842 165.223 291.654C165.047 291.467 164.756 291.373 164.35 291.373C164.025 291.373 163.761 291.46 163.556 291.634C163.351 291.808 163.207 292.035 163.125 292.316L163.131 296.664H161.707V292.492C161.688 291.746 161.307 291.373 160.564 291.373C159.994 291.373 159.59 291.605 159.352 292.07V296.664H157.928V290.324H159.27Z" fill="#626469"/>
<path d="M168.105 293.436C168.105 292.814 168.229 292.255 168.475 291.757C168.721 291.259 169.066 290.876 169.512 290.608C169.957 290.341 170.469 290.207 171.047 290.207C171.902 290.207 172.597 290.482 173.13 291.033C173.663 291.584 173.951 292.314 173.994 293.225L174 293.559C174 294.184 173.88 294.742 173.64 295.234C173.399 295.727 173.056 296.107 172.608 296.377C172.161 296.646 171.645 296.781 171.059 296.781C170.164 296.781 169.448 296.483 168.911 295.888C168.374 295.292 168.105 294.498 168.105 293.506L168.105 293.436ZM169.529 293.559C169.529 294.211 169.664 294.722 169.934 295.091C170.203 295.46 170.578 295.645 171.059 295.645C171.539 295.645 171.913 295.457 172.181 295.082C172.448 294.707 172.582 294.158 172.582 293.436C172.582 292.795 172.444 292.287 172.169 291.912C171.894 291.537 171.52 291.35 171.047 291.35C170.582 291.35 170.213 291.534 169.939 291.903C169.666 292.272 169.529 292.824 169.529 293.559Z" fill="#626469"/>
<path d="M176.525 290.324L176.566 291.057C177.035 290.49 177.65 290.207 178.412 290.207C179.732 290.207 180.404 290.963 180.428 292.475V296.664H179.004V292.557C179.004 292.154 178.917 291.856 178.743 291.663C178.569 291.47 178.285 291.373 177.891 291.373C177.316 291.373 176.889 291.633 176.607 292.152V296.664H175.184V290.324H176.525Z" fill="#626469"/>
<path d="M183.662 288.783V290.324H184.781V291.379H183.662V294.918C183.662 295.16 183.71 295.335 183.806 295.442C183.901 295.55 184.072 295.604 184.318 295.604C184.482 295.604 184.648 295.584 184.816 295.545V296.646C184.492 296.736 184.18 296.781 183.879 296.781C182.785 296.781 182.238 296.178 182.238 294.971V291.379H181.195V290.324H182.238V288.783H183.662Z" fill="#626469"/>
<path d="M187.271 291.016C187.736 290.477 188.324 290.207 189.035 290.207C190.387 290.207 191.072 290.979 191.092 292.521V296.664H189.668V292.574C189.668 292.137 189.573 291.827 189.384 291.646C189.194 291.464 188.916 291.373 188.549 291.373C187.979 291.373 187.553 291.627 187.271 292.135V296.664H185.848V287.664H187.271V291.016Z" fill="#626469"/>
<path d="M196.084 294.941C196.084 294.687 195.979 294.494 195.771 294.361C195.562 294.229 195.215 294.111 194.73 294.01C194.246 293.908 193.842 293.779 193.518 293.623C192.807 293.279 192.451 292.781 192.451 292.129C192.451 291.582 192.682 291.125 193.143 290.758C193.604 290.391 194.189 290.207 194.9 290.207C195.658 290.207 196.27 290.395 196.737 290.77C197.204 291.145 197.438 291.631 197.438 292.229H196.014C196.014 291.955 195.912 291.728 195.709 291.546C195.506 291.364 195.236 291.273 194.9 291.273C194.588 291.273 194.333 291.346 194.136 291.49C193.938 291.635 193.84 291.828 193.84 292.07C193.84 292.289 193.932 292.459 194.115 292.58C194.299 292.701 194.67 292.823 195.229 292.946C195.787 293.069 196.226 293.216 196.544 293.386C196.862 293.556 197.099 293.76 197.253 293.998C197.407 294.236 197.484 294.525 197.484 294.865C197.484 295.436 197.248 295.897 196.775 296.251C196.303 296.604 195.684 296.781 194.918 296.781C194.398 296.781 193.936 296.688 193.529 296.5C193.123 296.312 192.807 296.055 192.58 295.727C192.354 295.398 192.24 295.045 192.24 294.666H193.623C193.643 295.002 193.77 295.261 194.004 295.442C194.238 295.624 194.549 295.715 194.936 295.715C195.311 295.715 195.596 295.644 195.791 295.501C195.986 295.358 196.084 295.172 196.084 294.941Z" fill="#626469"/>
<path d="M164.566 304.725L164.602 305.521C165.086 304.912 165.719 304.607 166.5 304.607C167.84 304.607 168.516 305.363 168.527 306.875V311.064H167.443V306.869C167.439 306.412 167.335 306.074 167.13 305.855C166.925 305.637 166.605 305.527 166.172 305.527C165.82 305.527 165.512 305.621 165.246 305.809C164.98 305.996 164.773 306.242 164.625 306.547V311.064H163.541V304.725L164.566 304.725Z" fill="#626469"/>
<path d="M175.119 306.295H170.232V305.352H175.119V306.295ZM175.119 308.727H170.232V307.789H175.119V308.727Z" fill="#626469"/>
<path d="M180.791 307.314C180.564 307.584 180.294 307.801 179.979 307.965C179.665 308.129 179.32 308.211 178.945 308.211C178.453 308.211 178.024 308.09 177.659 307.848C177.294 307.605 177.012 307.265 176.812 306.825C176.613 306.386 176.514 305.9 176.514 305.369C176.514 304.799 176.622 304.285 176.839 303.828C177.056 303.371 177.363 303.021 177.762 302.779C178.16 302.537 178.625 302.416 179.156 302.416C180 302.416 180.665 302.731 181.151 303.362C181.638 303.993 181.881 304.854 181.881 305.943V306.26C181.881 307.92 181.553 309.132 180.896 309.896C180.24 310.659 179.25 311.051 177.926 311.07H177.715V310.15H177.943C178.838 310.135 179.525 309.902 180.006 309.451C180.486 309.001 180.748 308.289 180.791 307.314ZM179.121 307.314C179.484 307.314 179.819 307.203 180.126 306.98C180.433 306.758 180.656 306.482 180.797 306.154V305.721C180.797 305.01 180.643 304.432 180.334 303.986C180.025 303.541 179.635 303.318 179.162 303.318C178.686 303.318 178.303 303.501 178.014 303.866C177.725 304.231 177.58 304.713 177.58 305.311C177.58 305.893 177.72 306.372 177.999 306.749C178.278 307.126 178.652 307.314 179.121 307.314Z" fill="#626469"/>
<path d="M209.572 296.664H208.154V289.811L206.062 290.523V289.328L209.391 288.104H209.572L209.572 296.664Z" fill="#626469"/>
<path d="M218.273 296.664H212.537V295.686L215.379 292.586C215.789 292.129 216.081 291.747 216.255 291.44C216.429 291.134 216.516 290.826 216.516 290.518C216.516 290.111 216.401 289.783 216.173 289.533C215.944 289.283 215.637 289.158 215.25 289.158C214.789 289.158 214.432 289.299 214.178 289.58C213.924 289.861 213.797 290.246 213.797 290.734H212.373C212.373 290.215 212.491 289.747 212.728 289.331C212.964 288.915 213.302 288.592 213.741 288.361C214.181 288.131 214.687 288.016 215.262 288.016C216.09 288.016 216.743 288.224 217.222 288.64C217.7 289.056 217.939 289.631 217.939 290.365C217.939 290.791 217.819 291.237 217.579 291.704C217.339 292.171 216.945 292.701 216.398 293.295L214.312 295.527H218.273V296.664Z" fill="#626469"/>
<path d="M223.775 290.324L223.816 290.986C224.262 290.467 224.871 290.207 225.645 290.207C226.492 290.207 227.072 290.531 227.385 291.18C227.846 290.531 228.494 290.207 229.33 290.207C230.029 290.207 230.55 290.4 230.892 290.787C231.233 291.174 231.408 291.744 231.416 292.498V296.664H229.992V292.539C229.992 292.137 229.904 291.842 229.729 291.654C229.553 291.467 229.262 291.373 228.855 291.373C228.531 291.373 228.267 291.46 228.062 291.634C227.856 291.808 227.713 292.035 227.631 292.316L227.637 296.664H226.213V292.492C226.193 291.746 225.813 291.373 225.07 291.373C224.5 291.373 224.096 291.605 223.857 292.07V296.664H222.434V290.324H223.775Z" fill="#626469"/>
<path d="M232.611 293.436C232.611 292.814 232.734 292.255 232.98 291.757C233.227 291.259 233.572 290.876 234.018 290.608C234.463 290.341 234.975 290.207 235.553 290.207C236.408 290.207 237.103 290.482 237.636 291.033C238.169 291.584 238.457 292.314 238.5 293.225L238.506 293.559C238.506 294.184 238.386 294.742 238.146 295.234C237.905 295.727 237.562 296.107 237.114 296.377C236.667 296.646 236.15 296.781 235.564 296.781C234.67 296.781 233.954 296.483 233.417 295.888C232.88 295.292 232.611 294.498 232.611 293.506L232.611 293.436ZM234.035 293.559C234.035 294.211 234.17 294.722 234.439 295.091C234.709 295.46 235.084 295.645 235.564 295.645C236.045 295.645 236.419 295.457 236.687 295.082C236.954 294.707 237.088 294.158 237.088 293.436C237.088 292.795 236.95 292.287 236.675 291.912C236.399 291.537 236.025 291.35 235.553 291.35C235.088 291.35 234.719 291.534 234.445 291.903C234.172 292.272 234.035 292.824 234.035 293.559Z" fill="#626469"/>
<path d="M241.031 290.324L241.072 291.057C241.541 290.49 242.156 290.207 242.918 290.207C244.238 290.207 244.91 290.963 244.934 292.475V296.664H243.51V292.557C243.51 292.154 243.423 291.856 243.249 291.663C243.075 291.47 242.791 291.373 242.396 291.373C241.822 291.373 241.395 291.633 241.113 292.152V296.664H239.689V290.324H241.031Z" fill="#626469"/>
<path d="M248.168 288.783V290.324H249.287V291.379H248.168V294.918C248.168 295.16 248.216 295.335 248.312 295.442C248.407 295.55 248.578 295.604 248.824 295.604C248.988 295.604 249.154 295.584 249.322 295.545V296.646C248.998 296.736 248.686 296.781 248.385 296.781C247.291 296.781 246.744 296.178 246.744 294.971V291.379H245.701V290.324H246.744V288.783H248.168Z" fill="#626469"/>
<path d="M251.777 291.016C252.242 290.477 252.83 290.207 253.541 290.207C254.893 290.207 255.578 290.979 255.598 292.521V296.664H254.174V292.574C254.174 292.137 254.079 291.827 253.89 291.646C253.7 291.464 253.422 291.373 253.055 291.373C252.484 291.373 252.059 291.627 251.777 292.135V296.664H250.354V287.664H251.777V291.016Z" fill="#626469"/>
<path d="M260.59 294.941C260.59 294.687 260.485 294.494 260.276 294.361C260.067 294.229 259.721 294.111 259.236 294.01C258.752 293.908 258.348 293.779 258.023 293.623C257.312 293.279 256.957 292.781 256.957 292.129C256.957 291.582 257.187 291.125 257.648 290.758C258.109 290.391 258.695 290.207 259.406 290.207C260.164 290.207 260.776 290.395 261.243 290.77C261.71 291.145 261.943 291.631 261.943 292.229H260.52C260.52 291.955 260.418 291.728 260.215 291.546C260.012 291.364 259.742 291.273 259.406 291.273C259.094 291.273 258.839 291.346 258.642 291.49C258.444 291.635 258.346 291.828 258.346 292.07C258.346 292.289 258.438 292.459 258.621 292.58C258.805 292.701 259.176 292.823 259.734 292.946C260.293 293.069 260.731 293.216 261.05 293.386C261.368 293.556 261.604 293.76 261.759 293.998C261.913 294.236 261.99 294.525 261.99 294.865C261.99 295.436 261.754 295.897 261.281 296.251C260.809 296.604 260.189 296.781 259.424 296.781C258.904 296.781 258.441 296.688 258.035 296.5C257.629 296.312 257.312 296.055 257.086 295.727C256.859 295.398 256.746 295.045 256.746 294.666H258.129C258.148 295.002 258.275 295.261 258.51 295.442C258.744 295.624 259.055 295.715 259.441 295.715C259.816 295.715 260.102 295.644 260.297 295.501C260.492 295.358 260.59 295.172 260.59 294.941Z" fill="#626469"/>
<path d="M225.662 304.725L225.697 305.521C226.182 304.912 226.814 304.607 227.596 304.607C228.936 304.607 229.611 305.363 229.623 306.875V311.064H228.539V306.869C228.535 306.412 228.431 306.074 228.226 305.855C228.021 305.637 227.701 305.527 227.268 305.527C226.916 305.527 226.607 305.621 226.342 305.809C226.076 305.996 225.869 306.242 225.721 306.547V311.064H224.637V304.725L225.662 304.725Z" fill="#626469"/>
<path d="M236.215 306.295H231.328V305.352H236.215V306.295ZM236.215 308.727H231.328V307.789H236.215V308.727Z" fill="#626469"/>
<path d="M241.887 307.314C241.66 307.584 241.39 307.801 241.075 307.965C240.761 308.129 240.416 308.211 240.041 308.211C239.549 308.211 239.12 308.09 238.755 307.848C238.39 307.605 238.107 307.265 237.908 306.825C237.709 306.386 237.609 305.9 237.609 305.369C237.609 304.799 237.718 304.285 237.935 303.828C238.151 303.371 238.459 303.021 238.857 302.779C239.256 302.537 239.721 302.416 240.252 302.416C241.096 302.416 241.761 302.731 242.247 303.362C242.733 303.993 242.977 304.854 242.977 305.943V306.26C242.977 307.92 242.648 309.132 241.992 309.896C241.336 310.659 240.346 311.051 239.021 311.07H238.811V310.15H239.039C239.934 310.135 240.621 309.902 241.102 309.451C241.582 309.001 241.844 308.289 241.887 307.314ZM240.217 307.314C240.58 307.314 240.915 307.203 241.222 306.98C241.528 306.758 241.752 306.482 241.893 306.154V305.721C241.893 305.01 241.738 304.432 241.43 303.986C241.121 303.541 240.73 303.318 240.258 303.318C239.781 303.318 239.398 303.501 239.109 303.866C238.82 304.231 238.676 304.713 238.676 305.311C238.676 305.893 238.815 306.372 239.095 306.749C239.374 307.126 239.748 307.314 240.217 307.314Z" fill="#626469"/>
<path opacity="0.4" d="M172.43 160.204H172.43C163.015 160.204 155.382 167.837 155.382 177.252V185.041C155.382 194.457 163.015 202.089 172.43 202.089H172.43C181.846 202.089 189.478 194.457 189.478 185.041V177.252C189.478 167.837 181.846 160.204 172.43 160.204Z" fill="#3D5F66"/>
<path d="M156.245 190.401H188.616" stroke="#626469" stroke-miterlimit="10"/>
<path d="M172.431 120.533V214.828" stroke="#626469" stroke-miterlimit="10"/>
<path d="M176.981 119.834H167.881V121.234H176.981V119.834Z" fill="#626469"/>
<path d="M176.981 214.129H167.881V215.529H176.981V214.129Z" fill="#626469"/>
<path opacity="0.6" d="M234.075 137.555H234.075C224.659 137.555 217.026 145.187 217.026 154.603V186.315C217.026 195.73 224.659 203.363 234.075 203.363C243.49 203.363 251.123 195.73 251.123 186.315V154.603C251.123 145.187 243.49 137.555 234.075 137.555Z" fill="#3D5F66"/>
<path d="M217.635 190.834H250.514" stroke="#626469" stroke-width="1.0008" stroke-miterlimit="10"/>
<path d="M234.075 102.148V218.947" stroke="#626469" stroke-width="1.0008" stroke-miterlimit="10"/>
<path d="M238.629 101.448H229.521V102.849H238.629V101.448Z" fill="#626469"/>
<path d="M238.629 218.247H229.521V219.648H238.629V218.247Z" fill="#626469"/>
<path opacity="0.85" d="M295.149 157.354H295.149C285.733 157.354 278.101 164.987 278.101 174.403V188.546C278.101 197.962 285.733 205.594 295.149 205.594H295.149C304.564 205.594 312.197 197.962 312.197 188.546V174.403C312.197 164.987 304.564 157.354 295.149 157.354Z" fill="#3D5F66"/>
<path d="M278.994 194.002H311.305" stroke="#626469" stroke-miterlimit="10"/>
<path d="M295.058 110.14V224.262" stroke="#626469" stroke-miterlimit="10"/>
<path d="M299.608 109.439H290.508V110.839H299.608V109.439Z" fill="#626469"/>
<path d="M299.608 223.562H290.508V224.962H299.608V223.562Z" fill="#626469"/>
<path d="M111.447 89.8906H111.447C102.031 89.8906 94.3984 97.5234 94.3984 106.939V155.642C94.3984 165.058 102.031 172.691 111.447 172.691C120.862 172.691 128.495 165.058 128.495 155.642V106.939C128.495 97.5234 120.862 89.8906 111.447 89.8906Z" fill="#E2E7EA"/>
<path d="M94.3984 138.635H128.495" stroke="#626469" stroke-miterlimit="10"/>
<path d="M111.446 55.4033V208.341" stroke="#626469" stroke-miterlimit="10"/>
<path d="M115.997 54.7041H106.896V56.1041H115.997V54.7041Z" fill="#626469"/>
<path d="M115.997 207.641H106.896V209.041H115.997V207.641Z" fill="#626469"/>
<path d="M273.955 296.664H268.219V295.686L271.061 292.586C271.471 292.129 271.763 291.747 271.937 291.44C272.11 291.134 272.197 290.826 272.197 290.518C272.197 290.111 272.083 289.783 271.854 289.533C271.626 289.283 271.318 289.158 270.932 289.158C270.471 289.158 270.113 289.299 269.859 289.58C269.605 289.861 269.479 290.246 269.479 290.734H268.055C268.055 290.215 268.173 289.747 268.409 289.331C268.646 288.915 268.983 288.592 269.423 288.361C269.862 288.131 270.369 288.016 270.943 288.016C271.771 288.016 272.425 288.224 272.903 288.64C273.382 289.056 273.621 289.631 273.621 290.365C273.621 290.791 273.501 291.237 273.261 291.704C273.021 292.171 272.627 292.701 272.08 293.295L269.994 295.527H273.955V296.664Z" fill="#626469"/>
<path d="M279.556 293.623H280.616V294.766H279.556V296.664H278.132V294.766H274.446L274.405 293.898L278.085 288.133H279.556V293.623ZM275.899 293.623H278.132V290.061L278.026 290.248L275.899 293.623Z" fill="#626469"/>
<path d="M285.377 290.324L285.418 290.986C285.863 290.467 286.473 290.207 287.246 290.207C288.094 290.207 288.674 290.531 288.986 291.18C289.447 290.531 290.096 290.207 290.932 290.207C291.631 290.207 292.151 290.4 292.493 290.787C292.835 291.174 293.01 291.744 293.018 292.498V296.664H291.594V292.539C291.594 292.137 291.506 291.842 291.33 291.654C291.154 291.467 290.863 291.373 290.457 291.373C290.133 291.373 289.868 291.46 289.663 291.634C289.458 291.808 289.314 292.035 289.232 292.316L289.238 296.664H287.814V292.492C287.795 291.746 287.414 291.373 286.672 291.373C286.102 291.373 285.697 291.605 285.459 292.07V296.664H284.035V290.324H285.377Z" fill="#626469"/>
<path d="M293.913 293.436C293.913 292.814 294.036 292.255 294.282 291.757C294.528 291.259 294.874 290.876 295.319 290.608C295.765 290.341 296.276 290.207 296.854 290.207C297.71 290.207 298.404 290.482 298.938 291.033C299.471 291.584 299.759 292.314 299.802 293.225L299.808 293.559C299.808 294.184 299.688 294.742 299.447 295.234C299.207 295.727 298.863 296.107 298.416 296.377C297.969 296.646 297.452 296.781 296.866 296.781C295.972 296.781 295.256 296.483 294.719 295.888C294.182 295.292 293.913 294.498 293.913 293.506L293.913 293.436ZM295.337 293.559C295.337 294.211 295.472 294.722 295.741 295.091C296.011 295.46 296.386 295.645 296.866 295.645C297.347 295.645 297.721 295.457 297.988 295.082C298.256 294.707 298.39 294.158 298.39 293.436C298.39 292.795 298.252 292.287 297.977 291.912C297.701 291.537 297.327 291.35 296.854 291.35C296.39 291.35 296.021 291.534 295.747 291.903C295.474 292.272 295.337 292.824 295.337 293.559Z" fill="#626469"/>
<path d="M302.033 290.324L302.074 291.057C302.543 290.49 303.158 290.207 303.92 290.207C305.24 290.207 305.912 290.963 305.936 292.475V296.664H304.512V292.557C304.512 292.154 304.425 291.856 304.251 291.663C304.077 291.47 303.793 291.373 303.398 291.373C302.824 291.373 302.396 291.633 302.115 292.152V296.664H300.691V290.324H302.033Z" fill="#626469"/>
<path d="M308.87 288.783V290.324H309.989V291.379H308.87V294.918C308.87 295.16 308.918 295.335 309.014 295.442C309.109 295.55 309.28 295.604 309.526 295.604C309.69 295.604 309.856 295.584 310.024 295.545V296.646C309.7 296.736 309.388 296.781 309.087 296.781C307.993 296.781 307.446 296.178 307.446 294.971V291.379H306.403V290.324H307.446V288.783H308.87Z" fill="#626469"/>
<path d="M312.179 291.016C312.644 290.477 313.231 290.207 313.942 290.207C315.294 290.207 315.979 290.979 315.999 292.521V296.664H314.575V292.574C314.575 292.137 314.48 291.827 314.291 291.646C314.102 291.464 313.823 291.373 313.456 291.373C312.886 291.373 312.46 291.627 312.179 292.135V296.664H310.755V287.664H312.179V291.016Z" fill="#626469"/>
<path d="M320.691 294.941C320.691 294.687 320.587 294.494 320.378 294.361C320.169 294.229 319.822 294.111 319.338 294.01C318.854 293.908 318.449 293.779 318.125 293.623C317.414 293.279 317.059 292.781 317.059 292.129C317.059 291.582 317.289 291.125 317.75 290.758C318.211 290.391 318.797 290.207 319.508 290.207C320.266 290.207 320.878 290.395 321.345 290.77C321.812 291.145 322.045 291.631 322.045 292.229H320.621C320.621 291.955 320.52 291.728 320.316 291.546C320.113 291.364 319.844 291.273 319.508 291.273C319.195 291.273 318.94 291.346 318.743 291.49C318.546 291.635 318.447 291.828 318.447 292.07C318.447 292.289 318.539 292.459 318.723 292.58C318.906 292.701 319.277 292.823 319.836 292.946C320.395 293.069 320.833 293.216 321.151 293.386C321.47 293.556 321.706 293.76 321.86 293.998C322.015 294.236 322.092 294.525 322.092 294.865C322.092 295.436 321.855 295.897 321.383 296.251C320.91 296.604 320.291 296.781 319.525 296.781C319.006 296.781 318.543 296.688 318.137 296.5C317.73 296.312 317.414 296.055 317.188 295.727C316.961 295.398 316.848 295.045 316.848 294.666H318.23C318.25 295.002 318.377 295.261 318.611 295.442C318.846 295.624 319.156 295.715 319.543 295.715C319.918 295.715 320.203 295.644 320.398 295.501C320.594 295.358 320.691 295.172 320.691 294.941Z" fill="#626469"/>
<path d="M325.971 290.858C325.971 291.433 325.842 291.889 325.586 292.229C325.33 292.567 324.978 292.737 324.528 292.737C324.096 292.737 323.759 292.581 323.518 292.27L323.477 292.669H322.726V287.422H323.556V289.328C323.794 289.046 324.116 288.904 324.521 288.904C324.973 288.904 325.327 289.072 325.584 289.406C325.842 289.741 325.971 290.209 325.971 290.811V290.858ZM325.141 290.787C325.141 290.386 325.069 290.085 324.929 289.885C324.787 289.685 324.582 289.584 324.313 289.584C323.954 289.584 323.701 289.741 323.556 290.056V291.579C323.703 291.9 323.958 292.061 324.32 292.061C324.58 292.061 324.78 291.964 324.922 291.771C325.062 291.577 325.136 291.284 325.141 290.893V290.787Z" fill="#626469"/>
<path d="M289.083 304.725L289.118 305.521C289.603 304.912 290.235 304.607 291.017 304.607C292.356 304.607 293.032 305.363 293.044 306.875V311.064H291.96V306.869C291.956 306.412 291.852 306.074 291.646 305.855C291.441 305.637 291.122 305.527 290.688 305.527C290.337 305.527 290.028 305.621 289.763 305.809C289.497 305.996 289.29 306.242 289.142 306.547V311.064H288.058V304.725L289.083 304.725Z" fill="#626469"/>
<path d="M299.336 306.295H294.449V305.352H299.336V306.295ZM299.336 308.727H294.449V307.789H299.336V308.727Z" fill="#626469"/>
<path d="M305.727 304.76C305.727 305.186 305.614 305.564 305.39 305.896C305.165 306.229 304.861 306.488 304.478 306.676C304.924 306.867 305.276 307.146 305.536 307.514C305.796 307.881 305.926 308.297 305.926 308.762C305.926 309.5 305.677 310.088 305.179 310.525C304.681 310.963 304.025 311.182 303.213 311.182C302.393 311.182 301.735 310.962 301.241 310.522C300.747 310.083 300.5 309.496 300.5 308.762C300.5 308.301 300.626 307.885 300.878 307.514C301.13 307.143 301.479 306.861 301.924 306.67C301.545 306.482 301.246 306.223 301.027 305.891C300.809 305.559 300.699 305.182 300.699 304.76C300.699 304.041 300.93 303.471 301.391 303.049C301.852 302.627 302.459 302.416 303.213 302.416C303.963 302.416 304.569 302.627 305.032 303.049C305.495 303.471 305.727 304.041 305.727 304.76ZM304.842 308.738C304.842 308.262 304.69 307.873 304.388 307.572C304.085 307.271 303.689 307.121 303.201 307.121C302.713 307.121 302.321 307.27 302.026 307.566C301.731 307.863 301.584 308.254 301.584 308.738C301.584 309.223 301.728 309.604 302.015 309.881C302.302 310.158 302.701 310.297 303.213 310.297C303.721 310.297 304.119 310.157 304.408 309.878C304.697 309.599 304.842 309.219 304.842 308.738ZM303.213 303.307C302.787 303.307 302.442 303.438 302.179 303.702C301.915 303.966 301.783 304.324 301.783 304.777C301.783 305.211 301.913 305.562 302.173 305.829C302.433 306.097 302.779 306.23 303.213 306.23C303.646 306.23 303.993 306.097 304.253 305.829C304.513 305.562 304.643 305.211 304.643 304.777C304.643 304.344 304.508 303.99 304.238 303.717C303.969 303.443 303.627 303.307 303.213 303.307Z" fill="#626469"/>
<path d="M6.02422 55.6406H12.0002V56.9244H7.48438L7.90684 58.3107H6.91426L6.02422 55.7678V55.6406Z" fill="#3D5F66"/>
<path d="M8.48105 49.429H9.54336C9.98086 49.429 10.3596 49.4783 10.6795 49.5767C10.9994 49.6724 11.2633 49.8119 11.4711 49.9951C11.6789 50.1755 11.8334 50.3915 11.9346 50.6431C12.033 50.8919 12.0822 51.1681 12.0822 51.4716C12.0822 51.715 12.0508 51.9419 11.9879 52.1525C11.925 52.363 11.8279 52.5531 11.6967 52.7226C11.5627 52.8894 11.3959 53.033 11.1963 53.1533C10.9967 53.2736 10.7588 53.3665 10.4826 53.4322C10.2064 53.4951 9.89336 53.5265 9.54336 53.5265H8.48106C8.03809 53.5265 7.65801 53.4787 7.34082 53.383C7.02363 53.2845 6.76113 53.1437 6.55332 52.9605C6.34551 52.7773 6.19238 52.5613 6.09395 52.3124C5.99551 52.0609 5.94629 51.7833 5.94629 51.4798C5.94629 51.2365 5.97773 51.0109 6.04062 50.8031C6.10352 50.5925 6.20059 50.4025 6.33184 50.233C6.46309 50.0634 6.62852 49.9199 6.82812 49.8023C7.02773 49.682 7.26563 49.5904 7.5418 49.5275C7.81523 49.4619 8.12832 49.429 8.48105 49.429ZM9.70332 50.7087H8.31289C8.10781 50.7087 7.93008 50.721 7.77969 50.7457C7.62656 50.7675 7.49668 50.8003 7.39004 50.8441C7.2834 50.8851 7.19727 50.9371 7.13164 50.9999C7.06602 51.0628 7.01816 51.1353 6.98809 51.2173C6.95527 51.2966 6.93887 51.3841 6.93887 51.4798C6.93887 51.6001 6.96348 51.7082 7.0127 51.8039C7.06191 51.8996 7.13984 51.9802 7.24648 52.0458C7.35039 52.1115 7.49121 52.1621 7.66895 52.1976C7.84395 52.2304 8.05859 52.2468 8.31289 52.2468H9.70332C9.9084 52.2468 10.0875 52.2359 10.2406 52.214C10.3938 52.1894 10.525 52.1566 10.6344 52.1156C10.741 52.0718 10.8285 52.0185 10.8969 51.9556C10.9625 51.8927 11.0104 51.8203 11.0404 51.7382C11.0705 51.6562 11.0855 51.5673 11.0855 51.4716C11.0855 51.3513 11.0623 51.2447 11.0158 51.1517C10.9666 51.0587 10.8887 50.9794 10.782 50.9138C10.6727 50.8455 10.5291 50.7949 10.3514 50.7621C10.1736 50.7265 9.95762 50.7087 9.70332 50.7087Z" fill="#3D5F66"/>
<path d="M10.9789 47.1468L11.8156 47.155C12.1328 47.155 12.4486 47.2329 12.7631 47.3888C13.0803 47.5446 13.34 47.7401 13.5424 47.9753L13.2184 48.6315C13.0926 48.5687 12.9654 48.5044 12.8369 48.4388C12.7111 48.3704 12.5717 48.3144 12.4186 48.2706C12.2654 48.2241 12.0863 48.2009 11.8813 48.2009H10.9789V47.1468Z" fill="#3D5F66"/>
<path d="M6.02422 43.0229L12.0002 43.0229V44.3067H7.48437L7.90684 45.693H6.91426L6.02422 43.15V43.0229Z" fill="#3D5F66"/>
<path d="M6.02422 37.9229L12.0002 37.9229V39.2066L7.48437 39.2066L7.90684 40.593H6.91426L6.02422 38.05L6.02422 37.9229Z" fill="#3D5F66"/>
</svg>
