<svg width="719" height="435" fill="none" xmlns="http://www.w3.org/2000/svg"><path d="M526.541 41.637c0 13.294-10.802 24.088-24.108 24.088H96.471V17.392h405.804c13.393 0 24.266 10.864 24.266 24.245Z" fill="#E2E7EA"/><path d="M96.47 151.354v-48.333h488.514c13.786 0 24.962 10.855 24.962 24.245 0 13.303-11.103 24.088-24.8 24.088H96.471Z" fill="#6D868E"/><path d="M10.389 215.924h-1.83v-8.834l-2.698.92v-1.541l4.294-1.578h.234v11.033ZM21.613 215.924h-7.4v-1.261l3.666-3.995c.53-.589.906-1.081 1.13-1.476.224-.396.337-.792.337-1.19 0-.524-.148-.947-.442-1.269-.295-.322-.692-.483-1.19-.483-.596 0-1.057.181-1.384.544-.328.362-.491.858-.491 1.488h-1.837c0-.67.152-1.273.457-1.809.305-.536.741-.953 1.308-1.25.567-.297 1.22-.446 1.961-.446 1.068 0 1.911.268 2.529.805.616.536.925 1.277.925 2.224 0 .548-.154 1.124-.464 1.725-.31.602-.818 1.285-1.523 2.051l-2.691 2.877h5.11v1.465ZM28.711 207.753l.053.853c.575-.669 1.36-1.004 2.358-1.004 1.094 0 1.842.418 2.245 1.253.595-.835 1.431-1.253 2.51-1.253.902 0 1.573.249 2.014.747.44.499.666 1.234.677 2.205v5.37H36.73v-5.317c0-.518-.114-.898-.34-1.14-.227-.242-.603-.363-1.127-.363-.418 0-.76.113-1.024.336-.264.224-.45.518-.555.88l.007 5.604h-1.836v-5.377c-.026-.962-.517-1.443-1.474-1.443-.736 0-1.258.3-1.565.899v5.921H26.98v-8.171h1.731ZM40.11 211.763c0-.801.158-1.522.476-2.164.317-.642.763-1.136 1.337-1.48.575-.345 1.235-.517 1.98-.517 1.104 0 2 .355 2.688 1.064.688.71 1.059 1.651 1.115 2.825l.007.43c0 .806-.155 1.526-.465 2.16a3.43 3.43 0 0 1-1.33 1.473c-.577.347-1.243.521-2 .521-1.153 0-2.077-.384-2.77-1.152-.692-.767-1.039-1.79-1.039-3.07v-.09Zm1.836.158c0 .841.174 1.499.522 1.975.347.476.831.714 1.45.714.62 0 1.103-.242 1.448-.725s.518-1.191.518-2.122c0-.826-.178-1.48-.533-1.964-.355-.483-.838-.725-1.447-.725-.6 0-1.076.238-1.429.714s-.529 1.187-.529 2.133ZM50.971 207.753l.053.944c.605-.73 1.398-1.095 2.38-1.095 1.704 0 2.57.974 2.601 2.922v5.4h-1.837v-5.294c0-.518-.112-.903-.336-1.152-.224-.249-.591-.374-1.1-.374-.74 0-1.292.336-1.655 1.005v5.815H49.24v-8.171h1.731ZM60.176 205.767v1.986h1.444v1.359h-1.444v4.562c0 .312.062.537.185.676.124.138.344.207.662.207.211 0 .425-.025.642-.075v1.419a4.482 4.482 0 0 1-1.21.174c-1.41 0-2.115-.778-2.115-2.333v-4.63h-1.346v-1.359h1.346v-1.986h1.836ZM64.833 208.644c.6-.695 1.358-1.042 2.275-1.042 1.743 0 2.627.994 2.653 2.983v5.339h-1.837v-5.271c0-.564-.122-.963-.366-1.197-.245-.234-.604-.351-1.078-.351-.736 0-1.284.327-1.647.981v5.838h-1.837v-11.6h1.837v4.32ZM76.2 213.704a.832.832 0 0 0-.404-.748c-.27-.171-.717-.322-1.342-.453-.624-.131-1.146-.298-1.564-.499-.918-.442-1.376-1.084-1.376-1.925 0-.706.297-1.295.892-1.768.594-.472 1.35-.709 2.268-.709.977 0 1.767.241 2.37.725.601.483.903 1.11.903 1.88H76.11c0-.352-.132-.646-.393-.88-.262-.234-.61-.351-1.043-.351-.404 0-.733.093-.987.279a.88.88 0 0 0-.381.748c0 .282.118.501.355.657.236.156.715.314 1.436.472.72.159 1.286.348 1.697.567.41.219.715.482.914.789.2.307.299.679.299 1.117 0 .736-.305 1.331-.915 1.787-.61.455-1.408.683-2.396.683-.67 0-1.267-.121-1.791-.363-.524-.241-.933-.573-1.224-.996a2.359 2.359 0 0 1-.439-1.367h1.784c.025.433.189.766.491 1 .303.234.703.352 1.202.352.484 0 .851-.092 1.104-.276a.853.853 0 0 0 .378-.721ZM46.626 226.313l.045 1.027c.624-.785 1.44-1.178 2.449-1.178 1.728 0 2.6.974 2.615 2.923v5.4h-1.398v-5.408c-.006-.589-.14-1.024-.405-1.306-.264-.283-.676-.423-1.236-.423-.453 0-.851.121-1.194.362a2.46 2.46 0 0 0-.801.952v5.823h-1.398v-8.172h1.323ZM60.237 228.337h-6.303v-1.216h6.303v1.216Zm0 3.134h-6.303v-1.208h6.303v1.208ZM66.79 234.484h-1.406v-9.311l-2.82 1.034v-1.269l4.006-1.502h.22v11.048ZM72.92 228.307h1.052c.66-.01 1.179-.184 1.556-.521.378-.337.567-.793.567-1.367 0-1.288-.642-1.933-1.927-1.933-.605 0-1.087.173-1.447.517-.36.345-.54.802-.54 1.371h-1.4c0-.871.32-1.595.957-2.171.637-.577 1.447-.865 2.43-.865 1.038 0 1.852.275 2.441.823.59.549.885 1.311.885 2.288 0 .479-.155.942-.465 1.39-.31.448-.732.783-1.266 1.004.605.192 1.072.509 1.402.952.33.443.495.985.495 1.624 0 .986-.323 1.77-.968 2.348-.645.579-1.484.869-2.516.869-1.034 0-1.874-.28-2.521-.838-.648-.559-.971-1.297-.971-2.213h1.406c0 .578.188 1.042.566 1.389.378.348.885.521 1.52.521.675 0 1.191-.176 1.55-.528.357-.352.536-.858.536-1.518 0-.639-.197-1.13-.59-1.473-.393-.343-.96-.518-1.7-.528H72.92v-1.141ZM19.93 119.465v1.518h-.228c-1.028.015-1.85.296-2.464.846-.615.547-.98 1.325-1.096 2.333.59-.619 1.343-.929 2.26-.929.973 0 1.74.342 2.302 1.027.561.684.843 1.567.843 2.651 0 1.118-.33 2.022-.987 2.715-.657.691-1.52 1.039-2.588 1.039-1.1 0-1.99-.406-2.672-1.216-.684-.812-1.025-1.873-1.025-3.187v-.627c0-1.93.47-3.44 1.41-4.531.94-1.094 2.291-1.639 4.055-1.639h.19Zm-1.974 5.249c-.403 0-.772.113-1.107.339a1.985 1.985 0 0 0-.737.907v.558c0 .816.171 1.464.514 1.945.343.48.786.721 1.33.721.545 0 .975-.204 1.293-.611.317-.408.476-.944.476-1.609s-.162-1.206-.484-1.624c-.322-.419-.75-.626-1.285-.626ZM28.711 122.341l.053.854c.575-.67 1.36-1.005 2.358-1.005 1.094 0 1.842.418 2.245 1.254.595-.836 1.431-1.254 2.51-1.254.902 0 1.573.25 2.014.748.44.499.666 1.233.677 2.205v5.37H36.73v-5.317c0-.519-.114-.899-.34-1.14-.227-.242-.603-.363-1.127-.363-.418 0-.76.112-1.024.336a1.77 1.77 0 0 0-.555.88l.007 5.604h-1.836v-5.377c-.026-.963-.517-1.443-1.474-1.443-.736 0-1.258.299-1.565.899v5.921H26.98v-8.172h1.731ZM40.11 126.352c0-.801.158-1.522.476-2.164.317-.642.763-1.137 1.337-1.48.575-.346 1.235-.518 1.98-.518 1.104 0 2 .355 2.688 1.065.688.71 1.059 1.65 1.115 2.825l.007.43c0 .805-.155 1.526-.465 2.16a3.436 3.436 0 0 1-1.33 1.473c-.577.347-1.243.521-2 .521-1.153 0-2.077-.385-2.77-1.152-.692-.768-1.039-1.792-1.039-3.07v-.09Zm1.836.158c0 .84.174 1.499.522 1.975.347.476.831.714 1.45.714.62 0 1.103-.242 1.448-.725.345-.484.518-1.192.518-2.122 0-.827-.178-1.481-.533-1.964-.355-.483-.838-.725-1.447-.725-.6 0-1.076.238-1.429.714s-.529 1.185-.529 2.133ZM50.971 122.341l.053.944c.605-.73 1.398-1.095 2.38-1.095 1.704 0 2.57.975 2.601 2.923v5.4h-1.837v-5.294c0-.519-.112-.903-.336-1.152-.224-.249-.591-.374-1.1-.374-.74 0-1.292.334-1.655 1.005v5.815H49.24v-8.172h1.731ZM60.176 120.355v1.987h1.444v1.359h-1.444v4.562c0 .311.062.536.185.675.124.138.344.208.662.208.211 0 .425-.026.642-.075v1.419a4.522 4.522 0 0 1-1.21.174c-1.41 0-2.115-.778-2.115-2.334v-4.629h-1.346v-1.359h1.346v-1.987h1.836ZM64.833 123.233c.6-.695 1.358-1.042 2.275-1.042 1.743 0 2.627.993 2.653 2.983v5.339h-1.837v-5.271c0-.565-.122-.963-.366-1.197-.245-.234-.604-.351-1.078-.351-.736 0-1.284.326-1.647.981v5.838h-1.837v-11.6h1.837v4.32ZM76.2 128.293a.83.83 0 0 0-.404-.748c-.27-.172-.717-.323-1.342-.453-.624-.132-1.146-.299-1.564-.499-.918-.443-1.376-1.085-1.376-1.925 0-.707.297-1.296.892-1.768.594-.474 1.35-.71 2.268-.71.977 0 1.767.242 2.37.725.601.484.903 1.111.903 1.881H76.11a1.13 1.13 0 0 0-.393-.88c-.262-.234-.61-.351-1.043-.351-.404 0-.733.092-.987.279a.878.878 0 0 0-.381.748c0 .281.118.5.355.657.236.155.715.313 1.436.472.72.159 1.286.347 1.697.566.41.219.715.482.914.79.2.305.299.679.299 1.117 0 .735-.305 1.33-.915 1.786-.61.455-1.408.684-2.396.684-.67 0-1.267-.121-1.791-.363-.524-.241-.933-.574-1.224-.996a2.36 2.36 0 0 1-.439-1.367h1.784c.025.432.189.766.491 1 .303.234.703.351 1.202.351.484 0 .851-.092 1.104-.275a.856.856 0 0 0 .378-.721ZM46.626 140.901l.045 1.027c.624-.785 1.44-1.178 2.449-1.178 1.728 0 2.6.974 2.615 2.923v5.399h-1.398v-5.407c-.006-.589-.14-1.023-.405-1.306-.264-.282-.676-.423-1.236-.423-.453 0-.851.121-1.194.362a2.46 2.46 0 0 0-.801.952v5.822h-1.398v-8.171h1.323ZM60.237 142.925h-6.303v-1.216h6.303v1.216Zm0 3.134h-6.303v-1.208h6.303v1.208ZM66.79 149.072h-1.406v-9.312l-2.82 1.035v-1.269l4.006-1.503h.22v11.049ZM72.92 142.895h1.052c.66-.009 1.179-.183 1.556-.521.378-.336.567-.793.567-1.367 0-1.288-.642-1.933-1.927-1.933-.605 0-1.087.173-1.447.517-.36.346-.54.802-.54 1.371h-1.4c0-.871.32-1.594.957-2.172.637-.575 1.447-.864 2.43-.864 1.038 0 1.852.275 2.441.823.59.549.885 1.312.885 2.288 0 .48-.155.942-.465 1.39-.31.449-.732.783-1.266 1.004.605.193 1.072.51 1.402.952.33.443.495.985.495 1.624 0 .987-.323 1.77-.968 2.348-.645.58-1.484.869-2.516.869-1.034 0-1.874-.28-2.521-.839-.648-.558-.971-1.295-.971-2.212h1.406c0 .579.188 1.042.566 1.389.378.348.885.521 1.52.521.675 0 1.191-.175 1.55-.528.357-.351.536-.857.536-1.518 0-.638-.197-1.129-.59-1.473-.393-.342-.96-.517-1.7-.529H72.92v-1.14ZM12.404 301.353h-7.4v-1.261l3.666-3.995c.53-.589.906-1.082 1.13-1.477.224-.396.337-.793.337-1.189 0-.525-.148-.948-.442-1.269-.295-.323-.692-.483-1.19-.483-.596 0-1.057.181-1.384.543-.328.363-.491.858-.491 1.488H4.793c0-.67.152-1.272.457-1.809a3.14 3.14 0 0 1 1.308-1.249c.567-.299 1.22-.446 1.961-.446 1.068 0 1.911.268 2.529.804.617.537.925 1.277.925 2.224 0 .548-.155 1.124-.464 1.726-.31.6-.818 1.284-1.523 2.05l-2.691 2.878h5.11v1.465ZM20.015 297.433h1.368v1.472h-1.368v2.447h-1.837v-2.447h-4.754l-.053-1.117 4.747-7.432h1.897v7.077Zm-4.716 0h2.88v-4.592l-.137.242-2.744 4.35ZM28.3 293.181l.052.854c.575-.671 1.36-1.005 2.358-1.005 1.093 0 1.842.418 2.245 1.254.595-.836 1.431-1.254 2.51-1.254.901 0 1.573.249 2.014.748.44.498.666 1.233.676 2.205v5.37H36.32v-5.317c0-.519-.114-.899-.34-1.14-.227-.242-.603-.363-1.127-.363-.418 0-.76.112-1.024.336a1.77 1.77 0 0 0-.555.88l.007 5.604h-1.836v-5.377c-.026-.963-.517-1.443-1.474-1.443-.736 0-1.258.298-1.565.899v5.921h-1.837v-8.172H28.3ZM39.697 297.191c0-.8.159-1.521.476-2.163.318-.642.764-1.137 1.338-1.48.575-.346 1.235-.518 1.98-.518 1.104 0 2 .355 2.688 1.065.687.71 1.059 1.65 1.114 2.825l.008.43c0 .804-.155 1.526-.465 2.16a3.442 3.442 0 0 1-1.33 1.473c-.577.347-1.243.521-2 .521-1.153 0-2.077-.385-2.77-1.152-.692-.768-1.039-1.792-1.039-3.07v-.091Zm1.837.159c0 .84.174 1.499.522 1.975.347.476.83.714 1.45.714s1.103-.242 1.448-.725c.345-.484.518-1.192.518-2.123 0-.826-.178-1.48-.533-1.963-.355-.483-.838-.725-1.447-.725-.6 0-1.076.238-1.429.714-.353.475-.529 1.185-.529 2.133ZM50.559 293.181l.053.944c.605-.73 1.398-1.095 2.38-1.095 1.704 0 2.57.974 2.6 2.923v5.4h-1.836v-5.294c0-.52-.112-.903-.336-1.152-.224-.249-.591-.374-1.1-.374-.74 0-1.292.334-1.655 1.005v5.815h-1.837v-8.172h1.731ZM59.766 291.195v1.987h1.444v1.359h-1.444v4.561c0 .312.062.537.185.676.124.138.344.208.662.208.211 0 .425-.026.642-.076v1.42a4.563 4.563 0 0 1-1.21.174c-1.41 0-2.116-.778-2.116-2.334v-4.629h-1.345v-1.359h1.345v-1.987h1.837ZM64.42 294.073c.6-.695 1.358-1.042 2.276-1.042 1.743 0 2.627.993 2.653 2.983v5.339h-1.837v-5.271c0-.565-.122-.963-.367-1.197-.244-.235-.603-.352-1.077-.352-.736 0-1.284.327-1.647.982v5.838h-1.837v-11.6h1.837v4.32ZM75.788 299.132a.83.83 0 0 0-.404-.747c-.27-.172-.717-.323-1.342-.453-.625-.133-1.146-.299-1.564-.499-.918-.444-1.376-1.085-1.376-1.926 0-.706.297-1.295.892-1.767.594-.474 1.35-.71 2.268-.71.977 0 1.767.242 2.37.725.601.484.902 1.11.902 1.881h-1.836a1.13 1.13 0 0 0-.393-.88c-.263-.234-.61-.351-1.043-.351-.404 0-.733.092-.987.279a.877.877 0 0 0-.382.748c0 .281.119.5.356.657.236.155.715.313 1.436.472.72.158 1.286.347 1.697.566.41.219.715.482.914.789.2.306.299.68.299 1.118 0 .735-.305 1.329-.915 1.786-.61.455-1.408.684-2.396.684-.67 0-1.267-.121-1.791-.363-.524-.241-.933-.574-1.224-.997a2.358 2.358 0 0 1-.439-1.367h1.784c.025.433.189.767.491 1.001.302.234.703.351 1.202.351.484 0 .851-.092 1.103-.275a.856.856 0 0 0 .378-.722ZM46.213 311.741l.046 1.027c.624-.785 1.44-1.178 2.449-1.178 1.728 0 2.6.974 2.615 2.922v5.4h-1.398v-5.407c-.006-.589-.14-1.023-.405-1.307-.264-.281-.676-.422-1.236-.422-.453 0-.851.12-1.194.362a2.46 2.46 0 0 0-.801.952v5.822H44.89v-8.171h1.322ZM59.825 313.765h-6.303v-1.216h6.303v1.216Zm0 3.134h-6.303v-1.209h6.303v1.209ZM66.38 319.912h-1.406V310.6l-2.82 1.035v-1.269l4.006-1.503h.22v11.049ZM72.509 313.734h1.05c.66-.01 1.18-.183 1.557-.521.378-.336.567-.793.567-1.367 0-1.288-.642-1.933-1.927-1.933-.605 0-1.088.173-1.448.517-.36.345-.54.802-.54 1.371H70.37c0-.871.318-1.594.956-2.172.637-.575 1.447-.864 2.43-.864 1.038 0 1.852.275 2.441.823.59.549.885 1.312.885 2.288 0 .48-.155.942-.465 1.39-.31.449-.732.783-1.266 1.004.604.193 1.072.51 1.402.952.33.443.495.985.495 1.623 0 .988-.323 1.771-.968 2.349-.645.58-1.484.869-2.517.869s-1.873-.28-2.52-.839c-.648-.559-.971-1.295-.971-2.212h1.405c0 .579.19 1.042.567 1.389.378.348.885.521 1.52.521.675 0 1.19-.175 1.549-.528.358-.352.537-.858.537-1.518 0-.639-.197-1.129-.59-1.473-.393-.342-.96-.517-1.7-.529h-1.051v-1.14ZM20.525 46.042V35.046h3.772c1.244 0 2.192.25 2.842.748.65.498.975 1.24.975 2.227 0 .504-.136.957-.408 1.36-.272.403-.67.714-1.194.936.594.162 1.054.465 1.38.91.324.446.487.981.487 1.605 0 1.032-.332 1.825-.994 2.379-.663.554-1.612.83-2.846.83h-4.014Zm1.913-6.367h1.874c.595 0 1.06-.135 1.395-.404.335-.269.502-.65.502-1.144 0-.544-.155-.936-.465-1.178-.31-.242-.792-.362-1.447-.362h-1.86v3.088Zm0 1.405v3.436h2.124c.6 0 1.068-.148 1.405-.445.338-.298.507-.71.507-1.239 0-1.143-.585-1.727-1.754-1.752h-2.282ZM34.999 46.042c-.08-.156-.151-.41-.212-.763-.585.61-1.3.914-2.146.914-.822 0-1.492-.234-2.01-.702a2.245 2.245 0 0 1-.78-1.737c0-.871.324-1.54.972-2.005.647-.466 1.573-.699 2.777-.699h1.127v-.536c0-.423-.119-.762-.355-1.016-.238-.254-.598-.381-1.081-.381-.419 0-.761.105-1.028.313a.969.969 0 0 0-.4.797h-1.838c0-.448.149-.867.446-1.257.297-.39.702-.696 1.213-.918a4.257 4.257 0 0 1 1.713-.332c.957 0 1.72.24 2.29.72.569.481.861 1.157.877 2.029v3.685c0 .735.102 1.322.31 1.76v.128h-1.875ZM32.98 44.72c.363 0 .704-.087 1.024-.264.32-.176.56-.412.722-.71v-1.54h-.99c-.68 0-1.192.118-1.535.355-.343.237-.514.57-.514 1.004 0 .352.117.634.352.842.234.209.548.314.94.314ZM43.072 43.822a.832.832 0 0 0-.405-.748c-.27-.17-.717-.322-1.341-.453-.625-.131-1.147-.297-1.565-.498-.917-.443-1.376-1.085-1.376-1.926 0-.705.297-1.294.892-1.767.594-.473 1.35-.71 2.268-.71.977 0 1.767.241 2.37.725.601.483.903 1.11.903 1.88H42.98c0-.352-.131-.646-.393-.88-.262-.234-.61-.35-1.043-.35-.404 0-.732.093-.987.279a.88.88 0 0 0-.381.747c0 .282.118.502.355.657.237.156.715.314 1.436.472.72.159 1.286.348 1.697.567.41.219.715.482.915.789.198.307.298.68.298 1.118 0 .735-.305 1.33-.914 1.786-.61.456-1.41.683-2.396.683-.67 0-1.268-.12-1.792-.362s-.932-.574-1.224-.997a2.357 2.357 0 0 1-.439-1.367h1.784c.025.433.189.766.491 1 .303.235.703.352 1.202.352.484 0 .851-.092 1.104-.276a.853.853 0 0 0 .378-.721ZM50.08 46.193c-1.165 0-2.108-.366-2.831-1.099-.724-.732-1.085-1.707-1.085-2.926v-.227c0-.815.157-1.544.472-2.186a3.591 3.591 0 0 1 1.327-1.5 3.505 3.505 0 0 1 1.905-.535c1.113 0 1.973.355 2.58 1.065.608.71.912 1.714.912 3.013v.74h-5.344c.055.675.28 1.208.676 1.601s.893.59 1.493.59c.841 0 1.527-.34 2.056-1.02l.99.944a3.308 3.308 0 0 1-1.311 1.136c-.547.27-1.16.404-1.84.404Zm-.22-7c-.504 0-.91.176-1.22.528-.31.352-.508.843-.594 1.473h3.5v-.136c-.041-.615-.204-1.08-.492-1.394-.287-.314-.685-.472-1.194-.472ZM56.737 46.042H54.9v-11.6h1.837v11.6ZM58.74 35.748c0-.282.09-.516.269-.702.178-.186.434-.28.767-.28.332 0 .59.094.77.28.182.186.273.42.273.702 0 .277-.09.507-.272.691-.182.184-.439.276-.771.276-.333 0-.589-.092-.767-.276a.951.951 0 0 1-.269-.69Zm1.95 10.294h-1.836V37.87h1.836v8.172ZM64.395 37.87l.053.945c.605-.73 1.398-1.095 2.38-1.095 1.704 0 2.57.974 2.6 2.922v5.4h-1.836v-5.294c0-.518-.112-.902-.336-1.152-.225-.249-.591-.373-1.1-.373-.74 0-1.292.335-1.655 1.004v5.815h-1.837v-8.171h1.731ZM74.902 46.193c-1.164 0-2.108-.366-2.831-1.099-.723-.732-1.085-1.707-1.085-2.926v-.227c0-.815.158-1.544.473-2.186a3.592 3.592 0 0 1 1.326-1.5 3.506 3.506 0 0 1 1.905-.535c1.113 0 1.974.355 2.581 1.065s.911 1.714.911 3.013v.74h-5.344c.055.675.28 1.208.677 1.601.395.393.892.59 1.492.59.842 0 1.527-.34 2.056-1.02l.99.944a3.308 3.308 0 0 1-1.31 1.136c-.548.27-1.161.404-1.841.404Zm-.22-7c-.504 0-.91.176-1.22.528-.31.352-.508.843-.594 1.473h3.5v-.136c-.04-.615-.204-1.08-.491-1.394-.288-.314-.686-.472-1.195-.472ZM46.626 56.431l.045 1.027c.624-.785 1.44-1.178 2.449-1.178 1.728 0 2.6.974 2.615 2.923v5.4h-1.398v-5.408c-.006-.589-.14-1.024-.405-1.306-.264-.282-.676-.423-1.236-.423-.453 0-.851.12-1.194.362-.343.242-.61.56-.801.952v5.823h-1.398V56.43h1.323ZM60.237 58.455h-6.303V57.24h6.303v1.216Zm0 3.134h-6.303v-1.208h6.303v1.208ZM66.79 64.602h-1.406v-9.311l-2.82 1.034v-1.268l4.006-1.503h.22v11.048ZM72.92 58.424h1.052c.66-.01 1.179-.184 1.556-.52.378-.338.567-.794.567-1.368 0-1.288-.642-1.933-1.927-1.933-.605 0-1.087.173-1.447.517-.36.345-.54.802-.54 1.371h-1.4c0-.871.32-1.594.957-2.171.637-.577 1.447-.865 2.43-.865 1.038 0 1.852.275 2.441.823.59.549.885 1.312.885 2.288 0 .48-.155.942-.465 1.39-.31.448-.732.783-1.266 1.005.605.191 1.072.508 1.402.951.33.443.495.985.495 1.624 0 .986-.323 1.77-.968 2.349-.645.578-1.484.868-2.516.868-1.034 0-1.874-.28-2.521-.838-.648-.56-.971-1.296-.971-2.213h1.406c0 .579.188 1.042.566 1.39.378.347.885.52 1.52.52.675 0 1.191-.176 1.55-.528.357-.352.536-.858.536-1.518 0-.64-.197-1.13-.59-1.473-.393-.342-.96-.518-1.7-.528H72.92v-1.14Z" fill="#626469"/><path d="M678.501 359.374H95.719" stroke="#626469" stroke-miterlimit="10"/><path d="M667.632 386.144h1.119c.564-.005 1.011-.151 1.341-.438.33-.287.495-.703.495-1.246 0-.524-.137-.93-.412-1.22-.275-.29-.694-.434-1.258-.434-.494 0-.9.142-1.217.426-.318.285-.476.656-.476 1.114h-1.837c0-.563.15-1.077.45-1.54a3.018 3.018 0 0 1 1.254-1.084c.537-.26 1.138-.389 1.803-.389 1.099 0 1.962.276 2.589.827.627.551.941 1.318.941 2.3 0 .493-.158.958-.472 1.393a2.978 2.978 0 0 1-1.221.986c.605.206 1.064.531 1.379.974.315.442.473.971.473 1.586 0 .986-.339 1.772-1.017 2.356-.678.584-1.568.876-2.672.876-1.058 0-1.925-.282-2.6-.846-.675-.563-1.013-1.314-1.013-2.25h1.837c0 .483.162.876.487 1.178.325.302.762.453 1.312.453.569 0 1.017-.151 1.345-.453.328-.302.492-.74.492-1.314 0-.579-.172-1.025-.514-1.337-.343-.313-.852-.468-1.527-.468h-1.081v-1.45ZM674.797 387.028l.597-5.544h5.911v1.586h-4.384l-.302 2.628a3.41 3.41 0 0 1 1.723-.438c1.048 0 1.863.336 2.445 1.005.582.669.873 1.571.873 2.703 0 1.118-.322 2.008-.967 2.67-.646.662-1.53.993-2.653.993-1.008 0-1.844-.286-2.506-.857-.663-.571-1.022-1.325-1.077-2.262h1.776c.071.534.262.943.575 1.227.312.285.72.427 1.224.427.564 0 1.004-.201 1.319-.604.315-.403.473-.952.473-1.646 0-.67-.174-1.2-.522-1.59-.348-.39-.827-.585-1.436-.585-.333 0-.615.044-.847.132-.232.088-.483.26-.756.517l-1.466-.362ZM690.275 387.85c0 1.582-.296 2.773-.888 3.576-.592.804-1.492 1.205-2.702 1.205-1.189 0-2.085-.392-2.687-1.174-.602-.783-.911-1.942-.926-3.478v-1.903c0-1.581.296-2.767.888-3.557.592-.79 1.496-1.186 2.71-1.186 1.204 0 2.102.385 2.695 1.155.592.771.895 1.923.91 3.459v1.903Zm-1.836-2.054c0-1.032-.141-1.789-.424-2.269-.282-.481-.73-.721-1.345-.721-.6 0-1.041.227-1.323.683-.282.456-.43 1.167-.446 2.134v2.492c0 1.027.144 1.792.431 2.296.287.503.738.755 1.353.755.59 0 1.025-.233 1.308-.699.282-.465.431-1.194.446-2.186v-2.485ZM556.414 392.48h-7.4v-1.261l3.666-3.995c.529-.589.906-1.081 1.13-1.477.224-.395.337-.792.337-1.189 0-.524-.148-.947-.443-1.269-.294-.322-.691-.483-1.19-.483-.595 0-1.056.181-1.383.543-.328.363-.492.859-.492 1.488h-1.836c0-.669.152-1.272.457-1.809a3.148 3.148 0 0 1 1.308-1.249c.567-.298 1.22-.446 1.961-.446 1.068 0 1.911.268 2.528.804.617.537.926 1.278.926 2.224 0 .549-.155 1.125-.465 1.726-.309.601-.817 1.285-1.523 2.05l-2.69 2.878h5.109v1.465ZM564.742 384.384c0 .539-.139 1.019-.415 1.439a2.9 2.9 0 0 1-1.134.993c.574.267 1.016.631 1.326 1.095.31.463.465.986.465 1.571 0 .966-.328 1.733-.982 2.299-.656.567-1.527.85-2.616.85-1.093 0-1.969-.284-2.626-.853-.658-.57-.987-1.334-.987-2.296 0-.589.156-1.118.469-1.586.312-.468.751-.828 1.315-1.08a2.864 2.864 0 0 1-1.122-.993c-.275-.42-.412-.9-.412-1.439 0-.936.302-1.679.907-2.228.605-.548 1.421-.823 2.449-.823 1.032 0 1.852.275 2.456.823.605.549.907 1.292.907 2.228Zm-1.595 5.007c0-.544-.162-.983-.487-1.318-.325-.335-.755-.502-1.289-.502-.534 0-.961.166-1.281.498-.32.333-.48.774-.48 1.322 0 .539.157.97.473 1.291.314.322.749.484 1.303.484.554 0 .987-.156 1.297-.468.31-.313.464-.748.464-1.307Zm-.234-4.939c0-.479-.139-.872-.416-1.182-.277-.31-.65-.464-1.118-.464-.469 0-.839.147-1.111.441-.272.295-.408.696-.408 1.205 0 .503.137.903.412 1.201.274.297.646.445 1.114.445.469 0 .84-.148 1.115-.445.275-.298.412-.698.412-1.201ZM573.783 387.85c0 1.582-.296 2.773-.888 3.576-.592.804-1.493 1.205-2.702 1.205-1.189 0-2.085-.392-2.687-1.174-.602-.783-.911-1.942-.926-3.478v-1.903c0-1.581.296-2.767.888-3.557.592-.79 1.495-1.186 2.71-1.186 1.204 0 2.102.385 2.694 1.155.592.771.896 1.923.911 3.459v1.903Zm-1.836-2.054c0-1.032-.142-1.789-.424-2.269-.282-.481-.731-.721-1.345-.721-.6 0-1.041.227-1.323.683-.282.456-.431 1.167-.446 2.134v2.492c0 1.027.144 1.792.431 2.296.287.503.738.755 1.353.755.59 0 1.025-.233 1.308-.699.282-.465.43-1.194.446-2.186v-2.485ZM438.207 392.48h-7.4v-1.261l3.666-3.995c.529-.589.906-1.081 1.13-1.477.224-.395.337-.792.337-1.189 0-.524-.148-.947-.443-1.269-.294-.322-.691-.483-1.19-.483-.595 0-1.056.181-1.383.543-.328.363-.492.859-.492 1.488h-1.836c0-.669.152-1.272.457-1.809a3.148 3.148 0 0 1 1.308-1.249c.566-.298 1.22-.446 1.961-.446 1.068 0 1.911.268 2.528.804.618.537.926 1.278.926 2.224 0 .549-.155 1.125-.465 1.726-.31.601-.817 1.285-1.523 2.05l-2.69 2.878h5.109v1.465ZM444.58 392.48h-1.829v-8.834l-2.698.919v-1.54l4.293-1.579h.234v11.034ZM455.576 387.85c0 1.582-.296 2.773-.888 3.576-.592.804-1.493 1.205-2.702 1.205-1.19 0-2.085-.392-2.687-1.174-.602-.783-.911-1.942-.926-3.478v-1.903c0-1.581.296-2.767.888-3.557.592-.79 1.495-1.186 2.71-1.186 1.204 0 2.102.385 2.694 1.155.592.771.896 1.923.911 3.459v1.903Zm-1.836-2.054c0-1.032-.142-1.789-.424-2.269-.282-.481-.731-.721-1.345-.721-.6 0-1.041.227-1.323.683-.282.456-.431 1.167-.446 2.134v2.492c0 1.027.144 1.792.431 2.296.287.503.738.755 1.353.755.59 0 1.025-.233 1.308-.699.282-.465.43-1.194.446-2.186v-2.485ZM318.502 392.48h-1.829v-8.834l-2.698.919v-1.54l4.293-1.579h.234v11.034ZM328.538 388.561h1.368v1.472h-1.368v2.447h-1.836v-2.447h-4.755l-.052-1.117 4.746-7.432h1.897v7.077Zm-4.716 0h2.88v-4.592l-.136.242-2.744 4.35ZM338.297 387.85c0 1.582-.296 2.773-.888 3.576-.592.804-1.493 1.205-2.702 1.205-1.19 0-2.085-.392-2.687-1.174-.603-.783-.911-1.942-.926-3.478v-1.903c0-1.581.296-2.767.888-3.557.592-.79 1.495-1.186 2.71-1.186 1.204 0 2.102.385 2.694 1.155.592.771.896 1.923.911 3.459v1.903Zm-1.837-2.054c0-1.032-.141-1.789-.423-2.269-.282-.481-.731-.721-1.345-.721-.6 0-1.041.227-1.323.683-.282.456-.431 1.167-.446 2.134v2.492c0 1.027.144 1.792.431 2.296.287.503.738.755 1.353.755.589 0 1.025-.233 1.307-.699.282-.465.431-1.194.446-2.186v-2.485ZM207.972 382.504l-4.399 9.976h-1.927l4.391-9.523h-5.691v-1.473h7.626v1.02ZM216.617 387.85c0 1.582-.296 2.774-.888 3.576-.592.804-1.493 1.205-2.702 1.205-1.189 0-2.085-.391-2.687-1.174-.602-.783-.911-1.942-.926-3.478v-1.903c0-1.581.296-2.766.888-3.557.592-.79 1.495-1.186 2.71-1.186 1.204 0 2.102.385 2.694 1.155.592.771.896 1.924.911 3.459v1.903Zm-1.836-2.054c0-1.032-.142-1.788-.424-2.269-.282-.481-.731-.721-1.345-.721-.6 0-1.041.228-1.323.683-.282.456-.431 1.167-.446 2.134v2.492c0 1.027.144 1.792.431 2.296.287.504.738.755 1.353.755.59 0 1.025-.232 1.308-.699.282-.465.43-1.194.446-2.186v-2.485ZM98.848 387.85c0 1.582-.296 2.773-.888 3.576-.593.804-1.493 1.205-2.703 1.205-1.189 0-2.085-.392-2.687-1.174-.602-.783-.91-1.942-.925-3.478v-1.903c0-1.581.296-2.767.888-3.557.592-.79 1.495-1.186 2.71-1.186 1.204 0 2.102.385 2.694 1.155.592.771.896 1.923.91 3.459v1.903Zm-1.837-2.054c0-1.032-.141-1.789-.423-2.269-.282-.481-.731-.721-1.346-.721-.6 0-1.04.227-1.322.683-.283.456-.431 1.167-.446 2.134v2.492c0 1.027.143 1.792.43 2.296.288.503.739.755 1.353.755.59 0 1.026-.233 1.308-.699.282-.465.43-1.194.446-2.186v-2.485Z" fill="#626469"/><path d="M208.896 358.982v13.446M326.178 358.908v13.446M443.504 359.008v13.445M560.736 359.055V372.5M678.018 359.006v13.445M82.871 211.785h12.854M82.871 126.985h12.854M82.871 296.979h12.854M96.172 372.231V7.476" stroke="#626469" stroke-miterlimit="10"/><path d="m269.347 415.016 3.18 8.972 3.163-8.972h3.351v12.37h-2.56v-3.382l.255-5.836-3.342 9.218h-1.751l-3.333-9.21.255 5.828v3.382h-2.551v-12.37h3.333ZM285.342 427.555c-1.35 0-2.448-.413-3.295-1.24-.848-.827-1.272-1.929-1.272-3.305v-.238c0-.923.179-1.749.536-2.476.357-.728.863-1.289 1.518-1.683.655-.393 1.402-.591 2.241-.591 1.258 0 2.249.397 2.971 1.19.723.793 1.085 1.917 1.085 3.373v1.002h-5.859c.079.601.319 1.082.718 1.445.4.362.906.543 1.518.543.947 0 1.687-.342 2.22-1.028l1.207 1.351a3.676 3.676 0 0 1-1.497 1.219c-.629.292-1.326.438-2.091.438Zm-.281-7.553c-.487 0-.883.165-1.186.495-.303.33-.498.802-.583 1.417h3.419v-.197c-.012-.546-.159-.968-.443-1.267-.283-.299-.685-.448-1.207-.448ZM290.139 422.722c0-1.433.321-2.575.965-3.424.643-.85 1.523-1.275 2.64-1.275.896 0 1.636.334 2.219 1.003v-4.69h2.466v13.05h-2.219l-.119-.977c-.612.765-1.4 1.147-2.364 1.147-1.083 0-1.951-.426-2.606-1.278-.655-.853-.982-2.038-.982-3.556Zm2.457.183c0 .862.15 1.522.451 1.982.3.46.737.689 1.309.689.76 0 1.296-.32 1.607-.962v-3.632c-.306-.641-.836-.962-1.59-.962-1.184 0-1.777.962-1.777 2.885ZM300.316 415.814c0-.368.124-.671.37-.909.247-.238.583-.357 1.008-.357.419 0 .754.119 1.003.357a1.2 1.2 0 0 1 .374.909c0 .374-.126.679-.378.917s-.585.357-.999.357c-.414 0-.747-.119-.999-.357a1.205 1.205 0 0 1-.379-.917Zm2.611 11.571h-2.466v-9.192h2.466v9.192ZM310.283 427.385a2.731 2.731 0 0 1-.246-.824c-.596.663-1.37.994-2.322.994-.901 0-1.648-.26-2.24-.782-.593-.521-.889-1.178-.889-1.971 0-.974.361-1.722 1.084-2.243.723-.521 1.767-.784 3.134-.79h1.131v-.526c0-.425-.11-.765-.328-1.02-.218-.255-.562-.382-1.033-.382-.414 0-.738.099-.974.297-.235.198-.353.47-.353.816h-2.457c0-.533.164-1.026.493-1.479.329-.453.794-.808 1.395-1.065.601-.258 1.275-.388 2.024-.388 1.133 0 2.033.286 2.699.854.666.57.999 1.37.999 2.4v3.985c.006.872.128 1.532.366 1.98v.144h-2.483Zm-2.032-1.708c.363 0 .697-.08 1.003-.242.306-.161.533-.378.68-.65v-1.58h-.918c-1.23 0-1.885.425-1.964 1.274l-.009.145c0 .306.108.558.323.756.216.198.511.297.885.297ZM316.549 418.192l.077 1.062c.657-.821 1.539-1.232 2.644-1.232.975 0 1.701.286 2.177.859.476.572.72 1.427.731 2.565v5.939h-2.457v-5.879c0-.521-.113-.899-.34-1.135-.227-.234-.604-.352-1.131-.352-.692 0-1.21.295-1.556.884v6.482h-2.458v-9.193h2.313ZM330.681 418.192l.077 1.028c.652-.798 1.533-1.198 2.644-1.198 1.185 0 1.999.468 2.441 1.402.646-.934 1.567-1.402 2.763-1.402.998 0 1.741.291 2.228.871.488.581.732 1.455.732 2.621v5.871H339.1v-5.862c0-.521-.102-.902-.307-1.142-.204-.241-.564-.362-1.079-.362-.737 0-1.248.351-1.531 1.054l.008 6.312h-2.457v-5.854c0-.532-.105-.917-.315-1.155-.209-.238-.567-.357-1.071-.357-.697 0-1.202.289-1.514.867v6.499h-2.457v-9.193h2.304ZM347.687 427.555c-1.349 0-2.447-.413-3.295-1.24-.847-.827-1.271-1.929-1.271-3.305v-.238c0-.923.179-1.749.536-2.476.357-.728.863-1.289 1.518-1.683.654-.393 1.401-.591 2.24-.591 1.259 0 2.249.397 2.972 1.19.723.793 1.084 1.917 1.084 3.373v1.002h-5.858c.079.601.318 1.082.718 1.445.4.362.906.543 1.518.543.947 0 1.686-.342 2.219-1.028l1.208 1.351a3.69 3.69 0 0 1-1.497 1.219c-.629.292-1.326.438-2.092.438Zm-.28-7.553c-.488 0-.883.165-1.187.495-.303.33-.497.802-.582 1.417h3.418v-.197c-.011-.546-.158-.968-.442-1.267-.283-.299-.686-.448-1.207-.448ZM355.809 415.933v2.26h1.573v1.801h-1.573v4.588c0 .339.065.583.195.73.131.148.38.221.749.221.272 0 .513-.02.722-.059v1.86a5.03 5.03 0 0 1-1.488.221c-1.723 0-2.602-.869-2.636-2.608v-4.953h-1.343v-1.801h1.343v-2.26h2.458ZM362.986 427.555c-1.349 0-2.447-.413-3.295-1.24-.847-.827-1.271-1.929-1.271-3.305v-.238c0-.923.178-1.749.536-2.476.357-.728.863-1.289 1.517-1.683.655-.393 1.402-.591 2.241-.591 1.259 0 2.249.397 2.972 1.19.723.793 1.084 1.917 1.084 3.373v1.002h-5.859c.08.601.319 1.082.719 1.445.4.362.906.543 1.518.543.946 0 1.686-.342 2.219-1.028l1.208 1.351a3.69 3.69 0 0 1-1.497 1.219c-.629.292-1.327.438-2.092.438Zm-.28-7.553c-.488 0-.883.165-1.187.495-.303.33-.497.802-.582 1.417h3.418v-.197c-.011-.546-.159-.968-.442-1.267-.283-.299-.686-.448-1.207-.448ZM373.334 420.495a6.726 6.726 0 0 0-.884-.068c-.93 0-1.539.314-1.829.943v6.015h-2.457v-9.193h2.321l.068 1.096c.494-.844 1.177-1.266 2.05-1.266.272 0 .527.037.765.111l-.034 2.362ZM379.499 424.845c0-.3-.148-.536-.446-.709-.298-.173-.775-.328-1.433-.464-2.188-.458-3.282-1.387-3.282-2.786 0-.816.339-1.497 1.016-2.044.677-.546 1.563-.82 2.657-.82 1.168 0 2.102.275 2.802.825.7.549 1.05 1.263 1.05 2.141h-2.457c0-.352-.114-.641-.34-.872-.227-.228-.581-.343-1.063-.343-.414 0-.734.093-.961.28a.885.885 0 0 0-.34.714c0 .272.129.492.387.658.258.168.693.312 1.305.434s1.128.259 1.548.412c1.298.475 1.947 1.299 1.947 2.472 0 .838-.36 1.517-1.08 2.034-.72.519-1.65.778-2.789.778-.771 0-1.456-.138-2.054-.412-.598-.274-1.067-.651-1.407-1.13a2.622 2.622 0 0 1-.51-1.55h2.33c.022.436.184.77.484 1.002.301.232.703.348 1.208.348.47 0 .826-.089 1.067-.267a.833.833 0 0 0 .361-.701ZM395.807 424.046l1.207-5.854h2.373l-2.347 9.193h-2.058l-1.743-5.786-1.743 5.786h-2.049l-2.347-9.193h2.372l1.199 5.846 1.684-5.846h1.777l1.675 5.854ZM405.935 427.385a2.731 2.731 0 0 1-.246-.824c-.595.663-1.369.994-2.321.994-.902 0-1.649-.26-2.241-.782a2.514 2.514 0 0 1-.889-1.971c0-.974.362-1.722 1.084-2.243.723-.521 1.768-.784 3.134-.79h1.131v-.526c0-.425-.109-.765-.328-1.02-.218-.255-.562-.382-1.033-.382-.413 0-.738.099-.973.297-.236.198-.353.47-.353.816h-2.458c0-.533.165-1.026.494-1.479.328-.453.793-.808 1.394-1.065.601-.258 1.276-.388 2.024-.388 1.134 0 2.034.286 2.7.854.666.57.999 1.37.999 2.4v3.985c.005.872.127 1.532.365 1.98v.144h-2.483Zm-2.032-1.708c.363 0 .697-.08 1.004-.242.306-.161.532-.378.68-.65v-1.58h-.919c-1.23 0-1.884.425-1.964 1.274l-.008.145a.98.98 0 0 0 .323.756c.215.198.51.297.884.297ZM412.534 427.386h-2.466v-13.05h2.466v13.05ZM417.898 423.699l-.884.883v2.804h-2.457v-13.05h2.457v7.23l.476-.612 2.356-2.761h2.95l-3.324 3.832 3.613 5.361h-2.823l-2.364-3.687ZM428.096 427.555c-1.35 0-2.448-.413-3.295-1.24-.848-.827-1.272-1.929-1.272-3.305v-.238c0-.923.179-1.749.536-2.476.357-.728.863-1.289 1.518-1.683.655-.393 1.401-.591 2.24-.591 1.259 0 2.25.397 2.972 1.19.723.793 1.084 1.917 1.084 3.373v1.002h-5.858c.079.601.319 1.082.718 1.445.4.362.906.543 1.518.543.947 0 1.687-.342 2.219-1.028l1.208 1.351a3.683 3.683 0 0 1-1.497 1.219c-.629.292-1.326.438-2.091.438Zm-.281-7.553c-.488 0-.883.165-1.186.495-.304.33-.498.802-.583 1.417h3.419v-.197c-.012-.546-.159-.968-.443-1.267-.283-.299-.686-.448-1.207-.448ZM432.891 422.722c0-1.433.321-2.575.965-3.424.643-.85 1.523-1.275 2.64-1.275.896 0 1.635.334 2.219 1.003v-4.69h2.466v13.05h-2.219l-.119-.977c-.612.765-1.4 1.147-2.364 1.147-1.083 0-1.951-.426-2.606-1.278-.655-.853-.982-2.038-.982-3.556Zm2.457.183c0 .862.15 1.522.451 1.982.3.46.737.689 1.309.689.76 0 1.296-.32 1.607-.962v-3.632c-.306-.641-.836-.962-1.59-.962-1.185 0-1.777.962-1.777 2.885ZM447.533 422.356c0-1.297.173-2.532.519-3.704.346-1.173.856-2.21 1.53-3.113.675-.904 1.406-1.532 2.194-1.883l.477 1.326c-.828.611-1.474 1.557-1.939 2.837-.465 1.28-.698 2.776-.698 4.486v.264c0 1.716.23 3.217.689 4.503.459 1.285 1.109 2.245 1.948 2.88l-.477 1.3c-.771-.346-1.489-.957-2.155-1.831-.666-.876-1.175-1.885-1.527-3.029a12.978 12.978 0 0 1-.561-3.585v-.451ZM463.851 421.481c0 1.156-.187 2.16-.562 3.012-.374.853-.892 1.536-1.556 2.052l2.058 1.614-1.624 1.436-2.636-2.116c-.3.051-.612.077-.935.077-1.026 0-1.942-.247-2.747-.739-.805-.493-1.428-1.196-1.871-2.112-.442-.914-.666-1.966-.671-3.156v-.612c0-1.217.219-2.289.659-3.216.439-.925 1.06-1.636 1.862-2.131.802-.496 1.719-.744 2.751-.744 1.031 0 1.948.248 2.75.744.803.495 1.423 1.206 1.863 2.131.439.927.659 1.996.659 3.208v.552Zm-2.585-.561c0-1.297-.233-2.282-.698-2.956-.464-.674-1.128-1.011-1.989-1.011-.856 0-1.517.333-1.982.998-.464.666-.7 1.641-.705 2.927v.603c0 1.263.232 2.243.697 2.94.465.696 1.134 1.045 2.007 1.045.856 0 1.513-.336 1.972-1.006.46-.673.692-1.651.698-2.936v-.604ZM471.426 427.385h-2.457v-9.464l-2.934.909v-1.997l5.128-1.835h.263v12.387ZM476.188 430.487l-1.284-.671.306-.552c.38-.691.576-1.38.587-2.065v-1.903h2.075l-.009 1.699c-.005.629-.164 1.263-.476 1.903a4.875 4.875 0 0 1-1.199 1.589ZM494.454 421.481c0 1.156-.187 2.16-.561 3.012-.374.853-.893 1.536-1.556 2.052l2.058 1.614-1.624 1.436-2.636-2.116a5.595 5.595 0 0 1-.936.077c-1.026 0-1.941-.247-2.746-.739-.805-.493-1.429-1.196-1.871-2.112-.442-.914-.666-1.966-.672-3.156v-.612c0-1.217.22-2.289.659-3.216.439-.925 1.06-1.636 1.862-2.131.803-.496 1.719-.744 2.751-.744 1.032 0 1.949.248 2.751.744.802.495 1.423 1.206 1.862 2.131.439.927.659 1.996.659 3.208v.552Zm-2.585-.561c0-1.297-.232-2.282-.697-2.956-.465-.674-1.128-1.011-1.99-1.011-.856 0-1.516.333-1.981.998-.465.666-.7 1.641-.706 2.927v.603c0 1.263.233 2.243.697 2.94.465.696 1.134 1.045 2.007 1.045.856 0 1.514-.336 1.973-1.006.459-.673.692-1.651.697-2.936v-.604ZM498.561 420.113h1.31c.623 0 1.085-.155 1.386-.467.3-.312.45-.725.45-1.24 0-.499-.148-.887-.446-1.164-.298-.278-.707-.417-1.229-.417-.47 0-.864.13-1.182.386a1.24 1.24 0 0 0-.476 1.008h-2.457c0-.646.174-1.225.523-1.738.348-.512.836-.913 1.462-1.202a4.886 4.886 0 0 1 2.071-.433c1.309 0 2.335.313 3.078.938.743.627 1.114 1.489 1.114 2.588 0 .566-.173 1.087-.519 1.563a3.37 3.37 0 0 1-1.36 1.096c.697.249 1.217.623 1.56 1.121.343.499.514 1.088.514 1.768 0 1.098-.401 1.979-1.203 2.642-.802.663-1.863.994-3.184.994-1.236 0-2.246-.326-3.032-.977-.785-.652-1.177-1.512-1.177-2.583h2.457c0 .464.174.844.523 1.138.349.295.778.442 1.288.442.584 0 1.042-.154 1.374-.463.331-.308.497-.718.497-1.227 0-1.235-.68-1.853-2.041-1.853h-1.301v-1.92ZM510.389 422.552c0 1.28-.184 2.512-.553 3.695-.368 1.184-.898 2.229-1.59 3.136-.691.906-1.431 1.529-2.219 1.869l-.476-1.3c.805-.606 1.44-1.541 1.905-2.804.464-1.263.705-2.716.722-4.358v-.451c0-1.693-.231-3.186-.693-4.477-.462-1.292-1.107-2.26-1.934-2.906l.476-1.3c.771.334 1.498.94 2.181 1.818.683.878 1.213 1.901 1.59 3.068.377 1.166.574 2.376.591 3.627v.383Z" fill="#3D5F66"/><path d="M82.871 41.919h12.854" stroke="#626469" stroke-miterlimit="10"/><path d="M630.87 125.184h2.137c1.693 0 2.54-.828 2.54-2.483 0-.645-.201-1.171-.605-1.579-.403-.407-.972-.611-1.706-.611-.601 0-1.122.175-1.566.524-.444.35-.666.784-.666 1.303h-4.529c0-1.03.287-1.947.86-2.754.574-.805 1.369-1.434 2.386-1.886 1.017-.452 2.135-.678 3.353-.678 2.178 0 3.889.497 5.134 1.49 1.246.994 1.868 2.359 1.868 4.096 0 .842-.257 1.636-.772 2.384-.515.747-1.266 1.354-2.251 1.82 1.039.376 1.854.946 2.446 1.711.591.766.887 1.713.887 2.841 0 1.745-.672 3.142-2.016 4.189-1.344 1.048-3.11 1.572-5.296 1.572-1.281 0-2.471-.244-3.568-.732s-1.929-1.163-2.493-2.028c-.564-.864-.847-1.847-.847-2.947h4.556c0 .599.242 1.118.726 1.557.484.439 1.08.658 1.788.658.797 0 1.433-.222 1.908-.664.475-.444.712-1.009.712-1.7 0-.984-.246-1.683-.739-2.094-.493-.412-1.174-.618-2.043-.618h-2.204v-3.371ZM656.259 128.865c0 2.641-.594 4.677-1.781 6.109-1.187 1.433-2.861 2.15-5.019 2.15-2.178 0-3.862-.722-5.054-2.163-1.192-1.442-1.788-3.473-1.788-6.096v-3.573c0-2.64.594-4.677 1.781-6.109 1.187-1.433 2.865-2.149 5.034-2.149 2.168 0 3.848.72 5.04 2.162 1.191 1.441 1.787 3.478 1.787 6.11v3.559Zm-4.529-4.15c0-1.405-.184-2.455-.551-3.149-.368-.693-.95-1.041-1.747-1.041-.78 0-1.347.323-1.701.967-.354.645-.544 1.621-.571 2.927v4.996c0 1.459.184 2.527.551 3.203.368.676.95 1.014 1.748 1.014.77 0 1.339-.33 1.706-.988.367-.658.556-1.689.565-3.095v-4.834ZM669.552 117.02v3.558h-.201c-1.694 0-3.085.405-4.174 1.215-1.088.811-1.758 1.937-2.009 3.378 1.022-1.002 2.312-1.504 3.871-1.504 1.693 0 3.042.618 4.045 1.853 1.004 1.236 1.506 2.856 1.506 4.861 0 1.245-.294 2.387-.881 3.425a6.27 6.27 0 0 1-2.459 2.437c-1.053.587-2.22.88-3.501.88-1.389 0-2.63-.316-3.723-.947-1.094-.631-1.944-1.533-2.554-2.706-.609-1.173-.923-2.524-.941-4.056v-1.812c0-2.015.433-3.825 1.297-5.432a9.407 9.407 0 0 1 3.703-3.781c1.604-.913 3.383-1.369 5.336-1.369h.685Zm-4.085 10.112c-.601 0-1.103.139-1.506.416a2.64 2.64 0 0 0-.9 1.021v1.356c0 2.471.855 3.706 2.567 3.706.69 0 1.265-.308 1.727-.927.461-.617.692-1.391.692-2.323 0-.957-.235-1.739-.705-2.343-.471-.604-1.096-.906-1.875-.906Z" fill="#6D868E"/><path d="M613.684 149.387c0-1.012.135-1.983.406-2.914a8.447 8.447 0 0 1 1.213-2.537c.538-.761 1.095-1.298 1.673-1.612l.255.82c-.653.501-1.19 1.266-1.609 2.295-.419 1.029-.648 2.182-.689 3.458l-.007.571c0 1.727.317 3.227.948 4.498.381.761.833 1.356 1.357 1.786l-.255.759c-.596-.332-1.165-.887-1.707-1.665-1.057-1.522-1.585-3.341-1.585-5.459ZM624.718 153.355h-6.411v-.893l3.387-3.76c.501-.569.848-1.03 1.038-1.386.191-.356.285-.724.285-1.105 0-.51-.154-.929-.463-1.255-.309-.327-.721-.49-1.236-.49-.619 0-1.099.175-1.442.527-.342.351-.514.84-.514 1.467h-1.243c0-.9.29-1.628.87-2.182.58-.555 1.357-.833 2.329-.833.909 0 1.628.238 2.156.715.529.477.793 1.111.793 1.903 0 .963-.613 2.108-1.841 3.438l-2.62 2.84h4.912v1.014ZM630.119 153.355h-1.249v-8.278l-2.507.919v-1.128l3.562-1.336h.194v9.823ZM640.077 144.278l-4.052 9.076h-1.304l4.039-8.754h-5.295v-1.021h6.612v.699ZM641.643 152.704c0-.215.063-.394.191-.538.128-.143.319-.214.575-.214.255 0 .449.071.581.214a.766.766 0 0 1 .198.538.723.723 0 0 1-.198.517c-.132.139-.326.208-.581.208-.256 0-.447-.069-.575-.208a.735.735 0 0 1-.191-.517ZM645.681 148.453l.498-4.874h5.012v1.148h-3.958l-.295 2.665a3.167 3.167 0 0 1 1.633-.423c.891 0 1.599.295 2.123.884.524.588.786 1.384.786 2.386 0 1.007-.272 1.8-.816 2.38-.545.58-1.305.869-2.282.869-.864 0-1.57-.238-2.116-.718-.547-.479-.858-1.141-.934-1.987h1.176c.076.56.275.982.598 1.266.322.284.748.426 1.276.426.579 0 1.032-.197 1.361-.591.33-.394.494-.938.494-1.632 0-.653-.178-1.178-.534-1.574-.356-.396-.83-.594-1.421-.594-.543 0-.968.119-1.277.356l-.329.268-.995-.255ZM652.925 155.301l-.706-.483c.421-.586.64-1.191.658-1.813v-1.121h1.217v.974c0 .452-.111.903-.333 1.356a3.175 3.175 0 0 1-.836 1.087ZM664.195 150.071h1.357v1.014h-1.357v2.269h-1.25v-2.269h-4.455v-.732l4.381-6.774h1.324v6.492Zm-4.294 0h3.044v-4.794l-.147.269-2.897 4.525ZM667.246 148.453l.497-4.874h5.013v1.148h-3.958l-.296 2.665a3.172 3.172 0 0 1 1.633-.423c.891 0 1.599.295 2.123.884.525.588.787 1.384.787 2.386 0 1.007-.273 1.8-.817 2.38-.544.58-1.305.869-2.281.869-.865 0-1.57-.238-2.117-.718-.546-.479-.857-1.141-.934-1.987h1.176c.076.56.276.982.598 1.266.323.284.748.426 1.277.426.578 0 1.032-.197 1.361-.591.329-.394.493-.938.493-1.632 0-.653-.178-1.178-.534-1.574-.356-.396-.829-.594-1.421-.594-.542 0-.967.119-1.277.356l-.329.268-.994-.255ZM676.21 147.862h.934c.587-.008 1.048-.163 1.384-.462.336-.3.504-.705.504-1.216 0-1.145-.571-1.718-1.714-1.718-.537 0-.966.153-1.287.46-.32.306-.48.712-.48 1.218h-1.243c0-.775.284-1.418.85-1.93.567-.513 1.287-.769 2.16-.769.923 0 1.647.244 2.171.732.524.488.786 1.166.786 2.034 0 .425-.138.837-.413 1.235a2.494 2.494 0 0 1-1.126.893c.538.171.953.452 1.247.846.293.394.44.875.44 1.444 0 .877-.287 1.573-.86 2.087-.574.516-1.32.773-2.238.773-.918 0-1.665-.249-2.241-.745-.576-.497-.863-1.153-.863-1.968h1.25c0 .515.167.927.504 1.236.336.309.786.463 1.35.463.6 0 1.059-.157 1.378-.47.318-.313.477-.763.477-1.349 0-.569-.175-1.005-.524-1.31-.35-.304-.854-.46-1.512-.47h-.934v-1.014ZM685.125 149.453c0 .998-.131 1.955-.393 2.87a8.518 8.518 0 0 1-1.203 2.535c-.54.774-1.106 1.325-1.697 1.652l-.262-.759c.69-.529 1.244-1.348 1.663-2.461.419-1.112.633-2.346.642-3.703v-.214c0-.94-.099-1.814-.296-2.622a8.84 8.84 0 0 0-.823-2.172c-.351-.64-.747-1.139-1.186-1.497l.262-.759c.591.327 1.155.873 1.69 1.638.536.766.936 1.61 1.203 2.531.266.922.4 1.91.4 2.961Z" fill="#63656A"/><path d="M625.426 297.961c0 13.295-10.803 24.088-24.108 24.088H96.471v-48.333H601.16c13.393 0 24.266 10.864 24.266 24.245ZM650.436 294.737h2.103c1.667 0 2.5-.815 2.5-2.445 0-.635-.198-1.152-.595-1.553-.397-.402-.957-.602-1.68-.602-.591 0-1.104.172-1.541.516-.436.343-.655.771-.655 1.282h-4.457c0-1.013.282-1.917.846-2.71.564-.793 1.347-1.412 2.348-1.856 1.001-.445 2.101-.668 3.3-.668 2.143 0 3.827.489 5.053 1.467 1.226.978 1.839 2.321 1.839 4.031 0 .828-.254 1.611-.761 2.346-.507.735-1.245 1.333-2.215 1.791 1.022.37 1.825.931 2.407 1.685.582.753.873 1.685.873 2.795 0 1.718-.661 3.093-1.984 4.123-1.323 1.031-3.06 1.547-5.212 1.547-1.261 0-2.431-.24-3.511-.721-1.081-.48-1.898-1.145-2.454-1.995-.556-.851-.833-1.817-.833-2.901h4.484c0 .59.238 1.102.714 1.533.476.431 1.062.648 1.759.648.785 0 1.411-.219 1.878-.655.468-.436.702-.993.702-1.672 0-.969-.243-1.656-.728-2.061s-1.155-.608-2.01-.608h-2.17v-3.317ZM671.931 306.221h-4.471v-14.22l-4.392 1.282v-3.384l8.453-2.92h.41v19.242ZM688.505 286.701v3.502h-.199c-1.666 0-3.036.399-4.107 1.197-1.071.797-1.731 1.905-1.977 3.323 1.005-.986 2.275-1.48 3.809-1.48 1.667 0 2.994.608 3.981 1.824.988 1.216 1.482 2.81 1.482 4.784 0 1.225-.289 2.348-.866 3.37a6.178 6.178 0 0 1-2.421 2.399c-1.037.577-2.185.866-3.446.866-1.367 0-2.588-.311-3.664-.932s-1.913-1.509-2.513-2.663c-.6-1.155-.908-2.485-.926-3.991v-1.785c0-1.982.425-3.764 1.277-5.345a9.24 9.24 0 0 1 3.644-3.721c1.578-.898 3.328-1.348 5.251-1.348h.675Zm-4.022 9.952c-.591 0-1.084.137-1.481.41a2.586 2.586 0 0 0-.886 1.004v1.335c0 2.432.842 3.648 2.526 3.648.679 0 1.245-.304 1.7-.912.454-.608.681-1.37.681-2.287 0-.943-.231-1.711-.694-2.306-.463-.595-1.078-.892-1.846-.892Z" fill="#6D868E"/><path d="M627.281 318.754c0-1.012.136-1.984.407-2.915a8.458 8.458 0 0 1 1.213-2.537c.537-.761 1.095-1.298 1.673-1.612l.255.82c-.654.501-1.19 1.266-1.609 2.296-.419 1.029-.649 2.181-.689 3.458l-.007.57c0 1.727.316 3.227.948 4.498.381.761.833 1.357 1.357 1.786l-.255.759c-.596-.331-1.165-.886-1.707-1.665-1.057-1.522-1.586-3.341-1.586-5.458ZM638.313 322.722h-6.41v-.893l3.387-3.76c.501-.569.847-1.03 1.038-1.386.19-.356.285-.724.285-1.105 0-.51-.154-.928-.463-1.255-.31-.327-.722-.49-1.237-.49-.618 0-1.098.176-1.441.527-.343.351-.514.84-.514 1.467h-1.243c0-.9.29-1.628.87-2.182.58-.555 1.356-.833 2.328-.833.909 0 1.628.238 2.157.715.529.477.793 1.111.793 1.903 0 .963-.613 2.108-1.841 3.438l-2.621 2.84h4.912v1.014ZM646.042 322.722h-6.411v-.893l3.387-3.76c.502-.569.848-1.03 1.038-1.386.191-.356.286-.724.286-1.105 0-.51-.155-.928-.464-1.255-.309-.327-.721-.49-1.236-.49-.618 0-1.099.176-1.442.527-.342.351-.514.84-.514 1.467h-1.243c0-.9.29-1.628.871-2.182.58-.555 1.356-.833 2.328-.833.909 0 1.628.238 2.157.715.528.477.793 1.111.793 1.903 0 .963-.614 2.108-1.842 3.438l-2.62 2.84h4.912v1.014ZM653.291 315.497c0 .488-.129.923-.387 1.303-.257.38-.605.678-1.045.893.511.219.915.539 1.213.96.298.421.447.898.447 1.43 0 .846-.285 1.52-.857 2.021-.571.502-1.322.752-2.254.752-.941 0-1.694-.251-2.261-.755-.567-.504-.85-1.177-.85-2.018 0-.527.144-1.004.434-1.43a2.688 2.688 0 0 1 1.199-.967 2.552 2.552 0 0 1-1.028-.893 2.298 2.298 0 0 1-.376-1.296c0-.823.264-1.476.792-1.959.529-.484 1.226-.726 2.09-.726.86 0 1.556.242 2.086.726.531.483.797 1.136.797 1.959Zm-1.015 4.56c0-.547-.173-.992-.521-1.337-.347-.344-.8-.516-1.361-.516-.559 0-1.009.17-1.347.51-.338.339-.507.788-.507 1.343 0 .554.165.991.494 1.308.329.318.787.477 1.374.477.582 0 1.039-.16 1.371-.48.331-.32.497-.755.497-1.305Zm-1.868-6.224c-.488 0-.884.151-1.186.453-.302.302-.454.713-.454 1.232 0 .497.149.899.447 1.205.298.306.696.46 1.193.46.497 0 .895-.154 1.193-.46.298-.306.447-.708.447-1.205 0-.497-.155-.902-.464-1.216-.309-.312-.701-.469-1.176-.469ZM655.24 322.07c0-.214.064-.394.192-.537.128-.144.319-.215.574-.215.256 0 .449.071.582.215a.763.763 0 0 1 .198.537.721.721 0 0 1-.198.517c-.133.139-.326.208-.582.208-.255 0-.446-.069-.574-.208a.734.734 0 0 1-.192-.517ZM659.279 317.82l.497-4.874h5.013v1.148h-3.958l-.296 2.665a3.172 3.172 0 0 1 1.633-.423c.891 0 1.6.295 2.123.884.525.588.787 1.384.787 2.386 0 1.008-.273 1.801-.817 2.38-.544.58-1.305.87-2.281.87-.865 0-1.57-.239-2.116-.719-.547-.478-.858-1.141-.934-1.987h1.175c.077.56.276.982.599 1.266.322.284.747.426 1.276.426.578 0 1.032-.197 1.361-.591.329-.394.494-.938.494-1.632 0-.653-.178-1.178-.535-1.574-.356-.396-.829-.594-1.421-.594-.542 0-.967.119-1.277.356l-.329.268-.994-.255ZM666.522 324.668l-.706-.483c.422-.586.641-1.19.659-1.813v-1.121h1.216v.974c0 .452-.111.904-.332 1.356a3.177 3.177 0 0 1-.837 1.087ZM677.791 319.438h1.357v1.014h-1.357v2.27h-1.25v-2.27h-4.455v-.731l4.381-6.775h1.324v6.492Zm-4.294 0h3.044v-4.793l-.148.269-2.896 4.524ZM686.406 318.552c0 1.455-.249 2.536-.746 3.244-.498.707-1.275 1.06-2.332 1.06-1.044 0-1.816-.346-2.318-1.038-.502-.691-.762-1.723-.78-3.098v-1.658c0-1.436.249-2.504.746-3.203.497-.698 1.277-1.047 2.339-1.047 1.052 0 1.828.337 2.324 1.011.498.674.753 1.713.767 3.119v1.61Zm-1.244-1.698c0-1.052-.148-1.818-.443-2.3-.295-.48-.764-.721-1.404-.721-.637 0-1.1.239-1.391.718-.291.479-.442 1.215-.451 2.208v1.988c0 1.057.154 1.837.461 2.34.307.504.771.755 1.394.755.614 0 1.07-.237 1.368-.712.297-.474.453-1.221.466-2.242v-2.034ZM694.315 313.645l-4.051 9.077h-1.304l4.038-8.755h-5.295v-1.021h6.612v.699ZM695.879 322.07c0-.214.064-.394.192-.537.127-.144.319-.215.574-.215.255 0 .449.071.581.215a.764.764 0 0 1 .199.537.722.722 0 0 1-.199.517c-.132.139-.326.208-.581.208-.255 0-.447-.069-.574-.208a.734.734 0 0 1-.192-.517ZM699.917 317.82l.498-4.874h5.013v1.148h-3.958l-.296 2.665a3.172 3.172 0 0 1 1.633-.423c.891 0 1.599.295 2.123.884.524.588.787 1.384.787 2.386 0 1.008-.273 1.801-.817 2.38-.544.58-1.305.87-2.281.87-.865 0-1.571-.239-2.117-.719-.546-.478-.858-1.141-.934-1.987h1.176c.076.56.276.982.598 1.266.322.284.748.426 1.277.426.578 0 1.031-.197 1.361-.591.329-.394.493-.938.493-1.632 0-.653-.178-1.178-.534-1.574-.356-.396-.83-.594-1.421-.594-.542 0-.967.119-1.277.356l-.329.268-.995-.255ZM710.072 318.821c0 .997-.131 1.955-.393 2.869a8.47 8.47 0 0 1-1.203 2.535c-.54.774-1.105 1.325-1.697 1.652l-.261-.759c.689-.529 1.243-1.348 1.662-2.461.419-1.112.633-2.346.642-3.702v-.215c0-.94-.098-1.814-.295-2.622a8.873 8.873 0 0 0-.824-2.171c-.351-.64-.747-1.14-1.185-1.498l.261-.759c.592.327 1.155.873 1.691 1.638.535.766.935 1.61 1.202 2.531.267.922.4 1.91.4 2.962Z" fill="#63656A"/><path d="M551.144 50.608h-13.439v-2.907l6.191-6.503c1.525-1.736 2.288-3.114 2.288-4.136 0-.828-.181-1.459-.542-1.89-.362-.432-.886-.648-1.574-.648-.68 0-1.23.289-1.654.866-.423.577-.635 1.297-.635 2.16h-4.47c0-1.18.295-2.27.886-3.27.59-1 1.41-1.783 2.46-2.346 1.049-.564 2.222-.846 3.519-.846 2.08 0 3.683.48 4.808 1.44 1.124.96 1.686 2.34 1.686 4.137 0 .758-.141 1.495-.423 2.214-.283.718-.721 1.471-1.316 2.26-.595.788-1.554 1.843-2.877 3.165l-2.487 2.868h7.579v3.436ZM564.159 31.088v3.502h-.199c-1.666 0-3.035.398-4.107 1.196-1.071.798-1.73 1.905-1.977 3.324 1.005-.986 2.275-1.48 3.809-1.48 1.667 0 2.994.608 3.982 1.824.987 1.216 1.481 2.81 1.481 4.784 0 1.224-.289 2.348-.866 3.37a6.18 6.18 0 0 1-2.421 2.399c-1.036.577-2.185.866-3.445.866-1.368 0-2.589-.311-3.664-.932-1.077-.621-1.914-1.509-2.514-2.663-.6-1.155-.908-2.485-.926-3.992v-1.784c0-1.982.426-3.765 1.277-5.346a9.247 9.247 0 0 1 3.644-3.72c1.578-.899 3.329-1.348 5.251-1.348h.675Zm-4.021 9.952c-.591 0-1.085.136-1.482.41a2.598 2.598 0 0 0-.886 1.004v1.335c0 2.431.842 3.647 2.526 3.647.679 0 1.246-.304 1.7-.912.454-.608.681-1.37.681-2.286 0-.943-.231-1.712-.694-2.306-.463-.595-1.078-.892-1.845-.892ZM582.465 33.744l-7.195 16.864h-4.709L577.77 34.8h-9.18v-3.436h13.875v2.38ZM538.053 62.943c0-.996.133-1.951.4-2.868a8.33 8.33 0 0 1 1.194-2.498c.529-.748 1.078-1.277 1.646-1.586l.252.806c-.644.494-1.172 1.247-1.584 2.26-.413 1.013-.638 2.148-.678 3.404l-.007.561c0 1.7.311 3.177.933 4.428.374.748.82 1.334 1.336 1.757l-.252.747c-.586-.326-1.146-.872-1.679-1.639-1.041-1.498-1.561-3.289-1.561-5.372ZM548.64 62.745c0 1.432-.244 2.496-.734 3.191-.489.696-1.254 1.044-2.295 1.044-1.027 0-1.788-.34-2.281-1.021-.494-.68-.75-1.696-.768-3.05v-1.631c0-1.414.245-2.465.735-3.152.489-.688 1.256-1.031 2.301-1.031 1.036 0 1.799.331 2.288.995.49.662.741 1.686.754 3.069v1.586Zm-1.223-1.672c0-1.036-.146-1.79-.437-2.264-.291-.473-.751-.71-1.382-.71-.626 0-1.082.236-1.369.707-.287.471-.434 1.196-.443 2.174v1.956c0 1.04.151 1.807.453 2.304.302.494.76.743 1.372.743.605 0 1.053-.234 1.346-.7.294-.468.447-1.204.46-2.208v-2.002ZM550.294 68.765l-.694-.476c.414-.577.63-1.171.648-1.784V65.4h1.197v.959a3 3 0 0 1-.328 1.334 3.124 3.124 0 0 1-.823 1.07ZM557.999 61.443h.919c.578-.009 1.032-.16 1.362-.456.331-.296.496-.694.496-1.196 0-1.128-.562-1.692-1.686-1.692-.529 0-.952.151-1.267.453-.315.301-.472.702-.472 1.2h-1.224c0-.763.279-1.396.837-1.9.558-.505 1.266-.757 2.126-.757.908 0 1.62.24 2.136.72s.774 1.148.774 2.002c0 .419-.136.824-.407 1.216-.271.392-.64.685-1.108.879.529.167.939.445 1.227.833.289.388.433.86.433 1.42 0 .864-.282 1.548-.846 2.055-.565.507-1.299.76-2.202.76-.904 0-1.64-.244-2.206-.733-.567-.49-.85-1.135-.85-1.936h1.23c0 .507.165.912.496 1.216.331.304.774.456 1.33.456.59 0 1.042-.154 1.355-.463.314-.309.47-.751.47-1.328 0-.56-.172-.99-.516-1.289-.344-.299-.84-.454-1.488-.462h-.919v-.998ZM568.627 57.22v1.038h-.225c-.952.018-1.71.3-2.275.846-.564.547-.89 1.315-.979 2.306.507-.581 1.2-.872 2.077-.872.838 0 1.507.295 2.007.885.501.59.751 1.353.751 2.287 0 .991-.27 1.784-.81 2.379-.54.594-1.264.892-2.173.892-.921 0-1.669-.353-2.242-1.061-.573-.706-.86-1.617-.86-2.732v-.47c0-1.77.378-3.124 1.135-4.06.756-.936 1.881-1.416 3.376-1.437h.218Zm-1.607 4.336c-.419 0-.804.125-1.157.376a1.958 1.958 0 0 0-.734.945v.45c0 .793.178 1.432.535 1.916.357.484.803.727 1.336.727.552 0 .985-.203 1.3-.608.315-.405.473-.937.473-1.593 0-.66-.16-1.195-.48-1.603-.32-.406-.744-.61-1.273-.61ZM577.27 59.738c0 .48-.126.907-.38 1.282a2.587 2.587 0 0 1-1.028.879c.502.216.9.53 1.194.945.293.414.439.883.439 1.407 0 .833-.281 1.496-.843 1.99-.562.493-1.302.74-2.219.74-.926 0-1.667-.248-2.225-.744-.558-.495-.837-1.158-.837-1.986 0-.52.142-.99.427-1.407a2.659 2.659 0 0 1 1.18-.952 2.526 2.526 0 0 1-1.012-.879c-.247-.374-.37-.8-.37-1.275 0-.811.26-1.454.78-1.93.52-.475 1.206-.713 2.057-.713.847 0 1.531.238 2.054.713.522.476.783 1.12.783 1.93Zm-.998 4.487c0-.537-.171-.976-.513-1.315-.341-.34-.788-.509-1.339-.509-.551 0-.993.167-1.326.502-.333.335-.499.775-.499 1.322 0 .546.162.976.486 1.288.324.313.774.47 1.352.47.573 0 1.023-.158 1.349-.473.327-.315.49-.743.49-1.285Zm-1.839-6.126c-.48 0-.869.15-1.167.446-.298.298-.447.702-.447 1.213 0 .489.147.884.44 1.186.294.301.685.453 1.174.453.49 0 .881-.151 1.174-.453.293-.302.44-.697.44-1.186 0-.49-.152-.888-.456-1.196-.305-.309-.691-.463-1.158-.463ZM581.987 63.009c0 .983-.129 1.924-.387 2.825a8.332 8.332 0 0 1-1.184 2.495c-.531.761-1.088 1.303-1.67 1.625l-.258-.747c.679-.52 1.225-1.327 1.637-2.421.413-1.095.623-2.31.632-3.645v-.211c0-.925-.097-1.785-.291-2.58a8.699 8.699 0 0 0-.81-2.139c-.347-.63-.735-1.121-1.168-1.473l.258-.747c.582.322 1.137.86 1.664 1.613a8.383 8.383 0 0 1 1.183 2.49c.263.908.394 1.88.394 2.915Z" fill="#626469"/><path d="M648.645 212.895c0 13.294-10.803 24.088-24.109 24.088H96.47v-48.334H624.38c13.392 0 24.266 10.864 24.266 24.246Z" fill="#6D868E"/><path d="M516.319 413.317V421h-1.651v-5.806l-1.782.543v-1.276l3.269-1.144h.164Zm7.986 3.158v1.366c0 .563-.063 1.05-.19 1.461a2.681 2.681 0 0 1-.537 1.018c-.233.267-.51.466-.834.596-.32.126-.675.189-1.065.189-.313 0-.605-.04-.875-.121a2.222 2.222 0 0 1-.733-.374 2.417 2.417 0 0 1-.554-.644 3.203 3.203 0 0 1-.359-.917 5.517 5.517 0 0 1-.121-1.208v-1.366c0-.569.062-1.058.185-1.466a2.72 2.72 0 0 1 .543-1.012c.235-.267.513-.464.833-.591.323-.126.68-.19 1.071-.19.312 0 .602.041.87.122.27.081.515.205.733.374.218.169.402.382.553.638.155.257.273.563.354.918.084.351.126.754.126 1.207Zm-1.645 1.572v-1.788c0-.263-.016-.492-.048-.685a2.125 2.125 0 0 0-.126-.501 1.013 1.013 0 0 0-.2-.333.876.876 0 0 0-.617-.247.901.901 0 0 0-.417.094.798.798 0 0 0-.311.301c-.085.134-.15.315-.195.543a4.505 4.505 0 0 0-.064.828v1.788c0 .264.014.494.043.691.031.197.073.365.126.506.056.137.125.25.206.337a.734.734 0 0 0 .279.185c.106.039.22.058.343.058a.9.9 0 0 0 .411-.09.797.797 0 0 0 .306-.3c.088-.141.153-.325.195-.554a4.29 4.29 0 0 0 .069-.833Zm4.58 1.64-.011 1.076c0 .408-.1.814-.301 1.218-.2.408-.451.742-.754 1.002l-.843-.417c.08-.162.163-.325.247-.49.088-.162.16-.341.217-.538.059-.197.089-.427.089-.691v-1.16h1.356Zm5.302-6.37V421h-1.651v-5.806l-1.782.543v-1.276l3.269-1.144h.164Zm6.557 0V421h-1.651v-5.806l-1.782.543v-1.276l3.269-1.144h.164Zm4.363 6.37-.01 1.076c0 .408-.1.814-.301 1.218-.2.408-.452.742-.754 1.002l-.844-.417.248-.49c.088-.162.16-.341.216-.538.06-.197.09-.427.09-.691v-1.16h1.355Zm5.303-6.37V421h-1.651v-5.806l-1.782.543v-1.276l3.269-1.144h.164Zm4.326 3.143h.839c.239 0 .435-.043.59-.127a.78.78 0 0 0 .348-.359c.078-.154.116-.335.116-.543 0-.179-.035-.339-.105-.48a.78.78 0 0 0-.322-.332c-.141-.084-.323-.126-.548-.126-.162 0-.317.033-.464.1a.862.862 0 0 0-.354.279.695.695 0 0 0-.137.433h-1.65c0-.429.116-.8.348-1.113.235-.313.546-.554.933-.722.39-.173.816-.259 1.276-.259.531 0 .997.085 1.398.253.404.165.717.412.938.739.225.323.338.724.338 1.202 0 .249-.06.49-.179.722a1.932 1.932 0 0 1-.501.612 2.554 2.554 0 0 1-.77.422 3.01 3.01 0 0 1-.987.153h-1.107v-.854Zm0 1.239v-.839h1.107c.401 0 .76.046 1.076.137.317.092.586.224.807.396.222.172.39.381.506.628.116.246.174.52.174.822 0 .359-.07.679-.211.96-.14.281-.337.518-.59.712-.253.193-.55.341-.891.443a4 4 0 0 1-1.108.147 3.54 3.54 0 0 1-.954-.131 2.803 2.803 0 0 1-.86-.401 2.079 2.079 0 0 1-.617-.691c-.155-.281-.232-.615-.232-1.002h1.651c0 .179.045.341.137.485.095.141.223.253.385.338.165.081.344.121.538.121.232 0 .429-.042.59-.127a.901.901 0 0 0 .375-.358c.088-.151.132-.325.132-.522 0-.267-.048-.482-.143-.644a.797.797 0 0 0-.401-.358 1.548 1.548 0 0 0-.632-.116h-.839Z" fill="#3D5F66"/><path d="M677.211 117.221v6.917h-1.784v-4.878l-1.653.378v-1.363l3.27-1.054h.167Zm2.474 2.795h.782c.228 0 .416-.033.562-.097a.73.73 0 0 0 .325-.281.779.779 0 0 0 .115-.422.69.69 0 0 0-.211-.484c-.141-.146-.387-.219-.738-.219-.247 0-.458.049-.633.149-.176.1-.264.237-.264.413h-1.784c0-.428.123-.788.369-1.081.246-.293.568-.515.967-.668a3.593 3.593 0 0 1 1.292-.228c.551 0 1.034.076 1.45.228.422.153.75.378.984.677.235.293.352.653.352 1.081 0 .357-.111.665-.334.923-.217.252-.513.445-.888.58-.375.135-.8.202-1.274.202h-1.072v-.773Zm0 1.169v-.747h1.072c.515 0 .97.055 1.362.166.393.112.7.296.923.554.223.252.334.598.334 1.037 0 .428-.129.794-.387 1.099-.252.305-.597.539-1.037.703a4.365 4.365 0 0 1-1.485.237c-.428 0-.856-.07-1.283-.211a2.392 2.392 0 0 1-1.055-.685c-.275-.322-.413-.744-.413-1.266h1.793c0 .194.096.366.29.519.193.152.454.228.782.228.357 0 .615-.076.773-.228a.767.767 0 0 0 .238-.563c0-.205-.047-.369-.141-.492a.721.721 0 0 0-.387-.264 1.8 1.8 0 0 0-.597-.087h-.782Z" fill="#6D868E"/><path d="M78.484 289.7h1.087v5.32l-.107.98h-.98v-6.3Zm3.942 4.036v.086c0 .331-.037.634-.111.911-.071.276-.18.515-.324.717-.145.2-.326.356-.542.468a1.629 1.629 0 0 1-.75.164c-.274 0-.511-.053-.714-.16a1.448 1.448 0 0 1-.504-.451 2.507 2.507 0 0 1-.328-.693 5.348 5.348 0 0 1-.185-.878v-.234a5.24 5.24 0 0 1 .184-.878c.083-.265.192-.496.329-.693.136-.197.305-.348.504-.455.2-.107.435-.16.706-.16.29 0 .542.056.758.168.22.11.4.265.542.468.145.199.253.437.324.713.074.274.11.576.11.907Zm-1.087.086v-.086c0-.189-.015-.366-.045-.533-.03-.17-.08-.319-.148-.447a.786.786 0 0 0-.279-.304.817.817 0 0 0-.443-.111.993.993 0 0 0-.435.087.831.831 0 0 0-.295.237 1.203 1.203 0 0 0-.18.357 2.21 2.21 0 0 0-.083.443v.64c.02.211.065.401.136.57a.91.91 0 0 0 .316.398.949.949 0 0 0 .55.148.855.855 0 0 0 .438-.103.76.76 0 0 0 .279-.295 1.44 1.44 0 0 0 .144-.447c.03-.17.045-.354.045-.554Z" fill="#626469"/><path d="M665.124 210.091h2.137c1.693 0 2.54-.828 2.54-2.484 0-.645-.201-1.171-.605-1.579-.403-.406-.972-.61-1.707-.61-.6 0-1.122.174-1.565.524-.444.349-.666.783-.666 1.302h-4.529c0-1.03.287-1.947.86-2.753.574-.806 1.369-1.434 2.386-1.886 1.017-.453 2.135-.679 3.353-.679 2.178 0 3.889.497 5.134 1.49 1.246.994 1.868 2.359 1.868 4.096 0 .842-.257 1.636-.772 2.384s-1.266 1.355-2.252 1.82c1.04.376 1.855.946 2.447 1.712.591.765.887 1.712.887 2.84 0 1.746-.673 3.143-2.017 4.19-1.343 1.047-3.109 1.571-5.295 1.571-1.281 0-2.471-.244-3.568-.732-1.098-.488-1.929-1.163-2.493-2.028-.565-.864-.847-1.846-.847-2.947h4.556c0 .599.242 1.119.726 1.558.484.439 1.08.658 1.787.658.798 0 1.434-.222 1.909-.665.475-.444.712-1.009.712-1.699 0-.985-.246-1.683-.739-2.095-.493-.412-1.174-.617-2.043-.617h-2.204v-3.371ZM690.304 221.76h-13.655v-2.954l6.29-6.607c1.55-1.764 2.325-3.165 2.325-4.203 0-.841-.184-1.481-.551-1.92-.368-.439-.9-.658-1.599-.658-.69 0-1.25.293-1.68.879-.43.587-.645 1.318-.645 2.195h-4.543c0-1.199.3-2.307.9-3.323a6.312 6.312 0 0 1 2.5-2.383c1.066-.573 2.258-.86 3.575-.86 2.115 0 3.743.488 4.886 1.464 1.142.976 1.714 2.377 1.714 4.203 0 .77-.144 1.52-.431 2.249-.287.73-.732 1.496-1.337 2.297-.605.801-1.579 1.873-2.923 3.216l-2.527 2.914h7.701v3.491ZM705.902 213.77c0 2.641-.594 4.677-1.781 6.109-1.188 1.433-2.861 2.15-5.02 2.15-2.177 0-3.862-.721-5.054-2.163-1.192-1.441-1.787-3.473-1.787-6.096v-3.572c0-2.641.594-4.678 1.781-6.11 1.187-1.433 2.864-2.149 5.033-2.149 2.168 0 3.848.721 5.04 2.162 1.192 1.442 1.788 3.478 1.788 6.11v3.559Zm-4.53-4.15c0-1.405-.183-2.454-.551-3.148-.367-.694-.949-1.042-1.747-1.042-.779 0-1.346.323-1.7.967-.354.645-.545 1.621-.571 2.927v4.996c0 1.46.183 2.527.551 3.203.367.676.949 1.014 1.747 1.014.771 0 1.339-.329 1.707-.987.367-.658.555-1.69.564-3.096v-4.834Z" fill="#6D868E"/><path d="M648.42 234.293c0-1.012.136-1.984.406-2.915a8.483 8.483 0 0 1 1.213-2.537c.538-.761 1.095-1.298 1.674-1.612l.255.82c-.654.501-1.191 1.266-1.61 2.296-.418 1.029-.648 2.181-.689 3.458l-.006.57c0 1.727.316 3.227.947 4.498.381.761.834 1.357 1.358 1.786l-.255.759c-.597-.331-1.165-.886-1.707-1.665-1.057-1.522-1.586-3.341-1.586-5.458ZM659.315 238.261h-6.41v-.893l3.386-3.76c.502-.568.848-1.03 1.039-1.386.19-.356.285-.724.285-1.104 0-.511-.154-.929-.463-1.256-.31-.327-.722-.49-1.237-.49-.618 0-1.098.176-1.441.527-.343.351-.514.84-.514 1.467h-1.243c0-.9.29-1.628.87-2.182.58-.555 1.356-.832 2.328-.832.909 0 1.628.237 2.157.714.529.477.793 1.111.793 1.903 0 .963-.614 2.108-1.841 3.438l-2.621 2.84h4.912v1.014ZM662.301 232.769h.935c.586-.009 1.048-.164 1.384-.463.336-.3.504-.705.504-1.216 0-1.145-.572-1.718-1.714-1.718-.538 0-.966.153-1.287.46-.32.307-.48.712-.48 1.218H660.4c0-.775.283-1.417.85-1.93.567-.513 1.287-.768 2.16-.768.923 0 1.646.243 2.171.731.524.488.786 1.166.786 2.035 0 .424-.138.836-.414 1.234a2.48 2.48 0 0 1-1.125.893c.538.171.953.452 1.246.846.294.395.441.875.441 1.444 0 .877-.287 1.573-.861 2.088-.573.515-1.319.772-2.237.772-.918 0-1.666-.248-2.241-.745-.576-.496-.864-1.153-.864-1.967h1.25c0 .514.168.926.505 1.235.335.309.786.463 1.35.463.6 0 1.059-.157 1.378-.47.318-.313.476-.763.476-1.349 0-.568-.174-1.005-.524-1.309-.349-.304-.853-.461-1.511-.471h-.935v-1.013ZM673.332 234.977h1.357v1.014h-1.357v2.27h-1.25v-2.27h-4.455v-.731l4.381-6.775h1.324v6.492Zm-4.294 0h3.044v-4.793l-.148.269-2.896 4.524ZM675.762 240.207l-.705-.483c.421-.586.64-1.19.658-1.812v-1.122h1.217v.974c0 .452-.111.904-.333 1.356a3.167 3.167 0 0 1-.837 1.087ZM686.756 234.977h1.357v1.014h-1.357v2.27h-1.25v-2.27h-4.455v-.731l4.381-6.775h1.324v6.492Zm-4.294 0h3.044v-4.793l-.148.269-2.896 4.524ZM693.976 228.479v1.053h-.228c-.968.018-1.738.305-2.312.86-.573.555-.905 1.336-.994 2.343.515-.591 1.218-.886 2.109-.886.852 0 1.531.3 2.04.899.508.6.763 1.375.763 2.323 0 1.008-.275 1.813-.824 2.417-.548.604-1.284.906-2.207.906-.936 0-1.696-.358-2.278-1.077-.582-.718-.873-1.643-.873-2.776v-.477c0-1.799.384-3.174 1.152-4.125.768-.952 1.912-1.438 3.43-1.46h.222Zm-1.633 4.403a1.98 1.98 0 0 0-1.176.384 1.987 1.987 0 0 0-.746.96v.456c0 .806.182 1.454.545 1.947.363.492.815.738 1.357.738.56 0 1-.205 1.321-.617.32-.412.48-.952.48-1.618 0-.671-.162-1.214-.487-1.629-.325-.413-.756-.621-1.294-.621ZM702.621 231.036c0 .488-.129.923-.387 1.303a2.615 2.615 0 0 1-1.045.893c.511.219.915.539 1.214.96.297.421.446.898.446 1.43 0 .846-.285 1.52-.857 2.021-.571.502-1.322.752-2.254.752-.941 0-1.694-.251-2.261-.755-.567-.503-.85-1.177-.85-2.018 0-.527.145-1.004.434-1.43a2.688 2.688 0 0 1 1.199-.967 2.552 2.552 0 0 1-1.028-.893 2.298 2.298 0 0 1-.376-1.296c0-.823.264-1.476.792-1.959.529-.484 1.226-.725 2.09-.725.86 0 1.556.241 2.086.725.531.483.797 1.136.797 1.959Zm-1.015 4.56c0-.547-.173-.992-.521-1.337-.347-.344-.8-.516-1.361-.516-.559 0-1.009.17-1.347.51-.338.339-.507.788-.507 1.343 0 .554.165.991.494 1.308.329.318.787.477 1.374.477.582 0 1.039-.16 1.371-.48.331-.32.497-.755.497-1.305Zm-1.868-6.224c-.488 0-.884.151-1.186.453-.302.302-.454.713-.454 1.232 0 .497.149.899.447 1.205.298.306.696.46 1.193.46.497 0 .895-.154 1.193-.46.298-.306.447-.708.447-1.205 0-.497-.155-.902-.464-1.216-.309-.312-.701-.469-1.176-.469ZM704.432 237.609c0-.214.063-.394.191-.537.128-.144.319-.215.575-.215.255 0 .449.071.581.215a.763.763 0 0 1 .198.537.721.721 0 0 1-.198.517c-.132.139-.326.208-.581.208-.256 0-.447-.069-.575-.208a.733.733 0 0 1-.191-.517ZM708.332 233.359l.497-4.874h5.013v1.148h-3.958l-.296 2.665a3.172 3.172 0 0 1 1.633-.423c.891 0 1.599.295 2.123.884.525.588.787 1.384.787 2.386 0 1.008-.273 1.801-.817 2.38-.544.58-1.305.87-2.281.87-.865 0-1.571-.239-2.117-.719-.546-.478-.858-1.141-.934-1.987h1.176c.076.56.276.982.598 1.266.322.284.748.426 1.277.426.578 0 1.031-.197 1.361-.591.329-.394.493-.938.493-1.631 0-.654-.178-1.179-.534-1.575-.356-.396-.829-.594-1.421-.594-.542 0-.967.119-1.277.356l-.329.268-.994-.255ZM718.347 234.36c0 .997-.131 1.955-.393 2.869a8.491 8.491 0 0 1-1.202 2.535c-.54.774-1.106 1.325-1.697 1.652l-.262-.759c.69-.529 1.244-1.348 1.663-2.461.419-1.112.632-2.346.641-3.702v-.215c0-.94-.098-1.814-.295-2.622a8.872 8.872 0 0 0-.823-2.171c-.352-.64-.747-1.14-1.186-1.498l.262-.759c.591.327 1.154.873 1.69 1.638a8.54 8.54 0 0 1 1.203 2.531c.266.923.399 1.91.399 2.962Z" fill="#63656A"/></svg>