<svg width="328" height="350" viewBox="0 0 328 350" fill="none" xmlns="http://www.w3.org/2000/svg">
<path d="M108.622 99.2393H108.622C98.7646 99.2393 90.7734 107.23 90.7734 117.088V185.287C90.7734 195.144 98.7646 203.135 108.622 203.135C118.48 203.135 126.471 195.144 126.471 185.287V117.088C126.471 107.23 118.48 99.2393 108.622 99.2393Z" fill="#E2E7EA"/>
<path d="M108.622 68.9551V225.569" stroke="#626469" stroke-miterlimit="10"/>
<path d="M113.172 68.2549H104.072V69.6549H113.172V68.2549Z" fill="#626469"/>
<path d="M113.172 224.869H104.072V226.269H113.172V224.869Z" fill="#626469"/>
<path d="M90.7715 183.479H126.472" stroke="#626469" stroke-miterlimit="10"/>
<path opacity="0.4" d="M169.694 73.9678H169.694C159.837 73.9678 151.846 81.9589 151.846 91.8164V131.935C151.846 141.793 159.837 149.784 169.694 149.784C179.552 149.784 187.543 141.793 187.543 131.935V91.8164C187.543 81.9589 179.552 73.9678 169.694 73.9678Z" fill="#3D5F66"/>
<path d="M151.845 104.855H187.545" stroke="#626469" stroke-miterlimit="10"/>
<path d="M169.695 35.5928V228.245" stroke="#626469" stroke-miterlimit="10"/>
<path d="M174.245 34.8926H165.146V36.2926H174.245V34.8926Z" fill="#626469"/>
<path d="M174.245 227.545H165.146V228.945H174.245V227.545Z" fill="#626469"/>
<path opacity="0.85" d="M292.15 66.9834H292.15C282.293 66.9834 274.302 74.9745 274.302 84.8321V143.167C274.302 153.024 282.293 161.015 292.15 161.015C302.008 161.015 309.999 153.024 309.999 143.167V84.8321C309.999 74.9745 302.008 66.9834 292.15 66.9834Z" fill="#3D5F66"/>
<path d="M274.301 90.8154H310.001" stroke="#626469" stroke-miterlimit="10"/>
<path d="M292.151 48.8613V233.947" stroke="#626469" stroke-miterlimit="10"/>
<path d="M296.701 48.1621H287.601V49.5621H296.701V48.1621Z" fill="#626469"/>
<path d="M296.701 233.248H287.601V234.648H296.701V233.248Z" fill="#626469"/>
<path opacity="0.6" d="M230.791 67.5596H230.791C220.934 67.5596 212.942 75.5507 212.942 85.4082V131.143C212.942 141 220.934 148.992 230.791 148.992C240.649 148.992 248.64 141 248.64 131.143V85.4082C248.64 75.5507 240.649 67.5596 230.791 67.5596Z" fill="#3D5F66"/>
<path d="M230.791 34.8359V219.154" stroke="#626469" stroke-miterlimit="10"/>
<path d="M235.341 34.1357H226.241V35.5357H235.341V34.1357Z" fill="#626469"/>
<path d="M235.341 218.454H226.241V219.854H235.341V218.454Z" fill="#626469"/>
<path d="M212.939 102.048H248.64" stroke="#626469" stroke-miterlimit="10"/>
<path d="M65.2129 146.716H74.5128" stroke="#626469" stroke-miterlimit="10"/>
<path d="M65.2129 85.3096H74.5128" stroke="#626469" stroke-miterlimit="10"/>
<path d="M65.5576 208.407H74.8575" stroke="#626469" stroke-miterlimit="10"/>
<path d="M49.7686 145.924H50.8291V147.066H49.7686V148.965H48.3447V147.066H44.6592L44.6182 146.199L48.2979 140.434H49.7686L49.7686 145.924ZM46.1123 145.924H48.3447V142.361L48.2393 142.549L46.1123 145.924Z" fill="#626469"/>
<path d="M57.333 145.373C57.333 146.6 57.1035 147.524 56.6445 148.147C56.1855 148.771 55.4873 149.082 54.5498 149.082C53.6279 149.082 52.9336 148.778 52.4668 148.171C52 147.563 51.7607 146.664 51.749 145.473V143.996C51.749 142.77 51.9785 141.85 52.4375 141.236C52.8965 140.623 53.5967 140.316 54.5381 140.316C55.4717 140.316 56.168 140.615 56.627 141.213C57.086 141.811 57.3213 142.705 57.333 143.896V145.373ZM55.9092 143.779C55.9092 142.979 55.7998 142.392 55.5811 142.019C55.3623 141.646 55.0147 141.459 54.5381 141.459C54.0733 141.459 53.7315 141.636 53.5127 141.989C53.294 142.343 53.1787 142.895 53.167 143.645V145.578C53.167 146.375 53.2783 146.969 53.501 147.359C53.7236 147.75 54.0733 147.945 54.5498 147.945C55.0068 147.945 55.3447 147.765 55.5635 147.403C55.7822 147.042 55.8975 146.477 55.9092 145.707V143.779Z" fill="#626469"/>
<path d="M49.3809 79.0352V80.2129H49.2051C48.4082 80.2246 47.7715 80.4434 47.2949 80.8691C46.8184 81.2949 46.5352 81.8984 46.4453 82.6797C46.9024 82.1992 47.4863 81.959 48.1973 81.959C48.9512 81.959 49.5459 82.2246 49.9815 82.7559C50.417 83.2871 50.6348 83.9727 50.6348 84.8125C50.6348 85.6797 50.3799 86.3819 49.8701 86.919C49.3604 87.4561 48.6914 87.7246 47.8633 87.7246C47.0117 87.7246 46.3213 87.4102 45.792 86.7813C45.2627 86.1523 44.998 85.3281 44.998 84.3086V83.8223C44.998 82.3262 45.3623 81.1543 46.0908 80.3066C46.8193 79.459 47.8672 79.0352 49.2344 79.0352L49.3809 79.0352ZM47.8516 83.1074C47.5391 83.1074 47.2529 83.1953 46.9932 83.3711C46.7334 83.5469 46.543 83.7813 46.4219 84.0742V84.5078C46.4219 85.1406 46.5547 85.6436 46.8203 86.0166C47.086 86.3897 47.4297 86.5762 47.8516 86.5762C48.2734 86.5762 48.6074 86.418 48.8535 86.1016C49.0996 85.7852 49.2227 85.3691 49.2227 84.8535C49.2227 84.3379 49.0977 83.918 48.8477 83.5937C48.5977 83.2695 48.2656 83.1074 47.8516 83.1074Z" fill="#626469"/>
<path d="M57.333 84.0156C57.333 85.2422 57.1035 86.167 56.6445 86.79C56.1855 87.4131 55.4873 87.7246 54.5498 87.7246C53.6279 87.7246 52.9336 87.4209 52.4668 86.8135C52 86.2061 51.7607 85.3066 51.749 84.1152V82.6387C51.749 81.4121 51.9785 80.4922 52.4375 79.8789C52.8965 79.2656 53.5967 78.959 54.5381 78.959C55.4717 78.959 56.168 79.2578 56.627 79.8555C57.086 80.4531 57.3213 81.3477 57.333 82.5391V84.0156ZM55.9092 82.4219C55.9092 81.6211 55.7998 81.0342 55.5811 80.6611C55.3623 80.2881 55.0147 80.1016 54.5381 80.1016C54.0733 80.1016 53.7315 80.2783 53.5127 80.6318C53.294 80.9853 53.1787 81.5371 53.167 82.2871V84.2207C53.167 85.0176 53.2783 85.6113 53.501 86.0019C53.7236 86.3926 54.0733 86.5879 54.5498 86.5879C55.0068 86.5879 55.3447 86.4072 55.5635 86.0459C55.7822 85.6846 55.8975 85.1191 55.9092 84.3496V82.4219Z" fill="#626469"/>
<path d="M50.2627 210.338H44.5264V209.359L47.3682 206.26C47.7783 205.803 48.0713 205.421 48.2451 205.114C48.419 204.808 48.5049 204.5 48.5049 204.191C48.5049 203.785 48.3916 203.457 48.1631 203.207C47.9346 202.957 47.626 202.832 47.2393 202.832C46.7783 202.832 46.4209 202.973 46.167 203.254C45.9131 203.535 45.7861 203.92 45.7861 204.408H44.3623C44.3623 203.889 44.4814 203.421 44.7178 203.005C44.9541 202.589 45.292 202.266 45.7314 202.035C46.1709 201.805 46.6768 201.689 47.251 201.689C48.0791 201.689 48.7334 201.897 49.2119 202.313C49.6904 202.729 49.9287 203.305 49.9287 204.039C49.9287 204.465 49.8096 204.911 49.5693 205.378C49.3291 205.845 48.9346 206.375 48.3877 206.969L46.3018 209.201H50.2627L50.2627 210.338Z" fill="#626469"/>
<path d="M56.9072 206.746C56.9072 207.973 56.6787 208.897 56.2197 209.52C55.7607 210.144 55.0615 210.455 54.124 210.455C53.2021 210.455 52.5088 210.151 52.042 209.544C51.5752 208.937 51.335 208.037 51.3232 206.846V205.369C51.3232 204.143 51.5537 203.223 52.0127 202.609C52.4717 201.996 53.1709 201.689 54.1123 201.689C55.0459 201.689 55.7432 201.988 56.2021 202.586C56.6611 203.184 56.8955 204.078 56.9072 205.27V206.746ZM55.4834 205.152C55.4834 204.352 55.374 203.765 55.1553 203.392C54.9365 203.019 54.5889 202.832 54.1123 202.832C53.6475 202.832 53.3057 203.009 53.0869 203.362C52.8682 203.716 52.7529 204.268 52.7412 205.018V206.951C52.7412 207.748 52.8525 208.342 53.0752 208.732C53.2978 209.123 53.6475 209.318 54.124 209.318C54.5811 209.318 54.9189 209.138 55.1377 208.776C55.3564 208.415 55.4717 207.85 55.4834 207.08V205.152Z" fill="#626469"/>
<path d="M56.21 269C56.21 270.227 55.9805 271.151 55.5215 271.774C55.0625 272.397 54.3643 272.709 53.4268 272.709C52.5049 272.709 51.8105 272.405 51.3437 271.798C50.8769 271.19 50.6377 270.291 50.626 269.1V267.623C50.626 266.396 50.8555 265.477 51.3145 264.863C51.7734 264.25 52.4736 263.943 53.415 263.943C54.3486 263.943 55.0449 264.242 55.5039 264.84C55.9629 265.437 56.1983 266.332 56.21 267.523V269ZM54.7861 267.406C54.7861 266.605 54.6768 266.019 54.458 265.646C54.2393 265.272 53.8916 265.086 53.415 265.086C52.9502 265.086 52.6084 265.263 52.3897 265.616C52.1709 265.97 52.0557 266.521 52.044 267.271V269.205C52.044 270.002 52.1553 270.596 52.3779 270.986C52.6006 271.377 52.9502 271.572 53.4268 271.572C53.8838 271.572 54.2217 271.392 54.4404 271.03C54.6592 270.669 54.7744 270.104 54.7861 269.334V267.406Z" fill="#626469"/>
<path d="M108.622 270.145L108.622 279.881" stroke="#626469" stroke-miterlimit="10"/>
<path d="M169.695 270.092L169.695 279.828" stroke="#626469" stroke-miterlimit="10"/>
<path d="M230.79 270.163L230.79 279.899" stroke="#626469" stroke-miterlimit="10"/>
<path d="M291.841 270.195L291.841 279.932" stroke="#626469" stroke-miterlimit="10"/>
<path d="M65.2129 23.3096H74.5128" stroke="#626469" stroke-miterlimit="10"/>
<path d="M50.3252 19.3262C50.3252 19.7441 50.2178 20.1162 50.0029 20.4424C49.7881 20.7686 49.4951 21.0254 49.124 21.2129C49.5693 21.4199 49.9121 21.7031 50.1523 22.0625C50.3926 22.4219 50.5127 22.8281 50.5127 23.2813C50.5127 24.0313 50.2588 24.626 49.751 25.0654C49.2432 25.5049 48.5674 25.7246 47.7236 25.7246C46.876 25.7246 46.1973 25.5039 45.6875 25.0625C45.1777 24.6211 44.9229 24.0273 44.9229 23.2813C44.9229 22.8242 45.0439 22.4141 45.2861 22.0508C45.5283 21.6875 45.8682 21.4082 46.3057 21.2129C45.9385 21.0254 45.6484 20.7686 45.4355 20.4424C45.2227 20.1162 45.1162 19.7441 45.1162 19.3262C45.1162 18.5996 45.3506 18.0234 45.8193 17.5977C46.2881 17.1719 46.9209 16.959 47.7178 16.959C48.5185 16.959 49.1533 17.1719 49.6221 17.5977C50.0908 18.0234 50.3252 18.5996 50.3252 19.3262ZM49.0889 23.2109C49.0889 22.7891 48.9629 22.4482 48.7109 22.1885C48.459 21.9287 48.126 21.7988 47.7119 21.7988C47.2979 21.7988 46.9668 21.9277 46.7188 22.1856C46.4707 22.4434 46.3467 22.7852 46.3467 23.2109C46.3467 23.6289 46.4688 23.9629 46.7129 24.2129C46.957 24.4629 47.294 24.5879 47.7236 24.5879C48.1533 24.5879 48.4883 24.4668 48.7285 24.2246C48.9688 23.9824 49.0889 23.6445 49.0889 23.2109ZM48.9072 19.3789C48.9072 19.0078 48.7998 18.7022 48.585 18.4619C48.3701 18.2217 48.0811 18.1016 47.7178 18.1016C47.3545 18.1016 47.0674 18.2158 46.8564 18.4443C46.6455 18.6729 46.54 18.9844 46.54 19.3789C46.54 19.7695 46.6465 20.0801 46.8594 20.3106C47.0723 20.541 47.3604 20.6563 47.7236 20.6563C48.0869 20.6563 48.375 20.541 48.5879 20.3106C48.8008 20.0801 48.9072 19.7695 48.9072 19.3789Z" fill="#626469"/>
<path d="M57.333 22.0156C57.333 23.2422 57.1035 24.167 56.6445 24.79C56.1855 25.4131 55.4873 25.7246 54.5498 25.7246C53.6279 25.7246 52.9336 25.4209 52.4668 24.8135C52 24.2061 51.7607 23.3066 51.749 22.1152V20.6387C51.749 19.4121 51.9785 18.4922 52.4375 17.8789C52.8965 17.2656 53.5967 16.959 54.5381 16.959C55.4717 16.959 56.168 17.2578 56.627 17.8555C57.086 18.4531 57.3213 19.3477 57.333 20.5391V22.0156ZM55.9092 20.4219C55.9092 19.6211 55.7998 19.0342 55.5811 18.6611C55.3623 18.2881 55.0147 18.1016 54.5381 18.1016C54.0733 18.1016 53.7315 18.2783 53.5127 18.6318C53.294 18.9853 53.1787 19.5371 53.167 20.2871V22.2207C53.167 23.0176 53.2783 23.6113 53.501 24.0019C53.7236 24.3926 54.0733 24.5879 54.5498 24.5879C55.0068 24.5879 55.3447 24.4072 55.5635 24.0459C55.7822 23.6846 55.8975 23.1191 55.9092 22.3496V20.4219Z" fill="#626469"/>
<path d="M5.91895 215.332V218.381H14.2119V220.432H5.91895V223.439H4.25879V215.332H5.91895Z" fill="#3D5F66"/>
<path d="M4.90137 214.307C4.60449 214.307 4.36035 214.208 4.16895 214.009C3.97754 213.812 3.88184 213.541 3.88184 213.199C3.88184 212.862 3.97754 212.593 4.16895 212.393C4.36036 212.192 4.6045 212.092 4.90137 212.092C5.20215 212.092 5.44825 212.193 5.63965 212.396C5.83106 212.599 5.92676 212.866 5.92676 213.199C5.92676 213.532 5.83106 213.8 5.63965 214.003C5.44824 214.205 5.20215 214.307 4.90137 214.307ZM14.2119 212.208V214.19H6.81544V212.208H14.2119Z" fill="#3D5F66"/>
<path d="M6.81543 208.729L7.6416 208.667C6.99902 208.143 6.67871 207.435 6.67871 206.541C6.67871 205.589 7.05371 204.935 7.80566 204.579C7.05371 204.06 6.67871 203.319 6.67871 202.357C6.67871 201.556 6.91113 200.958 7.37891 200.566C7.84669 200.175 8.54883 199.979 9.48731 199.979H14.2119V201.961H9.49512C9.0752 201.961 8.76856 202.043 8.5752 202.207C8.38184 202.371 8.28418 202.66 8.28418 203.075C8.28418 203.668 8.56738 204.078 9.13184 204.306L14.2119 204.299V206.274H9.50098C9.07325 206.274 8.7627 206.358 8.57129 206.527C8.37988 206.696 8.28418 206.983 8.28418 207.389C8.28418 207.949 8.5166 208.354 8.98145 208.605H14.2119V210.581H6.81544L6.81543 208.729Z" fill="#3D5F66"/>
<path d="M14.3487 195.056C14.3487 196.141 14.0156 197.023 13.3506 197.705C12.6846 198.386 11.7979 198.727 10.6904 198.727H10.499C9.75684 198.727 9.09278 198.583 8.50684 198.296C7.9209 198.009 7.46973 197.602 7.15332 197.076C6.83691 196.549 6.67871 195.949 6.67871 195.274C6.67871 194.263 6.99707 193.467 7.63574 192.885C8.27344 192.305 9.17773 192.014 10.3486 192.014H11.1553V196.724C11.6387 196.66 12.0264 196.467 12.3174 196.146C12.6094 195.824 12.7549 195.418 12.7549 194.926C12.7549 194.165 12.4795 193.57 11.9287 193.142L13.0147 192.171C13.4346 192.467 13.7607 192.868 13.9961 193.374C14.2315 193.88 14.3487 194.44 14.3487 195.056ZM8.27053 195.281C8.27053 195.673 8.40334 195.991 8.66897 196.234C8.93459 196.479 9.31545 196.635 9.80959 196.703V193.955H9.65139C9.21194 193.964 8.87209 194.083 8.63186 194.311C8.39163 194.538 8.27053 194.862 8.27053 195.281Z" fill="#3D5F66"/>
<path d="M10.165 190.804C9.12109 190.804 8.12793 190.665 7.18457 190.387C6.24121 190.108 5.40527 189.698 4.67871 189.156C3.95215 188.614 3.44726 188.026 3.16504 187.393L4.23145 187.01C4.72364 187.675 5.48438 188.194 6.51465 188.568C7.54395 188.942 8.74707 189.129 10.124 189.129H10.335C11.7158 189.129 12.9238 188.944 13.958 188.575C14.9932 188.206 15.7656 187.685 16.2764 187.01L17.3213 187.393C17.044 188.013 16.5527 188.59 15.8486 189.126C15.1445 189.661 14.332 190.07 13.4111 190.353C12.4912 190.635 11.5293 190.785 10.5264 190.804H10.165Z" fill="#3D5F66"/>
<path d="M12.167 181.972C11.9258 181.972 11.7354 182.092 11.5967 182.33C11.458 182.57 11.333 182.954 11.2236 183.482C10.8545 185.241 10.1074 186.121 8.98144 186.121C8.32519 186.121 7.77832 185.849 7.33789 185.305C6.89746 184.76 6.67871 184.048 6.67871 183.168C6.67871 182.229 6.89941 181.479 7.34082 180.916C7.7832 180.353 8.35742 180.071 9.06348 180.071V182.047C8.78125 182.047 8.54786 182.138 8.36328 182.32C8.1787 182.503 8.08691 182.787 8.08691 183.175C8.08691 183.508 8.16113 183.765 8.31152 183.947C8.46191 184.13 8.65332 184.221 8.88574 184.221C9.10449 184.221 9.28222 184.117 9.41601 183.91C9.5498 183.702 9.66699 183.353 9.76464 182.86C9.86229 182.368 9.97362 181.953 10.0967 181.616C10.4795 180.572 11.1416 180.051 12.085 180.051C12.7598 180.051 13.3057 180.34 13.7227 180.919C14.1397 181.498 14.3486 182.245 14.3486 183.161C14.3486 183.781 14.2373 184.331 14.0166 184.812C13.7959 185.293 13.4932 185.67 13.1074 185.943C12.7217 186.217 12.3066 186.354 11.8604 186.354V184.48C12.2109 184.462 12.4795 184.332 12.667 184.091C12.8535 183.85 12.9463 183.525 12.9463 183.12C12.9463 182.742 12.875 182.456 12.7315 182.262C12.5879 182.068 12.3994 181.972 12.167 181.972Z" fill="#3D5F66"/>
<path d="M10.3213 175.375C11.3516 175.375 12.3428 175.523 13.2959 175.819C14.248 176.115 15.0889 176.542 15.8174 177.098C16.5469 177.653 17.0479 178.248 17.3213 178.882L16.2764 179.265C15.7881 178.617 15.0361 178.107 14.0205 177.733C13.0039 177.359 11.835 177.166 10.5127 177.152H10.1514C8.78809 177.152 7.58692 177.338 6.54785 177.71C5.50879 178.081 4.72949 178.6 4.20996 179.265L3.16504 178.882C3.43359 178.262 3.9209 177.678 4.62793 177.128C5.33398 176.579 6.15625 176.153 7.09473 175.851C8.03418 175.547 9.00684 175.389 10.0146 175.375L10.3213 175.375Z" fill="#3D5F66"/>
<path d="M10.165 170.269C9.12109 170.269 8.12793 170.13 7.18457 169.852C6.24121 169.573 5.40527 169.163 4.67871 168.621C3.95215 168.079 3.44726 167.491 3.16504 166.857L4.23145 166.475C4.72364 167.14 5.48438 167.659 6.51465 168.033C7.54395 168.407 8.74707 168.594 10.124 168.594H10.335C11.7158 168.594 12.9238 168.409 13.958 168.04C14.9932 167.671 15.7656 167.149 16.2764 166.475L17.3213 166.857C17.044 167.478 16.5527 168.055 15.8486 168.591C15.1445 169.126 14.332 169.535 13.4111 169.817C12.4912 170.1 11.5293 170.25 10.5264 170.269H10.165Z" fill="#3D5F66"/>
<path d="M6.81543 163.59L7.6416 163.528C6.99902 163.004 6.67871 162.296 6.67871 161.402C6.67871 160.45 7.05371 159.796 7.80566 159.44C7.05371 158.921 6.67871 158.181 6.67871 157.219C6.67871 156.417 6.91113 155.819 7.37891 155.428C7.84669 155.036 8.54883 154.84 9.48731 154.84H14.2119V156.822H9.49512C9.0752 156.822 8.76856 156.904 8.5752 157.068C8.38184 157.232 8.28418 157.521 8.28418 157.937C8.28418 158.529 8.56738 158.939 9.13184 159.167L14.2119 159.16V161.136H9.50098C9.07325 161.136 8.7627 161.22 8.57129 161.389C8.37988 161.558 8.28418 161.845 8.28418 162.25C8.28418 162.811 8.5166 163.216 8.98145 163.467H14.2119V165.442H6.81544L6.81543 163.59Z" fill="#3D5F66"/>
<path d="M14.3487 149.919C14.3487 151.004 14.0156 151.887 13.3506 152.568C12.6846 153.249 11.7979 153.59 10.6904 153.59H10.499C9.75684 153.59 9.09278 153.446 8.50684 153.159C7.9209 152.872 7.46973 152.465 7.15332 151.939C6.83691 151.412 6.67871 150.813 6.67871 150.138C6.67871 149.126 6.99707 148.33 7.63574 147.748C8.27344 147.168 9.17773 146.877 10.3486 146.877H11.1553V151.587C11.6387 151.523 12.0264 151.33 12.3174 151.01C12.6094 150.687 12.7549 150.281 12.7549 149.789C12.7549 149.028 12.4795 148.434 11.9287 148.005L13.0147 147.034C13.4346 147.33 13.7607 147.731 13.9961 148.237C14.2315 148.743 14.3487 149.304 14.3487 149.919ZM8.27053 150.145C8.27053 150.536 8.40334 150.854 8.66897 151.098C8.93459 151.342 9.31545 151.498 9.80959 151.566V148.818H9.65139C9.21194 148.827 8.87209 148.946 8.63186 149.174C8.39163 149.401 8.27053 149.726 8.27053 150.145Z" fill="#3D5F66"/>
<path d="M10.458 146.063C9.30567 146.063 8.3877 145.805 7.7041 145.288C7.02051 144.771 6.67871 144.062 6.67871 143.165C6.67871 142.445 6.94726 141.851 7.48535 141.381H3.71191V139.398H14.2119V141.183L13.4248 141.278C14.04 141.771 14.3486 142.404 14.3486 143.179C14.3486 144.049 14.0049 144.747 13.3193 145.274C12.6338 145.8 11.6797 146.063 10.458 146.063ZM10.6055 144.088C11.2998 144.088 11.8311 143.967 12.2002 143.726C12.5713 143.484 12.7549 143.133 12.7549 142.673C12.7549 142.063 12.4971 141.632 11.9815 141.381H9.05762C8.542 141.627 8.28418 142.053 8.28418 142.659C8.28418 143.611 9.05762 144.088 10.6055 144.088Z" fill="#3D5F66"/>
<path d="M4.90137 137.881C4.60449 137.881 4.36035 137.782 4.16895 137.583C3.97754 137.386 3.88184 137.115 3.88184 136.773C3.88184 136.437 3.97754 136.167 4.16895 135.967C4.36036 135.767 4.6045 135.666 4.90137 135.666C5.20215 135.666 5.44825 135.768 5.63965 135.97C5.83106 136.173 5.92676 136.44 5.92676 136.773C5.92676 137.106 5.83106 137.374 5.63965 137.577C5.44824 137.779 5.20215 137.881 4.90137 137.881ZM14.2119 135.782V137.765H6.81544V135.782H14.2119Z" fill="#3D5F66"/>
<path d="M14.2119 129.869C14.0342 129.96 13.8125 130.026 13.5479 130.067C14.0811 130.546 14.3486 131.168 14.3486 131.934C14.3486 132.658 14.1387 133.259 13.7197 133.734C13.2998 134.211 12.7715 134.449 12.1338 134.449C11.3496 134.449 10.7481 134.158 10.3291 133.578C9.90918 132.996 9.69726 132.157 9.69238 131.059V130.149H9.26855C8.92675 130.149 8.65332 130.237 8.44824 130.413C8.24316 130.588 8.1416 130.865 8.1416 131.243C8.1416 131.576 8.2207 131.837 8.37988 132.025C8.54004 132.215 8.75879 132.31 9.03613 132.31V134.285C8.6084 134.285 8.21191 134.153 7.84668 133.889C7.48242 133.624 7.19629 133.251 6.98926 132.768C6.78223 132.284 6.67871 131.742 6.67871 131.141C6.67871 130.229 6.90723 129.506 7.36523 128.97C7.82323 128.435 8.46679 128.167 9.29589 128.167H12.5029C13.2041 128.163 13.7353 128.064 14.0947 127.873H14.2119L14.2119 129.869ZM12.8369 131.503C12.8369 131.211 12.7725 130.942 12.6426 130.696C12.5127 130.45 12.3389 130.268 12.1201 130.149H10.8486V130.888C10.8486 131.876 11.1904 132.403 11.874 132.467L11.9893 132.474C12.2354 132.474 12.4385 132.387 12.5986 132.214C12.7578 132.041 12.8369 131.804 12.8369 131.503Z" fill="#3D5F66"/>
<path d="M6.81542 124.831L7.66894 124.77C7.00878 124.241 6.67871 123.532 6.67871 122.644C6.67871 121.86 6.9082 121.276 7.36816 120.894C7.8291 120.511 8.5166 120.315 9.43261 120.306H14.2119V122.281H9.48144C9.06152 122.281 8.75683 122.373 8.56835 122.555C8.37987 122.737 8.28417 123.04 8.28417 123.464C8.28417 124.02 8.52147 124.437 8.99511 124.715H14.2119V126.69H6.81543L6.81542 124.831Z" fill="#3D5F66"/>
<path d="M10.3213 115.404C11.3516 115.404 12.3428 115.552 13.2959 115.849C14.248 116.145 15.0889 116.571 15.8174 117.127C16.5469 117.683 17.0479 118.278 17.3213 118.911L16.2764 119.294C15.7881 118.647 15.0361 118.136 14.0205 117.763C13.0039 117.389 11.835 117.195 10.5127 117.182H10.1514C8.78809 117.182 7.58692 117.367 6.54785 117.739C5.50878 118.11 4.72949 118.628 4.20996 119.294L3.16504 118.911C3.43359 118.292 3.9209 117.707 4.62793 117.158C5.33398 116.608 6.15625 116.183 7.09473 115.879C8.03418 115.576 9.00684 115.418 10.0146 115.404L10.3213 115.404Z" fill="#3D5F66"/>
<path d="M10.165 110.298C9.12109 110.298 8.12793 110.159 7.18457 109.881C6.24121 109.603 5.40527 109.193 4.67871 108.65C3.95215 108.108 3.44726 107.52 3.16504 106.887L4.23145 106.504C4.72364 107.169 5.48438 107.689 6.51465 108.062C7.54395 108.436 8.74707 108.623 10.124 108.623H10.335C11.7158 108.623 12.9238 108.438 13.958 108.069C14.9932 107.7 15.7656 107.178 16.2764 106.504L17.3213 106.887C17.044 107.506 16.5527 108.084 15.8486 108.62C15.1445 109.155 14.332 109.564 13.4111 109.847C12.4912 110.129 11.5293 110.28 10.5264 110.298H10.165Z" fill="#3D5F66"/>
<path d="M9.45995 97.1787C10.3896 97.1787 11.1982 97.3291 11.8838 97.6299C12.5693 97.9307 13.1201 98.3477 13.5342 98.8809L14.833 97.2266L15.9893 98.5322L14.2861 100.651C14.3272 100.893 14.3486 101.144 14.3486 101.403C14.3486 102.228 14.1494 102.964 13.7529 103.611C13.3565 104.258 12.79 104.76 12.0547 105.115C11.3193 105.471 10.4717 105.651 9.51465 105.655H9.02246C8.04297 105.655 7.18066 105.479 6.43555 105.126C5.69044 104.772 5.11817 104.273 4.71973 103.628C4.32129 102.983 4.12207 102.247 4.12207 101.417C4.12207 100.587 4.32129 99.8506 4.71973 99.2056C5.11817 98.5606 5.69043 98.0615 6.43555 97.7085C7.18067 97.3555 8.04102 97.1787 9.0166 97.1787L9.45995 97.1787ZM9.00878 99.2569C7.96581 99.2569 7.17284 99.4439 6.62987 99.8174C6.08788 100.191 5.81737 100.724 5.81737 101.417C5.81737 102.105 6.08495 102.636 6.6201 103.01C7.15525 103.383 7.94041 103.573 8.97557 103.577H9.45995C10.4766 103.577 11.2646 103.39 11.8252 103.017C12.3857 102.643 12.667 102.105 12.667 101.403C12.667 100.715 12.3965 100.187 11.8564 99.8174C11.3164 99.4483 10.5293 99.2612 9.4951 99.2568L9.00878 99.2569Z" fill="#3D5F66"/>
<path d="M14.2119 91.0879V93.0635H6.59668L7.32715 95.4219H5.72168L4.24512 91.2998V91.0879L14.2119 91.0879Z" fill="#3D5F66"/>
<path d="M16.7061 87.2598L16.167 88.292L15.7217 88.0459C15.166 87.7407 14.6123 87.5835 14.0615 87.5742H12.5303V85.9062L13.8975 85.9131C14.4033 85.9175 14.9131 86.0454 15.4287 86.2959C15.9434 86.5464 16.3691 86.8677 16.7061 87.2598Z" fill="#3D5F66"/>
<path d="M9.45995 72.5762C10.3896 72.5762 11.1982 72.7266 11.8838 73.0274C12.5693 73.3281 13.1201 73.7451 13.5342 74.2783L14.833 72.624L15.9893 73.9297L14.2861 76.0488C14.3272 76.2905 14.3486 76.541 14.3486 76.8008C14.3486 77.6255 14.1494 78.3618 13.7529 79.0088C13.3565 79.6558 12.79 80.1572 12.0547 80.5127C11.3193 80.8682 10.4717 81.0484 9.51465 81.0528H9.02246C8.04297 81.0528 7.18066 80.876 6.43555 80.523C5.69044 80.1699 5.11817 79.6709 4.71973 79.0259C4.32129 78.3809 4.12207 77.6441 4.12207 76.8145C4.12207 75.9849 4.32129 75.2481 4.71973 74.603C5.11817 73.958 5.69043 73.459 6.43555 73.106C7.18067 72.7529 8.04102 72.5762 9.0166 72.5762L9.45995 72.5762ZM9.00878 74.6543C7.96581 74.6543 7.17284 74.8413 6.62987 75.2149C6.08788 75.5884 5.81737 76.1216 5.81737 76.8145C5.81737 77.5025 6.08495 78.0337 6.6201 78.4072C7.15525 78.7808 7.94041 78.9702 8.97557 78.9746H9.45995C10.4766 78.9746 11.2646 78.7876 11.8252 78.4141C12.3857 78.0405 12.667 77.5025 12.667 76.8008C12.667 76.1128 12.3965 75.584 11.8564 75.2149C11.3164 74.8457 10.5293 74.6587 9.4951 74.6543L9.00878 74.6543Z" fill="#3D5F66"/>
<path d="M8.36036 69.2754V68.2226C8.36036 67.7212 8.23438 67.3501 7.98341 67.1084C7.73341 66.8667 7.4004 66.7461 6.98536 66.7461C6.58497 66.7461 6.27247 66.8657 6.04981 67.105C5.82618 67.3442 5.71387 67.6733 5.71387 68.0928C5.71387 68.4712 5.81739 68.7876 6.02539 69.043C6.23339 69.2983 6.50293 69.4258 6.83496 69.4258V71.4014C6.31543 71.4014 5.85058 71.2612 5.4375 70.9809C5.02442 70.7007 4.70215 70.3086 4.46973 69.8052C4.23731 69.3018 4.12207 68.7466 4.12207 68.1406C4.12207 67.0879 4.37402 66.2632 4.87695 65.666C5.37988 65.0688 6.07422 64.7705 6.958 64.7705C7.41405 64.7705 7.833 64.9097 8.21581 65.1875C8.59862 65.4653 8.89354 65.8301 9.09862 66.2812C9.29882 65.7207 9.5996 65.3027 10.001 65.0269C10.4014 64.751 10.876 64.6133 11.4228 64.6133C12.3066 64.6133 13.0146 64.9356 13.5478 65.5806C14.081 66.2256 14.3486 67.0786 14.3486 68.1406C14.3486 69.1343 14.0859 69.9463 13.5615 70.5776C13.0381 71.209 12.3447 71.5244 11.4834 71.5244V69.5488C11.8574 69.5488 12.1631 69.4087 12.3994 69.1284C12.6367 68.8482 12.7549 68.5029 12.7549 68.0928C12.7549 67.6235 12.6318 67.2554 12.3828 66.9888C12.1338 66.7222 11.8057 66.5889 11.3955 66.5889C10.4014 66.5889 9.90528 67.1358 9.90528 68.2295V69.2754L8.36036 69.2754Z" fill="#3D5F66"/>
<path d="M10.3213 59.7656C11.3516 59.7656 12.3428 59.9136 13.2959 60.21C14.248 60.5064 15.0889 60.9321 15.8174 61.4883C16.5469 62.0444 17.0479 62.6392 17.3213 63.2725L16.2764 63.6553C15.7881 63.0083 15.0361 62.4976 14.0205 62.124C13.0039 61.7505 11.835 61.5566 10.5127 61.543H10.1514C8.78809 61.543 7.58692 61.7285 6.54785 62.1001C5.50878 62.4717 4.72949 62.9898 4.20996 63.6553L3.16504 63.2725C3.43359 62.6528 3.9209 62.0684 4.62793 61.5191C5.33398 60.9697 6.15625 60.544 7.09473 60.2407C8.03418 59.9375 9.00684 59.7793 10.0146 59.7656L10.3213 59.7656Z" fill="#3D5F66"/>
<path d="M86.5205 296.664V288.133H89.4443C90.4092 288.133 91.1436 288.326 91.6475 288.713C92.1514 289.1 92.4033 289.676 92.4033 290.441C92.4033 290.832 92.2978 291.184 92.0869 291.496C91.876 291.809 91.5674 292.051 91.1611 292.223C91.6221 292.348 91.9785 292.583 92.2305 292.929C92.4824 293.274 92.6084 293.689 92.6084 294.174C92.6084 294.975 92.3516 295.59 91.8379 296.02C91.3242 296.449 90.5889 296.664 89.6318 296.664H86.5205ZM88.0029 291.725H89.456C89.917 291.725 90.2773 291.62 90.5371 291.411C90.7969 291.202 90.9267 290.906 90.9267 290.523C90.9267 290.102 90.8066 289.797 90.5664 289.609C90.3262 289.422 89.9521 289.328 89.4443 289.328H88.0029L88.0029 291.725ZM88.0029 292.814V295.48H89.6494C90.1142 295.48 90.4775 295.365 90.7392 295.135C91.001 294.904 91.1318 294.584 91.1318 294.174C91.1318 293.287 90.6787 292.834 89.7724 292.814H88.0029Z" fill="#626469"/>
<path d="M97.7412 296.664C97.6787 296.543 97.624 296.346 97.5771 296.072C97.124 296.545 96.5693 296.781 95.9131 296.781C95.2764 296.781 94.7568 296.6 94.3545 296.236C93.9522 295.873 93.751 295.424 93.751 294.889C93.751 294.213 94.002 293.694 94.5039 293.333C95.0059 292.972 95.7236 292.791 96.6572 292.791H97.5303V292.375C97.5303 292.047 97.4385 291.784 97.2549 291.587C97.0713 291.39 96.792 291.291 96.417 291.291C96.0928 291.291 95.8272 291.372 95.6201 291.534C95.4131 291.696 95.3096 291.902 95.3096 292.152H93.8857C93.8857 291.805 94.001 291.479 94.2314 291.177C94.4619 290.874 94.7754 290.637 95.1719 290.465C95.5683 290.293 96.0107 290.207 96.499 290.207C97.2412 290.207 97.833 290.394 98.2744 290.767C98.7158 291.14 98.9424 291.664 98.9541 292.34V295.199C98.9541 295.77 99.0342 296.225 99.1943 296.564V296.664L97.7412 296.664ZM96.1768 295.639C96.458 295.639 96.7227 295.57 96.9707 295.434C97.2188 295.297 97.4053 295.113 97.5303 294.883V293.688H96.7627C96.2354 293.688 95.8389 293.779 95.5732 293.963C95.3076 294.147 95.1748 294.406 95.1748 294.742C95.1748 295.016 95.2656 295.233 95.4473 295.396C95.6289 295.558 95.8721 295.639 96.1768 295.639Z" fill="#626469"/>
<path d="M103.999 294.941C103.999 294.687 103.895 294.494 103.686 294.361C103.477 294.229 103.13 294.111 102.646 294.01C102.161 293.908 101.757 293.779 101.433 293.623C100.722 293.279 100.366 292.781 100.366 292.129C100.366 291.582 100.597 291.125 101.058 290.758C101.519 290.391 102.104 290.207 102.815 290.207C103.573 290.207 104.186 290.395 104.652 290.77C105.119 291.145 105.353 291.631 105.353 292.229H103.929C103.929 291.955 103.827 291.728 103.624 291.546C103.421 291.364 103.151 291.273 102.815 291.273C102.503 291.273 102.248 291.346 102.051 291.49C101.854 291.635 101.755 291.828 101.755 292.07C101.755 292.289 101.847 292.459 102.03 292.58C102.214 292.701 102.585 292.823 103.144 292.946C103.702 293.069 104.141 293.216 104.459 293.386C104.777 293.556 105.014 293.76 105.168 293.998C105.322 294.236 105.399 294.525 105.399 294.865C105.399 295.436 105.163 295.897 104.69 296.251C104.218 296.604 103.599 296.781 102.833 296.781C102.313 296.781 101.851 296.688 101.444 296.5C101.038 296.312 100.722 296.055 100.495 295.727C100.269 295.398 100.155 295.045 100.155 294.666H101.538C101.558 295.002 101.685 295.261 101.919 295.442C102.153 295.624 102.464 295.715 102.851 295.715C103.226 295.715 103.511 295.644 103.706 295.501C103.901 295.358 103.999 295.172 103.999 294.941Z" fill="#626469"/>
<path d="M109.431 296.781C108.528 296.781 107.797 296.497 107.236 295.929C106.676 295.36 106.396 294.604 106.396 293.658V293.482C106.396 292.85 106.518 292.284 106.762 291.786C107.006 291.288 107.349 290.9 107.79 290.623C108.231 290.346 108.724 290.207 109.267 290.207C110.13 290.207 110.797 290.482 111.268 291.033C111.738 291.584 111.974 292.363 111.974 293.371V293.945H107.831C107.874 294.469 108.049 294.883 108.355 295.188C108.662 295.492 109.048 295.645 109.513 295.645C110.165 295.645 110.696 295.381 111.106 294.854L111.874 295.586C111.62 295.965 111.281 296.259 110.857 296.468C110.434 296.677 109.958 296.781 109.431 296.781ZM109.261 291.35C108.87 291.35 108.555 291.486 108.314 291.76C108.074 292.033 107.921 292.414 107.854 292.902H110.567V292.797C110.536 292.32 110.409 291.96 110.187 291.716C109.964 291.472 109.655 291.35 109.261 291.35Z" fill="#626469"/>
<path d="M114.593 296.664H113.169V287.664H114.593V296.664Z" fill="#626469"/>
<path d="M116.146 288.678C116.146 288.459 116.215 288.277 116.354 288.133C116.492 287.988 116.69 287.916 116.948 287.916C117.206 287.916 117.405 287.988 117.546 288.133C117.687 288.277 117.757 288.459 117.757 288.678C117.757 288.893 117.687 289.071 117.546 289.214C117.405 289.356 117.206 289.428 116.948 289.428C116.69 289.428 116.492 289.356 116.354 289.214C116.215 289.071 116.146 288.893 116.146 288.678ZM117.657 296.664H116.233V290.324H117.657V296.664Z" fill="#626469"/>
<path d="M120.528 290.324L120.569 291.057C121.038 290.49 121.653 290.207 122.415 290.207C123.735 290.207 124.407 290.963 124.431 292.475V296.664H123.007V292.557C123.007 292.154 122.92 291.856 122.746 291.663C122.572 291.47 122.288 291.373 121.894 291.373C121.319 291.373 120.892 291.633 120.61 292.152V296.664H119.187V290.324H120.528Z" fill="#626469"/>
<path d="M128.673 296.781C127.771 296.781 127.039 296.497 126.479 295.929C125.918 295.36 125.638 294.604 125.638 293.658V293.482C125.638 292.85 125.76 292.284 126.004 291.786C126.248 291.288 126.591 290.9 127.032 290.623C127.474 290.346 127.966 290.207 128.509 290.207C129.372 290.207 130.039 290.482 130.51 291.033C130.98 291.584 131.216 292.363 131.216 293.371V293.945H127.073C127.116 294.469 127.291 294.883 127.598 295.188C127.904 295.492 128.29 295.645 128.755 295.645C129.407 295.645 129.938 295.381 130.349 294.854L131.116 295.586C130.862 295.965 130.523 296.259 130.1 296.468C129.676 296.677 129.2 296.781 128.673 296.781ZM128.503 291.35C128.112 291.35 127.797 291.486 127.557 291.76C127.316 292.033 127.163 292.414 127.097 292.902H129.81V292.797C129.778 292.32 129.651 291.96 129.429 291.716C129.206 291.472 128.897 291.35 128.503 291.35Z" fill="#626469"/>
<path d="M97.126 304.725L97.1611 305.521C97.6455 304.912 98.2783 304.607 99.0596 304.607C100.399 304.607 101.075 305.363 101.087 306.875V311.064H100.003V306.869C99.999 306.412 99.8945 306.074 99.6894 305.855C99.4844 305.637 99.165 305.527 98.7314 305.527C98.3799 305.527 98.0713 305.621 97.8057 305.809C97.54 305.996 97.333 306.242 97.1846 306.547V311.064H96.1006V304.725L97.126 304.725Z" fill="#626469"/>
<path d="M107.679 306.295H102.792V305.352H107.679V306.295ZM107.679 308.727H102.792V307.789H107.679V308.727Z" fill="#626469"/>
<path d="M112.759 311.064H111.669V303.84L109.483 304.643V303.658L112.589 302.492H112.759V311.064Z" fill="#626469"/>
<path d="M121.284 307.426C121.284 308.695 121.067 309.639 120.634 310.256C120.2 310.873 119.522 311.182 118.601 311.182C117.69 311.182 117.017 310.88 116.579 310.276C116.142 309.673 115.915 308.771 115.899 307.572V306.125C115.899 304.871 116.116 303.939 116.55 303.33C116.983 302.721 117.663 302.416 118.589 302.416C119.507 302.416 120.183 302.71 120.616 303.298C121.05 303.886 121.272 304.793 121.284 306.02V307.426ZM120.2 305.943C120.2 305.025 120.071 304.356 119.813 303.937C119.556 303.517 119.147 303.307 118.589 303.307C118.034 303.307 117.63 303.516 117.376 303.934C117.122 304.352 116.991 304.994 116.983 305.861V307.596C116.983 308.518 117.117 309.198 117.385 309.638C117.652 310.077 118.058 310.297 118.601 310.297C119.136 310.297 119.533 310.09 119.793 309.676C120.053 309.262 120.188 308.609 120.2 307.719V305.943Z" fill="#626469"/>
<path d="M149.463 288.092V289.27H149.287C148.49 289.281 147.854 289.5 147.377 289.926C146.9 290.352 146.617 290.955 146.527 291.736C146.984 291.256 147.568 291.016 148.279 291.016C149.033 291.016 149.628 291.281 150.063 291.812C150.499 292.344 150.717 293.029 150.717 293.869C150.717 294.736 150.462 295.439 149.952 295.976C149.442 296.513 148.773 296.781 147.945 296.781C147.094 296.781 146.403 296.467 145.874 295.838C145.345 295.209 145.08 294.385 145.08 293.365V292.879C145.08 291.383 145.444 290.211 146.173 289.363C146.901 288.516 147.949 288.092 149.316 288.092H149.463ZM147.934 292.164C147.621 292.164 147.335 292.252 147.075 292.428C146.815 292.604 146.625 292.838 146.504 293.131V293.564C146.504 294.197 146.637 294.7 146.902 295.073C147.168 295.446 147.512 295.633 147.934 295.633C148.355 295.633 148.689 295.475 148.936 295.158C149.182 294.842 149.305 294.426 149.305 293.91C149.305 293.395 149.18 292.975 148.93 292.65C148.68 292.326 148.348 292.164 147.934 292.164Z" fill="#626469"/>
<path d="M156.271 290.324L156.313 290.986C156.758 290.467 157.367 290.207 158.141 290.207C158.988 290.207 159.568 290.531 159.881 291.18C160.342 290.531 160.99 290.207 161.826 290.207C162.525 290.207 163.046 290.4 163.388 290.787C163.73 291.174 163.904 291.744 163.912 292.498V296.664H162.488V292.539C162.488 292.137 162.4 291.842 162.225 291.654C162.049 291.467 161.758 291.373 161.352 291.373C161.027 291.373 160.763 291.46 160.558 291.634C160.353 291.808 160.209 292.035 160.127 292.316L160.133 296.664H158.709V292.492C158.689 291.746 158.309 291.373 157.566 291.373C156.996 291.373 156.592 291.605 156.354 292.07V296.664H154.93V290.324H156.271Z" fill="#626469"/>
<path d="M165.107 293.436C165.107 292.814 165.23 292.255 165.477 291.757C165.723 291.259 166.068 290.876 166.514 290.608C166.959 290.341 167.471 290.207 168.049 290.207C168.904 290.207 169.599 290.482 170.132 291.033C170.665 291.584 170.953 292.314 170.996 293.225L171.002 293.559C171.002 294.184 170.882 294.742 170.642 295.234C170.401 295.727 170.058 296.107 169.61 296.377C169.163 296.646 168.646 296.781 168.061 296.781C167.166 296.781 166.45 296.483 165.913 295.888C165.376 295.292 165.107 294.498 165.107 293.506L165.107 293.436ZM166.531 293.559C166.531 294.211 166.666 294.722 166.936 295.091C167.205 295.46 167.58 295.645 168.061 295.645C168.541 295.645 168.915 295.457 169.183 295.082C169.45 294.707 169.584 294.158 169.584 293.436C169.584 292.795 169.446 292.287 169.171 291.912C168.896 291.537 168.521 291.35 168.049 291.35C167.584 291.35 167.215 291.534 166.941 291.903C166.668 292.272 166.531 292.824 166.531 293.559Z" fill="#626469"/>
<path d="M173.527 290.324L173.568 291.057C174.037 290.49 174.652 290.207 175.414 290.207C176.734 290.207 177.406 290.963 177.43 292.475V296.664H176.006V292.557C176.006 292.154 175.919 291.856 175.745 291.663C175.571 291.47 175.287 291.373 174.893 291.373C174.318 291.373 173.891 291.633 173.609 292.152V296.664H172.186V290.324H173.527Z" fill="#626469"/>
<path d="M180.664 288.783V290.324H181.783V291.379H180.664V294.918C180.664 295.16 180.712 295.335 180.808 295.442C180.903 295.55 181.074 295.604 181.32 295.604C181.484 295.604 181.65 295.584 181.818 295.545V296.646C181.494 296.736 181.182 296.781 180.881 296.781C179.787 296.781 179.24 296.178 179.24 294.971V291.379H178.197V290.324H179.24V288.783H180.664Z" fill="#626469"/>
<path d="M184.273 291.016C184.738 290.477 185.326 290.207 186.037 290.207C187.389 290.207 188.074 290.979 188.094 292.521V296.664H186.67V292.574C186.67 292.137 186.575 291.827 186.386 291.646C186.196 291.464 185.918 291.373 185.551 291.373C184.98 291.373 184.555 291.627 184.273 292.135V296.664H182.85V287.664H184.273V291.016Z" fill="#626469"/>
<path d="M193.086 294.941C193.086 294.687 192.981 294.494 192.772 294.361C192.563 294.229 192.217 294.111 191.732 294.01C191.248 293.908 190.844 293.779 190.52 293.623C189.809 293.279 189.453 292.781 189.453 292.129C189.453 291.582 189.684 291.125 190.145 290.758C190.605 290.391 191.191 290.207 191.902 290.207C192.66 290.207 193.272 290.395 193.739 290.77C194.206 291.145 194.439 291.631 194.439 292.229H193.016C193.016 291.955 192.914 291.728 192.711 291.546C192.508 291.364 192.238 291.273 191.902 291.273C191.59 291.273 191.335 291.346 191.138 291.49C190.94 291.635 190.842 291.828 190.842 292.07C190.842 292.289 190.934 292.459 191.117 292.58C191.301 292.701 191.672 292.823 192.23 292.946C192.789 293.069 193.228 293.216 193.546 293.386C193.864 293.556 194.101 293.76 194.255 293.998C194.409 294.236 194.486 294.525 194.486 294.865C194.486 295.436 194.25 295.897 193.777 296.251C193.305 296.604 192.686 296.781 191.92 296.781C191.4 296.781 190.938 296.688 190.531 296.5C190.125 296.312 189.809 296.055 189.582 295.727C189.355 295.398 189.242 295.045 189.242 294.666H190.625C190.645 295.002 190.771 295.261 191.006 295.442C191.24 295.624 191.551 295.715 191.938 295.715C192.312 295.715 192.598 295.644 192.793 295.501C192.988 295.358 193.086 295.172 193.086 294.941Z" fill="#626469"/>
<path d="M158.199 304.725L158.234 305.521C158.719 304.912 159.352 304.607 160.133 304.607C161.473 304.607 162.148 305.363 162.16 306.875V311.064H161.076V306.869C161.072 306.412 160.968 306.074 160.763 305.855C160.558 305.637 160.238 305.527 159.805 305.527C159.453 305.527 159.145 305.621 158.879 305.809C158.613 305.996 158.406 306.242 158.258 306.547V311.064H157.174V304.725L158.199 304.725Z" fill="#626469"/>
<path d="M168.752 306.295H163.865V305.352H168.752V306.295ZM168.752 308.727H163.865V307.789H168.752V308.727Z" fill="#626469"/>
<path d="M173.832 311.064H172.742V303.84L170.557 304.643V303.658L173.662 302.492H173.832V311.064Z" fill="#626469"/>
<path d="M182.357 307.426C182.357 308.695 182.141 309.639 181.707 310.256C181.273 310.873 180.596 311.182 179.674 311.182C178.764 311.182 178.09 310.88 177.652 310.276C177.215 309.673 176.988 308.771 176.973 307.572V306.125C176.973 304.871 177.189 303.939 177.623 303.33C178.057 302.721 178.736 302.416 179.662 302.416C180.58 302.416 181.256 302.71 181.689 303.298C182.123 303.886 182.346 304.793 182.357 306.02V307.426ZM181.273 305.943C181.273 305.025 181.145 304.356 180.887 303.937C180.629 303.517 180.221 303.307 179.662 303.307C179.107 303.307 178.703 303.516 178.449 303.934C178.195 304.352 178.064 304.994 178.057 305.861V307.596C178.057 308.518 178.19 309.198 178.458 309.638C178.726 310.077 179.131 310.297 179.674 310.297C180.209 310.297 180.606 310.09 180.866 309.676C181.126 309.262 181.262 308.609 181.273 307.719V305.943Z" fill="#626469"/>
<path d="M206.573 296.664H205.155V289.811L203.063 290.523V289.328L206.392 288.104H206.573V296.664Z" fill="#626469"/>
<path d="M215.274 296.664H209.538V295.686L212.38 292.586C212.79 292.129 213.083 291.747 213.257 291.44C213.431 291.134 213.517 290.826 213.517 290.518C213.517 290.111 213.403 289.783 213.175 289.533C212.946 289.283 212.638 289.158 212.251 289.158C211.79 289.158 211.433 289.299 211.179 289.58C210.925 289.861 210.798 290.246 210.798 290.734H209.374C209.374 290.215 209.493 289.747 209.729 289.331C209.966 288.915 210.304 288.592 210.743 288.361C211.183 288.131 211.688 288.016 212.263 288.016C213.091 288.016 213.745 288.224 214.224 288.64C214.702 289.056 214.94 289.631 214.94 290.365C214.94 290.791 214.821 291.237 214.581 291.704C214.341 292.171 213.946 292.701 213.399 293.295L211.313 295.527H215.274V296.664Z" fill="#626469"/>
<path d="M220.775 290.324L220.816 290.986C221.262 290.467 221.871 290.207 222.645 290.207C223.492 290.207 224.072 290.531 224.385 291.18C224.846 290.531 225.494 290.207 226.33 290.207C227.029 290.207 227.551 290.4 227.893 290.787C228.234 291.174 228.408 291.744 228.416 292.498V296.664H226.992V292.539C226.992 292.137 226.904 291.842 226.729 291.654C226.553 291.467 226.262 291.373 225.855 291.373C225.531 291.373 225.268 291.46 225.063 291.634C224.857 291.808 224.713 292.035 224.631 292.316L224.637 296.664H223.213V292.492C223.193 291.746 222.813 291.373 222.07 291.373C221.5 291.373 221.096 291.605 220.857 292.07V296.664H219.434V290.324H220.775Z" fill="#626469"/>
<path d="M229.612 293.436C229.612 292.814 229.735 292.255 229.981 291.757C230.228 291.259 230.573 290.876 231.019 290.608C231.464 290.341 231.976 290.207 232.554 290.207C233.409 290.207 234.104 290.482 234.638 291.033C235.171 291.584 235.458 292.314 235.501 293.225L235.507 293.559C235.507 294.184 235.388 294.742 235.147 295.234C234.907 295.727 234.563 296.107 234.116 296.377C233.669 296.646 233.151 296.781 232.565 296.781C231.671 296.781 230.956 296.483 230.419 295.888C229.882 295.292 229.612 294.498 229.612 293.506V293.436ZM231.036 293.559C231.036 294.211 231.171 294.722 231.44 295.091C231.71 295.46 232.085 295.645 232.565 295.645C233.046 295.645 233.421 295.457 233.688 295.082C233.956 294.707 234.089 294.158 234.089 293.436C234.089 292.795 233.952 292.287 233.677 291.912C233.401 291.537 233.026 291.35 232.554 291.35C232.089 291.35 231.72 291.534 231.446 291.903C231.173 292.272 231.036 292.824 231.036 293.559Z" fill="#626469"/>
<path d="M238.031 290.324L238.072 291.057C238.541 290.49 239.156 290.207 239.918 290.207C241.238 290.207 241.91 290.963 241.934 292.475V296.664H240.51V292.557C240.51 292.154 240.424 291.856 240.25 291.663C240.076 291.47 239.791 291.373 239.396 291.373C238.822 291.373 238.395 291.633 238.113 292.152V296.664H236.689V290.324H238.031Z" fill="#626469"/>
<path d="M245.169 288.783V290.324H246.288V291.379H245.169V294.918C245.169 295.16 245.218 295.335 245.313 295.442C245.409 295.55 245.579 295.604 245.825 295.604C245.989 295.604 246.155 295.584 246.323 295.545V296.646C245.999 296.736 245.687 296.781 245.386 296.781C244.292 296.781 243.745 296.178 243.745 294.971V291.379H242.702V290.324H243.745V288.783H245.169Z" fill="#626469"/>
<path d="M248.778 291.016C249.243 290.477 249.831 290.207 250.542 290.207C251.894 290.207 252.579 290.979 252.599 292.521V296.664H251.175V292.574C251.175 292.137 251.081 291.827 250.892 291.646C250.702 291.464 250.423 291.373 250.056 291.373C249.485 291.373 249.06 291.627 248.778 292.135V296.664H247.354V287.664H248.778V291.016Z" fill="#626469"/>
<path d="M257.591 294.941C257.591 294.687 257.487 294.494 257.278 294.361C257.069 294.229 256.722 294.111 256.237 294.01C255.753 293.908 255.349 293.779 255.024 293.623C254.313 293.279 253.958 292.781 253.958 292.129C253.958 291.582 254.188 291.125 254.649 290.758C255.11 290.391 255.696 290.207 256.407 290.207C257.165 290.207 257.778 290.395 258.245 290.77C258.712 291.145 258.944 291.631 258.944 292.229H257.521C257.521 291.955 257.419 291.728 257.216 291.546C257.013 291.364 256.743 291.273 256.407 291.273C256.095 291.273 255.841 291.346 255.644 291.49C255.446 291.635 255.347 291.828 255.347 292.07C255.347 292.289 255.438 292.459 255.622 292.58C255.806 292.701 256.177 292.823 256.735 292.946C257.294 293.069 257.733 293.216 258.052 293.386C258.37 293.556 258.606 293.76 258.761 293.998C258.915 294.236 258.991 294.525 258.991 294.865C258.991 295.436 258.755 295.897 258.282 296.251C257.81 296.604 257.19 296.781 256.425 296.781C255.905 296.781 255.442 296.688 255.036 296.5C254.63 296.312 254.313 296.055 254.087 295.727C253.86 295.398 253.747 295.045 253.747 294.666H255.13C255.149 295.002 255.276 295.261 255.511 295.442C255.745 295.624 256.056 295.715 256.442 295.715C256.817 295.715 257.103 295.644 257.298 295.501C257.493 295.358 257.591 295.172 257.591 294.941Z" fill="#626469"/>
<path d="M219.294 304.725L219.329 305.521C219.813 304.912 220.446 304.607 221.228 304.607C222.567 304.607 223.243 305.363 223.255 306.875V311.064H222.171V306.869C222.167 306.412 222.063 306.074 221.858 305.855C221.653 305.637 221.333 305.527 220.899 305.527C220.548 305.527 220.239 305.621 219.974 305.809C219.708 305.996 219.501 306.242 219.353 306.547V311.064H218.269V304.725L219.294 304.725Z" fill="#626469"/>
<path d="M229.847 306.295H224.96V305.352H229.847V306.295ZM229.847 308.727H224.96V307.789H229.847V308.727Z" fill="#626469"/>
<path d="M234.927 311.064H233.837V303.84L231.651 304.643V303.658L234.757 302.492H234.927V311.064Z" fill="#626469"/>
<path d="M243.452 307.426C243.452 308.695 243.235 309.639 242.802 310.256C242.368 310.873 241.69 311.182 240.769 311.182C239.858 311.182 239.185 310.88 238.747 310.276C238.31 309.673 238.083 308.771 238.067 307.572V306.125C238.067 304.871 238.284 303.939 238.718 303.33C239.151 302.721 239.831 302.416 240.757 302.416C241.675 302.416 242.351 302.71 242.784 303.298C243.218 303.886 243.44 304.793 243.452 306.02V307.426ZM242.368 305.943C242.368 305.025 242.239 304.356 241.981 303.937C241.724 303.517 241.315 303.307 240.757 303.307C240.202 303.307 239.798 303.516 239.544 303.934C239.29 304.352 239.159 304.994 239.151 305.861V307.596C239.151 308.518 239.286 309.198 239.554 309.638C239.821 310.077 240.226 310.297 240.769 310.297C241.304 310.297 241.702 310.09 241.962 309.676C242.222 309.262 242.356 308.609 242.368 307.719L242.368 305.943Z" fill="#626469"/>
<path d="M269.196 296.664H263.46V295.686L266.302 292.586C266.712 292.129 267.004 291.747 267.178 291.44C267.352 291.134 267.438 290.826 267.438 290.518C267.438 290.111 267.324 289.783 267.096 289.533C266.867 289.283 266.56 289.158 266.173 289.158C265.712 289.158 265.354 289.299 265.101 289.58C264.847 289.861 264.72 290.246 264.72 290.734H263.296C263.296 290.215 263.414 289.747 263.65 289.331C263.887 288.915 264.225 288.592 264.664 288.361C265.104 288.131 265.61 288.016 266.185 288.016C267.013 288.016 267.666 288.224 268.145 288.64C268.623 289.056 268.862 289.631 268.862 290.365C268.862 290.791 268.742 291.237 268.502 291.704C268.262 292.171 267.868 292.701 267.321 293.295L265.235 295.527H269.196V296.664Z" fill="#626469"/>
<path d="M274.797 293.623H275.857V294.766H274.797V296.664H273.373V294.766H269.688L269.646 293.898L273.326 288.133H274.797L274.797 293.623ZM271.141 293.623H273.373V290.061L273.268 290.248L271.141 293.623Z" fill="#626469"/>
<path d="M280.617 290.324L280.658 290.986C281.104 290.467 281.713 290.207 282.486 290.207C283.334 290.207 283.914 290.531 284.227 291.18C284.688 290.531 285.336 290.207 286.172 290.207C286.871 290.207 287.393 290.4 287.734 290.787C288.076 291.174 288.25 291.744 288.258 292.498V296.664H286.834V292.539C286.834 292.137 286.746 291.842 286.57 291.654C286.395 291.467 286.104 291.373 285.697 291.373C285.373 291.373 285.109 291.46 284.904 291.634C284.699 291.808 284.555 292.035 284.473 292.316L284.479 296.664H283.055V292.492C283.035 291.746 282.654 291.373 281.912 291.373C281.342 291.373 280.937 291.605 280.699 292.07V296.664H279.275V290.324H280.617Z" fill="#626469"/>
<path d="M289.154 293.436C289.154 292.814 289.277 292.255 289.523 291.757C289.77 291.259 290.115 290.876 290.561 290.608C291.006 290.341 291.518 290.207 292.096 290.207C292.951 290.207 293.646 290.482 294.179 291.033C294.712 291.584 295 292.314 295.043 293.225L295.049 293.559C295.049 294.184 294.929 294.742 294.688 295.234C294.448 295.727 294.104 296.107 293.657 296.377C293.21 296.646 292.693 296.781 292.107 296.781C291.213 296.781 290.497 296.483 289.96 295.888C289.423 295.292 289.154 294.498 289.154 293.506V293.436ZM290.578 293.559C290.578 294.211 290.713 294.722 290.982 295.091C291.252 295.46 291.627 295.645 292.107 295.645C292.588 295.645 292.962 295.457 293.229 295.082C293.497 294.707 293.631 294.158 293.631 293.436C293.631 292.795 293.493 292.287 293.218 291.912C292.942 291.537 292.568 291.35 292.096 291.35C291.631 291.35 291.262 291.534 290.988 291.903C290.715 292.272 290.578 292.824 290.578 293.559Z" fill="#626469"/>
<path d="M297.274 290.324L297.315 291.057C297.784 290.49 298.399 290.207 299.161 290.207C300.481 290.207 301.153 290.963 301.177 292.475V296.664H299.753V292.557C299.753 292.154 299.666 291.856 299.492 291.663C299.318 291.47 299.034 291.373 298.64 291.373C298.065 291.373 297.638 291.633 297.356 292.152V296.664H295.933V290.324H297.274Z" fill="#626469"/>
<path d="M304.111 288.783V290.324H305.23V291.379H304.111V294.918C304.111 295.16 304.159 295.335 304.255 295.442C304.351 295.55 304.521 295.604 304.768 295.604C304.932 295.604 305.098 295.584 305.266 295.545V296.646C304.941 296.736 304.629 296.781 304.328 296.781C303.234 296.781 302.688 296.178 302.688 294.971V291.379H301.645V290.324H302.688V288.783H304.111Z" fill="#626469"/>
<path d="M307.421 291.016C307.886 290.477 308.474 290.207 309.185 290.207C310.536 290.207 311.222 290.979 311.241 292.521V296.664H309.817V292.574C309.817 292.137 309.722 291.827 309.532 291.646C309.343 291.464 309.065 291.373 308.698 291.373C308.128 291.373 307.702 291.627 307.421 292.135V296.664H305.997V287.664H307.421V291.016Z" fill="#626469"/>
<path d="M315.933 294.941C315.933 294.687 315.829 294.494 315.62 294.361C315.411 294.229 315.063 294.111 314.579 294.01C314.095 293.908 313.69 293.779 313.366 293.623C312.655 293.279 312.3 292.781 312.3 292.129C312.3 291.582 312.53 291.125 312.991 290.758C313.452 290.391 314.038 290.207 314.749 290.207C315.507 290.207 316.12 290.395 316.587 290.77C317.054 291.145 317.286 291.631 317.286 292.229H315.862C315.862 291.955 315.761 291.728 315.558 291.546C315.354 291.364 315.085 291.273 314.749 291.273C314.436 291.273 314.183 291.346 313.985 291.49C313.788 291.635 313.688 291.828 313.688 292.07C313.688 292.289 313.78 292.459 313.964 292.58C314.147 292.701 314.519 292.823 315.077 292.946C315.636 293.069 316.075 293.216 316.394 293.386C316.712 293.556 316.948 293.76 317.103 293.998C317.257 294.236 317.333 294.525 317.333 294.865C317.333 295.436 317.097 295.897 316.624 296.251C316.151 296.604 315.532 296.781 314.767 296.781C314.247 296.781 313.784 296.688 313.378 296.5C312.972 296.312 312.655 296.055 312.429 295.727C312.202 295.398 312.089 295.045 312.089 294.666H313.472C313.491 295.002 313.618 295.261 313.853 295.442C314.087 295.624 314.397 295.715 314.784 295.715C315.159 295.715 315.444 295.644 315.64 295.501C315.835 295.358 315.933 295.172 315.933 294.941Z" fill="#626469"/>
<path d="M321.212 290.858C321.212 291.433 321.083 291.889 320.827 292.229C320.571 292.567 320.219 292.737 319.771 292.737C319.337 292.737 319.001 292.581 318.759 292.27L318.718 292.669H317.967V287.422H318.797V289.328C319.036 289.046 319.358 288.904 319.763 288.904C320.214 288.904 320.568 289.072 320.825 289.406C321.083 289.741 321.212 290.209 321.212 290.811L321.212 290.858ZM320.382 290.787C320.382 290.386 320.312 290.085 320.17 289.885C320.028 289.685 319.823 289.584 319.556 289.584C319.195 289.584 318.942 289.741 318.797 290.056V291.579C318.944 291.9 319.2 292.061 319.562 292.061C319.821 292.061 320.022 291.964 320.163 291.771C320.304 291.577 320.377 291.284 320.382 290.893V290.787Z" fill="#626469"/>
<path d="M280.655 304.725L280.69 305.521C281.175 304.912 281.808 304.607 282.589 304.607C283.929 304.607 284.604 305.363 284.616 306.875V311.064H283.532V306.869C283.528 306.412 283.424 306.074 283.219 305.855C283.014 305.637 282.694 305.527 282.261 305.527C281.909 305.527 281.601 305.621 281.335 305.809C281.069 305.996 280.862 306.242 280.714 306.547V311.064H279.63V304.725L280.655 304.725Z" fill="#626469"/>
<path d="M291.208 306.295H286.321V305.352H291.208V306.295ZM291.208 308.727H286.321V307.789H291.208V308.727Z" fill="#626469"/>
<path d="M296.288 311.064H295.198V303.84L293.013 304.643V303.658L296.118 302.492H296.288V311.064Z" fill="#626469"/>
<path d="M304.813 307.426C304.813 308.695 304.597 309.639 304.163 310.256C303.729 310.873 303.052 311.182 302.13 311.182C301.22 311.182 300.546 310.88 300.108 310.276C299.671 309.673 299.444 308.771 299.429 307.572V306.125C299.429 304.871 299.646 303.939 300.079 303.33C300.513 302.721 301.192 302.416 302.118 302.416C303.036 302.416 303.712 302.71 304.146 303.298C304.579 303.886 304.802 304.793 304.813 306.02V307.426ZM303.729 305.943C303.729 305.025 303.601 304.356 303.343 303.937C303.085 303.517 302.677 303.307 302.118 303.307C301.563 303.307 301.159 303.516 300.905 303.934C300.651 304.352 300.521 304.994 300.513 305.861V307.596C300.513 308.518 300.646 309.198 300.914 309.638C301.182 310.077 301.587 310.297 302.13 310.297C302.665 310.297 303.063 310.09 303.322 309.676C303.582 309.262 303.718 308.609 303.729 307.719V305.943Z" fill="#626469"/>
<path d="M34.3193 163.301V164.531H27.21V163.301H34.3193Z" fill="#B11E88"/>
<path d="M29.0361 160.781L29.5879 160.747C29.1553 160.376 28.9385 159.868 28.9385 159.224C28.9385 158.518 29.208 158.034 29.749 157.773C29.208 157.39 28.9385 156.849 28.9385 156.152C28.9385 155.569 29.0996 155.136 29.4219 154.851C29.7441 154.566 30.2197 154.421 30.8477 154.414H34.3193V155.601H30.8818C30.5459 155.601 30.3008 155.674 30.1445 155.82C29.9883 155.967 29.9102 156.209 29.9102 156.548C29.9102 156.818 29.9824 157.038 30.1279 157.21C30.2725 157.38 30.4619 157.5 30.6963 157.568L34.3193 157.563V158.75H30.8428C30.2217 158.767 29.9102 159.084 29.9102 159.702C29.9102 160.178 30.1045 160.515 30.4912 160.713H34.3193V161.899H29.0361V160.781Z" fill="#B11E88"/>
<path d="M31.7314 148.569C32.5479 148.569 33.2002 148.755 33.6865 149.126C34.1738 149.497 34.417 149.995 34.417 150.62C34.417 151.199 34.2266 151.663 33.8457 152.012H36.3506V153.198H29.0361V152.104L29.5732 152.056C29.1494 151.707 28.9385 151.233 28.9385 150.635C28.9385 149.99 29.1787 149.485 29.6592 149.118C30.1387 148.753 30.8057 148.569 31.6582 148.569H31.7314ZM31.6289 149.751C31.1016 149.751 30.6826 149.856 30.374 150.065C30.0654 150.276 29.9102 150.576 29.9102 150.967C29.9102 151.452 30.1104 151.8 30.5107 152.012H32.8545C33.2647 151.797 33.4697 151.445 33.4697 150.957C33.4697 150.579 33.3174 150.284 33.0127 150.071C32.709 149.857 32.2471 149.751 31.6289 149.751Z" fill="#B11E88"/>
<path d="M30.1201 144.8C30.0947 144.956 30.0811 145.117 30.0811 145.283C30.0811 145.827 30.29 146.193 30.7061 146.382H34.3193V147.568H29.0361V146.436L29.627 146.406C29.168 146.12 28.9385 145.723 28.9385 145.215C28.9385 145.046 28.9619 144.905 29.0068 144.795L30.1201 144.8Z" fill="#B11E88"/>
<path d="M31.6289 144.448C31.1113 144.448 30.6455 144.346 30.2295 144.141C29.8154 143.936 29.4961 143.647 29.2725 143.276C29.0498 142.905 28.9385 142.479 28.9385 141.997C28.9385 141.284 29.168 140.705 29.627 140.262C30.0859 139.816 30.6943 139.577 31.4531 139.541L31.7314 139.536C32.2529 139.536 32.7178 139.637 33.1279 139.836C33.5381 140.037 33.8555 140.323 34.0801 140.695C34.3047 141.068 34.417 141.499 34.417 141.987C34.417 142.732 34.1689 143.329 33.6728 143.777C33.1758 144.225 32.5146 144.448 31.6875 144.448H31.6289ZM31.7314 143.262C32.2744 143.262 32.7002 143.149 33.0088 142.925C33.3154 142.7 33.4697 142.388 33.4697 141.987C33.4697 141.587 33.3135 141.275 33.001 141.053C32.6885 140.829 32.2314 140.718 31.6289 140.718C31.0947 140.718 30.6719 140.832 30.3594 141.063C30.0469 141.291 29.8906 141.604 29.8906 141.997C29.8906 142.385 30.0439 142.692 30.3525 142.92C30.6592 143.147 31.1201 143.262 31.7314 143.262Z" fill="#B11E88"/>
<path d="M32.8154 136.743L29.0361 135.625V134.399L34.3193 136.23V137.261L29.0361 139.106V137.876L32.8154 136.743Z" fill="#B11E88"/>
<path d="M34.417 131.333C34.417 132.085 34.1807 132.694 33.7061 133.162C33.2334 133.629 32.6025 133.862 31.8145 133.862H31.668C31.1406 133.862 30.669 133.761 30.2549 133.557C29.8389 133.354 29.5166 133.068 29.2852 132.7C29.0537 132.332 28.9385 131.922 28.9385 131.47C28.9385 130.75 29.168 130.194 29.627 129.803C30.0859 129.41 30.7354 129.214 31.5752 129.214H32.0537V132.666C32.4893 132.63 32.835 132.484 33.0889 132.229C33.3428 131.974 33.4697 131.652 33.4697 131.265C33.4697 130.721 33.25 130.278 32.8106 129.937L33.4209 129.297C33.7373 129.509 33.9815 129.791 34.1553 130.145C34.3301 130.497 34.417 130.894 34.417 131.333ZM29.8906 131.475C29.8906 131.8 30.0049 132.063 30.2324 132.264C30.46 132.463 30.7783 132.591 31.1846 132.646V130.386H31.0967C30.7002 130.412 30.3994 130.518 30.1963 130.703C29.9922 130.889 29.8906 131.146 29.8906 131.475Z" fill="#B11E88"/>
<path d="M29.0361 127.178L29.5879 127.144C29.1553 126.772 28.9385 126.265 28.9385 125.62C28.9385 124.914 29.208 124.431 29.749 124.17C29.208 123.786 28.9385 123.246 28.9385 122.549C28.9385 121.967 29.0996 121.532 29.4219 121.248C29.7441 120.963 30.2197 120.817 30.8477 120.811H34.3193V121.997H30.8818C30.5459 121.997 30.3008 122.07 30.1445 122.217C29.9883 122.363 29.9102 122.606 29.9102 122.944C29.9102 123.215 29.9824 123.436 30.1279 123.606C30.2725 123.777 30.4619 123.896 30.6963 123.965L34.3193 123.96V125.146H30.8428C30.2217 125.163 29.9102 125.48 29.9102 126.099C29.9102 126.574 30.1045 126.911 30.4912 127.109H34.3193V128.296H29.0361V127.178Z" fill="#B11E88"/>
<path d="M34.417 117.266C34.417 118.018 34.1807 118.627 33.7061 119.095C33.2334 119.562 32.6025 119.795 31.8145 119.795H31.668C31.1406 119.795 30.669 119.693 30.2549 119.49C29.8389 119.286 29.5166 119.001 29.2852 118.633C29.0537 118.266 28.9385 117.855 28.9385 117.402C28.9385 116.684 29.168 116.127 29.627 115.735C30.0859 115.343 30.7354 115.146 31.5752 115.146H32.0537V118.599C32.4893 118.563 32.835 118.417 33.0889 118.162C33.3428 117.906 33.4697 117.585 33.4697 117.197C33.4697 116.654 33.25 116.211 32.8106 115.869L33.4209 115.23C33.7373 115.441 33.9815 115.724 34.1553 116.077C34.3301 116.43 34.417 116.826 34.417 117.266ZM29.8906 117.407C29.8906 117.733 30.0049 117.996 30.2324 118.196C30.46 118.396 30.7783 118.524 31.1846 118.579V116.318H31.0967C30.7002 116.345 30.3994 116.45 30.1963 116.636C29.9922 116.821 29.8906 117.079 29.8906 117.407Z" fill="#B11E88"/>
<path d="M29.0361 113.125L29.6465 113.091C29.1748 112.7 28.9385 112.188 28.9385 111.553C28.9385 110.453 29.5684 109.893 30.8281 109.873H34.3193V111.06H30.8965C30.5615 111.06 30.3135 111.132 30.1514 111.277C29.9912 111.422 29.9102 111.659 29.9102 111.987C29.9102 112.466 30.126 112.822 30.5596 113.057H34.3193V114.243H29.0361V113.125Z" fill="#B11E88"/>
<path d="M27.752 107.178H29.0361V106.245H29.915V107.178H32.8643C33.0654 107.178 33.2119 107.138 33.3018 107.059C33.3906 106.979 33.4356 106.836 33.4356 106.631C33.4356 106.494 33.419 106.356 33.3867 106.216H34.3047C34.3799 106.486 34.417 106.747 34.417 106.997C34.417 107.909 33.9141 108.364 32.9082 108.364H29.915V109.233H29.0361V108.364H27.752V107.178Z" fill="#B11E88"/>
<path d="M34.8989 41.0283L29.88 33.5L25.1748 41.0283" stroke="#B11E88" stroke-width="2" stroke-miterlimit="10" stroke-linecap="round"/>
<path d="M29.8809 35.5V97.5501" stroke="#B11E88" stroke-width="2" stroke-miterlimit="10" stroke-dasharray="4 4"/>
<path d="M29.8809 175.5L30.0762 247.136" stroke="#B11E88" stroke-width="2" stroke-miterlimit="10" stroke-dasharray="4 4"/>
<path d="M108.638 270.346V280.082" stroke="#626469" stroke-miterlimit="10"/>
<path d="M169.711 270.292V280.028" stroke="#626469" stroke-miterlimit="10"/>
<path d="M230.806 270.364V280.1" stroke="#626469" stroke-miterlimit="10"/>
<path d="M291.856 270.397V280.134" stroke="#626469" stroke-miterlimit="10"/>
<path d="M141.671 329.713H138.622V338.005H136.571V329.713H133.563V328.052H141.671V329.713Z" fill="#3D5F66"/>
<path d="M146.423 332.461C146.153 332.425 145.917 332.406 145.712 332.406C144.964 332.406 144.474 332.659 144.241 333.165V338.005H142.267V330.608H144.132L144.187 331.49C144.583 330.812 145.133 330.472 145.835 330.472C146.054 330.472 146.259 330.501 146.45 330.561L146.423 332.461Z" fill="#3D5F66"/>
<path d="M150.776 338.142C149.692 338.142 148.81 337.809 148.128 337.144C147.446 336.479 147.106 335.592 147.106 334.484V334.293C147.106 333.55 147.249 332.886 147.536 332.3C147.823 331.715 148.23 331.264 148.757 330.946C149.283 330.63 149.884 330.472 150.558 330.472C151.569 330.472 152.366 330.791 152.947 331.429C153.528 332.066 153.819 332.972 153.819 334.143V334.949H149.108C149.173 335.433 149.365 335.819 149.687 336.111C150.008 336.403 150.415 336.549 150.907 336.549C151.668 336.549 152.263 336.273 152.69 335.722L153.661 336.809C153.365 337.228 152.964 337.555 152.458 337.79C151.952 338.024 151.392 338.142 150.776 338.142ZM150.552 332.064C150.159 332.064 149.841 332.197 149.598 332.463C149.354 332.729 149.198 333.108 149.13 333.603H151.878V333.444C151.868 333.005 151.75 332.665 151.522 332.425C151.294 332.185 150.971 332.064 150.552 332.064Z" fill="#3D5F66"/>
<path d="M159.226 338.005C159.135 337.827 159.069 337.606 159.028 337.342C158.55 337.875 157.927 338.142 157.161 338.142C156.437 338.142 155.837 337.932 155.36 337.513C154.884 337.094 154.646 336.564 154.646 335.927C154.646 335.143 154.937 334.541 155.518 334.122C156.099 333.703 156.938 333.491 158.036 333.486H158.946V333.062C158.946 332.721 158.858 332.447 158.683 332.242C158.507 332.037 158.23 331.935 157.853 331.935C157.52 331.935 157.259 332.015 157.069 332.174C156.88 332.333 156.786 332.552 156.786 332.83H154.81C154.81 332.401 154.942 332.005 155.206 331.641C155.471 331.276 155.845 330.99 156.327 330.782C156.811 330.575 157.353 330.472 157.954 330.472C158.866 330.472 159.589 330.7 160.125 331.159C160.661 331.616 160.929 332.261 160.929 333.09V336.296C160.933 336.998 161.03 337.528 161.222 337.889V338.005L159.226 338.005ZM157.593 336.631C157.884 336.631 158.153 336.565 158.399 336.437C158.646 336.306 158.827 336.132 158.946 335.913V334.642H158.208C157.219 334.642 156.692 334.983 156.628 335.667L156.622 335.783C156.622 336.029 156.708 336.232 156.882 336.392C157.055 336.551 157.292 336.631 157.593 336.631Z" fill="#3D5F66"/>
<path d="M164.812 328.79V330.608H166.075V332.058H164.812V335.749C164.812 336.022 164.863 336.219 164.968 336.337C165.073 336.455 165.273 336.515 165.569 336.515C165.788 336.515 165.982 336.499 166.151 336.467V337.964C165.764 338.082 165.364 338.142 164.954 338.142C163.569 338.142 162.862 337.442 162.835 336.043V332.058H161.755V330.608H162.835V328.79H164.812Z" fill="#3D5F66"/>
<path d="M169.028 330.608L169.091 331.436C169.614 330.793 170.323 330.472 171.216 330.472C172.169 330.472 172.823 330.848 173.179 331.6C173.698 330.848 174.438 330.472 175.399 330.472C176.202 330.472 176.799 330.705 177.19 331.173C177.583 331.64 177.778 332.343 177.778 333.281V338.005H175.796V333.288C175.796 332.869 175.714 332.562 175.55 332.368C175.386 332.175 175.097 332.078 174.683 332.078C174.09 332.078 173.68 332.36 173.452 332.926L173.458 338.005H171.483V333.295C171.483 332.866 171.398 332.557 171.229 332.365C171.062 332.174 170.774 332.078 170.368 332.078C169.808 332.078 169.402 332.311 169.151 332.775V338.005H167.177V330.608H169.028Z" fill="#3D5F66"/>
<path d="M182.7 338.142C181.616 338.142 180.733 337.809 180.052 337.144C179.37 336.479 179.03 335.592 179.03 334.484V334.293C179.03 333.55 179.173 332.886 179.46 332.3C179.747 331.715 180.154 331.264 180.681 330.946C181.207 330.63 181.808 330.472 182.481 330.472C183.493 330.472 184.29 330.791 184.871 331.429C185.452 332.066 185.743 332.972 185.743 334.143V334.949H181.032C181.097 335.433 181.289 335.819 181.61 336.111C181.932 336.403 182.339 336.549 182.831 336.549C183.592 336.549 184.187 336.273 184.614 335.722L185.585 336.809C185.289 337.228 184.888 337.555 184.382 337.79C183.876 338.024 183.315 338.142 182.7 338.142ZM182.476 332.064C182.083 332.064 181.765 332.197 181.521 332.463C181.278 332.729 181.122 333.108 181.054 333.603H183.802V333.444C183.792 333.005 183.674 332.665 183.446 332.425C183.218 332.185 182.895 332.064 182.476 332.064Z" fill="#3D5F66"/>
<path d="M188.683 330.608L188.743 331.463C189.272 330.802 189.981 330.472 190.87 330.472C191.653 330.472 192.237 330.702 192.62 331.162C193.003 331.622 193.198 332.311 193.208 333.227V338.005H191.231V333.274C191.231 332.855 191.141 332.551 190.958 332.362C190.776 332.173 190.474 332.078 190.05 332.078C189.493 332.078 189.076 332.315 188.798 332.789V338.005H186.823V330.608H188.683Z" fill="#3D5F66"/>
<path d="M197.069 328.79V330.608H198.335V332.058H197.069V335.749C197.069 336.022 197.122 336.219 197.228 336.337C197.332 336.455 197.532 336.515 197.829 336.515C198.048 336.515 198.241 336.499 198.409 336.467V337.964C198.022 338.082 197.624 338.142 197.214 338.142C195.828 338.142 195.122 337.442 195.095 336.043V332.058H194.015V330.608H195.095V328.79H197.069Z" fill="#3D5F66"/>
<path d="M202.614 334.252C202.614 333.099 202.872 332.181 203.39 331.497C203.907 330.813 204.614 330.472 205.513 330.472C206.232 330.472 206.827 330.74 207.296 331.278V327.505H209.278V338.005H207.495L207.399 337.219C206.907 337.834 206.273 338.142 205.499 338.142C204.628 338.142 203.93 337.799 203.403 337.112C202.877 336.427 202.614 335.474 202.614 334.252ZM204.589 334.399C204.589 335.093 204.71 335.625 204.952 335.994C205.193 336.364 205.544 336.549 206.005 336.549C206.615 336.549 207.046 336.291 207.296 335.775V332.852C207.05 332.336 206.624 332.078 206.019 332.078C205.065 332.078 204.589 332.852 204.589 334.399Z" fill="#3D5F66"/>
<path d="M215.239 337.253C214.752 337.846 214.077 338.142 213.216 338.142C212.423 338.142 211.818 337.914 211.401 337.458C210.984 337.002 210.771 336.335 210.763 335.455V330.608H212.737V335.393C212.737 336.163 213.089 336.549 213.79 336.549C214.46 336.549 214.921 336.316 215.171 335.851V330.608H217.153V338.005H215.294L215.239 337.253Z" fill="#3D5F66"/>
<path d="M222.8 332.461C222.531 332.425 222.294 332.406 222.089 332.406C221.342 332.406 220.853 332.659 220.62 333.165V338.005H218.644V330.608H220.511L220.565 331.49C220.962 330.812 221.511 330.472 222.212 330.472C222.431 330.472 222.636 330.501 222.827 330.561L222.8 332.461Z" fill="#3D5F66"/>
<path d="M227.831 338.005C227.74 337.827 227.675 337.606 227.634 337.342C227.155 337.875 226.532 338.142 225.767 338.142C225.042 338.142 224.442 337.932 223.966 337.513C223.489 337.094 223.251 336.564 223.251 335.927C223.251 335.143 223.542 334.541 224.123 334.122C224.704 333.703 225.544 333.491 226.642 333.486H227.552V333.062C227.552 332.721 227.464 332.447 227.288 332.242C227.112 332.037 226.836 331.935 226.458 331.935C226.125 331.935 225.864 332.015 225.675 332.174C225.485 332.333 225.392 332.552 225.392 332.83H223.415C223.415 332.401 223.548 332.005 223.812 331.641C224.076 331.276 224.45 330.99 224.933 330.782C225.416 330.575 225.958 330.472 226.56 330.472C227.472 330.472 228.194 330.7 228.73 331.159C229.267 331.616 229.534 332.261 229.534 333.09V336.296C229.538 336.998 229.636 337.528 229.827 337.889V338.005L227.831 338.005ZM226.198 336.631C226.489 336.631 226.759 336.565 227.005 336.437C227.251 336.306 227.433 336.132 227.552 335.913V334.642H226.813C225.824 334.642 225.298 334.983 225.233 335.667L225.228 335.783C225.228 336.029 225.313 336.232 225.487 336.392C225.66 336.551 225.897 336.631 226.198 336.631Z" fill="#3D5F66"/>
<path d="M233.417 328.79V330.608H234.681V332.058H233.417V335.749C233.417 336.022 233.469 336.219 233.573 336.337C233.679 336.455 233.879 336.515 234.175 336.515C234.394 336.515 234.588 336.499 234.757 336.467V337.964C234.369 338.082 233.97 338.142 233.56 338.142C232.175 338.142 231.468 337.442 231.44 336.043V332.058H230.36V330.608H231.44V328.79H233.417Z" fill="#3D5F66"/>
<path d="M235.769 328.694C235.769 328.398 235.867 328.154 236.065 327.963C236.264 327.771 236.534 327.676 236.876 327.676C237.213 327.676 237.481 327.771 237.683 327.963C237.883 328.154 237.983 328.398 237.983 328.694C237.983 328.995 237.882 329.241 237.679 329.433C237.476 329.624 237.208 329.72 236.876 329.72C236.543 329.72 236.274 329.624 236.072 329.433C235.87 329.241 235.769 328.995 235.769 328.694ZM237.866 338.005H235.884V330.608H237.866V338.005Z" fill="#3D5F66"/>
<path d="M239.187 334.238C239.187 333.505 239.327 332.851 239.61 332.276C239.893 331.702 240.3 331.258 240.83 330.943C241.36 330.629 241.978 330.472 242.679 330.472C243.677 330.472 244.491 330.777 245.123 331.388C245.755 331.998 246.106 332.828 246.179 333.876L246.192 334.382C246.192 335.517 245.876 336.427 245.243 337.112C244.609 337.799 243.759 338.142 242.692 338.142C241.626 338.142 240.775 337.8 240.14 337.116C239.504 336.433 239.187 335.503 239.187 334.327L239.187 334.238ZM241.161 334.379C241.161 335.081 241.294 335.619 241.558 335.991C241.822 336.363 242.2 336.549 242.692 336.549C243.171 336.549 243.545 336.365 243.813 335.998C244.083 335.63 244.218 335.043 244.218 334.234C244.218 333.546 244.083 333.012 243.813 332.633C243.545 332.254 243.167 332.064 242.679 332.064C242.196 332.064 241.822 332.253 241.558 332.629C241.294 333.006 241.161 333.589 241.161 334.379Z" fill="#3D5F66"/>
<path d="M249.228 330.608L249.29 331.463C249.818 330.802 250.526 330.472 251.415 330.472C252.199 330.472 252.782 330.702 253.165 331.162C253.548 331.622 253.744 332.311 253.753 333.227V338.005H251.778V333.274C251.778 332.855 251.687 332.551 251.505 332.362C251.322 332.173 251.019 332.078 250.595 332.078C250.039 332.078 249.622 332.315 249.345 332.789V338.005H247.368V330.608H249.228Z" fill="#3D5F66"/>
<path d="M292.366 269.93H74.5293" stroke="#626469" stroke-miterlimit="10"/>
<path d="M74.7432 270.24L74.7432 13.208" stroke="#626469" stroke-miterlimit="10"/>
<path d="M3.02422 55.6396H9.0002V56.9234H4.48438L4.90684 58.3098H3.91426L3.02422 55.7668V55.6396Z" fill="#3D5F66"/>
<path d="M5.48105 49.4281H6.54336C6.98086 49.4281 7.35957 49.4773 7.67949 49.5757C7.99941 49.6714 8.26328 49.8109 8.47109 49.9941C8.67891 50.1746 8.8334 50.3906 8.93457 50.6421C9.03301 50.891 9.08223 51.1671 9.08223 51.4707C9.08223 51.714 9.05078 51.941 8.98789 52.1515C8.925 52.3621 8.82793 52.5521 8.69668 52.7216C8.5627 52.8884 8.3959 53.032 8.19629 53.1523C7.99668 53.2726 7.75879 53.3656 7.48262 53.4312C7.20645 53.4941 6.89336 53.5255 6.54336 53.5255H5.48106C5.03809 53.5255 4.65801 53.4777 4.34082 53.382C4.02363 53.2835 3.76113 53.1427 3.55332 52.9595C3.34551 52.7763 3.19238 52.5603 3.09395 52.3115C2.99551 52.0599 2.94629 51.7824 2.94629 51.4789C2.94629 51.2355 2.97773 51.0099 3.04062 50.8021C3.10352 50.5915 3.20059 50.4015 3.33184 50.232C3.46309 50.0624 3.62852 49.9189 3.82812 49.8013C4.02773 49.681 4.26563 49.5894 4.5418 49.5265C4.81523 49.4609 5.12832 49.4281 5.48105 49.4281ZM6.70332 50.7078H5.31289C5.10781 50.7078 4.93008 50.7201 4.77969 50.7447C4.62656 50.7665 4.49668 50.7994 4.39004 50.8431C4.2834 50.8841 4.19727 50.9361 4.13164 50.999C4.06602 51.0619 4.01816 51.1343 3.98809 51.2164C3.95527 51.2957 3.93887 51.3832 3.93887 51.4789C3.93887 51.5992 3.96348 51.7072 4.0127 51.8029C4.06191 51.8986 4.13984 51.9792 4.24648 52.0449C4.35039 52.1105 4.49121 52.1611 4.66895 52.1966C4.84395 52.2294 5.05859 52.2458 5.31289 52.2458H6.70332C6.9084 52.2458 7.0875 52.2349 7.24063 52.213C7.39375 52.1884 7.525 52.1556 7.63438 52.1146C7.74102 52.0708 7.82852 52.0175 7.89688 51.9546C7.9625 51.8917 8.01035 51.8193 8.04043 51.7373C8.07051 51.6552 8.08555 51.5664 8.08555 51.4707C8.08555 51.3503 8.0623 51.2437 8.01582 51.1507C7.9666 51.0578 7.88867 50.9785 7.78203 50.9128C7.67266 50.8445 7.5291 50.7939 7.35137 50.7611C7.17363 50.7255 6.95762 50.7078 6.70332 50.7078Z" fill="#3D5F66"/>
<path d="M7.97891 47.1458L8.81563 47.154C9.13281 47.154 9.44863 47.2319 9.76309 47.3878C10.0803 47.5437 10.34 47.7392 10.5424 47.9743L10.2184 48.6306C10.0926 48.5677 9.96543 48.5034 9.83691 48.4378C9.71113 48.3694 9.57168 48.3134 9.41855 48.2696C9.26543 48.2231 9.08633 48.1999 8.88125 48.1999H7.97891V47.1458Z" fill="#3D5F66"/>
<path d="M3.02422 43.0219L9.0002 43.0219V44.3057H4.48437L4.90684 45.692H3.91426L3.02422 43.1491V43.0219Z" fill="#3D5F66"/>
<path d="M3.02422 37.9219L9.0002 37.9219V39.2057L4.48437 39.2057L4.90684 40.592H3.91426L3.02422 38.049L3.02422 37.9219Z" fill="#3D5F66"/>
</svg>
