<svg width="328" height="550" fill="none" xmlns="http://www.w3.org/2000/svg"><path d="M62.766 54.366v421.799M52.625 394.276h9.736M52.57 309.422h9.736M52.645 224.533h9.736M52.676 139.713h9.736M52.64 54.857h9.737M169.121 485.459v-9.3M107.715 485.459v-9.3M230.812 485.58v-9.3M293.355 485.58v-9.3" stroke="#626469" stroke-miterlimit="10"/><path d="m3.582 360.781 7.219-2.556-7.219-2.543v-2.694h9.953v2.058h-2.72l-4.697-.205 7.417 2.686v1.409l-7.41 2.679 4.69-.205h2.72v2.051H3.582v-2.68ZM13.674 347.923c0 1.085-.333 1.968-.998 2.649s-1.552 1.022-2.66 1.022h-.19c-.744 0-1.408-.144-1.994-.431a3.17 3.17 0 0 1-1.353-1.22c-.317-.527-.475-1.127-.475-1.801 0-1.012.32-1.808.957-2.39.638-.58 1.543-.871 2.714-.871h.806v4.71c.484-.064.87-.257 1.163-.577.291-.323.437-.729.437-1.221 0-.762-.275-1.356-.827-1.784l1.087-.971c.419.296.746.697.981 1.203.235.506.352 1.067.352 1.682Zm-6.077.225c0 .393.132.71.398.954s.646.4 1.14.468v-2.748h-.158c-.44.01-.78.127-1.02.356-.24.228-.36.551-.36.97ZM9.782 344.067c-1.153 0-2.071-.258-2.755-.776-.683-.517-1.025-1.225-1.025-2.122 0-.72.269-1.315.807-1.784H3.035v-1.983h10.5v1.785l-.786.095c.615.492.923 1.126.923 1.901 0 .87-.343 1.569-1.03 2.094-.685.528-1.638.79-2.86.79Zm.148-1.975c.693 0 1.225-.121 1.594-.363.37-.241.555-.592.555-1.052 0-.611-.258-1.042-.773-1.292H8.382c-.516.246-.774.672-.774 1.278 0 .952.774 1.429 2.322 1.429ZM4.226 335.885c-.296 0-.54-.1-.732-.297-.191-.199-.287-.469-.287-.811 0-.338.096-.605.287-.806a.966.966 0 0 1 .732-.301c.3 0 .546.101.738.305.191.202.287.47.287.802 0 .332-.096.601-.287.803a.97.97 0 0 1-.738.305Zm9.31-2.099v1.983H6.14v-1.983h7.396ZM13.537 327.873a2.166 2.166 0 0 1-.663.198c.533.479.8 1.101.8 1.866 0 .725-.21 1.326-.63 1.801a2.02 2.02 0 0 1-1.585.715c-.784 0-1.386-.291-1.805-.871-.419-.582-.63-1.422-.635-2.52v-.909h-.424c-.342 0-.616.088-.82.263-.206.176-.308.453-.308.831 0 .333.08.594.24.782.158.19.377.284.655.284v1.976c-.428 0-.825-.133-1.19-.396-.363-.264-.65-.639-.858-1.122a4.085 4.085 0 0 1-.31-1.626c0-.913.228-1.635.687-2.17.457-.537 1.102-.804 1.931-.804h3.206c.702-.005 1.232-.103 1.593-.294h.116v1.996Zm-1.374 1.634c0-.292-.065-.561-.194-.807a1.284 1.284 0 0 0-.524-.547h-1.271v.739c0 .989.342 1.514 1.025 1.579l.116.007c.247 0 .45-.087.609-.26.159-.173.24-.41.24-.711ZM6.14 322.835l.855-.062c-.661-.529-.991-1.237-.991-2.126 0-.784.23-1.367.69-1.75.46-.382 1.149-.579 2.065-.587h4.778v1.975h-4.73c-.42 0-.724.092-.912.274-.19.181-.285.485-.285.909 0 .555.238.973.711 1.251h5.216v1.975H6.141v-1.859ZM6.14 311.474l.828-.062c-.643-.523-.964-1.232-.964-2.126 0-.952.376-1.606 1.128-1.962-.752-.519-1.128-1.26-1.128-2.221 0-.802.233-1.4.701-1.791.467-.392 1.17-.588 2.108-.588h4.724v1.982H8.82c-.419 0-.725.082-.92.246-.193.164-.29.454-.29.868 0 .592.283 1.002.848 1.231l5.08-.007v1.976h-4.71c-.43 0-.74.084-.93.252-.192.169-.288.457-.288.862 0 .56.233.966.698 1.217h5.23v1.975H6.14v-1.852ZM13.674 297.802c0 1.085-.333 1.968-.998 2.649s-1.552 1.022-2.66 1.022h-.19c-.744 0-1.408-.144-1.994-.431a3.17 3.17 0 0 1-1.353-1.22c-.317-.527-.475-1.127-.475-1.801 0-1.012.32-1.808.957-2.39.638-.58 1.543-.871 2.714-.871h.806v4.71c.484-.064.87-.257 1.163-.577.291-.323.437-.729.437-1.221 0-.762-.275-1.356-.827-1.784l1.087-.971c.419.296.746.697.981 1.203.235.506.352 1.067.352 1.682Zm-6.077.225c0 .393.132.71.398.953.266.245.646.401 1.14.469v-2.748h-.158c-.44.01-.78.127-1.02.356-.24.228-.36.55-.36.97ZM4.32 291.273H6.14v-1.264h1.449v1.264h3.691c.274 0 .47-.052.588-.157.118-.104.178-.305.178-.601 0-.219-.016-.413-.048-.581h1.497c.118.386.178.786.178 1.196 0 1.386-.7 2.092-2.099 2.119H7.588v1.08h-1.45v-1.08H4.32v-1.976ZM13.674 285.504c0 1.084-.333 1.968-.998 2.648-.665.682-1.552 1.023-2.66 1.023h-.19c-.744 0-1.408-.144-1.994-.431a3.159 3.159 0 0 1-1.353-1.221c-.317-.525-.475-1.127-.475-1.8 0-1.012.32-1.809.957-2.389.638-.582 1.543-.872 2.714-.872h.806v4.71c.484-.065.87-.256 1.163-.578.291-.321.437-.728.437-1.22 0-.761-.275-1.356-.827-1.784l1.087-.971c.419.297.746.697.981 1.203.235.506.352 1.067.352 1.682Zm-6.077.225c0 .392.132.71.398.955.266.243.646.399 1.14.467v-2.748h-.158c-.44.009-.78.128-1.02.356-.24.227-.36.552-.36.97ZM7.993 277.185a5.402 5.402 0 0 0-.055.711c0 .747.253 1.237.76 1.469h4.84v1.976H6.14v-1.866l.881-.055c-.678-.397-1.018-.945-1.018-1.648 0-.218.03-.423.089-.615l1.9.028ZM11.493 272.228c-.241 0-.431.12-.571.36-.139.238-.263.623-.372 1.151-.37 1.759-1.116 2.639-2.242 2.639-.657 0-1.204-.273-1.644-.817-.44-.544-.66-1.256-.66-2.136 0-.939.22-1.69.663-2.253.442-.563 1.017-.844 1.723-.844v1.976a.955.955 0 0 0-.7.273c-.186.183-.278.468-.278.855 0 .332.075.589.226.772a.71.71 0 0 0 .574.274c.219 0 .395-.104.53-.312.134-.207.25-.557.348-1.049a8.68 8.68 0 0 1 .332-1.244c.383-1.043 1.046-1.565 1.99-1.565.674 0 1.219.29 1.637.868.416.578.625 1.326.625 2.242 0 .619-.11 1.17-.332 1.65-.22.482-.524.859-.908 1.132-.386.274-.802.41-1.248.41v-1.873c.35-.018.62-.147.806-.389.187-.243.28-.565.28-.971 0-.379-.07-.664-.215-.857a.666.666 0 0 0-.564-.292ZM10.85 259.117l-4.71-.971v-1.907l7.397 1.887v1.654l-4.655 1.402 4.655 1.401v1.647l-7.396 1.887v-1.907l4.703-.964-4.703-1.353v-1.429l4.71-1.347ZM13.537 250.976c-.178.09-.398.157-.663.198.533.478.8 1.1.8 1.866 0 .725-.21 1.325-.63 1.802a2.026 2.026 0 0 1-1.585.714c-.784 0-1.386-.29-1.805-.872-.419-.581-.63-1.42-.635-2.519v-.909h-.424c-.342 0-.616.088-.82.264-.206.174-.308.451-.308.83 0 .332.08.593.24.783.158.188.377.283.655.283v1.976a1.98 1.98 0 0 1-1.19-.397c-.363-.265-.65-.638-.858-1.121a4.09 4.09 0 0 1-.31-1.627c0-.911.228-1.635.687-2.171.457-.535 1.102-.803 1.931-.803h3.206c.702-.003 1.232-.102 1.593-.294h.116v1.997Zm-1.374 1.633c0-.291-.065-.56-.194-.806a1.29 1.29 0 0 0-.524-.547h-1.271v.738c0 .988.342 1.516 1.025 1.579l.116.007c.247 0 .45-.086.609-.26.159-.174.24-.41.24-.711ZM13.535 245.671v1.982h-10.5v-1.982h10.5ZM10.568 241.357l.711.711h2.256v1.976h-10.5v-1.976h5.818l-.493-.382-2.221-1.894v-2.372l3.083 2.673 4.313-2.905v2.269l-2.967 1.9ZM13.674 233.161c0 1.085-.333 1.968-.998 2.65-.665.68-1.552 1.021-2.66 1.021h-.19c-.744 0-1.408-.144-1.994-.431a3.173 3.173 0 0 1-1.353-1.219c-.317-.528-.475-1.127-.475-1.802 0-1.012.32-1.808.957-2.39.638-.58 1.543-.871 2.714-.871h.806v4.71c.484-.063.87-.257 1.163-.577.291-.322.437-.729.437-1.221 0-.761-.275-1.355-.827-1.784l1.087-.971c.419.296.746.698.981 1.203.235.506.352 1.067.352 1.682Zm-6.077.226c0 .392.132.71.398.953.266.244.646.4 1.14.469v-2.748h-.158c-.44.009-.78.127-1.02.355-.24.229-.36.551-.36.971ZM9.782 229.306c-1.153 0-2.071-.259-2.755-.777-.683-.516-1.025-1.224-1.025-2.122 0-.72.269-1.315.807-1.784H3.035v-1.982h10.5v1.784l-.786.095c.615.493.923 1.126.923 1.901 0 .87-.343 1.569-1.03 2.095-.685.527-1.638.79-2.86.79Zm.148-1.976c.693 0 1.225-.121 1.594-.362.37-.241.555-.593.555-1.053 0-.61-.258-1.042-.773-1.292H8.382c-.516.246-.774.672-.774 1.278 0 .953.774 1.429 2.322 1.429ZM9.488 217.534a10.49 10.49 0 0 1-2.98-.417 7.839 7.839 0 0 1-2.506-1.23c-.727-.543-1.231-1.131-1.514-1.764l1.067-.383c.492.666 1.253 1.186 2.283 1.559s2.233.56 3.61.56h.211c1.381 0 2.59-.184 3.623-.553 1.034-.369 1.807-.892 2.318-1.566l1.045.383c-.278.619-.768 1.197-1.473 1.732a7.676 7.676 0 0 1-2.437 1.228 10.44 10.44 0 0 1-2.884.451h-.363ZM8.784 204.416c.93 0 1.737.15 2.423.451.687.301 1.236.718 1.651 1.251l1.3-1.654 1.155 1.306-1.703 2.119c.041.242.062.492.062.752 0 .824-.198 1.56-.595 2.208-.396.647-.963 1.148-1.698 1.504-.736.355-1.583.536-2.54.54h-.492c-.98 0-1.843-.177-2.587-.53-.746-.353-1.318-.852-1.717-1.498-.398-.644-.598-1.381-.598-2.211 0-.83.2-1.566.598-2.211.4-.645.97-1.144 1.717-1.498.744-.352 1.604-.529 2.58-.529h.444Zm-.451 2.078c-1.044 0-1.837.188-2.379.561-.542.373-.813.906-.813 1.599 0 .688.267 1.219.802 1.593.536.374 1.322.564 2.356.567h.485c1.017 0 1.805-.187 2.365-.56.561-.373.841-.912.841-1.613 0-.688-.27-1.217-.81-1.586s-1.327-.557-2.362-.561h-.485ZM13.537 198.325v1.976H5.922l.731 2.358H5.047l-1.477-4.122v-.212h9.967ZM16.032 194.497l-.54 1.032-.444-.246c-.556-.304-1.11-.463-1.661-.471h-1.532v-1.668l1.368.006c.505.004 1.016.133 1.53.383.516.25.942.572 1.28.964ZM8.784 179.813c.93 0 1.737.151 2.423.452.687.3 1.236.717 1.651 1.251l1.3-1.655 1.155 1.306-1.703 2.119c.041.241.062.492.062.752 0 .825-.198 1.562-.595 2.208-.396.647-.963 1.149-1.698 1.504-.736.355-1.583.535-2.54.54h-.492c-.98 0-1.843-.177-2.587-.53-.746-.353-1.318-.852-1.717-1.496-.398-.646-.598-1.383-.598-2.212 0-.829.2-1.567.598-2.212.4-.645.97-1.144 1.717-1.496.744-.354 1.604-.53 2.58-.53l.444-.001Zm-.451 2.079c-1.044 0-1.837.186-2.379.56-.542.374-.813.907-.813 1.6 0 .688.267 1.219.802 1.593.536.373 1.322.562 2.356.567h.485c1.017 0 1.805-.187 2.365-.561.561-.374.841-.911.841-1.613 0-.688-.27-1.217-.81-1.586s-1.327-.556-2.362-.56h-.485ZM7.684 176.512v-1.053c0-.502-.125-.873-.376-1.114-.251-.241-.583-.363-.998-.363-.402 0-.713.12-.937.36-.224.238-.335.568-.335.987 0 .378.104.694.312.95a.99.99 0 0 0 .81.383v1.976c-.52 0-.986-.14-1.398-.421-.413-.28-.736-.672-.968-1.176a3.923 3.923 0 0 1-.349-1.664c0-1.053.252-1.877.756-2.475.503-.597 1.197-.895 2.081-.895.456 0 .875.139 1.258.417.383.277.677.642.882 1.094.2-.561.5-.979.902-1.254.402-.277.875-.414 1.422-.414.884 0 1.593.322 2.126.966.533.646.8 1.498.8 2.561 0 .994-.262 1.806-.786 2.437-.525.631-1.217.947-2.078.947v-1.976c.374 0 .678-.14.916-.42.237-.281.355-.626.355-1.036 0-.47-.124-.837-.372-1.104-.249-.266-.578-.4-.988-.4-.993 0-1.49.547-1.49 1.641v1.046H7.684ZM9.646 167.003c1.03 0 2.021.147 2.973.444a8.096 8.096 0 0 1 2.523 1.279c.73.555 1.23 1.151 1.503 1.784l-1.045.383c-.488-.647-1.24-1.159-2.256-1.532-1.017-.373-2.186-.567-3.507-.581h-.362c-1.363 0-2.564.186-3.603.558-1.039.371-1.818.889-2.338 1.555l-1.046-.383c.269-.619.757-1.204 1.463-1.754a7.946 7.946 0 0 1 2.468-1.277 9.865 9.865 0 0 1 2.919-.476h.308Z" fill="#3D5F66"/><path d="M169.303 108.706c9.888 0 17.916 8.028 17.916 17.916v349.099h-36V126.79c0-9.981 8.103-18.084 18.084-18.084ZM231.299 84.501c9.888 0 17.916 8.028 17.916 17.916v373.168h-36v-373c0-9.98 8.103-18.084 18.084-18.084ZM293.303 92.998c9.888 0 17.916 8.028 17.916 17.916v365.007h-36V111.082c0-9.981 8.103-18.084 18.084-18.084ZM155.72 81.59h1.552c1.231 0 1.846-.602 1.846-1.807 0-.469-.146-.85-.439-1.147-.293-.296-.707-.445-1.241-.445-.436 0-.815.127-1.137.381-.323.254-.484.57-.484.947h-3.292c0-.748.209-1.416.625-2.001.417-.586.995-1.043 1.734-1.373a5.941 5.941 0 0 1 2.437-.493c1.582 0 2.825.362 3.731 1.084.905.723 1.357 1.716 1.357 2.979 0 .612-.187 1.19-.561 1.734-.374.543-.92.985-1.636 1.323.755.274 1.348.689 1.777 1.246.43.556.645 1.245.645 2.065 0 1.27-.488 2.285-1.465 3.047-.977.762-2.26 1.142-3.848 1.142a6.31 6.31 0 0 1-2.593-.532c-.797-.354-1.402-.846-1.812-1.474-.41-.628-.615-1.343-.615-2.144h3.311c0 .437.176.814.528 1.133.351.32.784.478 1.298.478.58 0 1.041-.16 1.387-.483.345-.322.518-.734.518-1.235 0-.716-.18-1.224-.537-1.524-.359-.3-.854-.449-1.485-.449h-1.601v-2.451ZM174.167 84.267c0 1.92-.432 3.401-1.293 4.443-.863 1.042-2.08 1.563-3.648 1.563-1.582 0-2.807-.524-3.673-1.573-.865-1.048-1.299-2.526-1.299-4.433v-2.598c0-1.921.432-3.402 1.294-4.444.863-1.041 2.082-1.563 3.658-1.563s2.797.524 3.662 1.572c.865 1.05 1.299 2.53 1.299 4.445v2.588Zm-3.291-3.018c0-1.022-.133-1.786-.4-2.291-.268-.504-.69-.757-1.27-.757-.566 0-.978.235-1.235.703-.258.469-.396 1.179-.415 2.13v3.633c0 1.061.132 1.838.4 2.33.267.49.69.736 1.27.736.56 0 .972-.239 1.24-.717.267-.479.404-1.229.41-2.251v-3.516ZM183.829 75.652v2.588h-.146c-1.231 0-2.242.295-3.034.884-.791.59-1.277 1.408-1.46 2.457.743-.73 1.68-1.095 2.814-1.095 1.23 0 2.21.45 2.939 1.349.729.898 1.094 2.076 1.094 3.535a4.98 4.98 0 0 1-.64 2.49 4.552 4.552 0 0 1-1.787 1.773c-.765.427-1.613.64-2.545.64-1.008 0-1.91-.23-2.705-.689a4.726 4.726 0 0 1-1.855-1.968c-.442-.852-.671-1.836-.684-2.949v-1.318c0-1.465.315-2.783.943-3.952a6.836 6.836 0 0 1 2.69-2.749c1.166-.664 2.458-.996 3.878-.996h.498Zm-2.97 7.355c-.435 0-.8.1-1.093.303-.293.2-.511.449-.655.742v.986c0 1.797.622 2.695 1.866 2.695.501 0 .919-.224 1.255-.673.335-.45.503-1.013.503-1.69 0-.696-.171-1.264-.512-1.704-.342-.44-.796-.66-1.364-.66Z" fill="#6D868E"/><path d="M143.23 99.191c0-.735.099-1.442.295-2.119a6.205 6.205 0 0 1 .882-1.845c.391-.554.796-.945 1.216-1.172l.186.595c-.476.365-.866.921-1.17 1.67-.304.75-.471 1.587-.5 2.515l-.005.415c0 1.257.229 2.347.688 3.271.277.554.606.987.987 1.299l-.186.552c-.434-.241-.847-.644-1.24-1.211-.769-1.106-1.153-2.43-1.153-3.97ZM151.248 102.077h-4.658v-.649l2.461-2.735c.364-.413.616-.749.754-1.008.138-.258.208-.527.208-.803 0-.371-.113-.676-.337-.913-.225-.238-.525-.357-.899-.357-.449 0-.798.128-1.048.383-.249.256-.373.611-.373 1.067h-.903c0-.654.211-1.183.632-1.586.422-.404.985-.606 1.692-.606.661 0 1.183.174 1.568.52.384.347.576.808.576 1.384 0 .7-.446 1.534-1.338 2.5l-1.904 2.066h3.569v.737ZM155.175 102.077h-.908v-6.02l-1.822.669v-.82l2.588-.972h.142v7.143ZM162.41 95.476l-2.944 6.601h-.947l2.934-6.367h-3.848v-.742h4.805v.508ZM163.547 101.604c0-.157.046-.287.139-.391.092-.105.232-.156.418-.156.185 0 .326.051.421.156a.55.55 0 0 1 .145.391.518.518 0 0 1-.145.375c-.095.101-.236.152-.421.152-.186 0-.326-.051-.418-.152a.53.53 0 0 1-.139-.375ZM166.484 98.513l.362-3.545h3.642v.835h-2.876l-.215 1.938a2.294 2.294 0 0 1 1.187-.307c.648 0 1.162.213 1.543.641.381.429.571 1.007.571 1.736 0 .733-.198 1.31-.593 1.731-.396.422-.949.633-1.658.633-.629 0-1.141-.174-1.538-.523-.397-.348-.624-.83-.679-1.445h.855c.055.407.2.714.435.921.234.206.542.31.927.31.42 0 .749-.144.989-.43.24-.286.359-.682.359-1.187 0-.475-.129-.857-.389-1.144-.259-.29-.602-.433-1.032-.433-.395 0-.703.086-.928.259l-.239.195-.723-.185ZM171.747 103.493l-.513-.351c.306-.427.466-.867.479-1.319v-.815h.884v.708c0 .329-.08.657-.242.986a2.302 2.302 0 0 1-.608.791ZM179.935 99.69h.986v.737h-.986v1.65h-.909v-1.65h-3.237v-.533l3.184-4.926h.962v4.721Zm-3.121 0h2.212v-3.487l-.107.195-2.105 3.291ZM182.152 98.513l.362-3.545h3.642v.835h-2.876l-.215 1.938a2.3 2.3 0 0 1 1.187-.307c.647 0 1.162.213 1.543.641.381.429.571 1.007.571 1.736 0 .733-.198 1.31-.593 1.731-.396.422-.948.633-1.658.633-.628 0-1.14-.174-1.538-.523-.397-.348-.623-.83-.679-1.445h.855c.056.407.2.714.435.921.234.206.543.31.927.31.42 0 .75-.144.989-.43.24-.286.359-.682.359-1.187 0-.475-.129-.857-.389-1.144-.258-.29-.602-.433-1.032-.433-.394 0-.703.086-.928.259l-.239.195-.723-.185ZM188.664 98.083h.679c.427-.007.761-.12 1.006-.337.244-.218.366-.513.366-.884 0-.833-.415-1.25-1.245-1.25-.391 0-.702.112-.935.334-.233.224-.349.519-.349.887h-.904c0-.564.206-1.031.618-1.404.412-.372.935-.559 1.57-.559.671 0 1.196.178 1.577.532.381.355.571.848.571 1.48 0 .31-.1.608-.3.898-.201.29-.473.506-.818.65.391.124.692.329.906.615.213.286.32.637.32 1.05 0 .637-.208 1.144-.625 1.518-.417.374-.959.562-1.626.562-.667 0-1.21-.181-1.629-.542-.418-.362-.627-.838-.627-1.431h.908c0 .374.122.674.366.899.244.224.571.336.982.336.436 0 .769-.114 1.001-.341.231-.228.346-.555.346-.982 0-.413-.127-.73-.381-.952-.253-.222-.62-.335-1.098-.342h-.679v-.737ZM195.146 99.24c0 .726-.095 1.422-.287 2.087a6.152 6.152 0 0 1-.873 1.844c-.392.563-.803.964-1.233 1.201l-.191-.552c.501-.383.905-.98 1.209-1.79.304-.808.459-1.706.466-2.692v-.156c0-.684-.071-1.32-.215-1.908a6.418 6.418 0 0 0-.598-1.579c-.255-.465-.542-.828-.862-1.089l.191-.551c.43.237.839.634 1.227 1.191.39.557.681 1.17.875 1.84.194.672.291 1.39.291 2.154Z" fill="#63656A"/><path d="M217.72 57.216h1.552c1.231 0 1.846-.603 1.846-1.808 0-.469-.146-.85-.439-1.147-.293-.296-.707-.445-1.241-.445-.436 0-.815.127-1.137.381-.323.254-.484.57-.484.947h-3.292c0-.747.209-1.416.625-2.001.417-.586.995-1.043 1.734-1.373a5.941 5.941 0 0 1 2.437-.493c1.582 0 2.825.362 3.731 1.084.905.723 1.357 1.716 1.357 2.979 0 .612-.187 1.19-.561 1.734-.374.543-.92.985-1.636 1.324.755.273 1.348.688 1.777 1.245.43.556.645 1.245.645 2.065 0 1.27-.488 2.285-1.465 3.047-.977.762-2.26 1.142-3.848 1.142a6.31 6.31 0 0 1-2.593-.532c-.797-.354-1.402-.846-1.812-1.474-.41-.628-.615-1.343-.615-2.144h3.311c0 .437.176.814.528 1.133.351.32.784.478 1.298.478.58 0 1.041-.16 1.387-.483.345-.322.518-.734.518-1.235 0-.716-.18-1.224-.537-1.524-.359-.3-.854-.449-1.485-.449h-1.601v-2.451ZM236.216 65.702h-9.923v-2.148l4.571-4.805c1.127-1.283 1.69-2.302 1.69-3.058 0-.61-.133-1.077-.401-1.396-.267-.318-.654-.479-1.162-.479-.502 0-.908.214-1.22.64-.313.427-.469.959-.469 1.597H226c0-.872.219-1.678.654-2.417a4.6 4.6 0 0 1 1.817-1.734c.775-.416 1.641-.625 2.598-.625 1.537 0 2.721.356 3.551 1.065.83.71 1.244 1.728 1.244 3.056a4.43 4.43 0 0 1-.312 1.637c-.209.53-.531 1.087-.971 1.67-.439.582-1.148 1.362-2.125 2.339l-1.836 2.12h5.596v2.538ZM247.753 59.892c0 1.92-.432 3.401-1.294 4.443-.863 1.042-2.079 1.563-3.648 1.563-1.582 0-2.806-.524-3.672-1.573-.867-1.048-1.299-2.526-1.299-4.433v-2.598c0-1.921.431-3.402 1.294-4.444.863-1.041 2.082-1.563 3.657-1.563 1.576 0 2.797.525 3.663 1.572.865 1.05 1.299 2.53 1.299 4.445v2.588Zm-3.291-3.018c0-1.022-.134-1.786-.4-2.291-.268-.504-.691-.757-1.271-.757-.566 0-.978.234-1.235.703-.257.469-.396 1.179-.415 2.13v3.633c0 1.061.133 1.838.4 2.33.268.49.69.736 1.27.736.56 0 .973-.239 1.241-.717.266-.479.403-1.229.41-2.251v-3.516Z" fill="#6D868E"/><path d="M205.23 74.816c0-.735.099-1.442.295-2.119a6.205 6.205 0 0 1 .882-1.845c.391-.554.796-.945 1.216-1.172l.186.595c-.476.365-.866.921-1.17 1.67-.304.75-.471 1.587-.5 2.515l-.005.415c0 1.257.229 2.347.688 3.272.277.553.606.986.987 1.298l-.186.552c-.434-.241-.847-.644-1.24-1.21-.769-1.107-1.153-2.43-1.153-3.97ZM213.248 77.702h-4.658v-.65l2.461-2.734c.364-.413.616-.749.754-1.008.138-.258.208-.527.208-.803 0-.371-.113-.676-.337-.913-.225-.238-.525-.357-.899-.357-.449 0-.798.128-1.048.383-.249.256-.373.611-.373 1.067h-.903c0-.654.211-1.183.632-1.586.422-.404.985-.606 1.692-.606.661 0 1.183.174 1.568.52.384.347.576.808.576 1.384 0 .7-.446 1.534-1.338 2.5l-1.904 2.066h3.569v.737ZM215.52 73.708h.678c.426-.007.762-.12 1.006-.337.244-.218.366-.513.366-.884 0-.833-.415-1.25-1.245-1.25-.39 0-.702.112-.935.334-.233.224-.349.519-.349.887h-.903c0-.564.206-1.031.617-1.404.412-.372.935-.559 1.57-.559.67 0 1.196.178 1.577.532.381.355.572.848.572 1.48 0 .31-.101.608-.301.898-.2.29-.473.506-.818.65.391.124.693.329.906.615.214.286.32.637.32 1.05 0 .637-.209 1.144-.625 1.518-.417.374-.959.562-1.626.562-.668 0-1.21-.18-1.629-.542-.418-.361-.627-.838-.627-1.43h.908c0 .373.122.673.367.898.244.224.571.337.981.337.436 0 .77-.115 1.001-.342.231-.228.347-.555.347-.982 0-.413-.127-.73-.381-.952-.254-.222-.62-.335-1.099-.342h-.678v-.737ZM223.634 75.314h.986v.738h-.986v1.65h-.908v-1.65h-3.238v-.533l3.184-4.926h.962v4.721Zm-3.12 0h2.212v-3.486l-.108.195-2.104 3.291ZM225.501 79.118l-.513-.351c.306-.427.465-.867.479-1.319v-.815h.884v.708c0 .329-.081.657-.243.986-.161.33-.363.593-.607.791ZM233.688 75.314h.987v.738h-.987v1.65h-.908v-1.65h-3.237v-.533l3.184-4.926h.961v4.721Zm-3.12 0h2.212v-3.486l-.107.195-2.105 3.291ZM239.034 70.588v.767h-.166c-.703.012-1.263.221-1.68.624-.417.404-.657.972-.722 1.705.374-.43.886-.645 1.533-.645.618 0 1.112.218 1.481.654.371.437.555 1 .555 1.69 0 .732-.199 1.318-.597 1.758-.4.44-.934.659-1.605.659-.681 0-1.232-.262-1.655-.783-.423-.524-.635-1.197-.635-2.02v-.347c0-1.308.279-2.308.838-3 .557-.692 1.389-1.046 2.492-1.062h.161Zm-1.186 3.203c-.31 0-.594.093-.855.278a1.446 1.446 0 0 0-.542.699v.332c0 .586.132 1.057.396 1.416.263.358.592.537.986.537.407 0 .727-.15.96-.45.232-.3.349-.69.349-1.176 0-.489-.119-.883-.355-1.184a1.131 1.131 0 0 0-.939-.452ZM245.418 72.448c0 .355-.094.671-.281.948-.187.276-.44.493-.759.649.371.16.665.392.882.698.216.306.324.653.324 1.04 0 .615-.207 1.106-.623 1.47-.414.364-.961.547-1.638.547-.683 0-1.231-.184-1.643-.549-.411-.367-.618-.856-.618-1.468 0-.384.106-.73.315-1.04.211-.31.501-.544.872-.703a1.875 1.875 0 0 1-.747-.65 1.668 1.668 0 0 1-.273-.942c0-.598.192-1.074.576-1.425.383-.352.89-.528 1.518-.528.625 0 1.13.176 1.517.527.385.352.578.828.578 1.426Zm-.737 3.316c0-.398-.126-.721-.378-.972-.253-.251-.582-.376-.99-.376-.407 0-.733.124-.979.371-.245.247-.368.573-.368.977 0 .403.12.72.358.952.24.231.573.347.999.347.423 0 .755-.117.996-.35.242-.233.362-.549.362-.95Zm-1.358-4.527c-.354 0-.641.11-.862.33-.219.22-.329.518-.329.896 0 .361.108.653.325.876.216.224.505.335.866.335.362 0 .651-.112.866-.335.217-.223.326-.515.326-.876s-.113-.656-.337-.884a1.152 1.152 0 0 0-.855-.342ZM246.832 77.228a.57.57 0 0 1 .139-.39c.093-.105.232-.156.418-.156.185 0 .326.051.422.156a.555.555 0 0 1 .144.39c0 .15-.048.276-.144.377-.096.1-.237.15-.422.15-.186 0-.325-.05-.418-.15a.538.538 0 0 1-.139-.377ZM249.766 74.138l.361-3.545h3.643v.835h-2.876l-.215 1.938a2.293 2.293 0 0 1 1.186-.307c.648 0 1.162.213 1.543.641.381.429.571 1.007.571 1.736 0 .733-.198 1.31-.592 1.731-.397.422-.949.633-1.658.633-.628 0-1.141-.174-1.539-.523-.397-.348-.623-.83-.678-1.445h.854c.056.407.2.714.435.92.234.207.544.31.928.31.419 0 .75-.143.988-.43.24-.285.359-.68.359-1.186 0-.475-.129-.857-.389-1.144-.257-.29-.602-.433-1.032-.433-.393 0-.703.086-.927.259l-.24.195-.722-.185ZM257.146 74.865a7.49 7.49 0 0 1-.287 2.087 6.144 6.144 0 0 1-.873 1.844c-.392.563-.803.964-1.233 1.201l-.191-.552c.501-.383.905-.98 1.209-1.79.304-.808.459-1.706.466-2.692v-.156c0-.684-.071-1.32-.215-1.908a6.418 6.418 0 0 0-.598-1.579c-.255-.465-.542-.828-.862-1.089l.191-.551c.43.237.839.634 1.227 1.191.39.557.681 1.17.875 1.84.194.672.291 1.39.291 2.154Z" fill="#63656A"/><path d="M206.596 502.238h-1.418v-6.853l-2.092.713v-1.196l3.328-1.224h.182v8.56ZM215.299 502.238h-5.737v-.978l2.842-3.1c.41-.457.702-.839.876-1.145.174-.307.261-.615.261-.923 0-.406-.114-.735-.343-.985-.228-.25-.536-.375-.923-.375-.461 0-.818.141-1.072.422-.254.282-.381.666-.381 1.155h-1.424c0-.52.119-.988.355-1.404a2.432 2.432 0 0 1 1.014-.969c.439-.231.946-.346 1.52-.346.828 0 1.482.208 1.96.624.479.416.718.991.718 1.725 0 .426-.12.873-.361 1.339-.24.467-.633.997-1.18 1.591l-2.086 2.233h3.961v1.136ZM220.799 495.898l.041.663c.445-.52 1.055-.78 1.828-.78.848 0 1.428.324 1.74.973.461-.649 1.11-.973 1.946-.973.699 0 1.219.194 1.561.58.342.387.517.957.524 1.711v4.166h-1.423v-4.125c0-.402-.088-.697-.264-.884-.176-.188-.467-.282-.873-.282-.324 0-.589.087-.794.261a1.375 1.375 0 0 0-.431.683l.006 4.347h-1.424v-4.172c-.019-.746-.4-1.119-1.142-1.119-.571 0-.975.233-1.213.698v4.593h-1.424v-6.34h1.342ZM229.637 499.01c0-.621.123-1.181.369-1.679a2.693 2.693 0 0 1 1.037-1.148c.445-.268.957-.402 1.535-.402.856 0 1.55.276 2.083.826.533.551.821 1.282.864 2.192l.006.334c0 .625-.12 1.183-.36 1.676a2.66 2.66 0 0 1-1.031 1.142c-.448.27-.964.404-1.55.404-.895 0-1.61-.297-2.148-.893-.537-.596-.805-1.39-.805-2.382v-.07Zm1.424.123c0 .652.134 1.163.404 1.532.269.369.644.554 1.125.554.48 0 .854-.188 1.122-.563.267-.375.401-.924.401-1.646 0-.641-.137-1.149-.413-1.524a1.318 1.318 0 0 0-1.122-.562c-.465 0-.834.184-1.107.554-.274.369-.41.92-.41 1.655ZM238.057 495.898l.041.733c.468-.567 1.084-.85 1.845-.85 1.321 0 1.993.756 2.016 2.268v4.189h-1.424v-4.107c0-.402-.087-.7-.261-.894-.173-.193-.458-.29-.852-.29-.574 0-1.002.26-1.283.78v4.511h-1.424v-6.34h1.342ZM245.193 494.357v1.541h1.119v1.055h-1.119v3.539c0 .242.048.417.144.525.096.107.266.161.513.161.164 0 .33-.02.498-.059v1.102c-.325.09-.637.134-.938.134-1.094 0-1.64-.603-1.64-1.81v-3.592h-1.043v-1.055h1.043v-1.541h1.423ZM248.803 496.59a2.228 2.228 0 0 1 1.763-.809c1.352 0 2.038.772 2.057 2.315v4.142h-1.424v-4.09c0-.437-.095-.747-.284-.928-.189-.182-.468-.273-.835-.273-.57 0-.996.254-1.277.762v4.529h-1.424v-9h1.424v3.352ZM257.613 500.516a.644.644 0 0 0-.313-.58c-.209-.133-.556-.25-1.04-.352a5.317 5.317 0 0 1-1.213-.387c-.711-.343-1.067-.842-1.067-1.494 0-.547.231-1.004.692-1.371.461-.367 1.047-.551 1.758-.551.757 0 1.37.188 1.837.563.466.375.7.861.7 1.459h-1.424a.879.879 0 0 0-.305-.683c-.203-.182-.472-.272-.808-.272-.313 0-.568.072-.765.216a.685.685 0 0 0-.296.581c0 .218.092.388.276.509.183.121.554.243 1.113.367.558.123.997.269 1.315.439.319.17.555.374.709.612.155.239.232.528.232.867 0 .571-.237 1.033-.709 1.386-.473.354-1.092.53-1.858.53-.519 0-.982-.093-1.388-.281a2.282 2.282 0 0 1-.95-.773 1.835 1.835 0 0 1-.339-1.061h1.382c.02.336.147.595.381.777.235.181.545.272.932.272.375 0 .66-.071.855-.214a.66.66 0 0 0 .293-.559ZM219.318 510.299l.036.797c.484-.61 1.117-.914 1.898-.914 1.34 0 2.016.755 2.027 2.267v4.19h-1.084v-4.196c-.004-.457-.108-.795-.313-1.013-.205-.219-.525-.328-.958-.328-.352 0-.66.093-.926.281a1.896 1.896 0 0 0-.621.738v4.518h-1.084v-6.34h1.025ZM229.871 511.869h-4.887v-.943h4.887v.943Zm0 2.432h-4.887v-.938h4.887v.938ZM234.951 516.639h-1.09v-7.225l-2.185.803v-.985l3.105-1.166h.17v8.573ZM239.703 511.846h.815c.511-.008.914-.143 1.207-.405.293-.261.439-.615.439-1.06 0-1-.498-1.5-1.494-1.5-.469 0-.843.134-1.122.401-.279.268-.419.622-.419 1.064h-1.084c0-.676.247-1.238.741-1.685.494-.447 1.122-.671 1.884-.671.805 0 1.435.213 1.892.639.458.426.686 1.017.686 1.775 0 .371-.12.731-.36 1.078a2.182 2.182 0 0 1-.982.78c.469.148.831.394 1.087.738s.384.764.384 1.26c0 .765-.25 1.373-.75 1.822-.5.449-1.15.674-1.951.674-.801 0-1.452-.217-1.954-.651-.502-.433-.753-1.005-.753-1.716h1.09c0 .449.146.808.439 1.078.293.269.686.404 1.178.404.523 0 .924-.137 1.201-.41.277-.274.416-.666.416-1.178 0-.496-.152-.877-.457-1.142-.305-.266-.744-.403-1.318-.411h-.815v-.884ZM148.891 493.666v1.178h-.176c-.797.011-1.434.23-1.91.656-.477.426-.76 1.029-.85 1.811.457-.481 1.041-.721 1.752-.721.754 0 1.349.265 1.784.797.436.531.654 1.217.654 2.056 0 .868-.255 1.57-.765 2.107-.51.537-1.179.805-2.007.805-.852 0-1.542-.314-2.071-.943-.53-.629-.794-1.453-.794-2.473v-.486c0-1.496.364-2.668 1.093-3.515.728-.848 1.776-1.272 3.143-1.272h.147Zm-1.53 4.072c-.312 0-.598.088-.858.264-.26.176-.45.41-.571.703v.434c0 .632.132 1.135.398 1.508.266.374.609.56 1.031.56.422 0 .756-.158 1.002-.475.246-.316.369-.732.369-1.248 0-.515-.125-.935-.375-1.259a1.194 1.194 0 0 0-.996-.487ZM155.697 495.898l.041.663c.446-.52 1.055-.78 1.828-.78.848 0 1.428.324 1.741.973.461-.649 1.109-.973 1.945-.973.699 0 1.22.194 1.561.58.342.387.517.957.525 1.711v4.166h-1.424v-4.125c0-.402-.088-.697-.264-.884-.175-.188-.466-.282-.873-.282-.324 0-.589.087-.794.261a1.373 1.373 0 0 0-.43.683l.006 4.347h-1.424v-4.172c-.02-.746-.401-1.119-1.143-1.119-.57 0-.974.233-1.213.698v4.593h-1.424v-6.34h1.342ZM164.535 499.01c0-.621.123-1.181.369-1.679a2.693 2.693 0 0 1 1.037-1.148c.446-.268.957-.402 1.536-.402.855 0 1.549.276 2.083.826.533.551.821 1.282.864 2.192l.006.334c0 .625-.12 1.183-.361 1.676a2.66 2.66 0 0 1-1.031 1.142c-.447.27-.964.404-1.55.404-.894 0-1.61-.297-2.147-.893-.537-.596-.806-1.39-.806-2.382v-.07Zm1.424.123c0 .652.135 1.163.404 1.532.27.369.645.554 1.125.554.481 0 .855-.188 1.122-.563.268-.375.402-.924.402-1.646 0-.641-.138-1.149-.413-1.524a1.32 1.32 0 0 0-1.122-.562c-.465 0-.834.184-1.108.554-.273.369-.41.92-.41 1.655ZM172.955 495.898l.041.733c.469-.567 1.084-.85 1.846-.85 1.32 0 1.992.756 2.015 2.268v4.189h-1.423v-4.107c0-.402-.087-.7-.261-.894-.174-.193-.458-.29-.853-.29-.574 0-1.002.26-1.283.78v4.511h-1.424v-6.34h1.342ZM180.092 494.357v1.541h1.119v1.055h-1.119v3.539c0 .242.048.417.143.525.096.107.267.161.513.161.164 0 .33-.02.498-.059v1.102c-.324.09-.637.134-.937.134-1.094 0-1.641-.603-1.641-1.81v-3.592h-1.043v-1.055h1.043v-1.541h1.424ZM183.701 496.59a2.23 2.23 0 0 1 1.764-.809c1.351 0 2.037.772 2.056 2.315v4.142h-1.423v-4.09c0-.437-.095-.747-.285-.928-.189-.182-.467-.273-.834-.273-.571 0-.997.254-1.278.762v4.529h-1.424v-9h1.424v3.352ZM192.512 500.516a.645.645 0 0 0-.314-.58c-.209-.133-.555-.25-1.04-.352a5.35 5.35 0 0 1-1.213-.387c-.711-.343-1.066-.842-1.066-1.494 0-.547.23-1.004.691-1.371.461-.367 1.047-.551 1.758-.551.758 0 1.37.188 1.837.563.467.375.7.861.7 1.459h-1.424a.878.878 0 0 0-.304-.683c-.203-.182-.473-.272-.809-.272-.312 0-.567.072-.765.216a.684.684 0 0 0-.295.581c0 .218.091.388.275.509.184.121.555.243 1.113.367.559.123.997.269 1.316.439.318.17.554.374.709.612.154.239.231.528.231.867 0 .571-.236 1.033-.709 1.386-.473.354-1.092.53-1.857.53-.52 0-.983-.093-1.389-.281a2.28 2.28 0 0 1-.949-.773 1.829 1.829 0 0 1-.34-1.061h1.383c.019.336.146.595.381.777.234.181.545.272.931.272.375 0 .66-.071.856-.214a.662.662 0 0 0 .293-.559ZM157.627 510.299l.035.797c.484-.61 1.117-.914 1.899-.914 1.339 0 2.015.755 2.027 2.267v4.19h-1.084v-4.196c-.004-.457-.109-.795-.314-1.013-.205-.219-.524-.328-.958-.328-.351 0-.66.093-.925.281a1.896 1.896 0 0 0-.621.738v4.518h-1.084v-6.34h1.025ZM168.18 511.869h-4.887v-.943h4.887v.943Zm0 2.432h-4.887v-.938h4.887v.938ZM173.26 516.639h-1.09v-7.225l-2.186.803v-.985l3.106-1.166h.17v8.573ZM178.012 511.846h.814c.512-.008.914-.143 1.207-.405.293-.261.44-.615.44-1.06 0-1-.498-1.5-1.494-1.5-.469 0-.843.134-1.123.401-.279.268-.418.622-.418 1.064h-1.084c0-.676.247-1.238.741-1.685.494-.447 1.122-.671 1.884-.671.804 0 1.435.213 1.892.639.457.426.686 1.017.686 1.775 0 .371-.12.731-.361 1.078-.24.348-.567.608-.981.78.469.148.831.394 1.087.738s.384.764.384 1.26c0 .765-.25 1.373-.75 1.822-.5.449-1.151.674-1.952.674-.8 0-1.452-.217-1.954-.651-.502-.433-.753-1.005-.753-1.716h1.09c0 .449.147.808.44 1.078.293.269.685.404 1.177.404.524 0 .924-.137 1.202-.41.277-.274.416-.666.416-1.178 0-.496-.153-.877-.457-1.142-.305-.266-.745-.403-1.319-.411h-.814v-.884ZM271.021 502.238h-5.736v-.978l2.842-3.1c.41-.457.702-.839.876-1.145.174-.307.261-.615.261-.923 0-.406-.115-.735-.343-.985-.229-.25-.536-.375-.923-.375-.461 0-.818.141-1.072.422-.254.282-.381.666-.381 1.155h-1.424c0-.52.118-.988.355-1.404a2.436 2.436 0 0 1 1.013-.969c.44-.231.947-.346 1.521-.346.828 0 1.481.208 1.96.624.478.416.718.991.718 1.725 0 .426-.121.873-.361 1.339-.24.467-.634.997-1.181 1.591l-2.085 2.233h3.96v1.136ZM276.92 499.197h1.06v1.143h-1.06v1.898h-1.424v-1.898h-3.685l-.041-.867 3.679-5.766h1.471v5.49Zm-3.656 0h2.232v-3.562l-.105.187-2.127 3.375ZM283.342 495.898l.041.663c.445-.52 1.055-.78 1.828-.78.848 0 1.428.324 1.74.973.461-.649 1.11-.973 1.945-.973.7 0 1.22.194 1.562.58.342.387.517.957.524 1.711v4.166h-1.423v-4.125c0-.402-.088-.697-.264-.884-.176-.188-.467-.282-.873-.282-.324 0-.589.087-.794.261a1.375 1.375 0 0 0-.431.683l.006 4.347h-1.424v-4.172c-.019-.746-.4-1.119-1.142-1.119-.571 0-.975.233-1.213.698v4.593H282v-6.34h1.342ZM292.18 499.01c0-.621.123-1.181.369-1.679a2.693 2.693 0 0 1 1.037-1.148c.445-.268.957-.402 1.535-.402.856 0 1.55.276 2.083.826.533.551.821 1.282.864 2.192l.006.334c0 .625-.12 1.183-.36 1.676a2.66 2.66 0 0 1-1.031 1.142c-.448.27-.964.404-1.55.404-.895 0-1.611-.297-2.148-.893-.537-.596-.805-1.39-.805-2.382v-.07Zm1.424.123c0 .652.134 1.163.404 1.532.269.369.644.554 1.125.554.48 0 .854-.188 1.122-.563.267-.375.401-.924.401-1.646 0-.641-.137-1.149-.413-1.524a1.318 1.318 0 0 0-1.122-.562c-.465 0-.834.184-1.107.554-.274.369-.41.92-.41 1.655ZM300.6 495.898l.041.733c.468-.567 1.084-.85 1.845-.85 1.321 0 1.993.756 2.016 2.268v4.189h-1.424v-4.107c0-.402-.087-.7-.261-.894-.173-.193-.458-.29-.852-.29-.574 0-1.002.26-1.283.78v4.511h-1.424v-6.34h1.342ZM307.736 494.357v1.541h1.119v1.055h-1.119v3.539c0 .242.048.417.144.525.096.107.266.161.513.161.164 0 .33-.02.498-.059v1.102c-.325.09-.637.134-.938.134-1.094 0-1.641-.603-1.641-1.81v-3.592h-1.042v-1.055h1.042v-1.541h1.424ZM311.346 496.59a2.228 2.228 0 0 1 1.763-.809c1.352 0 2.037.772 2.057 2.315v4.142h-1.424v-4.09c0-.437-.095-.747-.284-.928-.189-.182-.468-.273-.835-.273-.57 0-.996.254-1.277.762v4.529h-1.424v-9h1.424v3.352ZM320.156 500.516a.644.644 0 0 0-.313-.58c-.209-.133-.556-.25-1.04-.352a5.317 5.317 0 0 1-1.213-.387c-.711-.343-1.067-.842-1.067-1.494 0-.547.231-1.004.692-1.371.461-.367 1.047-.551 1.758-.551.757 0 1.37.188 1.837.563.466.375.7.861.7 1.459h-1.424a.879.879 0 0 0-.305-.683c-.203-.182-.472-.272-.808-.272-.313 0-.568.072-.765.216a.685.685 0 0 0-.296.581c0 .218.092.388.276.509.183.121.554.243 1.113.367.558.123.997.269 1.315.439.319.17.555.374.709.612.154.239.232.528.232.867 0 .571-.237 1.033-.709 1.386-.473.354-1.092.53-1.858.53-.519 0-.982-.093-1.388-.281a2.282 2.282 0 0 1-.95-.773 1.836 1.836 0 0 1-.34-1.061h1.383c.02.336.147.595.381.777.235.181.545.272.932.272.375 0 .66-.071.855-.214a.66.66 0 0 0 .293-.559ZM281.861 510.299l.035.797c.485-.61 1.118-.914 1.899-.914 1.34 0 2.016.755 2.027 2.267v4.19h-1.084v-4.196c-.004-.457-.108-.795-.313-1.013-.205-.219-.525-.328-.958-.328-.352 0-.66.093-.926.281a1.896 1.896 0 0 0-.621.738v4.518h-1.084v-6.34h1.025ZM292.414 511.869h-4.887v-.943h4.887v.943Zm0 2.432h-4.887v-.938h4.887v.938ZM297.494 516.639h-1.09v-7.225l-2.185.803v-.985l3.105-1.166h.17v8.573ZM302.246 511.846h.815c.511-.008.914-.143 1.207-.405.293-.261.439-.615.439-1.06 0-1-.498-1.5-1.494-1.5-.469 0-.843.134-1.122.401-.279.268-.419.622-.419 1.064h-1.084c0-.676.247-1.238.741-1.685.494-.447 1.122-.671 1.884-.671.805 0 1.435.213 1.892.639.457.426.686 1.017.686 1.775 0 .371-.12.731-.36 1.078a2.182 2.182 0 0 1-.982.78c.469.148.831.394 1.087.738s.384.764.384 1.26c0 .765-.25 1.373-.75 1.822-.5.449-1.15.674-1.951.674-.801 0-1.452-.217-1.954-.651-.502-.433-.753-1.005-.753-1.716h1.09c0 .449.146.808.439 1.078.293.269.686.404 1.178.404.523 0 .924-.137 1.201-.41.277-.274.416-.666.416-1.178 0-.496-.152-.877-.457-1.142-.305-.266-.744-.403-1.318-.411h-.815v-.884ZM26.337 52.044h1.012c.51-.004.915-.137 1.212-.396.3-.26.449-.636.449-1.129 0-.473-.124-.841-.372-1.103-.25-.263-.628-.393-1.139-.393-.446 0-.813.128-1.1.386-.288.257-.431.594-.431 1.008h-1.661c0-.51.135-.975.407-1.395.27-.419.648-.746 1.135-.98a3.682 3.682 0 0 1 1.63-.352c.993 0 1.774.25 2.34.748.569.5.852 1.193.852 2.081 0 .448-.143.868-.428 1.262a2.674 2.674 0 0 1-1.103.892c.546.187.962.481 1.248.882.284.401.426.88.426 1.435 0 .894-.306 1.605-.919 2.133-.613.53-1.418.793-2.416.793-.957 0-1.742-.255-2.352-.766-.61-.51-.916-1.19-.916-2.037h1.661c0 .438.146.793.442 1.067.292.273.688.41 1.185.41.515 0 .92-.137 1.217-.41.296-.274.444-.67.444-1.19 0-.523-.155-.927-.465-1.21-.31-.282-.77-.424-1.38-.424h-.978v-1.312ZM32.82 52.844l.54-5.018h5.345v1.436H34.74l-.273 2.379c.46-.264.98-.397 1.558-.397.949 0 1.685.304 2.212.91.526.606.79 1.421.79 2.447 0 1.011-.293 1.817-.876 2.417-.583.598-1.383.898-2.4.898-.91 0-1.666-.259-2.266-.775-.598-.518-.923-1.2-.973-2.048h1.606c.064.483.237.853.52 1.111.282.257.651.386 1.107.386.51 0 .908-.182 1.194-.547.284-.364.426-.861.426-1.49 0-.606-.157-1.086-.471-1.439-.315-.353-.747-.53-1.3-.53-.3 0-.555.04-.765.12-.21.08-.437.236-.684.468l-1.326-.328ZM46.82 53.589c0 1.431-.268 2.51-.803 3.237-.537.727-1.351 1.09-2.445 1.09-1.075 0-1.886-.354-2.43-1.063-.544-.709-.824-1.757-.837-3.148v-1.723c0-1.43.267-2.504.803-3.22.536-.714 1.352-1.072 2.45-1.072 1.09 0 1.902.348 2.437 1.045.536.698.81 1.742.824 3.131v1.723Zm-1.662-1.86c0-.933-.128-1.619-.383-2.053-.255-.436-.66-.654-1.216-.654-.542 0-.942.206-1.197.62-.255.412-.39 1.055-.403 1.93v2.256c0 .93.13 1.623.39 2.078.26.456.668.684 1.223.684.533 0 .928-.211 1.183-.632.255-.422.39-1.081.403-1.98V51.73ZM31.11 142.635h-6.692v-1.142l3.315-3.616c.479-.533.82-.979 1.022-1.337.203-.357.305-.717.305-1.076 0-.475-.133-.858-.4-1.149-.266-.292-.626-.437-1.077-.437-.538 0-.955.164-1.251.492-.296.328-.444.776-.444 1.347h-1.661c0-.607.137-1.153.413-1.638a2.85 2.85 0 0 1 1.183-1.131c.512-.269 1.104-.403 1.774-.403.965 0 1.728.242 2.287.727.557.486.837 1.157.837 2.014 0 .496-.14 1.018-.421 1.562-.28.545-.74 1.163-1.377 1.856l-2.434 2.605h4.621v1.326ZM38.643 135.307c0 .487-.125.922-.376 1.301a2.613 2.613 0 0 1-1.026.9c.52.241.92.571 1.2.991.28.419.42.893.42 1.422 0 .875-.296 1.568-.888 2.081-.593.513-1.381.769-2.366.769-.989 0-1.78-.257-2.375-.772-.595-.516-.892-1.208-.892-2.078 0-.533.141-1.012.424-1.436.282-.423.678-.75 1.19-.977a2.598 2.598 0 0 1-1.017-.9 2.326 2.326 0 0 1-.372-1.301c0-.848.274-1.521.82-2.017.548-.497 1.286-.745 2.216-.745.934 0 1.674.248 2.221.745.547.496.82 1.169.82 2.017Zm-1.443 4.532c0-.492-.147-.89-.44-1.193-.295-.303-.683-.455-1.166-.455-.484 0-.87.151-1.159.452-.29.3-.434.699-.434 1.196 0 .487.143.877.427 1.169.285.291.678.437 1.18.437.5 0 .892-.141 1.171-.424.282-.283.421-.676.421-1.182Zm-.212-4.471c0-.433-.125-.79-.376-1.07-.25-.28-.588-.42-1.011-.42-.424 0-.76.133-1.005.399-.246.267-.37.63-.37 1.091 0 .455.125.818.374 1.087.248.269.584.403 1.007.403.424 0 .76-.134 1.008-.403.25-.269.373-.632.373-1.087ZM46.82 138.444c0 1.431-.268 2.51-.803 3.237-.537.727-1.351 1.09-2.445 1.09-1.075 0-1.886-.354-2.43-1.063-.544-.708-.824-1.758-.837-3.147v-1.723c0-1.432.267-2.505.803-3.22.536-.716 1.352-1.073 2.45-1.073 1.09 0 1.902.349 2.437 1.046.536.697.81 1.74.824 3.131v1.722Zm-1.662-1.859c0-.935-.128-1.619-.383-2.055-.255-.434-.66-.652-1.216-.652-.542 0-.942.206-1.197.618-.255.413-.39 1.057-.403 1.932v2.256c0 .929.13 1.622.39 2.078.26.455.668.683 1.223.683.533 0 .928-.211 1.183-.633.255-.42.39-1.081.403-1.978v-2.249ZM31.11 227.455h-6.692v-1.142l3.315-3.616c.479-.533.82-.978 1.022-1.336.203-.358.305-.716.305-1.077 0-.473-.134-.856-.4-1.148-.267-.291-.626-.438-1.077-.438-.538 0-.955.164-1.251.492-.297.329-.444.778-.444 1.347h-1.661c0-.605.137-1.151.413-1.637.276-.485.67-.862 1.182-1.131.513-.269 1.105-.404 1.775-.404.965 0 1.728.243 2.286.729.558.485.838 1.156.838 2.012 0 .498-.14 1.018-.421 1.563-.28.544-.74 1.163-1.377 1.855l-2.434 2.605h4.621v1.326ZM36.872 227.455h-1.654v-7.996l-2.44.832v-1.395l3.882-1.428h.212v9.987ZM46.82 223.265c0 1.431-.268 2.509-.804 3.237-.535.727-1.35 1.09-2.444 1.09-1.076 0-1.886-.355-2.43-1.063-.544-.709-.824-1.758-.837-3.148v-1.723c0-1.43.267-2.504.802-3.22.537-.714 1.353-1.073 2.452-1.073 1.089 0 1.901.349 2.436 1.046.536.697.81 1.741.824 3.131v1.723Zm-1.662-1.86c0-.933-.128-1.619-.383-2.053-.255-.436-.66-.654-1.216-.654-.543 0-.942.206-1.197.619-.256.413-.39 1.056-.403 1.931v2.256c0 .93.13 1.623.39 2.078.26.456.667.684 1.223.684.533 0 .927-.211 1.183-.632.255-.422.39-1.081.403-1.98v-2.249ZM28.915 312.344h-1.654v-7.996l-2.44.832v-1.395l3.882-1.429h.212v9.988ZM37.993 308.796h1.237v1.333h-1.237v2.215h-1.661v-2.215h-4.3l-.048-1.012 4.293-6.726h1.716v6.405Zm-4.266 0h2.605v-4.156l-.123.218-2.482 3.938ZM46.82 308.153c0 1.432-.268 2.51-.804 3.238-.535.726-1.35 1.089-2.444 1.089-1.076 0-1.886-.354-2.43-1.062-.544-.709-.824-1.758-.837-3.148v-1.723c0-1.431.267-2.504.802-3.22.537-.715 1.353-1.073 2.452-1.073 1.089 0 1.901.349 2.436 1.046.536.697.81 1.741.824 3.131v1.722Zm-1.662-1.859c0-.934-.128-1.619-.383-2.054-.255-.435-.66-.653-1.216-.653-.543 0-.942.206-1.197.619-.256.412-.39 1.056-.403 1.931v2.256c0 .929.13 1.623.39 2.078.26.456.667.683 1.223.683.533 0 .927-.211 1.183-.632.255-.421.39-1.081.403-1.979v-2.249ZM37.862 388.168l-3.978 9.03H32.14l3.971-8.62h-5.147v-1.333h6.897v.923ZM45.683 393.008c0 1.431-.268 2.51-.804 3.237-.535.727-1.35 1.09-2.444 1.09-1.076 0-1.885-.354-2.43-1.063-.544-.708-.823-1.757-.837-3.148v-1.723c0-1.43.267-2.504.803-3.219.536-.715 1.352-1.074 2.45-1.074 1.09 0 1.902.349 2.437 1.046.537.698.81 1.742.825 3.131v1.723Zm-1.661-1.86c0-.933-.128-1.619-.383-2.053-.256-.436-.662-.654-1.217-.654-.543 0-.941.206-1.196.62-.256.412-.39 1.055-.404 1.93v2.256c0 .93.13 1.623.39 2.078.26.456.667.684 1.223.684.534 0 .927-.211 1.183-.632.255-.422.39-1.081.404-1.98v-2.249ZM44.546 474.567c0 1.432-.268 2.51-.804 3.238-.535.726-1.35 1.09-2.443 1.09-1.076 0-1.886-.355-2.43-1.063-.545-.709-.824-1.758-.838-3.148v-1.723c0-1.431.268-2.504.803-3.22.536-.715 1.352-1.073 2.451-1.073 1.089 0 1.902.349 2.437 1.046.536.697.81 1.741.824 3.131v1.722Zm-1.661-1.859c0-.934-.128-1.619-.383-2.054-.256-.435-.661-.653-1.217-.653-.543 0-.941.206-1.196.619-.256.412-.39 1.056-.404 1.931v2.256c0 .929.13 1.623.39 2.078.26.456.667.683 1.224.683.533 0 .927-.211 1.182-.631.255-.422.39-1.082.404-1.98v-2.249Z" fill="#626469"/><path d="M107.303 155.706c9.888 0 17.916 8.028 17.916 17.916v302.099h-36V173.79c0-9.981 8.103-18.084 18.084-18.084Z" fill="#E2E7EA"/><path d="M279.72 65.792h1.552c1.231 0 1.846-.603 1.846-1.808 0-.468-.146-.85-.439-1.147-.293-.296-.707-.444-1.241-.444-.436 0-.815.127-1.137.38-.322.254-.484.57-.484.948h-3.292c0-.748.209-1.416.625-2.002.417-.586.996-1.043 1.734-1.372a5.941 5.941 0 0 1 2.437-.494c1.582 0 2.825.362 3.731 1.084.905.723 1.357 1.716 1.357 2.979 0 .612-.187 1.19-.561 1.734-.374.543-.92.985-1.636 1.324.755.273 1.348.688 1.777 1.245.43.556.645 1.245.645 2.065 0 1.27-.488 2.285-1.465 3.047-.977.762-2.26 1.143-3.848 1.143a6.31 6.31 0 0 1-2.593-.533c-.797-.354-1.402-.845-1.812-1.474-.41-.628-.615-1.343-.615-2.144h3.311c0 .437.176.814.528 1.133.351.32.784.479 1.298.479.58 0 1.041-.162 1.387-.484.345-.322.518-.734.518-1.235 0-.716-.18-1.224-.537-1.524-.359-.3-.854-.449-1.485-.449h-1.601v-2.451ZM295.591 74.278h-3.301V63.77l-3.243.948v-2.5l6.241-2.158h.303v14.22ZM307.829 59.853v2.588h-.146c-1.231 0-2.242.295-3.034.884-.791.59-1.277 1.408-1.46 2.457.743-.73 1.68-1.094 2.814-1.094 1.23 0 2.21.45 2.939 1.348.729.899 1.094 2.076 1.094 3.535a4.98 4.98 0 0 1-.64 2.49 4.552 4.552 0 0 1-1.787 1.773c-.765.427-1.613.64-2.545.64-1.008 0-1.91-.23-2.705-.689a4.725 4.725 0 0 1-1.855-1.968c-.442-.852-.671-1.836-.684-2.949V67.55c0-1.465.315-2.782.943-3.951a6.836 6.836 0 0 1 2.69-2.75c1.166-.663 2.458-.995 3.878-.995h.498Zm-2.97 7.355c-.435 0-.8.1-1.093.303-.293.2-.511.449-.655.742v.986c0 1.797.622 2.696 1.866 2.696.502 0 .919-.225 1.255-.674.335-.45.503-1.013.503-1.69 0-.696-.171-1.264-.512-1.704-.342-.44-.796-.659-1.364-.659Z" fill="#6D868E"/><path d="M263.105 83.393c0-.736.099-1.443.296-2.12a6.18 6.18 0 0 1 .881-1.845c.391-.554.796-.945 1.216-1.172l.186.596c-.475.364-.866.92-1.169 1.67-.305.748-.472 1.586-.501 2.514l-.005.415c0 1.257.229 2.347.688 3.272.278.553.606.986.987 1.299l-.186.551c-.433-.241-.846-.644-1.24-1.21-.768-1.107-1.153-2.43-1.153-3.97ZM271.123 86.278h-4.658v-.65l2.461-2.734c.365-.413.616-.749.755-1.008.137-.258.207-.527.207-.803 0-.371-.113-.676-.337-.913-.225-.237-.524-.356-.899-.356-.449 0-.798.127-1.047.382-.249.256-.374.612-.374 1.068h-.903c0-.655.211-1.184.633-1.587.421-.404.985-.606 1.691-.606.661 0 1.184.174 1.568.52.384.348.576.808.576 1.385 0 .7-.445 1.533-1.338 2.5l-1.904 2.065h3.569v.737ZM276.74 86.278h-4.658v-.65l2.461-2.734c.365-.413.616-.749.755-1.008.138-.258.207-.527.207-.803 0-.371-.112-.676-.337-.913-.225-.237-.523-.356-.898-.356-.45 0-.798.127-1.047.382-.249.256-.374.612-.374 1.068h-.904c0-.655.211-1.184.633-1.587.421-.404.985-.606 1.692-.606.661 0 1.183.174 1.567.52.385.348.576.808.576 1.385 0 .7-.445 1.533-1.338 2.5l-1.904 2.065h3.569v.737ZM282.008 81.024c0 .355-.094.671-.28.948a1.922 1.922 0 0 1-.76.65c.371.158.665.392.882.697.215.306.324.653.324 1.04 0 .616-.207 1.106-.622 1.47-.415.364-.961.547-1.639.547-.684 0-1.231-.184-1.642-.549-.413-.367-.619-.855-.619-1.468 0-.383.106-.73.316-1.04.21-.31.5-.544.871-.703a1.863 1.863 0 0 1-.747-.65 1.676 1.676 0 0 1-.274-.942c0-.598.193-1.074.577-1.425.384-.352.89-.528 1.518-.528.625 0 1.131.176 1.517.528.385.351.578.827.578 1.425Zm-.737 3.316c0-.398-.126-.72-.378-.972-.253-.25-.582-.376-.99-.376-.406 0-.733.124-.978.371-.246.247-.369.573-.369.977 0 .403.12.72.359.952.239.231.572.347.998.347.424 0 .756-.117.996-.349.241-.233.362-.55.362-.95Zm-1.358-4.527c-.354 0-.642.11-.861.33-.22.22-.33.518-.33.896 0 .361.108.653.325.876.216.224.505.335.866.335s.65-.111.867-.335c.216-.223.324-.515.324-.876s-.112-.656-.336-.884a1.15 1.15 0 0 0-.855-.342ZM283.426 85.805a.57.57 0 0 1 .139-.39c.093-.105.232-.157.417-.157.186 0 .327.052.423.156a.555.555 0 0 1 .144.39c0 .15-.048.276-.144.377-.096.1-.237.151-.423.151-.185 0-.324-.05-.417-.151a.538.538 0 0 1-.139-.376ZM286.359 82.714l.362-3.545h3.642v.835h-2.876l-.215 1.938a2.3 2.3 0 0 1 1.187-.307c.648 0 1.162.214 1.543.641.381.43.571 1.007.571 1.737 0 .732-.197 1.31-.593 1.73-.395.422-.948.633-1.658.633-.628 0-1.14-.174-1.538-.523-.396-.348-.623-.83-.679-1.445h.855c.056.407.2.714.435.921.234.206.543.31.927.31.42 0 .75-.144.99-.43.239-.286.358-.682.358-1.187 0-.475-.129-.857-.388-1.144-.259-.29-.603-.433-1.033-.433-.394 0-.703.086-.928.26l-.239.194-.723-.185ZM291.622 87.694l-.513-.351c.307-.427.466-.866.479-1.319v-.815h.884v.708c0 .33-.08.657-.242.986-.161.33-.364.593-.608.791ZM299.81 83.89h.986v.738h-.986v1.65h-.909v-1.65h-3.237v-.532l3.184-4.927h.962v4.722Zm-3.121 0h2.212v-3.486l-.107.196-2.105 3.29ZM306.069 83.246c0 1.058-.18 1.844-.542 2.359-.361.514-.925.771-1.694.771-.759 0-1.32-.252-1.685-.754-.364-.504-.553-1.255-.566-2.254v-1.206c0-1.045.181-1.821.542-2.329.361-.508.928-.762 1.699-.762.765 0 1.328.245 1.69.735.361.49.547 1.246.556 2.268v1.172Zm-.903-1.235c0-.765-.107-1.322-.322-1.672-.215-.35-.555-.525-1.021-.525-.462 0-.799.173-1.011.522-.211.349-.32.884-.327 1.606v1.446c0 .768.112 1.336.334 1.7.224.368.562.55 1.014.55.446 0 .777-.172.994-.517.216-.345.329-.889.339-1.63v-1.48ZM311.816 79.677l-2.944 6.601h-.947l2.934-6.367h-3.847v-.742h4.804v.508ZM312.957 85.805a.57.57 0 0 1 .139-.39c.093-.105.232-.157.418-.157.185 0 .326.052.422.156a.555.555 0 0 1 .144.39c0 .15-.048.276-.144.377-.096.1-.237.151-.422.151-.186 0-.325-.05-.418-.151a.538.538 0 0 1-.139-.376ZM315.891 82.714l.361-3.545h3.643v.835h-2.876l-.215 1.938a2.293 2.293 0 0 1 1.186-.307c.648 0 1.162.214 1.543.641.381.43.571 1.007.571 1.737 0 .732-.198 1.31-.592 1.73-.397.422-.948.633-1.658.633-.628 0-1.141-.174-1.539-.523-.397-.348-.623-.83-.678-1.445h.854c.056.407.2.714.435.921.234.206.544.31.928.31.419 0 .75-.144.988-.43.24-.286.359-.682.359-1.187 0-.475-.129-.857-.389-1.144-.257-.29-.602-.433-1.032-.433-.393 0-.703.086-.927.26l-.24.194-.722-.185ZM323.271 83.441a7.49 7.49 0 0 1-.287 2.087 6.145 6.145 0 0 1-.873 1.844c-.392.564-.803.964-1.233 1.201l-.19-.551c.5-.384.904-.981 1.208-1.79.304-.81.459-1.707.466-2.693v-.156c0-.684-.071-1.32-.215-1.907a6.418 6.418 0 0 0-.598-1.58c-.255-.465-.542-.828-.861-1.088l.19-.552c.43.237.839.635 1.227 1.191.39.557.681 1.17.875 1.841.194.671.291 1.389.291 2.153Z" fill="#63656A"/><path d="M85.613 502.238v-8.531h2.924c.965 0 1.7.193 2.203.58.504.387.756.963.756 1.729 0 .39-.105.742-.316 1.054-.211.313-.52.555-.926.727.46.125.817.36 1.07.706.251.346.377.761.377 1.245 0 .801-.257 1.416-.77 1.846-.514.429-1.25.644-2.206.644h-3.112Zm1.483-4.939h1.453c.46 0 .821-.105 1.08-.314.26-.209.39-.505.39-.887 0-.422-.12-.727-.36-.914-.24-.188-.614-.282-1.122-.282h-1.441v2.397Zm0 1.09v2.666h1.646c.465 0 .828-.116 1.09-.346.262-.23.393-.551.393-.961 0-.887-.453-1.34-1.36-1.359h-1.77ZM96.834 502.238c-.063-.121-.117-.318-.164-.591a2.218 2.218 0 0 1-1.664.708c-.637 0-1.156-.181-1.559-.544a1.745 1.745 0 0 1-.603-1.348c0-.676.25-1.194.753-1.556.502-.361 1.22-.542 2.153-.542h.873v-.416c0-.328-.092-.591-.275-.788-.184-.197-.463-.296-.838-.296-.325 0-.59.081-.797.243a.755.755 0 0 0-.31.619h-1.425c0-.348.116-.673.346-.976.23-.303.544-.54.94-.712a3.301 3.301 0 0 1 1.328-.258c.742 0 1.334.187 1.775.56.442.373.668.897.68 1.573v2.859c0 .571.08 1.026.24 1.366v.099h-1.453Zm-1.565-1.025c.282 0 .546-.068.794-.205a1.37 1.37 0 0 0 .56-.551v-1.195h-.767c-.528 0-.924.092-1.19.275a.892.892 0 0 0-.398.779c0 .274.09.492.272.654.182.162.425.243.73.243ZM103.094 500.516a.645.645 0 0 0-.314-.58c-.209-.133-.555-.25-1.04-.352a5.35 5.35 0 0 1-1.213-.387c-.71-.343-1.066-.842-1.066-1.494 0-.547.23-1.004.691-1.371.461-.367 1.047-.551 1.758-.551.758 0 1.37.188 1.837.563.467.375.7.861.7 1.459h-1.424a.878.878 0 0 0-.304-.683c-.203-.182-.473-.272-.809-.272-.312 0-.567.072-.764.216a.683.683 0 0 0-.296.581c0 .218.091.388.275.509.184.121.555.243 1.113.367.559.123.997.269 1.316.439.318.17.554.374.709.612.154.239.231.528.231.867 0 .571-.236 1.033-.709 1.386-.473.354-1.092.53-1.857.53-.52 0-.983-.093-1.389-.281a2.283 2.283 0 0 1-.95-.773 1.832 1.832 0 0 1-.339-1.061h1.383c.019.336.146.595.381.777.234.181.545.272.931.272.375 0 .66-.071.856-.214a.662.662 0 0 0 .293-.559ZM108.523 502.355c-.902 0-1.633-.284-2.194-.852-.56-.568-.841-1.325-.841-2.271v-.175c0-.633.122-1.199.366-1.697a2.795 2.795 0 0 1 1.029-1.163 2.719 2.719 0 0 1 1.476-.416c.864 0 1.531.276 2.001.826.471.551.706 1.331.706 2.338v.575h-4.142c.043.523.218.937.524 1.242.307.304.693.457 1.157.457.653 0 1.184-.264 1.594-.791l.768.732a2.564 2.564 0 0 1-1.017.882 3.182 3.182 0 0 1-1.427.313Zm-.169-5.431c-.391 0-.707.137-.947.41-.24.273-.393.654-.46 1.143h2.713v-.106c-.031-.476-.158-.837-.381-1.081-.222-.244-.531-.366-.925-.366ZM113.686 502.238h-1.424v-9h1.424v9ZM115.238 494.252c0-.219.07-.4.208-.545.139-.144.337-.217.595-.217.258 0 .457.073.598.217.14.145.211.326.211.545a.734.734 0 0 1-.211.536c-.141.143-.34.214-.598.214-.258 0-.456-.071-.595-.214a.74.74 0 0 1-.208-.536Zm1.512 7.986h-1.424v-6.34h1.424v6.34ZM119.623 495.898l.041.733c.469-.567 1.084-.85 1.846-.85 1.32 0 1.992.756 2.015 2.268v4.189h-1.423v-4.107c0-.402-.087-.7-.261-.894-.174-.193-.458-.29-.853-.29-.574 0-1.002.26-1.283.78v4.511h-1.424v-6.34h1.342ZM127.766 502.355c-.903 0-1.634-.284-2.195-.852-.56-.568-.841-1.325-.841-2.271v-.175c0-.633.123-1.199.367-1.697a2.792 2.792 0 0 1 1.028-1.163 2.722 2.722 0 0 1 1.477-.416c.863 0 1.53.276 2.001.826.47.551.706 1.331.706 2.338v.575h-4.143c.043.523.218.937.524 1.242.307.304.693.457 1.158.457.652 0 1.183-.264 1.593-.791l.768.732a2.564 2.564 0 0 1-1.017.882 3.178 3.178 0 0 1-1.426.313Zm-.17-5.431c-.391 0-.706.137-.947.41-.24.273-.393.654-.46 1.143h2.713v-.106c-.031-.476-.158-.837-.381-1.081-.222-.244-.531-.366-.925-.366ZM96.22 510.299l.036.797c.484-.61 1.117-.914 1.898-.914 1.34 0 2.016.755 2.028 2.267v4.19h-1.084v-4.196c-.004-.457-.109-.795-.314-1.013-.205-.219-.524-.328-.958-.328-.351 0-.66.093-.926.281a1.903 1.903 0 0 0-.62.738v4.518h-1.085v-6.34h1.026ZM106.773 511.869h-4.886v-.943h4.886v.943Zm0 2.432h-4.886v-.938h4.886v.938ZM111.854 516.639h-1.09v-7.225l-2.186.803v-.985l3.106-1.166h.17v8.573ZM116.605 511.846h.815c.512-.008.914-.143 1.207-.405.293-.261.439-.615.439-1.06 0-1-.498-1.5-1.494-1.5-.468 0-.843.134-1.122.401-.279.268-.419.622-.419 1.064h-1.084c0-.676.247-1.238.741-1.685.495-.447 1.123-.671 1.884-.671.805 0 1.436.213 1.893.639.457.426.685 1.017.685 1.775 0 .371-.12.731-.36 1.078-.24.348-.567.608-.981.78.468.148.831.394 1.087.738.255.344.383.764.383 1.26 0 .765-.25 1.373-.75 1.822-.5.449-1.15.674-1.951.674-.801 0-1.452-.217-1.954-.651-.502-.433-.753-1.005-.753-1.716h1.09c0 .449.146.808.439 1.078.293.269.686.404 1.178.404.524 0 .924-.137 1.201-.41.278-.274.416-.666.416-1.178 0-.496-.152-.877-.457-1.142-.304-.266-.744-.403-1.318-.411h-.815v-.884ZM100.634 136.874h-9.923v-2.148l4.57-4.805c1.127-1.283 1.69-2.302 1.69-3.058 0-.611-.133-1.077-.4-1.396-.267-.319-.654-.479-1.162-.479-.502 0-.909.214-1.221.64-.313.427-.469.959-.469 1.597h-3.301a4.672 4.672 0 0 1 2.47-4.151c.776-.416 1.642-.625 2.599-.625 1.536 0 2.72.356 3.55 1.065.83.71 1.245 1.728 1.245 3.056 0 .561-.104 1.106-.312 1.637-.209.53-.532 1.087-.972 1.67-.44.582-1.148 1.362-2.124 2.339l-1.836 2.119h5.596v2.539ZM110.243 122.449v2.588h-.147c-1.23 0-2.24.295-3.032.884-.791.59-1.278 1.408-1.46 2.457.742-.73 1.68-1.095 2.813-1.095 1.23 0 2.21.45 2.939 1.349.728.898 1.094 2.076 1.094 3.535a4.98 4.98 0 0 1-.639 2.49 4.574 4.574 0 0 1-1.787 1.773c-.766.426-1.613.639-2.545.639-1.009 0-1.911-.229-2.705-.688-.795-.459-1.413-1.114-1.856-1.968-.443-.852-.67-1.836-.684-2.949v-1.319c0-1.464.314-2.782.943-3.951a6.831 6.831 0 0 1 2.691-2.749c1.165-.664 2.457-.996 3.877-.996h.498Zm-2.969 7.355c-.437 0-.801.1-1.094.302-.293.202-.511.45-.654.743v.986c0 1.797.621 2.695 1.865 2.695.502 0 .92-.224 1.256-.674.334-.449.502-1.012.502-1.689 0-.696-.17-1.265-.512-1.704-.342-.44-.797-.659-1.363-.659ZM123.761 124.412l-5.314 12.462h-3.476l5.323-11.681h-6.778v-2.539h10.245v1.758ZM90.969 145.988c0-.735.098-1.442.295-2.119a6.16 6.16 0 0 1 .882-1.846c.39-.553.795-.944 1.215-1.171l.186.595c-.475.365-.865.921-1.17 1.67-.304.749-.47 1.587-.5 2.515l-.005.415c0 1.257.23 2.347.689 3.271.276.554.605.987.986 1.299l-.186.552c-.433-.241-.846-.645-1.24-1.211-.768-1.106-1.152-2.43-1.152-3.97ZM98.788 145.842c0 1.057-.18 1.844-.542 2.358-.361.515-.926.772-1.694.772-.759 0-1.32-.252-1.685-.754-.365-.504-.553-1.255-.566-2.254v-1.206c0-1.045.18-1.821.542-2.329.361-.508.927-.762 1.699-.762.765 0 1.328.245 1.69.734.36.491.546 1.246.556 2.269v1.172Zm-.903-1.236c0-.764-.108-1.322-.323-1.671-.214-.351-.555-.526-1.02-.526-.462 0-.8.174-1.01.523-.212.348-.322.883-.328 1.606v1.445c0 .769.111 1.336.335 1.702.223.367.56.549 1.013.549.446 0 .777-.172.993-.517.217-.345.33-.889.34-1.631v-1.48ZM100.009 150.29l-.513-.352c.306-.426.465-.866.479-1.318v-.815h.883v.708c0 .329-.08.657-.241.986a2.302 2.302 0 0 1-.608.791ZM105.695 144.88h.679c.426-.007.762-.119 1.006-.337.245-.218.366-.513.366-.884 0-.833-.414-1.25-1.245-1.25-.391 0-.702.112-.935.334-.233.224-.349.519-.349.887h-.904c0-.564.207-1.031.618-1.404.412-.372.935-.559 1.57-.559.67 0 1.196.178 1.577.532.38.355.572.848.572 1.48 0 .309-.102.608-.301.898-.201.29-.473.506-.818.65.39.124.693.329.906.615.213.286.32.637.32 1.05 0 .637-.209 1.144-.625 1.518-.417.374-.959.562-1.626.562-.668 0-1.21-.181-1.629-.542-.418-.362-.627-.838-.627-1.431h.908c0 .374.122.674.366.898.245.225.572.337.982.337.436 0 .77-.114 1.001-.341.231-.228.346-.555.346-.982 0-.413-.127-.73-.381-.952-.254-.222-.619-.335-1.098-.342h-.679v-.737ZM113.542 141.76v.766h-.166c-.703.013-1.263.222-1.68.625-.417.404-.657.972-.722 1.704.374-.429.885-.644 1.533-.644.618 0 1.112.218 1.481.654.37.437.555.999.555 1.69 0 .732-.199 1.318-.598 1.757-.399.44-.933.66-1.604.66-.681 0-1.233-.262-1.655-.784-.423-.523-.635-1.196-.635-2.019v-.347c0-1.308.279-2.308.838-3.001.557-.691 1.388-1.045 2.492-1.061h.161Zm-1.187 3.203c-.309 0-.593.093-.854.278a1.449 1.449 0 0 0-.542.698v.332c0 .586.132 1.058.396 1.417.263.358.592.537.986.537.407 0 .726-.15.96-.45.232-.299.348-.691.348-1.176 0-.489-.118-.883-.354-1.184a1.13 1.13 0 0 0-.94-.452ZM119.926 143.62c0 .355-.094.671-.281.947-.187.277-.44.494-.759.65.371.159.665.392.882.698.215.306.324.652.324 1.04 0 .615-.207 1.106-.623 1.47-.414.364-.961.547-1.638.547-.684 0-1.231-.184-1.643-.549-.412-.367-.618-.856-.618-1.468 0-.384.106-.73.315-1.04.211-.31.501-.544.872-.703a1.857 1.857 0 0 1-.747-.65 1.665 1.665 0 0 1-.274-.942c0-.599.193-1.074.576-1.426.384-.351.891-.527 1.519-.527.625 0 1.13.176 1.517.527.384.352.578.827.578 1.426Zm-.738 3.316c0-.398-.126-.721-.377-.972-.253-.251-.582-.376-.99-.376-.407 0-.733.124-.979.371-.245.247-.368.573-.368.977 0 .403.12.72.358.952.24.231.572.346.999.346.423 0 .755-.116.996-.348.241-.234.361-.55.361-.95Zm-1.357-4.527c-.354 0-.642.11-.862.33-.219.219-.329.518-.329.896 0 .361.108.653.325.876.216.223.505.335.866.335s.65-.112.866-.335c.217-.223.325-.515.325-.876 0-.362-.112-.657-.336-.884a1.15 1.15 0 0 0-.855-.342ZM123.407 146.037c0 .726-.094 1.422-.286 2.087a6.152 6.152 0 0 1-.873 1.844c-.393.563-.804.964-1.233 1.201l-.191-.552c.501-.384.905-.98 1.209-1.79.304-.808.459-1.706.466-2.692v-.156a8.01 8.01 0 0 0-.215-1.908 6.46 6.46 0 0 0-.598-1.579c-.255-.466-.542-.828-.862-1.089l.191-.551c.429.237.839.634 1.227 1.191.39.557.681 1.17.875 1.841.194.671.29 1.388.29 2.153Z" fill="#626469"/><path d="M321.438 475.836H52.352" stroke="#626469" stroke-miterlimit="10"/><path d="M2.023 163.641H8v1.284H3.484l.422 1.386h-.993l-.89-2.543v-.127ZM4.48 157.429h1.063c.437 0 .816.049 1.136.148.32.096.583.235.791.418.208.181.363.397.464.648.098.249.147.525.147.829 0 .243-.031.47-.094.681-.063.21-.16.4-.291.57-.134.167-.3.31-.5.43-.2.121-.438.214-.714.279-.276.063-.59.095-.94.095H4.48c-.443 0-.823-.048-1.14-.144a2.121 2.121 0 0 1-.787-.422 1.69 1.69 0 0 1-.46-.648 2.272 2.272 0 0 1-.147-.833c0-.243.031-.469.094-.677.063-.21.16-.4.291-.57.131-.169.297-.313.496-.431.2-.12.438-.211.714-.274.273-.066.587-.099.94-.099Zm1.223 1.28h-1.39c-.206 0-.384.012-.534.037a1.644 1.644 0 0 0-.39.098.764.764 0 0 0-.258.156.57.57 0 0 0-.144.217.684.684 0 0 0-.049.263.618.618 0 0 0 .308.566c.104.066.244.116.422.152.175.033.39.049.644.049h1.39c.206 0 .385-.011.538-.033.153-.024.284-.057.394-.098a.876.876 0 0 0 .262-.16.573.573 0 0 0 .144-.218.768.768 0 0 0 .045-.266.704.704 0 0 0-.07-.32.63.63 0 0 0-.234-.238 1.248 1.248 0 0 0-.43-.152 3.41 3.41 0 0 0-.648-.053ZM6.978 155.147l.837.008c.317 0 .633.078.947.234.317.156.577.351.78.586l-.324.657a42.307 42.307 0 0 1-.382-.193 2.034 2.034 0 0 0-.418-.168 1.838 1.838 0 0 0-.538-.07h-.902v-1.054ZM2.023 151.023H8v1.284H3.484l.422 1.386h-.993l-.89-2.543v-.127ZM2.023 145.923H8v1.284H3.484l.422 1.386h-.993l-.89-2.543v-.127ZM6.978 142.529l.837.008c.317 0 .633.078.947.234.317.156.577.352.78.587l-.324.656a42.307 42.307 0 0 1-.382-.193 2.092 2.092 0 0 0-.418-.168 1.873 1.873 0 0 0-.538-.07h-.902v-1.054ZM2.023 138.405H8v1.284H3.484l.422 1.386h-.993l-.89-2.543v-.127ZM4.468 135.04v-.652a.95.95 0 0 0-.098-.459.606.606 0 0 0-.28-.271.936.936 0 0 0-.422-.09.82.82 0 0 0-.373.082.596.596 0 0 0-.258.25.822.822 0 0 0-.099.427.87.87 0 0 0 .078.361.67.67 0 0 0 .217.274.538.538 0 0 0 .337.107v1.284a1.41 1.41 0 0 1-.866-.271 1.776 1.776 0 0 1-.562-.726 2.428 2.428 0 0 1-.2-.993c0-.412.065-.775.196-1.086.129-.315.32-.558.575-.731.251-.175.563-.262.935-.262.194 0 .381.046.562.139.177.091.336.221.475.39.137.167.246.366.328.599.08.23.12.485.12.767v.861h-.665Zm.964 0H4.78v-.861c0-.312.035-.591.106-.837a1.84 1.84 0 0 1 .308-.627c.134-.173.297-.304.488-.394.191-.09.405-.135.64-.135a1.569 1.569 0 0 1 1.3.623c.15.197.265.428.345.693.076.265.114.552.114.861 0 .249-.034.497-.102.743a2.164 2.164 0 0 1-.312.668c-.142.2-.321.36-.537.48a1.586 1.586 0 0 1-.78.181v-1.284a.69.69 0 0 0 .378-.107.79.79 0 0 0 .262-.299.94.94 0 0 0 .095-.418.985.985 0 0 0-.099-.46.705.705 0 0 0-.279-.291.797.797 0 0 0-.406-.103c-.207 0-.374.037-.5.111a.62.62 0 0 0-.279.312c-.06.137-.09.301-.09.492v.652Z" fill="#3D5F66"/><path d="M189.266 75.313V81h-1.317v-4.203l-1.297.379v-1l2.493-.864h.121ZM191.191 77.606h.641a.828.828 0 0 0 .402-.087.566.566 0 0 0 .239-.25.892.892 0 0 0 .078-.386.688.688 0 0 0-.074-.317.534.534 0 0 0-.219-.23.722.722 0 0 0-.379-.09.74.74 0 0 0-.305.067.635.635 0 0 0-.246.18.445.445 0 0 0-.094.284h-1.32c0-.323.089-.599.266-.828.179-.232.415-.409.707-.531.294-.125.61-.188.949-.188.404 0 .758.063 1.062.188.305.122.542.305.711.547.172.24.258.536.258.89 0 .196-.045.38-.137.551a1.431 1.431 0 0 1-.382.453 1.92 1.92 0 0 1-.578.309c-.219.073-.459.11-.719.11h-.86v-.672Zm0 .98v-.656h.86c.284 0 .543.032.777.097.234.063.436.157.606.282.169.125.299.28.39.464.091.183.137.392.137.63 0 .265-.053.502-.16.71a1.515 1.515 0 0 1-.449.528 2.123 2.123 0 0 1-.676.328 3.08 3.08 0 0 1-.84.11c-.237 0-.474-.032-.711-.095a2.157 2.157 0 0 1-.648-.296 1.57 1.57 0 0 1-.473-.516 1.532 1.532 0 0 1-.176-.754h1.32c0 .12.033.23.098.328a.785.785 0 0 0 .633.316.86.86 0 0 0 .41-.09.655.655 0 0 0 .352-.597.933.933 0 0 0-.098-.46.556.556 0 0 0-.277-.25 1.088 1.088 0 0 0-.434-.08h-.641Z" fill="#6D868E"/><path d="M322.346 493.5h.776v3.8l-.076.7h-.7v-4.5Zm2.815 2.883v.061c0 .237-.026.453-.079.651a1.53 1.53 0 0 1-.231.512 1.099 1.099 0 0 1-.387.334 1.148 1.148 0 0 1-.536.118c-.196 0-.366-.038-.51-.115a1.016 1.016 0 0 1-.36-.322 1.801 1.801 0 0 1-.235-.495 3.933 3.933 0 0 1-.132-.627v-.167c.03-.229.074-.437.132-.627.059-.189.137-.354.235-.495.097-.141.217-.249.36-.325a1.06 1.06 0 0 1 .504-.115c.207 0 .388.041.542.121.156.078.285.189.387.334.103.142.18.312.231.509.053.196.079.411.079.648Zm-.776.061v-.061c0-.135-.011-.262-.032-.381a1.078 1.078 0 0 0-.106-.319.564.564 0 0 0-.199-.217.585.585 0 0 0-.317-.079.603.603 0 0 0-.521.231.826.826 0 0 0-.129.255 1.61 1.61 0 0 0-.059.316v.457c.014.151.046.287.097.408a.65.65 0 0 0 .226.284c.101.07.232.105.392.105.125 0 .23-.024.314-.073a.547.547 0 0 0 .199-.211c.049-.092.083-.198.103-.319.021-.121.032-.253.032-.396Z" fill="#626469"/></svg>