<svg width="328" height="350" viewBox="0 0 328 350" fill="none" xmlns="http://www.w3.org/2000/svg">
<path d="M68.2119 146.716H77.5118" stroke="#626469" stroke-miterlimit="10"/>
<path d="M68.2119 85.3096H77.5118" stroke="#626469" stroke-miterlimit="10"/>
<path d="M68.5566 208.407H77.8565" stroke="#626469" stroke-miterlimit="10"/>
<path d="M49.5967 144.049H50.4639C50.9014 144.045 51.249 143.932 51.5049 143.709C51.7608 143.486 51.8877 143.164 51.8877 142.742C51.8877 142.336 51.7822 142.021 51.5693 141.796C51.3565 141.571 51.0303 141.459 50.5928 141.459C50.21 141.459 49.8955 141.569 49.6494 141.79C49.4033 142.011 49.2803 142.299 49.2803 142.654H47.8565C47.8565 142.217 47.9736 141.818 48.2061 141.459C48.4385 141.1 48.7627 140.819 49.1787 140.618C49.5947 140.417 50.0596 140.316 50.5752 140.316C51.4268 140.316 52.0967 140.53 52.583 140.958C53.0693 141.386 53.3115 141.98 53.3115 142.742C53.3115 143.125 53.1904 143.485 52.9463 143.823C52.7022 144.161 52.3858 144.416 51.999 144.588C52.4678 144.748 52.8252 145 53.0693 145.344C53.3135 145.688 53.4346 146.098 53.4346 146.574C53.4346 147.34 53.1729 147.949 52.6475 148.402C52.1221 148.855 51.4307 149.082 50.5752 149.082C49.7549 149.082 49.083 148.863 48.5596 148.426C48.0361 147.988 47.7744 147.406 47.7744 146.68H49.1982C49.1982 147.055 49.3252 147.359 49.5772 147.594C49.8291 147.828 50.167 147.945 50.5928 147.945C51.0342 147.945 51.3818 147.828 51.6357 147.594C51.8897 147.359 52.0166 147.02 52.0166 146.574C52.0166 146.125 51.8838 145.779 51.6182 145.537C51.3525 145.295 50.958 145.174 50.4346 145.174H49.5967V144.049Z" fill="#626469"/>
<path d="M60.331 145.373C60.331 146.6 60.1025 147.524 59.6435 148.147C59.1846 148.771 58.4853 149.082 57.5478 149.082C56.626 149.082 55.9326 148.778 55.4658 148.171C54.999 147.563 54.7588 146.664 54.7471 145.473V143.996C54.7471 142.77 54.9775 141.85 55.4365 141.236C55.8955 140.623 56.5947 140.316 57.5361 140.316C58.4697 140.316 59.167 140.615 59.626 141.213C60.0849 141.811 60.3193 142.705 60.331 143.896V145.373ZM58.9072 143.779C58.9072 142.979 58.7978 142.392 58.5791 142.019C58.3604 141.646 58.0127 141.459 57.5361 141.459C57.0713 141.459 56.7295 141.636 56.5107 141.989C56.292 142.343 56.1768 142.895 56.165 143.645V145.578C56.165 146.375 56.2764 146.969 56.499 147.359C56.7217 147.75 57.0713 147.945 57.5478 147.945C58.0049 147.945 58.3428 147.765 58.5615 147.403C58.7803 147.042 58.8955 146.477 58.9072 145.707V143.779Z" fill="#626469"/>
<path d="M52.7666 84.5664H53.8272V85.709H52.7666V87.6074H51.3428V85.709H47.6572L47.6162 84.8418L51.2959 79.0762H52.7666L52.7666 84.5664ZM49.1104 84.5664H51.3428V81.0039L51.2373 81.1914L49.1104 84.5664Z" fill="#626469"/>
<path d="M55.1514 83.377L55.6143 79.0762H60.1963V80.3066H56.7979L56.5635 82.3457C56.958 82.1191 57.4033 82.0059 57.8994 82.0059C58.7119 82.0059 59.3447 82.2656 59.7959 82.7852C60.2471 83.3047 60.4717 84.0039 60.4717 84.8828C60.4717 85.75 60.2217 86.4404 59.7217 86.9541C59.2217 87.4678 58.5361 87.7246 57.665 87.7246C56.8838 87.7246 56.2373 87.5029 55.7236 87.0596C55.21 86.6162 54.9307 86.0313 54.8877 85.3047H56.2646C56.3193 85.7188 56.4678 86.0362 56.71 86.2569C56.9521 86.4776 57.2685 86.5879 57.6592 86.5879C58.0967 86.5879 58.4385 86.4316 58.6826 86.1191C58.9268 85.8066 59.0478 85.3809 59.0478 84.8418C59.0478 84.3223 58.9131 83.9112 58.6435 83.6084C58.374 83.3057 58.0029 83.1543 57.5303 83.1543C57.2725 83.1543 57.0537 83.1885 56.874 83.2569C56.6943 83.3252 56.499 83.459 56.2881 83.6582L55.1514 83.377Z" fill="#626469"/>
<path d="M51.3809 210.338H49.9629V203.484L47.8711 204.197V203.002L51.1992 201.777H51.3809L51.3809 210.338Z" fill="#626469"/>
<path d="M54.7266 206.107L55.1895 201.807H59.7715V203.037H56.373L56.1387 205.076C56.5332 204.85 56.9785 204.736 57.4746 204.736C58.2871 204.736 58.9189 204.996 59.3701 205.516C59.8213 206.035 60.0469 206.734 60.0469 207.613C60.0469 208.48 59.7969 209.171 59.2969 209.685C58.7969 210.198 58.1113 210.455 57.2402 210.455C56.459 210.455 55.8115 210.233 55.2979 209.79C54.7842 209.347 54.5059 208.762 54.4629 208.035H55.8398C55.8945 208.449 56.043 208.767 56.2852 208.987C56.5273 209.208 56.8437 209.318 57.2344 209.318C57.6719 209.318 58.0127 209.162 58.2568 208.85C58.501 208.537 58.623 208.111 58.623 207.572C58.623 207.053 58.4883 206.642 58.2187 206.339C57.9492 206.036 57.5781 205.885 57.1055 205.885C56.8477 205.885 56.6289 205.919 56.4492 205.987C56.2695 206.056 56.0742 206.189 55.8633 206.389L54.7266 206.107Z" fill="#626469"/>
<path d="M59.208 269C59.208 270.227 58.9795 271.151 58.5205 271.774C58.0615 272.397 57.3623 272.709 56.4248 272.709C55.5029 272.709 54.8096 272.405 54.3428 271.798C53.876 271.19 53.6357 270.291 53.624 269.1V267.623C53.624 266.396 53.8545 265.477 54.3135 264.863C54.7725 264.25 55.4717 263.943 56.4131 263.943C57.3467 263.943 58.0439 264.242 58.5029 264.84C58.9619 265.437 59.1963 266.332 59.208 267.523V269ZM57.7842 267.406C57.7842 266.605 57.6748 266.019 57.4561 265.646C57.2373 265.272 56.8896 265.086 56.4131 265.086C55.9482 265.086 55.6064 265.263 55.3877 265.616C55.1689 265.97 55.0537 266.521 55.042 267.271V269.205C55.042 270.002 55.1533 270.596 55.376 270.986C55.5986 271.377 55.9482 271.572 56.4248 271.572C56.8818 271.572 57.2197 271.392 57.4385 271.03C57.6572 270.669 57.7725 270.104 57.7842 269.334V267.406Z" fill="#626469"/>
<path d="M116.621 269.644L116.621 279.38" stroke="#626469" stroke-miterlimit="10"/>
<path d="M177.694 269.59L177.694 279.326" stroke="#626469" stroke-miterlimit="10"/>
<path d="M238.789 269.661L238.789 279.397" stroke="#626469" stroke-miterlimit="10"/>
<path d="M299.84 269.694L299.84 279.431" stroke="#626469" stroke-miterlimit="10"/>
<path d="M149.653 329.374H146.604V337.666H144.554V329.374H141.546V327.713H149.653V329.374Z" fill="#3D5F66"/>
<path d="M154.405 332.122C154.136 332.086 153.899 332.067 153.694 332.067C152.946 332.067 152.456 332.32 152.224 332.826V337.666H150.249V330.27H152.114L152.169 331.151C152.565 330.473 153.115 330.133 153.817 330.133C154.036 330.133 154.241 330.162 154.433 330.222L154.405 332.122Z" fill="#3D5F66"/>
<path d="M158.759 337.803C157.675 337.803 156.792 337.47 156.11 336.805C155.429 336.14 155.089 335.253 155.089 334.146V333.954C155.089 333.211 155.231 332.547 155.519 331.961C155.806 331.376 156.213 330.925 156.739 330.607C157.266 330.291 157.866 330.133 158.54 330.133C159.552 330.133 160.349 330.452 160.93 331.09C161.511 331.728 161.802 332.633 161.802 333.804V334.61H157.091C157.155 335.094 157.348 335.48 157.669 335.772C157.99 336.064 158.397 336.21 158.89 336.21C159.65 336.21 160.245 335.935 160.673 335.383L161.644 336.47C161.348 336.889 160.946 337.216 160.44 337.451C159.935 337.686 159.374 337.803 158.759 337.803ZM158.534 331.726C158.142 331.726 157.823 331.858 157.58 332.124C157.337 332.39 157.181 332.77 157.112 333.264H159.86V333.105C159.851 332.666 159.732 332.326 159.505 332.086C159.276 331.846 158.953 331.726 158.534 331.726Z" fill="#3D5F66"/>
<path d="M167.208 337.666C167.117 337.488 167.052 337.268 167.011 337.003C166.532 337.536 165.909 337.803 165.144 337.803C164.419 337.803 163.819 337.593 163.343 337.174C162.866 336.755 162.628 336.226 162.628 335.588C162.628 334.804 162.919 334.202 163.5 333.783C164.081 333.364 164.921 333.152 166.019 333.147H166.929V332.724C166.929 332.382 166.841 332.108 166.665 331.903C166.489 331.698 166.213 331.596 165.835 331.596C165.502 331.596 165.241 331.676 165.052 331.835C164.862 331.994 164.769 332.213 164.769 332.491H162.792C162.792 332.063 162.925 331.666 163.188 331.302C163.453 330.937 163.827 330.651 164.31 330.443C164.793 330.236 165.335 330.133 165.937 330.133C166.849 330.133 167.571 330.361 168.107 330.82C168.644 331.277 168.911 331.922 168.911 332.751V335.957C168.915 336.659 169.013 337.189 169.204 337.55V337.666L167.208 337.666ZM165.575 336.292C165.866 336.292 166.136 336.227 166.382 336.098C166.628 335.967 166.81 335.793 166.929 335.574V334.303H166.19C165.201 334.303 164.675 334.645 164.61 335.328L164.605 335.444C164.605 335.69 164.69 335.894 164.864 336.053C165.037 336.212 165.274 336.292 165.575 336.292Z" fill="#3D5F66"/>
<path d="M172.794 328.451V330.27H174.058V331.719H172.794V335.41C172.794 335.684 172.846 335.88 172.95 335.998C173.056 336.116 173.256 336.176 173.552 336.176C173.771 336.176 173.965 336.16 174.134 336.128V337.625C173.746 337.743 173.347 337.803 172.937 337.803C171.552 337.803 170.845 337.104 170.817 335.704V331.719H169.737V330.27H170.817V328.451H172.794Z" fill="#3D5F66"/>
<path d="M177.011 330.27L177.073 331.097C177.597 330.454 178.306 330.133 179.198 330.133C180.151 330.133 180.806 330.509 181.161 331.261C181.681 330.509 182.421 330.133 183.382 330.133C184.185 330.133 184.781 330.366 185.173 330.834C185.565 331.301 185.761 332.004 185.761 332.942V337.666H183.778V332.949C183.778 332.53 183.696 332.224 183.532 332.029C183.368 331.836 183.079 331.739 182.665 331.739C182.072 331.739 181.662 332.021 181.435 332.587L181.44 337.666H179.466V332.956C179.466 332.527 179.381 332.218 179.212 332.026C179.044 331.835 178.757 331.739 178.351 331.739C177.79 331.739 177.385 331.972 177.134 332.437V337.666H175.159V330.27H177.011Z" fill="#3D5F66"/>
<path d="M190.683 337.803C189.599 337.803 188.716 337.47 188.034 336.805C187.353 336.14 187.013 335.253 187.013 334.146V333.954C187.013 333.211 187.155 332.547 187.442 331.961C187.729 331.376 188.137 330.925 188.663 330.607C189.189 330.291 189.79 330.133 190.464 330.133C191.476 330.133 192.272 330.452 192.854 331.09C193.435 331.728 193.726 332.633 193.726 333.804V334.61H189.015C189.079 335.094 189.271 335.48 189.593 335.772C189.914 336.064 190.321 336.21 190.813 336.21C191.574 336.21 192.169 335.935 192.597 335.383L193.567 336.47C193.271 336.889 192.87 337.216 192.364 337.451C191.858 337.686 191.298 337.803 190.683 337.803ZM190.458 331.726C190.065 331.726 189.747 331.858 189.504 332.124C189.261 332.39 189.104 332.77 189.036 333.264H191.784V333.105C191.774 332.666 191.656 332.326 191.429 332.086C191.2 331.846 190.877 331.726 190.458 331.726Z" fill="#3D5F66"/>
<path d="M196.665 330.27L196.726 331.124C197.255 330.463 197.964 330.133 198.853 330.133C199.636 330.133 200.22 330.363 200.603 330.823C200.985 331.283 201.181 331.972 201.19 332.888V337.666H199.214V332.936C199.214 332.517 199.123 332.212 198.94 332.023C198.759 331.834 198.456 331.739 198.032 331.739C197.476 331.739 197.059 331.977 196.78 332.45V337.666H194.806V330.27H196.665Z" fill="#3D5F66"/>
<path d="M205.052 328.451V330.27H206.317V331.719H205.052V335.41C205.052 335.684 205.104 335.88 205.21 335.998C205.314 336.116 205.515 336.176 205.812 336.176C206.03 336.176 206.224 336.16 206.392 336.128V337.625C206.005 337.743 205.606 337.803 205.196 337.803C203.811 337.803 203.105 337.104 203.077 335.704V331.719H201.997V330.27H203.077V328.451H205.052Z" fill="#3D5F66"/>
<path d="M210.597 333.913C210.597 332.76 210.854 331.842 211.372 331.158C211.89 330.475 212.597 330.133 213.495 330.133C214.215 330.133 214.81 330.401 215.278 330.939V327.166H217.261V337.666H215.478L215.382 336.88C214.89 337.495 214.256 337.803 213.481 337.803C212.61 337.803 211.912 337.46 211.386 336.773C210.859 336.088 210.597 335.135 210.597 333.913ZM212.571 334.061C212.571 334.754 212.692 335.286 212.935 335.655C213.176 336.025 213.526 336.21 213.987 336.21C214.598 336.21 215.028 335.952 215.278 335.437V332.513C215.032 331.997 214.606 331.739 214.001 331.739C213.048 331.739 212.571 332.513 212.571 334.061Z" fill="#3D5F66"/>
<path d="M223.222 336.914C222.734 337.507 222.06 337.803 221.198 337.803C220.405 337.803 219.801 337.575 219.384 337.119C218.967 336.663 218.754 335.996 218.745 335.116V330.27H220.72V335.054C220.72 335.824 221.071 336.21 221.772 336.21C222.442 336.21 222.903 335.978 223.153 335.512V330.27H225.136V337.666H223.276L223.222 336.914Z" fill="#3D5F66"/>
<path d="M230.782 332.122C230.514 332.086 230.276 332.067 230.071 332.067C229.324 332.067 228.835 332.32 228.603 332.826V337.666H226.626V330.27H228.493L228.548 331.151C228.944 330.473 229.493 330.133 230.194 330.133C230.413 330.133 230.618 330.162 230.81 330.222L230.782 332.122Z" fill="#3D5F66"/>
<path d="M235.813 337.666C235.723 337.488 235.657 337.268 235.616 337.003C235.138 337.536 234.515 337.803 233.749 337.803C233.024 337.803 232.425 337.593 231.948 337.174C231.472 336.755 231.233 336.226 231.233 335.588C231.233 334.804 231.524 334.202 232.105 333.783C232.687 333.364 233.526 333.152 234.624 333.147H235.534V332.724C235.534 332.382 235.446 332.108 235.271 331.903C235.095 331.698 234.818 331.596 234.44 331.596C234.107 331.596 233.847 331.676 233.657 331.835C233.468 331.994 233.374 332.213 233.374 332.491H231.397C231.397 332.063 231.53 331.666 231.794 331.302C232.059 330.937 232.433 330.651 232.915 330.443C233.398 330.236 233.94 330.133 234.542 330.133C235.454 330.133 236.177 330.361 236.713 330.82C237.249 331.277 237.517 331.922 237.517 332.751V335.957C237.52 336.659 237.618 337.189 237.81 337.55V337.666L235.813 337.666ZM234.181 336.292C234.472 336.292 234.741 336.227 234.987 336.098C235.233 335.967 235.415 335.793 235.534 335.574V334.303H234.796C233.807 334.303 233.28 334.645 233.216 335.328L233.21 335.444C233.21 335.69 233.296 335.894 233.47 336.053C233.643 336.212 233.88 336.292 234.181 336.292Z" fill="#3D5F66"/>
<path d="M241.399 328.451V330.27H242.663V331.719H241.399V335.41C241.399 335.684 241.451 335.88 241.556 335.998C241.661 336.116 241.861 336.176 242.157 336.176C242.376 336.176 242.57 336.16 242.739 336.128V337.625C242.352 337.743 241.952 337.803 241.542 337.803C240.157 337.803 239.45 337.104 239.423 335.704V331.719H238.343V330.27H239.423V328.451H241.399Z" fill="#3D5F66"/>
<path d="M243.751 328.354C243.751 328.059 243.85 327.814 244.048 327.623C244.246 327.432 244.517 327.336 244.858 327.336C245.195 327.336 245.464 327.432 245.665 327.623C245.865 327.814 245.966 328.059 245.966 328.354C245.966 328.655 245.864 328.901 245.661 329.093C245.458 329.284 245.19 329.38 244.858 329.38C244.525 329.38 244.257 329.284 244.055 329.093C243.853 328.901 243.751 328.655 243.751 328.354ZM245.849 337.665H243.866V330.269H245.849V337.665Z" fill="#3D5F66"/>
<path d="M247.169 333.899C247.169 333.166 247.31 332.512 247.593 331.938C247.875 331.363 248.282 330.919 248.812 330.604C249.343 330.29 249.96 330.133 250.661 330.133C251.659 330.133 252.474 330.438 253.105 331.049C253.737 331.659 254.089 332.489 254.161 333.537L254.175 334.043C254.175 335.178 253.858 336.088 253.226 336.773C252.592 337.46 251.741 337.803 250.675 337.803C249.608 337.803 248.758 337.461 248.122 336.777C247.486 336.094 247.169 335.164 247.169 333.988L247.169 333.899ZM249.144 334.04C249.144 334.742 249.276 335.28 249.54 335.652C249.805 336.024 250.183 336.21 250.675 336.21C251.153 336.21 251.527 336.026 251.796 335.659C252.065 335.291 252.2 334.704 252.2 333.896C252.2 333.207 252.065 332.673 251.796 332.294C251.527 331.915 251.149 331.726 250.661 331.726C250.179 331.726 249.805 331.914 249.54 332.29C249.276 332.667 249.144 333.25 249.144 334.04Z" fill="#3D5F66"/>
<path d="M257.21 330.27L257.272 331.124C257.801 330.463 258.509 330.133 259.397 330.133C260.182 330.133 260.765 330.363 261.147 330.823C261.53 331.283 261.727 331.972 261.735 332.888V337.666H259.761V332.936C259.761 332.517 259.669 332.212 259.487 332.023C259.305 331.834 259.001 331.739 258.577 331.739C258.021 331.739 257.604 331.977 257.327 332.45V337.666H255.351V330.27H257.21Z" fill="#3D5F66"/>
<path d="M68.2119 23.3096H77.5118" stroke="#626469" stroke-miterlimit="10"/>
<path d="M52.3799 17.0352V18.2129H52.2041C51.4072 18.2246 50.7705 18.4434 50.2939 18.8691C49.8174 19.2949 49.5342 19.8984 49.4443 20.6797C49.9014 20.1992 50.4853 19.959 51.1963 19.959C51.9502 19.959 52.5459 20.2246 52.9814 20.7559C53.417 21.2871 53.6338 21.9727 53.6338 22.8125C53.6338 23.6797 53.3799 24.3818 52.8701 24.919C52.3603 25.4561 51.6904 25.7246 50.8623 25.7246C50.0107 25.7246 49.3213 25.4102 48.792 24.7813C48.2627 24.1523 47.9971 23.3281 47.9971 22.3086V21.8223C47.9971 20.3262 48.3623 19.1543 49.0908 18.3066C49.8193 17.459 50.8662 17.0352 52.2334 17.0352L52.3799 17.0352ZM50.8506 21.1074C50.5381 21.1074 50.2529 21.1953 49.9932 21.3711C49.7334 21.5469 49.542 21.7813 49.4209 22.0742V22.5078C49.4209 23.1406 49.5537 23.6435 49.8193 24.0166C50.085 24.3896 50.4287 24.5762 50.8506 24.5762C51.2724 24.5762 51.6064 24.418 51.8525 24.1016C52.0986 23.7851 52.2217 23.3691 52.2217 22.8535C52.2217 22.3379 52.0967 21.918 51.8467 21.5937C51.5967 21.2695 51.2646 21.1074 50.8506 21.1074Z" fill="#626469"/>
<path d="M60.331 22.0156C60.331 23.2422 60.1025 24.167 59.6435 24.79C59.1846 25.4131 58.4853 25.7246 57.5478 25.7246C56.626 25.7246 55.9326 25.4209 55.4658 24.8135C54.999 24.2061 54.7588 23.3066 54.7471 22.1152V20.6387C54.7471 19.4121 54.9775 18.4922 55.4365 17.8789C55.8955 17.2656 56.5947 16.959 57.5361 16.959C58.4697 16.959 59.167 17.2578 59.626 17.8555C60.0849 18.4531 60.3193 19.3477 60.331 20.5391V22.0156ZM58.9072 20.4219C58.9072 19.6211 58.7978 19.0342 58.5791 18.6611C58.3604 18.2881 58.0127 18.1016 57.5361 18.1016C57.0713 18.1016 56.7295 18.2783 56.5107 18.6318C56.292 18.9853 56.1768 19.5371 56.165 20.2871V22.2207C56.165 23.0176 56.2764 23.6113 56.499 24.0019C56.7217 24.3926 57.0713 24.5879 57.5478 24.5879C58.0049 24.5879 58.3428 24.4072 58.5615 24.0459C58.7803 23.6846 58.8955 23.1191 58.9072 22.3496V20.4219Z" fill="#626469"/>
<path d="M8.91797 215.332V218.381H17.21V220.432H8.91797V223.439H7.25684V215.332H8.91797Z" fill="#3D5F66"/>
<path d="M7.89942 214.307C7.60254 214.307 7.35938 214.208 7.16797 214.009C6.97656 213.812 6.88086 213.541 6.88086 213.199C6.88086 212.862 6.97656 212.593 7.16797 212.393C7.35938 212.192 7.60254 212.092 7.89942 212.092C8.2002 212.092 8.4463 212.193 8.6377 212.396C8.82911 212.599 8.92481 212.866 8.92481 213.199C8.92481 213.532 8.82911 213.8 8.6377 214.003C8.44629 214.205 8.2002 214.307 7.89942 214.307ZM17.21 212.208V214.19H9.81349V212.208H17.21Z" fill="#3D5F66"/>
<path d="M9.81348 208.729L10.6406 208.667C9.99805 208.143 9.67676 207.435 9.67676 206.541C9.67676 205.589 10.0527 204.935 10.8047 204.579C10.0527 204.06 9.67676 203.319 9.67676 202.357C9.67676 201.556 9.91016 200.958 10.3779 200.566C10.8447 200.175 11.5478 199.979 12.4863 199.979H17.21V201.961H12.4932C12.0732 201.961 11.7676 202.043 11.5732 202.207C11.3799 202.371 11.2832 202.66 11.2832 203.075C11.2832 203.668 11.5654 204.078 12.1309 204.306L17.21 204.299V206.274H12.5C12.0713 206.274 11.7617 206.358 11.5703 206.527C11.3789 206.696 11.2832 206.983 11.2832 207.389C11.2832 207.949 11.5156 208.354 11.9805 208.605H17.21V210.581H9.81348V208.729Z" fill="#3D5F66"/>
<path d="M17.3467 195.056C17.3467 196.141 17.0147 197.023 16.3486 197.705C15.6826 198.386 14.7969 198.727 13.6895 198.727H13.498C12.7549 198.727 12.0908 198.583 11.5049 198.296C10.9199 198.009 10.4688 197.602 10.1514 197.076C9.83496 196.549 9.67676 195.949 9.67676 195.274C9.67676 194.263 9.99512 193.467 10.6338 192.885C11.2725 192.305 12.1768 192.014 13.3477 192.014H14.1543V196.724C14.6377 196.66 15.0244 196.467 15.3164 196.146C15.6084 195.824 15.7539 195.418 15.7539 194.926C15.7539 194.165 15.4775 193.57 14.9268 193.142L16.0137 192.171C16.4326 192.467 16.7598 192.868 16.9951 193.374C17.2295 193.88 17.3467 194.44 17.3467 195.056ZM11.2695 195.281C11.2695 195.673 11.4023 195.991 11.668 196.234C11.9336 196.479 12.3135 196.635 12.8076 196.703V193.955H12.6494C12.21 193.964 11.8701 194.083 11.6299 194.311C11.3897 194.538 11.2695 194.862 11.2695 195.281Z" fill="#3D5F66"/>
<path d="M13.1631 190.804C12.1201 190.804 11.126 190.665 10.1826 190.387C9.23926 190.108 8.4043 189.698 7.67676 189.156C6.9502 188.614 6.44629 188.026 6.16309 187.393L7.2295 187.01C7.72169 187.675 8.48341 188.194 9.5127 188.568C10.542 188.942 11.7451 189.129 13.1221 189.129H13.334C14.7148 189.129 15.9229 188.944 16.957 188.575C17.9912 188.206 18.7647 187.685 19.2744 187.01L20.3203 187.393C20.042 188.013 19.5518 188.59 18.8467 189.126C18.1436 189.661 17.3311 190.07 16.4102 190.353C15.4893 190.635 14.5283 190.785 13.5254 190.804H13.1631Z" fill="#3D5F66"/>
<path d="M15.166 181.972C14.9248 181.972 14.7344 182.092 14.5947 182.33C14.4561 182.57 14.332 182.954 14.2227 183.482C13.8535 185.241 13.1064 186.121 11.9805 186.121C11.3242 186.121 10.7764 185.849 10.3369 185.305C9.89649 184.76 9.67676 184.048 9.67676 183.168C9.67676 182.229 9.89746 181.479 10.3398 180.916C10.7822 180.353 11.3564 180.071 12.0625 180.071V182.047C11.7803 182.047 11.5459 182.138 11.3623 182.32C11.1768 182.503 11.085 182.787 11.085 183.175C11.085 183.508 11.1602 183.765 11.3106 183.947C11.4609 184.13 11.6524 184.221 11.8848 184.221C12.1035 184.221 12.2803 184.117 12.415 183.91C12.5488 183.702 12.665 183.353 12.7627 182.86C12.8613 182.368 12.9717 181.953 13.0947 181.616C13.4775 180.572 14.1406 180.051 15.084 180.051C15.7588 180.051 16.3037 180.34 16.7217 180.919C17.1377 181.498 17.3467 182.245 17.3467 183.161C17.3467 183.781 17.2363 184.331 17.0147 184.812C16.794 185.293 16.4912 185.67 16.1065 185.943C15.7207 186.217 15.3057 186.354 14.8584 186.354V184.48C15.21 184.462 15.4776 184.332 15.6651 184.091C15.8526 183.85 15.9453 183.525 15.9453 183.12C15.9453 182.742 15.874 182.456 15.7295 182.262C15.5869 182.068 15.3984 181.972 15.166 181.972Z" fill="#3D5F66"/>
<path d="M13.3203 175.375C14.3506 175.375 15.3408 175.523 16.2939 175.819C17.2471 176.115 18.0869 176.542 18.8164 177.098C19.5459 177.653 20.0469 178.248 20.3203 178.882L19.2744 179.265C18.7861 178.617 18.0342 178.107 17.0186 177.733C16.0029 177.359 14.833 177.166 13.5117 177.152H13.1494C11.7861 177.152 10.5859 177.338 9.54688 177.71C8.50782 178.081 7.72852 178.6 7.20899 179.265L6.16309 178.882C6.43262 178.262 6.91895 177.678 7.62598 177.128C8.33301 176.579 9.15528 176.153 10.0937 175.851C11.0322 175.547 12.0049 175.389 13.0127 175.375L13.3203 175.375Z" fill="#3D5F66"/>
<path d="M13.1631 170.269C12.1201 170.269 11.126 170.13 10.1826 169.852C9.23926 169.573 8.4043 169.163 7.67676 168.621C6.9502 168.079 6.44629 167.491 6.16309 166.857L7.2295 166.475C7.72169 167.14 8.48341 167.659 9.5127 168.033C10.542 168.407 11.7451 168.594 13.1221 168.594H13.334C14.7148 168.594 15.9229 168.409 16.957 168.04C17.9912 167.671 18.7647 167.149 19.2744 166.475L20.3203 166.857C20.042 167.478 19.5518 168.055 18.8467 168.591C18.1436 169.126 17.3311 169.535 16.4102 169.817C15.4893 170.1 14.5283 170.25 13.5254 170.269H13.1631Z" fill="#3D5F66"/>
<path d="M9.81348 163.59L10.6406 163.528C9.99805 163.004 9.67676 162.296 9.67676 161.402C9.67676 160.45 10.0527 159.796 10.8047 159.44C10.0527 158.921 9.67676 158.181 9.67676 157.219C9.67676 156.417 9.91016 155.819 10.3779 155.428C10.8447 155.036 11.5478 154.84 12.4863 154.84H17.21V156.822H12.4932C12.0732 156.822 11.7676 156.904 11.5732 157.068C11.3799 157.232 11.2832 157.521 11.2832 157.937C11.2832 158.529 11.5654 158.939 12.1309 159.167L17.21 159.16V161.136H12.5C12.0713 161.136 11.7617 161.22 11.5703 161.389C11.3789 161.558 11.2832 161.845 11.2832 162.25C11.2832 162.811 11.5156 163.216 11.9805 163.467H17.21V165.442H9.81348V163.59Z" fill="#3D5F66"/>
<path d="M17.3467 149.919C17.3467 151.004 17.0147 151.887 16.3486 152.568C15.6826 153.249 14.7969 153.59 13.6895 153.59H13.498C12.7549 153.59 12.0908 153.446 11.5049 153.159C10.9199 152.872 10.4688 152.465 10.1514 151.939C9.83496 151.412 9.67676 150.813 9.67676 150.138C9.67676 149.126 9.99512 148.33 10.6338 147.748C11.2725 147.168 12.1768 146.877 13.3477 146.877H14.1543V151.587C14.6377 151.523 15.0244 151.33 15.3164 151.01C15.6084 150.687 15.7539 150.281 15.7539 149.789C15.7539 149.028 15.4775 148.434 14.9268 148.005L16.0137 147.034C16.4326 147.33 16.7598 147.731 16.9951 148.237C17.2295 148.743 17.3467 149.304 17.3467 149.919ZM11.2695 150.145C11.2695 150.536 11.4023 150.854 11.668 151.098C11.9336 151.342 12.3135 151.498 12.8076 151.566V148.818H12.6494C12.21 148.827 11.8701 148.946 11.6299 149.174C11.3897 149.401 11.2695 149.726 11.2695 150.145Z" fill="#3D5F66"/>
<path d="M13.457 146.063C12.3037 146.063 11.3857 145.805 10.7022 145.288C10.0186 144.771 9.67676 144.062 9.67676 143.165C9.67676 142.445 9.94629 141.851 10.4834 141.381H6.70996V139.398H17.21V141.183L16.4238 141.278C17.0391 141.771 17.3467 142.404 17.3467 143.179C17.3467 144.049 17.0039 144.747 16.3174 145.274C15.6318 145.8 14.6787 146.063 13.457 146.063ZM13.6045 144.088C14.2979 144.088 14.8291 143.967 15.1992 143.726C15.5693 143.484 15.7539 143.133 15.7539 142.673C15.7539 142.063 15.4961 141.632 14.9805 141.381H12.0566C11.541 141.627 11.2832 142.053 11.2832 142.659C11.2832 143.611 12.0566 144.088 13.6045 144.088Z" fill="#3D5F66"/>
<path d="M7.89942 137.881C7.60254 137.881 7.35938 137.782 7.16797 137.583C6.97656 137.386 6.88086 137.115 6.88086 136.773C6.88086 136.437 6.97656 136.167 7.16797 135.967C7.35938 135.767 7.60254 135.666 7.89942 135.666C8.2002 135.666 8.4463 135.768 8.6377 135.97C8.82911 136.173 8.92481 136.44 8.92481 136.773C8.92481 137.106 8.82911 137.374 8.6377 137.577C8.44629 137.779 8.2002 137.881 7.89942 137.881ZM17.21 135.782V137.765H9.81349V135.782H17.21Z" fill="#3D5F66"/>
<path d="M17.21 129.869C17.0322 129.96 16.8115 130.026 16.5469 130.067C17.0801 130.546 17.3467 131.168 17.3467 131.934C17.3467 132.658 17.1377 133.259 16.7178 133.734C16.2979 134.211 15.7705 134.449 15.1318 134.449C14.3486 134.449 13.7471 134.158 13.3271 133.578C12.9072 132.996 12.6963 132.157 12.6914 131.059V130.149H12.2676C11.9258 130.149 11.6523 130.237 11.4473 130.413C11.2422 130.588 11.1396 130.865 11.1396 131.243C11.1396 131.576 11.2197 131.837 11.3789 132.025C11.5381 132.215 11.7568 132.31 12.0352 132.31V134.285C11.6064 134.285 11.21 134.153 10.8457 133.889C10.4815 133.624 10.1953 133.251 9.98731 132.768C9.78028 132.284 9.67676 131.742 9.67676 131.141C9.67676 130.229 9.90528 129.506 10.3643 128.97C10.8213 128.435 11.4658 128.167 12.2949 128.167H15.501C16.2021 128.163 16.7334 128.064 17.0937 127.873H17.2099L17.21 129.869ZM15.836 131.503C15.836 131.211 15.7705 130.942 15.6416 130.696C15.5108 130.45 15.3369 130.268 15.1182 130.149H13.8467V130.888C13.8467 131.876 14.1885 132.403 14.8721 132.467L14.9883 132.474C15.2344 132.474 15.4365 132.387 15.5967 132.214C15.7569 132.041 15.836 131.804 15.836 131.503Z" fill="#3D5F66"/>
<path d="M9.81348 124.831L10.668 124.77C10.0068 124.241 9.67676 123.532 9.67676 122.644C9.67676 121.86 9.90723 121.276 10.3672 120.894C10.8271 120.511 11.5156 120.315 12.4316 120.306H17.21V122.281H12.4795C12.0596 122.281 11.7559 122.373 11.5674 122.555C11.3779 122.737 11.2832 123.04 11.2832 123.464C11.2832 124.02 11.5205 124.437 11.9941 124.715H17.21V126.69H9.81348V124.831Z" fill="#3D5F66"/>
<path d="M13.3203 115.404C14.3506 115.404 15.3408 115.552 16.2939 115.849C17.2471 116.145 18.0869 116.571 18.8164 117.127C19.5459 117.683 20.0469 118.278 20.3203 118.911L19.2744 119.294C18.7861 118.647 18.0342 118.136 17.0186 117.763C16.0029 117.389 14.833 117.195 13.5117 117.182H13.1494C11.7861 117.182 10.5859 117.367 9.54688 117.739C8.50782 118.11 7.72852 118.628 7.20899 119.294L6.16309 118.911C6.43262 118.292 6.91895 117.707 7.62598 117.158C8.33301 116.608 9.15528 116.183 10.0937 115.879C11.0322 115.576 12.0049 115.418 13.0127 115.404L13.3203 115.404Z" fill="#3D5F66"/>
<path d="M13.1631 110.298C12.1201 110.298 11.126 110.159 10.1826 109.881C9.23926 109.603 8.4043 109.193 7.67676 108.65C6.9502 108.108 6.44629 107.52 6.16309 106.887L7.2295 106.504C7.72169 107.169 8.48341 107.689 9.5127 108.062C10.542 108.436 11.7451 108.623 13.1221 108.623H13.334C14.7148 108.623 15.9229 108.438 16.957 108.069C17.9912 107.7 18.7647 107.178 19.2744 106.504L20.3203 106.887C20.042 107.506 19.5518 108.084 18.8467 108.62C18.1436 109.155 17.3311 109.564 16.4102 109.847C15.4893 110.129 14.5283 110.28 13.5254 110.298H13.1631Z" fill="#3D5F66"/>
<path d="M12.459 97.1787C13.3887 97.1787 14.1963 97.3291 14.8818 97.6299C15.5684 97.9307 16.1182 98.3477 16.5332 98.8809L17.832 97.2266L18.9873 98.5322L17.2852 100.651C17.3262 100.893 17.3467 101.144 17.3467 101.403C17.3467 102.228 17.1484 102.964 16.752 103.611C16.3555 104.258 15.7891 104.76 15.0537 105.115C14.3174 105.471 13.4707 105.651 12.5137 105.655H12.0215C11.042 105.655 10.1787 105.479 9.43458 105.126C8.68849 104.772 8.1172 104.273 7.71778 103.628C7.31934 102.983 7.12012 102.247 7.12012 101.417C7.12012 100.587 7.31934 99.8506 7.71778 99.2056C8.11719 98.5606 8.68848 98.0615 9.43458 97.7085C10.1787 97.3555 11.04 97.1787 12.0147 97.1787L12.459 97.1787ZM12.0078 99.2569C10.9639 99.2569 10.1709 99.4439 9.62892 99.8174C9.08692 100.191 8.81544 100.724 8.81544 101.417C8.81544 102.105 9.08302 102.636 9.61817 103.01C10.1543 103.383 10.9385 103.573 11.9736 103.577H12.459C13.4756 103.577 14.2637 103.39 14.8242 103.017C15.3848 102.643 15.665 102.105 15.665 101.403C15.665 100.715 15.3955 100.187 14.8545 99.8174C14.3154 99.4483 13.5283 99.2612 12.4932 99.2568L12.0078 99.2569Z" fill="#3D5F66"/>
<path d="M17.21 91.0879V93.0635H9.59472L10.3262 95.4219H8.71972L7.24316 91.2998V91.0879L17.21 91.0879Z" fill="#3D5F66"/>
<path d="M19.7051 87.2598L19.165 88.292L18.7207 88.0459C18.165 87.7407 17.6104 87.5835 17.0596 87.5742H15.5283V85.9062L16.8955 85.9131C17.4014 85.9175 17.9111 86.0454 18.4268 86.2959C18.9424 86.5464 19.3682 86.8677 19.7051 87.2598Z" fill="#3D5F66"/>
<path d="M12.459 72.5762C13.3887 72.5762 14.1963 72.7266 14.8818 73.0274C15.5684 73.3281 16.1182 73.7451 16.5332 74.2783L17.832 72.624L18.9873 73.9297L17.2852 76.0488C17.3262 76.2905 17.3467 76.541 17.3467 76.8008C17.3467 77.6255 17.1484 78.3618 16.752 79.0088C16.3555 79.6558 15.7891 80.1572 15.0537 80.5127C14.3174 80.8682 13.4707 81.0484 12.5137 81.0528H12.0215C11.042 81.0528 10.1787 80.876 9.43458 80.523C8.68849 80.1699 8.1172 79.6709 7.71778 79.0259C7.31934 78.3809 7.12012 77.6441 7.12012 76.8145C7.12012 75.9849 7.31934 75.2481 7.71778 74.603C8.11719 73.958 8.68848 73.459 9.43458 73.106C10.1787 72.7529 11.04 72.5762 12.0147 72.5762L12.459 72.5762ZM12.0078 74.6543C10.9639 74.6543 10.1709 74.8413 9.62892 75.2149C9.08692 75.5884 8.81544 76.1216 8.81544 76.8145C8.81544 77.5025 9.08302 78.0337 9.61817 78.4072C10.1543 78.7808 10.9385 78.9702 11.9736 78.9746H12.459C13.4756 78.9746 14.2637 78.7876 14.8242 78.4141C15.3848 78.0405 15.665 77.5025 15.665 76.8008C15.665 76.1128 15.3955 75.584 14.8545 75.2149C14.3154 74.8457 13.5283 74.6587 12.4932 74.6543L12.0078 74.6543Z" fill="#3D5F66"/>
<path d="M11.3584 69.2754V68.2226C11.3584 67.7212 11.2334 67.3501 10.9824 67.1084C10.7314 66.8667 10.3994 66.7461 9.98437 66.7461C9.583 66.7461 9.2705 66.8657 9.04785 67.105C8.8252 67.3442 8.71289 67.6733 8.71289 68.0928C8.71289 68.4712 8.81641 68.7876 9.02441 69.043C9.23144 69.2983 9.50097 69.4258 9.83398 69.4258V71.4014C9.31445 71.4014 8.84863 71.2612 8.43652 70.9809C8.02343 70.7007 7.70117 70.3086 7.46875 69.8052C7.23633 69.3018 7.12012 68.7466 7.12012 68.1406C7.12012 67.0879 7.37207 66.2632 7.87598 65.666C8.37891 65.0688 9.07325 64.7705 9.95703 64.7705C10.4131 64.7705 10.832 64.9097 11.2148 65.1875C11.5976 65.4653 11.8916 65.8301 12.0967 66.2812C12.2978 65.7207 12.5986 65.3027 12.999 65.0269C13.3994 64.751 13.874 64.6133 14.4209 64.6133C15.3057 64.6133 16.0137 64.9356 16.5469 65.5806C17.0801 66.2256 17.3467 67.0786 17.3467 68.1406C17.3467 69.1343 17.085 69.9463 16.5605 70.5776C16.0361 71.209 15.3437 71.5244 14.4824 71.5244V69.5488C14.8564 69.5488 15.1611 69.4087 15.3984 69.1284C15.6358 68.8482 15.7539 68.5029 15.7539 68.0928C15.7539 67.6235 15.6299 67.2554 15.3818 66.9888C15.1328 66.7222 14.8037 66.5889 14.3936 66.5889C13.3994 66.5889 12.9033 67.1358 12.9033 68.2295V69.2754L11.3584 69.2754Z" fill="#3D5F66"/>
<path d="M13.3203 59.7656C14.3506 59.7656 15.3408 59.9136 16.2939 60.21C17.2471 60.5064 18.0869 60.9321 18.8164 61.4883C19.5459 62.0444 20.0469 62.6392 20.3203 63.2725L19.2744 63.6553C18.7861 63.0083 18.0342 62.4976 17.0186 62.124C16.0029 61.7505 14.833 61.5566 13.5117 61.543H13.1494C11.7861 61.543 10.5859 61.7285 9.54688 62.1001C8.50782 62.4717 7.72852 62.9898 7.20899 63.6553L6.16309 63.2725C6.43262 62.6528 6.91895 62.0684 7.62598 61.5191C8.33301 60.9697 9.15528 60.544 10.0937 60.2407C11.0322 59.9375 12.0049 59.7793 13.0127 59.7656L13.3203 59.7656Z" fill="#3D5F66"/>
<path d="M94.5195 296.664V288.133H97.4434C98.4082 288.133 99.1426 288.326 99.6465 288.713C100.15 289.1 100.402 289.676 100.402 290.441C100.402 290.832 100.297 291.184 100.086 291.496C99.875 291.809 99.5664 292.051 99.1601 292.223C99.6211 292.348 99.9775 292.583 100.229 292.929C100.481 293.274 100.607 293.689 100.607 294.174C100.607 294.975 100.351 295.59 99.8369 296.02C99.3232 296.449 98.5879 296.664 97.6309 296.664H94.5195ZM96.0019 291.725H97.4551C97.916 291.725 98.2764 291.62 98.5361 291.411C98.7959 291.202 98.9258 290.906 98.9258 290.523C98.9258 290.102 98.8057 289.797 98.5654 289.609C98.3252 289.422 97.9512 289.328 97.4434 289.328H96.0019L96.0019 291.725ZM96.0019 292.814V295.48H97.6484C98.1133 295.48 98.4765 295.365 98.7383 295.135C99 294.904 99.1309 294.584 99.1309 294.174C99.1309 293.287 98.6777 292.834 97.7715 292.814H96.0019Z" fill="#626469"/>
<path d="M105.74 296.664C105.678 296.543 105.623 296.346 105.576 296.072C105.123 296.545 104.568 296.781 103.912 296.781C103.275 296.781 102.756 296.6 102.354 296.236C101.951 295.873 101.75 295.424 101.75 294.889C101.75 294.213 102.001 293.694 102.503 293.333C103.005 292.972 103.723 292.791 104.656 292.791H105.529V292.375C105.529 292.047 105.437 291.784 105.254 291.587C105.07 291.39 104.791 291.291 104.416 291.291C104.092 291.291 103.826 291.372 103.619 291.534C103.412 291.696 103.309 291.902 103.309 292.152H101.885C101.885 291.805 102 291.479 102.23 291.177C102.461 290.874 102.774 290.637 103.171 290.465C103.567 290.293 104.01 290.207 104.498 290.207C105.24 290.207 105.832 290.394 106.273 290.767C106.715 291.14 106.941 291.664 106.953 292.34V295.199C106.953 295.77 107.033 296.225 107.193 296.564V296.664L105.74 296.664ZM104.176 295.639C104.457 295.639 104.722 295.57 104.97 295.434C105.218 295.297 105.404 295.113 105.529 294.883V293.688H104.762C104.234 293.688 103.838 293.779 103.572 293.963C103.307 294.147 103.174 294.406 103.174 294.742C103.174 295.016 103.265 295.233 103.446 295.396C103.628 295.558 103.871 295.639 104.176 295.639Z" fill="#626469"/>
<path d="M111.998 294.941C111.998 294.687 111.894 294.494 111.685 294.361C111.476 294.229 111.129 294.111 110.645 294.01C110.16 293.908 109.756 293.779 109.432 293.623C108.721 293.279 108.365 292.781 108.365 292.129C108.365 291.582 108.596 291.125 109.057 290.758C109.518 290.391 110.104 290.207 110.814 290.207C111.572 290.207 112.185 290.395 112.651 290.77C113.118 291.145 113.352 291.631 113.352 292.229H111.928C111.928 291.955 111.826 291.728 111.623 291.546C111.42 291.364 111.15 291.273 110.814 291.273C110.502 291.273 110.247 291.346 110.05 291.49C109.853 291.635 109.754 291.828 109.754 292.07C109.754 292.289 109.846 292.459 110.029 292.58C110.213 292.701 110.584 292.823 111.143 292.946C111.701 293.069 112.14 293.216 112.458 293.386C112.776 293.556 113.013 293.76 113.167 293.998C113.321 294.236 113.398 294.525 113.398 294.865C113.398 295.436 113.162 295.897 112.689 296.251C112.217 296.604 111.598 296.781 110.832 296.781C110.313 296.781 109.85 296.688 109.443 296.5C109.037 296.312 108.721 296.055 108.494 295.727C108.268 295.398 108.154 295.045 108.154 294.666H109.537C109.557 295.002 109.684 295.261 109.918 295.442C110.152 295.624 110.463 295.715 110.85 295.715C111.225 295.715 111.51 295.644 111.705 295.501C111.9 295.358 111.998 295.172 111.998 294.941Z" fill="#626469"/>
<path d="M117.43 296.781C116.527 296.781 115.796 296.497 115.235 295.929C114.675 295.36 114.395 294.604 114.395 293.658V293.482C114.395 292.85 114.517 292.284 114.761 291.786C115.005 291.288 115.348 290.9 115.789 290.623C116.23 290.346 116.723 290.207 117.266 290.207C118.129 290.207 118.796 290.482 119.267 291.033C119.737 291.584 119.973 292.363 119.973 293.371V293.945H115.83C115.873 294.469 116.048 294.883 116.354 295.188C116.661 295.492 117.047 295.645 117.512 295.645C118.164 295.645 118.695 295.381 119.105 294.854L119.873 295.586C119.619 295.965 119.28 296.259 118.856 296.468C118.433 296.677 117.957 296.781 117.43 296.781ZM117.26 291.35C116.869 291.35 116.554 291.486 116.313 291.76C116.073 292.033 115.92 292.414 115.854 292.902H118.566V292.797C118.535 292.32 118.408 291.96 118.186 291.716C117.963 291.472 117.654 291.35 117.26 291.35Z" fill="#626469"/>
<path d="M122.592 296.664H121.168V287.664H122.592V296.664Z" fill="#626469"/>
<path d="M124.145 288.678C124.145 288.459 124.214 288.277 124.353 288.133C124.491 287.988 124.689 287.916 124.947 287.916C125.205 287.916 125.404 287.988 125.545 288.133C125.686 288.277 125.756 288.459 125.756 288.678C125.756 288.893 125.686 289.071 125.545 289.214C125.404 289.356 125.205 289.428 124.947 289.428C124.689 289.428 124.491 289.356 124.353 289.214C124.214 289.071 124.145 288.893 124.145 288.678ZM125.656 296.664H124.232V290.324H125.656V296.664Z" fill="#626469"/>
<path d="M128.527 290.324L128.568 291.057C129.037 290.49 129.652 290.207 130.414 290.207C131.734 290.207 132.406 290.963 132.43 292.475V296.664H131.006V292.557C131.006 292.154 130.919 291.856 130.745 291.663C130.571 291.47 130.287 291.373 129.893 291.373C129.318 291.373 128.891 291.633 128.609 292.152V296.664H127.186V290.324H128.527Z" fill="#626469"/>
<path d="M136.672 296.781C135.77 296.781 135.038 296.497 134.478 295.929C133.917 295.36 133.637 294.604 133.637 293.658V293.482C133.637 292.85 133.759 292.284 134.003 291.786C134.247 291.288 134.59 290.9 135.031 290.623C135.473 290.346 135.965 290.207 136.508 290.207C137.371 290.207 138.038 290.482 138.509 291.033C138.979 291.584 139.215 292.363 139.215 293.371V293.945H135.072C135.115 294.469 135.29 294.883 135.597 295.188C135.903 295.492 136.289 295.645 136.754 295.645C137.406 295.645 137.937 295.381 138.348 294.854L139.115 295.586C138.861 295.965 138.522 296.259 138.099 296.468C137.675 296.677 137.199 296.781 136.672 296.781ZM136.502 291.35C136.111 291.35 135.796 291.486 135.556 291.76C135.315 292.033 135.162 292.414 135.096 292.902H137.809V292.797C137.777 292.32 137.65 291.96 137.428 291.716C137.205 291.472 136.896 291.35 136.502 291.35Z" fill="#626469"/>
<path d="M108.494 304.725L108.529 305.521C109.014 304.912 109.646 304.607 110.428 304.607C111.768 304.607 112.443 305.363 112.455 306.875V311.064H111.371V306.869C111.367 306.412 111.263 306.074 111.058 305.855C110.853 305.637 110.533 305.527 110.1 305.527C109.748 305.527 109.439 305.621 109.174 305.809C108.908 305.996 108.701 306.242 108.553 306.547V311.064H107.469V304.725L108.494 304.725Z" fill="#626469"/>
<path d="M119.047 306.295H114.16V305.352H119.047V306.295ZM119.047 308.727H114.16V307.789H119.047V308.727Z" fill="#626469"/>
<path d="M124.719 307.314C124.492 307.584 124.222 307.801 123.907 307.965C123.593 308.129 123.248 308.211 122.873 308.211C122.381 308.211 121.952 308.09 121.587 307.848C121.222 307.605 120.939 307.265 120.74 306.825C120.541 306.386 120.441 305.9 120.441 305.369C120.441 304.799 120.55 304.285 120.767 303.828C120.983 303.371 121.291 303.021 121.689 302.779C122.088 302.537 122.553 302.416 123.084 302.416C123.928 302.416 124.593 302.731 125.079 303.362C125.565 303.993 125.809 304.854 125.809 305.943V306.26C125.809 307.92 125.48 309.132 124.824 309.896C124.168 310.659 123.178 311.051 121.854 311.07H121.643V310.15H121.871C122.766 310.135 123.453 309.902 123.934 309.451C124.414 309.001 124.676 308.289 124.719 307.314ZM123.049 307.314C123.412 307.314 123.747 307.203 124.054 306.98C124.36 306.758 124.584 306.482 124.725 306.154V305.721C124.725 305.01 124.57 304.432 124.262 303.986C123.953 303.541 123.562 303.318 123.09 303.318C122.613 303.318 122.23 303.501 121.941 303.866C121.652 304.231 121.508 304.713 121.508 305.311C121.508 305.893 121.647 306.372 121.927 306.749C122.206 307.126 122.58 307.314 123.049 307.314Z" fill="#626469"/>
<path d="M157.462 288.092V289.27H157.286C156.489 289.281 155.853 289.5 155.376 289.926C154.899 290.352 154.616 290.955 154.526 291.736C154.983 291.256 155.567 291.016 156.278 291.016C157.032 291.016 157.627 291.281 158.063 291.812C158.498 292.344 158.716 293.029 158.716 293.869C158.716 294.736 158.461 295.439 157.951 295.976C157.441 296.513 156.772 296.781 155.944 296.781C155.093 296.781 154.402 296.467 153.873 295.838C153.344 295.209 153.079 294.385 153.079 293.365V292.879C153.079 291.383 153.443 290.211 154.172 289.363C154.9 288.516 155.948 288.092 157.315 288.092H157.462ZM155.933 292.164C155.62 292.164 155.334 292.252 155.074 292.428C154.814 292.604 154.624 292.838 154.503 293.131V293.564C154.503 294.197 154.636 294.7 154.901 295.073C155.167 295.446 155.511 295.633 155.933 295.633C156.355 295.633 156.688 295.475 156.935 295.158C157.181 294.842 157.304 294.426 157.304 293.91C157.304 293.395 157.179 292.975 156.929 292.65C156.679 292.326 156.347 292.164 155.933 292.164Z" fill="#626469"/>
<path d="M164.271 290.324L164.312 290.986C164.757 290.467 165.366 290.207 166.14 290.207C166.987 290.207 167.567 290.531 167.88 291.18C168.341 290.531 168.989 290.207 169.825 290.207C170.524 290.207 171.045 290.4 171.387 290.787C171.729 291.174 171.903 291.744 171.911 292.498V296.664H170.487V292.539C170.487 292.137 170.399 291.842 170.224 291.654C170.048 291.467 169.757 291.373 169.351 291.373C169.026 291.373 168.762 291.46 168.557 291.634C168.352 291.808 168.208 292.035 168.126 292.316L168.132 296.664H166.708V292.492C166.688 291.746 166.308 291.373 165.565 291.373C164.995 291.373 164.591 291.605 164.353 292.07V296.664H162.929V290.324H164.271Z" fill="#626469"/>
<path d="M173.106 293.436C173.106 292.814 173.229 292.255 173.476 291.757C173.722 291.259 174.067 290.876 174.513 290.608C174.958 290.341 175.47 290.207 176.048 290.207C176.903 290.207 177.598 290.482 178.131 291.033C178.664 291.584 178.952 292.314 178.995 293.225L179.001 293.559C179.001 294.184 178.881 294.742 178.641 295.234C178.4 295.727 178.057 296.107 177.609 296.377C177.162 296.646 176.646 296.781 176.06 296.781C175.165 296.781 174.449 296.483 173.912 295.888C173.375 295.292 173.106 294.498 173.106 293.506L173.106 293.436ZM174.53 293.559C174.53 294.211 174.665 294.722 174.935 295.091C175.204 295.46 175.579 295.645 176.06 295.645C176.54 295.645 176.914 295.457 177.182 295.082C177.449 294.707 177.583 294.158 177.583 293.436C177.583 292.795 177.445 292.287 177.17 291.912C176.895 291.537 176.521 291.35 176.048 291.35C175.583 291.35 175.214 291.534 174.94 291.903C174.667 292.272 174.53 292.824 174.53 293.559Z" fill="#626469"/>
<path d="M181.526 290.324L181.567 291.057C182.036 290.49 182.651 290.207 183.413 290.207C184.733 290.207 185.405 290.963 185.429 292.475V296.664H184.005V292.557C184.005 292.154 183.918 291.856 183.744 291.663C183.57 291.47 183.286 291.373 182.892 291.373C182.317 291.373 181.89 291.633 181.608 292.152V296.664H180.185V290.324H181.526Z" fill="#626469"/>
<path d="M188.663 288.783V290.324H189.782V291.379H188.663V294.918C188.663 295.16 188.711 295.335 188.807 295.442C188.902 295.55 189.073 295.604 189.319 295.604C189.483 295.604 189.649 295.584 189.817 295.545V296.646C189.493 296.736 189.181 296.781 188.88 296.781C187.786 296.781 187.239 296.178 187.239 294.971V291.379H186.196V290.324H187.239V288.783H188.663Z" fill="#626469"/>
<path d="M192.272 291.016C192.737 290.477 193.325 290.207 194.036 290.207C195.388 290.207 196.073 290.979 196.093 292.521V296.664H194.669V292.574C194.669 292.137 194.574 291.827 194.385 291.646C194.195 291.464 193.917 291.373 193.55 291.373C192.979 291.373 192.554 291.627 192.272 292.135V296.664H190.849V287.664H192.272V291.016Z" fill="#626469"/>
<path d="M201.085 294.941C201.085 294.687 200.98 294.494 200.771 294.361C200.562 294.229 200.216 294.111 199.731 294.01C199.247 293.908 198.843 293.779 198.519 293.623C197.808 293.279 197.452 292.781 197.452 292.129C197.452 291.582 197.683 291.125 198.144 290.758C198.604 290.391 199.19 290.207 199.901 290.207C200.659 290.207 201.271 290.395 201.738 290.77C202.205 291.145 202.438 291.631 202.438 292.229H201.015C201.015 291.955 200.913 291.728 200.71 291.546C200.507 291.364 200.237 291.273 199.901 291.273C199.589 291.273 199.334 291.346 199.137 291.49C198.939 291.635 198.841 291.828 198.841 292.07C198.841 292.289 198.933 292.459 199.116 292.58C199.3 292.701 199.671 292.823 200.229 292.946C200.788 293.069 201.227 293.216 201.545 293.386C201.863 293.556 202.1 293.76 202.254 293.998C202.408 294.236 202.485 294.525 202.485 294.865C202.485 295.436 202.249 295.897 201.776 296.251C201.304 296.604 200.685 296.781 199.919 296.781C199.399 296.781 198.937 296.688 198.53 296.5C198.124 296.312 197.808 296.055 197.581 295.727C197.354 295.398 197.241 295.045 197.241 294.666H198.624C198.644 295.002 198.771 295.261 199.005 295.442C199.239 295.624 199.55 295.715 199.937 295.715C200.312 295.715 200.597 295.644 200.792 295.501C200.987 295.358 201.085 295.172 201.085 294.941Z" fill="#626469"/>
<path d="M169.567 304.725L169.603 305.521C170.087 304.912 170.72 304.607 171.501 304.607C172.841 304.607 173.517 305.363 173.528 306.875V311.064H172.444V306.869C172.44 306.412 172.336 306.074 172.131 305.855C171.926 305.637 171.606 305.527 171.173 305.527C170.821 305.527 170.513 305.621 170.247 305.809C169.981 305.996 169.774 306.242 169.626 306.547V311.064H168.542V304.725L169.567 304.725Z" fill="#626469"/>
<path d="M180.12 306.295H175.233V305.352H180.12V306.295ZM180.12 308.727H175.233V307.789H180.12V308.727Z" fill="#626469"/>
<path d="M185.792 307.314C185.565 307.584 185.295 307.801 184.98 307.965C184.666 308.129 184.321 308.211 183.946 308.211C183.454 308.211 183.025 308.09 182.66 307.848C182.295 307.605 182.013 307.265 181.813 306.825C181.614 306.386 181.515 305.9 181.515 305.369C181.515 304.799 181.623 304.285 181.84 303.828C182.057 303.371 182.364 303.021 182.763 302.779C183.161 302.537 183.626 302.416 184.157 302.416C185.001 302.416 185.666 302.731 186.152 303.362C186.639 303.993 186.882 304.854 186.882 305.943V306.26C186.882 307.92 186.554 309.132 185.897 309.896C185.241 310.659 184.251 311.051 182.927 311.07H182.716V310.15H182.944C183.839 310.135 184.526 309.902 185.007 309.451C185.487 309.001 185.749 308.289 185.792 307.314ZM184.122 307.314C184.485 307.314 184.82 307.203 185.127 306.98C185.434 306.758 185.657 306.482 185.798 306.154V305.721C185.798 305.01 185.644 304.432 185.335 303.986C185.026 303.541 184.636 303.318 184.163 303.318C183.687 303.318 183.304 303.501 183.015 303.866C182.726 304.231 182.581 304.713 182.581 305.311C182.581 305.893 182.721 306.372 183 306.749C183.279 307.126 183.653 307.314 184.122 307.314Z" fill="#626469"/>
<path d="M213.572 296.664H212.154V289.811L210.062 290.523V289.328L213.391 288.104H213.572L213.572 296.664Z" fill="#626469"/>
<path d="M222.273 296.664H216.537V295.686L219.379 292.586C219.789 292.129 220.081 291.747 220.255 291.44C220.429 291.134 220.516 290.826 220.516 290.518C220.516 290.111 220.401 289.783 220.173 289.533C219.944 289.283 219.637 289.158 219.25 289.158C218.789 289.158 218.432 289.299 218.178 289.58C217.924 289.861 217.797 290.246 217.797 290.734H216.373C216.373 290.215 216.491 289.747 216.728 289.331C216.964 288.915 217.302 288.592 217.741 288.361C218.181 288.131 218.687 288.016 219.262 288.016C220.09 288.016 220.743 288.224 221.222 288.64C221.7 289.056 221.939 289.631 221.939 290.365C221.939 290.791 221.819 291.237 221.579 291.704C221.339 292.171 220.945 292.701 220.398 293.295L218.312 295.527H222.273V296.664Z" fill="#626469"/>
<path d="M227.775 290.324L227.816 290.986C228.262 290.467 228.871 290.207 229.645 290.207C230.492 290.207 231.072 290.531 231.385 291.18C231.846 290.531 232.494 290.207 233.33 290.207C234.029 290.207 234.55 290.4 234.892 290.787C235.233 291.174 235.408 291.744 235.416 292.498V296.664H233.992V292.539C233.992 292.137 233.904 291.842 233.729 291.654C233.553 291.467 233.262 291.373 232.855 291.373C232.531 291.373 232.267 291.46 232.062 291.634C231.856 291.808 231.713 292.035 231.631 292.316L231.637 296.664H230.213V292.492C230.193 291.746 229.813 291.373 229.07 291.373C228.5 291.373 228.096 291.605 227.857 292.07V296.664H226.434V290.324H227.775Z" fill="#626469"/>
<path d="M236.611 293.436C236.611 292.814 236.734 292.255 236.98 291.757C237.227 291.259 237.572 290.876 238.018 290.608C238.463 290.341 238.975 290.207 239.553 290.207C240.408 290.207 241.103 290.482 241.636 291.033C242.169 291.584 242.457 292.314 242.5 293.225L242.506 293.559C242.506 294.184 242.386 294.742 242.146 295.234C241.905 295.727 241.562 296.107 241.114 296.377C240.667 296.646 240.15 296.781 239.564 296.781C238.67 296.781 237.954 296.483 237.417 295.888C236.88 295.292 236.611 294.498 236.611 293.506L236.611 293.436ZM238.035 293.559C238.035 294.211 238.17 294.722 238.439 295.091C238.709 295.46 239.084 295.645 239.564 295.645C240.045 295.645 240.419 295.457 240.687 295.082C240.954 294.707 241.088 294.158 241.088 293.436C241.088 292.795 240.95 292.287 240.675 291.912C240.399 291.537 240.025 291.35 239.553 291.35C239.088 291.35 238.719 291.534 238.445 291.903C238.172 292.272 238.035 292.824 238.035 293.559Z" fill="#626469"/>
<path d="M245.031 290.324L245.072 291.057C245.541 290.49 246.156 290.207 246.918 290.207C248.238 290.207 248.91 290.963 248.934 292.475V296.664H247.51V292.557C247.51 292.154 247.423 291.856 247.249 291.663C247.075 291.47 246.791 291.373 246.396 291.373C245.822 291.373 245.395 291.633 245.113 292.152V296.664H243.689V290.324H245.031Z" fill="#626469"/>
<path d="M252.168 288.783V290.324H253.287V291.379H252.168V294.918C252.168 295.16 252.216 295.335 252.312 295.442C252.407 295.55 252.578 295.604 252.824 295.604C252.988 295.604 253.154 295.584 253.322 295.545V296.646C252.998 296.736 252.686 296.781 252.385 296.781C251.291 296.781 250.744 296.178 250.744 294.971V291.379H249.701V290.324H250.744V288.783H252.168Z" fill="#626469"/>
<path d="M255.777 291.016C256.242 290.477 256.83 290.207 257.541 290.207C258.893 290.207 259.578 290.979 259.598 292.521V296.664H258.174V292.574C258.174 292.137 258.079 291.827 257.89 291.646C257.7 291.464 257.422 291.373 257.055 291.373C256.484 291.373 256.059 291.627 255.777 292.135V296.664H254.354V287.664H255.777V291.016Z" fill="#626469"/>
<path d="M264.59 294.941C264.59 294.687 264.485 294.494 264.276 294.361C264.067 294.229 263.721 294.111 263.236 294.01C262.752 293.908 262.348 293.779 262.023 293.623C261.312 293.279 260.957 292.781 260.957 292.129C260.957 291.582 261.187 291.125 261.648 290.758C262.109 290.391 262.695 290.207 263.406 290.207C264.164 290.207 264.776 290.395 265.243 290.77C265.71 291.145 265.943 291.631 265.943 292.229H264.52C264.52 291.955 264.418 291.728 264.215 291.546C264.012 291.364 263.742 291.273 263.406 291.273C263.094 291.273 262.839 291.346 262.642 291.49C262.444 291.635 262.346 291.828 262.346 292.07C262.346 292.289 262.437 292.459 262.621 292.58C262.805 292.701 263.176 292.823 263.734 292.946C264.293 293.069 264.731 293.216 265.05 293.386C265.368 293.556 265.604 293.76 265.759 293.998C265.913 294.236 265.99 294.525 265.99 294.865C265.99 295.436 265.754 295.897 265.281 296.251C264.809 296.604 264.189 296.781 263.424 296.781C262.904 296.781 262.441 296.688 262.035 296.5C261.629 296.312 261.312 296.055 261.086 295.727C260.859 295.398 260.746 295.045 260.746 294.666H262.129C262.148 295.002 262.275 295.261 262.51 295.442C262.744 295.624 263.055 295.715 263.441 295.715C263.816 295.715 264.102 295.644 264.297 295.501C264.492 295.358 264.59 295.172 264.59 294.941Z" fill="#626469"/>
<path d="M229.662 304.725L229.697 305.521C230.182 304.912 230.814 304.607 231.596 304.607C232.936 304.607 233.611 305.363 233.623 306.875V311.064H232.539V306.869C232.535 306.412 232.431 306.074 232.226 305.855C232.021 305.637 231.701 305.527 231.268 305.527C230.916 305.527 230.607 305.621 230.342 305.809C230.076 305.996 229.869 306.242 229.721 306.547V311.064H228.637V304.725L229.662 304.725Z" fill="#626469"/>
<path d="M240.215 306.295H235.328V305.352H240.215V306.295ZM240.215 308.727H235.328V307.789H240.215V308.727Z" fill="#626469"/>
<path d="M245.887 307.314C245.66 307.584 245.39 307.801 245.075 307.965C244.761 308.129 244.416 308.211 244.041 308.211C243.549 308.211 243.12 308.09 242.755 307.848C242.39 307.605 242.107 307.265 241.908 306.825C241.709 306.386 241.609 305.9 241.609 305.369C241.609 304.799 241.718 304.285 241.935 303.828C242.151 303.371 242.459 303.021 242.857 302.779C243.256 302.537 243.721 302.416 244.252 302.416C245.096 302.416 245.761 302.731 246.247 303.362C246.733 303.993 246.977 304.854 246.977 305.943V306.26C246.977 307.92 246.648 309.132 245.992 309.896C245.336 310.659 244.346 311.051 243.021 311.07H242.811V310.15H243.039C243.934 310.135 244.621 309.902 245.102 309.451C245.582 309.001 245.844 308.289 245.887 307.314ZM244.217 307.314C244.58 307.314 244.915 307.203 245.222 306.98C245.528 306.758 245.752 306.482 245.893 306.154V305.721C245.893 305.01 245.738 304.432 245.43 303.986C245.121 303.541 244.73 303.318 244.258 303.318C243.781 303.318 243.398 303.501 243.109 303.866C242.82 304.231 242.676 304.713 242.676 305.311C242.676 305.893 242.815 306.372 243.095 306.749C243.374 307.126 243.748 307.314 244.217 307.314Z" fill="#626469"/>
<path d="M275.955 296.664H270.219V295.686L273.061 292.586C273.471 292.129 273.763 291.747 273.937 291.44C274.11 291.134 274.197 290.826 274.197 290.518C274.197 290.111 274.083 289.783 273.854 289.533C273.626 289.283 273.318 289.158 272.932 289.158C272.471 289.158 272.113 289.299 271.859 289.58C271.605 289.861 271.479 290.246 271.479 290.734H270.055C270.055 290.215 270.173 289.747 270.409 289.331C270.646 288.915 270.983 288.592 271.423 288.361C271.862 288.131 272.369 288.016 272.943 288.016C273.771 288.016 274.425 288.224 274.903 288.64C275.382 289.056 275.621 289.631 275.621 290.365C275.621 290.791 275.501 291.237 275.261 291.704C275.021 292.171 274.627 292.701 274.08 293.295L271.994 295.527H275.955V296.664Z" fill="#626469"/>
<path d="M281.556 293.623H282.616V294.766H281.556V296.664H280.132V294.766H276.446L276.405 293.898L280.085 288.133H281.556L281.556 293.623ZM277.899 293.623H280.132V290.061L280.026 290.248L277.899 293.623Z" fill="#626469"/>
<path d="M287.378 290.324L287.419 290.986C287.864 290.467 288.474 290.207 289.247 290.207C290.095 290.207 290.675 290.531 290.987 291.18C291.448 290.531 292.097 290.207 292.933 290.207C293.632 290.207 294.151 290.4 294.493 290.787C294.835 291.174 295.011 291.744 295.019 292.498V296.664H293.595V292.539C293.595 292.137 293.507 291.842 293.331 291.654C293.155 291.467 292.864 291.373 292.458 291.373C292.134 291.373 291.868 291.46 291.663 291.634C291.458 291.808 291.315 292.035 291.233 292.316L291.239 296.664H289.815V292.492C289.796 291.746 289.415 291.373 288.673 291.373C288.103 291.373 287.698 291.605 287.46 292.07V296.664H286.036V290.324H287.378Z" fill="#626469"/>
<path d="M295.913 293.436C295.913 292.814 296.036 292.255 296.282 291.757C296.528 291.259 296.874 290.876 297.319 290.608C297.765 290.341 298.276 290.207 298.854 290.207C299.71 290.207 300.404 290.482 300.938 291.033C301.471 291.584 301.759 292.314 301.802 293.225L301.808 293.559C301.808 294.184 301.687 294.742 301.447 295.234C301.207 295.727 300.863 296.107 300.416 296.377C299.969 296.646 299.452 296.781 298.866 296.781C297.972 296.781 297.256 296.483 296.719 295.888C296.182 295.292 295.913 294.498 295.913 293.506V293.436ZM297.337 293.559C297.337 294.211 297.472 294.722 297.741 295.091C298.011 295.46 298.386 295.645 298.866 295.645C299.347 295.645 299.721 295.457 299.988 295.082C300.256 294.707 300.39 294.158 300.39 293.436C300.39 292.795 300.252 292.287 299.977 291.912C299.701 291.537 299.327 291.35 298.854 291.35C298.39 291.35 298.021 291.534 297.747 291.903C297.474 292.272 297.337 292.824 297.337 293.559Z" fill="#626469"/>
<path d="M304.033 290.324L304.074 291.057C304.543 290.49 305.158 290.207 305.92 290.207C307.24 290.207 307.912 290.963 307.936 292.475V296.664H306.512V292.557C306.512 292.154 306.425 291.856 306.251 291.663C306.077 291.47 305.793 291.373 305.398 291.373C304.824 291.373 304.396 291.633 304.115 292.152V296.664H302.691V290.324H304.033Z" fill="#626469"/>
<path d="M310.87 288.783V290.324H311.989V291.379H310.87V294.918C310.87 295.16 310.918 295.335 311.014 295.442C311.109 295.55 311.28 295.604 311.526 295.604C311.69 295.604 311.856 295.584 312.024 295.545V296.646C311.7 296.736 311.388 296.781 311.087 296.781C309.993 296.781 309.446 296.178 309.446 294.971V291.379H308.403V290.324H309.446V288.783H310.87Z" fill="#626469"/>
<path d="M314.179 291.016C314.644 290.477 315.231 290.207 315.942 290.207C317.294 290.207 317.979 290.979 317.999 292.521V296.664H316.575V292.574C316.575 292.137 316.481 291.827 316.292 291.646C316.103 291.464 315.823 291.373 315.456 291.373C314.886 291.373 314.46 291.627 314.179 292.135V296.664H312.755V287.664H314.179V291.016Z" fill="#626469"/>
<path d="M322.692 294.941C322.692 294.687 322.587 294.494 322.378 294.361C322.169 294.229 321.823 294.111 321.339 294.01C320.854 293.908 320.45 293.779 320.126 293.623C319.415 293.279 319.06 292.781 319.06 292.129C319.06 291.582 319.29 291.125 319.751 290.758C320.212 290.391 320.798 290.207 321.509 290.207C322.267 290.207 322.878 290.395 323.345 290.77C323.812 291.145 324.046 291.631 324.046 292.229H322.622C322.622 291.955 322.521 291.728 322.317 291.546C322.114 291.364 321.845 291.273 321.509 291.273C321.196 291.273 320.94 291.346 320.743 291.49C320.546 291.635 320.448 291.828 320.448 292.07C320.448 292.289 320.54 292.459 320.724 292.58C320.907 292.701 321.278 292.823 321.837 292.946C322.396 293.069 322.833 293.216 323.151 293.386C323.47 293.556 323.706 293.76 323.86 293.998C324.015 294.236 324.093 294.525 324.093 294.865C324.093 295.436 323.856 295.897 323.384 296.251C322.911 296.604 322.292 296.781 321.526 296.781C321.007 296.781 320.544 296.688 320.138 296.5C319.731 296.312 319.415 296.055 319.188 295.727C318.962 295.398 318.849 295.045 318.849 294.666H320.231C320.251 295.002 320.378 295.261 320.612 295.442C320.847 295.624 321.157 295.715 321.544 295.715C321.919 295.715 322.204 295.644 322.399 295.501C322.595 295.358 322.692 295.172 322.692 294.941Z" fill="#626469"/>
<path d="M327.971 290.858C327.971 291.433 327.843 291.889 327.587 292.229C327.33 292.567 326.978 292.737 326.528 292.737C326.097 292.737 325.759 292.581 325.519 292.27L325.478 292.669H324.726V287.422H325.556V289.328C325.794 289.046 326.116 288.904 326.522 288.904C326.974 288.904 327.327 289.072 327.585 289.406C327.842 289.741 327.971 290.209 327.971 290.811V290.858ZM327.141 290.787C327.141 290.386 327.069 290.085 326.929 289.885C326.788 289.685 326.583 289.584 326.313 289.584C325.954 289.584 325.701 289.741 325.556 290.056V291.579C325.704 291.9 325.958 292.061 326.321 292.061C326.58 292.061 326.78 291.964 326.922 291.771C327.063 291.577 327.136 291.284 327.141 290.893V290.787Z" fill="#626469"/>
<path d="M291.083 304.725L291.118 305.521C291.603 304.912 292.235 304.607 293.017 304.607C294.356 304.607 295.032 305.363 295.044 306.875V311.064H293.96V306.869C293.956 306.412 293.852 306.074 293.646 305.855C293.441 305.637 293.122 305.527 292.688 305.527C292.337 305.527 292.028 305.621 291.763 305.809C291.497 305.996 291.29 306.242 291.142 306.547V311.064H290.058V304.725L291.083 304.725Z" fill="#626469"/>
<path d="M301.336 306.295H296.449V305.352H301.336V306.295ZM301.336 308.727H296.449V307.789H301.336V308.727Z" fill="#626469"/>
<path d="M307.728 304.76C307.728 305.186 307.614 305.564 307.39 305.896C307.165 306.229 306.862 306.488 306.48 306.676C306.925 306.867 307.276 307.146 307.536 307.514C307.796 307.881 307.927 308.297 307.927 308.762C307.927 309.5 307.677 310.088 307.179 310.525C306.681 310.963 306.026 311.182 305.214 311.182C304.394 311.182 303.735 310.962 303.241 310.522C302.747 310.083 302.501 309.496 302.501 308.762C302.501 308.301 302.626 307.885 302.878 307.514C303.13 307.143 303.48 306.861 303.925 306.67C303.546 306.482 303.247 306.223 303.028 305.891C302.81 305.559 302.7 305.182 302.7 304.76C302.7 304.041 302.931 303.471 303.392 303.049C303.853 302.627 304.46 302.416 305.214 302.416C305.964 302.416 306.569 302.627 307.032 303.049C307.495 303.471 307.728 304.041 307.728 304.76ZM306.843 308.738C306.843 308.262 306.69 307.873 306.388 307.572C306.085 307.271 305.69 307.121 305.202 307.121C304.714 307.121 304.321 307.27 304.026 307.566C303.731 307.863 303.585 308.254 303.585 308.738C303.585 309.223 303.728 309.604 304.015 309.881C304.302 310.158 304.702 310.297 305.214 310.297C305.722 310.297 306.12 310.157 306.409 309.878C306.698 309.599 306.843 309.219 306.843 308.738ZM305.214 303.307C304.788 303.307 304.442 303.438 304.179 303.702C303.915 303.966 303.784 304.324 303.784 304.777C303.784 305.211 303.913 305.562 304.173 305.829C304.433 306.097 304.78 306.23 305.214 306.23C305.647 306.23 305.993 306.097 306.253 305.829C306.513 305.562 306.644 305.211 306.644 304.777C306.644 304.344 306.509 303.99 306.239 303.717C305.97 303.443 305.628 303.307 305.214 303.307Z" fill="#626469"/>
<path d="M68.0918 146.716H77.3917" stroke="#626469" stroke-miterlimit="10"/>
<path d="M68.0918 85.3096H77.3917" stroke="#626469" stroke-miterlimit="10"/>
<path d="M68.6133 208.407H77.9132" stroke="#626469" stroke-miterlimit="10"/>
<path d="M68.0918 23.3096H77.3917" stroke="#626469" stroke-miterlimit="10"/>
<path d="M116.622 151.825H116.622C107.468 151.825 100.047 159.246 100.047 168.4V218.263C100.047 227.417 107.468 234.838 116.622 234.838H116.622C125.776 234.838 133.197 227.417 133.197 218.263V168.4C133.197 159.246 125.776 151.825 116.622 151.825Z" fill="#E2E7EA"/>
<path d="M116.622 75.5439V243.343" stroke="#626469" stroke-width="1.0008" stroke-miterlimit="10"/>
<path d="M121.176 74.8428H112.068V76.2439H121.176V74.8428Z" fill="#626469"/>
<path d="M121.176 242.642H112.068V244.043H121.176V242.642Z" fill="#626469"/>
<path d="M100.046 217.962H133.199" stroke="#626469" stroke-width="1.0008" stroke-miterlimit="10"/>
<path opacity="0.4" d="M180.507 202.456H174.905C167.298 202.456 161.131 208.623 161.131 216.23V223.79C161.131 231.397 167.298 237.563 174.905 237.563H180.507C188.114 237.563 194.281 231.397 194.281 223.79V216.23C194.281 208.623 188.114 202.456 180.507 202.456Z" fill="#3D5F66"/>
<path d="M161.129 228.001H194.282" stroke="#626469" stroke-width="1.0008" stroke-miterlimit="10"/>
<path d="M177.705 174.631V246.399" stroke="#626469" stroke-width="1.0008" stroke-miterlimit="10"/>
<path d="M182.259 173.931H173.151V175.332H182.259V173.931Z" fill="#626469"/>
<path d="M182.259 245.699H173.151V247.1H182.259V245.699Z" fill="#626469"/>
<path opacity="0.6" d="M241.888 206.603H235.691C228.248 206.603 222.215 212.636 222.215 220.079V226.966C222.215 234.409 228.248 240.443 235.691 240.443H241.888C249.331 240.443 255.365 234.409 255.365 226.966V220.079C255.365 212.636 249.331 206.603 241.888 206.603Z" fill="#3D5F66"/>
<path d="M222.214 232.105H255.367" stroke="#626469" stroke-width="1.0008" stroke-miterlimit="10"/>
<path d="M238.79 197.396V244.787" stroke="#626469" stroke-width="1.0008" stroke-miterlimit="10"/>
<path d="M243.344 196.696H234.236V198.097H243.344V196.696Z" fill="#626469"/>
<path d="M243.344 244.087H234.236V245.488H243.344V244.087Z" fill="#626469"/>
<path opacity="0.85" d="M301.989 208.907H297.655C289.698 208.907 283.247 215.358 283.247 223.315V226.755C283.247 234.713 289.698 241.163 297.655 241.163H301.989C309.946 241.163 316.397 234.713 316.397 226.755V223.315C316.397 215.358 309.946 208.907 301.989 208.907Z" fill="#3D5F66"/>
<path d="M283.246 220.715H316.399" stroke="#626469" stroke-width="1.0008" stroke-miterlimit="10"/>
<path d="M299.822 193.624V247.426" stroke="#626469" stroke-width="1.0008" stroke-miterlimit="10"/>
<path d="M304.376 192.923H295.269V194.324H304.376V192.923Z" fill="#626469"/>
<path d="M304.376 246.726H295.269V248.127H304.376V246.726Z" fill="#626469"/>
<path d="M300.349 269.59H77.5127" stroke="#626469" stroke-miterlimit="10"/>
<path d="M77.7256 269.9V12.8682" stroke="#626469" stroke-miterlimit="10"/>
<path d="M37.3164 173.301V174.531H30.207V173.301H37.3164Z" fill="#B11E88"/>
<path d="M32.0332 170.781L32.585 170.747C32.1514 170.376 31.9355 169.868 31.9355 169.224C31.9355 168.518 32.2061 168.034 32.7461 167.773C32.2061 167.39 31.9355 166.849 31.9355 166.152C31.9355 165.569 32.0967 165.136 32.4189 164.851C32.7412 164.566 33.2158 164.421 33.8447 164.414H37.3164V165.601H33.8789C33.5439 165.601 33.2979 165.674 33.1416 165.82C32.9854 165.967 32.9072 166.209 32.9072 166.548C32.9072 166.818 32.9795 167.038 33.124 167.21C33.2695 167.38 33.459 167.5 33.6934 167.568L37.3164 167.563V168.75H33.8399C33.2178 168.767 32.9072 169.084 32.9072 169.702C32.9072 170.178 33.1006 170.515 33.4883 170.713H37.3164V171.899H32.0332L32.0332 170.781Z" fill="#B11E88"/>
<path d="M34.7285 158.569C35.5459 158.569 36.1973 158.755 36.6846 159.126C37.1709 159.497 37.4141 159.995 37.4141 160.62C37.4141 161.199 37.2236 161.663 36.8428 162.012H39.3477V163.198H32.0332V162.104L32.5703 162.056C32.1475 161.707 31.9355 161.233 31.9355 160.635C31.9355 159.99 32.1758 159.485 32.6553 159.118C33.1357 158.753 33.8018 158.569 34.6553 158.569H34.7285ZM34.626 159.751C34.0986 159.751 33.6807 159.856 33.3711 160.065C33.0615 160.276 32.9072 160.576 32.9072 160.967C32.9072 161.452 33.1074 161.8 33.5078 162.012H35.8516C36.2617 161.797 36.4668 161.445 36.4668 160.957C36.4668 160.579 36.3145 160.284 36.0108 160.071C35.7061 159.857 35.2451 159.751 34.626 159.751Z" fill="#B11E88"/>
<path d="M33.1172 154.8C33.0908 154.956 33.0781 155.117 33.0781 155.283C33.0781 155.827 33.2861 156.193 33.7031 156.382H37.3164V157.568H32.0332V156.436L32.624 156.406C32.165 156.12 31.9355 155.723 31.9355 155.215C31.9355 155.046 31.958 154.905 32.0039 154.795L33.1172 154.8Z" fill="#B11E88"/>
<path d="M34.626 154.448C34.1084 154.448 33.6416 154.346 33.2275 154.141C32.8115 153.936 32.4932 153.647 32.2705 153.276C32.0469 152.905 31.9355 152.479 31.9355 151.997C31.9355 151.284 32.165 150.705 32.624 150.262C33.083 149.816 33.6924 149.577 34.4502 149.541L34.7285 149.536C35.249 149.536 35.7148 149.637 36.125 149.836C36.5352 150.037 36.8525 150.323 37.0771 150.695C37.3018 151.068 37.4141 151.499 37.4141 151.987C37.4141 152.732 37.166 153.329 36.6689 153.777C36.1728 154.225 35.5107 154.448 34.6846 154.448H34.626ZM34.7285 153.262C35.2725 153.262 35.6982 153.149 36.0049 152.925C36.3135 152.7 36.4668 152.388 36.4668 151.987C36.4668 151.587 36.3105 151.275 35.998 151.053C35.6855 150.829 35.2275 150.718 34.626 150.718C34.0928 150.718 33.6689 150.832 33.3564 151.063C33.0439 151.291 32.8877 151.604 32.8877 151.997C32.8877 152.385 33.042 152.692 33.3486 152.92C33.6572 153.147 34.1162 153.262 34.7285 153.262Z" fill="#B11E88"/>
<path d="M35.8125 146.743L32.0332 145.625V144.399L37.3164 146.23V147.261L32.0332 149.106V147.876L35.8125 146.743Z" fill="#B11E88"/>
<path d="M37.4141 141.333C37.4141 142.085 37.1768 142.694 36.7041 143.162C36.2295 143.629 35.5986 143.862 34.8115 143.862H34.665C34.1377 143.862 33.667 143.761 33.251 143.557C32.8369 143.354 32.5127 143.068 32.2822 142.7C32.0518 142.332 31.9355 141.922 31.9355 141.47C31.9355 140.75 32.165 140.194 32.624 139.803C33.083 139.41 33.7324 139.214 34.5723 139.214H35.0508V142.666C35.4873 142.63 35.832 142.484 36.0859 142.229C36.3399 141.974 36.4668 141.652 36.4668 141.265C36.4668 140.721 36.2471 140.278 35.8076 139.937L36.418 139.297C36.7334 139.509 36.9785 139.791 37.1533 140.145C37.3272 140.497 37.4141 140.894 37.4141 141.333ZM32.8877 141.475C32.8877 141.8 33.001 142.063 33.2295 142.264C33.458 142.463 33.7744 142.591 34.1816 142.646V140.386H34.0937C33.6963 140.412 33.3965 140.518 33.1924 140.703C32.9893 140.889 32.8877 141.146 32.8877 141.475Z" fill="#B11E88"/>
<path d="M32.0332 137.178L32.585 137.144C32.1514 136.772 31.9355 136.265 31.9355 135.62C31.9355 134.914 32.2061 134.431 32.7461 134.17C32.2061 133.786 31.9355 133.246 31.9355 132.549C31.9355 131.967 32.0967 131.532 32.4189 131.248C32.7412 130.963 33.2158 130.817 33.8447 130.811H37.3164V131.997H33.8789C33.5439 131.997 33.2979 132.07 33.1416 132.217C32.9854 132.363 32.9072 132.606 32.9072 132.944C32.9072 133.215 32.9795 133.436 33.124 133.606C33.2695 133.777 33.459 133.896 33.6934 133.965L37.3164 133.96V135.146H33.8399C33.2178 135.163 32.9072 135.48 32.9072 136.099C32.9072 136.574 33.1006 136.911 33.4883 137.109H37.3164V138.296H32.0332L32.0332 137.178Z" fill="#B11E88"/>
<path d="M37.4141 127.266C37.4141 128.018 37.1768 128.627 36.7041 129.095C36.2295 129.562 35.5986 129.795 34.8115 129.795H34.665C34.1377 129.795 33.667 129.693 33.251 129.49C32.8369 129.286 32.5127 129.001 32.2822 128.633C32.0518 128.266 31.9355 127.855 31.9355 127.402C31.9355 126.684 32.165 126.127 32.624 125.735C33.083 125.343 33.7324 125.146 34.5723 125.146H35.0508V128.599C35.4873 128.563 35.832 128.417 36.0859 128.162C36.3399 127.906 36.4668 127.585 36.4668 127.197C36.4668 126.654 36.2471 126.211 35.8076 125.869L36.418 125.23C36.7334 125.441 36.9785 125.724 37.1533 126.077C37.3272 126.43 37.4141 126.826 37.4141 127.266ZM32.8877 127.407C32.8877 127.733 33.001 127.996 33.2295 128.196C33.458 128.396 33.7744 128.524 34.1816 128.579V126.318H34.0937C33.6963 126.345 33.3965 126.45 33.1924 126.636C32.9893 126.821 32.8877 127.079 32.8877 127.407Z" fill="#B11E88"/>
<path d="M32.0332 123.125L32.6436 123.091C32.1709 122.7 31.9355 122.188 31.9355 121.553C31.9355 120.453 32.5654 119.893 33.8252 119.873H37.3164V121.06H33.8936C33.5576 121.06 33.3096 121.132 33.1494 121.277C32.9873 121.422 32.9072 121.659 32.9072 121.987C32.9072 122.466 33.124 122.822 33.5566 123.057H37.3164V124.243H32.0332V123.125Z" fill="#B11E88"/>
<path d="M30.749 117.178H32.0332V116.245H32.9121V117.178H35.8613C36.0635 117.178 36.209 117.138 36.2979 117.059C36.3877 116.979 36.4326 116.836 36.4326 116.631C36.4326 116.494 36.417 116.356 36.3838 116.216H37.3018C37.376 116.486 37.4141 116.747 37.4141 116.997C37.4141 117.909 36.9111 118.364 35.9053 118.364H32.9121V119.233H32.0332V118.364H30.749V117.178Z" fill="#B11E88"/>
<path d="M28.1738 238.607L33.1927 246.136L37.8979 238.607" stroke="#B11E88" stroke-width="2" stroke-miterlimit="10" stroke-linecap="round"/>
<path d="M33.1934 244.136V182.086" stroke="#B11E88" stroke-width="2" stroke-miterlimit="10" stroke-dasharray="4 4"/>
<path d="M33.1934 104.136L32.998 32.5" stroke="#B11E88" stroke-width="2" stroke-miterlimit="10" stroke-dasharray="4 4"/>
<path d="M6.02402 55.6408L12 55.6408L12 56.9246L7.48418 56.9246L7.90664 58.3109L6.91406 58.3109L6.02402 55.768L6.02402 55.6408ZM8.48086 49.4292L9.54316 49.4292C9.98066 49.4292 10.3594 49.4785 10.6793 49.5769C10.9992 49.6726 11.2631 49.8121 11.4709 49.9953C11.6787 50.1757 11.8332 50.3917 11.9344 50.6433C12.0328 50.8921 12.082 51.1683 12.082 51.4718C12.082 51.7152 12.0506 51.9421 11.9877 52.1527C11.9248 52.3632 11.8277 52.5533 11.6965 52.7228C11.5625 52.8896 11.3957 53.0332 11.1961 53.1535C10.9965 53.2738 10.7586 53.3667 10.4824 53.4324C10.2062 53.4953 9.89316 53.5267 9.54316 53.5267L8.48086 53.5267C8.03789 53.5267 7.65781 53.4789 7.34062 53.3832C7.02344 53.2847 6.76094 53.1439 6.55312 52.9607C6.34531 52.7775 6.19219 52.5615 6.09375 52.3126C5.99531 52.0611 5.94609 51.7835 5.94609 51.48C5.94609 51.2367 5.97754 51.0111 6.04043 50.8033C6.10332 50.5927 6.20039 50.4027 6.33164 50.2332C6.46289 50.0636 6.62832 49.9201 6.82793 49.8025C7.02754 49.6822 7.26543 49.5906 7.5416 49.5277C7.81504 49.4621 8.12812 49.4292 8.48086 49.4292ZM9.70312 50.7089L8.31269 50.7089C8.10762 50.7089 7.92988 50.7212 7.77949 50.7459C7.62637 50.7677 7.49648 50.8005 7.38984 50.8443C7.2832 50.8853 7.19707 50.9373 7.13144 51.0001C7.06582 51.063 7.01797 51.1355 6.98789 51.2175C6.95508 51.2968 6.93867 51.3843 6.93867 51.48C6.93867 51.6003 6.96328 51.7084 7.0125 51.8041C7.06172 51.8998 7.13965 51.9804 7.24629 52.046C7.35019 52.1117 7.49102 52.1623 7.66875 52.1978C7.84375 52.2306 8.0584 52.247 8.31269 52.247L9.70312 52.247C9.9082 52.247 10.0873 52.2361 10.2404 52.2142C10.3936 52.1896 10.5248 52.1568 10.6342 52.1158C10.7408 52.072 10.8283 52.0187 10.8967 51.9558C10.9623 51.8929 11.0102 51.8205 11.0402 51.7384C11.0703 51.6564 11.0854 51.5675 11.0854 51.4718C11.0854 51.3515 11.0621 51.2449 11.0156 51.1519C10.9664 51.0589 10.8885 50.9796 10.7818 50.914C10.6725 50.8457 10.5289 50.7951 10.3512 50.7623C10.1734 50.7267 9.95742 50.7089 9.70312 50.7089ZM10.9787 47.147L11.8154 47.1552C12.1326 47.1552 12.4484 47.2331 12.7629 47.389C13.0801 47.5448 13.3398 47.7403 13.5422 47.9755L13.2182 48.6317C13.0924 48.5689 12.9652 48.5046 12.8367 48.439C12.7109 48.3706 12.5715 48.3146 12.4184 48.2708C12.2652 48.2243 12.0861 48.2011 11.8811 48.2011L10.9787 48.2011L10.9787 47.147ZM6.02402 43.0231L12 43.0231L12 44.3069L7.48418 44.3069L7.90664 45.6932L6.91406 45.6932L6.02402 43.1502L6.02402 43.0231ZM6.02402 37.9231L12 37.9231L12 39.2068L7.48418 39.2068L7.90664 40.5932L6.91406 40.5932L6.02402 38.0502L6.02402 37.9231Z" fill="#3D5F66"/>
</svg>
