<svg width="374" height="550" viewBox="0 0 374 550" fill="none" xmlns="http://www.w3.org/2000/svg">
<path d="M54.0346 354.779L61.2534 352.223L54.0346 349.68V346.986H63.9878V349.044H61.2671L56.5708 348.839L63.9878 351.525V352.934L56.5776 355.613L61.2671 355.408H63.9878V357.459H54.0346L54.0346 354.779Z" fill="#00494F"/>
<path d="M64.1245 341.921C64.1245 343.006 63.7915 343.889 63.1264 344.57C62.4614 345.251 61.5747 345.592 60.4673 345.592H60.2758C59.5327 345.592 58.8686 345.448 58.2827 345.161C57.6977 344.874 57.2466 344.467 56.9292 343.941C56.6128 343.414 56.4546 342.814 56.4546 342.14C56.4546 341.128 56.7739 340.332 57.4116 339.75C58.0493 339.17 58.9546 338.879 60.1255 338.879H60.9321V343.589C61.4155 343.525 61.8022 343.332 62.0942 343.012C62.3862 342.689 62.5317 342.283 62.5317 341.791C62.5317 341.029 62.2563 340.436 61.7046 340.007L62.7915 339.036C63.2104 339.332 63.5376 339.733 63.7729 340.239C64.0073 340.745 64.1245 341.306 64.1245 341.921ZM58.0473 342.146C58.0473 342.539 58.1801 342.856 58.4458 343.1C58.7114 343.344 59.0913 343.5 59.5854 343.568V340.82H59.4272C58.9878 340.83 58.6479 340.947 58.4077 341.176C58.1675 341.404 58.0473 341.727 58.0473 342.146Z" fill="#00494F"/>
<path d="M60.2348 338.065C59.0815 338.065 58.1635 337.807 57.4799 337.289C56.7963 336.772 56.4545 336.064 56.4545 335.167C56.4545 334.447 56.7231 333.852 57.2612 333.383H53.4877V331.4H63.9877V333.185L63.2016 333.28C63.8168 333.772 64.1245 334.406 64.1245 335.181C64.1245 336.051 63.7817 336.75 63.0951 337.275C62.4096 337.803 61.4565 338.065 60.2348 338.065ZM60.3823 336.09C61.0756 336.09 61.6079 335.969 61.977 335.728C62.3471 335.486 62.5317 335.135 62.5317 334.675C62.5317 334.064 62.2739 333.633 61.7582 333.383H58.8344C58.3188 333.629 58.061 334.055 58.061 334.661C58.061 335.613 58.8344 336.09 60.3823 336.09Z" fill="#00494F"/>
<path d="M54.6772 329.883C54.3813 329.883 54.1371 329.783 53.9457 329.586C53.7543 329.387 53.6586 329.117 53.6586 328.775C53.6586 328.438 53.7543 328.17 53.9457 327.969C54.1371 327.768 54.3813 327.668 54.6772 327.668C54.978 327.668 55.2241 327.77 55.4155 327.973C55.6069 328.175 55.7026 328.443 55.7026 328.775C55.7026 329.107 55.6069 329.376 55.4155 329.578C55.2241 329.781 54.978 329.883 54.6772 329.883ZM63.9877 327.784V329.767H56.5913V327.784H63.9877Z" fill="#00494F"/>
<path d="M63.9878 321.871C63.81 321.963 63.5893 322.028 63.3247 322.069C63.8579 322.548 64.1245 323.17 64.1245 323.936C64.1245 324.66 63.9145 325.261 63.4955 325.736C63.0766 326.213 62.5473 326.451 61.9096 326.451C61.1254 326.451 60.5239 326.16 60.1049 325.58C59.686 324.998 59.4741 324.158 59.4692 323.061V322.151H59.0453C58.7035 322.151 58.4301 322.239 58.225 322.414C58.02 322.59 57.9174 322.867 57.9174 323.245C57.9174 323.578 57.9975 323.839 58.1567 324.027C58.3159 324.217 58.5346 324.312 58.8129 324.312V326.287C58.3842 326.287 57.9877 326.154 57.6235 325.891C57.2592 325.627 56.9731 325.252 56.7651 324.77C56.558 324.287 56.4545 323.744 56.4545 323.143C56.4545 322.23 56.683 321.508 57.142 320.973C57.5991 320.437 58.2436 320.169 59.0727 320.169H62.2787C62.9809 320.164 63.5112 320.066 63.8715 319.875H63.9877L63.9878 321.871ZM62.6137 323.505C62.6137 323.213 62.5483 322.944 62.4194 322.698C62.2885 322.452 62.1147 322.27 61.896 322.151H60.6245V322.89C60.6245 323.879 60.9663 324.404 61.6499 324.469L61.7661 324.476C62.0122 324.476 62.2153 324.389 62.3745 324.216C62.5336 324.043 62.6137 323.806 62.6137 323.505Z" fill="#00494F"/>
<path d="M56.5913 316.834L57.4458 316.772C56.7846 316.243 56.4546 315.535 56.4546 314.646C56.4546 313.862 56.685 313.279 57.145 312.896C57.6049 312.514 58.2934 312.317 59.2094 312.309H63.9878V314.284H59.2573C58.8383 314.284 58.5337 314.376 58.3452 314.558C58.1557 314.739 58.061 315.043 58.061 315.467C58.061 316.022 58.2983 316.44 58.7719 316.718H63.9878V318.693H56.5913V316.834Z" fill="#00494F"/>
<path d="M60.4809 305.144H63.9878V307.194H54.0346V303.312C54.0346 302.564 54.1714 301.906 54.4448 301.34C54.7182 300.771 55.1069 300.336 55.6108 300.03C56.1137 299.725 56.687 299.572 57.3296 299.572C58.3052 299.572 59.0737 299.906 59.6362 300.574C60.1997 301.241 60.4809 302.166 60.4809 303.346L60.4809 305.144ZM58.8198 305.144V303.312C58.8198 302.77 58.6919 302.355 58.437 302.07C58.1821 301.786 57.8169 301.644 57.3432 301.644C56.8559 301.644 56.4614 301.787 56.1606 302.074C55.8598 302.361 55.7046 302.758 55.6958 303.264V305.144H58.8198Z" fill="#00494F"/>
<path d="M60.4809 296.114H63.9878V298.165H54.0346V294.282C54.0346 293.534 54.1714 292.878 54.4448 292.31C54.7182 291.743 55.1069 291.306 55.6108 291.001C56.1137 290.696 56.687 290.543 57.3296 290.543C58.3052 290.543 59.0737 290.877 59.6362 291.544C60.1997 292.212 60.4809 293.136 60.4809 294.316L60.4809 296.114ZM58.8198 296.114V294.282C58.8198 293.739 58.6919 293.326 58.437 293.042C58.1821 292.757 57.8169 292.614 57.3432 292.614C56.8559 292.614 56.4614 292.758 56.1606 293.045C55.8598 293.332 55.7046 293.729 55.6958 294.234V296.114H58.8198Z" fill="#00494F"/>
<path d="M54.6772 289.277C54.3813 289.277 54.1371 289.178 53.9457 288.98C53.7543 288.781 53.6586 288.512 53.6586 288.17C53.6586 287.832 53.7543 287.564 53.9457 287.363C54.1371 287.162 54.3813 287.062 54.6772 287.062C54.978 287.062 55.2241 287.164 55.4155 287.367C55.6069 287.569 55.7026 287.838 55.7026 288.17C55.7026 288.502 55.6069 288.77 55.4155 288.973C55.2241 289.176 54.978 289.277 54.6772 289.277ZM63.9877 287.179V289.161H56.5913V287.179H63.9877Z" fill="#00494F"/>
<path d="M59.9409 281.978C58.897 281.978 57.9038 281.839 56.9604 281.561C56.0171 281.282 55.1821 280.872 54.4546 280.33C53.728 279.788 53.2231 279.2 52.9409 278.566L54.0073 278.184C54.4995 278.849 55.2603 279.368 56.2905 279.742C57.3208 280.116 58.5239 280.303 59.8999 280.303H60.1118C61.4927 280.303 62.7007 280.118 63.7349 279.749C64.769 279.38 65.5415 278.858 66.0522 278.184L67.0981 278.566C66.8198 279.187 66.3296 279.764 65.6245 280.3C64.9214 280.835 64.1089 281.243 63.188 281.526C62.2671 281.81 61.3062 281.96 60.3032 281.978H59.9409Z" fill="#00494F"/>
<path d="M56.5913 274.982H60.8501C61.4243 274.982 61.8471 274.89 62.1186 274.706C62.3891 274.521 62.5249 274.203 62.5249 273.752C62.5249 273.073 62.2856 272.606 61.8071 272.351H56.5913V270.375H63.9878V272.214L63.5229 272.255C63.9282 272.661 64.1313 273.173 64.1313 273.793C64.1313 274.258 64.0288 274.654 63.8237 274.982H66.8315V276.958H56.5913V274.982Z" fill="#00494F"/>
<path d="M54.0346 265.721L61.2534 263.164L54.0346 260.621V257.928H63.9878V259.985H61.2671L56.5708 259.78L63.9878 262.467V263.875L56.5776 266.555L61.2671 266.35H63.9878V268.4H54.0346L54.0346 265.721Z" fill="#00494F"/>
<path d="M60.0981 252.863C61.1284 252.863 62.1196 253.011 63.0717 253.308C64.0239 253.604 64.8647 254.03 65.5942 254.586C66.3237 255.142 66.8246 255.737 67.0981 256.37L66.0522 256.753C65.5649 256.106 64.8129 255.595 63.7963 255.222C62.7797 254.849 61.6108 254.654 60.2895 254.641H59.9272C58.5649 254.641 57.3637 254.826 56.3246 255.198C55.2856 255.569 54.5063 256.087 53.9868 256.753L52.9409 256.37C53.2094 255.751 53.6977 255.166 54.4037 254.616C55.1098 254.067 55.933 253.642 56.8715 253.339C57.81 253.035 58.7836 252.877 59.7905 252.863H60.0981Z" fill="#00494F"/>
<path d="M59.9409 247.755C58.897 247.755 57.9038 247.616 56.9604 247.338C56.0171 247.06 55.1821 246.649 54.4546 246.107C53.728 245.565 53.2231 244.978 52.9409 244.344L54.0073 243.961C54.4995 244.626 55.2603 245.146 56.2905 245.52C57.3208 245.894 58.5239 246.08 59.8999 246.08H60.1118C61.4927 246.08 62.7007 245.896 63.7349 245.526C64.769 245.157 65.5415 244.636 66.0522 243.961L67.0981 244.344C66.8198 244.964 66.3296 245.541 65.6245 246.077C64.9214 246.612 64.1089 247.021 63.188 247.304C62.2671 247.587 61.3062 247.737 60.3032 247.755H59.9409Z" fill="#00494F"/>
<path d="M56.5913 241.078L57.4184 241.017C56.7759 240.493 56.4546 239.784 56.4546 238.891C56.4546 237.938 56.8305 237.284 57.5825 236.929C56.8305 236.409 56.4546 235.669 56.4546 234.707C56.4546 233.905 56.688 233.308 57.1557 232.916C57.6225 232.524 58.3256 232.328 59.2641 232.328H63.9878V234.311H59.271C58.852 234.311 58.5454 234.393 58.351 234.557C58.1577 234.721 58.061 235.011 58.061 235.425C58.061 236.017 58.3432 236.427 58.9087 236.655L63.9878 236.648V238.624H59.2778C58.8491 238.624 58.5395 238.708 58.3481 238.877C58.1567 239.046 58.061 239.333 58.061 239.738C58.061 240.299 58.2934 240.704 58.7583 240.955H63.9878V242.931H56.5913V241.078Z" fill="#00494F"/>
<path d="M54.6772 230.824C54.3813 230.824 54.1371 230.726 53.9457 230.526C53.7543 230.329 53.6586 230.059 53.6586 229.717C53.6586 229.38 53.7543 229.11 53.9457 228.91C54.1371 228.71 54.3813 228.609 54.6772 228.609C54.978 228.609 55.2241 228.711 55.4155 228.913C55.6069 229.116 55.7026 229.384 55.7026 229.717C55.7026 230.05 55.6069 230.317 55.4155 230.521C55.2241 230.723 54.978 230.824 54.6772 230.824ZM63.9877 228.726V230.708H56.5913V228.726H63.9877Z" fill="#00494F"/>
<path d="M56.5913 225.279L57.4458 225.218C56.7846 224.689 56.4546 223.98 56.4546 223.092C56.4546 222.309 56.685 221.725 57.145 221.342C57.6049 220.959 58.2934 220.764 59.2094 220.754H63.9878V222.73H59.2573C58.8383 222.73 58.5337 222.82 58.3452 223.003C58.1557 223.186 58.061 223.488 58.061 223.912C58.061 224.469 58.2983 224.885 58.7719 225.163H63.9878V227.139H56.5913V225.279Z" fill="#00494F"/>
<path d="M66.4829 218.744L65.9428 219.776L65.4985 219.53C64.9428 219.225 64.3891 219.068 63.8374 219.059H62.3061V217.391L63.6733 217.397C64.1792 217.402 64.6899 217.529 65.2046 217.78C65.7192 218.031 66.146 218.352 66.4829 218.744Z" fill="#00494F"/>
<path d="M56.5913 210.5L57.4184 210.438C56.7759 209.914 56.4546 209.205 56.4546 208.312C56.4546 207.359 56.8305 206.706 57.5825 206.351C56.8305 205.831 56.4546 205.09 56.4546 204.129C56.4546 203.326 56.688 202.73 57.1557 202.338C57.6225 201.945 58.3256 201.75 59.2641 201.75H63.9878V203.732H59.271C58.852 203.732 58.5454 203.814 58.351 203.979C58.1577 204.143 58.061 204.432 58.061 204.847C58.061 205.439 58.3432 205.85 58.9087 206.077L63.9878 206.07V208.046H59.2778C58.8491 208.046 58.5395 208.131 58.3481 208.299C58.1567 208.467 58.061 208.754 58.061 209.16C58.061 209.721 58.2934 210.127 58.7583 210.377H63.9878V212.353H56.5913V210.5Z" fill="#00494F"/>
<path d="M63.9878 195.947C63.81 196.038 63.5893 196.104 63.3247 196.145C63.8579 196.624 64.1245 197.246 64.1245 198.012C64.1245 198.736 63.9145 199.337 63.4955 199.813C63.0766 200.289 62.5473 200.527 61.9096 200.527C61.1254 200.527 60.5239 200.237 60.1049 199.655C59.686 199.075 59.4741 198.235 59.4692 197.137V196.228H59.0453C58.7035 196.228 58.4301 196.315 58.225 196.491C58.02 196.666 57.9174 196.942 57.9174 197.321C57.9174 197.653 57.9975 197.915 58.1567 198.104C58.3159 198.293 58.5346 198.388 58.8129 198.388V200.363C58.3842 200.363 57.9877 200.231 57.6235 199.967C57.2592 199.702 56.9731 199.329 56.7651 198.846C56.558 198.362 56.4545 197.82 56.4545 197.219C56.4545 196.308 56.683 195.584 57.142 195.048C57.5991 194.513 58.2436 194.245 59.0727 194.245H62.2787C62.9809 194.241 63.5112 194.143 63.8715 193.951H63.9877L63.9878 195.947ZM62.6137 197.581C62.6137 197.29 62.5483 197.02 62.4194 196.774C62.2885 196.528 62.1147 196.347 61.896 196.228H60.6245V196.966C60.6245 197.954 60.9663 198.481 61.6499 198.545L61.7661 198.552C62.0122 198.552 62.2153 198.466 62.3745 198.292C62.5336 198.118 62.6137 197.882 62.6137 197.581Z" fill="#00494F"/>
<path d="M58.7993 189.91L56.5913 188.666V186.554L60.2143 188.659L63.9878 186.465V188.584L61.6635 189.903L63.9878 191.216V193.342L60.2143 191.147L56.5913 193.246V191.127L58.7993 189.91Z" fill="#00494F"/>
<path d="M60.0981 182.199C61.1284 182.199 62.1196 182.348 63.0717 182.644C64.0239 182.939 64.8647 183.365 65.5942 183.922C66.3237 184.479 66.8246 185.072 67.0981 185.706L66.0522 186.089C65.5649 185.441 64.8129 184.932 63.7963 184.558C62.7797 184.184 61.6108 183.99 60.2895 183.977H59.9272C58.5649 183.977 57.3637 184.162 56.3246 184.533C55.2856 184.905 54.5063 185.424 53.9868 186.089L52.9409 185.706C53.2094 185.086 53.6977 184.502 54.4037 183.953C55.1098 183.403 55.933 182.978 56.8715 182.674C57.81 182.371 58.7836 182.213 59.7905 182.199H60.0981Z" fill="#00494F"/>
<path d="M56.3012 179.342L55.0132 178.617V177.386L57.1255 178.613L59.3257 177.334V178.569L57.9702 179.338L59.3257 180.104V181.344L57.1255 180.064L55.0132 181.287V180.052L56.3012 179.342Z" fill="#00494F"/>
<path d="M60.7807 176.533L60.4653 177.135L60.2065 176.99C59.8823 176.813 59.5591 176.721 59.2378 176.716H58.3452V175.744L59.1421 175.748C59.437 175.75 59.7348 175.824 60.0346 175.971C60.3354 176.117 60.5835 176.305 60.7807 176.533Z" fill="#00494F"/>
<path d="M56.3012 173.196L55.0132 172.471V171.239L57.1255 172.467L59.3257 171.188V172.423L57.9702 173.192L59.3257 173.957V175.196L57.1255 173.917L55.0132 175.141V173.905L56.3012 173.196Z" fill="#00494F"/>
<path d="M120.841 54.3652L120.841 476.164" stroke="#626469" stroke-miterlimit="10"/>
<path d="M101.104 49.207V50.3848H100.929C100.132 50.3965 99.4951 50.6152 99.0185 51.041C98.5419 51.4668 98.2587 52.0703 98.1689 52.8516C98.6259 52.3711 99.2099 52.1309 99.9209 52.1309C100.675 52.1309 101.269 52.3965 101.705 52.9277C102.141 53.459 102.358 54.1445 102.358 54.9844C102.358 55.8516 102.103 56.5537 101.594 57.0908C101.084 57.6279 100.415 57.8965 99.5869 57.8965C98.7353 57.8965 98.0449 57.582 97.5156 56.9531C96.9863 56.3242 96.7216 55.5 96.7216 54.4805V53.9941C96.7216 52.4981 97.0859 51.3262 97.8144 50.4785C98.5429 49.6309 99.5908 49.207 100.958 49.207L101.104 49.207ZM99.5751 53.2793C99.2626 53.2793 98.9765 53.3672 98.7168 53.543C98.457 53.7187 98.2666 53.9531 98.1455 54.2461V54.6797C98.1455 55.3125 98.2783 55.8154 98.5439 56.1885C98.8095 56.5615 99.1533 56.748 99.5751 56.748C99.997 56.748 100.331 56.5898 100.577 56.2734C100.823 55.957 100.946 55.541 100.946 55.0254C100.946 54.5097 100.821 54.0898 100.571 53.7656C100.321 53.4414 99.9892 53.2793 99.5751 53.2793Z" fill="#00494F"/>
<path d="M97.0556 138.404L97.5185 134.104H102.101V135.334H98.7021L98.4677 137.373C98.8623 137.146 99.3076 137.033 99.8037 137.033C100.616 137.033 101.248 137.293 101.699 137.813C102.15 138.332 102.376 139.031 102.376 139.91C102.376 140.777 102.126 141.468 101.626 141.981C101.126 142.495 100.44 142.752 99.5693 142.752C98.788 142.752 98.1406 142.53 97.6269 142.087C97.1133 141.644 96.8349 141.059 96.792 140.332H98.1689C98.2236 140.746 98.372 141.063 98.6142 141.284C98.8564 141.505 99.1728 141.615 99.5634 141.615C100.001 141.615 100.342 141.459 100.586 141.146C100.83 140.834 100.952 140.408 100.952 139.869C100.952 139.35 100.817 138.938 100.548 138.636C100.278 138.333 99.9072 138.182 99.4345 138.182C99.1767 138.182 98.958 138.216 98.7783 138.284C98.5986 138.353 98.4033 138.486 98.1923 138.686L97.0556 138.404Z" fill="#00494F"/>
<path d="M101.491 224.416H102.552V225.559H101.491V227.457H100.067V225.559H96.3818L96.3408 224.691L100.02 218.926H101.491L101.491 224.416ZM97.8349 224.416H100.067V220.854L99.9619 221.041L97.8349 224.416Z" fill="#00494F"/>
<path d="M98.3213 307.428H99.1885C99.626 307.424 99.9726 307.311 100.228 307.088C100.484 306.865 100.612 306.543 100.612 306.121C100.612 305.715 100.506 305.399 100.293 305.175C100.08 304.95 99.7549 304.838 99.3174 304.838C98.9345 304.838 98.6201 304.948 98.374 305.169C98.1279 305.39 98.0049 305.678 98.0049 306.033H96.581C96.581 305.596 96.6972 305.197 96.9296 304.838C97.1621 304.479 97.4863 304.198 97.9023 303.997C98.3183 303.796 98.7841 303.695 99.2998 303.695C100.151 303.695 100.82 303.909 101.307 304.337C101.793 304.765 102.036 305.359 102.036 306.121C102.036 306.504 101.914 306.864 101.67 307.202C101.426 307.54 101.11 307.795 100.724 307.967C101.192 308.127 101.549 308.379 101.793 308.723C102.037 309.066 102.159 309.477 102.159 309.953C102.159 310.719 101.896 311.328 101.371 311.781C100.846 312.234 100.155 312.461 99.2998 312.461C98.4795 312.461 97.8076 312.242 97.2841 311.805C96.7607 311.367 96.499 310.785 96.499 310.059H97.9228C97.9228 310.434 98.0488 310.738 98.3008 310.973C98.5527 311.207 98.8916 311.324 99.3174 311.324C99.7588 311.324 100.106 311.207 100.36 310.973C100.614 310.738 100.741 310.398 100.741 309.953C100.741 309.504 100.608 309.158 100.343 308.916C100.077 308.674 99.6826 308.553 99.1591 308.553H98.3213V307.428Z" fill="#00494F"/>
<path d="M102.411 397.199H96.6748V396.221L99.5166 393.121C99.9267 392.664 100.219 392.282 100.393 391.976C100.566 391.669 100.653 391.361 100.653 391.053C100.653 390.646 100.539 390.318 100.311 390.068C100.082 389.818 99.7744 389.693 99.3877 389.693C98.9267 389.693 98.5693 389.834 98.3154 390.115C98.0615 390.396 97.9345 390.781 97.9345 391.27H96.5107C96.5107 390.75 96.6289 390.282 96.8652 389.866C97.1015 389.45 97.4394 389.127 97.8789 388.896C98.3183 388.666 98.8252 388.551 99.3994 388.551C100.228 388.551 100.881 388.759 101.359 389.175C101.838 389.591 102.077 390.166 102.077 390.9C102.077 391.326 101.957 391.772 101.717 392.239C101.477 392.706 101.083 393.236 100.536 393.83L98.4502 396.062H102.411V397.199Z" fill="#00494F"/>
<path d="M100.53 478.758H99.1123V471.904L97.0205 472.617V471.422L100.349 470.197H100.53L100.53 478.758Z" fill="#00494F"/>
<path d="M110.7 394.277H120.436" stroke="#626469" stroke-miterlimit="10"/>
<path d="M110.647 309.422H120.383" stroke="#626469" stroke-miterlimit="10"/>
<path d="M110.719 224.533H120.455" stroke="#626469" stroke-miterlimit="10"/>
<path d="M110.752 139.713H120.488" stroke="#626469" stroke-miterlimit="10"/>
<path d="M110.717 54.8574H120.453" stroke="#626469" stroke-miterlimit="10"/>
<path d="M227.198 485.46V476.16" stroke="#626469" stroke-miterlimit="10"/>
<path d="M165.791 485.46V476.16" stroke="#626469" stroke-miterlimit="10"/>
<path d="M288.889 485.581V476.281" stroke="#626469" stroke-miterlimit="10"/>
<path d="M206.965 493.262V494.439H206.79C205.993 494.451 205.356 494.67 204.879 495.096C204.403 495.521 204.12 496.125 204.03 496.906C204.487 496.426 205.071 496.186 205.782 496.186C206.536 496.186 207.13 496.451 207.566 496.982C208.001 497.514 208.219 498.199 208.219 499.039C208.219 499.906 207.964 500.608 207.455 501.146C206.945 501.683 206.276 501.951 205.448 501.951C204.596 501.951 203.906 501.637 203.376 501.008C202.847 500.379 202.582 499.555 202.582 498.535V498.049C202.582 496.553 202.947 495.381 203.675 494.533C204.404 493.686 205.452 493.262 206.819 493.262H206.965ZM205.436 497.334C205.123 497.334 204.837 497.422 204.578 497.598C204.318 497.773 204.127 498.008 204.006 498.301V498.734C204.006 499.367 204.139 499.87 204.405 500.243C204.67 500.616 205.014 500.803 205.436 500.803C205.858 500.803 206.192 500.645 206.438 500.328C206.684 500.012 206.807 499.596 206.807 499.08C206.807 498.564 206.682 498.145 206.432 497.82C206.182 497.496 205.85 497.334 205.436 497.334Z" fill="#00494F"/>
<path d="M213.774 495.494L213.815 496.156C214.26 495.637 214.87 495.377 215.643 495.377C216.491 495.377 217.071 495.701 217.383 496.35C217.844 495.701 218.493 495.377 219.329 495.377C220.028 495.377 220.548 495.57 220.89 495.957C221.232 496.344 221.407 496.914 221.415 497.668V501.834H219.991V497.709C219.991 497.307 219.903 497.012 219.727 496.824C219.551 496.637 219.26 496.543 218.854 496.543C218.53 496.543 218.265 496.63 218.06 496.804C217.855 496.978 217.711 497.205 217.629 497.486L217.635 501.834H216.211V497.662C216.192 496.916 215.811 496.543 215.069 496.543C214.498 496.543 214.094 496.775 213.856 497.24V501.834H212.432V495.494H213.774Z" fill="#00494F"/>
<path d="M222.61 498.605C222.61 497.984 222.733 497.425 222.979 496.927C223.225 496.429 223.571 496.046 224.016 495.778C224.461 495.511 224.973 495.377 225.551 495.377C226.407 495.377 227.101 495.652 227.634 496.203C228.167 496.754 228.456 497.484 228.499 498.395L228.504 498.729C228.504 499.354 228.384 499.912 228.144 500.404C227.904 500.896 227.56 501.277 227.113 501.547C226.665 501.816 226.149 501.951 225.563 501.951C224.668 501.951 223.953 501.653 223.416 501.058C222.878 500.462 222.61 499.668 222.61 498.676L222.61 498.605ZM224.034 498.729C224.034 499.381 224.168 499.892 224.438 500.261C224.707 500.63 225.082 500.814 225.563 500.814C226.043 500.814 226.417 500.627 226.685 500.252C226.953 499.877 227.086 499.328 227.086 498.605C227.086 497.965 226.949 497.457 226.673 497.082C226.398 496.707 226.024 496.52 225.551 496.52C225.086 496.52 224.717 496.704 224.444 497.073C224.17 497.442 224.034 497.994 224.034 498.729Z" fill="#00494F"/>
<path d="M231.03 495.494L231.071 496.227C231.54 495.66 232.155 495.377 232.916 495.377C234.237 495.377 234.909 496.133 234.932 497.645V501.834H233.508V497.727C233.508 497.324 233.421 497.026 233.247 496.833C233.074 496.64 232.789 496.543 232.395 496.543C231.821 496.543 231.393 496.803 231.112 497.322V501.834H229.688V495.494H231.03Z" fill="#00494F"/>
<path d="M238.166 493.953V495.494H239.286V496.549H238.166V500.088C238.166 500.33 238.214 500.505 238.31 500.612C238.406 500.72 238.577 500.773 238.823 500.773C238.987 500.773 239.153 500.754 239.321 500.715V501.816C238.997 501.906 238.684 501.951 238.383 501.951C237.29 501.951 236.743 501.348 236.743 500.141V496.549H235.7V495.494H236.743V493.953H238.166Z" fill="#00494F"/>
<path d="M241.776 496.186C242.241 495.646 242.829 495.377 243.54 495.377C244.891 495.377 245.577 496.148 245.596 497.691V501.834H244.172V497.744C244.172 497.307 244.078 496.997 243.888 496.815C243.699 496.634 243.42 496.543 243.053 496.543C242.483 496.543 242.057 496.797 241.776 497.305V501.834H240.352V492.834H241.776V496.186Z" fill="#00494F"/>
<path d="M250.588 500.111C250.588 499.857 250.484 499.664 250.275 499.531C250.066 499.398 249.719 499.281 249.235 499.18C248.75 499.078 248.346 498.949 248.022 498.793C247.311 498.449 246.956 497.951 246.956 497.299C246.956 496.752 247.186 496.295 247.647 495.928C248.108 495.561 248.694 495.377 249.405 495.377C250.163 495.377 250.775 495.564 251.242 495.939C251.708 496.314 251.942 496.801 251.942 497.398H250.518C250.518 497.125 250.416 496.897 250.213 496.716C250.01 496.534 249.741 496.443 249.405 496.443C249.092 496.443 248.837 496.516 248.64 496.66C248.443 496.805 248.344 496.998 248.344 497.24C248.344 497.459 248.436 497.629 248.62 497.75C248.803 497.871 249.174 497.993 249.733 498.116C250.291 498.239 250.73 498.386 251.048 498.556C251.367 498.726 251.603 498.93 251.757 499.168C251.912 499.406 251.989 499.695 251.989 500.035C251.989 500.605 251.752 501.067 251.28 501.421C250.807 501.774 250.188 501.951 249.422 501.951C248.903 501.951 248.44 501.857 248.034 501.67C247.627 501.482 247.311 501.225 247.084 500.896C246.858 500.568 246.745 500.215 246.745 499.836H248.127C248.147 500.172 248.274 500.431 248.508 500.612C248.743 500.794 249.053 500.885 249.44 500.885C249.815 500.885 250.1 500.813 250.295 500.671C250.491 500.528 250.588 500.342 250.588 500.111Z" fill="#00494F"/>
<path d="M215.702 509.895L215.737 510.691C216.221 510.082 216.854 509.777 217.635 509.777C218.975 509.777 219.651 510.533 219.663 512.045V516.234H218.579V512.039C218.575 511.582 218.47 511.244 218.265 511.025C218.06 510.807 217.741 510.697 217.307 510.697C216.956 510.697 216.647 510.791 216.381 510.979C216.116 511.166 215.909 511.412 215.76 511.717V516.234H214.676V509.895L215.702 509.895Z" fill="#626469"/>
<path d="M226.254 511.465H221.368V510.521H226.254V511.465ZM226.254 513.896H221.368V512.959H226.254V513.896Z" fill="#626469"/>
<path d="M231.334 516.234H230.245V509.01L228.059 509.812V508.828L231.165 507.662H231.334V516.234Z" fill="#626469"/>
<path d="M240.1 516.234H234.51V515.455L237.463 512.174C237.901 511.678 238.203 511.274 238.369 510.964C238.535 510.653 238.618 510.332 238.618 510C238.618 509.555 238.483 509.189 238.213 508.904C237.944 508.619 237.584 508.477 237.135 508.477C236.596 508.477 236.177 508.63 235.878 508.937C235.58 509.243 235.43 509.67 235.43 510.217H234.346C234.346 509.432 234.599 508.797 235.105 508.312C235.611 507.828 236.288 507.586 237.135 507.586C237.928 507.586 238.555 507.794 239.016 508.21C239.477 508.626 239.707 509.18 239.707 509.871C239.707 510.711 239.172 511.711 238.102 512.871L235.817 515.35H240.1V516.234Z" fill="#626469"/>
<path d="M143.689 501.834V493.303H146.613C147.578 493.303 148.312 493.496 148.816 493.883C149.32 494.27 149.572 494.846 149.572 495.611C149.572 496.002 149.467 496.354 149.256 496.666C149.045 496.979 148.736 497.221 148.33 497.393C148.791 497.518 149.147 497.753 149.399 498.099C149.651 498.444 149.777 498.859 149.777 499.344C149.777 500.145 149.52 500.76 149.007 501.189C148.493 501.619 147.758 501.834 146.801 501.834H143.689ZM145.172 496.895H146.625C147.086 496.895 147.446 496.79 147.706 496.581C147.966 496.372 148.096 496.076 148.096 495.693C148.096 495.271 147.976 494.967 147.735 494.779C147.495 494.592 147.121 494.498 146.613 494.498H145.172L145.172 496.895ZM145.172 497.984V500.65H146.818C147.283 500.65 147.646 500.535 147.908 500.305C148.17 500.074 148.301 499.754 148.301 499.344C148.301 498.457 147.848 498.004 146.941 497.984H145.172Z" fill="#00494F"/>
<path d="M154.91 501.834C154.848 501.713 154.793 501.516 154.746 501.242C154.293 501.715 153.738 501.951 153.082 501.951C152.445 501.951 151.926 501.77 151.523 501.406C151.121 501.043 150.92 500.594 150.92 500.059C150.92 499.383 151.171 498.864 151.673 498.503C152.175 498.142 152.893 497.961 153.826 497.961H154.699V497.545C154.699 497.217 154.607 496.954 154.424 496.757C154.24 496.56 153.961 496.461 153.586 496.461C153.262 496.461 152.996 496.542 152.789 496.704C152.582 496.866 152.478 497.072 152.478 497.322H151.055C151.055 496.975 151.17 496.649 151.4 496.347C151.631 496.044 151.944 495.807 152.341 495.635C152.737 495.463 153.18 495.377 153.668 495.377C154.41 495.377 155.002 495.563 155.443 495.937C155.885 496.31 156.111 496.834 156.123 497.51V500.369C156.123 500.939 156.203 501.395 156.363 501.734V501.834L154.91 501.834ZM153.346 500.809C153.627 500.809 153.892 500.74 154.14 500.604C154.388 500.467 154.574 500.283 154.699 500.053V498.857H153.932C153.404 498.857 153.008 498.949 152.742 499.133C152.477 499.316 152.344 499.576 152.344 499.912C152.344 500.186 152.435 500.403 152.616 500.565C152.798 500.728 153.041 500.809 153.346 500.809Z" fill="#00494F"/>
<path d="M161.168 500.111C161.168 499.857 161.063 499.664 160.854 499.531C160.645 499.398 160.299 499.281 159.814 499.18C159.33 499.078 158.926 498.949 158.602 498.793C157.891 498.449 157.535 497.951 157.535 497.299C157.535 496.752 157.766 496.295 158.227 495.928C158.687 495.561 159.273 495.377 159.984 495.377C160.742 495.377 161.354 495.564 161.821 495.939C162.288 496.314 162.521 496.801 162.521 497.398H161.098C161.098 497.125 160.996 496.897 160.793 496.716C160.59 496.534 160.32 496.443 159.984 496.443C159.672 496.443 159.417 496.516 159.22 496.66C159.022 496.805 158.924 496.998 158.924 497.24C158.924 497.459 159.016 497.629 159.199 497.75C159.383 497.871 159.754 497.993 160.312 498.116C160.871 498.239 161.31 498.386 161.628 498.556C161.946 498.726 162.183 498.93 162.337 499.168C162.491 499.406 162.568 499.695 162.568 500.035C162.568 500.605 162.332 501.067 161.859 501.421C161.387 501.774 160.768 501.951 160.002 501.951C159.482 501.951 159.02 501.857 158.613 501.67C158.207 501.482 157.891 501.225 157.664 500.896C157.437 500.568 157.324 500.215 157.324 499.836H158.707C158.727 500.172 158.853 500.431 159.088 500.612C159.322 500.794 159.633 500.885 160.02 500.885C160.395 500.885 160.68 500.813 160.875 500.671C161.07 500.528 161.168 500.342 161.168 500.111Z" fill="#00494F"/>
<path d="M166.6 501.951C165.697 501.951 164.966 501.667 164.405 501.099C163.845 500.53 163.564 499.773 163.564 498.828V498.652C163.564 498.02 163.686 497.454 163.931 496.956C164.175 496.458 164.518 496.07 164.959 495.793C165.4 495.516 165.893 495.377 166.436 495.377C167.299 495.377 167.966 495.652 168.436 496.203C168.907 496.754 169.143 497.533 169.143 498.541V499.115H165C165.043 499.639 165.218 500.053 165.524 500.357C165.831 500.662 166.217 500.814 166.682 500.814C167.334 500.814 167.865 500.551 168.275 500.023L169.043 500.756C168.789 501.135 168.45 501.429 168.026 501.638C167.603 501.847 167.127 501.951 166.6 501.951ZM166.43 496.52C166.039 496.52 165.724 496.656 165.483 496.93C165.243 497.203 165.09 497.584 165.023 498.072H167.736V497.967C167.705 497.49 167.578 497.13 167.355 496.886C167.133 496.642 166.824 496.52 166.43 496.52Z" fill="#00494F"/>
<path d="M171.762 501.834H170.338V492.834H171.762V501.834Z" fill="#00494F"/>
<path d="M173.314 493.848C173.314 493.629 173.384 493.447 173.522 493.303C173.661 493.158 173.859 493.086 174.117 493.086C174.375 493.086 174.574 493.158 174.715 493.303C174.855 493.447 174.926 493.629 174.926 493.848C174.926 494.062 174.855 494.241 174.715 494.384C174.574 494.526 174.375 494.598 174.117 494.598C173.859 494.598 173.661 494.526 173.522 494.384C173.384 494.241 173.314 494.062 173.314 493.848ZM174.826 501.834H173.402V495.494H174.826V501.834Z" fill="#00494F"/>
<path d="M177.697 495.494L177.738 496.227C178.207 495.66 178.822 495.377 179.584 495.377C180.904 495.377 181.576 496.133 181.6 497.645V501.834H180.176V497.727C180.176 497.324 180.089 497.026 179.915 496.833C179.741 496.64 179.457 496.543 179.062 496.543C178.488 496.543 178.061 496.803 177.779 497.322V501.834H176.355V495.494H177.697Z" fill="#00494F"/>
<path d="M185.842 501.951C184.939 501.951 184.208 501.667 183.647 501.099C183.087 500.53 182.807 499.773 182.807 498.828V498.652C182.807 498.02 182.929 497.454 183.173 496.956C183.417 496.458 183.76 496.07 184.201 495.793C184.643 495.516 185.135 495.377 185.678 495.377C186.541 495.377 187.208 495.652 187.679 496.203C188.149 496.754 188.385 497.533 188.385 498.541V499.115H184.242C184.285 499.639 184.46 500.053 184.767 500.357C185.073 500.662 185.459 500.814 185.924 500.814C186.576 500.814 187.107 500.551 187.518 500.023L188.285 500.756C188.031 501.135 187.692 501.429 187.269 501.638C186.845 501.847 186.369 501.951 185.842 501.951ZM185.672 496.52C185.281 496.52 184.966 496.656 184.726 496.93C184.485 497.203 184.332 497.584 184.266 498.072H186.978V497.967C186.947 497.49 186.82 497.13 186.598 496.886C186.375 496.642 186.066 496.52 185.672 496.52Z" fill="#00494F"/>
<path d="M154.295 509.895L154.33 510.691C154.814 510.082 155.447 509.777 156.229 509.777C157.568 509.777 158.244 510.533 158.256 512.045V516.234H157.172V512.039C157.168 511.582 157.063 511.244 156.858 511.025C156.653 510.807 156.334 510.697 155.9 510.697C155.549 510.697 155.24 510.791 154.975 510.979C154.709 511.166 154.502 511.412 154.354 511.717V516.234H153.27V509.895L154.295 509.895Z" fill="#626469"/>
<path d="M164.848 511.465H159.961V510.521H164.848V511.465ZM164.848 513.896H159.961V512.959H164.848V513.896Z" fill="#626469"/>
<path d="M169.928 516.234H168.838V509.01L166.652 509.812V508.828L169.758 507.662H169.928V516.234Z" fill="#626469"/>
<path d="M178.693 516.234H173.103V515.455L176.057 512.174C176.494 511.678 176.796 511.274 176.962 510.964C177.128 510.653 177.211 510.332 177.211 510C177.211 509.555 177.076 509.189 176.807 508.904C176.537 508.619 176.178 508.477 175.728 508.477C175.189 508.477 174.77 508.63 174.472 508.937C174.173 509.243 174.023 509.67 174.023 510.217H172.939C172.939 509.432 173.192 508.797 173.698 508.312C174.204 507.828 174.881 507.586 175.728 507.586C176.521 507.586 177.148 507.794 177.609 508.21C178.07 508.626 178.301 509.18 178.301 509.871C178.301 510.711 177.766 511.711 176.695 512.871L174.41 515.35H178.693L178.693 516.234Z" fill="#626469"/>
<path d="M270.412 497.604L270.874 493.303H275.457V494.533H272.058L271.824 496.572C272.218 496.346 272.664 496.232 273.16 496.232C273.972 496.232 274.604 496.492 275.055 497.012C275.506 497.531 275.732 498.23 275.732 499.109C275.732 499.977 275.482 500.668 274.982 501.182C274.482 501.695 273.796 501.951 272.925 501.951C272.144 501.951 271.497 501.731 270.983 501.287C270.469 500.844 270.191 500.258 270.148 499.531H271.525C271.58 499.945 271.728 500.264 271.97 500.484C272.212 500.705 272.529 500.814 272.919 500.814C273.357 500.814 273.698 500.658 273.942 500.346C274.186 500.033 274.308 499.607 274.308 499.068C274.308 498.549 274.173 498.139 273.904 497.836C273.634 497.533 273.263 497.381 272.79 497.381C272.533 497.381 272.314 497.416 272.134 497.484C271.955 497.553 271.759 497.686 271.548 497.885L270.412 497.604Z" fill="#00494F"/>
<path d="M282.148 499.795L283.437 495.494H284.955L282.435 502.795C282.048 503.861 281.392 504.395 280.466 504.395C280.259 504.395 280.031 504.359 279.781 504.289V503.182L280.05 503.199C280.41 503.199 280.68 503.135 280.862 503.004C281.043 502.873 281.187 502.652 281.292 502.346L281.498 501.801L279.271 495.494H280.806L282.148 499.795Z" fill="#00494F"/>
<path d="M288.564 501.951C287.662 501.951 286.93 501.668 286.37 501.1C285.809 500.531 285.529 499.773 285.529 498.828V498.652C285.529 498.02 285.651 497.455 285.895 496.957C286.139 496.459 286.482 496.07 286.923 495.793C287.365 495.516 287.857 495.377 288.4 495.377C289.263 495.377 289.93 495.652 290.401 496.203C290.872 496.754 291.107 497.533 291.107 498.541V499.115H286.964C287.007 499.639 287.182 500.053 287.489 500.357C287.795 500.662 288.181 500.814 288.646 500.814C289.298 500.814 289.83 500.551 290.24 500.023L291.007 500.756C290.753 501.135 290.415 501.43 289.991 501.639C289.567 501.848 289.091 501.951 288.564 501.951ZM288.394 496.52C288.003 496.52 287.688 496.656 287.448 496.93C287.207 497.203 287.054 497.584 286.988 498.072H289.701V497.967C289.669 497.49 289.542 497.131 289.32 496.887C289.097 496.643 288.789 496.52 288.394 496.52Z" fill="#00494F"/>
<path d="M295.999 501.834C295.937 501.713 295.882 501.516 295.835 501.242C295.382 501.715 294.828 501.951 294.171 501.951C293.535 501.951 293.015 501.77 292.613 501.406C292.21 501.043 292.009 500.594 292.009 500.059C292.009 499.383 292.26 498.865 292.762 498.504C293.264 498.143 293.982 497.961 294.915 497.961H295.789V497.545C295.789 497.217 295.697 496.955 295.513 496.758C295.33 496.561 295.05 496.461 294.675 496.461C294.351 496.461 294.085 496.543 293.878 496.705C293.671 496.867 293.568 497.072 293.568 497.322H292.144C292.144 496.975 292.259 496.65 292.49 496.348C292.72 496.045 293.034 495.807 293.43 495.635C293.827 495.463 294.269 495.377 294.757 495.377C295.499 495.377 296.091 495.564 296.533 495.938C296.974 496.311 297.201 496.834 297.212 497.51V500.369C297.212 500.939 297.292 501.395 297.453 501.734V501.834H295.999ZM294.435 500.809C294.716 500.809 294.981 500.74 295.229 500.604C295.477 500.467 295.664 500.283 295.789 500.053V498.857H295.021C294.494 498.857 294.097 498.949 293.832 499.133C293.566 499.316 293.433 499.576 293.433 499.912C293.433 500.186 293.524 500.404 293.706 500.566C293.887 500.729 294.13 500.809 294.435 500.809Z" fill="#00494F"/>
<path d="M302.023 496.795C301.835 496.764 301.642 496.748 301.443 496.748C300.791 496.748 300.351 496.998 300.124 497.498V501.834H298.701V495.494H300.06L300.095 496.203C300.439 495.652 300.915 495.377 301.525 495.377C301.728 495.377 301.896 495.404 302.029 495.459L302.023 496.795Z" fill="#00494F"/>
<path d="M306.476 500.111C306.476 499.857 306.372 499.664 306.163 499.531C305.954 499.398 305.607 499.281 305.123 499.18C304.638 499.078 304.234 498.949 303.91 498.793C303.199 498.449 302.843 497.951 302.843 497.299C302.843 496.752 303.074 496.295 303.535 495.928C303.996 495.561 304.582 495.377 305.292 495.377C306.05 495.377 306.663 495.564 307.129 495.939C307.596 496.314 307.83 496.801 307.83 497.398H306.406C306.406 497.125 306.304 496.898 306.101 496.717C305.898 496.535 305.628 496.443 305.292 496.443C304.98 496.443 304.725 496.516 304.528 496.66C304.331 496.805 304.232 496.998 304.232 497.24C304.232 497.459 304.324 497.629 304.507 497.75C304.691 497.871 305.062 497.994 305.621 498.117C306.179 498.24 306.618 498.387 306.936 498.557C307.254 498.727 307.491 498.93 307.645 499.168C307.799 499.406 307.876 499.695 307.876 500.035C307.876 500.605 307.64 501.068 307.167 501.422C306.695 501.775 306.076 501.951 305.31 501.951C304.79 501.951 304.328 501.857 303.921 501.67C303.515 501.482 303.199 501.225 302.972 500.897C302.746 500.568 302.632 500.215 302.632 499.836H304.015C304.035 500.172 304.162 500.432 304.396 500.613C304.63 500.795 304.941 500.885 305.328 500.885C305.703 500.885 305.988 500.814 306.183 500.672C306.378 500.529 306.476 500.342 306.476 500.111Z" fill="#00494F"/>
<path d="M277.393 509.895L277.428 510.691C277.913 510.082 278.545 509.777 279.327 509.777C280.666 509.777 281.342 510.533 281.354 512.045V516.234H280.27V512.039C280.266 511.582 280.162 511.244 279.957 511.025C279.751 510.807 279.432 510.697 278.999 510.697C278.647 510.697 278.338 510.791 278.073 510.979C277.807 511.166 277.6 511.412 277.452 511.717V516.234H276.368V509.895L277.393 509.895Z" fill="#626469"/>
<path d="M287.946 511.465H283.059V510.521H287.946V511.465ZM287.946 513.896H283.059V512.959H287.946V513.896Z" fill="#626469"/>
<path d="M293.026 516.234H291.936V509.01L289.75 509.812V508.828L292.856 507.662H293.026V516.234Z" fill="#626469"/>
<path d="M301.791 516.234H296.202V515.455L299.155 512.174C299.592 511.678 299.894 511.275 300.06 510.965C300.226 510.654 300.309 510.332 300.309 510C300.309 509.555 300.174 509.189 299.905 508.904C299.635 508.619 299.276 508.477 298.827 508.477C298.288 508.477 297.869 508.631 297.57 508.938C297.271 509.244 297.122 509.67 297.122 510.217H296.038C296.038 509.432 296.29 508.797 296.796 508.312C297.302 507.828 297.979 507.586 298.827 507.586C299.62 507.586 300.247 507.795 300.707 508.211C301.168 508.627 301.399 509.18 301.399 509.871C301.399 510.711 300.864 511.711 299.793 512.871L297.508 515.35H301.791V516.234Z" fill="#626469"/>
<path d="M227.197 273.914C237.086 273.914 245.114 281.942 245.114 291.83V475.837H209.114V291.998C209.114 282.017 217.217 273.914 227.197 273.914Z" fill="#48D597"/>
<path d="M165.393 91.8438C175.327 91.8438 183.393 99.9093 183.393 109.844V475.259H147.393V109.844C147.393 99.9093 155.459 91.8438 165.393 91.8438Z" fill="#E2E7EA"/>
<path d="M289.444 372.43C299.378 372.43 307.444 380.495 307.444 390.43V475.836H271.444V390.43C271.444 380.495 279.509 372.43 289.444 372.43Z" fill="#48D597"/>
<path d="M151.852 66.1504L152.721 58.877H161.033V61.4355H155.397L155.075 64.2607C155.31 64.123 155.617 64.002 155.998 63.8975C156.379 63.793 156.751 63.7402 157.116 63.7402C158.529 63.7402 159.615 64.1592 160.373 64.9961C161.132 65.832 161.511 67.0059 161.511 68.5166C161.511 69.4277 161.308 70.2529 160.901 70.9922C160.494 71.7315 159.922 72.2998 159.186 72.6963C158.451 73.0938 157.581 73.292 156.579 73.292C155.687 73.292 154.851 73.1084 154.069 72.7412C153.288 72.3731 152.676 71.8691 152.233 71.2285C151.79 70.5879 151.572 69.8643 151.579 69.0576H154.88C154.912 69.5771 155.078 69.9893 155.378 70.2949C155.677 70.6006 156.071 70.7529 156.56 70.7529C157.666 70.7529 158.22 69.9346 158.22 68.2969C158.22 66.7832 157.542 66.0264 156.188 66.0264C155.42 66.0264 154.847 66.2734 154.47 66.7666L151.852 66.1504Z" fill="#626469"/>
<path d="M165.33 69.9023C165.85 69.9023 166.284 70.0566 166.628 70.3662C166.974 70.6758 167.146 71.0713 167.146 71.5527C167.146 72.0352 166.974 72.4307 166.628 72.7393C166.284 73.0488 165.85 73.2031 165.33 73.2031C164.802 73.2031 164.368 73.0469 164.026 72.7344C163.684 72.4219 163.513 72.0283 163.513 71.5527C163.513 71.0781 163.684 70.6836 164.026 70.3711C164.368 70.0586 164.802 69.9023 165.33 69.9023Z" fill="#626469"/>
<path d="M177.235 58.6719V61.2598H177.088C175.858 61.2598 174.847 61.5547 174.055 62.1436C173.264 62.7334 172.778 63.5518 172.595 64.6006C173.337 63.8711 174.275 63.5059 175.409 63.5059C176.639 63.5059 177.619 63.9561 178.348 64.8545C179.077 65.7529 179.442 66.9307 179.442 68.3896C179.442 69.2949 179.228 70.125 178.802 70.8799C178.375 71.6357 177.78 72.2266 177.015 72.6523C176.249 73.0791 175.402 73.292 174.47 73.292C173.461 73.292 172.56 73.0625 171.765 72.6035C170.971 72.1445 170.352 71.4892 169.91 70.6357C169.467 69.7832 169.239 68.7998 169.226 67.6865V66.3682C169.226 64.9033 169.54 63.5859 170.168 62.417C170.796 61.249 171.694 60.332 172.859 59.668C174.025 59.0039 175.317 58.6719 176.737 58.6719H177.235ZM174.265 66.0264C173.83 66.0264 173.464 66.127 173.171 66.3291C172.878 66.5303 172.661 66.7783 172.517 67.0713V68.0576C172.517 69.8545 173.139 70.7529 174.382 70.7529C174.884 70.7529 175.302 70.5283 175.638 70.0791C175.973 69.6299 176.141 69.0664 176.141 68.3896C176.141 67.6934 175.97 67.125 175.628 66.6855C175.287 66.2461 174.832 66.0264 174.265 66.0264Z" fill="#626469"/>
<path d="M146.514 82.2109C146.514 81.4756 146.612 80.7686 146.809 80.0918C147.006 79.415 147.3 78.7998 147.69 78.2461C148.081 77.6924 148.486 77.3018 148.906 77.0742L149.092 77.6699C148.617 78.0342 148.227 78.5908 147.922 79.3398C147.618 80.0889 147.451 80.9268 147.422 81.8545L147.417 82.2695C147.417 83.5264 147.646 84.6162 148.105 85.541C148.382 86.0947 148.711 86.5273 149.092 86.8398L148.906 87.3916C148.473 87.1504 148.06 86.7471 147.666 86.1807C146.898 85.0742 146.514 83.751 146.514 82.2109Z" fill="#626469"/>
<path d="M154.531 85.0957H149.873V84.4463L152.334 81.7119C152.699 81.2988 152.95 80.9629 153.088 80.7031C153.227 80.4453 153.296 80.1768 153.296 79.9004C153.296 79.5293 153.184 79.2246 152.959 78.9873C152.734 78.75 152.435 78.6309 152.061 78.6309C151.611 78.6309 151.262 78.7588 151.013 79.0137C150.764 79.2695 150.64 79.625 150.64 80.0811H149.736C149.736 79.4268 149.947 78.8975 150.369 78.4941C150.79 78.0908 151.354 77.8887 152.061 77.8887C152.721 77.8887 153.244 78.0625 153.628 78.4082C154.012 78.7559 154.204 79.2168 154.204 79.793C154.204 80.4932 153.758 81.3262 152.866 82.293L150.962 84.3584H154.531L154.531 85.0957Z" fill="#626469"/>
<path d="M155.601 84.623C155.601 84.4668 155.647 84.3369 155.74 84.2324C155.832 84.1279 155.972 84.0762 156.157 84.0762C156.343 84.0762 156.483 84.1279 156.58 84.2324C156.676 84.3369 156.724 84.4668 156.724 84.623C156.724 84.7724 156.676 84.8984 156.58 84.999C156.483 85.0996 156.343 85.1504 156.157 85.1504C155.972 85.1504 155.832 85.0996 155.74 84.999C155.647 84.8984 155.601 84.7725 155.601 84.623Z" fill="#626469"/>
<path d="M162.778 85.0957H158.12V84.4463L160.581 81.7119C160.946 81.2988 161.197 80.9629 161.335 80.7031C161.474 80.4453 161.543 80.1768 161.543 79.9004C161.543 79.5293 161.431 79.2246 161.206 78.9873C160.981 78.75 160.682 78.6309 160.308 78.6309C159.858 78.6309 159.509 78.7588 159.26 79.0137C159.011 79.2695 158.887 79.625 158.887 80.0811H157.983C157.983 79.4268 158.194 78.8975 158.616 78.4941C159.037 78.0908 159.601 77.8887 160.308 77.8887C160.968 77.8887 161.491 78.0625 161.875 78.4082C162.259 78.7559 162.451 79.2168 162.451 79.793C162.451 80.4932 162.005 81.3262 161.113 82.293L159.209 84.3584H162.778L162.778 85.0957Z" fill="#626469"/>
<path d="M163.799 86.5127L163.286 86.1611C163.592 85.7344 163.751 85.2949 163.765 84.8428V84.0273H164.648V84.7354C164.648 85.0645 164.568 85.3926 164.407 85.7217C164.246 86.0508 164.043 86.3144 163.799 86.5127Z" fill="#626469"/>
<path d="M172.485 79.8437C172.485 80.1982 172.391 80.5146 172.204 80.791C172.017 81.0674 171.764 81.2842 171.445 81.4404C171.816 81.5996 172.11 81.833 172.327 82.1386C172.542 82.4443 172.651 82.791 172.651 83.1787C172.651 83.7939 172.444 84.2842 172.028 84.6484C171.614 85.0127 171.067 85.1953 170.39 85.1953C169.707 85.1953 169.159 85.0117 168.747 84.6465C168.335 84.2793 168.129 83.791 168.129 83.1787C168.129 82.7949 168.235 82.4482 168.444 82.1387C168.655 81.8291 168.945 81.5947 169.316 81.4355C169 81.2793 168.751 81.0625 168.569 80.7861C168.386 80.5098 168.295 80.1953 168.295 79.8437C168.295 79.2451 168.488 78.7695 168.872 78.418C169.255 78.0664 169.762 77.8906 170.39 77.8906C171.015 77.8906 171.52 78.0664 171.907 78.418C172.291 78.7695 172.485 79.2451 172.485 79.8437ZM171.748 83.1592C171.748 82.7617 171.622 82.4385 171.37 82.1875C171.117 81.9365 170.788 81.8115 170.38 81.8115C169.973 81.8115 169.647 81.9355 169.401 82.1826C169.156 82.4297 169.033 82.7558 169.033 83.1591C169.033 83.5625 169.153 83.8798 169.391 84.1113C169.631 84.3427 169.963 84.458 170.39 84.458C170.813 84.458 171.145 84.3418 171.386 84.1093C171.627 83.8759 171.748 83.5596 171.748 83.1592ZM170.39 78.6328C170.036 78.6328 169.749 78.7422 169.528 78.9629C169.309 79.1816 169.199 79.4804 169.199 79.8584C169.199 80.2197 169.307 80.5117 169.524 80.7344C169.74 80.958 170.029 81.0693 170.39 81.0693C170.751 81.0693 171.041 80.958 171.256 80.7344C171.473 80.5117 171.582 80.2197 171.582 79.8584C171.582 79.497 171.469 79.2021 171.245 78.9746C171.02 78.747 170.735 78.6328 170.39 78.6328Z" fill="#626469"/>
<path d="M173.901 84.623C173.901 84.4668 173.948 84.3369 174.04 84.2324C174.133 84.1279 174.272 84.0762 174.457 84.0762C174.643 84.0762 174.784 84.1279 174.879 84.2324C174.976 84.3369 175.024 84.4668 175.024 84.623C175.024 84.7724 174.976 84.8984 174.879 84.999C174.784 85.0996 174.643 85.1504 174.457 85.1504C174.272 85.1504 174.133 85.0996 174.04 84.999C173.948 84.8984 173.901 84.7725 173.901 84.623Z" fill="#626469"/>
<path d="M181.08 85.0957H176.421V84.4463L178.882 81.7119C179.247 81.2988 179.499 80.9629 179.637 80.7031C179.775 80.4453 179.844 80.1768 179.844 79.9004C179.844 79.5293 179.732 79.2246 179.507 78.9873C179.283 78.75 178.983 78.6309 178.609 78.6309C178.16 78.6309 177.811 78.7588 177.561 79.0137C177.313 79.2695 177.188 79.625 177.188 80.0811H176.285C176.285 79.4268 176.496 78.8975 176.916 78.4941C177.338 78.0908 177.903 77.8887 178.609 77.8887C179.27 77.8887 179.792 78.0625 180.176 78.4082C180.56 78.7559 180.752 79.2168 180.752 79.793C180.752 80.4932 180.306 81.3262 179.415 82.293L177.51 84.3584H181.08V85.0957Z" fill="#626469"/>
<path d="M184.214 82.2598C184.214 82.9854 184.12 83.6817 183.928 84.3467C183.739 85.0127 183.447 85.627 183.055 86.1904C182.663 86.7539 182.251 87.1543 181.822 87.3916L181.631 86.8399C182.132 86.4561 182.536 85.8594 182.84 85.0498C183.144 84.2412 183.299 83.3438 183.306 82.3574V82.2012C183.306 81.5176 183.235 80.8818 183.091 80.2939C182.948 79.707 182.749 79.1807 182.493 78.7149C182.238 78.249 181.951 77.8867 181.631 77.626L181.822 77.0742C182.251 77.3115 182.661 77.709 183.049 78.2656C183.439 78.8223 183.73 79.4355 183.924 80.1064C184.118 80.7773 184.214 81.4951 184.214 82.2598Z" fill="#626469"/>
<path d="M216.386 246.595H217.938C219.169 246.595 219.784 245.992 219.784 244.787C219.784 244.318 219.638 243.937 219.345 243.64C219.052 243.344 218.638 243.195 218.104 243.195C217.668 243.195 217.289 243.322 216.967 243.576C216.645 243.83 216.483 244.146 216.483 244.523H213.192C213.192 243.775 213.4 243.107 213.817 242.521C214.233 241.936 214.812 241.479 215.55 241.149C216.29 240.821 217.102 240.656 217.987 240.656C219.569 240.656 220.813 241.018 221.718 241.74C222.623 242.463 223.076 243.456 223.076 244.719C223.076 245.331 222.888 245.909 222.514 246.453C222.14 246.996 221.594 247.438 220.878 247.776C221.633 248.05 222.226 248.465 222.656 249.021C223.085 249.578 223.3 250.267 223.3 251.087C223.3 252.356 222.812 253.372 221.835 254.134C220.858 254.896 219.576 255.276 217.987 255.276C217.056 255.276 216.192 255.099 215.394 254.744C214.597 254.39 213.993 253.898 213.583 253.27C213.172 252.642 212.967 251.927 212.967 251.126H216.278C216.278 251.563 216.454 251.939 216.806 252.259C217.157 252.578 217.59 252.737 218.104 252.737C218.684 252.737 219.146 252.576 219.491 252.254C219.836 251.932 220.009 251.52 220.009 251.019C220.009 250.303 219.83 249.795 219.472 249.495C219.114 249.195 218.619 249.046 217.987 249.046H216.386L216.386 246.595Z" fill="#00494F"/>
<path d="M227.05 251.889C227.571 251.889 228.004 252.043 228.349 252.353C228.695 252.662 228.867 253.058 228.867 253.539C228.867 254.021 228.695 254.417 228.349 254.726C228.004 255.035 227.571 255.189 227.05 255.189C226.523 255.189 226.088 255.033 225.747 254.721C225.405 254.408 225.234 254.015 225.234 253.539C225.234 253.064 225.405 252.67 225.747 252.357C226.088 252.045 226.523 251.889 227.05 251.889Z" fill="#00494F"/>
<path d="M234.013 246.595H235.566C236.797 246.595 237.413 245.992 237.413 244.787C237.413 244.318 237.266 243.937 236.973 243.64C236.68 243.344 236.266 243.195 235.732 243.195C235.296 243.195 234.916 243.322 234.594 243.576C234.272 243.83 234.111 244.146 234.111 244.523H230.82C230.82 243.775 231.028 243.107 231.445 242.521C231.862 241.936 232.439 241.479 233.178 241.149C233.917 240.821 234.73 240.656 235.615 240.656C237.198 240.656 238.441 241.018 239.346 241.74C240.25 242.463 240.704 243.456 240.704 244.719C240.704 245.331 240.516 245.909 240.142 246.453C239.767 246.996 239.222 247.438 238.506 247.776C239.261 248.05 239.854 248.465 240.284 249.021C240.713 249.578 240.928 250.267 240.928 251.087C240.928 252.356 240.44 253.372 239.463 254.134C238.487 254.896 237.204 255.276 235.615 255.276C234.684 255.276 233.82 255.099 233.022 254.744C232.224 254.39 231.621 253.898 231.21 253.27C230.8 252.642 230.595 251.927 230.595 251.126H233.906C233.906 251.563 234.082 251.939 234.433 252.259C234.785 252.578 235.218 252.737 235.732 252.737C236.312 252.737 236.774 252.576 237.12 252.254C237.464 251.932 237.637 251.52 237.637 251.019C237.637 250.303 237.458 249.795 237.1 249.495C236.742 249.195 236.247 249.046 235.615 249.046H234.013L234.013 246.595Z" fill="#00494F"/>
<path d="M212.358 264.195C212.358 263.46 212.457 262.753 212.653 262.076C212.85 261.399 213.144 260.784 213.535 260.23C213.925 259.677 214.331 259.286 214.75 259.059L214.936 259.654C214.461 260.019 214.071 260.575 213.767 261.324C213.462 262.073 213.295 262.911 213.266 263.839L213.261 264.254C213.261 265.511 213.491 266.601 213.95 267.525C214.227 268.079 214.555 268.512 214.936 268.824L214.75 269.376C214.317 269.135 213.904 268.731 213.51 268.165C212.742 267.059 212.358 265.735 212.358 264.195Z" fill="#626469"/>
<path d="M220.175 264.05C220.175 265.107 219.995 265.894 219.633 266.408C219.272 266.923 218.707 267.18 217.939 267.18C217.181 267.18 216.619 266.928 216.254 266.426C215.89 265.922 215.701 265.171 215.688 264.172V262.966C215.688 261.921 215.869 261.145 216.23 260.637C216.591 260.129 217.158 259.875 217.929 259.875C218.694 259.875 219.257 260.12 219.619 260.609C219.98 261.1 220.165 261.855 220.175 262.878L220.175 264.05ZM219.272 262.814C219.272 262.05 219.165 261.492 218.95 261.143C218.735 260.792 218.394 260.617 217.929 260.617C217.467 260.617 217.13 260.791 216.918 261.14C216.707 261.488 216.598 262.023 216.591 262.746V264.191C216.591 264.96 216.703 265.527 216.926 265.893C217.149 266.26 217.486 266.442 217.939 266.442C218.385 266.442 218.716 266.27 218.933 265.925C219.149 265.58 219.262 265.036 219.272 264.294L219.272 262.814Z" fill="#626469"/>
<path d="M221.445 266.609C221.445 266.453 221.491 266.323 221.584 266.219C221.677 266.114 221.816 266.062 222.001 266.062C222.187 266.062 222.328 266.114 222.424 266.219C222.52 266.323 222.568 266.453 222.568 266.609C222.568 266.759 222.52 266.885 222.424 266.985C222.328 267.086 222.187 267.137 222.001 267.137C221.816 267.137 221.677 267.086 221.584 266.985C221.491 266.885 221.445 266.759 221.445 266.609Z" fill="#626469"/>
<path d="M228.276 261.828C228.276 262.183 228.182 262.499 227.995 262.775C227.808 263.052 227.555 263.269 227.236 263.425C227.607 263.584 227.901 263.817 228.118 264.123C228.333 264.429 228.442 264.775 228.442 265.163C228.442 265.778 228.235 266.269 227.819 266.633C227.405 266.997 226.858 267.18 226.181 267.18C225.498 267.18 224.95 266.996 224.538 266.631C224.126 266.264 223.92 265.775 223.92 265.163C223.92 264.779 224.025 264.433 224.235 264.123C224.445 263.813 224.736 263.579 225.107 263.42C224.791 263.264 224.542 263.047 224.36 262.77C224.178 262.494 224.086 262.18 224.086 261.828C224.086 261.229 224.278 260.754 224.663 260.402C225.047 260.051 225.553 259.875 226.181 259.875C226.806 259.875 227.311 260.051 227.698 260.402C228.082 260.754 228.276 261.229 228.276 261.828ZM227.539 265.144C227.539 264.746 227.413 264.423 227.161 264.172C226.908 263.921 226.578 263.796 226.171 263.796C225.765 263.796 225.438 263.92 225.192 264.167C224.947 264.414 224.824 264.74 224.824 265.144C224.824 265.547 224.943 265.864 225.183 266.096C225.422 266.327 225.755 266.442 226.181 266.442C226.604 266.442 226.936 266.326 227.177 266.094C227.418 265.86 227.539 265.544 227.539 265.144ZM226.181 260.617C225.826 260.617 225.539 260.727 225.319 260.947C225.1 261.166 224.99 261.465 224.99 261.843C224.99 262.204 225.098 262.496 225.314 262.719C225.531 262.942 225.82 263.054 226.181 263.054C226.542 263.054 226.832 262.942 227.048 262.719C227.264 262.496 227.373 262.204 227.373 261.843C227.373 261.481 227.26 261.186 227.036 260.959C226.811 260.731 226.526 260.617 226.181 260.617Z" fill="#626469"/>
<path d="M229.643 268.497L229.13 268.146C229.436 267.719 229.596 267.279 229.609 266.827V266.012H230.493V266.72C230.493 267.049 230.413 267.377 230.25 267.706C230.09 268.035 229.887 268.299 229.643 268.497Z" fill="#626469"/>
<path d="M234.433 263.518L234.794 259.973H238.437V260.808H235.561L235.346 262.746C235.695 262.541 236.09 262.438 236.533 262.438C237.18 262.438 237.695 262.652 238.076 263.08C238.457 263.509 238.647 264.087 238.647 264.816C238.647 265.549 238.449 266.126 238.054 266.547C237.658 266.969 237.106 267.18 236.396 267.18C235.768 267.18 235.255 267.006 234.858 266.657C234.46 266.309 234.235 265.827 234.179 265.212H235.034C235.089 265.619 235.234 265.926 235.468 266.133C235.703 266.339 236.012 266.442 236.396 266.442C236.816 266.442 237.146 266.299 237.384 266.013C237.624 265.727 237.744 265.331 237.744 264.826C237.744 264.351 237.615 263.969 237.355 263.682C237.097 263.393 236.752 263.249 236.323 263.249C235.929 263.249 235.62 263.335 235.395 263.508L235.156 263.703L234.433 263.518Z" fill="#626469"/>
<path d="M241.811 264.244C241.811 264.97 241.716 265.666 241.525 266.331C241.335 266.997 241.043 267.611 240.652 268.175C240.259 268.738 239.848 269.139 239.418 269.376L239.228 268.824C239.729 268.44 240.132 267.844 240.437 267.034C240.741 266.226 240.896 265.328 240.903 264.342V264.186C240.903 263.502 240.831 262.866 240.688 262.278C240.544 261.691 240.345 261.165 240.089 260.699C239.834 260.233 239.547 259.871 239.228 259.61L239.418 259.059C239.848 259.296 240.257 259.693 240.646 260.25C241.036 260.807 241.327 261.42 241.521 262.091C241.714 262.762 241.811 263.479 241.811 264.244Z" fill="#626469"/>
<path d="M285.63 353.644H275.707V351.495L280.278 346.689C281.404 345.407 281.967 344.388 281.967 343.633C281.967 343.021 281.834 342.556 281.567 342.236C281.3 341.917 280.913 341.758 280.405 341.758C279.903 341.758 279.497 341.971 279.184 342.397C278.872 342.824 278.715 343.356 278.715 343.994H275.414C275.414 343.122 275.632 342.316 276.068 341.577C276.504 340.838 277.11 340.26 277.885 339.844C278.66 339.427 279.526 339.219 280.483 339.219C282.019 339.219 283.203 339.573 284.033 340.283C284.863 340.992 285.278 342.012 285.278 343.34C285.278 343.899 285.174 344.445 284.966 344.976C284.757 345.507 284.434 346.063 283.994 346.646C283.554 347.229 282.846 348.008 281.87 348.984L280.034 351.104H285.63V353.644Z" fill="#00494F"/>
<path d="M289.38 350.449C289.9 350.449 290.334 350.604 290.679 350.914C291.024 351.223 291.196 351.618 291.196 352.101C291.196 352.582 291.024 352.978 290.679 353.287C290.334 353.596 289.9 353.751 289.38 353.751C288.853 353.751 288.418 353.595 288.076 353.282C287.734 352.97 287.563 352.575 287.563 352.101C287.563 351.625 287.734 351.231 288.076 350.919C288.418 350.606 288.853 350.449 289.38 350.449Z" fill="#00494F"/>
<path d="M303.258 353.644H293.335V351.495L297.905 346.689C299.032 345.407 299.596 344.388 299.596 343.633C299.596 343.021 299.462 342.556 299.195 342.236C298.928 341.917 298.54 341.758 298.032 341.758C297.531 341.758 297.124 341.971 296.811 342.397C296.499 342.824 296.343 343.356 296.343 343.994H293.042C293.042 343.122 293.26 342.316 293.696 341.577C294.133 340.838 294.738 340.26 295.513 339.844C296.288 339.427 297.153 339.219 298.11 339.219C299.647 339.219 300.831 339.573 301.661 340.283C302.491 340.992 302.906 342.012 302.906 343.34C302.906 343.899 302.802 344.445 302.594 344.976C302.385 345.507 302.061 346.063 301.622 346.646C301.183 347.229 300.475 348.008 299.498 348.984L297.661 351.104H303.258L303.258 353.644Z" fill="#00494F"/>
<path d="M270.564 362.758C270.564 362.022 270.663 361.315 270.859 360.639C271.056 359.962 271.35 359.347 271.741 358.793C272.131 358.239 272.537 357.849 272.957 357.621L273.142 358.217C272.667 358.581 272.277 359.138 271.973 359.887C271.668 360.636 271.501 361.474 271.472 362.401L271.467 362.816C271.467 364.073 271.697 365.163 272.156 366.088C272.433 366.642 272.761 367.074 273.142 367.387L272.957 367.938C272.523 367.697 272.11 367.294 271.716 366.728C270.948 365.621 270.564 364.298 270.564 362.758Z" fill="#626469"/>
<path d="M278.381 362.612C278.381 363.67 278.201 364.456 277.839 364.971C277.478 365.485 276.913 365.742 276.145 365.742C275.387 365.742 274.825 365.49 274.46 364.988C274.096 364.484 273.907 363.733 273.894 362.734V361.528C273.894 360.483 274.075 359.707 274.436 359.199C274.797 358.691 275.364 358.438 276.135 358.438C276.9 358.438 277.463 358.683 277.825 359.172C278.186 359.662 278.372 360.418 278.381 361.44V362.612ZM277.478 361.377C277.478 360.612 277.371 360.055 277.156 359.705C276.941 359.354 276.601 359.18 276.135 359.18C275.673 359.18 275.336 359.354 275.124 359.702C274.913 360.051 274.804 360.586 274.797 361.309V362.754C274.797 363.522 274.909 364.09 275.132 364.455C275.355 364.822 275.692 365.005 276.145 365.005C276.591 365.005 276.922 364.832 277.139 364.487C277.355 364.143 277.468 363.599 277.478 362.856V361.377Z" fill="#626469"/>
<path d="M279.651 365.172C279.651 365.016 279.697 364.886 279.79 364.781C279.883 364.677 280.022 364.625 280.207 364.625C280.393 364.625 280.534 364.677 280.63 364.781C280.726 364.886 280.774 365.016 280.774 365.172C280.774 365.321 280.726 365.447 280.63 365.548C280.534 365.648 280.393 365.699 280.207 365.699C280.022 365.699 279.883 365.648 279.79 365.548C279.697 365.447 279.651 365.321 279.651 365.172Z" fill="#626469"/>
<path d="M285.632 362.52C285.443 362.744 285.218 362.925 284.956 363.062C284.694 363.198 284.407 363.267 284.094 363.267C283.684 363.267 283.327 363.166 283.022 362.964C282.718 362.762 282.483 362.479 282.317 362.111C282.151 361.746 282.068 361.341 282.068 360.898C282.068 360.423 282.158 359.995 282.339 359.614C282.52 359.233 282.776 358.942 283.108 358.74C283.44 358.538 283.827 358.438 284.27 358.438C284.973 358.438 285.527 358.7 285.933 359.227C286.338 359.752 286.54 360.469 286.54 361.377V361.641C286.54 363.024 286.267 364.034 285.72 364.67C285.173 365.307 284.348 365.633 283.245 365.649H283.069V364.883H283.259C284.005 364.87 284.578 364.676 284.978 364.301C285.378 363.926 285.597 363.332 285.632 362.52ZM284.241 362.52C284.543 362.52 284.823 362.427 285.078 362.241C285.333 362.056 285.52 361.826 285.637 361.553V361.191C285.637 360.599 285.509 360.117 285.251 359.746C284.994 359.375 284.669 359.189 284.275 359.189C283.878 359.189 283.559 359.342 283.318 359.646C283.077 359.95 282.957 360.352 282.957 360.85C282.957 361.335 283.073 361.734 283.306 362.049C283.539 362.362 283.85 362.52 284.241 362.52Z" fill="#626469"/>
<path d="M287.849 367.06L287.336 366.708C287.643 366.281 287.802 365.842 287.815 365.39V364.574H288.699V365.282C288.699 365.611 288.618 365.939 288.457 366.269C288.296 366.598 288.093 366.861 287.849 367.06Z" fill="#626469"/>
<path d="M292.639 362.08L293 358.535H296.643V359.37H293.767L293.552 361.309C293.9 361.104 294.296 361.001 294.738 361.001C295.386 361.001 295.9 361.215 296.281 361.643C296.662 362.071 296.853 362.649 296.853 363.379C296.853 364.111 296.654 364.688 296.26 365.109C295.863 365.531 295.311 365.742 294.602 365.742C293.974 365.742 293.461 365.568 293.063 365.22C292.666 364.871 292.44 364.39 292.385 363.774H293.239C293.295 364.182 293.439 364.488 293.674 364.695C293.908 364.901 294.218 365.005 294.602 365.005C295.021 365.005 295.352 364.861 295.59 364.575C295.83 364.289 295.949 363.894 295.949 363.389C295.949 362.913 295.82 362.531 295.561 362.244C295.303 361.955 294.958 361.812 294.528 361.812C294.135 361.812 293.825 361.897 293.601 362.07L293.361 362.266L292.639 362.08Z" fill="#626469"/>
<path d="M297.951 365.172C297.951 365.016 297.998 364.886 298.09 364.781C298.184 364.677 298.322 364.625 298.508 364.625C298.693 364.625 298.834 364.677 298.93 364.781C299.026 364.886 299.074 365.016 299.074 365.172C299.074 365.321 299.026 365.447 298.93 365.548C298.834 365.648 298.693 365.699 298.508 365.699C298.322 365.699 298.184 365.648 298.09 365.548C297.998 365.447 297.951 365.321 297.951 365.172Z" fill="#626469"/>
<path d="M304.285 363.257H305.271V363.994H304.285V365.645H303.377V363.994H300.14V363.462L303.323 358.535H304.285V363.257ZM301.165 363.257H303.377V359.771L303.27 359.966L301.165 363.257Z" fill="#626469"/>
<path d="M308.265 362.807C308.265 363.532 308.17 364.229 307.978 364.894C307.789 365.56 307.497 366.174 307.105 366.737C306.713 367.301 306.302 367.701 305.872 367.938L305.682 367.387C306.183 367.003 306.586 366.406 306.891 365.597C307.194 364.788 307.35 363.891 307.356 362.904V362.748C307.356 362.064 307.285 361.429 307.142 360.841C306.998 360.254 306.799 359.728 306.543 359.262C306.288 358.796 306.001 358.434 305.682 358.173L305.872 357.621C306.302 357.858 306.711 358.256 307.1 358.812C307.489 359.369 307.78 359.982 307.975 360.653C308.168 361.324 308.265 362.042 308.265 362.807Z" fill="#626469"/>
<path d="M317.724 475.836H110.589" stroke="#626469" stroke-miterlimit="10"/>
</svg>
