<svg width="738" height="450" viewBox="0 0 738 450" fill="none" xmlns="http://www.w3.org/2000/svg">
<path d="M387.423 185.482C387.423 199.235 376.258 210.4 362.505 210.4H99.6107V160.4L362.341 160.4C376.184 160.4 387.423 171.639 387.423 185.482Z" fill="#48D597"/>
<path d="M7.78358 175.98V177.659H7.53309C6.39735 177.676 5.48963 177.988 4.81043 178.595C4.13123 179.202 3.72742 180.062 3.59949 181.176C4.25086 180.49 5.08338 180.148 6.09656 180.148C7.17127 180.148 8.01892 180.527 8.63953 181.284C9.26062 182.041 9.57117 183.019 9.57117 184.216C9.57117 185.451 9.20789 186.452 8.48084 187.218C7.75428 187.983 6.80115 188.366 5.62049 188.366C4.40662 188.366 3.42274 187.918 2.66834 187.021C1.91394 186.125 1.5365 184.95 1.5365 183.497V182.804C1.5365 180.672 2.05554 179.001 3.09412 177.793C4.1327 176.585 5.62586 175.98 7.57508 175.98H7.78358ZM5.60389 181.785C5.15858 181.785 4.75037 181.91 4.38026 182.161C4.01014 182.411 3.73866 182.745 3.5663 183.163V183.781C3.5663 184.684 3.75526 185.4 4.13417 185.932C4.51259 186.464 5.00233 186.729 5.6039 186.729C6.20547 186.729 6.68105 186.504 7.03212 186.053C7.38271 185.602 7.558 185.009 7.558 184.273C7.558 183.539 7.37978 182.94 7.02382 182.479C6.66737 182.017 6.19422 181.785 5.60389 181.785Z" fill="#00494F"/>
<path d="M17.4885 179.163L17.5471 180.106C18.1814 179.366 19.0501 178.996 20.1526 178.996C21.3606 178.996 22.1878 179.458 22.6331 180.382C23.2898 179.458 24.2141 178.996 25.406 178.996C26.4026 178.996 27.1443 179.271 27.6316 179.822C28.1189 180.374 28.3679 181.187 28.3792 182.261V188.199H26.3494V182.319C26.3494 181.746 26.2244 181.326 25.9739 181.059C25.7234 180.791 25.3084 180.657 24.7293 180.657C24.2673 180.657 23.8899 180.781 23.5979 181.029C23.3054 181.277 23.1008 181.602 22.9836 182.002L22.9924 188.199H20.9626V182.253C20.9348 181.189 20.3918 180.657 19.3342 180.657C18.5212 180.657 17.9451 180.989 17.6052 181.651V188.199H15.5759V179.163L17.4885 179.163Z" fill="#00494F"/>
<path d="M30.0824 183.598C30.0824 182.712 30.2577 181.915 30.6088 181.205C30.9594 180.495 31.452 179.949 32.0868 179.567C32.7216 179.187 33.4511 178.996 34.2753 178.996C35.4945 178.996 36.4843 179.388 37.244 180.173C38.0043 180.958 38.4144 181.999 38.476 183.297L38.4843 183.772C38.4843 184.664 38.3134 185.46 37.9706 186.161C37.6283 186.863 37.1381 187.406 36.5009 187.79C35.8632 188.174 35.1268 188.366 34.2919 188.366C33.0165 188.366 31.9965 187.941 31.2308 187.093C30.4652 186.243 30.0824 185.112 30.0824 183.697V183.598ZM32.1122 183.772C32.1122 184.703 32.3041 185.431 32.6884 185.957C33.0726 186.483 33.6068 186.746 34.2919 186.746C34.9764 186.746 35.5096 186.479 35.891 185.944C36.2723 185.41 36.4633 184.628 36.4633 183.598C36.4633 182.685 36.267 181.961 35.8744 181.426C35.4818 180.892 34.9486 180.624 34.2753 180.624C33.6122 180.624 33.0863 180.888 32.6967 181.413C32.307 181.939 32.1122 182.727 32.1122 183.772Z" fill="#00494F"/>
<path d="M42.0843 179.163L42.1425 180.207C42.8109 179.399 43.6879 178.996 44.7733 178.996C46.6552 178.996 47.6132 180.073 47.6464 182.228V188.199H45.6171V182.345C45.6171 181.772 45.493 181.347 45.245 181.071C44.9974 180.796 44.5922 180.657 44.0302 180.657C43.2118 180.657 42.6019 181.028 42.2011 181.769V188.199H40.1718V179.163L42.0843 179.163Z" fill="#00494F"/>
<path d="M52.2566 176.965V179.162H53.8518V180.665H52.2566V185.709C52.2566 186.055 52.3245 186.304 52.4612 186.457C52.5974 186.61 52.8411 186.687 53.1917 186.687C53.4255 186.687 53.6624 186.659 53.9016 186.604V188.173C53.4397 188.301 52.9944 188.365 52.5657 188.365C51.0066 188.365 50.2268 187.505 50.2268 185.784V180.665H48.7405V179.162H50.2268V176.965L52.2566 176.965Z" fill="#00494F"/>
<path d="M57.4012 180.148C58.0638 179.38 58.9017 178.996 59.9149 178.996C61.8417 178.996 62.8187 180.096 62.8466 182.295V188.199H60.8173V182.37C60.8173 181.746 60.682 181.305 60.412 181.046C60.142 180.787 59.745 180.657 59.222 180.657C58.4091 180.657 57.8021 181.02 57.4012 181.743V188.199H55.3719V175.371H57.4012V180.148Z" fill="#00494F"/>
<path d="M69.9617 185.744C69.9617 185.382 69.8128 185.106 69.5149 184.917C69.2171 184.728 68.7229 184.561 68.0325 184.416C67.3421 184.272 66.7659 184.088 66.304 183.864C65.2903 183.375 64.7839 182.665 64.7839 181.735C64.7839 180.955 65.1121 180.304 65.7693 179.78C66.426 179.258 67.2615 178.996 68.2747 178.996C69.3547 178.996 70.2278 179.263 70.8928 179.798C71.5584 180.332 71.8909 181.025 71.8909 181.877H69.8616C69.8616 181.487 69.7166 181.163 69.4275 180.904C69.1379 180.646 68.7537 180.516 68.2747 180.516C67.8294 180.516 67.4661 180.619 67.1848 180.824C66.9036 181.03 66.7629 181.307 66.7629 181.651C66.7629 181.963 66.8938 182.205 67.1555 182.378C67.4172 182.551 67.9461 182.725 68.7424 182.9C69.5388 183.075 70.1633 183.284 70.6174 183.526C71.071 183.769 71.408 184.06 71.6282 184.399C71.8479 184.739 71.9578 185.15 71.9578 185.635C71.9578 186.448 71.6209 187.106 70.9475 187.61C70.2737 188.114 69.3909 188.366 68.2996 188.366C67.5593 188.366 66.8997 188.232 66.3206 187.966C65.7415 187.698 65.2903 187.331 64.9675 186.863C64.6443 186.396 64.4832 185.892 64.4832 185.352H66.4539C66.4817 185.83 66.6628 186.199 66.9968 186.458C67.3308 186.717 67.7737 186.847 68.3249 186.847C68.8591 186.847 69.2659 186.745 69.5442 186.541C69.8225 186.338 69.9617 186.072 69.9617 185.744Z" fill="#00494F"/>
<path d="M37.2821 199.688L37.3319 200.824C38.0223 199.955 38.9247 199.521 40.038 199.521C41.9476 199.521 42.911 200.599 42.9276 202.753V208.725H41.3827V202.745C41.3773 202.094 41.2284 201.612 40.9359 201.3C40.6434 200.988 40.1883 200.832 39.5702 200.832C39.0692 200.832 38.6293 200.966 38.2508 201.233C37.8719 201.5 37.577 201.852 37.3656 202.285V208.725H35.8207V199.689L37.2821 199.688Z" fill="#626469"/>
<path d="M52.3236 201.927H45.3583V200.582H52.3236V201.927ZM52.3236 205.393H45.3583V204.056H52.3236V205.393Z" fill="#626469"/>
<path d="M59.5643 208.725H58.0111V198.427L54.8959 199.571V198.168L59.3221 196.506H59.5643L59.5643 208.725Z" fill="#626469"/>
<path d="M72.0585 208.726H64.0912V207.615L68.3002 202.938C68.9237 202.23 69.3539 201.656 69.5907 201.213C69.827 200.771 69.9457 200.313 69.9457 199.84C69.9457 199.205 69.7533 198.685 69.3695 198.277C68.9852 197.871 68.473 197.668 67.8324 197.668C67.0643 197.668 66.4672 197.887 66.0409 198.323C65.6151 198.761 65.4022 199.369 65.4022 200.148H63.8573C63.8573 199.029 64.2176 198.125 64.9388 197.434C65.6595 196.744 66.6244 196.398 67.8324 196.398C68.9628 196.398 69.8563 196.695 70.5135 197.288C71.1703 197.881 71.4989 198.67 71.4989 199.655C71.4989 200.853 70.7362 202.278 69.2108 203.932L65.9535 207.465H72.0585L72.0585 208.726Z" fill="#626469"/>
<path d="M8.44324 100.744V88.584H12.6107C13.9862 88.584 15.0331 88.8594 15.7513 89.4111C16.4696 89.9619 16.8285 90.7832 16.8285 91.875C16.8285 92.4316 16.6781 92.9326 16.3778 93.3779C16.077 93.8232 15.6371 94.169 15.058 94.4131C15.7147 94.5918 16.223 94.9268 16.5824 95.4199C16.9413 95.9131 17.121 96.5039 17.121 97.1944C17.121 98.336 16.7548 99.2129 16.0228 99.8252C15.2904 100.438 14.2421 100.744 12.8783 100.744L8.44324 100.744ZM10.5565 93.7041H12.6278C13.2845 93.7041 13.7982 93.5547 14.1683 93.2568C14.5389 92.959 14.724 92.5371 14.724 91.9912C14.724 91.3906 14.5526 90.9561 14.2103 90.6885C13.868 90.4219 13.3348 90.2881 12.6107 90.2881H10.5565V93.7041ZM10.5565 95.2568V99.0566H12.9032C13.5658 99.0566 14.0834 98.8926 14.4569 98.5644C14.8295 98.2363 15.0165 97.7793 15.0165 97.1943C15.0165 95.9307 14.3705 95.2851 13.0785 95.2568L10.5565 95.2568Z" fill="#00494F"/>
<path d="M24.4369 100.744C24.348 100.571 24.2699 100.29 24.2035 99.9004C23.5575 100.574 22.767 100.911 21.8314 100.911C20.9237 100.911 20.183 100.652 19.6097 100.135C19.0365 99.6162 18.7494 98.9766 18.7494 98.2139C18.7494 97.25 19.1073 96.5117 19.8226 95.9961C20.538 95.4815 21.5614 95.2236 22.892 95.2236H24.1366V94.6309C24.1366 94.1631 24.0057 93.7891 23.744 93.5078C23.4823 93.2266 23.0843 93.0859 22.5497 93.0859C22.0873 93.0859 21.7089 93.2012 21.4139 93.4326C21.1185 93.6631 20.9711 93.957 20.9711 94.3135H18.9418C18.9418 93.8174 19.1058 93.3545 19.4345 92.9229C19.7631 92.4912 20.2098 92.1533 20.7748 91.9082C21.3397 91.6631 21.9706 91.541 22.6664 91.541C23.7245 91.541 24.5677 91.8066 25.1971 92.3379C25.826 92.8701 26.1493 93.6172 26.1659 94.5811V98.6563C26.1659 99.4688 26.2801 100.118 26.5082 100.603V100.744H24.4369ZM22.2074 99.2822C22.6083 99.2822 22.9852 99.1856 23.3387 98.9902C23.6923 98.7959 23.9584 98.5342 24.1366 98.2051V96.502H23.0424C22.2909 96.502 21.7255 96.6328 21.347 96.8936C20.9681 97.1563 20.7792 97.5264 20.7792 98.0049C20.7792 98.3945 20.9086 98.7051 21.1674 98.9356C21.4262 99.167 21.7728 99.2822 22.2074 99.2822Z" fill="#00494F"/>
<path d="M33.3562 98.2891C33.3562 97.9268 33.2073 97.6514 32.9094 97.4619C32.6116 97.2725 32.1174 97.1055 31.427 96.9609C30.7366 96.8164 30.1604 96.6328 29.6985 96.4092C28.6848 95.9199 28.1785 95.21 28.1785 94.2803C28.1785 93.5 28.5066 92.8486 29.1638 92.3252C29.8206 91.8027 30.656 91.541 31.6692 91.541C32.7493 91.541 33.6223 91.8076 34.2874 92.3428C34.9529 92.877 35.2854 93.5703 35.2854 94.4219H33.2561C33.2561 94.0322 33.1111 93.708 32.822 93.4492C32.5325 93.1904 32.1482 93.0605 31.6692 93.0605C31.2239 93.0605 30.8606 93.1641 30.5794 93.3691C30.2981 93.5752 30.1575 93.8516 30.1575 94.1963C30.1575 94.5078 30.2883 94.75 30.5501 94.9228C30.8118 95.0957 31.3406 95.2695 32.137 95.4453C32.9334 95.6201 33.5579 95.8291 34.012 96.0713C34.4656 96.3135 34.8025 96.6045 35.0227 96.9443C35.2424 97.2842 35.3523 97.6953 35.3523 98.1797C35.3523 98.9932 35.0154 99.6514 34.342 100.155C33.6682 100.659 32.7854 100.911 31.6941 100.911C30.9539 100.911 30.2942 100.777 29.7151 100.511C29.136 100.243 28.6848 99.876 28.3621 99.4082C28.0388 98.9404 27.8777 98.4365 27.8777 97.8965H29.8484C29.8762 98.375 30.0574 98.7441 30.3914 99.0029C30.7253 99.2617 31.1682 99.3916 31.7195 99.3916C32.2537 99.3916 32.6604 99.29 32.9387 99.0859C33.217 98.8828 33.3562 98.6172 33.3562 98.2891Z" fill="#00494F"/>
<path d="M41.099 100.911C39.8129 100.911 38.7699 100.506 37.9711 99.6963C37.1722 98.8857 36.7728 97.8076 36.7728 96.46V96.209C36.7728 95.3076 36.9467 94.501 37.2948 93.791C37.6425 93.0811 38.1312 92.5293 38.7601 92.1338C39.3895 91.7383 40.0912 91.541 40.8651 91.541C42.0956 91.541 43.0463 91.9326 43.7172 92.7178C44.3881 93.5029 44.7235 94.6143 44.7235 96.0508V96.8691H38.8187C38.8802 97.6152 39.1293 98.2051 39.5663 98.6397C40.0033 99.0742 40.5531 99.291 41.2157 99.291C42.1454 99.291 42.9027 98.9151 43.4877 98.1631L44.5814 99.207C44.2196 99.7471 43.7367 100.167 43.1327 100.465C42.5282 100.762 41.8505 100.911 41.099 100.911ZM40.8568 93.1689C40.2997 93.1689 39.8505 93.3643 39.5077 93.7539C39.1654 94.1436 38.9466 94.6865 38.8524 95.3828H42.7191V95.2324C42.6747 94.5527 42.4935 94.0391 42.1761 93.6914C41.8588 93.3428 41.4188 93.1689 40.8568 93.1689Z" fill="#00494F"/>
<path d="M48.4564 100.744H46.4271V87.916H48.4564V100.744Z" fill="#00494F"/>
<path d="M50.6698 89.3604C50.6698 89.0488 50.7684 88.79 50.9662 88.584C51.164 88.3779 51.4467 88.2754 51.8139 88.2754C52.1815 88.2754 52.4652 88.3779 52.6659 88.584C52.8661 88.79 52.9667 89.0488 52.9667 89.3604C52.9667 89.667 52.8661 89.9219 52.6659 90.125C52.4652 90.3281 52.1815 90.4297 51.8139 90.4297C51.4467 90.4297 51.164 90.3281 50.9662 90.125C50.7684 89.9219 50.6698 89.667 50.6698 89.3604ZM52.8246 100.744H50.7953V91.708H52.8246V100.744Z" fill="#00494F"/>
<path d="M56.9169 91.708L56.975 92.752C57.6434 91.9443 58.5204 91.541 59.6058 91.541C61.4877 91.541 62.4457 92.6182 62.4789 94.7725V100.744H60.4496V94.8897C60.4496 94.3164 60.3256 93.8916 60.0775 93.6162C59.83 93.3408 59.4247 93.2022 58.8627 93.2022C58.0443 93.2022 57.4345 93.5732 57.0336 94.3135V100.744H55.0043V91.708L56.9169 91.708Z" fill="#00494F"/>
<path d="M68.5258 100.911C67.2396 100.911 66.1967 100.506 65.3978 99.6963C64.599 98.8857 64.1996 97.8076 64.1996 96.46V96.209C64.1996 95.3076 64.3734 94.501 64.7215 93.791C65.0692 93.0811 65.558 92.5293 66.1869 92.1338C66.8163 91.7383 67.5179 91.541 68.2919 91.541C69.5223 91.541 70.473 91.9326 71.1439 92.7178C71.8148 93.5029 72.1503 94.6143 72.1503 96.0508V96.8691H66.2455C66.307 97.6152 66.556 98.2051 66.993 98.6397C67.43 99.0742 67.9799 99.291 68.6424 99.291C69.5721 99.291 70.3295 98.9151 70.9144 98.1631L72.0082 99.207C71.6463 99.7471 71.1634 100.167 70.5594 100.465C69.9549 100.762 69.2772 100.911 68.5258 100.911ZM68.2836 93.1689C67.7264 93.1689 67.2772 93.3643 66.9344 93.7539C66.5922 94.1436 66.3734 94.6865 66.2792 95.3828H70.1459V95.2324C70.1014 94.5527 69.9203 94.0391 69.6029 93.6914C69.2855 93.3428 68.8456 93.1689 68.2836 93.1689Z" fill="#00494F"/>
<path d="M37.2821 112.233L37.3319 113.369C38.0223 112.5 38.9247 112.066 40.038 112.066C41.9476 112.066 42.911 113.144 42.9276 115.298V121.27H41.3827V115.29C41.3773 114.639 41.2284 114.157 40.9359 113.845C40.6434 113.533 40.1883 113.377 39.5702 113.377C39.0692 113.377 38.6293 113.511 38.2508 113.778C37.8719 114.045 37.577 114.397 37.3656 114.83V121.27H35.8207V112.233L37.2821 112.233Z" fill="#626469"/>
<path d="M52.3236 114.472H45.3583V113.127H52.3236V114.472ZM52.3236 117.938H45.3583V116.601H52.3236V117.938Z" fill="#626469"/>
<path d="M59.5643 121.27H58.0111V110.972L54.8959 112.116V110.713L59.3221 109.051H59.5643L59.5643 121.27Z" fill="#626469"/>
<path d="M72.0585 121.269H64.0912V120.158L68.3002 115.48C68.9237 114.773 69.3539 114.199 69.5907 113.756C69.827 113.313 69.9457 112.855 69.9457 112.383C69.9457 111.748 69.7533 111.228 69.3695 110.82C68.9852 110.414 68.473 110.211 67.8324 110.211C67.0643 110.211 66.4672 110.43 66.0409 110.866C65.6151 111.304 65.4022 111.912 65.4022 112.691H63.8573C63.8573 111.572 64.2176 110.668 64.9388 109.977C65.6595 109.287 66.6244 108.941 67.8324 108.941C68.9628 108.941 69.8563 109.238 70.5135 109.831C71.1703 110.424 71.4989 111.213 71.4989 112.198C71.4989 113.396 70.7362 114.821 69.2108 116.475L65.9535 120.008H72.0585L72.0585 121.269Z" fill="#626469"/>
<path d="M17.951 269.649L18.6107 263.52H25.142V265.273H20.2977L19.9637 268.18C20.5262 267.857 21.161 267.695 21.868 267.695C23.0262 267.695 23.9266 268.065 24.5697 268.807C25.2128 269.547 25.5345 270.543 25.5345 271.796C25.5345 273.032 25.1781 274.017 24.4657 274.748C23.7528 275.48 22.7758 275.847 21.5341 275.847C20.4203 275.847 19.4974 275.531 18.7655 274.898C18.0331 274.267 17.6366 273.433 17.5751 272.397H19.538C19.6161 272.987 19.8275 273.44 20.1727 273.755C20.518 274.069 20.9686 274.227 21.5258 274.227C22.1493 274.227 22.6351 274.004 22.9828 273.559C23.3309 273.113 23.5053 272.506 23.5053 271.737C23.5053 270.997 23.3129 270.411 22.9286 269.979C22.5448 269.548 22.0155 269.332 21.3417 269.332C20.9745 269.332 20.6625 269.381 20.4066 269.479C20.1503 269.576 19.872 269.767 19.5712 270.051L17.951 269.649Z" fill="#00494F"/>
<path d="M34.6796 272.774L36.517 266.645H38.68L35.0892 277.051C34.538 278.57 33.6024 279.33 32.2831 279.33C31.9877 279.33 31.662 279.28 31.3055 279.18V277.602L31.6898 277.627C32.202 277.627 32.5878 277.533 32.8466 277.347C33.1054 277.16 33.3099 276.848 33.4603 276.408L33.7528 275.632L30.579 266.645H32.7675L34.6796 272.774Z" fill="#00494F"/>
<path d="M43.8251 275.847C42.5389 275.847 41.496 275.441 40.6971 274.632C39.8983 273.821 39.4989 272.743 39.4989 271.396V271.145C39.4989 270.243 39.6727 269.437 40.0209 268.727C40.3685 268.017 40.8573 267.465 41.4862 267.069C42.1156 266.674 42.8172 266.477 43.5912 266.477C44.8216 266.477 45.7723 266.868 46.4432 267.653C47.1141 268.438 47.4496 269.55 47.4496 270.986V271.805H41.5448C41.6063 272.551 41.8553 273.141 42.2924 273.575C42.7294 274.01 43.2792 274.227 43.9418 274.227C44.8715 274.227 45.6288 273.851 46.2137 273.099L47.3075 274.143C46.9457 274.683 46.4627 275.103 45.8587 275.4C45.2543 275.697 44.5765 275.847 43.8251 275.847ZM43.5829 268.104C43.0257 268.104 42.5765 268.3 42.2338 268.689C41.8915 269.079 41.6727 269.622 41.5785 270.318H45.4452V270.168C45.4008 269.488 45.2196 268.975 44.9022 268.627C44.5848 268.278 44.1449 268.104 43.5829 268.104Z" fill="#00494F"/>
<path d="M54.4227 275.68C54.3339 275.507 54.2557 275.226 54.1893 274.836C53.5433 275.51 52.7528 275.847 51.8173 275.847C50.9096 275.847 50.1688 275.588 49.5956 275.07C49.0223 274.552 48.7352 273.912 48.7352 273.149C48.7352 272.186 49.0931 271.447 49.8085 270.932C50.5238 270.417 51.5472 270.159 52.8778 270.159H54.1224V269.566C54.1224 269.099 53.9916 268.725 53.7299 268.443C53.4681 268.162 53.0702 268.021 52.5355 268.021C52.0731 268.021 51.6947 268.137 51.3998 268.368C51.1044 268.599 50.9569 268.893 50.9569 269.249H48.9276C48.9276 268.753 49.0917 268.29 49.4203 267.858C49.7489 267.427 50.1957 267.089 50.7606 266.844C51.3256 266.599 51.9564 266.477 52.6522 266.477C53.7103 266.477 54.5536 266.742 55.183 267.273C55.8119 267.806 56.1351 268.553 56.1517 269.517V273.592C56.1517 274.404 56.266 275.054 56.494 275.538V275.68H54.4227ZM52.1932 274.218C52.5941 274.218 52.9711 274.121 53.3246 273.926C53.6781 273.731 53.9442 273.47 54.1224 273.141V271.438H53.0282C52.2767 271.438 51.7113 271.568 51.3329 271.829C50.954 272.092 50.765 272.462 50.765 272.94C50.765 273.33 50.8944 273.641 51.1532 273.871C51.412 274.103 51.7587 274.218 52.1932 274.218Z" fill="#00494F"/>
<path d="M63.0087 268.497C62.7416 268.453 62.4657 268.431 62.182 268.431C61.2518 268.431 60.6254 268.787 60.3026 269.499V275.68H58.2733V266.644H60.2108L60.2611 267.653C60.7509 266.868 61.4301 266.477 62.2987 266.477C62.5883 266.477 62.8275 266.515 63.017 266.593L63.0087 268.497Z" fill="#00494F"/>
<path d="M69.3557 273.225C69.3557 272.862 69.2068 272.587 68.9089 272.397C68.6111 272.208 68.117 272.041 67.4265 271.896C66.7361 271.752 66.1599 271.568 65.698 271.345C64.6843 270.855 64.178 270.146 64.178 269.216C64.178 268.436 64.5061 267.784 65.1633 267.261C65.8201 266.738 66.6555 266.477 67.6687 266.477C68.7488 266.477 69.6218 266.743 70.2869 267.278C70.9524 267.813 71.2849 268.506 71.2849 269.357H69.2556C69.2556 268.968 69.1106 268.644 68.8215 268.385C68.532 268.126 68.1477 267.996 67.6687 267.996C67.2234 267.996 66.8601 268.1 66.5789 268.305C66.2976 268.511 66.157 268.787 66.157 269.132C66.157 269.443 66.2878 269.686 66.5496 269.858C66.8113 270.031 67.3401 270.205 68.1365 270.381C68.9329 270.556 69.5574 270.765 70.0115 271.007C70.4651 271.249 70.802 271.54 71.0222 271.88C71.2419 272.22 71.3518 272.631 71.3518 273.115C71.3518 273.929 71.0149 274.587 70.3416 275.091C69.6677 275.595 68.7849 275.847 67.6936 275.847C66.9534 275.847 66.2937 275.713 65.7146 275.446C65.1355 275.179 64.6843 274.812 64.3616 274.344C64.0383 273.876 63.8772 273.372 63.8772 272.832H65.8479C65.8757 273.311 66.0569 273.68 66.3909 273.938C66.7249 274.197 67.1677 274.327 67.719 274.327C68.2532 274.327 68.6599 274.226 68.9382 274.021C69.2165 273.818 69.3557 273.553 69.3557 273.225Z" fill="#00494F"/>
<path d="M36.6757 287.171L36.7255 288.307C37.4159 287.438 38.3182 287.004 39.4315 287.004C41.3412 287.004 42.3046 288.081 42.3212 290.235V296.207H40.7762V290.228C40.7709 289.576 40.6219 289.095 40.3295 288.782C40.037 288.471 39.5819 288.314 38.9637 288.314C38.4628 288.314 38.0228 288.448 37.6444 288.716C37.2655 288.982 36.9706 289.334 36.7592 289.768V296.207H35.2142V287.171L36.6757 287.171Z" fill="#626469"/>
<path d="M51.7172 289.407H44.7518V288.062H51.7172V289.407ZM51.7172 292.873H44.7518V291.536H51.7172V292.873Z" fill="#626469"/>
<path d="M58.9579 296.207H57.4047V285.909L54.2894 287.054V285.65L58.7157 283.988H58.9579L58.9579 296.207Z" fill="#626469"/>
<path d="M71.452 296.206H63.4847V295.096L67.6937 290.418C68.3173 289.711 68.7474 289.137 68.9842 288.693C69.2206 288.251 69.3392 287.793 69.3392 287.32C69.3392 286.686 69.1468 286.165 68.7631 285.758C68.3788 285.352 67.8666 285.148 67.2259 285.148C66.4579 285.148 65.8607 285.367 65.4344 285.804C65.0087 286.241 64.7958 286.85 64.7958 287.629H63.2509C63.2509 286.51 63.6112 285.605 64.3324 284.914C65.0531 284.225 66.0179 283.879 67.2259 283.879C68.3563 283.879 69.2499 284.176 69.9071 284.769C70.5638 285.361 70.8924 286.15 70.8924 287.136C70.8924 288.333 70.1297 289.759 68.6044 291.412L65.347 294.945H71.452L71.452 296.206Z" fill="#626469"/>
<path d="M646.115 96.9551C646.115 110.753 634.913 121.955 621.115 121.955L99.6106 121.955V71.9551L621.115 71.9551C634.913 71.9551 646.115 83.1572 646.115 96.9551Z" fill="#E2E7EA"/>
<path d="M247.002 273.771C247.002 287.569 235.8 298.771 222.002 298.771H99.6105V248.771H222.002C235.8 248.771 247.002 259.974 247.002 273.771Z" fill="#48D597"/>
<path d="M283.484 395.639L286.771 404.92L290.04 395.639H293.503V408.436H290.858V404.938L291.121 398.899L287.667 408.436H285.857L282.411 398.908L282.675 404.938V408.436H280.038V395.639H283.484Z" fill="#00494F"/>
<path d="M300.016 408.611C298.621 408.611 297.486 408.184 296.61 407.328C295.734 406.473 295.296 405.333 295.296 403.909V403.663C295.296 402.708 295.481 401.854 295.85 401.102C296.219 400.349 296.742 399.769 297.419 399.361C298.096 398.954 298.868 398.75 299.735 398.75C301.036 398.75 302.059 399.16 302.807 399.98C303.554 400.801 303.927 401.964 303.927 403.47V404.507H297.871C297.953 405.128 298.201 405.626 298.614 406.001C299.027 406.376 299.55 406.563 300.183 406.563C301.162 406.563 301.926 406.209 302.477 405.5L303.725 406.897C303.344 407.437 302.829 407.857 302.178 408.158C301.528 408.46 300.807 408.611 300.016 408.611ZM299.726 400.798C299.222 400.798 298.813 400.969 298.5 401.31C298.186 401.651 297.986 402.14 297.898 402.775H301.431V402.572C301.419 402.007 301.267 401.57 300.974 401.262C300.681 400.952 300.265 400.798 299.726 400.798Z" fill="#00494F"/>
<path d="M304.973 403.61C304.973 402.128 305.305 400.947 305.97 400.068C306.635 399.189 307.545 398.75 308.699 398.75C309.625 398.75 310.39 399.096 310.993 399.787V394.936H313.542V408.436H311.248L311.125 407.425C310.492 408.216 309.678 408.611 308.682 408.611C307.563 408.611 306.665 408.171 305.988 407.289C305.311 406.407 304.973 405.181 304.973 403.61ZM307.513 403.8C307.513 404.691 307.668 405.375 307.979 405.851C308.289 406.326 308.74 406.563 309.332 406.563C310.117 406.563 310.671 406.232 310.993 405.568V401.811C310.677 401.147 310.129 400.815 309.35 400.815C308.125 400.815 307.513 401.811 307.513 403.8Z" fill="#00494F"/>
<path d="M315.493 396.466C315.493 396.085 315.621 395.771 315.876 395.525C316.131 395.279 316.478 395.156 316.917 395.156C317.351 395.156 317.697 395.279 317.954 395.525C318.212 395.771 318.341 396.085 318.341 396.466C318.341 396.853 318.211 397.169 317.95 397.415C317.689 397.661 317.345 397.784 316.917 397.784C316.49 397.784 316.145 397.661 315.885 397.415C315.624 397.169 315.493 396.853 315.493 396.466ZM318.192 408.437H315.643V398.927H318.192V408.437Z" fill="#00494F"/>
<path d="M325.794 408.436C325.677 408.207 325.592 407.923 325.539 407.583C324.924 408.269 324.124 408.611 323.14 408.611C322.208 408.611 321.436 408.342 320.824 407.803C320.212 407.264 319.906 406.584 319.906 405.764C319.906 404.756 320.279 403.982 321.026 403.443C321.773 402.904 322.853 402.632 324.265 402.626H325.434V402.081C325.434 401.642 325.321 401.29 325.095 401.026C324.87 400.763 324.514 400.631 324.028 400.631C323.6 400.631 323.264 400.733 323.021 400.938C322.778 401.144 322.656 401.425 322.656 401.782H320.116C320.116 401.231 320.286 400.722 320.626 400.253C320.966 399.784 321.447 399.417 322.068 399.15C322.689 398.884 323.386 398.75 324.159 398.75C325.331 398.75 326.262 399.045 326.95 399.633C327.638 400.223 327.983 401.05 327.983 402.116V406.238C327.989 407.141 328.115 407.823 328.361 408.286V408.436H325.794ZM323.694 406.669C324.069 406.669 324.414 406.586 324.731 406.418C325.047 406.252 325.281 406.027 325.434 405.746V404.111H324.485C323.213 404.111 322.536 404.551 322.454 405.43L322.446 405.579C322.446 405.896 322.557 406.156 322.78 406.361C323.002 406.566 323.307 406.669 323.694 406.669Z" fill="#00494F"/>
<path d="M332.272 398.926L332.351 400.024C333.031 399.175 333.942 398.75 335.084 398.75C336.092 398.75 336.842 399.046 337.334 399.638C337.826 400.229 338.078 401.114 338.09 402.292V408.436H335.55V402.354C335.55 401.814 335.433 401.424 335.198 401.18C334.964 400.937 334.574 400.815 334.03 400.815C333.315 400.815 332.779 401.12 332.421 401.729V408.436H329.881V398.926H332.272Z" fill="#00494F"/>
<path d="M347.301 403.927V408.436H344.664V395.639H349.656C350.617 395.639 351.463 395.814 352.192 396.166C352.922 396.518 353.483 397.018 353.875 397.664C354.268 398.313 354.464 399.049 354.464 399.875C354.464 401.129 354.035 402.118 353.177 402.842C352.318 403.565 351.13 403.927 349.613 403.927H347.301ZM347.301 401.791H349.656C350.354 401.791 350.885 401.627 351.252 401.299C351.618 400.971 351.801 400.502 351.801 399.893C351.801 399.266 351.616 398.759 351.247 398.372C350.878 397.985 350.368 397.786 349.718 397.774H347.301V401.791Z" fill="#00494F"/>
<path d="M358.911 403.927V408.436H356.275V395.639H361.267C362.228 395.639 363.073 395.814 363.802 396.166C364.532 396.518 365.093 397.018 365.486 397.664C365.878 398.313 366.074 399.049 366.074 399.875C366.074 401.129 365.645 402.118 364.787 402.842C363.928 403.565 362.741 403.927 361.223 403.927H358.911ZM358.911 401.791H361.267C361.964 401.791 362.496 401.627 362.862 401.299C363.228 400.971 363.411 400.502 363.411 399.893C363.411 399.266 363.227 398.759 362.858 398.372C362.489 397.985 361.979 397.786 361.328 397.774H358.911V401.791Z" fill="#00494F"/>
<path d="M367.7 396.466C367.7 396.085 367.828 395.771 368.083 395.525C368.338 395.279 368.685 395.156 369.124 395.156C369.558 395.156 369.904 395.279 370.161 395.525C370.419 395.771 370.548 396.085 370.548 396.466C370.548 396.853 370.418 397.169 370.157 397.415C369.896 397.661 369.552 397.784 369.124 397.784C368.697 397.784 368.352 397.661 368.092 397.415C367.831 397.169 367.7 396.853 367.7 396.466ZM370.399 408.437H367.85V398.927H370.399V408.437Z" fill="#00494F"/>
<path d="M377.087 403.232C377.087 401.891 377.266 400.613 377.623 399.4C377.981 398.188 378.508 397.114 379.205 396.18C379.903 395.245 380.658 394.596 381.473 394.232L381.965 395.604C381.11 396.236 380.442 397.215 379.961 398.539C379.481 399.863 379.24 401.41 379.24 403.18V403.452C379.24 405.228 379.478 406.78 379.952 408.11C380.427 409.44 381.098 410.434 381.965 411.09L381.473 412.435C380.676 412.077 379.933 411.445 379.245 410.541C378.556 409.635 378.031 408.591 377.667 407.407C377.304 406.224 377.111 404.987 377.087 403.698V403.232Z" fill="#00494F"/>
<path d="M386.078 398.926V404.401C386.078 405.14 386.197 405.684 386.434 406.031C386.672 406.381 387.08 406.555 387.66 406.555C388.533 406.555 389.134 406.247 389.462 405.632V398.926H392.002V408.436H389.638L389.585 407.838C389.064 408.359 388.405 408.62 387.608 408.62C387.01 408.62 386.5 408.488 386.078 408.225V412.092H383.538V398.926H386.078Z" fill="#00494F"/>
<path d="M397.988 395.639L401.275 404.92L404.544 395.639H408.007V408.436H405.362V404.938L405.625 398.899L402.171 408.436H400.361L396.915 398.908L397.179 404.938V408.436H394.542V395.639H397.988Z" fill="#00494F"/>
<path d="M414.52 403.435C414.52 404.759 414.329 406.033 413.948 407.258C413.568 408.482 413.02 409.564 412.305 410.501C411.59 411.439 410.825 412.083 410.011 412.435L409.519 411.09C410.351 410.463 411.007 409.496 411.488 408.189C411.968 406.883 412.217 405.38 412.235 403.681V403.215C412.235 401.463 411.996 399.919 411.518 398.583C411.041 397.247 410.374 396.245 409.519 395.577L410.011 394.232C410.808 394.578 411.559 395.205 412.265 396.113C412.971 397.021 413.519 398.079 413.909 399.286C414.299 400.493 414.502 401.744 414.52 403.039V403.435Z" fill="#00494F"/>
<path d="M421.085 403.232C421.085 401.891 421.264 400.613 421.621 399.4C421.979 398.188 422.506 397.114 423.203 396.18C423.901 395.245 424.656 394.596 425.471 394.232L425.963 395.604C425.108 396.236 424.44 397.215 423.959 398.539C423.479 399.863 423.239 401.41 423.239 403.18V403.452C423.239 405.228 423.476 406.78 423.95 408.11C424.425 409.44 425.096 410.434 425.963 411.09L425.471 412.435C424.674 412.077 423.931 411.445 423.243 410.541C422.554 409.635 422.029 408.591 421.665 407.407C421.302 406.224 421.109 404.987 421.085 403.698V403.232Z" fill="#00494F"/>
<path d="M429.672 398.926L429.751 399.989C430.425 399.163 431.336 398.75 432.485 398.75C433.709 398.75 434.55 399.233 435.007 400.2C435.675 399.233 436.627 398.75 437.864 398.75C438.895 398.75 439.662 399.051 440.166 399.65C440.67 400.252 440.922 401.155 440.922 402.362V408.436H438.373V402.371C438.373 401.832 438.268 401.438 438.057 401.189C437.846 400.94 437.474 400.815 436.941 400.815C436.179 400.815 435.652 401.179 435.359 401.905L435.367 408.436H432.827V402.38C432.827 401.829 432.719 401.431 432.502 401.185C432.285 400.938 431.916 400.815 431.395 400.815C430.674 400.815 430.153 401.114 429.83 401.712V408.436H427.29V398.926H429.672Z" fill="#00494F"/>
<path d="M442.856 396.466C442.856 396.085 442.983 395.771 443.238 395.525C443.493 395.279 443.84 395.156 444.28 395.156C444.713 395.156 445.059 395.279 445.317 395.525C445.574 395.771 445.703 396.085 445.703 396.466C445.703 396.853 445.573 397.169 445.312 397.415C445.052 397.661 444.707 397.784 444.28 397.784C443.852 397.784 443.508 397.661 443.247 397.415C442.986 397.169 442.856 396.853 442.856 396.466ZM445.554 408.437H443.005V398.927H445.554V408.437Z" fill="#00494F"/>
<path d="M449.984 398.926L450.063 400.024C450.742 399.175 451.654 398.75 452.796 398.75C453.804 398.75 454.554 399.046 455.046 399.638C455.538 400.229 455.79 401.114 455.802 402.292V408.436H453.262V402.354C453.262 401.814 453.145 401.424 452.91 401.18C452.676 400.937 452.286 400.815 451.741 400.815C451.027 400.815 450.49 401.12 450.133 401.729V408.436H447.593V398.926H449.984Z" fill="#00494F"/>
<path d="M458.386 411.644L457.059 410.949L457.375 410.378C457.768 409.663 457.97 408.951 457.982 408.242V406.273H460.126L460.117 408.031C460.112 408.682 459.948 409.338 459.625 410C459.303 410.662 458.89 411.21 458.386 411.644Z" fill="#00494F"/>
<path d="M468.986 398.926L469.065 399.989C469.739 399.163 470.65 398.75 471.798 398.75C473.023 398.75 473.864 399.233 474.321 400.2C474.989 399.233 475.941 398.75 477.177 398.75C478.208 398.75 478.976 399.051 479.48 399.65C479.984 400.252 480.236 401.155 480.236 402.362V408.436H477.687V402.371C477.687 401.832 477.581 401.438 477.37 401.189C477.159 400.94 476.787 400.815 476.254 400.815C475.492 400.815 474.965 401.179 474.672 401.905L474.681 408.436H472.141V402.38C472.141 401.829 472.032 401.431 471.816 401.185C471.599 400.938 471.23 400.815 470.708 400.815C469.988 400.815 469.466 401.114 469.144 401.712V408.436H466.604V398.926H468.986Z" fill="#00494F"/>
<path d="M487.698 408.436C487.58 408.207 487.495 407.923 487.443 407.583C486.827 408.269 486.028 408.611 485.043 408.611C484.112 408.611 483.34 408.342 482.727 407.803C482.115 407.264 481.809 406.584 481.809 405.764C481.809 404.756 482.182 403.982 482.929 403.443C483.677 402.904 484.756 402.632 486.168 402.626H487.337V402.081C487.337 401.642 487.224 401.29 486.999 401.026C486.773 400.763 486.417 400.631 485.931 400.631C485.503 400.631 485.168 400.733 484.925 400.938C484.681 401.144 484.56 401.425 484.56 401.782H482.02C482.02 401.231 482.19 400.722 482.53 400.253C482.869 399.784 483.35 399.417 483.971 399.15C484.592 398.884 485.289 398.75 486.063 398.75C487.235 398.75 488.165 399.045 488.853 399.633C489.542 400.223 489.886 401.05 489.886 402.116V406.238C489.892 407.141 490.018 407.823 490.264 408.286V408.436H487.698ZM485.597 406.669C485.972 406.669 486.318 406.586 486.634 406.418C486.95 406.252 487.185 406.027 487.337 405.746V404.111H486.388C485.116 404.111 484.44 404.551 484.358 405.43L484.349 405.579C484.349 405.896 484.46 406.156 484.683 406.361C484.906 406.566 485.21 406.669 485.597 406.669Z" fill="#00494F"/>
<path d="M495.458 401.765L497.058 398.926H499.774L497.067 403.584L499.888 408.436H497.163L495.467 405.447L493.78 408.436H491.046L493.867 403.584L491.169 398.926H493.894L495.458 401.765Z" fill="#00494F"/>
<path d="M505.372 403.435C505.372 404.759 505.182 406.033 504.801 407.258C504.42 408.482 503.872 409.564 503.158 410.501C502.443 411.439 501.678 412.083 500.864 412.435L500.371 411.09C501.203 410.463 501.86 409.496 502.34 408.189C502.821 406.883 503.07 405.38 503.087 403.681V403.215C503.087 401.463 502.848 399.919 502.371 398.583C501.893 397.247 501.227 396.245 500.371 395.577L500.864 394.232C501.66 394.578 502.412 395.205 503.118 396.113C503.824 397.021 504.372 398.079 504.762 399.286C505.151 400.493 505.355 401.744 505.372 403.039V403.435Z" fill="#00494F"/>
<path d="M660.297 97.4209L661.514 87.2383H673.148V90.8203H665.26L664.808 94.7744C665.137 94.582 665.567 94.4131 666.1 94.2666C666.634 94.1201 667.155 94.0469 667.666 94.0469C669.643 94.0469 671.163 94.6328 672.225 95.8037C673.287 96.9746 673.818 98.6182 673.818 100.732C673.818 102.009 673.533 103.164 672.964 104.198C672.394 105.232 671.594 106.028 670.564 106.584C669.534 107.14 668.317 107.418 666.914 107.418C665.665 107.418 664.494 107.16 663.4 106.646C662.306 106.132 661.45 105.426 660.83 104.528C660.21 103.632 659.905 102.618 659.914 101.489H664.535C664.58 102.217 664.813 102.795 665.232 103.222C665.651 103.649 666.203 103.863 666.887 103.863C668.436 103.863 669.211 102.717 669.211 100.425C669.211 98.3057 668.263 97.2461 666.367 97.2461C665.291 97.2461 664.489 97.5918 663.961 98.2832L660.297 97.4209Z" fill="#626469"/>
<path d="M679.164 102.674C679.893 102.674 680.499 102.891 680.982 103.323C681.465 103.756 681.707 104.31 681.707 104.984C681.707 105.659 681.465 106.213 680.982 106.646C680.499 107.078 679.893 107.295 679.164 107.295C678.426 107.295 677.817 107.076 677.339 106.639C676.86 106.201 676.621 105.649 676.621 104.984C676.621 104.319 676.86 103.768 677.339 103.33C677.817 102.893 678.426 102.674 679.164 102.674Z" fill="#626469"/>
<path d="M695.83 86.9531V90.5762H695.625C693.902 90.5762 692.487 90.9883 691.38 91.8135C690.272 92.6387 689.591 93.7842 689.336 95.252C690.375 94.2314 691.687 93.7207 693.273 93.7207C694.996 93.7207 696.367 94.3496 697.388 95.6074C698.409 96.8652 698.92 98.5147 698.92 100.557C698.92 101.823 698.621 102.985 698.024 104.043C697.427 105.101 696.593 105.928 695.522 106.524C694.451 107.121 693.264 107.42 691.961 107.42C690.548 107.42 689.285 107.099 688.174 106.456C687.061 105.813 686.196 104.896 685.576 103.701C684.956 102.507 684.637 101.131 684.619 99.5723V97.7266C684.619 95.6758 685.058 93.832 685.938 92.1963C686.818 90.5606 688.073 89.2774 689.705 88.3477C691.336 87.418 693.145 86.9531 695.133 86.9531L695.83 86.9531ZM691.674 97.248C691.063 97.248 690.553 97.3896 690.142 97.6719C689.732 97.9541 689.427 98.3008 689.226 98.7109V100.092C689.226 102.607 690.096 103.865 691.838 103.865C692.539 103.865 693.125 103.551 693.595 102.922C694.064 102.293 694.299 101.505 694.299 100.557C694.299 99.5811 694.059 98.7861 693.581 98.1709C693.102 97.5557 692.467 97.248 691.674 97.248Z" fill="#626469"/>
<path d="M652.822 119.906C652.822 118.876 652.959 117.888 653.235 116.939C653.511 115.991 653.922 115.13 654.469 114.355C655.016 113.581 655.583 113.034 656.171 112.715L656.431 113.549C655.765 114.06 655.22 114.839 654.794 115.887C654.367 116.935 654.134 118.108 654.093 119.407L654.086 119.988C654.086 121.747 654.408 123.274 655.05 124.568C655.437 125.343 655.898 125.949 656.431 126.387L656.171 127.159C655.565 126.822 654.986 126.257 654.435 125.464C653.359 123.914 652.822 122.062 652.822 119.906Z" fill="#626469"/>
<path d="M664.046 123.945H657.525V123.036L660.97 119.208C661.48 118.629 661.832 118.158 662.026 117.797C662.22 117.434 662.317 117.06 662.317 116.672C662.317 116.152 662.159 115.727 661.845 115.394C661.531 115.061 661.111 114.895 660.587 114.895C659.958 114.895 659.47 115.073 659.121 115.432C658.772 115.789 658.598 116.287 658.598 116.925H657.333C657.333 116.009 657.628 115.269 658.219 114.703C658.809 114.138 659.598 113.855 660.587 113.855C661.513 113.855 662.244 114.098 662.782 114.584C663.319 115.068 663.588 115.715 663.588 116.521C663.588 117.501 662.964 118.668 661.715 120.021L659.049 122.913H664.046V123.945Z" fill="#626469"/>
<path d="M665.543 123.281C665.543 123.062 665.608 122.88 665.738 122.734C665.868 122.589 666.063 122.516 666.323 122.516C666.582 122.516 666.78 122.589 666.914 122.734C667.048 122.88 667.116 123.062 667.116 123.281C667.116 123.491 667.048 123.666 666.914 123.808C666.78 123.949 666.582 124.02 666.323 124.02C666.063 124.02 665.868 123.949 665.738 123.808C665.608 123.666 665.543 123.491 665.543 123.281Z" fill="#626469"/>
<path d="M675.592 123.945H669.071V123.036L672.516 119.208C673.026 118.629 673.378 118.158 673.572 117.797C673.766 117.434 673.863 117.06 673.863 116.672C673.863 116.152 673.705 115.727 673.391 115.394C673.076 115.061 672.657 114.895 672.133 114.895C671.504 114.895 671.015 115.073 670.667 115.432C670.318 115.789 670.144 116.287 670.144 116.925H668.879C668.879 116.009 669.174 115.269 669.764 114.703C670.355 114.138 671.144 113.855 672.133 113.855C673.058 113.855 673.79 114.098 674.327 114.584C674.865 115.068 675.134 115.715 675.134 116.521C675.134 117.501 674.51 118.668 673.261 120.021L670.595 122.913H675.592V123.945Z" fill="#626469"/>
<path d="M677.021 125.929L676.303 125.437C676.731 124.84 676.955 124.225 676.973 123.591V122.449H678.21V123.44C678.21 123.9 678.097 124.361 677.872 124.821C677.646 125.281 677.363 125.65 677.021 125.929Z" fill="#626469"/>
<path d="M689.182 116.59C689.182 117.087 689.051 117.528 688.789 117.916C688.527 118.304 688.173 118.606 687.726 118.825C688.245 119.049 688.657 119.374 688.96 119.803C689.263 120.231 689.414 120.717 689.414 121.259C689.414 122.12 689.124 122.806 688.543 123.316C687.962 123.827 687.197 124.082 686.249 124.082C685.292 124.082 684.526 123.826 683.949 123.312C683.372 122.801 683.084 122.115 683.084 121.259C683.084 120.721 683.231 120.235 683.525 119.803C683.819 119.37 684.226 119.042 684.745 118.818C684.304 118.6 683.955 118.297 683.7 117.909C683.444 117.521 683.317 117.082 683.317 116.59C683.317 115.751 683.586 115.086 684.123 114.594C684.661 114.102 685.37 113.855 686.249 113.855C687.124 113.855 687.832 114.102 688.372 114.594C688.912 115.086 689.182 115.751 689.182 116.59ZM688.15 121.231C688.15 120.676 687.973 120.222 687.62 119.871C687.267 119.521 686.805 119.345 686.236 119.345C685.666 119.345 685.209 119.518 684.865 119.864C684.521 120.211 684.349 120.666 684.349 121.231C684.349 121.797 684.516 122.241 684.851 122.564C685.186 122.888 685.652 123.05 686.249 123.05C686.842 123.05 687.306 122.887 687.644 122.561C687.981 122.235 688.15 121.792 688.15 121.231ZM686.249 114.895C685.753 114.895 685.35 115.049 685.043 115.355C684.735 115.664 684.581 116.082 684.581 116.61C684.581 117.116 684.733 117.525 685.036 117.838C685.339 118.149 685.743 118.306 686.249 118.306C686.755 118.306 687.159 118.149 687.463 117.838C687.766 117.525 687.917 117.116 687.917 116.61C687.917 116.104 687.76 115.692 687.446 115.373C687.131 115.054 686.732 114.895 686.249 114.895Z" fill="#626469"/>
<path d="M691.164 123.281C691.164 123.062 691.229 122.88 691.359 122.734C691.489 122.589 691.684 122.516 691.944 122.516C692.203 122.516 692.401 122.589 692.535 122.734C692.669 122.88 692.737 123.062 692.737 123.281C692.737 123.491 692.669 123.666 692.535 123.808C692.401 123.949 692.203 124.02 691.944 124.02C691.684 124.02 691.489 123.949 691.359 123.808C691.229 123.666 691.164 123.491 691.164 123.281Z" fill="#626469"/>
<path d="M701.213 123.945H694.692V123.036L698.137 119.208C698.647 118.629 698.999 118.158 699.193 117.797C699.387 117.434 699.484 117.06 699.484 116.672C699.484 116.152 699.326 115.727 699.012 115.394C698.698 115.061 698.278 114.895 697.754 114.895C697.125 114.895 696.637 115.073 696.288 115.432C695.939 115.789 695.765 116.287 695.765 116.925H694.5C694.5 116.009 694.795 115.269 695.386 114.703C695.976 114.138 696.765 113.855 697.754 113.855C698.68 113.855 699.411 114.098 699.949 114.584C700.486 115.068 700.755 115.715 700.755 116.521C700.755 117.501 700.131 118.668 698.882 120.021L696.216 122.913H701.213V123.945Z" fill="#626469"/>
<path d="M705.602 119.975C705.602 120.991 705.469 121.965 705.202 122.897C704.935 123.829 704.528 124.689 703.978 125.478C703.429 126.266 702.854 126.826 702.252 127.159L701.986 126.387C702.687 125.849 703.251 125.014 703.678 123.882C704.104 122.749 704.321 121.492 704.33 120.111V119.893C704.33 118.936 704.23 118.046 704.03 117.224C703.829 116.4 703.55 115.663 703.192 115.012C702.834 114.36 702.432 113.852 701.986 113.487L702.252 112.715C702.854 113.048 703.427 113.604 703.971 114.383C704.516 115.162 704.924 116.021 705.195 116.96C705.466 117.898 705.602 118.903 705.602 119.975Z" fill="#626469"/>
<path d="M405.925 183.885H408.098C409.821 183.885 410.682 183.042 410.682 181.355C410.682 180.699 410.477 180.164 410.067 179.749C409.657 179.334 409.078 179.127 408.331 179.127C407.72 179.127 407.189 179.305 406.738 179.66C406.287 180.016 406.061 180.458 406.061 180.986H401.454C401.454 179.938 401.745 179.004 402.329 178.184C402.912 177.363 403.721 176.723 404.756 176.263C405.79 175.803 406.927 175.572 408.167 175.572C410.382 175.572 412.122 176.078 413.389 177.09C414.656 178.102 415.29 179.491 415.29 181.26C415.29 182.116 415.028 182.926 414.504 183.687C413.979 184.447 413.216 185.065 412.214 185.539C413.271 185.922 414.1 186.503 414.702 187.282C415.303 188.062 415.604 189.025 415.604 190.174C415.604 191.951 414.921 193.373 413.553 194.439C412.186 195.506 410.39 196.039 408.167 196.039C406.863 196.039 405.653 195.791 404.537 195.294C403.42 194.797 402.575 194.109 402.001 193.229C401.427 192.35 401.139 191.35 401.139 190.229H405.774C405.774 190.839 406.02 191.368 406.512 191.814C407.005 192.261 407.611 192.484 408.331 192.484C409.142 192.484 409.789 192.259 410.272 191.808C410.755 191.356 410.997 190.78 410.997 190.078C410.997 189.075 410.746 188.364 410.245 187.945C409.743 187.526 409.051 187.316 408.167 187.316H405.925L405.925 183.885Z" fill="#00494F"/>
<path d="M420.854 191.295C421.583 191.295 422.189 191.512 422.673 191.944C423.156 192.377 423.397 192.931 423.397 193.605C423.397 194.28 423.156 194.834 422.673 195.267C422.189 195.699 421.583 195.916 420.854 195.916C420.116 195.916 419.508 195.697 419.029 195.26C418.551 194.822 418.311 194.271 418.311 193.605C418.311 192.94 418.551 192.389 419.029 191.951C419.508 191.514 420.116 191.295 420.854 191.295Z" fill="#00494F"/>
<path d="M430.602 183.885H432.776C434.499 183.885 435.36 183.042 435.36 181.355C435.36 180.699 435.155 180.164 434.745 179.749C434.335 179.334 433.756 179.127 433.009 179.127C432.398 179.127 431.867 179.305 431.416 179.66C430.965 180.016 430.739 180.458 430.739 180.986H426.132C426.132 179.938 426.423 179.004 427.007 178.184C427.59 177.363 428.399 176.723 429.433 176.263C430.468 175.803 431.605 175.572 432.844 175.572C435.059 175.572 436.8 176.078 438.067 177.09C439.334 178.102 439.968 179.491 439.968 181.26C439.968 182.116 439.705 182.926 439.181 183.687C438.657 184.447 437.894 185.065 436.891 185.539C437.948 185.922 438.778 186.503 439.38 187.282C439.981 188.062 440.282 189.025 440.282 190.174C440.282 191.951 439.598 193.373 438.231 194.439C436.864 195.506 435.068 196.039 432.844 196.039C431.541 196.039 430.331 195.791 429.215 195.294C428.098 194.797 427.253 194.109 426.678 193.229C426.104 192.35 425.817 191.35 425.817 190.229H430.452C430.452 190.839 430.698 191.368 431.19 191.814C431.682 192.261 432.288 192.484 433.009 192.484C433.82 192.484 434.467 192.259 434.95 191.808C435.433 191.356 435.675 190.78 435.675 190.078C435.675 189.075 435.424 188.364 434.923 187.945C434.421 187.526 433.728 187.316 432.845 187.316H430.602L430.602 183.885Z" fill="#00494F"/>
<path d="M400.285 208.525C400.285 207.495 400.423 206.507 400.698 205.559C400.974 204.61 401.385 203.749 401.932 202.975C402.479 202.2 403.047 201.653 403.635 201.334L403.894 202.168C403.229 202.679 402.683 203.458 402.257 204.506C401.831 205.554 401.597 206.728 401.556 208.026L401.55 208.607C401.55 210.366 401.871 211.894 402.513 213.188C402.901 213.962 403.361 214.568 403.894 215.006L403.635 215.778C403.029 215.441 402.449 214.876 401.898 214.083C400.823 212.533 400.285 210.681 400.285 208.525Z" fill="#626469"/>
<path d="M411.229 208.321C411.229 209.803 410.976 210.903 410.47 211.623C409.965 212.343 409.174 212.703 408.098 212.703C407.036 212.703 406.25 212.352 405.74 211.646C405.23 210.943 404.965 209.892 404.947 208.492V206.804C404.947 205.341 405.2 204.254 405.706 203.543C406.212 202.832 407.005 202.477 408.085 202.477C409.156 202.477 409.944 202.819 410.45 203.506C410.956 204.191 411.216 205.25 411.229 206.681V208.321ZM409.965 206.592C409.965 205.521 409.814 204.74 409.513 204.25C409.213 203.761 408.737 203.516 408.085 203.516C407.438 203.516 406.966 203.76 406.67 204.247C406.373 204.734 406.221 205.484 406.212 206.496V208.52C406.212 209.595 406.368 210.389 406.68 210.902C406.992 211.414 407.465 211.671 408.098 211.671C408.723 211.671 409.186 211.43 409.49 210.946C409.793 210.463 409.951 209.702 409.965 208.663V206.592Z" fill="#626469"/>
<path d="M413.007 211.902C413.007 211.684 413.072 211.501 413.201 211.355C413.331 211.21 413.526 211.137 413.786 211.137C414.046 211.137 414.243 211.21 414.377 211.355C414.511 211.501 414.579 211.684 414.579 211.902C414.579 212.112 414.511 212.287 414.377 212.429C414.243 212.57 414.046 212.641 413.786 212.641C413.526 212.641 413.331 212.57 413.201 212.429C413.072 212.287 413.007 212.112 413.007 211.902Z" fill="#626469"/>
<path d="M422.57 205.211C422.57 205.708 422.439 206.149 422.177 206.537C421.915 206.925 421.561 207.228 421.114 207.446C421.634 207.67 422.045 207.995 422.348 208.424C422.651 208.853 422.802 209.338 422.802 209.88C422.802 210.741 422.512 211.427 421.931 211.938C421.35 212.448 420.585 212.703 419.637 212.703C418.68 212.703 417.914 212.447 417.337 211.934C416.76 211.422 416.472 210.736 416.472 209.88C416.472 209.342 416.619 208.856 416.913 208.424C417.207 207.991 417.614 207.663 418.134 207.439C417.692 207.221 417.343 206.918 417.088 206.53C416.832 206.143 416.705 205.703 416.705 205.211C416.705 204.372 416.974 203.707 417.511 203.215C418.049 202.723 418.758 202.477 419.637 202.477C420.512 202.477 421.22 202.723 421.76 203.215C422.3 203.707 422.57 204.372 422.57 205.211ZM421.538 209.853C421.538 209.297 421.361 208.843 421.008 208.492C420.655 208.142 420.194 207.966 419.624 207.966C419.054 207.966 418.597 208.139 418.253 208.485C417.909 208.832 417.737 209.287 417.737 209.853C417.737 210.418 417.905 210.862 418.24 211.186C418.574 211.509 419.04 211.671 419.637 211.671C420.23 211.671 420.695 211.508 421.032 211.182C421.369 210.856 421.538 210.413 421.538 209.853ZM419.637 203.516C419.141 203.516 418.739 203.67 418.431 203.977C418.123 204.285 417.969 204.703 417.969 205.231C417.969 205.737 418.121 206.146 418.424 206.459C418.727 206.771 419.132 206.927 419.637 206.927C420.143 206.927 420.548 206.771 420.851 206.459C421.154 206.146 421.305 205.737 421.305 205.231C421.305 204.726 421.148 204.313 420.834 203.994C420.519 203.675 420.12 203.516 419.637 203.516Z" fill="#626469"/>
<path d="M424.484 214.548L423.766 214.056C424.195 213.459 424.418 212.844 424.436 212.21V211.068H425.674V212.06C425.674 212.52 425.561 212.98 425.335 213.44C425.11 213.9 424.826 214.27 424.484 214.548Z" fill="#626469"/>
<path d="M431.19 207.576L431.696 202.613H436.796V203.782H432.769L432.469 206.496C432.956 206.209 433.51 206.065 434.13 206.065C435.036 206.065 435.757 206.365 436.29 206.965C436.823 207.563 437.09 208.374 437.09 209.395C437.09 210.42 436.813 211.228 436.259 211.818C435.705 212.408 434.932 212.703 433.938 212.703C433.059 212.703 432.341 212.459 431.785 211.972C431.229 211.484 430.912 210.81 430.835 209.948H432.031C432.109 210.518 432.311 210.947 432.639 211.236C432.968 211.526 433.401 211.671 433.938 211.671C434.526 211.671 434.988 211.471 435.323 211.069C435.657 210.668 435.825 210.114 435.825 209.408C435.825 208.743 435.644 208.209 435.281 207.805C434.919 207.402 434.437 207.2 433.836 207.2C433.284 207.2 432.851 207.321 432.537 207.563L432.202 207.836L431.19 207.576Z" fill="#626469"/>
<path d="M441.519 208.594C441.519 209.61 441.386 210.584 441.119 211.517C440.853 212.448 440.445 213.309 439.896 214.097C439.347 214.885 438.771 215.445 438.17 215.778L437.903 215.006C438.605 214.468 439.169 213.633 439.595 212.501C440.021 211.368 440.239 210.111 440.248 208.73V208.512C440.248 207.555 440.148 206.665 439.947 205.843C439.746 205.02 439.468 204.282 439.11 203.631C438.752 202.979 438.35 202.471 437.903 202.106L438.17 201.334C438.771 201.667 439.345 202.223 439.889 203.002C440.433 203.781 440.842 204.641 441.113 205.579C441.384 206.518 441.519 207.522 441.519 208.594Z" fill="#626469"/>
<path d="M274.856 282.508H260.965V279.5L267.364 272.773C268.94 270.978 269.729 269.552 269.729 268.494C269.729 267.638 269.542 266.985 269.168 266.539C268.794 266.093 268.252 265.869 267.541 265.869C266.839 265.869 266.27 266.168 265.832 266.765C265.395 267.361 265.176 268.106 265.176 269H260.555C260.555 267.778 260.86 266.65 261.471 265.616C262.081 264.582 262.929 263.772 264.014 263.189C265.099 262.606 266.311 262.314 267.651 262.314C269.802 262.314 271.458 262.812 272.62 263.805C273.783 264.798 274.364 266.225 274.364 268.084C274.364 268.868 274.218 269.631 273.926 270.374C273.634 271.117 273.181 271.896 272.566 272.712C271.951 273.527 270.959 274.619 269.592 275.986L267.022 278.953H274.856L274.856 282.508Z" fill="#00494F"/>
<path d="M280.106 278.037C280.835 278.037 281.441 278.254 281.924 278.687C282.407 279.119 282.649 279.673 282.649 280.348C282.649 281.022 282.407 281.576 281.924 282.009C281.441 282.441 280.835 282.658 280.106 282.658C279.367 282.658 278.759 282.439 278.281 282.002C277.802 281.564 277.563 281.013 277.563 280.348C277.563 279.683 277.802 279.131 278.281 278.693C278.759 278.256 279.367 278.037 280.106 278.037Z" fill="#00494F"/>
<path d="M299.534 282.508H285.643V279.5L292.041 272.773C293.618 270.978 294.407 269.552 294.407 268.494C294.407 267.638 294.22 266.985 293.846 266.539C293.472 266.093 292.93 265.869 292.219 265.869C291.517 265.869 290.948 266.168 290.51 266.765C290.073 267.361 289.854 268.106 289.854 269H285.233C285.233 267.778 285.538 266.65 286.149 265.616C286.759 264.582 287.607 263.772 288.692 263.189C289.776 262.606 290.989 262.314 292.328 262.314C294.479 262.314 296.136 262.812 297.298 263.805C298.46 264.798 299.041 266.225 299.041 268.084C299.041 268.868 298.895 269.631 298.604 270.374C298.312 271.117 297.859 271.896 297.244 272.712C296.628 273.527 295.637 274.619 294.27 275.986L291.7 278.953H299.534L299.534 282.508Z" fill="#00494F"/>
<path d="M253.764 295.268C253.764 294.237 253.901 293.249 254.177 292.301C254.453 291.353 254.864 290.491 255.411 289.717C255.958 288.942 256.525 288.396 257.113 288.076L257.373 288.91C256.707 289.421 256.162 290.2 255.736 291.248C255.309 292.296 255.076 293.47 255.035 294.769L255.028 295.35C255.028 297.108 255.349 298.636 255.992 299.93C256.379 300.704 256.84 301.311 257.373 301.748L257.113 302.521C256.507 302.184 255.928 301.618 255.377 300.825C254.301 299.275 253.764 297.423 253.764 295.268Z" fill="#626469"/>
<path d="M264.708 295.063C264.708 296.545 264.455 297.646 263.949 298.365C263.443 299.085 262.653 299.445 261.577 299.445C260.515 299.445 259.729 299.094 259.219 298.389C258.708 297.686 258.444 296.634 258.426 295.234V293.546C258.426 292.083 258.678 290.996 259.184 290.285C259.69 289.574 260.483 289.219 261.563 289.219C262.634 289.219 263.423 289.562 263.928 290.248C264.434 290.934 264.694 291.992 264.708 293.423V295.063ZM263.443 293.334C263.443 292.263 263.293 291.482 262.992 290.992C262.691 290.503 262.215 290.258 261.563 290.258C260.916 290.258 260.445 290.502 260.148 290.989C259.852 291.477 259.699 292.227 259.69 293.238V295.262C259.69 296.337 259.846 297.131 260.158 297.645C260.47 298.156 260.944 298.413 261.577 298.413C262.201 298.413 262.665 298.172 262.968 297.688C263.271 297.205 263.429 296.444 263.443 295.405V293.334Z" fill="#626469"/>
<path d="M266.485 298.645C266.485 298.426 266.55 298.243 266.68 298.098C266.81 297.952 267.005 297.879 267.264 297.879C267.524 297.879 267.721 297.952 267.856 298.098C267.99 298.243 268.057 298.426 268.057 298.645C268.057 298.854 267.99 299.029 267.856 299.171C267.721 299.312 267.524 299.383 267.264 299.383C267.005 299.383 266.81 299.312 266.68 299.171C266.55 299.029 266.485 298.854 266.485 298.645Z" fill="#626469"/>
<path d="M274.859 294.934C274.595 295.248 274.279 295.501 273.912 295.692C273.546 295.884 273.143 295.979 272.706 295.979C272.132 295.979 271.632 295.838 271.205 295.556C270.779 295.273 270.45 294.875 270.218 294.363C269.985 293.85 269.869 293.284 269.869 292.664C269.869 291.999 269.995 291.399 270.248 290.866C270.501 290.333 270.86 289.925 271.325 289.643C271.79 289.36 272.332 289.219 272.952 289.219C273.936 289.219 274.712 289.587 275.28 290.322C275.847 291.059 276.131 292.062 276.131 293.334V293.703C276.131 295.64 275.748 297.054 274.982 297.945C274.217 298.836 273.061 299.293 271.516 299.315H271.27V298.242H271.537C272.58 298.224 273.383 297.952 273.943 297.427C274.504 296.901 274.809 296.07 274.859 294.934ZM272.911 294.934C273.335 294.934 273.725 294.804 274.083 294.544C274.441 294.284 274.702 293.963 274.866 293.58V293.074C274.866 292.245 274.686 291.57 274.326 291.051C273.966 290.531 273.51 290.271 272.959 290.271C272.403 290.271 271.956 290.484 271.619 290.91C271.281 291.337 271.113 291.898 271.113 292.596C271.113 293.274 271.276 293.834 271.602 294.273C271.927 294.714 272.364 294.934 272.911 294.934Z" fill="#626469"/>
<path d="M277.963 301.29L277.245 300.798C277.673 300.201 277.897 299.586 277.915 298.952V297.811H279.152V298.802C279.152 299.262 279.039 299.723 278.814 300.183C278.588 300.643 278.305 301.012 277.963 301.29Z" fill="#626469"/>
<path d="M284.669 294.318L285.175 289.355H290.274V290.524H286.248L285.947 293.238C286.435 292.951 286.989 292.808 287.608 292.808C288.515 292.808 289.235 293.107 289.768 293.707C290.302 294.306 290.568 295.116 290.568 296.137C290.568 297.162 290.291 297.97 289.738 298.561C289.184 299.15 288.41 299.445 287.417 299.445C286.537 299.445 285.82 299.201 285.263 298.714C284.707 298.227 284.391 297.552 284.313 296.69H285.51C285.587 297.26 285.79 297.689 286.118 297.979C286.446 298.269 286.879 298.413 287.417 298.413C288.005 298.413 288.466 298.213 288.801 297.812C289.136 297.41 289.303 296.856 289.303 296.15C289.303 295.485 289.122 294.951 288.76 294.547C288.398 294.145 287.916 293.942 287.314 293.942C286.763 293.942 286.33 294.063 286.015 294.305L285.68 294.578L284.669 294.318Z" fill="#626469"/>
<path d="M292.106 298.645C292.106 298.426 292.171 298.243 292.301 298.098C292.431 297.952 292.626 297.879 292.885 297.879C293.145 297.879 293.343 297.952 293.477 298.098C293.611 298.243 293.678 298.426 293.678 298.645C293.678 298.854 293.611 299.029 293.477 299.171C293.343 299.312 293.145 299.383 292.885 299.383C292.626 299.383 292.431 299.312 292.301 299.171C292.171 299.029 292.106 298.854 292.106 298.645Z" fill="#626469"/>
<path d="M300.972 295.966H302.353V296.998H300.972V299.309H299.701V296.998H295.169V296.253L299.626 289.355H300.972V295.966ZM296.604 295.966H299.701V291.085L299.551 291.358L296.604 295.966Z" fill="#626469"/>
<path d="M306.544 295.336C306.544 296.353 306.41 297.326 306.144 298.259C305.877 299.19 305.47 300.051 304.92 300.839C304.371 301.627 303.796 302.187 303.194 302.521L302.928 301.748C303.629 301.21 304.193 300.375 304.619 299.243C305.046 298.11 305.263 296.854 305.272 295.473V295.254C305.272 294.297 305.172 293.407 304.972 292.585C304.771 291.762 304.492 291.024 304.134 290.373C303.776 289.722 303.374 289.213 302.928 288.849L303.194 288.076C303.796 288.409 304.369 288.965 304.913 289.744C305.458 290.523 305.866 291.383 306.137 292.321C306.408 293.26 306.544 294.265 306.544 295.336Z" fill="#626469"/>
<path d="M701.307 337.369H98.9354" stroke="#626469" stroke-miterlimit="10"/>
<path d="M702.877 360.188V361.758H702.643C701.58 361.773 700.731 362.065 700.096 362.633C699.46 363.2 699.083 364.005 698.963 365.047C699.573 364.406 700.351 364.086 701.299 364.086C702.304 364.086 703.097 364.44 703.678 365.148C704.259 365.856 704.549 366.771 704.549 367.891C704.549 369.047 704.209 369.983 703.53 370.699C702.85 371.415 701.958 371.773 700.854 371.773C699.718 371.773 698.798 371.354 698.092 370.516C697.386 369.677 697.034 368.578 697.034 367.219V366.57C697.034 364.575 697.519 363.013 698.491 361.883C699.462 360.753 700.859 360.188 702.682 360.188H702.877ZM700.838 365.617C700.421 365.617 700.04 365.734 699.694 365.969C699.347 366.203 699.093 366.516 698.932 366.906V367.484C698.932 368.328 699.109 368.999 699.463 369.496C699.817 369.993 700.276 370.242 700.838 370.242C701.401 370.242 701.846 370.031 702.174 369.609C702.502 369.188 702.666 368.633 702.666 367.945C702.666 367.258 702.499 366.698 702.166 366.266C701.833 365.833 701.39 365.617 700.838 365.617Z" fill="#00494F"/>
<path d="M576.112 365.977L576.729 360.242H582.839V361.883H578.307L577.995 364.602C578.521 364.3 579.115 364.148 579.776 364.148C580.859 364.148 581.702 364.495 582.304 365.188C582.905 365.88 583.206 366.812 583.206 367.984C583.206 369.141 582.872 370.062 582.206 370.746C581.539 371.431 580.625 371.773 579.464 371.773C578.422 371.773 577.558 371.478 576.874 370.887C576.189 370.296 575.818 369.516 575.761 368.547H577.596C577.669 369.099 577.867 369.522 578.19 369.816C578.513 370.11 578.935 370.258 579.456 370.258C580.039 370.258 580.493 370.05 580.819 369.633C581.144 369.216 581.307 368.648 581.307 367.93C581.307 367.237 581.128 366.688 580.768 366.285C580.409 365.882 579.914 365.68 579.284 365.68C578.94 365.68 578.648 365.726 578.409 365.816C578.169 365.907 577.909 366.086 577.628 366.352L576.112 365.977Z" fill="#00494F"/>
<path d="M460.804 367.562H462.219V369.086H460.804V371.617H458.906V369.086H453.992L453.937 367.93L458.844 360.242H460.804V367.562ZM455.929 367.562H458.906V362.812L458.765 363.062L455.929 367.562Z" fill="#00494F"/>
<path d="M335.356 365.062H336.512C337.095 365.058 337.558 364.906 337.899 364.609C338.24 364.312 338.411 363.883 338.411 363.32C338.411 362.778 338.269 362.358 337.985 362.059C337.701 361.759 337.267 361.609 336.684 361.609C336.174 361.609 335.755 361.757 335.427 362.051C335.098 362.345 334.934 362.729 334.934 363.203H333.036C333.036 362.62 333.191 362.089 333.501 361.609C333.81 361.13 334.243 360.757 334.798 360.488C335.352 360.22 335.973 360.086 336.661 360.086C337.796 360.086 338.688 360.371 339.337 360.941C339.985 361.512 340.309 362.305 340.309 363.32C340.309 363.831 340.146 364.312 339.821 364.762C339.495 365.212 339.075 365.552 338.559 365.781C339.184 365.995 339.659 366.331 339.985 366.789C340.31 367.247 340.473 367.794 340.473 368.43C340.473 369.45 340.123 370.263 339.423 370.867C338.722 371.472 337.802 371.773 336.661 371.773C335.567 371.773 334.671 371.481 333.973 370.898C333.275 370.315 332.927 369.539 332.927 368.57H334.825C334.825 369.07 334.993 369.477 335.329 369.789C335.665 370.102 336.116 370.258 336.684 370.258C337.273 370.258 337.736 370.102 338.075 369.789C338.413 369.477 338.583 369.023 338.583 368.43C338.583 367.831 338.406 367.37 338.052 367.047C337.697 366.724 337.171 366.562 336.473 366.562H335.356V365.062Z" fill="#00494F"/>
<path d="M219.587 371.617H211.938V370.312L215.727 366.18C216.274 365.57 216.663 365.061 216.895 364.652C217.127 364.243 217.243 363.833 217.243 363.422C217.243 362.88 217.091 362.442 216.786 362.109C216.481 361.775 216.071 361.609 215.555 361.609C214.941 361.609 214.464 361.797 214.126 362.172C213.787 362.547 213.618 363.06 213.618 363.711H211.719C211.719 363.018 211.877 362.395 212.192 361.84C212.507 361.285 212.958 360.854 213.544 360.547C214.13 360.239 214.805 360.086 215.571 360.086C216.675 360.086 217.546 360.363 218.184 360.918C218.823 361.473 219.141 362.239 219.141 363.219C219.141 363.786 218.981 364.381 218.661 365.004C218.341 365.626 217.816 366.333 217.087 367.125L214.305 370.102H219.587L219.587 371.617Z" fill="#00494F"/>
<path d="M99.8959 371.617H98.0052V362.479L95.2162 363.43V361.836L99.6537 360.203H99.8959L99.8959 371.617Z" fill="#00494F"/>
<path d="M215.918 336.965V350.874" stroke="#626469" stroke-miterlimit="10"/>
<path d="M337.141 336.887V350.796" stroke="#626469" stroke-miterlimit="10"/>
<path d="M458.411 336.99V350.899" stroke="#626469" stroke-miterlimit="10"/>
<path d="M579.585 337.039V350.948" stroke="#626469" stroke-miterlimit="10"/>
<path d="M700.808 336.988V350.897" stroke="#626469" stroke-miterlimit="10"/>
<path d="M99.4042 350.669V56.3359" stroke="#626469" stroke-miterlimit="10"/>
<path d="M85.6567 184.691H98.9425" stroke="#626469" stroke-miterlimit="10"/>
<path d="M85.6567 96.9668H98.9425" stroke="#626469" stroke-miterlimit="10"/>
<path d="M85.6567 272.822H98.9425" stroke="#626469" stroke-miterlimit="10"/>
</svg>
