<svg width="738" height="450" viewBox="0 0 738 450" fill="none" xmlns="http://www.w3.org/2000/svg">
<path d="M596.504 96.6934C596.504 110.491 585.301 121.693 571.504 121.693L99.334 121.693V71.6934L571.504 71.6934C585.301 71.6934 596.504 82.8955 596.504 96.6934Z" fill="#E2E7EA"/>
<path d="M99.3341 248.707V298.707C102.49 291.709 104.379 283.08 104.379 273.707C104.379 264.334 102.49 255.705 99.3341 248.707Z" fill="#48D597"/>
<path d="M99.3341 160.242V210.242C112.489 209.215 122.842 198.476 122.842 185.353C122.842 172.18 112.508 161.38 99.3341 160.242Z" fill="#48D597"/>
<path d="M268.217 395.639L271.504 404.92L274.774 395.639H278.237V408.436H275.591V404.938L275.855 398.899L272.401 408.436H270.59L267.145 398.908L267.408 404.938V408.436H264.772V395.639H268.217Z" fill="#00494F"/>
<path d="M284.749 408.611C283.355 408.611 282.22 408.184 281.344 407.328C280.468 406.473 280.03 405.333 280.03 403.909V403.663C280.03 402.708 280.214 401.854 280.583 401.102C280.953 400.349 281.475 399.769 282.152 399.361C282.829 398.954 283.601 398.75 284.468 398.75C285.769 398.75 286.793 399.16 287.54 399.98C288.287 400.801 288.661 401.964 288.661 403.47V404.507H282.605C282.687 405.128 282.934 405.626 283.348 406.001C283.761 406.376 284.284 406.563 284.916 406.563C285.895 406.563 286.66 406.209 287.21 405.5L288.458 406.897C288.078 407.437 287.562 407.857 286.911 408.158C286.261 408.46 285.54 408.611 284.749 408.611ZM284.459 400.798C283.955 400.798 283.547 400.969 283.233 401.31C282.92 401.651 282.719 402.14 282.631 402.775H286.164V402.572C286.153 402.007 286 401.57 285.707 401.262C285.414 400.952 284.998 400.798 284.459 400.798Z" fill="#00494F"/>
<path d="M289.706 403.61C289.706 402.128 290.039 400.947 290.704 400.068C291.369 399.189 292.279 398.75 293.433 398.75C294.359 398.75 295.123 399.096 295.727 399.787V394.936H298.276V408.436H295.982L295.859 407.425C295.226 408.216 294.411 408.611 293.415 408.611C292.296 408.611 291.398 408.171 290.721 407.289C290.045 406.407 289.706 405.181 289.706 403.61ZM292.246 403.8C292.246 404.691 292.402 405.375 292.712 405.851C293.023 406.326 293.474 406.563 294.066 406.563C294.851 406.563 295.405 406.232 295.727 405.568V401.811C295.41 401.147 294.863 400.815 294.083 400.815C292.859 400.815 292.246 401.811 292.246 403.8Z" fill="#00494F"/>
<path d="M300.227 396.466C300.227 396.085 300.354 395.771 300.609 395.525C300.864 395.279 301.211 395.156 301.651 395.156C302.084 395.156 302.43 395.279 302.688 395.525C302.946 395.771 303.074 396.085 303.074 396.466C303.074 396.853 302.944 397.169 302.683 397.415C302.423 397.661 302.078 397.784 301.651 397.784C301.223 397.784 300.879 397.661 300.618 397.415C300.357 397.169 300.227 396.853 300.227 396.466ZM302.925 408.437H300.376V398.927H302.925V408.437Z" fill="#00494F"/>
<path d="M310.528 408.436C310.41 408.207 310.325 407.923 310.273 407.583C309.657 408.269 308.858 408.611 307.873 408.611C306.942 408.611 306.17 408.342 305.557 407.803C304.945 407.264 304.639 406.584 304.639 405.764C304.639 404.756 305.012 403.982 305.76 403.443C306.507 402.904 307.586 402.632 308.998 402.626H310.167V402.081C310.167 401.642 310.054 401.29 309.829 401.026C309.603 400.763 309.247 400.631 308.761 400.631C308.333 400.631 307.998 400.733 307.755 400.938C307.511 401.144 307.39 401.425 307.39 401.782H304.85C304.85 401.231 305.02 400.722 305.36 400.253C305.699 399.784 306.18 399.417 306.801 399.15C307.422 398.884 308.119 398.75 308.893 398.75C310.065 398.75 310.995 399.045 311.683 399.633C312.372 400.223 312.716 401.05 312.716 402.116V406.238C312.722 407.141 312.848 407.823 313.094 408.286V408.436H310.528ZM308.427 406.669C308.802 406.669 309.148 406.586 309.464 406.418C309.781 406.252 310.015 406.027 310.167 405.746V404.111H309.218C307.947 404.111 307.27 404.551 307.188 405.43L307.179 405.579C307.179 405.896 307.29 406.156 307.513 406.361C307.736 406.566 308.04 406.669 308.427 406.669Z" fill="#00494F"/>
<path d="M317.005 398.926L317.084 400.024C317.764 399.175 318.675 398.75 319.818 398.75C320.825 398.75 321.575 399.046 322.068 399.638C322.56 400.229 322.812 401.114 322.823 402.292V408.436H320.283V402.354C320.283 401.814 320.166 401.424 319.932 401.18C319.698 400.937 319.308 400.815 318.763 400.815C318.048 400.815 317.512 401.12 317.155 401.729V408.436H314.615V398.926H317.005Z" fill="#00494F"/>
<path d="M332.034 403.927V408.436H329.398V395.639H334.39C335.351 395.639 336.196 395.814 336.926 396.166C337.655 396.518 338.216 397.018 338.609 397.664C339.001 398.313 339.198 399.049 339.198 399.875C339.198 401.129 338.768 402.118 337.91 402.842C337.052 403.565 335.864 403.927 334.346 403.927H332.034ZM332.034 401.791H334.39C335.087 401.791 335.619 401.627 335.985 401.299C336.351 400.971 336.534 400.502 336.534 399.893C336.534 399.266 336.35 398.759 335.981 398.372C335.612 397.985 335.102 397.786 334.451 397.774H332.034V401.791Z" fill="#00494F"/>
<path d="M343.645 406.317H349.243V408.436H341.008V395.639H343.645V406.317Z" fill="#00494F"/>
<path d="M353.392 403.927V408.436H350.755V395.639H355.747C356.708 395.639 357.553 395.814 358.283 396.166C359.012 396.518 359.573 397.018 359.966 397.664C360.359 398.313 360.555 399.049 360.555 399.875C360.555 401.129 360.126 402.118 359.267 402.842C358.409 403.565 357.221 403.927 355.703 403.927H353.392ZM353.392 401.791H355.747C356.445 401.791 356.976 401.627 357.343 401.299C357.709 400.971 357.892 400.502 357.892 399.893C357.892 399.266 357.707 398.759 357.338 398.372C356.969 397.985 356.459 397.786 355.809 397.774H353.392V401.791Z" fill="#00494F"/>
<path d="M366.795 403.232C366.795 401.891 366.974 400.613 367.331 399.4C367.689 398.188 368.216 397.114 368.913 396.18C369.611 395.245 370.366 394.596 371.181 394.232L371.673 395.604C370.818 396.236 370.15 397.215 369.669 398.539C369.189 399.863 368.948 401.41 368.948 403.18V403.452C368.948 405.228 369.186 406.78 369.66 408.11C370.135 409.44 370.806 410.434 371.673 411.09L371.181 412.435C370.384 412.077 369.641 411.445 368.953 410.541C368.264 409.635 367.739 408.591 367.375 407.407C367.012 406.224 366.819 404.987 366.795 403.698V403.232Z" fill="#00494F"/>
<path d="M375.338 398.926L375.417 400.024C376.097 399.175 377.008 398.75 378.151 398.75C379.158 398.75 379.908 399.046 380.401 399.638C380.893 400.229 381.145 401.114 381.156 402.292V408.436H378.616V402.354C378.616 401.814 378.499 401.424 378.265 401.18C378.031 400.937 377.641 400.815 377.096 400.815C376.381 400.815 375.845 401.12 375.488 401.729V408.436H372.948V398.926H375.338Z" fill="#00494F"/>
<path d="M382.712 403.61C382.712 402.151 383.059 400.977 383.754 400.086C384.448 399.195 385.384 398.75 386.562 398.75C387.605 398.75 388.416 399.107 388.996 399.822L389.102 398.926H391.405V408.119C391.405 408.951 391.216 409.675 390.838 410.29C390.46 410.905 389.928 411.374 389.242 411.696C388.557 412.019 387.754 412.18 386.834 412.18C386.137 412.18 385.457 412.04 384.795 411.762C384.133 411.483 383.632 411.125 383.292 410.686L384.417 409.139C385.05 409.848 385.818 410.202 386.72 410.202C387.394 410.202 387.918 410.021 388.293 409.662C388.668 409.301 388.856 408.79 388.856 408.128V407.618C388.27 408.28 387.499 408.611 386.544 408.611C385.402 408.611 384.477 408.165 383.771 407.271C383.065 406.378 382.712 405.192 382.712 403.716L382.712 403.61ZM385.252 403.8C385.252 404.662 385.425 405.339 385.771 405.828C386.116 406.318 386.591 406.563 387.195 406.563C387.968 406.563 388.522 406.273 388.856 405.692V401.687C388.516 401.106 387.968 400.815 387.212 400.815C386.603 400.815 386.124 401.065 385.775 401.563C385.427 402.062 385.252 402.808 385.252 403.8Z" fill="#00494F"/>
<path d="M394.156 409.534H392.266L396.977 395.639H398.866L394.156 409.534Z" fill="#00494F"/>
<path d="M402.461 398.926L402.54 399.989C403.214 399.163 404.125 398.75 405.274 398.75C406.498 398.75 407.339 399.233 407.796 400.2C408.464 399.233 409.416 398.75 410.653 398.75C411.684 398.75 412.451 399.051 412.955 399.65C413.459 400.252 413.711 401.155 413.711 402.362V408.436H411.162V402.371C411.162 401.832 411.057 401.438 410.846 401.189C410.635 400.94 410.263 400.815 409.73 400.815C408.968 400.815 408.441 401.179 408.148 401.905L408.156 408.436H405.616V402.38C405.616 401.829 405.508 401.431 405.291 401.185C405.074 400.938 404.705 400.815 404.184 400.815C403.463 400.815 402.942 401.114 402.619 401.712V408.436H400.079V398.926H402.461Z" fill="#00494F"/>
<path d="M418.466 406.317H424.065V408.436H415.829V395.639H418.466V406.317Z" fill="#00494F"/>
<path d="M429.786 403.435C429.786 404.759 429.596 406.033 429.215 407.258C428.834 408.482 428.286 409.564 427.572 410.501C426.857 411.439 426.092 412.083 425.278 412.435L424.785 411.09C425.617 410.463 426.274 409.496 426.754 408.189C427.235 406.883 427.484 405.38 427.501 403.681V403.215C427.501 401.463 427.262 399.919 426.785 398.583C426.307 397.247 425.641 396.245 424.785 395.577L425.278 394.232C426.074 394.578 426.826 395.205 427.532 396.113C428.238 397.021 428.786 398.079 429.176 399.286C429.565 400.493 429.769 401.744 429.786 403.039V403.435Z" fill="#00494F"/>
<path d="M436.352 403.232C436.352 401.891 436.531 400.613 436.888 399.4C437.245 398.188 437.773 397.114 438.47 396.18C439.167 395.245 439.923 394.596 440.738 394.232L441.23 395.604C440.374 396.236 439.706 397.215 439.226 398.539C438.745 399.863 438.505 401.41 438.505 403.18V403.452C438.505 405.228 438.742 406.78 439.217 408.11C439.692 409.44 440.363 410.434 441.23 411.09L440.738 412.435C439.941 412.077 439.198 411.445 438.51 410.541C437.821 409.635 437.295 408.591 436.932 407.407C436.569 406.224 436.375 404.987 436.352 403.698V403.232Z" fill="#00494F"/>
<path d="M444.939 398.926L445.018 399.989C445.692 399.163 446.603 398.75 447.751 398.75C448.976 398.75 449.817 399.233 450.274 400.2C450.942 399.233 451.894 398.75 453.13 398.75C454.161 398.75 454.929 399.051 455.433 399.65C455.937 400.252 456.189 401.155 456.189 402.362V408.436H453.64V402.371C453.64 401.832 453.534 401.438 453.323 401.189C453.113 400.94 452.74 400.815 452.207 400.815C451.446 400.815 450.918 401.179 450.625 401.905L450.634 408.436H448.094V402.38C448.094 401.829 447.986 401.431 447.769 401.185C447.552 400.938 447.183 400.815 446.661 400.815C445.941 400.815 445.419 401.114 445.097 401.712V408.436H442.557V398.926H444.939Z" fill="#00494F"/>
<path d="M458.122 396.466C458.122 396.085 458.25 395.771 458.505 395.525C458.76 395.279 459.107 395.156 459.546 395.156C459.98 395.156 460.325 395.279 460.583 395.525C460.841 395.771 460.97 396.085 460.97 396.466C460.97 396.853 460.84 397.169 460.579 397.415C460.318 397.661 459.974 397.784 459.546 397.784C459.118 397.784 458.774 397.661 458.513 397.415C458.253 397.169 458.122 396.853 458.122 396.466ZM460.821 408.437H458.272V398.927H460.821V408.437Z" fill="#00494F"/>
<path d="M465.25 398.926L465.329 400.024C466.009 399.175 466.92 398.75 468.063 398.75C469.071 398.75 469.821 399.046 470.313 399.638C470.805 400.229 471.057 401.114 471.069 402.292V408.436H468.529V402.354C468.529 401.814 468.411 401.424 468.177 401.18C467.943 400.937 467.553 400.815 467.008 400.815C466.293 400.815 465.757 401.12 465.4 401.729V408.436H462.86V398.926H465.25Z" fill="#00494F"/>
<path d="M473.653 411.644L472.325 410.949L472.642 410.378C473.034 409.663 473.237 408.951 473.248 408.242V406.273H475.393L475.384 408.031C475.378 408.682 475.214 409.338 474.892 410C474.57 410.662 474.156 411.21 473.653 411.644Z" fill="#00494F"/>
<path d="M484.252 398.926L484.331 399.989C485.005 399.163 485.916 398.75 487.065 398.75C488.289 398.75 489.13 399.233 489.587 400.2C490.255 399.233 491.207 398.75 492.444 398.75C493.475 398.75 494.242 399.051 494.746 399.65C495.25 400.252 495.502 401.155 495.502 402.362V408.436H492.953V402.371C492.953 401.832 492.848 401.438 492.637 401.189C492.426 400.94 492.054 400.815 491.521 400.815C490.759 400.815 490.232 401.179 489.939 401.905L489.948 408.436H487.407V402.38C487.407 401.829 487.299 401.431 487.082 401.185C486.865 400.938 486.496 400.815 485.975 400.815C485.254 400.815 484.733 401.114 484.41 401.712V408.436H481.87V398.926H484.252Z" fill="#00494F"/>
<path d="M502.964 408.436C502.847 408.207 502.762 407.923 502.709 407.583C502.094 408.269 501.294 408.611 500.31 408.611C499.378 408.611 498.606 408.342 497.994 407.803C497.382 407.264 497.076 406.584 497.076 405.764C497.076 404.756 497.449 403.982 498.196 403.443C498.943 402.904 500.023 402.632 501.435 402.626H502.604V402.081C502.604 401.642 502.491 401.29 502.265 401.026C502.04 400.763 501.684 400.631 501.198 400.631C500.77 400.631 500.434 400.733 500.191 400.938C499.948 401.144 499.826 401.425 499.826 401.782H497.286C497.286 401.231 497.456 400.722 497.796 400.253C498.136 399.784 498.617 399.417 499.238 399.15C499.859 398.884 500.556 398.75 501.329 398.75C502.501 398.75 503.431 399.045 504.12 399.633C504.808 400.223 505.153 401.05 505.153 402.116V406.238C505.159 407.141 505.285 407.823 505.531 408.286V408.436H502.964ZM500.864 406.669C501.239 406.669 501.584 406.586 501.901 406.418C502.217 406.252 502.451 406.027 502.604 405.746V404.111H501.655C500.383 404.111 499.706 404.551 499.624 405.43L499.616 405.579C499.616 405.896 499.727 406.156 499.95 406.361C500.172 406.566 500.477 406.669 500.864 406.669Z" fill="#00494F"/>
<path d="M510.725 401.765L512.325 398.926H515.04L512.333 403.584L515.155 408.436H512.43L510.734 405.447L509.046 408.436H506.313L509.134 403.584L506.436 398.926H509.16L510.725 401.765Z" fill="#00494F"/>
<path d="M520.639 403.435C520.639 404.759 520.449 406.033 520.068 407.258C519.687 408.482 519.139 409.564 518.424 410.501C517.709 411.439 516.945 412.083 516.13 412.435L515.638 411.09C516.47 410.463 517.126 409.496 517.607 408.189C518.087 406.883 518.336 405.38 518.354 403.681V403.215C518.354 401.463 518.115 399.919 517.638 398.583C517.16 397.247 516.493 396.245 515.638 395.577L516.13 394.232C516.927 394.578 517.679 395.205 518.385 396.113C519.091 397.021 519.638 398.079 520.028 399.286C520.418 400.493 520.621 401.744 520.639 403.039V403.435Z" fill="#00494F"/>
<path d="M701.307 337.369H98.9354" stroke="#626469" stroke-miterlimit="10"/>
<path d="M690.073 365.062H691.229C691.812 365.058 692.274 364.906 692.616 364.609C692.956 364.312 693.127 363.883 693.127 363.32C693.127 362.778 692.985 362.358 692.701 362.059C692.417 361.759 691.984 361.609 691.401 361.609C690.89 361.609 690.471 361.757 690.143 362.051C689.815 362.345 689.651 362.729 689.651 363.203H687.752C687.752 362.62 687.907 362.089 688.217 361.609C688.527 361.13 688.959 360.757 689.514 360.488C690.069 360.22 690.69 360.086 691.377 360.086C692.513 360.086 693.405 360.371 694.053 360.941C694.701 361.512 695.026 362.305 695.026 363.32C695.026 363.831 694.863 364.312 694.537 364.762C694.212 365.212 693.791 365.552 693.276 365.781C693.901 365.995 694.376 366.331 694.701 366.789C695.027 367.247 695.19 367.794 695.19 368.43C695.19 369.45 694.839 370.263 694.139 370.867C693.438 371.472 692.518 371.773 691.377 371.773C690.284 371.773 689.388 371.481 688.69 370.898C687.992 370.315 687.643 369.539 687.643 368.57H689.541C689.541 369.07 689.709 369.477 690.045 369.789C690.381 370.102 690.833 370.258 691.401 370.258C691.989 370.258 692.452 370.102 692.791 369.789C693.13 369.477 693.299 369.023 693.299 368.43C693.299 367.831 693.122 367.37 692.768 367.047C692.413 366.724 691.888 366.562 691.19 366.562H690.073V365.062Z" fill="#00494F"/>
<path d="M697.479 365.977L698.096 360.242H704.205V361.883H699.674L699.362 364.602C699.888 364.3 700.481 364.148 701.143 364.148C702.226 364.148 703.069 364.495 703.67 365.188C704.272 365.88 704.573 366.812 704.573 367.984C704.573 369.141 704.239 370.062 703.573 370.746C702.906 371.431 701.992 371.773 700.83 371.773C699.788 371.773 698.925 371.478 698.241 370.887C697.555 370.296 697.184 369.516 697.127 368.547H698.963C699.036 369.099 699.234 369.522 699.557 369.816C699.88 370.11 700.302 370.258 700.823 370.258C701.406 370.258 701.86 370.05 702.186 369.633C702.511 369.216 702.674 368.648 702.674 367.93C702.674 367.237 702.494 366.688 702.135 366.285C701.776 365.882 701.281 365.68 700.651 365.68C700.307 365.68 700.015 365.726 699.776 365.816C699.536 365.907 699.276 366.086 698.994 366.352L697.479 365.977Z" fill="#00494F"/>
<path d="M713.479 366.828C713.479 368.464 713.173 369.696 712.561 370.527C711.949 371.358 711.018 371.773 709.768 371.773C708.538 371.773 707.613 371.368 706.991 370.559C706.368 369.749 706.049 368.55 706.034 366.961V364.992C706.034 363.356 706.339 362.13 706.951 361.312C707.563 360.495 708.497 360.086 709.752 360.086C710.997 360.086 711.925 360.484 712.537 361.281C713.149 362.078 713.463 363.271 713.479 364.859V366.828ZM711.58 364.703C711.58 363.636 711.434 362.853 711.143 362.355C710.851 361.858 710.388 361.609 709.752 361.609C709.132 361.609 708.677 361.845 708.385 362.316C708.093 362.788 707.94 363.523 707.924 364.523V367.102C707.924 368.164 708.073 368.956 708.369 369.477C708.666 369.997 709.132 370.258 709.768 370.258C710.377 370.258 710.827 370.017 711.119 369.535C711.411 369.054 711.565 368.3 711.58 367.273V364.703Z" fill="#00494F"/>
<path d="M574.159 371.617H566.511V370.312L570.3 366.18C570.847 365.57 571.236 365.062 571.468 364.652C571.699 364.243 571.815 363.833 571.815 363.422C571.815 362.88 571.663 362.442 571.358 362.109C571.054 361.776 570.643 361.609 570.128 361.609C569.513 361.609 569.036 361.797 568.698 362.172C568.359 362.547 568.19 363.06 568.19 363.711H566.292C566.292 363.019 566.449 362.395 566.764 361.84C567.079 361.285 567.53 360.854 568.116 360.547C568.702 360.239 569.378 360.086 570.143 360.086C571.247 360.086 572.118 360.363 572.757 360.918C573.394 361.473 573.714 362.239 573.714 363.219C573.714 363.786 573.554 364.382 573.233 365.004C572.913 365.626 572.388 366.333 571.659 367.125L568.878 370.102H574.159V371.617Z" fill="#00494F"/>
<path d="M582.768 363.242C582.768 363.8 582.625 364.296 582.339 364.73C582.052 365.165 581.661 365.508 581.167 365.758C581.761 366.034 582.218 366.411 582.538 366.891C582.858 367.37 583.018 367.911 583.018 368.516C583.018 369.516 582.679 370.309 582.003 370.895C581.325 371.48 580.425 371.773 579.3 371.773C578.169 371.773 577.264 371.479 576.585 370.891C575.905 370.302 575.565 369.511 575.565 368.516C575.565 367.906 575.726 367.359 576.05 366.875C576.372 366.391 576.825 366.019 577.409 365.758C576.919 365.508 576.533 365.165 576.249 364.73C575.965 364.296 575.823 363.8 575.823 363.242C575.823 362.273 576.136 361.505 576.761 360.938C577.386 360.37 578.229 360.086 579.292 360.086C580.359 360.086 581.206 360.37 581.831 360.938C582.456 361.505 582.768 362.273 582.768 363.242ZM581.12 368.422C581.12 367.859 580.952 367.405 580.616 367.059C580.28 366.712 579.836 366.539 579.284 366.539C578.732 366.539 578.29 366.711 577.96 367.055C577.629 367.398 577.464 367.854 577.464 368.422C577.464 368.979 577.626 369.425 577.952 369.758C578.277 370.091 578.726 370.258 579.3 370.258C579.872 370.258 580.319 370.097 580.639 369.773C580.96 369.45 581.12 369 581.12 368.422ZM580.878 363.312C580.878 362.817 580.734 362.41 580.448 362.09C580.161 361.77 579.776 361.609 579.292 361.609C578.807 361.609 578.425 361.762 578.143 362.066C577.862 362.371 577.721 362.786 577.721 363.312C577.721 363.833 577.863 364.247 578.147 364.555C578.431 364.862 578.815 365.016 579.3 365.016C579.784 365.016 580.168 364.862 580.452 364.555C580.736 364.247 580.878 363.833 580.878 363.312Z" fill="#00494F"/>
<path d="M592.112 366.828C592.112 368.464 591.806 369.696 591.194 370.527C590.582 371.358 589.651 371.773 588.401 371.773C587.172 371.773 586.246 371.368 585.624 370.559C585.001 369.749 584.682 368.55 584.667 366.961V364.992C584.667 363.356 584.972 362.13 585.585 361.312C586.197 360.495 587.13 360.086 588.386 360.086C589.63 360.086 590.558 360.484 591.171 361.281C591.783 362.078 592.096 363.271 592.112 364.859V366.828ZM590.214 364.703C590.214 363.636 590.068 362.853 589.776 362.355C589.484 361.858 589.021 361.609 588.386 361.609C587.765 361.609 587.31 361.845 587.018 362.316C586.726 362.788 586.573 363.523 586.557 364.523V367.102C586.557 368.164 586.706 368.956 587.003 369.477C587.3 369.997 587.765 370.258 588.401 370.258C589.011 370.258 589.461 370.017 589.753 369.535C590.044 369.054 590.198 368.3 590.214 367.273V364.703Z" fill="#00494F"/>
<path d="M452.937 371.617H445.289V370.312L449.078 366.18C449.625 365.57 450.014 365.062 450.246 364.652C450.478 364.243 450.594 363.833 450.594 363.422C450.594 362.88 450.441 362.442 450.136 362.109C449.832 361.776 449.422 361.609 448.906 361.609C448.291 361.609 447.815 361.797 447.476 362.172C447.138 362.547 446.969 363.06 446.969 363.711H445.07C445.07 363.019 445.228 362.395 445.543 361.84C445.858 361.285 446.308 360.854 446.894 360.547C447.48 360.239 448.156 360.086 448.922 360.086C450.026 360.086 450.897 360.363 451.535 360.918C452.173 361.473 452.492 362.239 452.492 363.219C452.492 363.786 452.332 364.382 452.011 365.004C451.691 365.626 451.166 366.333 450.437 367.125L447.656 370.102H452.937V371.617Z" fill="#00494F"/>
<path d="M459.523 371.617H457.633V362.479L454.844 363.43V361.836L459.281 360.203H459.523L459.523 371.617Z" fill="#00494F"/>
<path d="M470.89 366.828C470.89 368.464 470.584 369.696 469.972 370.527C469.36 371.358 468.429 371.773 467.179 371.773C465.95 371.773 465.024 371.368 464.402 370.559C463.78 369.749 463.461 368.55 463.445 366.961V364.992C463.445 363.356 463.751 362.13 464.363 361.312C464.975 360.495 465.908 360.086 467.164 360.086C468.408 360.086 469.337 360.484 469.949 361.281C470.561 362.078 470.875 363.271 470.89 364.859L470.89 366.828ZM468.992 364.703C468.992 363.636 468.846 362.853 468.554 362.355C468.262 361.858 467.799 361.609 467.164 361.609C466.544 361.609 466.088 361.845 465.797 362.316C465.505 362.788 465.351 363.523 465.336 364.523V367.102C465.336 368.164 465.484 368.956 465.781 369.477C466.078 369.997 466.544 370.258 467.179 370.258C467.789 370.258 468.239 370.017 468.531 369.535C468.823 369.054 468.976 368.3 468.992 367.273V364.703Z" fill="#00494F"/>
<path d="M329.208 371.617H327.317V362.479L324.528 363.43V361.836L328.966 360.203H329.208L329.208 371.617Z" fill="#00494F"/>
<path d="M339.583 367.562H340.997V369.086H339.583V371.617H337.684V369.086H332.77L332.716 367.93L337.622 360.242H339.583V367.562ZM334.708 367.562H337.684V362.812L337.544 363.062L334.708 367.562Z" fill="#00494F"/>
<path d="M349.669 366.828C349.669 368.464 349.363 369.696 348.751 370.527C348.138 371.358 347.208 371.773 345.958 371.773C344.728 371.773 343.802 371.368 343.18 370.559C342.558 369.749 342.239 368.55 342.223 366.961V364.992C342.223 363.356 342.529 362.13 343.141 361.312C343.753 360.495 344.687 360.086 345.942 360.086C347.187 360.086 348.115 360.484 348.727 361.281C349.339 362.078 349.653 363.271 349.669 364.859L349.669 366.828ZM347.77 364.703C347.77 363.636 347.624 362.853 347.333 362.355C347.041 361.858 346.577 361.609 345.942 361.609C345.322 361.609 344.866 361.845 344.575 362.316C344.283 362.788 344.13 363.523 344.114 364.523V367.102C344.114 368.164 344.262 368.956 344.559 369.477C344.856 369.997 345.322 370.258 345.958 370.258C346.567 370.258 347.017 370.017 347.309 369.535C347.601 369.054 347.755 368.3 347.77 367.273V364.703Z" fill="#00494F"/>
<path d="M214.962 361.297L210.415 371.617H208.423L212.962 361.766H207.079V360.242H214.962L214.962 361.297Z" fill="#00494F"/>
<path d="M223.899 366.828C223.899 368.463 223.593 369.696 222.981 370.527C222.37 371.357 221.438 371.773 220.188 371.773C218.959 371.773 218.034 371.368 217.411 370.559C216.788 369.748 216.47 368.549 216.454 366.961V364.992C216.454 363.356 216.76 362.13 217.372 361.312C217.984 360.494 218.917 360.086 220.173 360.086C221.417 360.086 222.346 360.484 222.958 361.281C223.57 362.078 223.884 363.271 223.899 364.859V366.828ZM222.001 364.703C222.001 363.635 221.855 362.853 221.563 362.355C221.272 361.857 220.808 361.609 220.173 361.609C219.553 361.609 219.097 361.845 218.806 362.316C218.514 362.787 218.36 363.523 218.345 364.523V367.102C218.345 368.164 218.493 368.955 218.79 369.477C219.087 369.997 219.553 370.258 220.188 370.258C220.798 370.258 221.248 370.017 221.54 369.535C221.831 369.053 221.985 368.299 222.001 367.273V364.703Z" fill="#00494F"/>
<path d="M102.169 366.828C102.169 368.464 101.863 369.696 101.251 370.527C100.64 371.358 99.7084 371.773 98.4584 371.773C97.2294 371.773 96.3036 371.368 95.681 370.559C95.0585 369.749 94.7396 368.55 94.724 366.961V364.992C94.724 363.356 95.0301 362.13 95.642 361.312C96.2538 360.495 97.1874 360.086 98.4427 360.086C99.6874 360.086 100.616 360.484 101.228 361.281C101.84 362.078 102.154 363.271 102.169 364.859L102.169 366.828ZM100.271 364.703C100.271 363.636 100.125 362.853 99.8334 362.355C99.5419 361.858 99.078 361.609 98.4427 361.609C97.8231 361.609 97.3671 361.845 97.0756 362.316C96.784 362.788 96.6302 363.523 96.6146 364.523V367.102C96.6146 368.164 96.7631 368.956 97.0599 369.477C97.3568 369.997 97.8231 370.258 98.4584 370.258C99.0677 370.258 99.5184 370.017 99.8099 369.535C100.101 369.054 100.255 368.3 100.271 367.273V364.703Z" fill="#00494F"/>
<path d="M215.918 336.965V350.874" stroke="#626469" stroke-miterlimit="10"/>
<path d="M337.141 336.887V350.796" stroke="#626469" stroke-miterlimit="10"/>
<path d="M458.411 336.99V350.899" stroke="#626469" stroke-miterlimit="10"/>
<path d="M579.585 337.039V350.948" stroke="#626469" stroke-miterlimit="10"/>
<path d="M700.808 336.988V350.897" stroke="#626469" stroke-miterlimit="10"/>
<path d="M99.4042 350.669V56.3359" stroke="#626469" stroke-miterlimit="10"/>
<path d="M85.6567 184.691H98.9425" stroke="#626469" stroke-miterlimit="10"/>
<path d="M85.6567 96.9668H98.9425" stroke="#626469" stroke-miterlimit="10"/>
<path d="M85.6567 272.822H98.9425" stroke="#626469" stroke-miterlimit="10"/>
<path d="M618.098 94.043H620.272C621.995 94.043 622.856 93.2002 622.856 91.5137C622.856 90.8574 622.651 90.3223 622.241 89.9072C621.831 89.4922 621.252 89.2852 620.505 89.2852C619.894 89.2852 619.363 89.4629 618.912 89.8184C618.461 90.1738 618.235 90.6162 618.235 91.1445H613.628C613.628 90.0967 613.919 89.1621 614.503 88.3418C615.086 87.5215 615.895 86.8809 616.93 86.4209C617.964 85.9609 619.101 85.7305 620.341 85.7305C622.555 85.7305 624.296 86.2363 625.563 87.2481C626.83 88.2598 627.464 89.6494 627.464 91.418C627.464 92.2744 627.201 93.084 626.678 93.8447C626.153 94.6055 625.39 95.2236 624.388 95.6973C625.445 96.0801 626.274 96.6611 626.876 97.4404C627.477 98.2197 627.778 99.1836 627.778 100.332C627.778 102.109 627.095 103.531 625.727 104.598C624.36 105.664 622.564 106.197 620.341 106.197C619.037 106.197 617.827 105.949 616.711 105.452C615.594 104.955 614.749 104.268 614.175 103.388C613.6 102.508 613.313 101.508 613.313 100.387H617.948C617.948 100.997 618.194 101.526 618.686 101.973C619.179 102.419 619.784 102.643 620.505 102.643C621.316 102.643 621.963 102.417 622.446 101.966C622.929 101.515 623.171 100.938 623.171 100.236C623.171 99.2334 622.92 98.5224 622.419 98.1035C621.917 97.6846 621.224 97.4746 620.341 97.4746H618.098V94.043Z" fill="#626469"/>
<path d="M643.925 97.791C643.925 100.479 643.321 102.554 642.113 104.012C640.905 105.47 639.203 106.199 637.007 106.199C634.792 106.199 633.078 105.466 631.866 103.998C630.654 102.53 630.048 100.462 630.048 97.791V94.1543C630.048 91.4658 630.651 89.3916 631.859 87.9336C633.067 86.4756 634.773 85.7461 636.979 85.7461C639.185 85.7461 640.894 86.4795 642.106 87.9473C643.318 89.415 643.925 91.4883 643.925 94.168V97.791ZM639.317 93.5664C639.317 92.1357 639.13 91.0664 638.757 90.3604C638.383 89.6543 637.79 89.3008 636.979 89.3008C636.186 89.3008 635.61 89.6289 635.25 90.2852C634.889 90.9414 634.696 91.9346 634.669 93.2656V98.3516C634.669 99.8369 634.855 100.924 635.229 101.612C635.603 102.301 636.195 102.645 637.007 102.645C637.79 102.645 638.369 102.31 638.743 101.64C639.117 100.97 639.308 99.919 639.317 98.4883V93.5664Z" fill="#626469"/>
<path d="M656.53 105.924H651.909V91.2129L647.37 92.5391V89.0391L656.106 86.0176H656.53V105.924Z" fill="#626469"/>
<path d="M665.458 101.453C666.187 101.453 666.793 101.67 667.276 102.103C667.759 102.535 668.001 103.089 668.001 103.764C668.001 104.438 667.759 104.992 667.276 105.425C666.793 105.857 666.187 106.074 665.458 106.074C664.72 106.074 664.111 105.855 663.633 105.418C663.154 104.98 662.915 104.429 662.915 103.764C662.915 103.099 663.154 102.547 663.633 102.109C664.111 101.672 664.72 101.453 665.458 101.453Z" fill="#626469"/>
<path d="M671.268 96.2002L672.485 86.0176H684.12V89.5996H676.231L675.78 93.5537C676.108 93.3613 676.539 93.1924 677.072 93.0459C677.605 92.8994 678.127 92.8262 678.638 92.8262C680.615 92.8262 682.135 93.4121 683.197 94.583C684.259 95.7539 684.79 97.3975 684.79 99.5117C684.79 100.788 684.505 101.943 683.935 102.978C683.366 104.012 682.566 104.808 681.536 105.363C680.506 105.919 679.289 106.197 677.886 106.197C676.637 106.197 675.466 105.939 674.372 105.426C673.278 104.911 672.421 104.205 671.802 103.308C671.181 102.411 670.876 101.397 670.886 100.269H675.507C675.552 100.996 675.785 101.574 676.204 102.001C676.623 102.429 677.175 102.643 677.858 102.643C679.408 102.643 680.182 101.496 680.182 99.2041C680.182 97.085 679.234 96.0254 677.339 96.0254C676.263 96.0254 675.461 96.3711 674.932 97.0625L671.268 96.2002Z" fill="#626469"/>
<path d="M612.951 118.686C612.951 117.655 613.089 116.667 613.365 115.719C613.64 114.77 614.052 113.909 614.598 113.135C615.145 112.36 615.713 111.813 616.301 111.494L616.56 112.328C615.895 112.839 615.349 113.618 614.923 114.666C614.497 115.714 614.263 116.888 614.222 118.187L614.216 118.768C614.216 120.526 614.537 122.054 615.18 123.348C615.567 124.122 616.027 124.729 616.56 125.166L616.301 125.938C615.695 125.602 615.116 125.036 614.564 124.243C613.489 122.693 612.951 120.841 612.951 118.686Z" fill="#626469"/>
<path d="M624.176 122.725H617.654V121.815L621.099 117.987C621.61 117.408 621.962 116.938 622.156 116.576C622.349 116.213 622.446 115.839 622.446 115.451C622.446 114.932 622.289 114.506 621.974 114.173C621.66 113.84 621.241 113.674 620.717 113.674C620.088 113.674 619.599 113.853 619.25 114.211C618.902 114.568 618.727 115.066 618.727 115.704H617.463C617.463 114.788 617.758 114.048 618.348 113.482C618.938 112.917 619.728 112.635 620.717 112.635C621.642 112.635 622.373 112.877 622.911 113.363C623.449 113.848 623.718 114.494 623.718 115.301C623.718 116.28 623.093 117.447 621.845 118.801L619.179 121.692H624.176V122.725Z" fill="#626469"/>
<path d="M631.552 115.369C631.552 115.866 631.421 116.308 631.159 116.695C630.896 117.083 630.542 117.386 630.096 117.604C630.615 117.828 631.026 118.153 631.329 118.582C631.633 119.011 631.784 119.496 631.784 120.038C631.784 120.899 631.493 121.585 630.912 122.096C630.331 122.606 629.567 122.861 628.619 122.861C627.662 122.861 626.895 122.605 626.319 122.092C625.742 121.58 625.454 120.895 625.454 120.038C625.454 119.5 625.601 119.015 625.895 118.582C626.189 118.149 626.596 117.821 627.115 117.598C626.673 117.379 626.325 117.076 626.069 116.688C625.814 116.301 625.686 115.861 625.686 115.369C625.686 114.53 625.955 113.865 626.493 113.373C627.031 112.881 627.74 112.635 628.619 112.635C629.494 112.635 630.201 112.881 630.742 113.373C631.282 113.865 631.552 114.53 631.552 115.369ZM630.519 120.011C630.519 119.455 630.343 119.001 629.99 118.65C629.637 118.3 629.175 118.124 628.605 118.124C628.035 118.124 627.579 118.297 627.235 118.644C626.89 118.99 626.719 119.445 626.719 120.011C626.719 120.576 626.886 121.021 627.221 121.344C627.556 121.667 628.022 121.829 628.619 121.829C629.211 121.829 629.676 121.666 630.013 121.34C630.351 121.015 630.519 120.571 630.519 120.011ZM628.619 113.674C628.122 113.674 627.72 113.828 627.412 114.135C627.105 114.443 626.951 114.861 626.951 115.39C626.951 115.896 627.102 116.305 627.406 116.617C627.709 116.929 628.113 117.085 628.619 117.085C629.125 117.085 629.529 116.929 629.832 116.617C630.136 116.305 630.287 115.896 630.287 115.39C630.287 114.884 630.13 114.472 629.815 114.152C629.501 113.833 629.102 113.674 628.619 113.674Z" fill="#626469"/>
<path d="M633.534 122.061C633.534 121.842 633.599 121.659 633.729 121.514C633.859 121.368 634.054 121.295 634.313 121.295C634.573 121.295 634.77 121.368 634.905 121.514C635.039 121.659 635.106 121.842 635.106 122.061C635.106 122.271 635.039 122.445 634.905 122.587C634.77 122.729 634.573 122.799 634.313 122.799C634.054 122.799 633.859 122.729 633.729 122.587C633.599 122.445 633.534 122.271 633.534 122.061Z" fill="#626469"/>
<path d="M643.097 115.369C643.097 115.866 642.967 116.308 642.704 116.695C642.442 117.083 642.088 117.386 641.641 117.604C642.161 117.828 642.572 118.153 642.875 118.582C643.179 119.011 643.33 119.496 643.33 120.038C643.33 120.899 643.039 121.585 642.458 122.096C641.877 122.606 641.113 122.861 640.165 122.861C639.208 122.861 638.441 122.605 637.865 122.092C637.288 121.58 637 120.895 637 120.038C637 119.5 637.147 119.015 637.441 118.582C637.735 118.149 638.141 117.821 638.661 117.598C638.219 117.379 637.87 117.076 637.615 116.688C637.36 116.301 637.232 115.861 637.232 115.369C637.232 114.53 637.501 113.865 638.039 113.373C638.576 112.881 639.285 112.635 640.165 112.635C641.04 112.635 641.747 112.881 642.287 113.373C642.827 113.865 643.097 114.53 643.097 115.369ZM642.065 120.011C642.065 119.455 641.888 119.001 641.535 118.65C641.182 118.3 640.721 118.124 640.151 118.124C639.581 118.124 639.125 118.297 638.781 118.644C638.436 118.99 638.264 119.445 638.264 120.011C638.264 120.576 638.432 121.021 638.767 121.344C639.102 121.667 639.568 121.829 640.165 121.829C640.757 121.829 641.222 121.666 641.559 121.34C641.897 121.015 642.065 120.571 642.065 120.011ZM640.165 113.674C639.668 113.674 639.266 113.828 638.958 114.135C638.651 114.443 638.497 114.861 638.497 115.39C638.497 115.896 638.648 116.305 638.951 116.617C639.255 116.929 639.659 117.085 640.165 117.085C640.671 117.085 641.075 116.929 641.378 116.617C641.681 116.305 641.833 115.896 641.833 115.39C641.833 114.884 641.676 114.472 641.361 114.152C641.047 113.833 640.648 113.674 640.165 113.674Z" fill="#626469"/>
<path d="M645.012 124.706L644.294 124.214C644.722 123.617 644.946 123.002 644.964 122.368V121.227H646.201V122.218C646.201 122.678 646.088 123.139 645.863 123.599C645.637 124.059 645.353 124.428 645.012 124.706Z" fill="#626469"/>
<path d="M655.293 122.724H654.021V114.295L651.471 115.231V114.083L655.095 112.723H655.293V122.724Z" fill="#626469"/>
<path d="M665.519 122.725H658.998V121.815L662.443 117.987C662.953 117.408 663.305 116.938 663.499 116.576C663.693 116.213 663.79 115.839 663.79 115.451C663.79 114.932 663.633 114.506 663.318 114.173C663.004 113.84 662.584 113.674 662.06 113.674C661.431 113.674 660.943 113.853 660.594 114.211C660.245 114.568 660.071 115.066 660.071 115.704H658.806C658.806 114.788 659.101 114.048 659.692 113.482C660.282 112.917 661.072 112.635 662.06 112.635C662.986 112.635 663.717 112.877 664.255 113.363C664.792 113.848 665.061 114.494 665.061 115.301C665.061 116.28 664.437 117.447 663.188 118.801L660.522 121.692H665.519V122.725Z" fill="#626469"/>
<path d="M673.285 113.482L669.163 122.725H667.837L671.945 113.811H666.558V112.771H673.285V113.482Z" fill="#626469"/>
<path d="M680.962 118.479C680.962 119.961 680.709 121.062 680.203 121.781C679.697 122.501 678.907 122.861 677.831 122.861C676.769 122.861 675.983 122.51 675.472 121.805C674.962 121.102 674.698 120.05 674.68 118.65V116.962C674.68 115.499 674.932 114.412 675.438 113.701C675.944 112.99 676.737 112.635 677.817 112.635C678.888 112.635 679.677 112.978 680.182 113.664C680.688 114.35 680.948 115.408 680.962 116.839V118.479ZM679.697 116.75C679.697 115.679 679.547 114.898 679.246 114.408C678.945 113.919 678.469 113.674 677.817 113.674C677.17 113.674 676.699 113.918 676.402 114.405C676.106 114.893 675.953 115.643 675.944 116.654V118.678C675.944 119.753 676.1 120.547 676.412 121.061C676.724 121.572 677.198 121.829 677.831 121.829C678.455 121.829 678.919 121.588 679.222 121.104C679.525 120.621 679.683 119.86 679.697 118.821V116.75Z" fill="#626469"/>
<path d="M685.631 118.754C685.631 119.77 685.497 120.744 685.231 121.677C684.964 122.608 684.556 123.469 684.007 124.257C683.458 125.045 682.883 125.605 682.281 125.938L682.014 125.166C682.716 124.628 683.28 123.793 683.706 122.661C684.133 121.528 684.35 120.271 684.359 118.891V118.672C684.359 117.715 684.259 116.825 684.058 116.003C683.858 115.18 683.579 114.442 683.221 113.791C682.863 113.14 682.461 112.631 682.014 112.267L682.281 111.494C682.883 111.827 683.456 112.383 684 113.162C684.545 113.941 684.953 114.801 685.224 115.739C685.495 116.678 685.631 117.683 685.631 118.754Z" fill="#626469"/>
<path d="M144.139 183.457H146.312C148.035 183.457 148.896 182.614 148.896 180.928C148.896 180.271 148.691 179.736 148.281 179.321C147.871 178.906 147.292 178.699 146.545 178.699C145.934 178.699 145.403 178.877 144.952 179.232C144.501 179.588 144.275 180.03 144.275 180.559H139.668C139.668 179.511 139.959 178.576 140.543 177.756C141.126 176.936 141.935 176.295 142.97 175.835C144.004 175.375 145.141 175.145 146.381 175.145C148.596 175.145 150.336 175.65 151.603 176.662C152.87 177.674 153.504 179.063 153.504 180.832C153.504 181.688 153.242 182.498 152.718 183.259C152.193 184.02 151.43 184.638 150.428 185.111C151.485 185.494 152.314 186.075 152.916 186.854C153.517 187.634 153.818 188.598 153.818 189.746C153.818 191.523 153.135 192.945 151.767 194.012C150.4 195.078 148.604 195.611 146.381 195.611C145.077 195.611 143.867 195.363 142.751 194.866C141.634 194.369 140.789 193.682 140.215 192.802C139.641 191.922 139.353 190.922 139.353 189.801H143.988C143.988 190.411 144.234 190.94 144.726 191.387C145.219 191.833 145.825 192.057 146.545 192.057C147.356 192.057 148.003 191.831 148.486 191.38C148.969 190.929 149.211 190.353 149.211 189.65C149.211 188.647 148.96 187.937 148.459 187.518C147.957 187.099 147.265 186.889 146.381 186.889H144.139L144.139 183.457Z" fill="#00494F"/>
<path d="M160.353 183.457H162.527C164.25 183.457 165.111 182.614 165.111 180.928C165.111 180.271 164.906 179.736 164.496 179.321C164.086 178.906 163.507 178.699 162.76 178.699C162.149 178.699 161.618 178.877 161.167 179.232C160.716 179.588 160.49 180.03 160.49 180.559H155.883C155.883 179.511 156.174 178.576 156.758 177.756C157.341 176.936 158.15 176.295 159.184 175.835C160.219 175.375 161.356 175.145 162.596 175.145C164.81 175.145 166.551 175.65 167.818 176.662C169.085 177.674 169.719 179.063 169.719 180.832C169.719 181.688 169.456 182.498 168.932 183.259C168.408 184.02 167.645 184.638 166.642 185.111C167.7 185.494 168.529 186.075 169.131 186.854C169.732 187.634 170.033 188.598 170.033 189.746C170.033 191.523 169.349 192.945 167.982 194.012C166.615 195.078 164.819 195.611 162.596 195.611C161.292 195.611 160.082 195.363 158.966 194.866C157.849 194.369 157.004 193.682 156.43 192.802C155.855 191.922 155.568 190.922 155.568 189.801H160.203C160.203 190.411 160.449 190.94 160.941 191.387C161.433 191.833 162.039 192.057 162.76 192.057C163.571 192.057 164.218 191.831 164.701 191.38C165.184 190.929 165.426 190.353 165.426 189.65C165.426 188.647 165.175 187.937 164.674 187.518C164.172 187.099 163.479 186.889 162.596 186.889H160.353L160.353 183.457Z" fill="#00494F"/>
<path d="M175.283 190.867C176.012 190.867 176.618 191.084 177.101 191.517C177.584 191.949 177.826 192.503 177.826 193.178C177.826 193.853 177.584 194.406 177.101 194.839C176.618 195.272 176.012 195.488 175.283 195.488C174.545 195.488 173.936 195.27 173.458 194.832C172.979 194.395 172.74 193.843 172.74 193.178C172.74 192.513 172.979 191.961 173.458 191.523C173.936 191.086 174.545 190.867 175.283 190.867Z" fill="#00494F"/>
<path d="M194.246 180.75C194.246 181.716 194.007 182.568 193.528 183.307C193.05 184.045 192.391 184.638 191.553 185.084C192.5 185.549 193.252 186.185 193.808 186.991C194.364 187.798 194.642 188.753 194.642 189.855C194.642 191.633 194.029 193.036 192.803 194.066C191.577 195.097 189.889 195.611 187.738 195.611C185.578 195.611 183.873 195.094 182.625 194.06C181.376 193.025 180.752 191.624 180.752 189.855C180.752 188.789 181.025 187.846 181.572 187.025C182.119 186.205 182.893 185.558 183.896 185.084C183.049 184.638 182.383 184.045 181.9 183.307C181.417 182.568 181.176 181.716 181.176 180.75C181.176 179.019 181.763 177.651 182.939 176.648C184.115 175.646 185.701 175.145 187.697 175.145C189.711 175.145 191.306 175.646 192.482 176.648C193.658 177.651 194.246 179.019 194.246 180.75ZM190.021 189.486C190.021 188.666 189.809 188.035 189.386 187.593C188.962 187.15 188.403 186.93 187.711 186.93C187.018 186.93 186.457 187.15 186.029 187.593C185.6 188.035 185.386 188.666 185.386 189.486C185.386 190.279 185.603 190.906 186.036 191.366C186.469 191.826 187.036 192.057 187.738 192.057C188.422 192.057 188.973 191.829 189.392 191.373C189.811 190.917 190.021 190.288 190.021 189.486ZM187.697 178.699C187.077 178.699 186.605 178.902 186.282 179.308C185.958 179.713 185.797 180.276 185.797 180.996C185.797 181.707 185.961 182.281 186.289 182.719C186.617 183.156 187.1 183.375 187.738 183.375C188.367 183.375 188.839 183.156 189.153 182.719C189.468 182.281 189.625 181.707 189.625 180.996C189.625 180.285 189.463 179.725 189.139 179.314C188.816 178.904 188.335 178.699 187.697 178.699Z" fill="#00494F"/>
<path d="M138.745 208.098C138.745 207.067 138.883 206.079 139.158 205.131C139.434 204.183 139.845 203.321 140.392 202.547C140.939 201.772 141.507 201.226 142.094 200.906L142.354 201.74C141.689 202.251 141.143 203.03 140.717 204.078C140.291 205.126 140.057 206.3 140.016 207.599L140.01 208.18C140.01 209.938 140.331 211.466 140.973 212.76C141.361 213.534 141.821 214.141 142.354 214.578L142.094 215.351C141.489 215.014 140.909 214.448 140.358 213.655C139.282 212.105 138.745 210.253 138.745 208.098Z" fill="#626469"/>
<path d="M149.969 212.139H143.448V211.229L146.893 207.401C147.404 206.822 147.756 206.352 147.949 205.99C148.143 205.627 148.24 205.253 148.24 204.865C148.24 204.346 148.083 203.92 147.768 203.587C147.454 203.254 147.034 203.088 146.511 203.088C145.882 203.088 145.393 203.267 145.044 203.625C144.696 203.982 144.521 204.48 144.521 205.118H143.257C143.257 204.202 143.552 203.462 144.142 202.896C144.732 202.331 145.522 202.049 146.51 202.049C147.436 202.049 148.167 202.291 148.705 202.777C149.242 203.262 149.511 203.908 149.511 204.715C149.511 205.694 148.887 206.861 147.638 208.215L144.972 211.106H149.969V212.139Z" fill="#626469"/>
<path d="M151.467 211.475C151.467 211.256 151.531 211.073 151.661 210.928C151.791 210.782 151.986 210.709 152.246 210.709C152.506 210.709 152.703 210.782 152.837 210.928C152.971 211.073 153.039 211.256 153.039 211.475C153.039 211.685 152.971 211.859 152.837 212.001C152.703 212.143 152.506 212.213 152.246 212.213C151.986 212.213 151.791 212.143 151.661 212.001C151.531 211.859 151.467 211.685 151.467 211.475Z" fill="#626469"/>
<path d="M155.575 207.146L156.081 202.184H161.18V203.353H157.154L156.853 206.066C157.341 205.779 157.895 205.636 158.514 205.636C159.421 205.636 160.141 205.936 160.675 206.535C161.208 207.134 161.474 207.944 161.474 208.965C161.474 209.99 161.198 210.798 160.644 211.389C160.09 211.979 159.317 212.273 158.323 212.273C157.444 212.273 156.726 212.029 156.17 211.542C155.614 211.055 155.297 210.38 155.219 209.519H156.416C156.493 210.088 156.696 210.518 157.024 210.807C157.352 211.097 157.785 211.241 158.323 211.241C158.911 211.241 159.372 211.041 159.707 210.64C160.042 210.238 160.21 209.685 160.21 208.979C160.21 208.313 160.029 207.779 159.666 207.375C159.304 206.973 158.822 206.771 158.22 206.771C157.669 206.771 157.236 206.892 156.922 207.133L156.587 207.406L155.575 207.146Z" fill="#626469"/>
<path d="M162.944 214.12L162.226 213.628C162.655 213.031 162.878 212.416 162.896 211.782V210.641H164.134V211.632C164.134 212.092 164.021 212.553 163.795 213.013C163.57 213.473 163.286 213.842 162.944 214.12Z" fill="#626469"/>
<path d="M173.225 212.138H171.954V203.709L169.404 204.646V203.497L173.027 202.137H173.225L173.225 212.138Z" fill="#626469"/>
<path d="M182.269 208.794H183.65V209.826H182.269V212.137H180.998V209.826H176.466V209.081L180.923 202.184H182.269V208.794ZM177.901 208.794H180.998V203.913L180.848 204.187L177.901 208.794Z" fill="#626469"/>
<path d="M188.948 212.138H187.677V203.709L185.127 204.646V203.497L188.75 202.137H188.948V212.138Z" fill="#626469"/>
<path d="M195.702 208.166C195.702 209.183 195.569 210.156 195.302 211.089C195.036 212.02 194.628 212.881 194.078 213.669C193.529 214.457 192.954 215.018 192.352 215.351L192.086 214.578C192.787 214.04 193.351 213.205 193.778 212.073C194.204 210.94 194.421 209.684 194.431 208.303V208.084C194.431 207.127 194.33 206.237 194.13 205.415C193.929 204.592 193.65 203.854 193.292 203.203C192.934 202.552 192.533 202.043 192.086 201.679L192.352 200.906C192.954 201.239 193.527 201.795 194.072 202.574C194.616 203.354 195.024 204.213 195.295 205.151C195.566 206.09 195.702 207.095 195.702 208.166Z" fill="#626469"/>
<path d="M135.274 266.434L127.836 283.879H122.969L130.42 267.527H120.932V263.973H135.274V266.434Z" fill="#00494F"/>
<path d="M140.578 279.408C141.307 279.408 141.913 279.625 142.397 280.058C142.88 280.49 143.121 281.044 143.121 281.719C143.121 282.394 142.88 282.947 142.397 283.38C141.913 283.813 141.307 284.029 140.578 284.029C139.84 284.029 139.232 283.811 138.753 283.373C138.275 282.936 138.036 282.384 138.036 281.719C138.036 281.054 138.275 280.502 138.753 280.064C139.232 279.627 139.84 279.408 140.578 279.408Z" fill="#00494F"/>
<path d="M159.541 269.291C159.541 270.257 159.302 271.109 158.824 271.848C158.345 272.586 157.686 273.179 156.848 273.625C157.796 274.09 158.548 274.726 159.104 275.532C159.659 276.339 159.938 277.294 159.938 278.396C159.938 280.174 159.324 281.577 158.099 282.607C156.873 283.638 155.184 284.152 153.033 284.152C150.873 284.152 149.169 283.635 147.92 282.601C146.671 281.566 146.047 280.165 146.047 278.396C146.047 277.33 146.321 276.387 146.867 275.566C147.414 274.746 148.189 274.099 149.192 273.625C148.344 273.179 147.678 272.586 147.196 271.848C146.712 271.109 146.471 270.257 146.471 269.291C146.471 267.56 147.059 266.192 148.235 265.189C149.41 264.187 150.996 263.686 152.992 263.686C155.007 263.686 156.602 264.187 157.778 265.189C158.953 266.192 159.541 267.56 159.541 269.291ZM155.317 278.027C155.317 277.207 155.105 276.576 154.681 276.134C154.257 275.691 153.698 275.471 153.006 275.471C152.313 275.471 151.753 275.691 151.324 276.134C150.896 276.576 150.682 277.207 150.682 278.027C150.682 278.82 150.898 279.447 151.331 279.907C151.764 280.367 152.331 280.598 153.033 280.598C153.717 280.598 154.268 280.37 154.688 279.914C155.107 279.458 155.317 278.829 155.317 278.027ZM152.992 267.24C152.372 267.24 151.901 267.443 151.577 267.849C151.254 268.254 151.092 268.817 151.092 269.537C151.092 270.248 151.256 270.822 151.584 271.26C151.912 271.697 152.395 271.916 153.033 271.916C153.662 271.916 154.134 271.697 154.449 271.26C154.763 270.822 154.92 270.248 154.92 269.537C154.92 268.826 154.758 268.266 154.435 267.855C154.111 267.445 153.63 267.24 152.992 267.24Z" fill="#00494F"/>
<path d="M172.543 283.879H167.922V269.168L163.383 270.494V266.994L172.12 263.973H172.543L172.543 283.879Z" fill="#00494F"/>
<path d="M118.413 296.639C118.413 295.608 118.551 294.62 118.827 293.672C119.102 292.724 119.514 291.862 120.06 291.088C120.607 290.313 121.175 289.767 121.763 289.447L122.022 290.281C121.357 290.792 120.811 291.571 120.385 292.619C119.959 293.667 119.725 294.841 119.684 296.14L119.678 296.721C119.678 298.479 119.999 300.007 120.641 301.301C121.029 302.075 121.489 302.682 122.022 303.119L121.763 303.892C121.157 303.555 120.578 302.989 120.026 302.196C118.951 300.646 118.413 298.794 118.413 296.639Z" fill="#626469"/>
<path d="M129.638 300.68H123.116V299.771L126.561 295.942C127.072 295.363 127.424 294.893 127.618 294.531C127.811 294.168 127.908 293.794 127.908 293.406C127.908 292.887 127.751 292.461 127.436 292.128C127.122 291.795 126.703 291.629 126.179 291.629C125.55 291.629 125.061 291.808 124.712 292.166C124.364 292.523 124.189 293.021 124.189 293.659H122.925C122.925 292.743 123.22 292.003 123.81 291.438C124.4 290.872 125.19 290.59 126.179 290.59C127.104 290.59 127.835 290.832 128.373 291.318C128.911 291.803 129.18 292.449 129.18 293.256C129.18 294.235 128.555 295.402 127.307 296.756L124.64 299.647H129.638L129.638 300.68Z" fill="#626469"/>
<path d="M131.135 300.016C131.135 299.797 131.199 299.614 131.329 299.469C131.459 299.323 131.654 299.25 131.914 299.25C132.174 299.25 132.371 299.323 132.505 299.469C132.639 299.614 132.707 299.797 132.707 300.016C132.707 300.226 132.639 300.4 132.505 300.542C132.371 300.684 132.174 300.754 131.914 300.754C131.654 300.754 131.459 300.684 131.329 300.542C131.199 300.4 131.135 300.226 131.135 300.016Z" fill="#626469"/>
<path d="M135.243 295.689L135.749 290.727H140.848V291.896H136.822L136.521 294.609C137.009 294.322 137.563 294.179 138.182 294.179C139.089 294.179 139.809 294.479 140.343 295.078C140.876 295.677 141.142 296.487 141.142 297.508C141.142 298.533 140.865 299.341 140.312 299.932C139.758 300.522 138.985 300.816 137.991 300.816C137.112 300.816 136.394 300.572 135.838 300.085C135.281 299.598 134.965 298.923 134.887 298.062H136.084C136.161 298.631 136.364 299.061 136.692 299.35C137.02 299.64 137.453 299.784 137.991 299.784C138.579 299.784 139.04 299.584 139.375 299.183C139.71 298.781 139.878 298.228 139.878 297.522C139.878 296.856 139.697 296.322 139.334 295.918C138.972 295.516 138.49 295.314 137.888 295.314C137.337 295.314 136.904 295.435 136.59 295.676L136.255 295.949L135.243 295.689Z" fill="#626469"/>
<path d="M142.612 302.661L141.894 302.169C142.323 301.572 142.546 300.957 142.564 300.323V299.182H143.802V300.173C143.802 300.633 143.689 301.094 143.463 301.554C143.238 302.014 142.954 302.383 142.612 302.661Z" fill="#626469"/>
<path d="M155.259 300.68H148.737V299.771L152.182 295.942C152.693 295.363 153.045 294.893 153.239 294.531C153.432 294.168 153.529 293.794 153.529 293.406C153.529 292.887 153.372 292.461 153.057 292.128C152.743 291.795 152.323 291.629 151.8 291.629C151.171 291.629 150.682 291.808 150.333 292.166C149.985 292.523 149.81 293.021 149.81 293.659H148.546C148.546 292.743 148.841 292.003 149.431 291.438C150.021 290.872 150.811 290.59 151.8 290.59C152.725 290.59 153.456 290.832 153.994 291.318C154.531 291.803 154.801 292.449 154.801 293.256C154.801 294.235 154.176 295.402 152.927 296.756L150.261 299.647H155.259V300.68Z" fill="#626469"/>
<path d="M161.445 296.305C161.181 296.619 160.865 296.872 160.498 297.063C160.132 297.255 159.729 297.351 159.292 297.351C158.718 297.351 158.218 297.209 157.791 296.927C157.365 296.645 157.036 296.246 156.804 295.734C156.571 295.221 156.455 294.655 156.455 294.035C156.455 293.37 156.581 292.771 156.834 292.237C157.087 291.704 157.446 291.296 157.911 291.014C158.376 290.731 158.918 290.59 159.538 290.59C160.522 290.59 161.298 290.958 161.866 291.693C162.433 292.43 162.717 293.434 162.717 294.705V295.074C162.717 297.011 162.334 298.425 161.568 299.316C160.803 300.207 159.647 300.664 158.102 300.687H157.856V299.613H158.123C159.166 299.595 159.969 299.323 160.529 298.798C161.09 298.272 161.395 297.441 161.445 296.305ZM159.497 296.305C159.921 296.305 160.311 296.175 160.669 295.915C161.027 295.655 161.288 295.334 161.452 294.951V294.445C161.452 293.616 161.272 292.941 160.912 292.422C160.552 291.902 160.096 291.643 159.545 291.643C158.989 291.643 158.542 291.855 158.205 292.281C157.868 292.708 157.699 293.27 157.699 293.967C157.699 294.646 157.862 295.205 158.188 295.645C158.514 296.085 158.95 296.305 159.497 296.305Z" fill="#626469"/>
<path d="M164.617 300.016C164.617 299.797 164.682 299.614 164.812 299.469C164.942 299.323 165.136 299.25 165.396 299.25C165.656 299.25 165.853 299.323 165.988 299.469C166.122 299.614 166.189 299.797 166.189 300.016C166.189 300.226 166.122 300.4 165.988 300.542C165.853 300.684 165.656 300.754 165.396 300.754C165.136 300.754 164.942 300.684 164.812 300.542C164.682 300.4 164.617 300.226 164.617 300.016Z" fill="#626469"/>
<path d="M168.725 295.689L169.231 290.727H174.331V291.896H170.304L170.004 294.609C170.491 294.322 171.045 294.179 171.665 294.179C172.572 294.179 173.292 294.479 173.825 295.078C174.358 295.677 174.625 296.487 174.625 297.508C174.625 298.533 174.348 299.341 173.794 299.932C173.24 300.522 172.467 300.816 171.473 300.816C170.594 300.816 169.876 300.572 169.32 300.085C168.764 299.598 168.448 298.923 168.37 298.062H169.566C169.644 298.631 169.846 299.061 170.175 299.35C170.503 299.64 170.936 299.784 171.473 299.784C172.061 299.784 172.523 299.584 172.858 299.183C173.193 298.781 173.36 298.228 173.36 297.522C173.36 296.856 173.179 296.322 172.817 295.918C172.454 295.516 171.972 295.314 171.371 295.314C170.82 295.314 170.386 295.435 170.072 295.676L169.737 295.949L168.725 295.689Z" fill="#626469"/>
<path d="M179.055 296.707C179.055 297.724 178.921 298.697 178.655 299.63C178.388 300.562 177.98 301.422 177.431 302.21C176.882 302.998 176.307 303.559 175.705 303.892L175.438 303.119C176.14 302.581 176.704 301.746 177.13 300.614C177.557 299.481 177.774 298.225 177.783 296.844V296.625C177.783 295.668 177.683 294.778 177.482 293.956C177.282 293.133 177.003 292.396 176.645 291.744C176.287 291.093 175.885 290.584 175.438 290.22L175.705 289.447C176.307 289.78 176.88 290.336 177.424 291.115C177.969 291.895 178.377 292.754 178.648 293.692C178.919 294.631 179.055 295.636 179.055 296.707Z" fill="#626469"/>
<path d="M20.7675 175.949V177.52H20.5331C19.4706 177.535 18.6215 177.827 17.9862 178.395C17.3509 178.962 16.973 179.767 16.8534 180.809C17.4628 180.168 18.2416 179.848 19.1893 179.848C20.1947 179.848 20.9877 180.202 21.5682 180.91C22.1488 181.618 22.4393 182.532 22.4393 183.652C22.4393 184.809 22.0995 185.745 21.4198 186.461C20.7401 187.177 19.848 187.535 18.744 187.535C17.6088 187.535 16.6879 187.116 15.9823 186.277C15.2767 185.438 14.9237 184.34 14.9237 182.98V182.332C14.9237 180.337 15.4095 178.774 16.3807 177.645C17.3519 176.515 18.7494 175.949 20.5721 175.949H20.7675ZM18.7284 181.379C18.3119 181.379 17.9301 181.496 17.5839 181.73C17.2377 181.965 16.9838 182.277 16.8221 182.668V183.246C16.8221 184.09 16.9994 184.761 17.3534 185.258C17.7074 185.755 18.1659 186.004 18.7284 186.004C19.2909 186.004 19.7362 185.793 20.0643 185.371C20.3925 184.949 20.5565 184.395 20.5565 183.707C20.5565 183.02 20.39 182.46 20.0565 182.027C19.723 181.595 19.2806 181.379 18.7284 181.379Z" fill="#00494F"/>
<path d="M29.8456 178.926L29.9003 179.809C30.494 179.116 31.3065 178.77 32.3378 178.77C33.4681 178.77 34.2416 179.202 34.6581 180.066C35.2728 179.202 36.1371 178.77 37.2518 178.77C38.184 178.77 38.8783 179.027 39.3339 179.543C39.7894 180.059 40.0228 180.819 40.0331 181.824V187.379H38.1346V181.879C38.1346 181.343 38.0175 180.949 37.7831 180.699C37.5487 180.449 37.1605 180.324 36.619 180.324C36.1869 180.324 35.8339 180.44 35.5604 180.672C35.287 180.903 35.0956 181.207 34.9862 181.582L34.994 187.379H33.0956V181.816C33.0697 180.821 32.5619 180.324 31.5721 180.324C30.8119 180.324 30.2728 180.634 29.955 181.254V187.379H28.0565V178.926L29.8456 178.926Z" fill="#00494F"/>
<path d="M41.6267 183.074C41.6267 182.246 41.7908 181.5 42.1189 180.836C42.447 180.172 42.908 179.661 43.5017 179.305C44.0955 178.948 44.7776 178.77 45.5486 178.77C46.6892 178.77 47.615 179.137 48.3259 179.871C49.0369 180.605 49.4211 181.579 49.4783 182.793L49.4861 183.238C49.4861 184.071 49.3259 184.816 49.0056 185.473C48.6853 186.129 48.2268 186.637 47.6306 186.996C47.0344 187.355 46.3455 187.535 45.5642 187.535C44.3713 187.535 43.4172 187.138 42.7009 186.344C41.9846 185.55 41.6267 184.491 41.6267 183.168L41.6267 183.074ZM43.5252 183.238C43.5252 184.108 43.7049 184.789 44.0642 185.281C44.4236 185.773 44.9236 186.02 45.5642 186.02C46.2048 186.02 46.7034 185.77 47.0603 185.27C47.4172 184.77 47.5955 184.038 47.5955 183.074C47.5955 182.22 47.4119 181.543 47.0447 181.043C46.6775 180.543 46.179 180.293 45.5486 180.293C44.929 180.293 44.4368 180.539 44.072 181.031C43.7073 181.523 43.5252 182.259 43.5252 183.238Z" fill="#00494F"/>
<path d="M52.8533 178.926L52.908 179.902C53.533 179.147 54.3533 178.77 55.3689 178.77C57.1292 178.77 58.0252 179.777 58.0564 181.793V187.379H56.158V181.902C56.158 181.366 56.0423 180.969 55.8103 180.711C55.5784 180.453 55.1995 180.324 54.6736 180.324C53.908 180.324 53.3377 180.671 52.9627 181.363V187.379H51.0642V178.926H52.8533Z" fill="#00494F"/>
<path d="M62.369 176.871V178.926H63.8612V180.332H62.369V185.051C62.369 185.374 62.433 185.606 62.5604 185.75C62.6879 185.894 62.9159 185.965 63.244 185.965C63.4628 185.965 63.684 185.938 63.9081 185.887V187.355C63.4759 187.476 63.059 187.535 62.6581 187.535C61.1996 187.535 60.4706 186.73 60.4706 185.121V180.332H59.08V178.926H60.4706V176.871L62.369 176.871Z" fill="#00494F"/>
<path d="M67.1815 179.848C67.8012 179.129 68.5853 178.77 69.5331 178.77C71.3353 178.77 72.2494 179.798 72.2753 181.855V187.379H70.3768V181.926C70.3768 181.343 70.2504 180.93 69.9979 180.688C69.7455 180.445 69.3744 180.324 68.8846 180.324C68.1244 180.324 67.5565 180.663 67.1815 181.34V187.379H65.2831V175.379H67.1815V179.848Z" fill="#00494F"/>
<path d="M78.9315 185.082C78.9315 184.743 78.7923 184.485 78.5135 184.309C78.2347 184.132 77.7728 183.976 77.1268 183.84C76.4808 183.704 75.9418 183.532 75.5096 183.324C74.5619 182.866 74.0877 182.202 74.0877 181.332C74.0877 180.603 74.3949 179.993 75.0096 179.504C75.6244 179.015 76.4056 178.77 77.3534 178.77C78.3636 178.77 79.18 179.02 79.8026 179.52C80.4251 180.02 80.7362 180.668 80.7362 181.465H78.8377C78.8377 181.101 78.7025 180.797 78.4315 180.555C78.1605 180.312 77.8011 180.191 77.3534 180.191C76.9369 180.191 76.597 180.288 76.3338 180.48C76.0707 180.673 75.9393 180.931 75.9393 181.254C75.9393 181.546 76.0619 181.772 76.3065 181.934C76.5511 182.095 77.0462 182.258 77.7909 182.422C78.5355 182.586 79.1205 182.781 79.5448 183.008C79.9691 183.234 80.2845 183.507 80.4901 183.824C80.6957 184.142 80.7987 184.527 80.7987 184.98C80.7987 185.741 80.4837 186.356 79.8534 186.828C79.223 187.3 78.3978 187.535 77.3768 187.535C76.684 187.535 76.0668 187.41 75.5253 187.16C74.9838 186.91 74.5619 186.566 74.2596 186.129C73.9574 185.691 73.8065 185.22 73.8065 184.715H75.6503C75.6761 185.163 75.8456 185.508 76.1581 185.75C76.4706 185.992 76.8846 186.113 77.4003 186.113C77.9003 186.113 78.2806 186.019 78.5409 185.828C78.8011 185.638 78.9315 185.39 78.9315 185.082Z" fill="#00494F"/>
<path d="M48.3612 198.127L48.4081 199.189C49.0541 198.377 49.8978 197.971 50.9393 197.971C52.726 197.971 53.6268 198.979 53.6424 200.994V206.58H52.1971V200.986C52.1918 200.377 52.0526 199.927 51.7792 199.635C51.5057 199.343 51.08 199.197 50.5018 199.197C50.0331 199.197 49.6215 199.322 49.2674 199.572C48.9134 199.822 48.6371 200.15 48.4393 200.557V206.58H46.994V198.127L48.3612 198.127Z" fill="#626469"/>
<path d="M62.4315 200.221H55.9159V198.963H62.4315V200.221ZM62.4315 203.463H55.9159V202.213H62.4315V203.463Z" fill="#626469"/>
<path d="M69.2049 206.58H67.7518V196.947L64.8378 198.018V196.705L68.9784 195.15H69.2049V206.58Z" fill="#626469"/>
<path d="M78.1893 206.58H76.7362V196.947L73.8221 198.018V196.705L77.9628 195.15H78.1893V206.58Z" fill="#626469"/>
<path d="M21.3845 99.7188V88.3438H25.283C26.5696 88.3438 27.5486 88.6016 28.2205 89.1172C28.8924 89.6328 29.2283 90.4014 29.2283 91.4219C29.2283 91.9424 29.0877 92.4111 28.8064 92.8281C28.5251 93.2451 28.1135 93.5674 27.572 93.7969C28.1868 93.9639 28.6619 94.2773 28.9978 94.7383C29.3337 95.1992 29.5017 95.7529 29.5017 96.3984C29.5017 97.4658 29.1594 98.2861 28.4744 98.8594C27.7893 99.4326 26.8088 99.7188 25.533 99.7188L21.3845 99.7188ZM23.3611 93.1328H25.2986C25.9133 93.1328 26.3938 92.9932 26.74 92.7148C27.0862 92.4365 27.2595 92.042 27.2595 91.5312C27.2595 90.9688 27.0994 90.5625 26.7791 90.3125C26.4588 90.0625 25.9602 89.9375 25.283 89.9375H23.3611V93.1328ZM23.3611 94.5859V98.1406H25.5564C26.176 98.1406 26.6604 97.9873 27.0095 97.6797C27.3586 97.3721 27.533 96.9453 27.533 96.3984C27.533 95.2158 26.929 94.6123 25.7205 94.5859H23.3611Z" fill="#00494F"/>
<path d="M36.3456 99.7168C36.2621 99.5557 36.1893 99.292 36.1268 98.9277C35.5228 99.5576 34.7831 99.8731 33.9081 99.8731C33.059 99.8731 32.3666 99.6309 31.83 99.1465C31.2933 98.6621 31.0253 98.0635 31.0253 97.3496C31.0253 96.4482 31.3597 95.7568 32.0292 95.2754C32.6986 94.7939 33.6556 94.5527 34.9003 94.5527H36.0643V93.998C36.0643 93.5605 35.9418 93.2099 35.6971 92.9473C35.4525 92.6846 35.0799 92.5527 34.5799 92.5527C34.1478 92.5527 33.7933 92.6611 33.5174 92.877C33.2416 93.0928 33.1034 93.3682 33.1034 93.7012H31.2049C31.2049 93.2373 31.3588 92.8037 31.6659 92.4004C31.973 91.9971 32.391 91.6807 32.9198 91.4512C33.4486 91.2217 34.0384 91.1074 34.6893 91.1074C35.6791 91.1074 36.4681 91.3564 37.0565 91.8535C37.6449 92.3506 37.9471 93.0498 37.9628 93.9512V97.7637C37.9628 98.5244 38.0697 99.1309 38.2831 99.584V99.7168L36.3456 99.7168ZM34.2596 98.3496C34.6346 98.3496 34.9877 98.2588 35.3182 98.0762C35.6488 97.8936 35.8978 97.6494 36.0643 97.3418V95.748H35.0409C34.3378 95.748 33.8089 95.8701 33.4549 96.1152C33.1009 96.3604 32.9237 96.706 32.9237 97.1543C32.9237 97.5185 33.0448 97.8096 33.287 98.0254C33.5292 98.2412 33.8534 98.3496 34.2596 98.3496Z" fill="#00494F"/>
<path d="M44.6893 97.4219C44.6893 97.083 44.5501 96.8252 44.2713 96.6484C43.9925 96.4717 43.5306 96.3154 42.8846 96.1797C42.2386 96.0439 41.6996 95.8721 41.2674 95.6641C40.3197 95.2061 39.8456 94.542 39.8456 93.6719C39.8456 92.9424 40.1527 92.333 40.7674 91.8438C41.3822 91.3545 42.1634 91.1094 43.1112 91.1094C44.1214 91.1094 44.9378 91.3594 45.5604 91.8594C46.183 92.3594 46.494 93.0078 46.494 93.8047H44.5956C44.5956 93.4404 44.4603 93.1367 44.1893 92.8945C43.9183 92.6523 43.5589 92.5312 43.1112 92.5312C42.6947 92.5312 42.3548 92.6279 42.0917 92.8203C41.8285 93.0127 41.6971 93.2705 41.6971 93.5938C41.6971 93.8857 41.8197 94.1123 42.0643 94.2734C42.3089 94.4346 42.8041 94.5977 43.5487 94.7617C44.2933 94.9258 44.8783 95.1211 45.3026 95.3477C45.7269 95.5742 46.0423 95.8467 46.2479 96.1641C46.4535 96.4815 46.5565 96.8672 46.5565 97.3203C46.5565 98.0811 46.2416 98.6963 45.6112 99.168C44.9808 99.6397 44.1556 99.875 43.1346 99.875C42.4418 99.875 41.8246 99.75 41.2831 99.5C40.7416 99.25 40.3197 98.9063 40.0175 98.4688C39.7152 98.0313 39.5643 97.5596 39.5643 97.0547H41.4081C41.434 97.5029 41.6034 97.8477 41.9159 98.0899C42.2284 98.332 42.6425 98.4531 43.1581 98.4531C43.6581 98.4531 44.0385 98.3584 44.2987 98.168C44.559 97.9775 44.6893 97.7295 44.6893 97.4219Z" fill="#00494F"/>
<path d="M51.9315 99.8731C50.7284 99.8731 49.7533 99.4941 49.0057 98.7363C48.2582 97.9785 47.8846 96.9697 47.8846 95.709V95.4746C47.8846 94.6309 48.0472 93.877 48.3729 93.2129C48.6986 92.5488 49.1556 92.0322 49.744 91.6621C50.3324 91.292 50.9886 91.1074 51.7128 91.1074C52.8636 91.1074 53.7533 91.4746 54.3807 92.209C55.0082 92.9434 55.3221 93.9824 55.3221 95.3262V96.0918H49.7987C49.8558 96.79 50.0892 97.3418 50.4979 97.748C50.9066 98.1543 51.4213 98.3574 52.0409 98.3574C52.9105 98.3574 53.619 98.0059 54.1659 97.3027L55.1893 98.2793C54.851 98.7842 54.3988 99.1768 53.8339 99.4551C53.2689 99.7334 52.6346 99.8731 51.9315 99.8731ZM51.705 92.6309C51.184 92.6309 50.7635 92.8135 50.4432 93.1777C50.1229 93.542 49.9183 94.0498 49.83 94.7012H53.4471V94.5606C53.4056 93.9248 53.2362 93.4443 52.9393 93.1191C52.6425 92.7939 52.2308 92.6309 51.705 92.6309Z" fill="#00494F"/>
<path d="M58.8143 99.7188H56.9159V87.7188H58.8143V99.7188Z" fill="#00494F"/>
<path d="M60.8846 89.0703C60.8846 88.7783 60.9769 88.5361 61.162 88.3438C61.347 88.1514 61.6112 88.0547 61.955 88.0547C62.2987 88.0547 62.5643 88.1514 62.7518 88.3438C62.9393 88.5361 63.0331 88.7783 63.0331 89.0703C63.0331 89.3564 62.9393 89.5947 62.7518 89.7851C62.5643 89.9756 62.2987 90.0703 61.955 90.0703C61.6112 90.0703 61.347 89.9756 61.162 89.7851C60.9769 89.5947 60.8846 89.3564 60.8846 89.0703ZM62.9003 99.7188H61.0018V91.2656H62.9003V99.7188Z" fill="#00494F"/>
<path d="M66.7283 91.2656L66.783 92.2422C67.408 91.4873 68.2283 91.1094 69.2439 91.1094C71.0042 91.1094 71.9002 92.1172 71.9314 94.1328V99.7188H70.033V94.2422C70.033 93.7061 69.9173 93.3086 69.6853 93.0508C69.4534 92.793 69.0745 92.6641 68.5486 92.6641C67.783 92.6641 67.2126 93.0107 66.8376 93.7031V99.7188H64.9392V91.2656H66.7283Z" fill="#00494F"/>
<path d="M77.5878 99.8731C76.3846 99.8731 75.4095 99.4941 74.662 98.7363C73.9144 97.9785 73.5409 96.9697 73.5409 95.709V95.4746C73.5409 94.6309 73.7035 93.877 74.0292 93.2129C74.3549 92.5488 74.8119 92.0322 75.4003 91.6621C75.9886 91.292 76.6449 91.1074 77.369 91.1074C78.5199 91.1074 79.4095 91.4746 80.037 92.209C80.6644 92.9434 80.9784 93.9824 80.9784 95.3262V96.0918H75.455C75.5121 96.79 75.7455 97.3418 76.1542 97.748C76.5629 98.1543 77.0775 98.3574 77.6971 98.3574C78.5668 98.3574 79.2753 98.0059 79.8221 97.3027L80.8456 98.2793C80.5072 98.7842 80.0551 99.1768 79.4901 99.4551C78.9252 99.7334 78.2909 99.8731 77.5878 99.8731ZM77.3612 92.6309C76.8402 92.6309 76.4198 92.8135 76.0995 93.1777C75.7792 93.542 75.5746 94.0498 75.4862 94.7012H79.1034V94.5606C79.0619 93.9248 78.8925 93.4443 78.5956 93.1191C78.2987 92.7939 77.8871 92.6309 77.3612 92.6309Z" fill="#00494F"/>
<path d="M48.3612 110.465L48.4081 111.527C49.0541 110.715 49.8978 110.309 50.9393 110.309C52.726 110.309 53.6268 111.316 53.6424 113.332V118.918H52.1971V113.324C52.1918 112.715 52.0526 112.265 51.7792 111.973C51.5057 111.681 51.08 111.535 50.5018 111.535C50.0331 111.535 49.6215 111.66 49.2674 111.91C48.9134 112.16 48.6371 112.488 48.4393 112.895V118.918H46.994V110.465L48.3612 110.465Z" fill="#626469"/>
<path d="M62.4315 112.559H55.9159V111.301H62.4315V112.559ZM62.4315 115.801H55.9159V114.551H62.4315V115.801Z" fill="#626469"/>
<path d="M69.2049 118.918H67.7518V109.285L64.8378 110.355V109.043L68.9784 107.488H69.2049V118.918Z" fill="#626469"/>
<path d="M80.8925 118.918H73.4393V117.879L77.3768 113.504C77.9603 112.843 78.3627 112.305 78.5839 111.891C78.8051 111.477 78.9159 111.048 78.9159 110.605C78.9159 110.012 78.7362 109.524 78.3768 109.145C78.0175 108.765 77.5385 108.574 76.9393 108.574C76.2206 108.574 75.662 108.778 75.2635 109.188C74.8651 109.597 74.6659 110.165 74.6659 110.895H73.2206C73.2206 109.848 73.558 109.001 74.2323 108.355C74.9066 107.71 75.809 107.387 76.9393 107.387C77.9965 107.387 78.8324 107.664 79.4471 108.219C80.0619 108.773 80.369 109.512 80.369 110.434C80.369 111.554 79.6556 112.887 78.2284 114.434L75.1815 117.738H80.8925L80.8925 118.918Z" fill="#626469"/>
<path d="M37.9081 265.176L33.3612 275.496H31.369L35.9081 265.645H30.0253V264.121H37.9081L37.9081 265.176Z" fill="#00494F"/>
<path d="M46.494 272.777L48.2128 267.043H50.2362L46.8768 276.777C46.3612 278.199 45.4862 278.91 44.2518 278.91C43.9759 278.91 43.6713 278.863 43.3378 278.769V277.293L43.6971 277.316C44.1761 277.316 44.537 277.229 44.7792 277.055C45.0214 276.881 45.2128 276.588 45.3534 276.177L45.6268 275.451L42.6581 267.043H44.705L46.494 272.777Z" fill="#00494F"/>
<path d="M55.0487 275.652C53.8456 275.652 52.8705 275.273 52.1229 274.516C51.3754 273.758 51.0018 272.749 51.0018 271.488V271.254C51.0018 270.41 51.1644 269.656 51.4901 268.992C51.8158 268.328 52.2728 267.812 52.8612 267.441C53.4496 267.071 54.1058 266.887 54.8299 266.887C55.9808 266.887 56.8705 267.254 57.4979 267.988C58.1254 268.723 58.4393 269.762 58.4393 271.105V271.871H52.9159C52.973 272.569 53.2064 273.121 53.6151 273.527C54.0238 273.934 54.5385 274.137 55.1581 274.137C56.0277 274.137 56.7362 273.785 57.2831 273.082L58.3065 274.059C57.9681 274.563 57.516 274.956 56.951 275.234C56.3861 275.513 55.7518 275.652 55.0487 275.652ZM54.8221 268.41C54.3011 268.41 53.8807 268.593 53.5604 268.957C53.2401 269.321 53.0355 269.829 52.9471 270.48H56.5643V270.34C56.5228 269.704 56.3534 269.224 56.0565 268.898C55.7596 268.573 55.348 268.41 54.8221 268.41Z" fill="#00494F"/>
<path d="M64.9628 275.496C64.8793 275.335 64.8065 275.071 64.744 274.707C64.14 275.337 63.4003 275.652 62.5253 275.652C61.6761 275.652 60.9838 275.41 60.4471 274.926C59.9105 274.441 59.6425 273.843 59.6425 273.129C59.6425 272.228 59.9769 271.536 60.6464 271.055C61.3158 270.573 62.2728 270.332 63.5175 270.332H64.6815V269.777C64.6815 269.34 64.559 268.989 64.3143 268.727C64.0697 268.464 63.6971 268.332 63.1971 268.332C62.765 268.332 62.4105 268.44 62.1346 268.656C61.8588 268.872 61.7206 269.147 61.7206 269.48H59.8221C59.8221 269.017 59.9759 268.583 60.2831 268.18C60.5902 267.776 61.0082 267.46 61.537 267.23C62.0658 267.001 62.6556 266.887 63.3065 266.887C64.2963 266.887 65.0853 267.136 65.6737 267.633C66.2621 268.13 66.5643 268.829 66.58 269.73V273.543C66.58 274.304 66.6869 274.91 66.9003 275.363V275.496H64.9628ZM62.8768 274.129C63.2518 274.129 63.6049 274.038 63.9354 273.855C64.266 273.673 64.515 273.429 64.6815 273.121V271.527H63.6581C62.9549 271.527 62.4261 271.649 62.0721 271.895C61.7181 272.14 61.5409 272.485 61.5409 272.934C61.5409 273.298 61.662 273.589 61.9042 273.805C62.1463 274.02 62.4706 274.129 62.8768 274.129Z" fill="#00494F"/>
<path d="M72.994 268.777C72.744 268.735 72.4862 268.715 72.2206 268.715C71.351 268.715 70.765 269.048 70.4628 269.715V275.496H68.5643V267.043H70.3768L70.4237 267.988C70.8822 267.254 71.5175 266.887 72.33 266.887C72.601 266.887 72.8246 266.923 73.0018 266.996L72.994 268.777Z" fill="#00494F"/>
<path d="M78.9315 273.199C78.9315 272.86 78.7923 272.603 78.5135 272.426C78.2347 272.249 77.7728 272.093 77.1268 271.957C76.4808 271.821 75.9418 271.649 75.5096 271.441C74.5619 270.983 74.0877 270.319 74.0877 269.449C74.0877 268.72 74.3949 268.11 75.0096 267.621C75.6244 267.132 76.4056 266.887 77.3534 266.887C78.3636 266.887 79.18 267.137 79.8026 267.637C80.4251 268.137 80.7362 268.785 80.7362 269.582H78.8377C78.8377 269.218 78.7025 268.914 78.4315 268.672C78.1605 268.43 77.8011 268.309 77.3534 268.309C76.9369 268.309 76.597 268.405 76.3338 268.598C76.0707 268.79 75.9393 269.048 75.9393 269.371C75.9393 269.663 76.0619 269.89 76.3065 270.051C76.5511 270.212 77.0462 270.375 77.7909 270.539C78.5355 270.703 79.1205 270.898 79.5448 271.125C79.9691 271.352 80.2845 271.624 80.4901 271.941C80.6957 272.259 80.7987 272.645 80.7987 273.098C80.7987 273.858 80.4837 274.474 79.8534 274.945C79.223 275.417 78.3978 275.652 77.3768 275.652C76.684 275.652 76.0668 275.527 75.5253 275.277C74.9838 275.027 74.5619 274.684 74.2596 274.246C73.9574 273.809 73.8065 273.337 73.8065 272.832H75.6503C75.6761 273.28 75.8456 273.625 76.1581 273.867C76.4706 274.109 76.8846 274.23 77.4003 274.23C77.9003 274.23 78.2806 274.136 78.5409 273.945C78.8011 273.755 78.9315 273.507 78.9315 273.199Z" fill="#00494F"/>
<path d="M48.3612 286.242L48.4081 287.305C49.0541 286.492 49.8978 286.086 50.9393 286.086C52.726 286.086 53.6268 287.094 53.6424 289.109V294.695H52.1971V289.102C52.1918 288.492 52.0526 288.042 51.7792 287.75C51.5057 287.458 51.08 287.312 50.5018 287.312C50.0331 287.312 49.6215 287.438 49.2674 287.688C48.9134 287.938 48.6371 288.266 48.4393 288.672V294.695H46.994V286.242L48.3612 286.242Z" fill="#626469"/>
<path d="M62.4315 288.336H55.9159V287.078H62.4315V288.336ZM62.4315 291.578H55.9159V290.328H62.4315V291.578Z" fill="#626469"/>
<path d="M69.2049 294.695H67.7518V285.062L64.8378 286.133V284.82L68.9784 283.266H69.2049V294.695Z" fill="#626469"/>
<path d="M80.8925 294.695H73.4393V293.656L77.3768 289.281C77.9603 288.62 78.3627 288.082 78.5839 287.668C78.8051 287.254 78.9159 286.825 78.9159 286.383C78.9159 285.789 78.7362 285.302 78.3768 284.922C78.0175 284.542 77.5385 284.352 76.9393 284.352C76.2206 284.352 75.662 284.556 75.2635 284.965C74.8651 285.374 74.6659 285.942 74.6659 286.672H73.2206C73.2206 285.625 73.558 284.778 74.2323 284.133C74.9066 283.487 75.809 283.164 76.9393 283.164C77.9965 283.164 78.8324 283.441 79.4471 283.996C80.0619 284.551 80.369 285.289 80.369 286.211C80.369 287.331 79.6556 288.664 78.2284 290.211L75.1815 293.516H80.8925L80.8925 294.695Z" fill="#626469"/>
</svg>
