<svg width="374" height="550" viewBox="0 0 374 550" fill="none" xmlns="http://www.w3.org/2000/svg">
<path d="M54.105 367.262L61.3237 364.705L54.105 362.162V359.469H64.0581V361.526H61.3374L56.6411 361.321L64.0581 364.008V365.416L56.6479 368.096L61.3374 367.891H64.0581V369.941H54.1049L54.105 367.262Z" fill="#00494F"/>
<path d="M64.1948 354.403C64.1948 355.488 63.8618 356.371 63.1968 357.053C62.5317 357.733 61.645 358.074 60.5376 358.074H60.3462C59.603 358.074 58.9389 357.931 58.353 357.644C57.768 357.356 57.3169 356.949 56.9995 356.424C56.6831 355.896 56.5249 355.297 56.5249 354.622C56.5249 353.61 56.8442 352.814 57.4819 352.232C58.1196 351.652 59.0249 351.361 60.1958 351.361H61.0024V356.071C61.4858 356.008 61.8725 355.814 62.1645 355.494C62.4565 355.172 62.602 354.766 62.602 354.273C62.602 353.512 62.3266 352.918 61.7749 352.489L62.8618 351.519C63.2807 351.814 63.6079 352.216 63.8432 352.722C64.0776 353.228 64.1948 353.788 64.1948 354.403ZM58.1177 354.629C58.1177 355.021 58.2505 355.339 58.5161 355.582C58.7817 355.826 59.1616 355.982 59.6557 356.051V353.303H59.4975C59.0581 353.313 58.7182 353.43 58.478 353.658C58.2378 353.887 58.1177 354.209 58.1177 354.629Z" fill="#00494F"/>
<path d="M60.3051 350.548C59.1518 350.548 58.2338 350.289 57.5502 349.771C56.8666 349.255 56.5248 348.547 56.5248 347.649C56.5248 346.93 56.7934 346.334 57.3315 345.865H53.558V343.883H64.058V345.667L63.2719 345.763C63.8871 346.255 64.1948 346.889 64.1948 347.663C64.1948 348.533 63.852 349.232 63.1655 349.758C62.4799 350.285 61.5268 350.548 60.3051 350.548ZM60.4526 348.572C61.1459 348.572 61.6782 348.451 62.0473 348.21C62.4174 347.969 62.602 347.617 62.602 347.157C62.602 346.547 62.3442 346.115 61.8286 345.865H58.9047C58.3891 346.111 58.1313 346.537 58.1313 347.144C58.1313 348.096 58.9047 348.572 60.4526 348.572Z" fill="#00494F"/>
<path d="M54.7475 342.365C54.4516 342.365 54.2075 342.266 54.0161 342.068C53.8246 341.869 53.7289 341.6 53.7289 341.258C53.7289 340.92 53.8246 340.652 54.0161 340.451C54.2075 340.25 54.4516 340.15 54.7475 340.15C55.0483 340.15 55.2944 340.252 55.4858 340.455C55.6772 340.657 55.7729 340.926 55.7729 341.258C55.7729 341.59 55.6772 341.858 55.4858 342.061C55.2944 342.264 55.0483 342.365 54.7475 342.365ZM64.0581 340.267V342.249H56.6616V340.267H64.0581Z" fill="#00494F"/>
<path d="M64.0581 334.353C63.8803 334.445 63.6596 334.511 63.395 334.552C63.9282 335.03 64.1948 335.652 64.1948 336.418C64.1948 337.143 63.9848 337.743 63.5659 338.219C63.1469 338.695 62.6176 338.934 61.9799 338.934C61.1957 338.934 60.5942 338.643 60.1752 338.062C59.7563 337.48 59.5444 336.641 59.5395 335.543V334.634H59.1157C58.7739 334.634 58.5004 334.722 58.2954 334.896C58.0903 335.072 57.9877 335.35 57.9877 335.728C57.9877 336.061 58.0678 336.321 58.227 336.51C58.3862 336.699 58.6049 336.794 58.8832 336.794V338.77C58.4545 338.77 58.058 338.637 57.6938 338.373C57.3295 338.109 57.0434 337.734 56.8354 337.252C56.6284 336.77 56.5248 336.227 56.5248 335.625C56.5248 334.713 56.7534 333.99 57.2123 333.455C57.6694 332.919 58.3139 332.651 59.143 332.651H62.3491C63.0512 332.646 63.5815 332.549 63.9418 332.357H64.058L64.0581 334.353ZM62.684 335.987C62.684 335.695 62.6186 335.427 62.4897 335.181C62.3588 334.935 62.185 334.752 61.9663 334.634H60.6948V335.372C60.6948 336.361 61.0366 336.887 61.7202 336.951L61.8364 336.958C62.0825 336.958 62.2856 336.871 62.4448 336.698C62.604 336.525 62.684 336.288 62.684 335.987Z" fill="#00494F"/>
<path d="M56.6616 329.314L57.5161 329.253C56.8549 328.724 56.5249 328.016 56.5249 327.127C56.5249 326.343 56.7553 325.76 57.2153 325.377C57.6753 324.994 58.3637 324.798 59.2798 324.789H64.0581V326.765H59.3276C58.9086 326.765 58.604 326.856 58.4155 327.038C58.226 327.22 58.1313 327.523 58.1313 327.947C58.1313 328.503 58.3686 328.921 58.8423 329.198H64.0581V331.174H56.6616V329.314Z" fill="#00494F"/>
<path d="M60.5512 317.626H64.0581V319.677H54.1049V315.794C54.1049 315.047 54.2417 314.389 54.5151 313.822C54.7886 313.254 55.1772 312.818 55.6811 312.513C56.1841 312.207 56.7573 312.055 57.3999 312.055C58.3755 312.055 59.144 312.389 59.7065 313.057C60.27 313.724 60.5513 314.648 60.5513 315.828L60.5512 317.626ZM58.8901 317.626V315.794C58.8901 315.252 58.7622 314.838 58.5073 314.553C58.2524 314.269 57.8872 314.126 57.4135 314.126C56.9262 314.126 56.5317 314.27 56.2309 314.557C55.9301 314.844 55.7749 315.24 55.7661 315.746V317.626H58.8901Z" fill="#00494F"/>
<path d="M62.4106 308.597V304.242H64.0581V310.647H54.1049V308.597H62.4106Z" fill="#00494F"/>
<path d="M60.5512 301.015H64.0581V303.065H54.1049V299.183C54.1049 298.436 54.2417 297.777 54.5151 297.211C54.7886 296.643 55.1772 296.207 55.6811 295.901C56.1841 295.596 56.7573 295.443 57.3999 295.443C58.3755 295.443 59.144 295.777 59.7065 296.445C60.27 297.112 60.5513 298.037 60.5513 299.217L60.5512 301.015ZM58.8901 301.015V299.183C58.8901 298.641 58.7622 298.227 58.5073 297.941C58.2524 297.657 57.8872 297.515 57.4135 297.515C56.9262 297.515 56.5317 297.658 56.2309 297.945C55.9301 298.232 55.7749 298.629 55.7661 299.135V301.015H58.8901Z" fill="#00494F"/>
<path d="M60.0112 290.591C58.9673 290.591 57.9741 290.452 57.0308 290.174C56.0874 289.896 55.2524 289.485 54.5249 288.943C53.7983 288.401 53.2935 287.813 53.0112 287.18L54.0776 286.797C54.5698 287.462 55.3306 287.981 56.3608 288.355C57.3911 288.729 58.5942 288.916 59.9702 288.916H60.1821C61.563 288.916 62.771 288.731 63.8052 288.362C64.8394 287.993 65.6118 287.472 66.1226 286.797L67.1685 287.18C66.8901 287.8 66.3999 288.377 65.6948 288.913C64.9917 289.448 64.1792 289.856 63.2583 290.14C62.3374 290.423 61.3765 290.573 60.3735 290.591H60.0112Z" fill="#00494F"/>
<path d="M56.6616 283.945L57.5161 283.884C56.8549 283.355 56.5249 282.646 56.5249 281.758C56.5249 280.975 56.7553 280.391 57.2153 280.008C57.6753 279.625 58.3637 279.43 59.2798 279.42H64.0581V281.396H59.3276C58.9086 281.396 58.604 281.486 58.4155 281.669C58.226 281.852 58.1313 282.154 58.1313 282.578C58.1313 283.135 58.3686 283.551 58.8423 283.829H64.0581V285.805H56.6616V283.945Z" fill="#00494F"/>
<path d="M60.3051 278.21C59.1704 278.21 58.2563 277.939 57.5639 277.4C56.8716 276.859 56.5249 276.132 56.5249 275.216C56.5249 274.404 56.8032 273.773 57.3588 273.322L56.6616 273.24V271.449H63.812C64.4594 271.449 65.0219 271.596 65.5005 271.891C65.979 272.184 66.3432 272.598 66.5942 273.131C66.8452 273.664 66.9702 274.289 66.9702 275.004C66.9702 275.547 66.8618 276.074 66.646 276.59C66.4292 277.105 66.1499 277.494 65.8081 277.759L64.6049 276.884C65.1567 276.392 65.4321 275.795 65.4321 275.093C65.4321 274.568 65.2924 274.16 65.0112 273.869C64.7319 273.578 64.3335 273.432 63.8188 273.432H63.4223C63.937 273.887 64.1948 274.486 64.1948 275.229C64.1948 276.118 63.8471 276.837 63.1518 277.387C62.4575 277.936 61.5356 278.21 60.3872 278.21H60.3051ZM60.4526 276.234C61.1235 276.234 61.6489 276.1 62.0307 275.831C62.4116 275.563 62.602 275.193 62.602 274.724C62.602 274.122 62.3764 273.691 61.9243 273.432H58.8091C58.3569 273.695 58.1313 274.122 58.1313 274.71C58.1313 275.184 58.3257 275.557 58.7133 275.828C59.101 276.099 59.6811 276.234 60.4526 276.234Z" fill="#00494F"/>
<path d="M64.9126 269.309V270.778L54.1049 267.114V265.645L64.9126 269.309Z" fill="#00494F"/>
<path d="M56.6616 262.85L57.4887 262.788C56.8462 262.264 56.5249 261.555 56.5249 260.662C56.5249 259.709 56.9009 259.056 57.6528 258.7C56.9009 258.181 56.5249 257.439 56.5249 256.479C56.5249 255.676 56.7583 255.08 57.226 254.688C57.6928 254.295 58.396 254.1 59.3344 254.1H64.0581V256.082H59.3413C58.9223 256.082 58.6157 256.164 58.4213 256.328C58.228 256.492 58.1313 256.781 58.1313 257.196C58.1313 257.789 58.4135 258.199 58.979 258.427L64.0581 258.42V260.396H59.3481C58.9194 260.396 58.6098 260.48 58.4184 260.648C58.227 260.816 58.1313 261.104 58.1313 261.51C58.1313 262.07 58.3637 262.477 58.8286 262.727H64.0581V264.702H56.6616V262.85Z" fill="#00494F"/>
<path d="M62.4106 250.401V246.047H64.0581V252.452H54.1049V250.401H62.4106Z" fill="#00494F"/>
<path d="M60.1685 241.598C61.1987 241.598 62.1899 241.745 63.1421 242.042C64.0942 242.339 64.9351 242.765 65.6646 243.32C66.394 243.876 66.895 244.472 67.1685 245.104L66.1226 245.487C65.6353 244.841 64.8833 244.329 63.8667 243.956C62.8501 243.583 61.6811 243.389 60.3599 243.375H59.9976C58.6353 243.375 57.4341 243.561 56.395 243.933C55.356 244.304 54.5767 244.821 54.0571 245.487L53.0112 245.105C53.2798 244.485 53.7681 243.9 54.4741 243.351C55.1802 242.802 56.0034 242.376 56.9419 242.073C57.8804 241.77 58.854 241.611 59.8608 241.598L60.1685 241.598Z" fill="#00494F"/>
<path d="M60.0112 236.489C58.9673 236.489 57.9741 236.351 57.0308 236.072C56.0874 235.794 55.2524 235.384 54.5249 234.842C53.7983 234.3 53.2935 233.712 53.0112 233.078L54.0776 232.695C54.5698 233.36 55.3306 233.88 56.3608 234.254C57.3911 234.628 58.5942 234.814 59.9702 234.814H60.1821C61.563 234.814 62.771 234.63 63.8052 234.261C64.8394 233.892 65.6118 233.37 66.1226 232.695L67.1685 233.078C66.8901 233.698 66.3999 234.275 65.6948 234.812C64.9917 235.347 64.1792 235.755 63.2583 236.038C62.3374 236.321 61.3765 236.472 60.3735 236.489H60.0112Z" fill="#00494F"/>
<path d="M56.6616 229.812L57.4887 229.751C56.8462 229.228 56.5249 228.519 56.5249 227.625C56.5249 226.673 56.9009 226.019 57.6528 225.663C56.9009 225.144 56.5249 224.403 56.5249 223.441C56.5249 222.64 56.7583 222.042 57.226 221.65C57.6928 221.259 58.396 221.062 59.3344 221.062H64.0581V223.045H59.3413C58.9223 223.045 58.6157 223.127 58.4213 223.291C58.228 223.455 58.1313 223.745 58.1313 224.159C58.1313 224.751 58.4135 225.161 58.979 225.39L64.0581 225.383V227.358H59.3481C58.9194 227.358 58.6098 227.442 58.4184 227.611C58.227 227.78 58.1313 228.067 58.1313 228.473C58.1313 229.033 58.3637 229.438 58.8286 229.689H64.0581V231.665H56.6616V229.812Z" fill="#00494F"/>
<path d="M54.7475 219.559C54.4516 219.559 54.2075 219.46 54.0161 219.261C53.8246 219.063 53.7289 218.793 53.7289 218.451C53.7289 218.114 53.8246 217.845 54.0161 217.645C54.2075 217.444 54.4516 217.344 54.7475 217.344C55.0483 217.344 55.2944 217.445 55.4858 217.647C55.6772 217.851 55.7729 218.118 55.7729 218.451C55.7729 218.784 55.6772 219.052 55.4858 219.255C55.2944 219.457 55.0483 219.559 54.7475 219.559ZM64.0581 217.46V219.442H56.6616V217.46H64.0581Z" fill="#00494F"/>
<path d="M56.6616 214.014L57.5161 213.952C56.8549 213.424 56.5249 212.715 56.5249 211.826C56.5249 211.043 56.7553 210.459 57.2153 210.076C57.6753 209.693 58.3637 209.498 59.2798 209.488H64.0581V211.464H59.3276C58.9086 211.464 58.604 211.555 58.4155 211.737C58.226 211.92 58.1313 212.223 58.1313 212.646C58.1313 213.203 58.3686 213.619 58.8423 213.897H64.0581V215.873H56.6616V214.014Z" fill="#00494F"/>
<path d="M66.5532 207.479L66.0132 208.511L65.5688 208.265C65.0132 207.959 64.4594 207.803 63.9077 207.793H62.3764V206.125L63.7436 206.132C64.2495 206.137 64.7602 206.264 65.2749 206.515C65.7895 206.766 66.2163 207.086 66.5532 207.479Z" fill="#00494F"/>
<path d="M56.6616 199.234L57.4887 199.173C56.8462 198.648 56.5249 197.939 56.5249 197.047C56.5249 196.094 56.9009 195.44 57.6528 195.085C56.9009 194.565 56.5249 193.824 56.5249 192.863C56.5249 192.061 56.7583 191.465 57.226 191.072C57.6928 190.68 58.396 190.484 59.3344 190.484H64.0581V192.467H59.3413C58.9223 192.467 58.6157 192.549 58.4213 192.713C58.228 192.877 58.1313 193.166 58.1313 193.581C58.1313 194.174 58.4135 194.584 58.979 194.812L64.0581 194.805V196.78H59.3481C58.9194 196.78 58.6098 196.865 58.4184 197.033C58.227 197.201 58.1313 197.488 58.1313 197.895C58.1313 198.455 58.3637 198.861 58.8286 199.111H64.0581V201.087H56.6616V199.234Z" fill="#00494F"/>
<path d="M64.0581 184.682C63.8803 184.772 63.6596 184.839 63.395 184.88C63.9282 185.358 64.1948 185.98 64.1948 186.746C64.1948 187.471 63.9848 188.071 63.5659 188.548C63.1469 189.023 62.6176 189.262 61.9799 189.262C61.1957 189.262 60.5942 188.972 60.1752 188.39C59.7563 187.81 59.5444 186.97 59.5395 185.871V184.962H59.1157C58.7739 184.962 58.5004 185.05 58.2954 185.226C58.0903 185.4 57.9877 185.677 57.9877 186.056C57.9877 186.388 58.0678 186.649 58.227 186.839C58.3862 187.027 58.6049 187.122 58.8832 187.122V189.098C58.4545 189.098 58.058 188.966 57.6938 188.701C57.3295 188.437 57.0434 188.063 56.8354 187.58C56.6284 187.097 56.5248 186.555 56.5248 185.953C56.5248 185.042 56.7534 184.318 57.2123 183.782C57.6694 183.247 58.3139 182.979 59.143 182.979H62.3491C63.0512 182.976 63.5815 182.877 63.9418 182.686H64.058L64.0581 184.682ZM62.684 186.315C62.684 186.024 62.6186 185.755 62.4897 185.509C62.3588 185.263 62.185 185.081 61.9663 184.962H60.6948V185.7C60.6948 186.688 61.0366 187.216 61.7202 187.279L61.8364 187.286C62.0825 187.286 62.2856 187.2 62.4448 187.026C62.604 186.853 62.684 186.616 62.684 186.315Z" fill="#00494F"/>
<path d="M58.8696 178.645L56.6616 177.4V175.288L60.2846 177.394L64.0581 175.199V177.318L61.7339 178.638L64.0581 179.95V182.076L60.2846 179.882L56.6616 181.98V179.861L58.8696 178.645Z" fill="#00494F"/>
<path d="M60.1685 170.934C61.1987 170.934 62.1899 171.082 63.1421 171.378C64.0942 171.674 64.9351 172.1 65.6646 172.656C66.394 173.213 66.895 173.807 67.1685 174.44L66.1226 174.823C65.6353 174.176 64.8833 173.666 63.8667 173.292C62.8501 172.918 61.6811 172.725 60.3599 172.711H59.9976C58.6353 172.711 57.4341 172.896 56.395 173.268C55.356 173.64 54.5767 174.158 54.0571 174.823L53.0112 174.44C53.2798 173.82 53.7681 173.236 54.4741 172.688C55.1802 172.138 56.0034 171.712 56.9419 171.408C57.8804 171.105 58.854 170.947 59.8608 170.934H60.1685Z" fill="#00494F"/>
<path d="M56.3716 168.076L55.0835 167.352V166.12L57.1958 167.348L59.396 166.068V167.304L58.0405 168.072L59.396 168.838V170.078L57.1958 168.799L55.0835 170.021V168.786L56.3716 168.076Z" fill="#00494F"/>
<path d="M60.851 165.268L60.5356 165.869L60.2768 165.725C59.9526 165.547 59.6294 165.455 59.3081 165.45H58.4155V164.479L59.2124 164.482C59.5073 164.484 59.8051 164.559 60.105 164.705C60.4057 164.852 60.6538 165.039 60.851 165.268Z" fill="#00494F"/>
<path d="M56.3716 161.931L55.0835 161.205V159.974L57.1958 161.201L59.396 159.922V161.157L58.0405 161.927L59.396 162.691V163.931L57.1958 162.651L55.0835 163.875V162.64L56.3716 161.931Z" fill="#00494F"/>
<path d="M120.841 54.3652L120.841 476.164" stroke="#626469" stroke-miterlimit="10"/>
<path d="M85.8178 52.8633H86.685C87.1225 52.8594 87.4692 52.7461 87.7251 52.5234C87.9809 52.3008 88.1089 51.9785 88.1089 51.5566C88.1089 51.1504 88.0024 50.835 87.7895 50.6104C87.5766 50.3857 87.2514 50.2734 86.8139 50.2734C86.4311 50.2734 86.1167 50.3838 85.8706 50.6045C85.6245 50.8252 85.5014 51.1133 85.5014 51.4688H84.0776C84.0776 51.0312 84.1938 50.6328 84.4262 50.2734C84.6587 49.9141 84.9829 49.6338 85.3989 49.4326C85.8149 49.2315 86.2807 49.1309 86.7964 49.1309C87.6479 49.1309 88.3169 49.3447 88.8032 49.7725C89.2895 50.2002 89.5327 50.7949 89.5327 51.5566C89.5327 51.9395 89.4106 52.2998 89.1665 52.6377C88.9223 52.9756 88.6069 53.2305 88.2202 53.4023C88.6889 53.5625 89.0454 53.8144 89.2895 54.1582C89.5337 54.5019 89.6557 54.9121 89.6557 55.3887C89.6557 56.1543 89.393 56.7637 88.8676 57.2168C88.3423 57.6699 87.6518 57.8965 86.7964 57.8965C85.976 57.8965 85.3042 57.6777 84.7807 57.2402C84.2573 56.8027 83.9956 56.2207 83.9956 55.4941H85.4194C85.4194 55.8691 85.5454 56.1738 85.7973 56.4082C86.0493 56.6426 86.3882 56.7598 86.8139 56.7598C87.2553 56.7598 87.603 56.6426 87.8569 56.4082C88.1108 56.1738 88.2378 55.834 88.2378 55.3887C88.2378 54.9395 88.105 54.5937 87.8393 54.3516C87.5737 54.1094 87.1792 53.9883 86.6557 53.9883H85.8178V52.8633Z" fill="#00494F"/>
<path d="M91.3725 53.5488L91.8354 49.248H96.4174V50.4785H93.019L92.7846 52.5176C93.1792 52.291 93.6245 52.1777 94.1206 52.1777C94.9331 52.1777 95.5649 52.4375 96.0161 52.957C96.4673 53.4766 96.6928 54.1758 96.6928 55.0547C96.6928 55.9219 96.4428 56.6123 95.9428 57.126C95.4428 57.6397 94.7573 57.8965 93.8862 57.8965C93.1049 57.8965 92.4575 57.6748 91.9438 57.2315C91.4301 56.7881 91.1518 56.2031 91.1089 55.4766H92.4858C92.5405 55.8906 92.6889 56.208 92.9311 56.4287C93.1733 56.6494 93.4897 56.7598 93.8803 56.7598C94.3178 56.7598 94.6587 56.6035 94.9028 56.291C95.1469 55.9785 95.269 55.5527 95.269 55.0137C95.269 54.4942 95.1342 54.083 94.8647 53.7803C94.5952 53.4775 94.2241 53.3262 93.7514 53.3262C93.4936 53.3262 93.2749 53.3604 93.0952 53.4287C92.9155 53.4971 92.7202 53.6309 92.5092 53.8301L91.3725 53.5488Z" fill="#00494F"/>
<path d="M103.373 54.1875C103.373 55.4141 103.143 56.3389 102.684 56.9619C102.225 57.585 101.527 57.8965 100.589 57.8965C99.6674 57.8965 98.9731 57.5928 98.5063 56.9854C98.0395 56.3779 97.8003 55.4785 97.7885 54.2871V52.8106C97.7885 51.584 98.018 50.6641 98.477 50.0508C98.936 49.4375 99.6362 49.1309 100.578 49.1309C101.511 49.1309 102.207 49.4297 102.666 50.0273C103.125 50.625 103.361 51.5195 103.373 52.7109V54.1875ZM101.949 52.5938C101.949 51.793 101.839 51.2061 101.621 50.833C101.402 50.46 101.054 50.2734 100.578 50.2734C100.113 50.2734 99.771 50.4502 99.5522 50.8037C99.3335 51.1572 99.2182 51.709 99.2065 52.459V54.3926C99.2065 55.1895 99.3178 55.7832 99.5405 56.1738C99.7631 56.5645 100.113 56.7598 100.589 56.7598C101.046 56.7598 101.384 56.5791 101.603 56.2178C101.822 55.8564 101.937 55.291 101.949 54.5215V52.5938Z" fill="#00494F"/>
<path d="M89.9072 142.635H84.1709V141.656L87.0127 138.557C87.4228 138.1 87.7148 137.718 87.8886 137.411C88.0625 137.104 88.1494 136.797 88.1494 136.488C88.1494 136.082 88.0351 135.754 87.8066 135.504C87.5781 135.254 87.2705 135.129 86.8838 135.129C86.4228 135.129 86.0654 135.27 85.8115 135.551C85.5576 135.832 85.4306 136.217 85.4306 136.705H84.0068C84.0068 136.186 84.125 135.718 84.3613 135.302C84.5976 134.886 84.9355 134.563 85.375 134.332C85.8144 134.102 86.3213 133.986 86.8955 133.986C87.7236 133.986 88.3769 134.194 88.8554 134.61C89.3339 135.026 89.5732 135.602 89.5732 136.336C89.5732 136.762 89.4531 137.208 89.2129 137.675C88.9726 138.142 88.5791 138.672 88.0322 139.266L85.9463 141.498H89.9072V142.635Z" fill="#00494F"/>
<path d="M96.3642 136.354C96.3642 136.771 96.2568 137.144 96.042 137.47C95.8271 137.796 95.5341 138.053 95.163 138.24C95.6084 138.447 95.9511 138.73 96.1914 139.09C96.4316 139.449 96.5517 139.855 96.5517 140.309C96.5517 141.059 96.2978 141.653 95.79 142.093C95.2822 142.532 94.6064 142.752 93.7627 142.752C92.915 142.752 92.2363 142.531 91.7265 142.09C91.2168 141.648 90.9619 141.055 90.9619 140.309C90.9619 139.852 91.083 139.441 91.3252 139.078C91.5673 138.715 91.9072 138.436 92.3447 138.24C91.9775 138.053 91.6875 137.796 91.4746 137.47C91.2617 137.144 91.1552 136.771 91.1552 136.354C91.1552 135.627 91.3896 135.051 91.8584 134.625C92.3271 134.199 92.9599 133.986 93.7568 133.986C94.5576 133.986 95.1923 134.199 95.6611 134.625C96.1298 135.051 96.3642 135.627 96.3642 136.354ZM95.1279 140.238C95.1279 139.816 95.0019 139.476 94.75 139.216C94.498 138.956 94.165 138.826 93.751 138.826C93.3369 138.826 93.0058 138.955 92.7578 139.213C92.5097 139.471 92.3857 139.813 92.3857 140.238C92.3857 140.656 92.5078 140.99 92.7519 141.24C92.9961 141.49 93.333 141.615 93.7627 141.615C94.1924 141.615 94.5273 141.494 94.7675 141.252C95.0078 141.01 95.1279 140.672 95.1279 140.238ZM94.9463 136.406C94.9463 136.035 94.8388 135.73 94.624 135.489C94.4091 135.249 94.1201 135.129 93.7568 135.129C93.3935 135.129 93.1064 135.243 92.8955 135.472C92.6845 135.7 92.5791 136.012 92.5791 136.406C92.5791 136.797 92.6855 137.107 92.8984 137.338C93.1113 137.568 93.3994 137.684 93.7627 137.684C94.1259 137.684 94.414 137.568 94.6269 137.338C94.8398 137.107 94.9463 136.797 94.9463 136.406Z" fill="#00494F"/>
<path d="M103.372 139.043C103.372 140.27 103.143 141.194 102.684 141.817C102.225 142.44 101.526 142.752 100.589 142.752C99.667 142.752 98.9726 142.448 98.5058 141.841C98.039 141.233 97.7998 140.334 97.7881 139.143V137.666C97.7881 136.439 98.0175 135.52 98.4765 134.906C98.9355 134.293 99.6357 133.986 100.577 133.986C101.511 133.986 102.207 134.285 102.666 134.883C103.125 135.48 103.36 136.375 103.372 137.566V139.043ZM101.948 137.449C101.948 136.648 101.839 136.062 101.62 135.688C101.401 135.315 101.054 135.129 100.577 135.129C100.112 135.129 99.7705 135.306 99.5517 135.659C99.333 136.013 99.2178 136.564 99.206 137.314V139.248C99.206 140.045 99.3174 140.639 99.54 141.029C99.7627 141.42 100.112 141.615 100.589 141.615C101.046 141.615 101.384 141.435 101.603 141.073C101.821 140.712 101.936 140.146 101.948 139.377V137.449Z" fill="#00494F"/>
<path d="M89.9072 227.457H84.1709V226.479L87.0127 223.379C87.4228 222.922 87.7148 222.54 87.8886 222.233C88.0625 221.927 88.1494 221.619 88.1494 221.311C88.1494 220.904 88.0351 220.576 87.8066 220.326C87.5781 220.076 87.2705 219.951 86.8838 219.951C86.4228 219.951 86.0654 220.092 85.8115 220.373C85.5576 220.654 85.4306 221.039 85.4306 221.527H84.0068C84.0068 221.008 84.125 220.54 84.3613 220.124C84.5976 219.708 84.9355 219.385 85.375 219.154C85.8144 218.924 86.3213 218.809 86.8955 218.809C87.7236 218.809 88.3769 219.017 88.8554 219.433C89.3339 219.849 89.5732 220.424 89.5732 221.158C89.5732 221.584 89.4531 222.03 89.2129 222.497C88.9726 222.964 88.5791 223.494 88.0322 224.088L85.9463 226.32H89.9072V227.457Z" fill="#00494F"/>
<path d="M94.8466 227.455H93.4287V220.602L91.3369 221.314V220.119L94.665 218.895H94.8466L94.8466 227.455Z" fill="#00494F"/>
<path d="M103.372 223.865C103.372 225.092 103.143 226.017 102.684 226.64C102.225 227.263 101.526 227.574 100.589 227.574C99.667 227.574 98.9726 227.271 98.5058 226.663C98.039 226.056 97.7998 225.156 97.7881 223.965V222.488C97.7881 221.262 98.0175 220.342 98.4765 219.729C98.9355 219.115 99.6357 218.809 100.577 218.809C101.511 218.809 102.207 219.107 102.666 219.705C103.125 220.303 103.36 221.197 103.372 222.389V223.865ZM101.948 222.271C101.948 221.471 101.839 220.884 101.62 220.511C101.401 220.138 101.054 219.951 100.577 219.951C100.112 219.951 99.7705 220.128 99.5517 220.481C99.333 220.835 99.2178 221.387 99.206 222.137V224.07C99.206 224.867 99.3174 225.461 99.54 225.852C99.7627 226.242 100.112 226.438 100.589 226.438C101.046 226.438 101.384 226.257 101.603 225.896C101.821 225.534 101.936 224.969 101.948 224.199V222.271Z" fill="#00494F"/>
<path d="M88.0263 312.346H86.6084V305.492L84.5166 306.205V305.01L87.8447 303.785H88.0263L88.0263 312.346Z" fill="#00494F"/>
<path d="M95.8076 309.303H96.8681V310.445H95.8076V312.344H94.3838V310.445H90.6982L90.6572 309.578L94.3369 303.812H95.8076L95.8076 309.303ZM92.1513 309.303H94.3838V305.74L94.2783 305.928L92.1513 309.303Z" fill="#00494F"/>
<path d="M103.372 308.752C103.372 309.979 103.143 310.903 102.684 311.526C102.225 312.149 101.526 312.461 100.589 312.461C99.667 312.461 98.9726 312.157 98.5058 311.55C98.039 310.942 97.7998 310.043 97.7881 308.852V307.375C97.7881 306.148 98.0175 305.229 98.4765 304.615C98.9355 304.002 99.6357 303.695 100.577 303.695C101.511 303.695 102.207 303.994 102.666 304.592C103.125 305.189 103.36 306.084 103.372 307.275V308.752ZM101.948 307.158C101.948 306.357 101.839 305.771 101.62 305.397C101.401 305.024 101.054 304.838 100.577 304.838C100.112 304.838 99.7705 305.015 99.5517 305.368C99.333 305.722 99.2178 306.273 99.206 307.023V308.957C99.206 309.754 99.3174 310.348 99.54 310.738C99.7627 311.129 100.112 311.324 100.589 311.324C101.046 311.324 101.384 311.144 101.603 310.782C101.821 310.421 101.936 309.855 101.948 309.086V307.158Z" fill="#00494F"/>
<path d="M96.1006 389.459L92.6904 397.199H91.1963L94.6006 389.811H90.1884V388.668H96.1006V389.459Z" fill="#00494F"/>
<path d="M102.804 393.607C102.804 394.834 102.574 395.759 102.115 396.382C101.656 397.005 100.958 397.316 100.02 397.316C99.0986 397.316 98.4043 397.013 97.9375 396.405C97.4707 395.798 97.2314 394.898 97.2197 393.707V392.23C97.2197 391.004 97.4492 390.084 97.9082 389.471C98.3672 388.857 99.0674 388.551 100.009 388.551C100.942 388.551 101.639 388.85 102.098 389.447C102.557 390.045 102.792 390.939 102.804 392.131V393.607ZM101.38 392.014C101.38 391.213 101.27 390.626 101.052 390.253C100.833 389.88 100.485 389.693 100.009 389.693C99.5439 389.693 99.2021 389.87 98.9834 390.224C98.7646 390.577 98.6494 391.129 98.6377 391.879V393.812C98.6377 394.609 98.749 395.203 98.9717 395.594C99.1943 395.984 99.5439 396.18 100.02 396.18C100.478 396.18 100.815 395.999 101.034 395.638C101.253 395.276 101.368 394.711 101.38 393.941V392.014Z" fill="#00494F"/>
<path d="M102.235 475.166C102.235 476.393 102.006 477.317 101.547 477.94C101.088 478.563 100.39 478.875 99.4521 478.875C98.5302 478.875 97.8359 478.571 97.3691 477.964C96.9023 477.356 96.6631 476.457 96.6513 475.266V473.789C96.6513 472.563 96.8808 471.643 97.3398 471.029C97.7988 470.416 98.499 470.109 99.4404 470.109C100.374 470.109 101.07 470.408 101.529 471.006C101.988 471.604 102.224 472.498 102.235 473.689V475.166ZM100.812 473.572C100.812 472.771 100.702 472.185 100.483 471.812C100.265 471.438 99.917 471.252 99.4404 471.252C98.9756 471.252 98.6338 471.429 98.415 471.782C98.1963 472.136 98.081 472.688 98.0693 473.438V475.371C98.0693 476.168 98.1806 476.762 98.4033 477.152C98.6259 477.543 98.9756 477.738 99.4521 477.738C99.9092 477.738 100.247 477.558 100.466 477.196C100.685 476.835 100.8 476.27 100.812 475.5V473.572Z" fill="#00494F"/>
<path d="M110.7 394.277H120.436" stroke="#626469" stroke-miterlimit="10"/>
<path d="M110.647 309.422H120.383" stroke="#626469" stroke-miterlimit="10"/>
<path d="M110.719 224.533H120.455" stroke="#626469" stroke-miterlimit="10"/>
<path d="M110.752 139.713H120.488" stroke="#626469" stroke-miterlimit="10"/>
<path d="M110.717 54.8574H120.453" stroke="#626469" stroke-miterlimit="10"/>
<path d="M227.198 485.46V476.16" stroke="#626469" stroke-miterlimit="10"/>
<path d="M165.791 485.46V476.16" stroke="#626469" stroke-miterlimit="10"/>
<path d="M288.889 485.581V476.281" stroke="#626469" stroke-miterlimit="10"/>
<path d="M206.965 493.262V494.439H206.79C205.993 494.451 205.356 494.67 204.879 495.096C204.403 495.521 204.12 496.125 204.03 496.906C204.487 496.426 205.071 496.186 205.782 496.186C206.536 496.186 207.13 496.451 207.566 496.982C208.001 497.514 208.219 498.199 208.219 499.039C208.219 499.906 207.964 500.608 207.455 501.146C206.945 501.683 206.276 501.951 205.448 501.951C204.596 501.951 203.906 501.637 203.376 501.008C202.847 500.379 202.582 499.555 202.582 498.535V498.049C202.582 496.553 202.947 495.381 203.675 494.533C204.404 493.686 205.452 493.262 206.819 493.262H206.965ZM205.436 497.334C205.123 497.334 204.837 497.422 204.578 497.598C204.318 497.773 204.127 498.008 204.006 498.301V498.734C204.006 499.367 204.139 499.87 204.405 500.243C204.67 500.616 205.014 500.803 205.436 500.803C205.858 500.803 206.192 500.645 206.438 500.328C206.684 500.012 206.807 499.596 206.807 499.08C206.807 498.564 206.682 498.145 206.432 497.82C206.182 497.496 205.85 497.334 205.436 497.334Z" fill="#00494F"/>
<path d="M213.774 495.494L213.815 496.156C214.26 495.637 214.87 495.377 215.643 495.377C216.491 495.377 217.071 495.701 217.383 496.35C217.844 495.701 218.493 495.377 219.329 495.377C220.028 495.377 220.548 495.57 220.89 495.957C221.232 496.344 221.407 496.914 221.415 497.668V501.834H219.991V497.709C219.991 497.307 219.903 497.012 219.727 496.824C219.551 496.637 219.26 496.543 218.854 496.543C218.53 496.543 218.265 496.63 218.06 496.804C217.855 496.978 217.711 497.205 217.629 497.486L217.635 501.834H216.211V497.662C216.192 496.916 215.811 496.543 215.069 496.543C214.498 496.543 214.094 496.775 213.856 497.24V501.834H212.432V495.494H213.774Z" fill="#00494F"/>
<path d="M222.61 498.605C222.61 497.984 222.733 497.425 222.979 496.927C223.225 496.429 223.571 496.046 224.016 495.778C224.461 495.511 224.973 495.377 225.551 495.377C226.407 495.377 227.101 495.652 227.634 496.203C228.167 496.754 228.456 497.484 228.499 498.395L228.504 498.729C228.504 499.354 228.384 499.912 228.144 500.404C227.904 500.896 227.56 501.277 227.113 501.547C226.665 501.816 226.149 501.951 225.563 501.951C224.668 501.951 223.953 501.653 223.416 501.058C222.878 500.462 222.61 499.668 222.61 498.676L222.61 498.605ZM224.034 498.729C224.034 499.381 224.168 499.892 224.438 500.261C224.707 500.63 225.082 500.814 225.563 500.814C226.043 500.814 226.417 500.627 226.685 500.252C226.953 499.877 227.086 499.328 227.086 498.605C227.086 497.965 226.949 497.457 226.673 497.082C226.398 496.707 226.024 496.52 225.551 496.52C225.086 496.52 224.717 496.704 224.444 497.073C224.17 497.442 224.034 497.994 224.034 498.729Z" fill="#00494F"/>
<path d="M231.03 495.494L231.071 496.227C231.54 495.66 232.155 495.377 232.916 495.377C234.237 495.377 234.909 496.133 234.932 497.645V501.834H233.508V497.727C233.508 497.324 233.421 497.026 233.247 496.833C233.074 496.64 232.789 496.543 232.395 496.543C231.821 496.543 231.393 496.803 231.112 497.322V501.834H229.688V495.494H231.03Z" fill="#00494F"/>
<path d="M238.166 493.953V495.494H239.286V496.549H238.166V500.088C238.166 500.33 238.214 500.505 238.31 500.612C238.406 500.72 238.577 500.773 238.823 500.773C238.987 500.773 239.153 500.754 239.321 500.715V501.816C238.997 501.906 238.684 501.951 238.383 501.951C237.29 501.951 236.743 501.348 236.743 500.141V496.549H235.7V495.494H236.743V493.953H238.166Z" fill="#00494F"/>
<path d="M241.776 496.186C242.241 495.646 242.829 495.377 243.54 495.377C244.891 495.377 245.577 496.148 245.596 497.691V501.834H244.172V497.744C244.172 497.307 244.078 496.997 243.888 496.815C243.699 496.634 243.42 496.543 243.053 496.543C242.483 496.543 242.057 496.797 241.776 497.305V501.834H240.352V492.834H241.776V496.186Z" fill="#00494F"/>
<path d="M250.588 500.111C250.588 499.857 250.484 499.664 250.275 499.531C250.066 499.398 249.719 499.281 249.235 499.18C248.75 499.078 248.346 498.949 248.022 498.793C247.311 498.449 246.956 497.951 246.956 497.299C246.956 496.752 247.186 496.295 247.647 495.928C248.108 495.561 248.694 495.377 249.405 495.377C250.163 495.377 250.775 495.564 251.242 495.939C251.708 496.314 251.942 496.801 251.942 497.398H250.518C250.518 497.125 250.416 496.897 250.213 496.716C250.01 496.534 249.741 496.443 249.405 496.443C249.092 496.443 248.837 496.516 248.64 496.66C248.443 496.805 248.344 496.998 248.344 497.24C248.344 497.459 248.436 497.629 248.62 497.75C248.803 497.871 249.174 497.993 249.733 498.116C250.291 498.239 250.73 498.386 251.048 498.556C251.367 498.726 251.603 498.93 251.757 499.168C251.912 499.406 251.989 499.695 251.989 500.035C251.989 500.605 251.752 501.067 251.28 501.421C250.807 501.774 250.188 501.951 249.422 501.951C248.903 501.951 248.44 501.857 248.034 501.67C247.627 501.482 247.311 501.225 247.084 500.896C246.858 500.568 246.745 500.215 246.745 499.836H248.127C248.147 500.172 248.274 500.431 248.508 500.612C248.743 500.794 249.053 500.885 249.44 500.885C249.815 500.885 250.1 500.813 250.295 500.671C250.491 500.528 250.588 500.342 250.588 500.111Z" fill="#00494F"/>
<path d="M215.702 509.895L215.737 510.691C216.221 510.082 216.854 509.777 217.635 509.777C218.975 509.777 219.651 510.533 219.663 512.045V516.234H218.579V512.039C218.575 511.582 218.47 511.244 218.265 511.025C218.06 510.807 217.741 510.697 217.307 510.697C216.956 510.697 216.647 510.791 216.381 510.979C216.116 511.166 215.909 511.412 215.76 511.717V516.234H214.676V509.895L215.702 509.895Z" fill="#626469"/>
<path d="M226.254 511.465H221.368V510.521H226.254V511.465ZM226.254 513.896H221.368V512.959H226.254V513.896Z" fill="#626469"/>
<path d="M231.334 516.234H230.245V509.01L228.059 509.812V508.828L231.165 507.662H231.334V516.234Z" fill="#626469"/>
<path d="M238.073 516.234H236.983V509.01L234.797 509.812V508.828L237.903 507.662H238.073V516.234Z" fill="#626469"/>
<path d="M143.689 501.834V493.303H146.613C147.578 493.303 148.312 493.496 148.816 493.883C149.32 494.27 149.572 494.846 149.572 495.611C149.572 496.002 149.467 496.354 149.256 496.666C149.045 496.979 148.736 497.221 148.33 497.393C148.791 497.518 149.147 497.753 149.399 498.099C149.651 498.444 149.777 498.859 149.777 499.344C149.777 500.145 149.52 500.76 149.007 501.189C148.493 501.619 147.758 501.834 146.801 501.834H143.689ZM145.172 496.895H146.625C147.086 496.895 147.446 496.79 147.706 496.581C147.966 496.372 148.096 496.076 148.096 495.693C148.096 495.271 147.976 494.967 147.735 494.779C147.495 494.592 147.121 494.498 146.613 494.498H145.172L145.172 496.895ZM145.172 497.984V500.65H146.818C147.283 500.65 147.646 500.535 147.908 500.305C148.17 500.074 148.301 499.754 148.301 499.344C148.301 498.457 147.848 498.004 146.941 497.984H145.172Z" fill="#00494F"/>
<path d="M154.91 501.834C154.848 501.713 154.793 501.516 154.746 501.242C154.293 501.715 153.738 501.951 153.082 501.951C152.445 501.951 151.926 501.77 151.523 501.406C151.121 501.043 150.92 500.594 150.92 500.059C150.92 499.383 151.171 498.864 151.673 498.503C152.175 498.142 152.893 497.961 153.826 497.961H154.699V497.545C154.699 497.217 154.607 496.954 154.424 496.757C154.24 496.56 153.961 496.461 153.586 496.461C153.262 496.461 152.996 496.542 152.789 496.704C152.582 496.866 152.478 497.072 152.478 497.322H151.055C151.055 496.975 151.17 496.649 151.4 496.347C151.631 496.044 151.944 495.807 152.341 495.635C152.737 495.463 153.18 495.377 153.668 495.377C154.41 495.377 155.002 495.563 155.443 495.937C155.885 496.31 156.111 496.834 156.123 497.51V500.369C156.123 500.939 156.203 501.395 156.363 501.734V501.834L154.91 501.834ZM153.346 500.809C153.627 500.809 153.892 500.74 154.14 500.604C154.388 500.467 154.574 500.283 154.699 500.053V498.857H153.932C153.404 498.857 153.008 498.949 152.742 499.133C152.477 499.316 152.344 499.576 152.344 499.912C152.344 500.186 152.435 500.403 152.616 500.565C152.798 500.728 153.041 500.809 153.346 500.809Z" fill="#00494F"/>
<path d="M161.168 500.111C161.168 499.857 161.063 499.664 160.854 499.531C160.645 499.398 160.299 499.281 159.814 499.18C159.33 499.078 158.926 498.949 158.602 498.793C157.891 498.449 157.535 497.951 157.535 497.299C157.535 496.752 157.766 496.295 158.227 495.928C158.687 495.561 159.273 495.377 159.984 495.377C160.742 495.377 161.354 495.564 161.821 495.939C162.288 496.314 162.521 496.801 162.521 497.398H161.098C161.098 497.125 160.996 496.897 160.793 496.716C160.59 496.534 160.32 496.443 159.984 496.443C159.672 496.443 159.417 496.516 159.22 496.66C159.022 496.805 158.924 496.998 158.924 497.24C158.924 497.459 159.016 497.629 159.199 497.75C159.383 497.871 159.754 497.993 160.312 498.116C160.871 498.239 161.31 498.386 161.628 498.556C161.946 498.726 162.183 498.93 162.337 499.168C162.491 499.406 162.568 499.695 162.568 500.035C162.568 500.605 162.332 501.067 161.859 501.421C161.387 501.774 160.768 501.951 160.002 501.951C159.482 501.951 159.02 501.857 158.613 501.67C158.207 501.482 157.891 501.225 157.664 500.896C157.437 500.568 157.324 500.215 157.324 499.836H158.707C158.727 500.172 158.853 500.431 159.088 500.612C159.322 500.794 159.633 500.885 160.02 500.885C160.395 500.885 160.68 500.813 160.875 500.671C161.07 500.528 161.168 500.342 161.168 500.111Z" fill="#00494F"/>
<path d="M166.6 501.951C165.697 501.951 164.966 501.667 164.405 501.099C163.845 500.53 163.564 499.773 163.564 498.828V498.652C163.564 498.02 163.686 497.454 163.931 496.956C164.175 496.458 164.518 496.07 164.959 495.793C165.4 495.516 165.893 495.377 166.436 495.377C167.299 495.377 167.966 495.652 168.436 496.203C168.907 496.754 169.143 497.533 169.143 498.541V499.115H165C165.043 499.639 165.218 500.053 165.524 500.357C165.831 500.662 166.217 500.814 166.682 500.814C167.334 500.814 167.865 500.551 168.275 500.023L169.043 500.756C168.789 501.135 168.45 501.429 168.026 501.638C167.603 501.847 167.127 501.951 166.6 501.951ZM166.43 496.52C166.039 496.52 165.724 496.656 165.483 496.93C165.243 497.203 165.09 497.584 165.023 498.072H167.736V497.967C167.705 497.49 167.578 497.13 167.355 496.886C167.133 496.642 166.824 496.52 166.43 496.52Z" fill="#00494F"/>
<path d="M171.762 501.834H170.338V492.834H171.762V501.834Z" fill="#00494F"/>
<path d="M173.314 493.848C173.314 493.629 173.384 493.447 173.522 493.303C173.661 493.158 173.859 493.086 174.117 493.086C174.375 493.086 174.574 493.158 174.715 493.303C174.855 493.447 174.926 493.629 174.926 493.848C174.926 494.062 174.855 494.241 174.715 494.384C174.574 494.526 174.375 494.598 174.117 494.598C173.859 494.598 173.661 494.526 173.522 494.384C173.384 494.241 173.314 494.062 173.314 493.848ZM174.826 501.834H173.402V495.494H174.826V501.834Z" fill="#00494F"/>
<path d="M177.697 495.494L177.738 496.227C178.207 495.66 178.822 495.377 179.584 495.377C180.904 495.377 181.576 496.133 181.6 497.645V501.834H180.176V497.727C180.176 497.324 180.089 497.026 179.915 496.833C179.741 496.64 179.457 496.543 179.062 496.543C178.488 496.543 178.061 496.803 177.779 497.322V501.834H176.355V495.494H177.697Z" fill="#00494F"/>
<path d="M185.842 501.951C184.939 501.951 184.208 501.667 183.647 501.099C183.087 500.53 182.807 499.773 182.807 498.828V498.652C182.807 498.02 182.929 497.454 183.173 496.956C183.417 496.458 183.76 496.07 184.201 495.793C184.643 495.516 185.135 495.377 185.678 495.377C186.541 495.377 187.208 495.652 187.679 496.203C188.149 496.754 188.385 497.533 188.385 498.541V499.115H184.242C184.285 499.639 184.46 500.053 184.767 500.357C185.073 500.662 185.459 500.814 185.924 500.814C186.576 500.814 187.107 500.551 187.518 500.023L188.285 500.756C188.031 501.135 187.692 501.429 187.269 501.638C186.845 501.847 186.369 501.951 185.842 501.951ZM185.672 496.52C185.281 496.52 184.966 496.656 184.726 496.93C184.485 497.203 184.332 497.584 184.266 498.072H186.978V497.967C186.947 497.49 186.82 497.13 186.598 496.886C186.375 496.642 186.066 496.52 185.672 496.52Z" fill="#00494F"/>
<path d="M154.295 509.895L154.33 510.691C154.814 510.082 155.447 509.777 156.229 509.777C157.568 509.777 158.244 510.533 158.256 512.045V516.234H157.172V512.039C157.168 511.582 157.063 511.244 156.858 511.025C156.653 510.807 156.334 510.697 155.9 510.697C155.549 510.697 155.24 510.791 154.975 510.979C154.709 511.166 154.502 511.412 154.354 511.717V516.234H153.27V509.895L154.295 509.895Z" fill="#626469"/>
<path d="M164.848 511.465H159.961V510.521H164.848V511.465ZM164.848 513.896H159.961V512.959H164.848V513.896Z" fill="#626469"/>
<path d="M169.928 516.234H168.838V509.01L166.652 509.812V508.828L169.758 507.662H169.928V516.234Z" fill="#626469"/>
<path d="M178.693 516.234H173.103V515.455L176.057 512.174C176.494 511.678 176.796 511.274 176.962 510.964C177.128 510.653 177.211 510.332 177.211 510C177.211 509.555 177.076 509.189 176.807 508.904C176.537 508.619 176.178 508.477 175.728 508.477C175.189 508.477 174.77 508.63 174.472 508.937C174.173 509.243 174.023 509.67 174.023 510.217H172.939C172.939 509.432 173.192 508.797 173.698 508.312C174.204 507.828 174.881 507.586 175.728 507.586C176.521 507.586 177.148 507.794 177.609 508.21C178.07 508.626 178.301 509.18 178.301 509.871C178.301 510.711 177.766 511.711 176.695 512.871L174.41 515.35H178.693L178.693 516.234Z" fill="#626469"/>
<path d="M270.412 497.604L270.874 493.303H275.457V494.533H272.058L271.824 496.572C272.218 496.346 272.664 496.232 273.16 496.232C273.972 496.232 274.604 496.492 275.055 497.012C275.506 497.531 275.732 498.23 275.732 499.109C275.732 499.977 275.482 500.668 274.982 501.182C274.482 501.695 273.796 501.951 272.925 501.951C272.144 501.951 271.497 501.731 270.983 501.287C270.469 500.844 270.191 500.258 270.148 499.531H271.525C271.58 499.945 271.728 500.264 271.97 500.484C272.212 500.705 272.529 500.814 272.919 500.814C273.357 500.814 273.698 500.658 273.942 500.346C274.186 500.033 274.308 499.607 274.308 499.068C274.308 498.549 274.173 498.139 273.904 497.836C273.634 497.533 273.263 497.381 272.79 497.381C272.533 497.381 272.314 497.416 272.134 497.484C271.955 497.553 271.759 497.686 271.548 497.885L270.412 497.604Z" fill="#00494F"/>
<path d="M282.148 499.795L283.437 495.494H284.955L282.435 502.795C282.048 503.861 281.392 504.395 280.466 504.395C280.259 504.395 280.031 504.359 279.781 504.289V503.182L280.05 503.199C280.41 503.199 280.68 503.135 280.862 503.004C281.043 502.873 281.187 502.652 281.292 502.346L281.498 501.801L279.271 495.494H280.806L282.148 499.795Z" fill="#00494F"/>
<path d="M288.564 501.951C287.662 501.951 286.93 501.668 286.37 501.1C285.809 500.531 285.529 499.773 285.529 498.828V498.652C285.529 498.02 285.651 497.455 285.895 496.957C286.139 496.459 286.482 496.07 286.923 495.793C287.365 495.516 287.857 495.377 288.4 495.377C289.263 495.377 289.93 495.652 290.401 496.203C290.872 496.754 291.107 497.533 291.107 498.541V499.115H286.964C287.007 499.639 287.182 500.053 287.489 500.357C287.795 500.662 288.181 500.814 288.646 500.814C289.298 500.814 289.83 500.551 290.24 500.023L291.007 500.756C290.753 501.135 290.415 501.43 289.991 501.639C289.567 501.848 289.091 501.951 288.564 501.951ZM288.394 496.52C288.003 496.52 287.688 496.656 287.448 496.93C287.207 497.203 287.054 497.584 286.988 498.072H289.701V497.967C289.669 497.49 289.542 497.131 289.32 496.887C289.097 496.643 288.789 496.52 288.394 496.52Z" fill="#00494F"/>
<path d="M295.999 501.834C295.937 501.713 295.882 501.516 295.835 501.242C295.382 501.715 294.828 501.951 294.171 501.951C293.535 501.951 293.015 501.77 292.613 501.406C292.21 501.043 292.009 500.594 292.009 500.059C292.009 499.383 292.26 498.865 292.762 498.504C293.264 498.143 293.982 497.961 294.915 497.961H295.789V497.545C295.789 497.217 295.697 496.955 295.513 496.758C295.33 496.561 295.05 496.461 294.675 496.461C294.351 496.461 294.085 496.543 293.878 496.705C293.671 496.867 293.568 497.072 293.568 497.322H292.144C292.144 496.975 292.259 496.65 292.49 496.348C292.72 496.045 293.034 495.807 293.43 495.635C293.827 495.463 294.269 495.377 294.757 495.377C295.499 495.377 296.091 495.564 296.533 495.938C296.974 496.311 297.201 496.834 297.212 497.51V500.369C297.212 500.939 297.292 501.395 297.453 501.734V501.834H295.999ZM294.435 500.809C294.716 500.809 294.981 500.74 295.229 500.604C295.477 500.467 295.664 500.283 295.789 500.053V498.857H295.021C294.494 498.857 294.097 498.949 293.832 499.133C293.566 499.316 293.433 499.576 293.433 499.912C293.433 500.186 293.524 500.404 293.706 500.566C293.887 500.729 294.13 500.809 294.435 500.809Z" fill="#00494F"/>
<path d="M302.023 496.795C301.835 496.764 301.642 496.748 301.443 496.748C300.791 496.748 300.351 496.998 300.124 497.498V501.834H298.701V495.494H300.06L300.095 496.203C300.439 495.652 300.915 495.377 301.525 495.377C301.728 495.377 301.896 495.404 302.029 495.459L302.023 496.795Z" fill="#00494F"/>
<path d="M306.476 500.111C306.476 499.857 306.372 499.664 306.163 499.531C305.954 499.398 305.607 499.281 305.123 499.18C304.638 499.078 304.234 498.949 303.91 498.793C303.199 498.449 302.843 497.951 302.843 497.299C302.843 496.752 303.074 496.295 303.535 495.928C303.996 495.561 304.582 495.377 305.292 495.377C306.05 495.377 306.663 495.564 307.129 495.939C307.596 496.314 307.83 496.801 307.83 497.398H306.406C306.406 497.125 306.304 496.898 306.101 496.717C305.898 496.535 305.628 496.443 305.292 496.443C304.98 496.443 304.725 496.516 304.528 496.66C304.331 496.805 304.232 496.998 304.232 497.24C304.232 497.459 304.324 497.629 304.507 497.75C304.691 497.871 305.062 497.994 305.621 498.117C306.179 498.24 306.618 498.387 306.936 498.557C307.254 498.727 307.491 498.93 307.645 499.168C307.799 499.406 307.876 499.695 307.876 500.035C307.876 500.605 307.64 501.068 307.167 501.422C306.695 501.775 306.076 501.951 305.31 501.951C304.79 501.951 304.328 501.857 303.921 501.67C303.515 501.482 303.199 501.225 302.972 500.897C302.746 500.568 302.632 500.215 302.632 499.836H304.015C304.035 500.172 304.162 500.432 304.396 500.613C304.63 500.795 304.941 500.885 305.328 500.885C305.703 500.885 305.988 500.814 306.183 500.672C306.378 500.529 306.476 500.342 306.476 500.111Z" fill="#00494F"/>
<path d="M277.393 509.895L277.428 510.691C277.913 510.082 278.545 509.777 279.327 509.777C280.666 509.777 281.342 510.533 281.354 512.045V516.234H280.27V512.039C280.266 511.582 280.162 511.244 279.957 511.025C279.751 510.807 279.432 510.697 278.999 510.697C278.647 510.697 278.338 510.791 278.073 510.979C277.807 511.166 277.6 511.412 277.452 511.717V516.234H276.368V509.895L277.393 509.895Z" fill="#626469"/>
<path d="M287.946 511.465H283.059V510.521H287.946V511.465ZM287.946 513.896H283.059V512.959H287.946V513.896Z" fill="#626469"/>
<path d="M293.026 516.234H291.936V509.01L289.75 509.812V508.828L292.856 507.662H293.026V516.234Z" fill="#626469"/>
<path d="M301.791 516.234H296.202V515.455L299.155 512.174C299.592 511.678 299.894 511.275 300.06 510.965C300.226 510.654 300.309 510.332 300.309 510C300.309 509.555 300.174 509.189 299.905 508.904C299.635 508.619 299.276 508.477 298.827 508.477C298.288 508.477 297.869 508.631 297.57 508.938C297.271 509.244 297.122 509.67 297.122 510.217H296.038C296.038 509.432 296.29 508.797 296.796 508.312C297.302 507.828 297.979 507.586 298.827 507.586C299.62 507.586 300.247 507.795 300.707 508.211C301.168 508.627 301.399 509.18 301.399 509.871C301.399 510.711 300.864 511.711 299.793 512.871L297.508 515.35H301.791V516.234Z" fill="#626469"/>
<path d="M143.082 99.9316H144.634C145.865 99.9316 146.48 99.3291 146.48 98.125C146.48 97.6562 146.333 97.2734 146.04 96.9775C145.748 96.6816 145.334 96.5332 144.8 96.5332C144.364 96.5332 143.985 96.6601 143.663 96.9141C143.34 97.168 143.179 97.4834 143.179 97.8613H139.888C139.888 97.1123 140.096 96.4453 140.513 95.8594C140.929 95.2734 141.507 94.8154 142.247 94.4873C142.986 94.1582 143.797 93.9941 144.683 93.9941C146.265 93.9941 147.509 94.3555 148.415 95.0781C149.319 95.8008 149.772 96.7939 149.772 98.0566C149.772 98.6689 149.584 99.2461 149.21 99.79C148.835 100.334 148.29 100.775 147.574 101.113C148.33 101.387 148.922 101.802 149.352 102.358C149.782 102.915 149.997 103.604 149.997 104.424C149.997 105.694 149.508 106.71 148.532 107.472C147.554 108.233 146.272 108.614 144.683 108.614C143.752 108.614 142.888 108.437 142.09 108.082C141.292 107.727 140.689 107.235 140.279 106.607C139.869 105.979 139.664 105.264 139.664 104.463H142.974C142.974 104.899 143.15 105.277 143.501 105.597C143.853 105.915 144.286 106.075 144.8 106.075C145.38 106.075 145.842 105.914 146.187 105.592C146.533 105.269 146.705 104.857 146.705 104.355C146.705 103.64 146.526 103.132 146.167 102.832C145.81 102.533 145.315 102.383 144.683 102.383H143.082V99.9316Z" fill="#626469"/>
<path d="M161.531 102.607C161.531 104.528 161.099 106.01 160.237 107.052C159.373 108.093 158.158 108.614 156.588 108.614C155.006 108.614 153.783 108.09 152.916 107.042C152.05 105.993 151.618 104.516 151.618 102.607V100.01C151.618 98.0889 152.048 96.6084 152.912 95.5664C153.774 94.5244 154.994 94.0039 156.569 94.0039C158.145 94.0039 159.366 94.5273 160.232 95.5762C161.097 96.624 161.531 98.1055 161.531 100.02V102.607ZM158.239 99.5899C158.239 98.5674 158.106 97.8047 157.838 97.2998C157.572 96.7949 157.149 96.543 156.569 96.543C156.002 96.543 155.59 96.7773 155.333 97.2461C155.077 97.7148 154.938 98.4248 154.918 99.375V103.008C154.918 104.069 155.052 104.846 155.319 105.337C155.585 105.829 156.009 106.075 156.588 106.075C157.149 106.075 157.562 105.836 157.829 105.356C158.096 104.878 158.233 104.128 158.239 103.105V99.5899Z" fill="#626469"/>
<path d="M170.536 108.419H167.234V97.9101L163.992 98.8574V96.3574L170.233 94.1992H170.536L170.536 108.419Z" fill="#626469"/>
<path d="M176.913 105.225C177.434 105.225 177.867 105.38 178.211 105.689C178.557 105.998 178.729 106.394 178.729 106.876C178.729 107.357 178.557 107.753 178.211 108.062C177.867 108.371 177.434 108.526 176.913 108.526C176.385 108.526 175.951 108.37 175.609 108.058C175.267 107.745 175.096 107.351 175.096 106.876C175.096 106.4 175.267 106.007 175.609 105.694C175.951 105.382 176.385 105.225 176.913 105.225Z" fill="#626469"/>
<path d="M181.063 101.473L181.932 94.1992H190.244V96.7578H184.608L184.286 99.582C184.52 99.4453 184.828 99.3242 185.208 99.2197C185.589 99.1152 185.962 99.0625 186.328 99.0625C187.74 99.0625 188.826 99.4805 189.584 100.317C190.342 101.154 190.722 102.328 190.722 103.838C190.722 104.75 190.518 105.575 190.112 106.314C189.705 107.053 189.133 107.621 188.398 108.019C187.662 108.415 186.792 108.614 185.79 108.614C184.898 108.614 184.061 108.431 183.28 108.062C182.499 107.695 181.886 107.191 181.444 106.55C181.001 105.909 180.783 105.186 180.79 104.379H184.09C184.124 104.898 184.29 105.312 184.588 105.616C184.888 105.922 185.282 106.075 185.77 106.075C186.877 106.075 187.431 105.256 187.431 103.619C187.431 102.104 186.753 101.348 185.399 101.348C184.631 101.348 184.058 101.595 183.68 102.089L181.063 101.473Z" fill="#626469"/>
<path d="M139.407 117.533C139.407 116.798 139.505 116.091 139.702 115.414C139.899 114.737 140.193 114.122 140.583 113.568C140.974 113.015 141.379 112.624 141.799 112.396L141.985 112.992C141.509 113.356 141.12 113.913 140.815 114.662C140.511 115.411 140.344 116.249 140.315 117.177L140.31 117.592C140.31 118.849 140.54 119.938 140.999 120.863C141.275 121.417 141.604 121.85 141.985 122.162L141.799 122.714C141.366 122.473 140.953 122.069 140.559 121.503C139.791 120.396 139.407 119.073 139.407 117.533Z" fill="#626469"/>
<path d="M147.424 120.418H142.766V119.769L145.227 117.034C145.591 116.621 145.843 116.285 145.981 116.025C146.12 115.768 146.189 115.499 146.189 115.223C146.189 114.852 146.077 114.547 145.852 114.31C145.627 114.072 145.328 113.953 144.954 113.953C144.504 113.953 144.155 114.081 143.906 114.336C143.657 114.592 143.533 114.947 143.533 115.403H142.629C142.629 114.749 142.84 114.22 143.261 113.816C143.683 113.413 144.247 113.211 144.954 113.211C145.614 113.211 146.136 113.385 146.521 113.73C146.905 114.078 147.097 114.539 147.097 115.115C147.097 115.815 146.651 116.648 145.759 117.615L143.855 119.681H147.424V120.418Z" fill="#626469"/>
<path d="M152.693 115.166C152.693 115.52 152.599 115.837 152.412 116.113C152.225 116.39 151.971 116.606 151.653 116.763C152.024 116.922 152.318 117.155 152.534 117.461C152.75 117.767 152.859 118.113 152.859 118.501C152.859 119.116 152.651 119.606 152.236 119.971C151.821 120.335 151.275 120.518 150.598 120.518C149.915 120.518 149.367 120.334 148.955 119.969C148.543 119.602 148.337 119.113 148.337 118.501C148.337 118.117 148.442 117.77 148.652 117.461C148.862 117.151 149.153 116.917 149.524 116.758C149.207 116.602 148.958 116.385 148.777 116.108C148.594 115.832 148.503 115.518 148.503 115.166C148.503 114.567 148.695 114.092 149.08 113.74C149.463 113.389 149.969 113.213 150.598 113.213C151.223 113.213 151.728 113.389 152.114 113.74C152.499 114.092 152.693 114.567 152.693 115.166ZM151.956 118.481C151.956 118.084 151.83 117.761 151.577 117.51C151.325 117.259 150.995 117.134 150.588 117.134C150.181 117.134 149.855 117.258 149.609 117.505C149.364 117.752 149.241 118.078 149.241 118.481C149.241 118.885 149.36 119.202 149.599 119.434C149.838 119.665 150.171 119.78 150.598 119.78C151.021 119.78 151.353 119.664 151.594 119.432C151.834 119.198 151.956 118.882 151.956 118.481ZM150.598 113.955C150.243 113.955 149.956 114.064 149.736 114.285C149.516 114.504 149.407 114.803 149.407 115.181C149.407 115.542 149.515 115.834 149.731 116.057C149.948 116.28 150.237 116.392 150.598 116.392C150.959 116.392 151.249 116.28 151.464 116.057C151.681 115.834 151.79 115.542 151.79 115.181C151.79 114.819 151.677 114.524 151.453 114.297C151.228 114.069 150.943 113.955 150.598 113.955Z" fill="#626469"/>
<path d="M154.109 119.945C154.109 119.789 154.155 119.659 154.248 119.555C154.34 119.45 154.48 119.398 154.665 119.398C154.851 119.398 154.992 119.45 155.087 119.555C155.184 119.659 155.232 119.789 155.232 119.945C155.232 120.095 155.184 120.221 155.087 120.321C154.992 120.422 154.851 120.473 154.665 120.473C154.48 120.473 154.34 120.422 154.248 120.321C154.155 120.221 154.109 120.095 154.109 119.945Z" fill="#626469"/>
<path d="M160.94 115.166C160.94 115.52 160.846 115.837 160.659 116.113C160.472 116.39 160.218 116.606 159.9 116.763C160.271 116.922 160.565 117.155 160.781 117.461C160.998 117.767 161.106 118.113 161.106 118.501C161.106 119.116 160.898 119.606 160.483 119.971C160.068 120.335 159.522 120.518 158.845 120.518C158.162 120.518 157.614 120.334 157.202 119.969C156.79 119.602 156.584 119.113 156.584 118.501C156.584 118.117 156.689 117.77 156.899 117.461C157.109 117.151 157.4 116.917 157.771 116.758C157.455 116.602 157.206 116.385 157.024 116.108C156.841 115.832 156.75 115.518 156.75 115.166C156.75 114.567 156.942 114.092 157.327 113.74C157.71 113.389 158.216 113.213 158.845 113.213C159.47 113.213 159.975 113.389 160.361 113.74C160.747 114.092 160.94 114.567 160.94 115.166ZM160.203 118.481C160.203 118.084 160.077 117.761 159.824 117.51C159.572 117.259 159.242 117.134 158.835 117.134C158.428 117.134 158.102 117.258 157.856 117.505C157.611 117.752 157.488 118.078 157.488 118.481C157.488 118.885 157.607 119.202 157.846 119.434C158.085 119.665 158.418 119.78 158.845 119.78C159.268 119.78 159.6 119.664 159.841 119.432C160.082 119.198 160.203 118.882 160.203 118.481ZM158.845 113.955C158.49 113.955 158.203 114.064 157.983 114.285C157.763 114.504 157.654 114.803 157.654 115.181C157.654 115.542 157.762 115.834 157.978 116.057C158.195 116.28 158.484 116.392 158.845 116.392C159.207 116.392 159.496 116.28 159.711 116.057C159.928 115.834 160.037 115.542 160.037 115.181C160.037 114.819 159.924 114.524 159.7 114.297C159.475 114.069 159.19 113.955 158.845 113.955Z" fill="#626469"/>
<path d="M162.307 121.835L161.794 121.483C162.1 121.057 162.259 120.617 162.273 120.165V119.35H163.157V120.058C163.157 120.387 163.076 120.715 162.915 121.044C162.753 121.373 162.551 121.637 162.307 121.835Z" fill="#626469"/>
<path d="M169.651 120.419H168.743V114.398L166.921 115.067V114.247L169.509 113.275H169.651V120.419Z" fill="#626469"/>
<path d="M176.956 120.418H172.297V119.769L174.758 117.034C175.123 116.621 175.374 116.285 175.513 116.025C175.651 115.768 175.72 115.499 175.72 115.223C175.72 114.852 175.608 114.547 175.383 114.31C175.159 114.072 174.859 113.953 174.485 113.953C174.036 113.953 173.687 114.081 173.437 114.336C173.189 114.592 173.064 114.947 173.064 115.403H172.161C172.161 114.749 172.372 114.22 172.792 113.816C173.214 113.413 173.779 113.211 174.485 113.211C175.146 113.211 175.668 113.385 176.052 113.73C176.436 114.078 176.628 114.539 176.628 115.115C176.628 115.815 176.182 116.648 175.29 117.615L173.386 119.681H176.956V120.418Z" fill="#626469"/>
<path d="M182.502 113.816L179.558 120.418H178.611L181.545 114.051H177.698V113.309H182.502L182.502 113.816Z" fill="#626469"/>
<path d="M187.986 117.386C187.986 118.443 187.805 119.229 187.444 119.744C187.082 120.259 186.518 120.516 185.749 120.516C184.991 120.516 184.429 120.264 184.065 119.762C183.701 119.258 183.511 118.507 183.499 117.508V116.302C183.499 115.257 183.679 114.48 184.04 113.973C184.402 113.465 184.968 113.211 185.74 113.211C186.504 113.211 187.068 113.456 187.429 113.945C187.79 114.436 187.976 115.191 187.986 116.214L187.986 117.386ZM187.082 116.15C187.082 115.386 186.975 114.828 186.76 114.479C186.545 114.128 186.206 113.953 185.74 113.953C185.278 113.953 184.941 114.127 184.729 114.476C184.517 114.824 184.409 115.359 184.402 116.082V117.527C184.402 118.296 184.513 118.863 184.736 119.229C184.959 119.596 185.297 119.778 185.749 119.778C186.196 119.778 186.527 119.605 186.744 119.261C186.959 118.916 187.073 118.372 187.082 117.63L187.082 116.15Z" fill="#626469"/>
<path d="M191.321 117.582C191.321 118.308 191.226 119.004 191.035 119.669C190.845 120.335 190.553 120.949 190.162 121.513C189.769 122.076 189.358 122.477 188.928 122.714L188.738 122.162C189.239 121.778 189.642 121.182 189.947 120.372C190.25 119.563 190.406 118.666 190.413 117.68V117.523C190.413 116.84 190.341 116.204 190.198 115.616C190.054 115.029 189.855 114.503 189.599 114.037C189.344 113.571 189.057 113.209 188.738 112.948L188.928 112.396C189.358 112.634 189.767 113.031 190.156 113.588C190.545 114.145 190.836 114.758 191.031 115.429C191.224 116.1 191.321 116.817 191.321 117.582Z" fill="#626469"/>
<path d="M210.928 432.012H212.481C213.711 432.012 214.327 431.409 214.327 430.205C214.327 429.736 214.18 429.354 213.887 429.058C213.594 428.762 213.181 428.613 212.647 428.613C212.21 428.613 211.832 428.74 211.509 428.994C211.187 429.248 211.026 429.563 211.026 429.941H207.734C207.734 429.192 207.943 428.525 208.359 427.939C208.776 427.354 209.354 426.896 210.093 426.567C210.832 426.238 211.644 426.074 212.53 426.074C214.112 426.074 215.355 426.436 216.261 427.158C217.166 427.881 217.618 428.874 217.618 430.137C217.618 430.749 217.431 431.326 217.057 431.87C216.682 432.414 216.137 432.855 215.42 433.193C216.176 433.467 216.769 433.882 217.198 434.438C217.628 434.995 217.843 435.684 217.843 436.504C217.843 437.774 217.354 438.79 216.378 439.552C215.401 440.313 214.118 440.694 212.53 440.694C211.599 440.694 210.734 440.517 209.937 440.162C209.139 439.807 208.535 439.315 208.125 438.688C207.715 438.059 207.51 437.344 207.51 436.543H210.821C210.821 436.979 210.997 437.357 211.348 437.677C211.7 437.995 212.132 438.155 212.647 438.155C213.227 438.155 213.688 437.994 214.034 437.672C214.379 437.349 214.551 436.937 214.551 436.436C214.551 435.72 214.372 435.212 214.014 434.912C213.656 434.613 213.161 434.463 212.53 434.463H210.928L210.928 432.012Z" fill="#00494F"/>
<path d="M222.511 432.012H224.064C225.294 432.012 225.91 431.409 225.91 430.205C225.91 429.736 225.763 429.354 225.47 429.058C225.177 428.762 224.764 428.613 224.23 428.613C223.793 428.613 223.415 428.74 223.092 428.994C222.77 429.248 222.609 429.563 222.609 429.941H219.317C219.317 429.192 219.526 428.525 219.942 427.939C220.359 427.354 220.937 426.896 221.676 426.567C222.415 426.238 223.227 426.074 224.113 426.074C225.695 426.074 226.938 426.436 227.844 427.158C228.749 427.881 229.202 428.874 229.202 430.137C229.202 430.749 229.014 431.326 228.639 431.87C228.264 432.414 227.719 432.855 227.003 433.193C227.758 433.467 228.352 433.882 228.782 434.438C229.211 434.995 229.426 435.684 229.426 436.504C229.426 437.774 228.938 438.79 227.961 439.552C226.984 440.313 225.701 440.694 224.113 440.694C223.182 440.694 222.317 440.517 221.52 440.162C220.722 439.807 220.118 439.315 219.708 438.688C219.298 438.059 219.093 437.344 219.093 436.543H222.404C222.404 436.979 222.58 437.357 222.931 437.677C223.283 437.995 223.715 438.155 224.23 438.155C224.81 438.155 225.271 437.994 225.617 437.672C225.962 437.349 226.134 436.937 226.134 436.436C226.134 435.72 225.955 435.212 225.597 434.912C225.239 434.613 224.744 434.463 224.113 434.463H222.511L222.511 432.012Z" fill="#00494F"/>
<path d="M233.175 437.305C233.697 437.305 234.129 437.46 234.474 437.77C234.82 438.078 234.992 438.474 234.992 438.956C234.992 439.438 234.82 439.833 234.474 440.143C234.129 440.451 233.697 440.606 233.175 440.606C232.648 440.606 232.213 440.45 231.872 440.138C231.53 439.825 231.359 439.431 231.359 438.956C231.359 438.48 231.53 438.087 231.872 437.774C232.213 437.462 232.648 437.305 233.175 437.305Z" fill="#00494F"/>
<path d="M246.722 430.078C246.722 430.769 246.551 431.377 246.209 431.904C245.868 432.432 245.397 432.855 244.798 433.174C245.475 433.506 246.012 433.96 246.41 434.536C246.806 435.112 247.005 435.795 247.005 436.582C247.005 437.853 246.567 438.854 245.692 439.591C244.816 440.326 243.61 440.694 242.073 440.694C240.53 440.694 239.313 440.324 238.42 439.586C237.529 438.847 237.082 437.846 237.082 436.582C237.082 435.82 237.278 435.146 237.668 434.561C238.059 433.975 238.613 433.513 239.329 433.174C238.723 432.855 238.248 432.432 237.903 431.904C237.558 431.377 237.385 430.769 237.385 430.078C237.385 428.841 237.805 427.864 238.645 427.148C239.485 426.432 240.618 426.074 242.043 426.074C243.483 426.074 244.623 426.432 245.462 427.148C246.302 427.864 246.722 428.841 246.722 430.078ZM243.705 436.318C243.705 435.732 243.553 435.282 243.25 434.966C242.948 434.65 242.548 434.492 242.053 434.492C241.559 434.492 241.159 434.65 240.852 434.966C240.546 435.282 240.393 435.732 240.393 436.318C240.393 436.885 240.548 437.333 240.857 437.662C241.166 437.99 241.572 438.155 242.073 438.155C242.562 438.155 242.956 437.992 243.255 437.667C243.554 437.341 243.705 436.892 243.705 436.318ZM242.043 428.613C241.601 428.613 241.264 428.758 241.033 429.048C240.802 429.338 240.686 429.739 240.686 430.254C240.686 430.762 240.803 431.172 241.038 431.484C241.272 431.797 241.618 431.953 242.073 431.953C242.523 431.953 242.86 431.797 243.084 431.484C243.309 431.172 243.421 430.762 243.421 430.254C243.421 429.746 243.305 429.346 243.075 429.053C242.843 428.76 242.499 428.613 242.043 428.613Z" fill="#00494F"/>
<path d="M207.077 449.613C207.077 448.878 207.175 448.171 207.372 447.494C207.569 446.817 207.863 446.202 208.253 445.648C208.644 445.095 209.049 444.704 209.469 444.477L209.655 445.072C209.18 445.437 208.79 445.993 208.485 446.742C208.181 447.491 208.014 448.329 207.985 449.257L207.98 449.672C207.98 450.929 208.209 452.019 208.668 452.943C208.945 453.497 209.274 453.93 209.655 454.242L209.469 454.794C209.036 454.553 208.623 454.149 208.229 453.583C207.461 452.477 207.077 451.153 207.077 449.613Z" fill="#626469"/>
<path d="M215.094 452.498H210.436V451.849L212.897 449.114C213.262 448.701 213.513 448.365 213.651 448.105C213.79 447.848 213.859 447.579 213.859 447.303C213.859 446.932 213.747 446.627 213.522 446.39C213.297 446.152 212.998 446.033 212.624 446.033C212.174 446.033 211.825 446.161 211.576 446.416C211.327 446.672 211.203 447.027 211.203 447.483H210.299C210.299 446.829 210.51 446.3 210.932 445.896C211.353 445.493 211.917 445.291 212.624 445.291C213.284 445.291 213.807 445.465 214.191 445.811C214.575 446.158 214.767 446.619 214.767 447.195C214.767 447.896 214.321 448.729 213.429 449.695L211.525 451.761H215.094L215.094 452.498Z" fill="#626469"/>
<path d="M216.164 452.023C216.164 451.867 216.21 451.737 216.303 451.633C216.395 451.528 216.535 451.477 216.72 451.477C216.906 451.477 217.046 451.528 217.143 451.633C217.239 451.737 217.287 451.867 217.287 452.023C217.287 452.173 217.239 452.299 217.143 452.399C217.046 452.5 216.906 452.551 216.72 452.551C216.535 452.551 216.395 452.5 216.303 452.399C216.21 452.299 216.164 452.173 216.164 452.023Z" fill="#626469"/>
<path d="M219.098 448.934L219.459 445.389H223.102V446.224H220.226L220.011 448.162C220.359 447.957 220.755 447.854 221.198 447.854C221.846 447.854 222.36 448.068 222.741 448.496C223.122 448.925 223.312 449.503 223.312 450.232C223.312 450.965 223.114 451.542 222.719 451.963C222.323 452.385 221.77 452.596 221.061 452.596C220.433 452.596 219.92 452.422 219.523 452.073C219.126 451.725 218.899 451.243 218.844 450.628H219.699C219.754 451.035 219.899 451.342 220.133 451.549C220.368 451.755 220.677 451.858 221.061 451.858C221.481 451.858 221.811 451.715 222.05 451.429C222.289 451.143 222.409 450.747 222.409 450.242C222.409 449.767 222.279 449.385 222.02 449.098C221.762 448.809 221.417 448.665 220.988 448.665C220.594 448.665 220.285 448.751 220.06 448.924L219.821 449.119L219.098 448.934Z" fill="#626469"/>
<path d="M224.362 453.915L223.849 453.563C224.155 453.137 224.314 452.697 224.328 452.245V451.43H225.211V452.138C225.211 452.467 225.131 452.795 224.97 453.124C224.809 453.453 224.606 453.717 224.362 453.915Z" fill="#626469"/>
<path d="M231.706 452.499H230.797V446.479L228.976 447.147V446.327L231.564 445.355H231.706V452.499Z" fill="#626469"/>
<path d="M238.166 450.11H239.152V450.848H238.166V452.498H237.257V450.848H234.02V450.315L237.204 445.389H238.166V450.11ZM235.045 450.11H237.257V446.624L237.15 446.819L235.045 450.11Z" fill="#626469"/>
<path d="M242.936 452.499H242.028V446.479L240.207 447.147V446.327L242.794 445.355H242.936V452.499Z" fill="#626469"/>
<path d="M247.76 449.66C247.76 450.386 247.665 451.082 247.474 451.747C247.285 452.413 246.993 453.027 246.601 453.591C246.208 454.154 245.797 454.555 245.368 454.792L245.177 454.24C245.678 453.856 246.082 453.26 246.386 452.45C246.69 451.642 246.845 450.744 246.852 449.758V449.602C246.852 448.918 246.781 448.282 246.637 447.694C246.494 447.107 246.294 446.581 246.039 446.115C245.784 445.649 245.497 445.287 245.177 445.026L245.368 444.475C245.797 444.712 246.207 445.109 246.595 445.666C246.985 446.223 247.276 446.836 247.47 447.507C247.664 448.178 247.76 448.896 247.76 449.66Z" fill="#626469"/>
<path d="M165.393 127.291C175.327 127.291 183.393 135.357 183.393 145.291V475.706H147.393V145.291C147.393 135.357 155.458 127.291 165.393 127.291Z" fill="#E2E7EA"/>
<path d="M278.762 475.837H300.125C297.135 473.625 293.448 472.301 289.444 472.301C285.439 472.301 281.752 473.625 278.762 475.837Z" fill="#48D597"/>
<path d="M209.525 475.836H245.371C244.635 466.617 236.936 459.361 227.528 459.361C218.083 459.361 210.341 466.604 209.525 475.836Z" fill="#48D597"/>
<path d="M279.799 441.141L274.486 453.603H271.009L276.332 441.922H269.554V439.383H279.799V441.141Z" fill="#00494F"/>
<path d="M283.588 450.41C284.109 450.41 284.542 450.564 284.888 450.874C285.232 451.184 285.405 451.579 285.405 452.061C285.405 452.543 285.232 452.938 284.888 453.247C284.542 453.557 284.109 453.711 283.588 453.711C283.061 453.711 282.626 453.555 282.285 453.242C281.943 452.93 281.772 452.536 281.772 452.061C281.772 451.586 281.943 451.191 282.285 450.879C282.626 450.566 283.061 450.41 283.588 450.41Z" fill="#00494F"/>
<path d="M297.135 443.184C297.135 443.874 296.964 444.483 296.622 445.011C296.28 445.538 295.81 445.961 295.211 446.28C295.888 446.612 296.425 447.066 296.822 447.643C297.219 448.219 297.418 448.9 297.418 449.688C297.418 450.958 296.979 451.961 296.104 452.696C295.228 453.433 294.022 453.8 292.485 453.8C290.942 453.8 289.726 453.431 288.833 452.691C287.941 451.953 287.495 450.951 287.495 449.688C287.495 448.927 287.69 448.253 288.081 447.667C288.472 447.081 289.025 446.618 289.741 446.28C289.136 445.961 288.661 445.538 288.315 445.011C287.97 444.483 287.798 443.874 287.798 443.184C287.798 441.947 288.218 440.971 289.058 440.254C289.897 439.538 291.03 439.18 292.456 439.18C293.895 439.18 295.035 439.538 295.875 440.254C296.715 440.971 297.135 441.947 297.135 443.184ZM294.117 449.425C294.117 448.839 293.966 448.388 293.663 448.072C293.36 447.756 292.961 447.599 292.466 447.599C291.972 447.599 291.571 447.756 291.265 448.072C290.959 448.388 290.806 448.839 290.806 449.425C290.806 449.991 290.961 450.438 291.27 450.768C291.579 451.097 291.984 451.261 292.485 451.261C292.975 451.261 293.368 451.098 293.668 450.772C293.967 450.447 294.117 449.998 294.117 449.425ZM292.456 441.719C292.014 441.719 291.677 441.864 291.445 442.153C291.215 442.443 291.099 442.846 291.099 443.359C291.099 443.867 291.216 444.277 291.45 444.591C291.685 444.903 292.03 445.06 292.485 445.06C292.936 445.06 293.272 444.903 293.497 444.591C293.722 444.277 293.834 443.867 293.834 443.359C293.834 442.852 293.718 442.451 293.487 442.158C293.256 441.865 292.912 441.719 292.456 441.719Z" fill="#00494F"/>
<path d="M306.423 453.603H303.121V443.094L299.879 444.041V441.541L306.12 439.383H306.423V453.603Z" fill="#00494F"/>
<path d="M267.756 462.719C267.756 461.983 267.855 461.276 268.052 460.6C268.249 459.923 268.542 459.308 268.933 458.754C269.324 458.2 269.729 457.81 270.149 457.582L270.334 458.178C269.859 458.542 269.469 459.099 269.165 459.848C268.861 460.597 268.694 461.435 268.665 462.362L268.66 462.777C268.66 464.034 268.889 465.124 269.348 466.049C269.625 466.603 269.954 467.035 270.334 467.348L270.149 467.899C269.716 467.658 269.303 467.255 268.909 466.688C268.141 465.582 267.756 464.259 267.756 462.719Z" fill="#626469"/>
<path d="M275.774 465.604H271.116V464.954L273.577 462.22C273.941 461.807 274.193 461.471 274.331 461.211C274.469 460.953 274.539 460.685 274.539 460.408C274.539 460.037 274.426 459.732 274.202 459.495C273.977 459.258 273.678 459.139 273.303 459.139C272.854 459.139 272.505 459.267 272.256 459.521C272.007 459.777 271.882 460.133 271.882 460.589H270.979C270.979 459.935 271.19 459.405 271.611 459.002C272.033 458.599 272.597 458.396 273.303 458.396C273.964 458.396 274.486 458.57 274.871 458.916C275.255 459.264 275.447 459.725 275.447 460.301C275.447 461.001 275.001 461.834 274.109 462.801L272.205 464.866H275.774L275.774 465.604Z" fill="#626469"/>
<path d="M276.843 465.129C276.843 464.973 276.89 464.843 276.982 464.738C277.075 464.634 277.214 464.582 277.4 464.582C277.585 464.582 277.726 464.634 277.822 464.738C277.918 464.843 277.966 464.973 277.966 465.129C277.966 465.278 277.918 465.404 277.822 465.505C277.726 465.605 277.585 465.656 277.4 465.656C277.214 465.656 277.075 465.605 276.982 465.505C276.89 465.404 276.843 465.278 276.843 465.129Z" fill="#626469"/>
<path d="M279.778 462.039L280.139 458.494H283.782V459.329H280.906L280.691 461.268C281.039 461.062 281.435 460.96 281.877 460.96C282.525 460.96 283.04 461.174 283.42 461.602C283.801 462.03 283.992 462.608 283.992 463.338C283.992 464.07 283.794 464.647 283.398 465.068C283.003 465.49 282.45 465.701 281.741 465.701C281.112 465.701 280.6 465.527 280.203 465.179C279.806 464.83 279.579 464.349 279.524 463.733H280.378C280.434 464.141 280.579 464.447 280.813 464.654C281.047 464.86 281.356 464.964 281.741 464.964C282.161 464.964 282.49 464.82 282.729 464.534C282.969 464.248 283.088 463.853 283.088 463.348C283.088 462.872 282.959 462.49 282.7 462.203C282.441 461.914 282.097 461.771 281.667 461.771C281.273 461.771 280.964 461.856 280.74 462.029L280.5 462.225L279.778 462.039Z" fill="#626469"/>
<path d="M285.041 467.021L284.529 466.669C284.835 466.242 284.994 465.803 285.007 465.351V464.535H285.891V465.243C285.891 465.572 285.811 465.9 285.649 466.229C285.488 466.559 285.286 466.822 285.041 467.021Z" fill="#626469"/>
<path d="M294.074 465.604H289.416V464.954L291.877 462.22C292.242 461.807 292.494 461.471 292.633 461.211C292.77 460.953 292.84 460.685 292.84 460.408C292.84 460.037 292.727 459.732 292.502 459.495C292.277 459.258 291.978 459.139 291.603 459.139C291.154 459.139 290.807 459.267 290.557 459.521C290.309 459.777 290.184 460.133 290.184 460.589H289.28C289.28 459.935 289.49 459.405 289.912 459.002C290.334 458.599 290.898 458.396 291.603 458.396C292.266 458.396 292.787 458.57 293.172 458.916C293.555 459.264 293.748 459.725 293.748 460.301C293.748 461.001 293.301 461.834 292.41 462.801L290.506 464.866H294.074V465.604Z" fill="#626469"/>
<path d="M298.494 462.478C298.306 462.703 298.08 462.884 297.818 463.02C297.556 463.157 297.269 463.226 296.956 463.226C296.546 463.226 296.188 463.125 295.885 462.923C295.58 462.721 295.345 462.437 295.179 462.07C295.013 461.705 294.93 461.3 294.93 460.857C294.93 460.382 295.02 459.954 295.201 459.573C295.381 459.192 295.638 458.901 295.97 458.699C296.302 458.497 296.689 458.396 297.132 458.396C297.835 458.396 298.389 458.659 298.795 459.186C299.199 459.711 299.402 460.428 299.402 461.336V461.6C299.402 462.983 299.129 463.993 298.582 464.629C298.035 465.266 297.21 465.592 296.106 465.608H295.931V464.842H296.121C296.866 464.829 297.439 464.635 297.84 464.26C298.24 463.885 298.458 463.291 298.494 462.478ZM297.103 462.478C297.405 462.478 297.685 462.386 297.939 462.2C298.195 462.015 298.382 461.785 298.499 461.512V461.15C298.499 460.558 298.37 460.076 298.113 459.705C297.856 459.334 297.53 459.148 297.137 459.148C296.739 459.148 296.421 459.301 296.18 459.605C295.938 459.909 295.818 460.311 295.818 460.809C295.818 461.294 295.935 461.693 296.168 462.008C296.4 462.321 296.712 462.478 297.103 462.478Z" fill="#626469"/>
<path d="M300.76 465.129C300.76 464.973 300.807 464.843 300.898 464.738C300.992 464.634 301.131 464.582 301.316 464.582C301.502 464.582 301.643 464.634 301.738 464.738C301.835 464.843 301.883 464.973 301.883 465.129C301.883 465.278 301.835 465.404 301.738 465.505C301.643 465.605 301.502 465.656 301.316 465.656C301.131 465.656 300.992 465.605 300.898 465.505C300.807 465.404 300.76 465.278 300.76 465.129Z" fill="#626469"/>
<path d="M303.693 462.039L304.055 458.494H307.697V459.329H304.821L304.606 461.268C304.955 461.062 305.351 460.96 305.793 460.96C306.44 460.96 306.955 461.174 307.336 461.602C307.717 462.03 307.907 462.608 307.907 463.338C307.907 464.07 307.709 464.647 307.314 465.068C306.918 465.49 306.366 465.701 305.656 465.701C305.028 465.701 304.516 465.527 304.118 465.179C303.721 464.83 303.495 464.349 303.439 463.733H304.294C304.35 464.141 304.494 464.447 304.728 464.654C304.963 464.86 305.272 464.964 305.656 464.964C306.076 464.964 306.406 464.82 306.645 464.534C306.885 464.248 307.004 463.853 307.004 463.348C307.004 462.872 306.875 462.49 306.615 462.203C306.357 461.914 306.013 461.771 305.583 461.771C305.189 461.771 304.88 461.856 304.655 462.029L304.416 462.225L303.693 462.039Z" fill="#626469"/>
<path d="M311.071 462.768C311.071 463.493 310.977 464.189 310.785 464.854C310.596 465.521 310.304 466.135 309.912 466.698C309.519 467.262 309.108 467.662 308.679 467.899L308.488 467.348C308.989 466.964 309.393 466.367 309.697 465.558C310.001 464.749 310.156 463.852 310.163 462.865V462.709C310.163 462.025 310.092 461.39 309.948 460.802C309.805 460.215 309.605 459.688 309.35 459.223C309.095 458.757 308.808 458.395 308.488 458.134L308.679 457.582C309.108 457.819 309.518 458.217 309.906 458.773C310.296 459.33 310.587 459.943 310.781 460.614C310.975 461.285 311.071 462.003 311.071 462.768Z" fill="#626469"/>
<path d="M317.724 475.836H110.589" stroke="#626469" stroke-miterlimit="10"/>
</svg>
