<svg width="304" height="394" viewBox="0 0 304 394" fill="none" xmlns="http://www.w3.org/2000/svg">
<path d="M222.081 203.451C222.081 204.767 222.127 206.672 222.161 207.353C223.769 207.353 225.796 207.353 228.764 207.047C228.706 207.33 228.661 207.556 228.661 207.908C228.661 208.259 228.706 208.465 228.764 208.713C227.609 208.566 226.431 208.566 225.276 208.566C223.339 208.566 221.379 208.633 219.442 208.713C219.521 207.738 219.589 206.83 219.635 205.412C219.679 204.109 219.714 202.361 219.714 199.706C219.714 197.518 219.679 194.646 219.567 192.321C219.554 191.969 219.544 191.641 219.521 191.322C221.277 191.47 223.01 191.47 224.766 191.47C226.046 191.47 227.303 191.449 228.583 191.322C228.538 191.595 228.492 191.879 228.492 192.208C228.492 192.559 228.538 192.751 228.583 193.013C227.654 192.831 226.782 192.685 224.596 192.685C223.689 192.685 223.235 192.685 222.161 192.73C222.103 193.717 222.103 194.136 222.103 195.623C222.103 197.255 222.103 197.561 222.127 198.9C224.12 198.924 226.103 198.947 228.062 198.721C228.005 199.004 227.96 199.219 227.96 199.582C227.96 199.855 228.04 200.081 228.062 200.353C226.748 200.182 225.242 200.103 224.165 200.103C223.486 200.103 222.76 200.125 222.127 200.149C222.103 201.237 222.081 202.372 222.081 203.451Z" fill="#14477D"/>
<path d="M209.373 191.119C212.419 191.119 214.447 191.948 215.58 192.457C215.206 193.489 215.104 193.82 214.978 194.977H214.73C214.051 193.536 211.842 192.209 209.282 192.209C205.305 192.209 202.667 195.125 202.667 199.979C202.667 205.209 205.906 207.808 209.474 207.808C210.607 207.808 213.224 207.557 215.183 205.209L215.478 205.345C215.352 205.924 215.251 206.445 215.206 207.376C213.348 208.488 211.185 209.008 208.976 209.008C203.143 209.008 199.756 205.186 199.756 200.002C199.756 195.147 202.768 191.119 209.373 191.119Z" fill="#14477D"/>
<path d="M193.642 195.726C193.642 192.788 191.162 192.402 189.327 192.402C188.59 192.402 188.069 192.482 187.74 192.526C187.684 193.661 187.684 194.817 187.684 195.951C187.684 197.111 187.718 198.867 187.718 199.401C188.194 199.446 188.443 199.446 189.043 199.424C190.176 199.379 193.642 199.22 193.642 195.726ZM191.331 199.958C192.261 201.387 197.516 207.989 197.809 208.408V208.714C197.288 208.634 196.882 208.568 196.338 208.568C195.806 208.568 195.227 208.634 194.526 208.714C192.135 204.936 190.3 202.577 188.362 200.285H187.718C187.718 202.067 187.684 204.688 187.887 208.714C187.467 208.611 186.891 208.568 186.437 208.568C185.759 208.568 185.475 208.634 185.102 208.714C185.226 205.743 185.283 202.748 185.283 199.072C185.283 196.735 185.202 194.115 185.124 191.301C186.087 191.402 186.789 191.402 187.31 191.402C187.763 191.402 189.825 191.37 190.232 191.37C193.223 191.37 194.152 191.755 194.977 192.436C195.93 193.207 196.258 194.239 196.258 195.453C196.258 199.049 192.872 199.685 191.331 199.958Z" fill="#14477D"/>
<path d="M178.463 207.081C177.409 208.182 175.801 209.066 172.935 209.066C171.011 209.066 168.371 208.611 166.808 206.524C165.879 205.266 165.754 203.881 165.754 201.714C165.754 194.944 165.754 194.443 165.55 191.301C166.082 191.369 166.581 191.449 167.034 191.449C167.588 191.449 168.064 191.369 168.495 191.301C168.269 194.591 168.269 199.379 168.269 199.9C168.269 203.077 168.371 204.834 169.367 206.07C170.171 207.081 171.815 207.705 173.389 207.705C174.091 207.705 177.511 207.557 178.339 204.03C178.747 202.317 178.77 199.481 178.77 198.845C178.77 197.892 178.667 192.934 178.418 191.301C178.747 191.369 179.017 191.449 179.597 191.449C180.15 191.449 180.401 191.369 180.706 191.301C180.378 193.592 180.275 196.463 180.275 200.184C180.275 202.623 180.15 205.346 178.463 207.081Z" fill="#14477D"/>
<path d="M159.292 199.957C159.292 198.641 159.065 196.609 158.181 195.124C156.834 192.831 154.296 192.151 152.586 192.151C149.244 192.151 145.869 194.42 145.869 200.103C145.869 205.016 148.633 208.011 152.506 208.011C156.472 208.011 159.292 205.117 159.292 199.957ZM152.71 191.074C157.956 191.074 162.158 194.17 162.158 199.831C162.158 205.084 158.442 209.088 152.45 209.088C146.979 209.088 143.015 205.72 143.015 200.125C143.015 194.772 146.549 191.074 152.71 191.074Z" fill="#14477D"/>
<path d="M140.173 202.511C140.173 205.572 138.021 209.089 132.777 209.089C130.84 209.089 128.947 208.613 127.419 207.467C127.861 205.958 127.918 205.075 127.951 204.688H128.336C129.185 206.47 130.919 207.762 133.252 207.762C136.344 207.762 137.613 205.732 137.613 203.838C137.613 201.454 135.925 200.558 133.955 199.765C130.511 198.323 130.126 198.177 129.333 197.472C128.336 196.646 127.861 195.17 127.861 193.81C127.861 190.008 130.919 188.092 134.396 188.092C136.696 188.092 138.701 188.975 139.402 189.44C139.165 189.884 138.644 191.065 138.554 192.073H138.135C137.761 190.949 136.752 189.327 134.045 189.327C130.84 189.327 130.274 191.687 130.274 192.719C130.274 195.046 132.222 195.84 133.717 196.44C136.934 197.678 137.489 197.882 138.52 198.733C139.879 199.832 140.173 201.387 140.173 202.511Z" fill="#14477D"/>
<path d="M120.057 208.566C118.12 208.566 116.161 208.633 114.224 208.713C114.382 206.818 114.507 205.186 114.507 199.707C114.507 197.187 114.45 193.784 114.303 191.322C116.058 191.47 117.792 191.47 119.558 191.47C120.839 191.47 122.097 191.449 123.376 191.322C123.331 191.595 123.274 191.878 123.274 192.208C123.274 192.559 123.331 192.751 123.376 193.013C122.447 192.831 121.564 192.685 119.378 192.685C118.472 192.685 118.018 192.685 116.942 192.729C116.898 193.717 116.898 194.136 116.898 195.623C116.898 197.256 116.898 197.561 116.92 198.899C118.902 198.924 120.885 198.946 122.844 198.72C122.798 199.004 122.741 199.218 122.741 199.582C122.741 199.855 122.821 200.081 122.844 200.353C121.541 200.182 120.035 200.103 118.959 200.103C118.279 200.103 117.542 200.124 116.92 200.149C116.898 201.237 116.862 202.371 116.862 203.451C116.862 204.767 116.92 206.672 116.942 207.352C118.551 207.352 120.59 207.352 123.546 207.047C123.501 207.33 123.455 207.556 123.455 207.908C123.455 208.259 123.501 208.465 123.546 208.713C122.391 208.566 121.213 208.566 120.057 208.566Z" fill="#14477D"/>
<path d="M109.659 202.089C109.659 204.052 109.659 207.082 109.76 208.863C109.557 208.84 109.432 208.817 109.285 208.817C109.149 208.817 109.058 208.84 108.877 208.863C108.096 207.91 104.335 203.7 102.568 202.068C102.149 201.671 101.718 201.239 101.288 200.808L96.3942 195.704V197.29C96.4625 203.372 96.564 204.813 96.7906 208.714C96.4853 208.634 96.1904 208.568 95.7371 208.568C95.2848 208.568 95.0573 208.634 94.752 208.714C94.8762 207.456 95.08 203.122 95.08 200.514C95.08 199.504 95.0127 195.126 95.0127 194.217V191.199C95.1597 191.222 95.2848 191.244 95.4091 191.244C95.556 191.244 95.7144 191.222 95.9419 191.199L96.7688 192.174C97.4477 192.959 98.0479 193.639 99.5774 195.249C104.607 200.559 105.161 201.159 108.344 204.416V203.474C108.344 197.064 108.344 194.853 108.028 191.199C108.299 191.269 108.605 191.348 109.002 191.348C109.409 191.348 109.76 191.269 110.089 191.199C109.659 194.817 109.659 198.471 109.659 202.089Z" fill="#14477D"/>
<path d="M80.615 188.057H80.4452C73.3318 188.124 69.2422 192.435 69.2422 198.674C69.2422 205.219 73.8979 209.179 80.321 209.179H80.3997C87.3548 209.146 91.6815 204.459 91.6815 198.322C91.6815 191.686 86.766 188.057 80.615 188.057ZM80.377 207.909C75.8351 207.909 72.595 204.404 72.595 198.641C72.595 191.981 76.5481 189.326 80.468 189.326C82.4611 189.326 85.4404 190.122 87.0258 192.81C88.0574 194.544 88.3286 196.939 88.3286 198.47C88.3286 204.517 85.0327 207.909 80.377 207.909Z" fill="#14477D"/>
<path d="M105.996 175.846C99.229 176.84 92.5006 178.202 85.8973 180.106C82.5965 181.058 79.329 182.146 76.1175 183.42C72.8936 184.726 69.7835 186.088 66.6828 188.047C66.679 188.047 66.6686 188.055 66.6648 188.057C65.9299 188.535 65.7232 189.516 66.1992 190.253C66.6762 190.989 67.6585 191.197 68.3934 190.72L68.4683 190.671C71.0929 188.964 74.2059 187.517 77.2572 186.249C80.3427 184.977 83.5116 183.877 86.7231 182.909C93.1482 180.967 99.743 179.543 106.397 178.482C119.718 176.373 133.271 175.711 146.792 175.966C160.321 176.228 173.836 177.43 187.26 179.286C200.683 181.153 214.021 183.681 227.244 186.702C227.547 186.772 227.849 186.585 227.921 186.282C227.994 185.978 227.807 185.672 227.504 185.6C214.29 182.405 200.949 179.699 187.495 177.66C174.042 175.626 160.472 174.245 146.847 173.809C143.885 173.716 140.92 173.668 137.952 173.668C127.28 173.668 116.593 174.305 105.996 175.846Z" fill="url(#paint0_linear_1617_43459)"/>
<path d="M70.571 219.758C70.571 218.994 70.5354 218.223 70.5 217.459C70.7836 217.486 71.076 217.503 71.3596 217.503C71.6432 217.503 72.2104 217.459 72.4586 217.459C72.9904 217.459 74.3996 217.477 74.3996 218.959C74.3996 220.521 72.8664 220.823 72.0156 220.823C71.7496 220.823 71.528 220.814 71.2976 220.796V221.285C71.2976 222.048 71.3332 222.82 71.3686 223.583C71.2178 223.557 71.076 223.539 70.9342 223.539C70.7924 223.539 70.6506 223.557 70.5 223.583C70.5354 222.82 70.571 222.048 70.571 221.285V219.758ZM71.2976 220.423C71.4838 220.468 71.732 220.495 71.9268 220.495C72.6536 220.495 73.5842 220.22 73.5842 219.013C73.5842 218.001 73.0082 217.788 72.0952 217.788H71.2976V220.423Z" fill="#58595B"/>
<path d="M76.5811 219.252C77.8219 219.252 78.4157 220.077 78.4157 221.063C78.4157 221.178 78.4069 221.293 78.3981 221.409C77.7599 221.4 77.1307 221.382 76.5015 221.382C76.1115 221.382 75.7303 221.4 75.3406 221.409C75.3315 221.497 75.3315 221.577 75.3315 221.657C75.3315 222.58 75.8811 223.299 76.8647 223.299C77.3345 223.299 77.8839 223.024 78.1941 222.669L78.2385 222.695L78.1853 223.13C77.8309 223.414 77.2547 223.672 76.7053 223.672C75.4291 223.672 74.5518 222.767 74.5518 221.586C74.5518 220.149 75.2786 219.252 76.5811 219.252ZM75.3581 221.071C75.7215 221.08 76.1381 221.098 76.5103 221.098C76.9003 221.098 77.3167 221.08 77.6891 221.071C77.6891 220.441 77.5207 219.536 76.5989 219.536C75.7303 219.536 75.4025 220.433 75.3581 221.071Z" fill="#58595B"/>
<path d="M81.377 220.068C81.315 219.997 81.12 219.927 80.9428 219.927C80.3756 219.927 80.0388 220.468 80.0388 221.16C80.0388 222.705 80.0388 223.175 80.0742 223.583C79.959 223.557 79.835 223.539 79.7198 223.539C79.5959 223.539 79.4804 223.557 79.3477 223.583C79.383 223.148 79.383 222.456 79.383 221.462V221.178C79.383 220.717 79.383 220.104 79.3477 219.34C79.4804 219.367 79.5959 219.385 79.7198 219.385C79.835 219.385 79.959 219.367 80.0742 219.34C80.03 219.767 80.03 219.98 80.03 220.202L80.0476 220.211C80.3844 219.571 80.8098 219.252 81.2176 219.252C81.3238 219.252 81.386 219.261 81.5012 219.305C81.439 219.447 81.439 219.784 81.439 220.024L81.377 220.068Z" fill="#58595B"/>
<path d="M82.256 222.731C82.3802 222.971 82.7612 223.344 83.2574 223.344C83.7006 223.344 84.1172 223.068 84.1172 222.545C84.1172 221.444 82.0256 222.092 82.0256 220.592C82.0256 219.82 82.5574 219.252 83.4968 219.252C83.931 219.252 84.2058 219.412 84.4806 219.5C84.383 219.669 84.2856 219.997 84.2678 220.13H84.1614C84.0728 219.846 83.7804 219.58 83.3816 219.58C83.036 219.58 82.6282 219.802 82.6282 220.326C82.6282 221.48 84.7198 220.77 84.7198 222.27C84.7198 222.944 84.1082 223.672 83.1246 223.672C82.584 223.672 82.2294 223.521 81.9814 223.379C82.0522 223.228 82.1496 222.909 82.1496 222.731H82.256Z" fill="#58595B"/>
<path d="M87.5393 219.252C88.5673 219.252 89.6929 219.846 89.6929 221.462C89.6929 223.077 88.5673 223.672 87.5393 223.672C86.5113 223.672 85.3857 223.077 85.3857 221.462C85.3857 219.846 86.5113 219.252 87.5393 219.252ZM87.5393 223.388C88.5851 223.388 88.9129 222.456 88.9129 221.462C88.9129 220.468 88.5851 219.536 87.5393 219.536C86.4935 219.536 86.1655 220.468 86.1655 221.462C86.1655 222.456 86.4935 223.388 87.5393 223.388Z" fill="#58595B"/>
<path d="M92.6009 219.713C91.7767 219.713 91.4043 220.246 91.4043 221.169V221.924C91.4043 222.456 91.4221 223.077 91.4753 223.583C91.3423 223.557 91.2095 223.539 91.0765 223.539C90.9435 223.539 90.8105 223.557 90.6777 223.583C90.7309 223.077 90.7485 222.456 90.7485 221.924V221.001C90.7485 220.468 90.7309 219.846 90.6777 219.34C90.8105 219.367 90.9435 219.385 91.0765 219.385C91.1651 219.385 91.2981 219.367 91.4309 219.34C91.4133 219.58 91.4043 219.811 91.4043 220.051H91.4221C91.7501 219.545 92.2019 219.252 92.8401 219.252C93.4959 219.252 94.2581 219.571 94.2581 220.796C94.2581 221.302 94.2227 221.835 94.2227 222.438C94.2227 222.829 94.2227 223.201 94.2403 223.583C94.1075 223.557 93.9923 223.539 93.8681 223.539C93.7441 223.539 93.6289 223.557 93.5047 223.583C93.5225 222.935 93.5669 222.287 93.5669 221.604V221.063C93.5669 220.192 93.1857 219.713 92.6009 219.713Z" fill="#58595B"/>
<path d="M95.6957 219.767C96.2275 219.367 96.6529 219.252 97.1224 219.252C97.9732 219.252 98.5582 219.776 98.5582 220.565C98.5582 221.231 98.5229 221.888 98.5229 222.633C98.5229 222.926 98.5229 223.29 98.8684 223.29C98.9217 223.29 98.9924 223.29 99.0544 223.255V223.45C98.9304 223.503 98.7176 223.574 98.4872 223.574C98.1062 223.574 97.9112 223.326 97.8759 223.024C97.4505 223.45 97.0871 223.672 96.4845 223.672C95.8907 223.672 95.3057 223.255 95.3057 222.58C95.3057 221.87 95.7843 221.488 96.5552 221.364C97.8402 221.16 97.8846 221.089 97.8846 220.743C97.8846 220.149 97.6189 219.624 96.9099 219.624C96.4401 219.624 95.9971 219.846 95.7931 220.228H95.6957V219.767ZM97.8846 221.347C97.273 221.551 96.0325 221.488 96.0325 222.456C96.0325 223.015 96.4135 223.299 96.8035 223.299C97.2555 223.299 97.6455 223.006 97.8493 222.678L97.8846 221.347Z" fill="#58595B"/>
<path d="M100.27 219.421C100.27 218.605 100.252 217.46 100.199 216.865C100.332 216.892 100.465 216.91 100.598 216.91C100.731 216.91 100.864 216.892 100.997 216.865C100.944 217.46 100.926 218.605 100.926 219.421V221.028C100.926 221.844 100.944 222.99 100.997 223.584C100.864 223.558 100.731 223.539 100.598 223.539C100.465 223.539 100.332 223.558 100.199 223.584C100.252 222.99 100.27 221.844 100.27 221.028V219.421Z" fill="#58595B"/>
<path d="M103.063 217.344C103.311 217.344 103.515 217.548 103.515 217.796C103.515 218.045 103.311 218.249 103.063 218.249C102.815 218.249 102.611 218.045 102.611 217.796C102.611 217.548 102.815 217.344 103.063 217.344ZM102.735 221.001C102.735 220.468 102.717 219.847 102.664 219.341C102.797 219.368 102.93 219.385 103.063 219.385C103.196 219.385 103.329 219.368 103.462 219.341C103.409 219.847 103.391 220.468 103.391 221.001V221.924C103.391 222.456 103.409 223.077 103.462 223.583C103.329 223.557 103.196 223.539 103.063 223.539C102.93 223.539 102.797 223.557 102.664 223.583C102.717 223.077 102.735 222.456 102.735 221.924V221.001Z" fill="#58595B"/>
<path d="M104.598 223.458C105.617 222.225 106.813 220.574 107.451 219.713C107.283 219.713 105.723 219.784 105.05 219.846C105.067 219.766 105.076 219.686 105.076 219.597C105.076 219.517 105.067 219.438 105.05 219.34C105.422 219.376 106.175 219.384 107.265 219.384C107.77 219.384 108.054 219.376 108.426 219.34V219.473C107.478 220.707 106.051 222.589 105.608 223.21C106.574 223.21 107.141 223.201 108.382 223.085C108.364 223.166 108.346 223.254 108.346 223.334C108.346 223.414 108.364 223.503 108.382 223.583C107.646 223.565 106.902 223.538 106.166 223.538C105.643 223.538 105.12 223.565 104.598 223.583V223.458Z" fill="#58595B"/>
<path d="M111.069 219.252C112.309 219.252 112.903 220.077 112.903 221.063C112.903 221.178 112.894 221.293 112.885 221.409C112.247 221.4 111.618 221.382 110.989 221.382C110.599 221.382 110.218 221.4 109.828 221.409C109.819 221.497 109.819 221.577 109.819 221.657C109.819 222.58 110.368 223.299 111.352 223.299C111.822 223.299 112.371 223.024 112.681 222.669L112.726 222.695L112.673 223.13C112.318 223.414 111.742 223.672 111.193 223.672C109.916 223.672 109.039 222.767 109.039 221.586C109.039 220.149 109.766 219.252 111.069 219.252ZM109.845 221.071C110.209 221.08 110.625 221.098 110.998 221.098C111.388 221.098 111.804 221.08 112.176 221.071C112.176 220.441 112.008 219.536 111.086 219.536C110.218 219.536 109.89 220.433 109.845 221.071Z" fill="#58595B"/>
<path d="M116.848 222.714H116.83C116.653 223.087 116.201 223.673 115.332 223.673C114.437 223.673 113.533 223.016 113.533 221.489C113.533 219.981 114.517 219.253 115.439 219.253C116.094 219.253 116.555 219.563 116.803 220.14H116.821C116.821 219.022 116.821 217.628 116.786 216.865C116.928 216.883 117.06 216.91 117.185 216.91C117.309 216.91 117.433 216.883 117.583 216.865C117.504 217.611 117.477 219.936 117.477 221.454C117.477 222.262 117.495 222.874 117.504 223.584C117.371 223.566 117.264 223.539 117.158 223.539C117.052 223.539 116.945 223.566 116.821 223.584L116.848 222.714ZM115.536 223.344C116.458 223.344 116.857 222.341 116.857 221.374C116.857 220.255 116.405 219.625 115.563 219.625C114.712 219.625 114.313 220.469 114.313 221.543C114.313 222.963 114.96 223.344 115.536 223.344Z" fill="#58595B"/>
<path d="M149.038 222.403C149.232 222.82 149.675 223.326 150.438 223.326C151.226 223.326 151.705 222.749 151.705 222.039C151.705 220.406 148.914 221.107 148.914 219.021C148.914 218.036 149.658 217.344 150.837 217.344C151.395 217.344 151.793 217.477 152.148 217.761C152.042 217.965 151.98 218.169 151.909 218.507H151.803C151.678 218.178 151.413 217.672 150.748 217.672C150.083 217.672 149.605 218.125 149.605 218.773C149.605 220.433 152.396 219.74 152.396 221.702C152.396 222.785 151.59 223.699 150.225 223.699C149.49 223.699 149.073 223.442 148.763 223.193C148.869 222.918 148.895 222.74 148.931 222.403H149.038Z" fill="#58595B"/>
<path d="M153.496 220.751C153.496 220.334 153.487 219.837 153.479 219.34C153.602 219.367 153.736 219.384 153.851 219.384C153.966 219.384 154.09 219.367 154.214 219.34C154.161 220.033 154.125 220.937 154.125 221.808C154.125 222.42 154.25 222.713 154.4 222.882C154.568 223.068 154.817 223.21 155.163 223.21C155.658 223.21 155.995 222.961 156.146 222.642C156.323 222.26 156.332 222.189 156.332 220.796C156.332 220.317 156.332 219.766 156.314 219.34C156.438 219.367 156.554 219.384 156.687 219.384C156.82 219.384 156.935 219.367 157.05 219.34C156.997 220.263 156.988 221.097 156.988 222.038C156.988 222.562 156.997 223.085 157.024 223.583C156.909 223.556 156.793 223.538 156.678 223.538C156.562 223.538 156.447 223.556 156.332 223.583C156.35 223.325 156.35 223.068 156.35 222.819H156.332C156.031 223.369 155.508 223.672 154.95 223.672C154.028 223.672 153.47 223.139 153.47 222.216C153.47 221.594 153.496 221.186 153.496 220.751Z" fill="#58595B"/>
<path d="M158.301 221.924C158.301 221.107 158.284 219.962 158.23 219.34C158.363 219.367 158.497 219.385 158.629 219.385C158.762 219.385 158.895 219.367 159.028 219.34C158.984 219.651 158.957 219.927 158.957 220.211H158.975C159.152 219.838 159.578 219.252 160.472 219.252C161.376 219.252 162.28 219.908 162.28 221.435C162.28 222.944 161.297 223.672 160.366 223.672C159.71 223.672 159.25 223.361 158.975 222.802H158.957V223.361C158.957 224.178 158.975 225.323 159.028 225.917C158.895 225.891 158.762 225.873 158.629 225.873C158.497 225.873 158.363 225.891 158.23 225.917C158.284 225.323 158.301 224.178 158.301 223.361V221.924ZM160.278 219.624C159.32 219.624 158.957 220.477 158.957 221.497C158.957 222.713 159.409 223.344 160.251 223.344C161.102 223.344 161.501 222.5 161.501 221.426C161.501 220.006 160.854 219.624 160.278 219.624Z" fill="#58595B"/>
<path d="M163.231 221.924C163.231 221.107 163.213 219.962 163.16 219.34C163.293 219.367 163.426 219.385 163.559 219.385C163.692 219.385 163.825 219.367 163.958 219.34C163.913 219.651 163.887 219.927 163.887 220.211H163.905C164.082 219.838 164.507 219.252 165.402 219.252C166.306 219.252 167.21 219.908 167.21 221.435C167.21 222.944 166.227 223.672 165.296 223.672C164.64 223.672 164.179 223.361 163.905 222.802H163.887V223.361C163.887 224.178 163.905 225.323 163.958 225.917C163.825 225.891 163.692 225.873 163.559 225.873C163.426 225.873 163.293 225.891 163.16 225.917C163.213 225.323 163.231 224.178 163.231 223.361V221.924ZM165.207 219.624C164.25 219.624 163.887 220.477 163.887 221.497C163.887 222.713 164.339 223.344 165.181 223.344C166.032 223.344 166.431 222.5 166.431 221.426C166.431 220.006 165.783 219.624 165.207 219.624Z" fill="#58595B"/>
<path d="M170.048 219.252C171.077 219.252 172.202 219.846 172.202 221.462C172.202 223.077 171.077 223.672 170.048 223.672C169.02 223.672 167.895 223.077 167.895 221.462C167.895 219.846 169.02 219.252 170.048 219.252ZM170.048 223.388C171.094 223.388 171.422 222.456 171.422 221.462C171.422 220.468 171.094 219.536 170.048 219.536C169.003 219.536 168.675 220.468 168.675 221.462C168.675 222.456 169.003 223.388 170.048 223.388Z" fill="#58595B"/>
<path d="M175.217 220.068C175.155 219.997 174.96 219.927 174.783 219.927C174.215 219.927 173.879 220.468 173.879 221.16C173.879 222.705 173.879 223.175 173.914 223.583C173.799 223.557 173.675 223.539 173.559 223.539C173.435 223.539 173.32 223.557 173.188 223.583C173.223 223.148 173.223 222.456 173.223 221.462V221.178C173.223 220.717 173.223 220.104 173.188 219.34C173.32 219.367 173.435 219.385 173.559 219.385C173.675 219.385 173.799 219.367 173.914 219.34C173.87 219.767 173.87 219.98 173.87 220.202L173.887 220.211C174.224 219.571 174.65 219.252 175.057 219.252C175.164 219.252 175.226 219.261 175.341 219.305C175.279 219.447 175.279 219.784 175.279 220.024L175.217 220.068Z" fill="#58595B"/>
<path d="M176.901 218.152H176.945C176.91 218.596 176.892 219.031 176.875 219.466C176.999 219.466 177.406 219.457 177.814 219.439C177.805 219.502 177.805 219.564 177.805 219.626C177.805 219.688 177.805 219.75 177.814 219.812C177.504 219.794 177.087 219.794 176.875 219.794C176.857 219.883 176.813 221.277 176.813 222.049C176.813 222.715 176.83 223.389 177.53 223.389C177.628 223.389 177.814 223.362 177.929 223.327V223.54C177.725 223.611 177.468 223.673 177.247 223.673C176.511 223.673 176.157 223.256 176.157 222.564C176.157 221.916 176.21 221.117 176.219 219.794C176.041 219.794 175.847 219.794 175.616 219.812C175.625 219.741 175.634 219.679 175.634 219.608C175.634 219.546 175.625 219.493 175.616 219.431C175.882 219.448 176.077 219.457 176.201 219.457C176.192 219.226 176.183 218.845 176.165 218.463L176.901 218.152Z" fill="#58595B"/>
<path d="M182.947 217.601C182.806 217.513 182.637 217.468 182.46 217.468C181.937 217.468 181.733 217.894 181.733 218.356C181.733 218.569 181.787 219.03 181.839 219.394C182.141 219.394 182.451 219.385 182.753 219.385C182.743 219.447 182.735 219.509 182.735 219.563C182.735 219.625 182.743 219.687 182.753 219.74C182.451 219.731 182.141 219.714 181.839 219.714C181.839 221.001 181.839 222.279 181.875 223.584C181.751 223.557 181.618 223.539 181.494 223.539C181.37 223.539 181.237 223.557 181.104 223.584C181.184 222.279 181.184 221.01 181.184 219.714C180.971 219.714 180.758 219.731 180.546 219.74C180.555 219.687 180.563 219.625 180.563 219.563C180.563 219.509 180.555 219.447 180.546 219.385C180.758 219.385 180.98 219.394 181.184 219.394C181.184 218.702 181.485 217.717 181.955 217.246C182.167 217.033 182.522 216.838 182.859 216.838C182.912 216.838 182.983 216.847 183.036 216.865C183.027 217.104 183.001 217.344 183.001 217.575L182.947 217.601Z" fill="#58595B"/>
<path d="M185.563 220.068C185.501 219.997 185.306 219.927 185.128 219.927C184.561 219.927 184.224 220.468 184.224 221.16C184.224 222.705 184.224 223.175 184.26 223.583C184.145 223.557 184.02 223.539 183.905 223.539C183.781 223.539 183.666 223.557 183.533 223.583C183.568 223.148 183.568 222.456 183.568 221.462V221.178C183.568 220.717 183.568 220.104 183.533 219.34C183.666 219.367 183.781 219.385 183.905 219.385C184.02 219.385 184.145 219.367 184.26 219.34C184.216 219.767 184.216 219.98 184.216 220.202L184.233 220.211C184.57 219.571 184.996 219.252 185.403 219.252C185.51 219.252 185.572 219.261 185.687 219.305C185.625 219.447 185.625 219.784 185.625 220.024L185.563 220.068Z" fill="#58595B"/>
<path d="M188.275 219.252C189.303 219.252 190.428 219.846 190.428 221.462C190.428 223.077 189.303 223.672 188.275 223.672C187.247 223.672 186.121 223.077 186.121 221.462C186.121 219.846 187.247 219.252 188.275 219.252ZM188.275 223.388C189.321 223.388 189.649 222.456 189.649 221.462C189.649 220.468 189.321 219.536 188.275 219.536C187.229 219.536 186.901 220.468 186.901 221.462C186.901 222.456 187.229 223.388 188.275 223.388Z" fill="#58595B"/>
<path d="M191.432 221.001C191.432 220.468 191.415 219.846 191.361 219.34C191.494 219.367 191.627 219.385 191.76 219.385C191.849 219.385 191.982 219.367 192.114 219.34C192.097 219.58 192.088 219.811 192.088 220.051H192.106C192.425 219.509 192.859 219.252 193.426 219.252C194.029 219.252 194.587 219.624 194.711 220.13H194.729C195.012 219.562 195.526 219.252 196.156 219.252C196.927 219.252 197.512 219.651 197.512 220.654C197.512 221.063 197.458 221.569 197.458 222.616C197.458 222.935 197.458 223.21 197.485 223.583C197.361 223.557 197.237 223.539 197.104 223.539C196.971 223.539 196.839 223.557 196.714 223.583C196.75 223.255 196.803 222.367 196.803 220.779C196.803 220.184 196.572 219.713 195.872 219.713C195.447 219.713 195.146 219.908 194.986 220.13C194.8 220.397 194.773 220.486 194.773 222.172C194.773 222.687 194.791 223.033 194.818 223.583C194.685 223.557 194.552 223.539 194.428 223.539C194.304 223.539 194.17 223.557 194.038 223.583C194.091 222.917 194.118 222.216 194.118 221.569C194.118 220.468 194.108 220.397 193.958 220.122C193.834 219.9 193.515 219.713 193.223 219.713C192.46 219.713 192.088 220.246 192.088 221.169V221.924C192.088 222.456 192.106 223.077 192.159 223.583C192.026 223.557 191.893 223.539 191.76 223.539C191.627 223.539 191.494 223.557 191.361 223.583C191.415 223.077 191.432 222.456 191.432 221.924V221.001Z" fill="#58595B"/>
<path d="M203.355 217.344C204.224 219.403 205.553 222.634 206.023 223.583C205.863 223.557 205.713 223.539 205.553 223.539C205.393 223.539 205.243 223.557 205.083 223.583C204.915 222.971 204.49 221.995 204.171 221.205C203.789 221.196 203.399 221.187 203.009 221.187C202.646 221.187 202.292 221.196 201.928 221.205C201.556 222.119 201.219 223.024 201.069 223.583C200.953 223.557 200.847 223.539 200.741 223.539C200.635 223.539 200.528 223.557 200.413 223.583C201.361 221.506 202.283 219.438 203.187 217.344H203.355ZM203.063 218.542L202.097 220.796C202.407 220.796 202.744 220.814 203.054 220.814C203.382 220.814 203.719 220.805 204.047 220.796L203.063 218.542Z" fill="#58595B"/>
<path d="M207.08 219.421C207.08 218.605 207.062 217.46 207.009 216.865C207.142 216.892 207.274 216.91 207.408 216.91C207.54 216.91 207.673 216.892 207.806 216.865C207.753 217.46 207.735 218.605 207.735 219.421V221.028C207.735 221.844 207.753 222.99 207.806 223.584C207.673 223.558 207.54 223.539 207.408 223.539C207.274 223.539 207.142 223.558 207.009 223.584C207.062 222.99 207.08 221.844 207.08 221.028V219.421Z" fill="#58595B"/>
<path d="M210.98 219.252C212.221 219.252 212.815 220.077 212.815 221.063C212.815 221.178 212.805 221.293 212.797 221.409C212.159 221.4 211.529 221.382 210.9 221.382C210.51 221.382 210.129 221.4 209.739 221.409C209.73 221.497 209.73 221.577 209.73 221.657C209.73 222.58 210.28 223.299 211.263 223.299C211.733 223.299 212.283 223.024 212.593 222.669L212.637 222.695L212.584 223.13C212.229 223.414 211.653 223.672 211.104 223.672C209.828 223.672 208.95 222.767 208.95 221.586C208.95 220.149 209.677 219.252 210.98 219.252ZM209.757 221.071C210.12 221.08 210.537 221.098 210.909 221.098C211.299 221.098 211.715 221.08 212.088 221.071C212.088 220.441 211.919 219.536 210.998 219.536C210.129 219.536 209.801 220.433 209.757 221.071Z" fill="#58595B"/>
<path d="M216.592 219.34C216.698 219.367 216.796 219.384 216.902 219.384C216.999 219.384 217.097 219.367 217.203 219.34C216.636 219.988 216.095 220.618 215.572 221.257C216.104 222.029 216.681 222.81 217.283 223.583C217.133 223.556 216.982 223.538 216.831 223.538C216.681 223.538 216.53 223.556 216.379 223.583C215.989 222.979 215.572 222.376 215.147 221.772C214.713 222.376 214.287 222.979 213.888 223.583C213.791 223.556 213.694 223.538 213.596 223.538C213.498 223.538 213.393 223.556 213.295 223.583C213.862 222.89 214.402 222.198 214.935 221.505C214.412 220.787 213.871 220.068 213.304 219.34C213.463 219.367 213.614 219.384 213.773 219.384C213.933 219.384 214.084 219.367 214.243 219.34C214.58 219.899 214.961 220.45 215.368 221C215.794 220.45 216.202 219.899 216.592 219.34Z" fill="#58595B"/>
<path d="M218.738 217.344C218.986 217.344 219.19 217.548 219.19 217.796C219.19 218.045 218.986 218.249 218.738 218.249C218.49 218.249 218.286 218.045 218.286 217.796C218.286 217.548 218.49 217.344 218.738 217.344ZM218.41 221.001C218.41 220.468 218.393 219.847 218.339 219.341C218.472 219.368 218.605 219.385 218.738 219.385C218.871 219.385 219.004 219.368 219.137 219.341C219.084 219.847 219.066 220.468 219.066 221.001V221.924C219.066 222.456 219.084 223.077 219.137 223.583C219.004 223.557 218.871 223.539 218.738 223.539C218.605 223.539 218.472 223.557 218.339 223.583C218.393 223.077 218.41 222.456 218.41 221.924V221.001Z" fill="#58595B"/>
<path d="M222.434 219.252C223.462 219.252 224.587 219.846 224.587 221.462C224.587 223.077 223.462 223.672 222.434 223.672C221.406 223.672 220.28 223.077 220.28 221.462C220.28 219.846 221.406 219.252 222.434 219.252ZM222.434 223.388C223.48 223.388 223.808 222.456 223.808 221.462C223.808 220.468 223.48 219.536 222.434 219.536C221.388 219.536 221.06 220.468 221.06 221.462C221.06 222.456 221.388 223.388 222.434 223.388Z" fill="#58595B"/>
<path d="M227.496 219.713C226.672 219.713 226.3 220.246 226.3 221.169V221.924C226.3 222.456 226.318 223.077 226.371 223.583C226.238 223.557 226.105 223.539 225.972 223.539C225.839 223.539 225.706 223.557 225.573 223.583C225.626 223.077 225.644 222.456 225.644 221.924V221.001C225.644 220.468 225.626 219.846 225.573 219.34C225.706 219.367 225.839 219.385 225.972 219.385C226.06 219.385 226.194 219.367 226.326 219.34C226.309 219.58 226.3 219.811 226.3 220.051H226.318C226.646 219.545 227.098 219.252 227.736 219.252C228.392 219.252 229.154 219.571 229.154 220.796C229.154 221.302 229.118 221.835 229.118 222.438C229.118 222.829 229.118 223.201 229.136 223.583C229.003 223.557 228.888 223.539 228.764 223.539C228.64 223.539 228.524 223.557 228.4 223.583C228.418 222.935 228.462 222.287 228.462 221.604V221.063C228.462 220.192 228.081 219.713 227.496 219.713Z" fill="#58595B"/>
<path d="M121.412 219.703C121.412 218.929 121.376 218.146 121.34 217.371C121.628 217.398 121.924 217.416 122.212 217.416C122.5 217.416 123.075 217.371 123.327 217.371C123.866 217.371 125.296 217.389 125.296 218.893C125.296 220.478 123.741 220.784 122.877 220.784C122.608 220.784 122.383 220.775 122.149 220.757V221.252C122.149 222.027 122.185 222.81 122.221 223.584C122.068 223.557 121.924 223.539 121.78 223.539C121.637 223.539 121.493 223.557 121.34 223.584C121.376 222.81 121.412 222.027 121.412 221.252V219.703ZM122.149 220.378C122.338 220.423 122.59 220.451 122.788 220.451C123.525 220.451 124.469 220.171 124.469 218.947C124.469 217.92 123.884 217.704 122.958 217.704H122.149V220.378Z" fill="#58595B"/>
<path d="M125.422 219.711C125.962 219.306 126.393 219.189 126.87 219.189C127.733 219.189 128.326 219.721 128.326 220.522C128.326 221.197 128.29 221.864 128.29 222.62C128.29 222.917 128.29 223.287 128.641 223.287C128.695 223.287 128.767 223.287 128.83 223.251V223.449C128.704 223.503 128.488 223.575 128.254 223.575C127.868 223.575 127.67 223.322 127.634 223.016C127.202 223.449 126.834 223.674 126.222 223.674C125.62 223.674 125.026 223.251 125.026 222.566C125.026 221.846 125.512 221.459 126.294 221.332C127.598 221.125 127.643 221.053 127.643 220.702C127.643 220.099 127.373 219.568 126.654 219.568C126.177 219.568 125.728 219.793 125.521 220.18H125.422V219.711ZM127.643 221.315C127.023 221.522 125.764 221.459 125.764 222.44C125.764 223.007 126.15 223.296 126.546 223.296C127.005 223.296 127.4 222.999 127.607 222.665L127.643 221.315Z" fill="#58595B"/>
<path d="M130.548 218.074H130.593C130.557 218.525 130.539 218.966 130.521 219.407C130.647 219.407 131.06 219.398 131.474 219.38C131.465 219.443 131.465 219.506 131.465 219.569C131.465 219.632 131.465 219.696 131.474 219.758C131.159 219.741 130.737 219.741 130.521 219.741C130.503 219.831 130.458 221.244 130.458 222.028C130.458 222.703 130.476 223.387 131.186 223.387C131.285 223.387 131.474 223.36 131.591 223.324V223.54C131.384 223.612 131.123 223.675 130.898 223.675C130.152 223.675 129.792 223.252 129.792 222.55C129.792 221.893 129.846 221.082 129.855 219.741C129.676 219.741 129.478 219.741 129.244 219.758C129.253 219.686 129.262 219.623 129.262 219.551C129.262 219.488 129.253 219.434 129.244 219.371C129.514 219.389 129.712 219.398 129.837 219.398C129.829 219.164 129.82 218.777 129.802 218.39L130.548 218.074Z" fill="#58595B"/>
<path d="M132.787 217.254C133.039 217.254 133.245 217.461 133.245 217.713C133.245 217.966 133.039 218.173 132.787 218.173C132.535 218.173 132.328 217.966 132.328 217.713C132.328 217.461 132.535 217.254 132.787 217.254ZM132.454 220.964C132.454 220.424 132.436 219.794 132.382 219.28C132.517 219.307 132.652 219.325 132.787 219.325C132.922 219.325 133.056 219.307 133.191 219.28C133.138 219.794 133.12 220.424 133.12 220.964V221.901C133.12 222.441 133.138 223.071 133.191 223.585C133.056 223.558 132.922 223.54 132.787 223.54C132.652 223.54 132.517 223.558 132.382 223.585C132.436 223.071 132.454 222.441 132.454 221.901V220.964Z" fill="#58595B"/>
<path d="M136.357 219.189C137.616 219.189 138.218 220.027 138.218 221.027C138.218 221.143 138.209 221.26 138.2 221.377C137.553 221.369 136.915 221.35 136.276 221.35C135.88 221.35 135.494 221.369 135.098 221.377C135.089 221.468 135.089 221.549 135.089 221.63C135.089 222.566 135.647 223.296 136.645 223.296C137.121 223.296 137.679 223.016 137.993 222.656L138.038 222.683L137.985 223.124C137.625 223.413 137.04 223.674 136.483 223.674C135.188 223.674 134.298 222.755 134.298 221.558C134.298 220.099 135.035 219.189 136.357 219.189ZM135.116 221.035C135.485 221.044 135.907 221.062 136.285 221.062C136.681 221.062 137.103 221.044 137.481 221.035C137.481 220.396 137.31 219.478 136.375 219.478C135.494 219.478 135.161 220.387 135.116 221.035Z" fill="#58595B"/>
<path d="M141.06 219.658C140.224 219.658 139.847 220.198 139.847 221.135V221.9C139.847 222.44 139.865 223.071 139.919 223.584C139.784 223.557 139.649 223.539 139.514 223.539C139.379 223.539 139.244 223.557 139.109 223.584C139.163 223.071 139.181 222.44 139.181 221.9V220.963C139.181 220.423 139.163 219.793 139.109 219.279C139.244 219.306 139.379 219.324 139.514 219.324C139.604 219.324 139.739 219.306 139.874 219.279C139.856 219.523 139.847 219.756 139.847 220H139.865C140.197 219.486 140.656 219.189 141.303 219.189C141.969 219.189 142.742 219.513 142.742 220.756C142.742 221.27 142.706 221.81 142.706 222.422C142.706 222.819 142.706 223.197 142.724 223.584C142.589 223.557 142.472 223.539 142.346 223.539C142.22 223.539 142.103 223.557 141.978 223.584C141.996 222.926 142.041 222.269 142.041 221.575V221.027C142.041 220.144 141.654 219.658 141.06 219.658Z" fill="#58595B"/>
<path d="M144.828 218.074H144.873C144.837 218.525 144.819 218.966 144.801 219.407C144.927 219.407 145.341 219.398 145.754 219.38C145.745 219.443 145.745 219.506 145.745 219.569C145.745 219.632 145.745 219.696 145.754 219.758C145.44 219.741 145.017 219.741 144.801 219.741C144.783 219.831 144.738 221.244 144.738 222.028C144.738 222.703 144.756 223.387 145.466 223.387C145.565 223.387 145.754 223.36 145.871 223.324V223.54C145.664 223.612 145.404 223.675 145.179 223.675C144.433 223.675 144.073 223.252 144.073 222.55C144.073 221.893 144.127 221.082 144.136 219.741C143.956 219.741 143.758 219.741 143.524 219.758C143.533 219.686 143.542 219.623 143.542 219.551C143.542 219.488 143.533 219.434 143.524 219.371C143.794 219.389 143.992 219.398 144.118 219.398C144.109 219.164 144.1 218.777 144.082 218.39L144.828 218.074Z" fill="#58595B"/>
<path d="M235.834 193.223C235.834 194.6 234.755 195.681 233.35 195.681C231.96 195.681 230.852 194.6 230.852 193.223C230.852 191.876 231.96 190.795 233.35 190.795C234.755 190.795 235.834 191.876 235.834 193.223ZM231.472 193.223C231.472 194.304 232.271 195.163 233.365 195.163C234.429 195.163 235.213 194.304 235.213 193.238C235.213 192.157 234.429 191.283 233.35 191.283C232.271 191.283 231.472 192.157 231.472 193.223ZM232.966 194.496H232.404V192.068C232.626 192.024 232.936 191.994 233.335 191.994C233.794 191.994 234 192.068 234.178 192.172C234.311 192.276 234.415 192.468 234.415 192.705C234.415 192.971 234.208 193.179 233.912 193.268V193.297C234.148 193.386 234.282 193.564 234.355 193.889C234.429 194.259 234.473 194.408 234.533 194.496H233.927C233.853 194.408 233.809 194.186 233.734 193.904C233.69 193.638 233.542 193.519 233.232 193.519H232.966V194.496ZM232.981 193.119H233.246C233.557 193.119 233.809 193.016 233.809 192.764C233.809 192.542 233.646 192.394 233.291 192.394C233.143 192.394 233.04 192.409 232.981 192.423V193.119Z" fill="#14477D"/>
<defs>
<linearGradient id="paint0_linear_1617_43459" x1="65.9434" y1="182.322" x2="227.937" y2="182.322" gradientUnits="userSpaceOnUse">
<stop stop-color="#14477D"/>
<stop offset="0.128219" stop-color="#145288"/>
<stop offset="0.355273" stop-color="#1570A4"/>
<stop offset="0.652607" stop-color="#17A1D2"/>
<stop offset="0.772556" stop-color="#18B6E6"/>
<stop offset="0.803681" stop-color="#14BDEF"/>
<stop offset="1" stop-color="#00C1F2"/>
</linearGradient>
</defs>
</svg>
