<svg width="31" height="32" viewBox="0 0 31 32" fill="none" xmlns="http://www.w3.org/2000/svg">
<path d="M17.9927 6.04895C17.9927 6.43565 18.302 6.70634 18.6694 6.72568L23.2131 6.59033L17.664 12.1395C17.3933 12.4102 17.4126 12.8162 17.664 13.0675L18.2827 13.6863C18.5534 13.9569 18.9401 13.9569 19.2108 13.6863L24.7599 8.13713L24.6439 12.7002C24.6632 13.0675 24.9533 13.3576 25.3206 13.3769H26.1714C26.5387 13.3576 26.8287 13.0675 26.8287 12.7195V5.17888C26.8287 4.83085 26.5387 4.54083 26.1714 4.52149L18.6501 4.54083C18.302 4.54083 18.012 4.83085 17.9927 5.19821V6.04895Z" fill="#B41E8C"/>
<path d="M6.04895 18.4631C6.43565 18.4631 6.70634 18.7725 6.72568 19.1399L6.59033 23.6836L12.1395 18.1344C12.4102 17.8637 12.8162 17.8831 13.0675 18.1344L13.6863 18.7532C13.9569 19.0238 13.9569 19.4105 13.6863 19.6812L8.13713 25.2304L12.7002 25.1144C13.0675 25.1337 13.3576 25.4237 13.3769 25.7911V26.6418C13.3576 27.0092 13.0675 27.2992 12.7195 27.2992H5.17888C4.83085 27.2992 4.54083 27.0092 4.52149 26.6418L4.54083 19.1205C4.54083 18.7725 4.83085 18.4825 5.19821 18.4631H6.04895Z" fill="#B41E8C"/>
</svg>
