<svg width="77" height="77" viewBox="0 0 77 77" fill="none" xmlns="http://www.w3.org/2000/svg">
<g clip-path="url(#clip0_258_69662)">
<path d="M1.26386e-05 76.8143C0.154772 76.6074 0.287048 76.3779 0.467565 76.1968C5.81636 70.8298 11.1655 65.4632 16.5319 60.1139C16.925 59.7221 17.0036 59.4505 16.7244 58.9379C16.1385 57.8626 16.4116 56.5687 17.3663 55.5924C18.5899 54.3412 19.8215 53.097 21.0831 51.8849C21.5359 51.4499 21.6314 51.0758 21.4587 50.4381C20.7288 47.7435 21.4416 45.3977 23.3973 43.4344C29.4622 37.346 35.5347 31.2652 41.6044 25.1815C44.8585 21.9199 48.108 18.6535 51.3737 15.4035C51.7306 15.0483 51.716 14.8346 51.3595 14.4957C50.4443 13.6256 49.5784 12.7035 48.6667 11.8296C48.3079 11.4856 48.2135 11.2293 48.6421 10.8719C49.015 10.561 49.3612 10.2095 49.6759 9.83907C50.0167 9.43794 50.2581 9.44849 50.6324 9.8333C52.2238 11.4696 53.8553 13.0667 55.4539 14.6962C55.7975 15.0464 56.0188 15.1303 56.4138 14.7301C59.3248 11.7806 62.2602 8.85536 65.186 5.92053C65.3077 5.79844 65.4102 5.65707 65.6342 5.39085C64.5868 4.38506 63.5713 3.36819 62.5066 2.40614C62.0132 1.96034 61.9439 1.63848 62.4973 1.20919C62.8446 0.939795 63.157 0.612974 63.4376 0.27259C63.7703 -0.130916 64.0002 -0.0532799 64.3371 0.288804C66.3109 2.29316 68.3069 4.27553 70.2938 6.26691C72.3903 8.36813 74.4853 10.4709 76.5797 12.5742C76.6861 12.681 76.7816 12.7988 77 13.0433C76.409 13.5967 75.8474 14.1538 75.2422 14.6583C75.1414 14.7423 74.7838 14.667 74.6582 14.5466C73.7147 13.642 72.8001 12.7071 71.875 11.7831C71.72 11.6282 71.5583 11.48 71.344 11.2758C71.1503 11.4506 70.9696 11.5993 70.805 11.7642C67.9243 14.6503 65.0535 17.5464 62.1575 20.417C61.7499 20.821 61.7833 21.0459 62.1737 21.4269C63.7438 22.9589 65.2827 24.5232 66.8315 26.0772C67.0178 26.264 67.194 26.4609 67.4538 26.7371C66.8598 27.3293 66.3014 27.9164 65.6981 28.4525C65.6143 28.527 65.2506 28.4111 65.115 28.2804C64.2053 27.4044 63.3019 26.5197 62.4394 25.5973C62.0263 25.1556 61.7796 25.1604 61.3419 25.6003C52.108 34.8813 42.8525 44.1406 33.6139 53.4169C32.1186 54.9183 30.3765 55.8013 28.2407 55.749C27.5868 55.733 26.9239 55.591 26.2903 55.4152C25.845 55.2917 25.556 55.3557 25.235 55.6863C24.0625 56.894 22.863 58.0753 21.6731 59.2659C20.2756 60.6641 19.483 60.8057 17.6359 60.0707C17.4655 60.0029 17.1142 60.1801 16.9479 60.3456C13.8859 63.3928 10.8394 66.4557 7.78931 69.515C5.44311 71.8683 3.09766 74.2223 0.747523 76.5716C0.585951 76.7331 0.387955 76.8581 0.206907 77C0.137938 76.9381 0.0689815 76.8762 1.26386e-05 76.8143Z" fill="#00494F"/>
<path d="M46.5458 38.2381C43.8838 35.5579 41.3283 32.9849 38.7361 30.375C38.539 30.5612 38.3106 30.7661 38.0942 30.9829C33.587 35.4993 29.0815 40.0173 24.575 44.5343C22.3713 46.7431 22.3279 50.2697 24.4793 52.4283C26.6623 54.6188 30.1702 54.5771 32.3996 52.3416C35.5438 49.1888 38.6897 46.0377 41.841 42.8921C43.4073 41.3287 44.9872 39.779 46.5458 38.2381Z" fill="white"/>
<path d="M52.4414 27.7866C52.4414 27.7866 51.8717 27.8949 50.8754 28.0846C50.8131 28.0965 50.7494 28.1086 50.684 28.1213C50.6244 28.1372 50.5635 28.1534 50.5015 28.1702C50.3764 28.2037 50.2465 28.2385 50.1104 28.2748C49.8371 28.3471 49.5416 28.4254 49.2257 28.5088C48.908 28.5875 48.5839 28.7226 48.2339 28.8359C48.0595 28.8959 47.8807 28.9577 47.6975 29.0206C47.5137 29.0824 47.3252 29.1463 47.1454 29.2299C46.7779 29.3871 46.3954 29.551 45.9997 29.7202C45.9006 29.7635 45.8012 29.8067 45.7008 29.8501C45.6046 29.8999 45.5079 29.9502 45.4104 30.0006C45.2148 30.102 45.0161 30.2046 44.8147 30.3085C44.6137 30.4125 44.4091 30.5184 44.2023 30.6249C43.9963 30.7329 43.8046 30.864 43.6013 30.9846C43.2034 31.2361 42.7779 31.473 42.3771 31.7516C41.9807 32.0362 41.5778 32.3265 41.1696 32.6195C40.766 32.9181 40.3923 33.2597 39.9955 33.583C39.8054 33.7476 39.5881 33.9106 39.4179 34.0788C39.2285 34.2594 39.0386 34.4402 38.8478 34.6215L38.5615 34.894L38.295 35.1736L37.7636 35.7345C37.4125 36.114 37.0827 36.5218 36.7447 36.9156C36.4334 37.333 36.1017 37.7328 35.8106 38.16C35.5206 38.59 35.218 39.005 34.9618 39.4493C34.8287 39.6673 34.6967 39.8846 34.5648 40.1001C34.4441 40.3243 34.3249 40.5462 34.2056 40.7665C33.7252 41.6463 33.3353 42.5518 32.9872 43.4265C32.8221 43.8693 32.6766 44.3098 32.5299 44.7343C32.4076 45.1717 32.2782 45.5893 32.1733 46.001C32.0809 46.4195 31.9807 46.8158 31.9057 47.2033C31.8399 47.5951 31.7768 47.9676 31.7171 48.3168C31.6767 48.6757 31.6382 49.0121 31.603 49.3225C31.5671 49.6328 31.5632 49.9314 31.544 50.1942C31.5028 50.7196 31.5194 51.1516 31.5162 51.4404C31.5164 51.7318 31.5166 51.8864 31.5166 51.8864C31.5166 51.8864 31.5048 51.7273 31.4826 51.429C31.4638 51.1323 31.4143 50.688 31.4144 50.1443C31.4128 49.8716 31.3936 49.5627 31.405 49.2392C31.416 48.9151 31.4278 48.5645 31.4402 48.1899C31.4711 47.8228 31.5044 47.432 31.5392 47.0203C31.5827 46.6125 31.6501 46.1941 31.7089 45.7502C31.7808 45.3135 31.8754 44.8691 31.9623 44.4025C32.0731 43.9498 32.1826 43.4782 32.3122 43.0026C32.5872 42.0616 32.9033 41.0811 33.3107 40.1219C33.4114 39.8808 33.513 39.6382 33.6155 39.3933C33.7293 39.1565 33.8433 38.9178 33.9585 38.6777C34.1792 38.1899 34.4462 37.7305 34.7022 37.2546C34.9589 36.7799 35.2572 36.3338 35.5356 35.8673C35.8423 35.4243 36.1374 34.9705 36.4623 34.5358L36.9585 33.8893L37.2072 33.5679L37.4639 33.2667C37.6347 33.0659 37.8055 32.8653 37.9754 32.6657C38.1572 32.4458 38.3442 32.2756 38.5271 32.0794C38.9001 31.7037 39.2507 31.3104 39.6339 30.9591C40.0222 30.6124 40.4066 30.2712 40.7845 29.9345C41.1683 29.6042 41.5789 29.3154 41.9642 29.0129C42.161 28.867 42.3463 28.7111 42.5474 28.5779C42.7496 28.4453 42.9492 28.315 43.1464 28.1867C43.343 28.058 43.5378 27.9311 43.7296 27.8058C43.8257 27.7429 43.9205 27.6812 44.0153 27.6193C44.1144 27.5638 44.213 27.5089 44.3104 27.4545C44.7037 27.2378 45.0837 27.0284 45.4484 26.8275C45.6277 26.7222 45.816 26.6368 46.0012 26.5538C46.1849 26.4699 46.3646 26.3874 46.54 26.3077C46.8962 26.153 47.2125 25.9844 47.5504 25.8648C47.8863 25.7415 48.2 25.6266 48.4908 25.5201C48.6363 25.4673 48.7766 25.4162 48.9103 25.3677C48.9774 25.3438 49.0423 25.3201 49.1061 25.2972C49.1693 25.2794 49.23 25.2615 49.2895 25.245C50.2406 24.9744 50.7847 24.8187 50.7847 24.8187C51.4642 24.6254 52.4066 25.1283 52.8894 25.9416C53.3717 26.7556 53.2118 27.571 52.5318 27.7654C52.5041 27.7732 52.4751 27.7799 52.4463 27.7858L52.4414 27.7866Z" fill="#48D597"/>
</g>
<defs>
<clipPath id="clip0_258_69662">
<rect width="77" height="77" fill="white"/>
</clipPath>
</defs>
</svg>
